<?xml version="1.0" encoding="UTF-8" standalone="no"?>
<svg
   width="78.829002mm"
   height="78.07637mm"
   fill="none"
   version="1.1"
   viewBox="0 0 297.93679 295.09179"
   id="svg882"
   sodipodi:docname="komoot.svg"
   inkscape:version="1.3.2 (091e20e, 2023-11-25)"
   xmlns:inkscape="http://www.inkscape.org/namespaces/inkscape"
   xmlns:sodipodi="http://sodipodi.sourceforge.net/DTD/sodipodi-0.dtd"
   xmlns:xlink="http://www.w3.org/1999/xlink"
   xmlns="http://www.w3.org/2000/svg"
   xmlns:svg="http://www.w3.org/2000/svg">
  <sodipodi:namedview
     id="namedview884"
     pagecolor="#ffffff"
     bordercolor="#666666"
     borderopacity="1.0"
     inkscape:pageshadow="2"
     inkscape:pageopacity="0.0"
     inkscape:pagecheckerboard="0"
     showgrid="false"
     units="mm"
     fit-margin-top="0"
     fit-margin-left="0"
     fit-margin-right="0"
     fit-margin-bottom="0"
     inkscape:zoom="0.5441169"
     inkscape:cx="490.70337"
     inkscape:cy="458.54117"
     inkscape:window-width="1792"
     inkscape:window-height="996"
     inkscape:window-x="0"
     inkscape:window-y="25"
     inkscape:window-maximized="1"
     inkscape:current-layer="svg882"
     inkscape:document-units="mm"
     inkscape:showpageshadow="2"
     inkscape:deskcolor="#d1d1d1" />
  <path
     d="M 0.00431018,147.54266 C 0.00431018,66.206174 66.212639,1.15e-7 147.54697,1.15e-7 c 81.38606,0 147.54267,66.208328885 147.54267,147.542659885 0,32.73889 -10.50782,63.62987 -30.35545,89.55785 l -73.99115,-73.99114 c 1.84792,-5.05888 2.77242,-10.3128 2.77242,-15.61519 0,-25.34506 -20.62558,-45.97065 -45.97064,-45.97065 -25.34506,0 -45.97064,20.62559 -45.97064,45.97065 0,5.30239 0.92449,10.55631 2.77241,15.61519 L 30.355451,237.10051 C 10.507822,211.22101 1.58e-7,180.28155 1.58e-7,147.54266 Z"
     id="path869"
     style="fill:url(#linearGradient980);stroke-width:10.775" />
  <path
     d="m 120.49731,182.37838 27.04751,-42.17675 27.04751,42.12718 73.31016,73.31124 c -27.388,25.44203 -62.94888,39.45174 -100.35767,39.45174 -37.4088,0 -72.96967,-14.00971 -100.357674,-39.45174 z"
     id="path871"
     style="fill:url(#linearGradient982);stroke-width:10.775" />
  <defs
     id="defs880">
    <linearGradient
       id="paint0_linear"
       x1="16"
       x2="16"
       y1="2.3069999"
       y2="29.691999"
       gradientUnits="userSpaceOnUse">
      <stop
         stop-color="#8FCE3C"
         offset="0"
         id="stop875" />
      <stop
         stop-color="#64A322"
         offset="1"
         id="stop877" />
    </linearGradient>
    <linearGradient
       inkscape:collect="always"
       xlink:href="#paint0_linear"
       id="linearGradient980"
       gradientUnits="userSpaceOnUse"
       x1="16"
       y1="2.3069999"
       x2="16"
       y2="29.691999"
       gradientTransform="matrix(10.775043,0,0,10.775043,-24.847249,-24.836474)" />
    <linearGradient
       inkscape:collect="always"
       xlink:href="#paint0_linear"
       id="linearGradient982"
       gradientUnits="userSpaceOnUse"
       x1="16"
       y1="2.3069999"
       x2="16"
       y2="29.691999"
       gradientTransform="matrix(10.775043,0,0,10.775043,-24.847249,-24.836474)" />
  </defs>
</svg>
