<?xml version="1.0" encoding="UTF-8" standalone="no"?>
<!-- Created with Inkscape (http://www.inkscape.org/) -->

<svg
   width="15mm"
   height="15mm"
   viewBox="0 0 15 15"
   version="1.1"
   id="svg1"
   inkscape:export-filename="bitmap.png"
   inkscape:export-xdpi="96"
   inkscape:export-ydpi="96"
   inkscape:version="1.3.2 (091e20e, 2023-11-25)"
   sodipodi:docname="balanced-rock.svg"
   xmlns:inkscape="http://www.inkscape.org/namespaces/inkscape"
   xmlns:sodipodi="http://sodipodi.sourceforge.net/DTD/sodipodi-0.dtd"
   xmlns:xlink="http://www.w3.org/1999/xlink"
   xmlns="http://www.w3.org/2000/svg"
   xmlns:svg="http://www.w3.org/2000/svg">
  <sodipodi:namedview
     id="namedview1"
     pagecolor="#ffffff"
     bordercolor="#000000"
     borderopacity="0.25"
     inkscape:showpageshadow="2"
     inkscape:pageopacity="0.0"
     inkscape:pagecheckerboard="0"
     inkscape:deskcolor="#d1d1d1"
     inkscape:document-units="mm"
     showguides="false"
     inkscape:zoom="9.7736715"
     inkscape:cx="43.279539"
     inkscape:cy="17.700615"
     inkscape:window-width="1792"
     inkscape:window-height="993"
     inkscape:window-x="0"
     inkscape:window-y="27"
     inkscape:window-maximized="0"
     inkscape:current-layer="layer1" />
  <defs
     id="defs1">
    <linearGradient
       id="linearGradient3"
       inkscape:collect="always">
      <stop
         style="stop-color:#d0956e;stop-opacity:1;"
         offset="0"
         id="stop3" />
      <stop
         style="stop-color:#d0956e;stop-opacity:0;"
         offset="1"
         id="stop4" />
    </linearGradient>
    <linearGradient
       inkscape:collect="always"
       xlink:href="#linearGradient3"
       id="linearGradient4"
       x1="8.5748959"
       y1="8.8510809"
       x2="8.6011992"
       y2="10.508193"
       gradientUnits="userSpaceOnUse"
       gradientTransform="matrix(1.0919185,0,0,1.0919184,-1.580622,0.96702514)" />
  </defs>
  <g
     inkscape:label="Layer 1"
     inkscape:groupmode="layer"
     id="layer1">
    <ellipse
       style="fill:#000000;fill-opacity:0.143426;stroke:#c00707;stroke-width:0.165;stroke-dasharray:none;stroke-opacity:0.421348"
       id="path5"
       cx="7.4724536"
       cy="11.982809"
       rx="0.24757871"
       ry="0.26408395" />
    <path
       style="fill:#000000;fill-opacity:0.313253;stroke:none;stroke-width:0.600001;stroke-linecap:round;stroke-linejoin:round"
       d="M 13.965175,9.2431123 14.347035,8.5960783 14.050851,8.1560429 13.672438,7.9307144 13.456986,7.5451567 12.169079,7.3365672 11.363742,7.2434596 9.6492418,7.6476593 8.8882533,8.4851264 7.5235948,9.1253955 l 0.042357,0.4789068 -0.07027,0.4929717 0.2148558,0.49131 1.3408043,0.406679 0.8153945,-0.01513 2.3328896,-0.770892 z"
       id="path1-6"
       sodipodi:nodetypes="ccccccccccccccccc" />
    <path
       style="fill:#d0d0d0;fill-opacity:1;stroke:#fdfdfd;stroke-width:0.2;stroke-linecap:round;stroke-linejoin:round;stroke-dasharray:none;stroke-opacity:1"
       d="M 10.625614,6.8108991 10.403226,5.4896125 9.6961041,4.5910308 9.1072626,4.1308948 8.531748,3.3435602 7.0490447,2.9176065 6.1567573,2.7274746 4.8197286,3.5528774 l 0.0211,1.7101638 -0.7667277,1.3074723 0.4895959,0.9779598 0.3901035,1.006681 0.6736772,1.0032873 1.7205919,0.8304664 0.8012617,-0.0309 1.6129733,-1.5742128 z"
       id="path1-2"
       sodipodi:nodetypes="ccccccccccccccccc" />
    <path
       style="fill:#d0956e;fill-opacity:1;stroke:none;stroke-width:0.6;stroke-linecap:round;stroke-linejoin:round"
       d="M 10.634977,6.7848463 10.412589,5.4635596 9.7054673,4.5649779 9.1166254,4.104842 8.5411109,3.3175074 7.0584075,2.8915537 6.1661201,2.7014218 4.8290915,3.5268245 l 0.0211,1.7101638 -0.7667277,1.3074724 0.489596,0.9779598 0.3901035,1.0066809 0.6736772,1.0032873 1.7205919,0.8304673 0.8012617,-0.0309 1.6129736,-1.5742127 z"
       id="path1"
       sodipodi:nodetypes="ccccccccccccccccc" />
    <path
       style="fill:url(#linearGradient4);fill-opacity:1;stroke:none;stroke-width:0.6;stroke-linecap:round;stroke-linejoin:round"
       d="M 4.1923244,12.915014 11.401327,13.001177 10.855625,12.426754 9.4195692,12.05338 8.8164258,11.335351 8.0122342,10.330111 7.3803694,10.387554 7.1506005,10.55988 6.6336202,10.904534 5.053958,12.31187 Z"
       id="path2"
       sodipodi:nodetypes="ccccccccccc" />
    <path
       style="fill:#000000;fill-opacity:0.273092;stroke:none;stroke-width:0.6;stroke-linecap:round;stroke-linejoin:round;stroke-opacity:1"
       d="M 9.7075201,4.5996545 9.062614,4.0647569 8.5235798,3.3138709 6.2857161,2.6962266 7.7342016,4.865551 8.5098209,7.2434493 7.7250229,10.358832 8.1271187,10.387553 9.9078293,8.7217276 10.597136,6.7686914 10.424809,5.4214628"
       id="path6"
       sodipodi:nodetypes="ccccccccccc" />
    <path
       style="fill:#000000;fill-opacity:0.273092;stroke:none;stroke-width:0.6;stroke-linecap:round;stroke-linejoin:round;stroke-opacity:1"
       d="M 4.5573892,5.7313733 4.8355994,5.3314464 6.3309788,6.0269716 Z"
       id="path7"
       sodipodi:nodetypes="cccc" />
    <path
       style="fill:#000000;fill-opacity:0.273092;stroke:none;stroke-width:0.6;stroke-linecap:round;stroke-linejoin:round;stroke-opacity:1"
       d="M 5.1190179,8.7675091 4.9277485,8.5066873 6.5970092,8.211089 Z"
       id="path7-4"
       sodipodi:nodetypes="cccc" />
    <path
       style="fill:#000000;fill-opacity:0.273092;stroke:none;stroke-width:0.6;stroke-linecap:round;stroke-linejoin:round;stroke-opacity:1"
       d="M 8.38297,6.9233792 8.5296582,7.2116405 6.8345753,7.234081 Z"
       id="path7-4-8"
       sodipodi:nodetypes="cccc" />
    <path
       style="fill:#000000;fill-opacity:0.273092;stroke:none;stroke-width:0.6;stroke-linecap:round;stroke-linejoin:round;stroke-opacity:1"
       d="M 7.0873317,4.8150106 6.3993895,5.1728243 5.1737862,5.1604885 Z"
       id="path7-4-8-4"
       sodipodi:nodetypes="cccc" />
    <path
       style="fill:#000000;fill-opacity:0.273092;stroke:none;stroke-width:0.6;stroke-linecap:round;stroke-linejoin:round;stroke-opacity:1"
       d="M 7.7819267,9.2131024 7.0201906,9.3581997 5.8497952,8.9942902 Z"
       id="path7-4-8-4-2"
       sodipodi:nodetypes="cccc" />
  </g>
</svg>
