<?xml version="1.0" encoding="UTF-8" standalone="no"?>
<!-- Created with Inkscape (http://www.inkscape.org/) -->

<svg
   width="15mm"
   height="15mm"
   viewBox="0 0 15 15"
   version="1.1"
   id="svg1"
   inkscape:export-filename="beehive-tomb.png"
   inkscape:export-xdpi="96"
   inkscape:export-ydpi="96"
   inkscape:version="1.3.2 (091e20e, 2023-11-25)"
   sodipodi:docname="beehive-tomb.svg"
   xml:space="preserve"
   xmlns:inkscape="http://www.inkscape.org/namespaces/inkscape"
   xmlns:sodipodi="http://sodipodi.sourceforge.net/DTD/sodipodi-0.dtd"
   xmlns:xlink="http://www.w3.org/1999/xlink"
   xmlns="http://www.w3.org/2000/svg"
   xmlns:svg="http://www.w3.org/2000/svg"><sodipodi:namedview
     id="namedview1"
     pagecolor="#ffffff"
     bordercolor="#000000"
     borderopacity="0.25"
     inkscape:showpageshadow="2"
     inkscape:pageopacity="0.0"
     inkscape:pagecheckerboard="0"
     inkscape:deskcolor="#d1d1d1"
     inkscape:document-units="mm"
     showguides="false"
     inkscape:zoom="15.742577"
     inkscape:cx="36.207542"
     inkscape:cy="39.63773"
     inkscape:window-width="1792"
     inkscape:window-height="993"
     inkscape:window-x="0"
     inkscape:window-y="43"
     inkscape:window-maximized="0"
     inkscape:current-layer="layer1" /><defs
     id="defs1"><linearGradient
       id="linearGradient4"
       inkscape:collect="always"><stop
         style="stop-color:#21341e;stop-opacity:1;"
         offset="0"
         id="stop4" /><stop
         style="stop-color:#54b53e;stop-opacity:0.99763036;"
         offset="1"
         id="stop5" /></linearGradient><filter
       inkscape:collect="always"
       style="color-interpolation-filters:sRGB"
       id="filter2"
       x="-0.064746818"
       y="-0.044746492"
       width="1.1294936"
       height="1.089493"><feGaussianBlur
         inkscape:collect="always"
         stdDeviation="1.5994052"
         id="feGaussianBlur2" /></filter><radialGradient
       inkscape:collect="always"
       xlink:href="#linearGradient4"
       id="radialGradient5"
       cx="114.10508"
       cy="146.35547"
       fx="114.10508"
       fy="146.35547"
       r="151.37684"
       gradientTransform="matrix(0.03140813,-0.00152744,0.0012377,0.02386884,3.9187804,5.589939)"
       gradientUnits="userSpaceOnUse" /></defs><g
     inkscape:label="Layer 1"
     inkscape:groupmode="layer"
     id="layer1"><ellipse
       style="fill:#000000;fill-opacity:0.143426;stroke:#c00707;stroke-width:0.165;stroke-dasharray:none;stroke-opacity:0.421348"
       id="path5"
       cx="7.4724536"
       cy="11.982809"
       rx="0.24757871"
       ry="0.26408395" /><path
       style="fill:url(#radialGradient5);stroke:#000000;stroke-width:0.058;stroke-linecap:round;stroke-linejoin:bevel;stroke-dasharray:none;stroke-opacity:0.570281"
       d="m 9.8407455,12.914193 2.9444915,0.239443 C 11.993972,12.147907 11.961349,10.96614 11.976063,10.824515 11.552967,9.2047551 11.281139,8.2444857 10.627442,7.4287872 9.7405503,6.3572061 9.381046,6.2786765 8.2448762,5.7962255 7.8178127,5.7582015 7.3907493,5.7654296 6.9636858,5.861528 5.6127677,6.2050099 5.3031545,6.3762202 4.1315795,7.4723218 3.655272,8.4860549 3.0145496,8.9343174 2.8054346,10.25856 2.6835055,11.40812 1.5579754,11.584652 1.70406,11.586377 l 2.1128411,0.02177 c 2.0079482,0.43535 3.6935282,-0.846356 6.0238444,1.306049 z"
       id="path4"
       sodipodi:nodetypes="ccccccccsccc" /><path
       style="fill:#afac8e;fill-opacity:1;stroke:#000000;stroke-width:0.158;stroke-linecap:round;stroke-linejoin:bevel;stroke-dasharray:none;stroke-opacity:0.329268"
       d="m 4.2301185,11.682505 -0.5322211,-0.04686 v -1.03084 L 3.9640079,9.6676815 C 4.2704789,8.8454778 4.4286167,8.6927851 5.0768337,8.0042805 L 5.9719325,7.3717195 6.8428394,6.7860148 C 7.6211213,6.4273092 7.8942297,6.6393673 8.2459675,6.7625869 l 0.7983313,0.6559889 0.6773725,0.8199863 0.5322207,0.7965584 0.38707,0.9839835 0.193535,1.101125 0.04838,0.77313 -0.725755,-0.163998 z"
       id="path3"
       sodipodi:nodetypes="cccccccccccccccc" /><path
       style="fill:#97b8cb;fill-opacity:1;stroke:#000000;stroke-width:0.058;stroke-linecap:round;stroke-linejoin:round;stroke-dasharray:none;stroke-opacity:0.991968"
       d="M 4.4478453,11.799646 4.6171883,10.229958 5.1252174,9.0585484 6.5283453,7.8871395 7.5444035,7.3482911 8.5604616,7.9574237 9.4555608,9.0585489 9.915206,9.8785352 l 0.26611,0.9136998 -0.02419,1.030839 z"
       id="path2"
       sodipodi:nodetypes="ccccccccccc" /><path
       style="mix-blend-mode:normal;fill:#000000;fill-opacity:0.293173;stroke:none;stroke-width:135.04083828;stroke-linecap:round;stroke-linejoin:round;stroke-opacity:0.329268;filter:url(#filter2);stroke-dasharray:none"
       d="m 59.233395,198.74053 3.143948,-30.09208 9.431846,-22.45678 26.049858,-22.45677 20.660233,-10.33012 -10.33011,14.82147 -9.431851,18.41456 -2.694812,23.35505 0.898271,25.60073 6.287902,3.59307 z"
       id="path2-2"
       sodipodi:nodetypes="ccccccccccc"
       transform="matrix(0.05386317,0,0,0.05216284,1.2545194,1.4209608)" /><ellipse
       style="fill:#839fb1;fill-opacity:1;stroke:none;stroke-width:8.45798;stroke-linecap:round;stroke-linejoin:round;stroke-opacity:0.329268"
       id="path1"
       cx="7.3629651"
       cy="11.905072"
       rx="2.8667357"
       ry="1.0191261"
       inkscape:label="floor" /><path
       style="fill:#afac8e;fill-opacity:1;stroke:none;stroke-width:1.558;stroke-linecap:round;stroke-linejoin:bevel;stroke-dasharray:none;stroke-opacity:0.329268"
       d="M 9.3798039,12.64165 9.2223026,10.969093 c -0.08713,-0.0039 -0.1117725,-0.651728 -0.1787767,-0.809366 L 8.7504796,8.9817965 7.6917769,7.3058399 C 7.8320969,7.2421637 8.0991435,6.9263688 8.2262385,6.877124 l 0.7229261,0.6164531 0.7994437,0.8933361 0.4160587,0.7514297 0.404394,1.0572031 0.228249,1.056127 0.04838,0.77313 c -0.111804,0.45569 -0.609976,0.696551 -0.9643761,0.976038 -0.06239,-0.115463 -0.4923018,-0.328281 -0.501513,-0.359191 z"
       id="path3-9"
       sodipodi:nodetypes="cccccccccccccc" /><path
       style="fill:#afac8e;fill-opacity:1;stroke:#000000;stroke-width:0.098;stroke-linecap:round;stroke-linejoin:bevel;stroke-dasharray:none;stroke-opacity:0.570281"
       d="M 9.3533038,12.63541 9.2499204,11.243229 C 9.195942,10.613248 8.8806878,9.6054627 8.7239794,8.9755568 8.3920966,8.2007221 7.958991,7.8127855 7.5573274,7.362325 7.5681086,7.303876 7.5197498,6.6891181 7.5658809,6.5980571 L 8.6756151,7.8883695 C 8.8435104,8.2368694 9.087774,8.566719 9.1870368,8.9373741 l 0.1408936,0.5376184 0.2845877,1.0998315 0.09471,0.530857 0.087072,0.787223 c -0.022895,-0.02962 0.04311,0.75959 0.060515,1.101697 -0.06239,-0.115463 -0.4923018,-0.328281 -0.501513,-0.359191 z"
       id="path3-9-8"
       sodipodi:nodetypes="cccccccccccccc" /></g></svg>
