<?xml version="1.0" encoding="UTF-8" standalone="no"?>
<!-- Created with Inkscape (http://www.inkscape.org/) -->

<svg
   width="15mm"
   height="15mm"
   viewBox="0 0 15 15"
   version="1.1"
   id="svg1"
   inkscape:export-filename="bitmap.png"
   inkscape:export-xdpi="96"
   inkscape:export-ydpi="96"
   inkscape:version="1.3.2 (091e20e, 2023-11-25)"
   sodipodi:docname="big-cat.svg"
   xmlns:inkscape="http://www.inkscape.org/namespaces/inkscape"
   xmlns:sodipodi="http://sodipodi.sourceforge.net/DTD/sodipodi-0.dtd"
   xmlns="http://www.w3.org/2000/svg"
   xmlns:svg="http://www.w3.org/2000/svg">
  <sodipodi:namedview
     id="namedview1"
     pagecolor="#ffffff"
     bordercolor="#000000"
     borderopacity="0.25"
     inkscape:showpageshadow="2"
     inkscape:pageopacity="0.0"
     inkscape:pagecheckerboard="0"
     inkscape:deskcolor="#d1d1d1"
     inkscape:document-units="mm"
     showguides="false"
     inkscape:zoom="10.137539"
     inkscape:cx="54.253799"
     inkscape:cy="26.041823"
     inkscape:window-width="1792"
     inkscape:window-height="993"
     inkscape:window-x="0"
     inkscape:window-y="25"
     inkscape:window-maximized="0"
     inkscape:current-layer="layer1" />
  <defs
     id="defs1" />
  <g
     inkscape:label="Layer 1"
     inkscape:groupmode="layer"
     id="layer1">
    <ellipse
       style="fill:#000000;fill-opacity:0.143426;stroke:#c00707;stroke-width:0.165;stroke-dasharray:none;stroke-opacity:0.4213483"
       id="path5"
       cx="7.4724536"
       cy="11.982809"
       rx="0.24757871"
       ry="0.26408395" />
    <path
       d="M 12.904136,9.0932871 12.599802,9.366417 c -0.05073,0.045541 -0.115628,0.069435 -0.181352,0.069435 -0.03613,0 -0.07251,-0.0072 -0.106989,-0.022008 L 11.531317,9.0791293 10.671805,8.9886466 9.8122906,10.032865 v 1.62481 h 0.2262084 c 0.149907,0 0.27143,0.121524 0.27143,0.27143 0,0.149925 -0.121507,0.271431 -0.27143,0.271431 H 9.3599235 L 8.8849444,10.029142 H 7.3694696 c -0.3008438,0 -0.5835791,-0.064704 -0.8391541,-0.2221152 L 5.7345929,9.3627936 4.7215795,10.435184 c -0.052072,0.05515 -0.1091484,0.105377 -0.1704587,0.15001 l -0.9815784,0.715111 0.1284996,0.358705 0.2526338,8.73e-4 c 0.1489136,5.5e-4 0.269407,0.121421 0.269407,0.270327 0,0.149325 -0.1210607,0.270328 -0.2703257,0.270328 H 3.3153472 L 2.881501,10.979563 C 2.850288,10.888183 2.866075,10.78732 2.924009,10.709511 L 3.7265324,9.727841 3.57018,8.6710761 2.8114544,9.3052096 C 2.6505598,9.4397254 2.454588,9.5058178 2.2594475,9.5058178 2.0274504,9.5058178 1.7966019,9.4123869 1.627199,9.2293318 1.4650532,9.0540927 1.3844019,8.826415 1.4000269,8.5882601 1.4156244,8.3500584 1.5253556,8.1348811 1.7089591,7.9823458 c 0.096002,-0.079839 0.2386611,-0.066692 0.3185376,0.029412 0.079839,0.096053 0.066692,0.2386611 -0.029413,0.3185376 -0.08714,0.072383 -0.1392122,0.1745039 -0.1465996,0.2875619 -0.00737,0.1130564 0.030886,0.2211502 0.1078115,0.3042885 0.147988,0.1598833 0.3949192,0.1758373 0.5620699,0.036028 0,0 0.8948544,-0.7495346 1.1941813,-0.9981233 0.3901868,-0.3240513 0.9001404,-0.469602 1.3925836,-0.469602 h 3.0765411 c 0.2152236,0 0.4267245,-0.056305 0.613453,-0.1632942 0.1836936,-0.1049319 0.3685844,-0.1912788 0.5741107,-0.1912788 0.2422014,0 1.3107308,0.2333304 1.8721118,0.340045 0.04136,-0.1337446 0.127403,-0.235857 0.202401,-0.3035536 0.06356,-0.057403 0.164117,-0.038514 0.202448,0.038103 l 0.193071,0.3861418 0.706976,0.5018188 c 0.0597,0.042044 0.09453,0.1103996 0.09453,0.183235 v 0.093671 l 0.29441,0.4181744 c 0.06626,0.094031 0.05167,0.2228973 -0.03406,0.2997863 z m -1.075102,1.4249369 v 0 l -1.199053,-1.0516177 -0.544375,0.6613867 1.290232,0.691489 0.380628,0.535688 c 0.08319,0.125192 0.252127,0.159164 0.377226,0.07597 0.12514,-0.08319 0.159146,-0.252082 0.07597,-0.377228 z M 6.5856474,10.141549 C 6.5194178,10.112 6.454988,10.079039 6.39322,10.041262 L 5.7868464,9.7027324 4.8816975,10.659171 5.3790583,12.200522 h 0.6333061 c 0.1499077,0 0.2714295,-0.121523 0.2714295,-0.271431 0,-0.149908 -0.1215065,-0.27143 -0.2714295,-0.27143 H 5.7908451 L 5.594282,11.052483 Z"
       id="path1"
       style="stroke-width:0.0459584" />
  </g>
</svg>
