<?xml version="1.0" encoding="UTF-8" standalone="no"?>
<!-- Created with Inkscape (http://www.inkscape.org/) -->

<svg
   width="15mm"
   height="15mm"
   viewBox="0 0 15 15"
   version="1.1"
   id="svg1"
   inkscape:export-filename="bitmap.png"
   inkscape:export-xdpi="96"
   inkscape:export-ydpi="96"
   inkscape:version="1.3.2 (091e20e, 2023-11-25)"
   sodipodi:docname="cartoquirk.svg"
   xml:space="preserve"
   xmlns:inkscape="http://www.inkscape.org/namespaces/inkscape"
   xmlns:sodipodi="http://sodipodi.sourceforge.net/DTD/sodipodi-0.dtd"
   xmlns="http://www.w3.org/2000/svg"
   xmlns:svg="http://www.w3.org/2000/svg"><sodipodi:namedview
     id="namedview1"
     pagecolor="#ffffff"
     bordercolor="#000000"
     borderopacity="0.25"
     inkscape:showpageshadow="2"
     inkscape:pageopacity="0.0"
     inkscape:pagecheckerboard="0"
     inkscape:deskcolor="#d1d1d1"
     inkscape:document-units="mm"
     showguides="false"
     inkscape:zoom="10.048276"
     inkscape:cx="44.385724"
     inkscape:cy="28.263555"
     inkscape:window-width="1792"
     inkscape:window-height="993"
     inkscape:window-x="0"
     inkscape:window-y="34"
     inkscape:window-maximized="0"
     inkscape:current-layer="layer1" /><defs
     id="defs1" /><g
     inkscape:label="Layer 1"
     inkscape:groupmode="layer"
     id="layer1"><ellipse
       style="fill:#000000;fill-opacity:0.143426;stroke:#c00707;stroke-width:0.165;stroke-dasharray:none;stroke-opacity:0.421348"
       id="path5"
       cx="7.4724536"
       cy="11.982809"
       rx="0.24757871"
       ry="0.26408395" /><path
       id="rect1-36"
       style="fill:#000000;fill-opacity:0.325843;stroke:none;stroke-width:1.65865;stroke-linecap:round;stroke-linejoin:round;stroke-dasharray:none;stroke-opacity:0.320225"
       d="M 9.5257783,8.9398603 10.062236,9.5042152 9.4829563,8.9580176 7.2126729,9.8415325 8.573832,10.187244 8.616578,10.174344 8.829892,10.304002 8.5829278,10.193481 5.7301276,11.13968 c 0.341187,0.1186 0.8766686,0.273935 1.0930825,0.332462 l -0.0051,0.002 0.6768401,0.662113 2.4416432,-0.896388 -0.0056,-0.0059 2.2075216,-0.859083 0.01121,0.0026 2.373405,-0.8155441 -0.984211,-0.3740295 -2.933303,0.8134426 0.0021,5.86e-4 -0.466524,0.164018 0.44886,-0.1669165 -0.329335,-0.2967196 0.38242,0.2842116 2.910481,-0.8054191 -0.93784,-0.3708878 0.02868,-0.010188 -0.56228,-0.5886979 z M 4.9752657,10.55453 5.7431506,11.127791 8.5731275,10.189616 7.2005952,9.8573795 Z m 7.5159403,-1.6997747 -2.257153,0.8114641 -0.0069,-0.00653 z m -3.3102483,1.6626937 0.00588,0.0036 0.05566,-0.02077 0.212469,0.237404 -0.218349,-0.227626 -1.9580667,0.780521 z" /><g
       id="g1"
       transform="matrix(0.04669337,-0.0381862,0.03832317,0.04631707,-1.2012686,4.986782)"
       style="stroke-width:1.66065;stroke-dasharray:none"><path
         id="rect1"
         style="fill:#c4b974;fill-opacity:1;stroke:#8f7843;stroke-width:1.66065;stroke-linecap:round;stroke-linejoin:round;stroke-dasharray:none;stroke-opacity:1"
         d="m 44.249649,66.150987 41.56785,4.022695 7.598425,38.439088 -54.082903,-2.68179 z"
         sodipodi:nodetypes="ccccc" /><path
         id="rect1-0"
         style="fill:#c4b772;fill-opacity:0.994382;stroke:#8f7843;stroke-width:1.66065;stroke-linecap:round;stroke-linejoin:round;stroke-dasharray:none;stroke-opacity:1"
         d="m 86.328519,69.626372 46.484471,-4.022696 -8.49235,46.931434 -30.840663,-4.02269 z"
         sodipodi:nodetypes="ccccc" /><path
         id="rect1-3"
         style="fill:#c1b46c;fill-opacity:1;stroke:#8f7843;stroke-width:1.66065;stroke-linecap:round;stroke-linejoin:round;stroke-dasharray:none;stroke-opacity:1"
         d="m 133.7249,65.457257 46.03751,8.04539 -7.59843,37.098193 -47.82537,0.44697 z"
         sodipodi:nodetypes="ccccc" /><path
         id="rect1-2"
         style="fill:#c4b773;fill-opacity:1;stroke:#8f7843;stroke-width:1.66065;stroke-linecap:round;stroke-linejoin:round;stroke-dasharray:none;stroke-opacity:1"
         d="m 38.903883,106.27758 54.529868,2.6818 0.446967,25.0301 -50.507174,6.25753 c -1.042921,-6.26694 -3.42674,-22.64629 -4.469661,-33.96943 z"
         sodipodi:nodetypes="ccccc" /><path
         id="rect1-7"
         style="fill:#cbc184;fill-opacity:1;stroke:#8f7843;stroke-width:1.66065;stroke-linecap:round;stroke-linejoin:round;stroke-dasharray:none;stroke-opacity:1"
         d="m 94.273727,108.50471 29.946733,3.57573 -3.57574,21.00741 -28.158857,1.3409 z"
         sodipodi:nodetypes="ccccc" /><path
         id="rect1-39"
         style="fill:#c1b56c;fill-opacity:1;stroke:#8f7843;stroke-width:1.66065;stroke-linecap:round;stroke-linejoin:round;stroke-dasharray:none;stroke-opacity:1"
         d="m 124.22044,111.47678 47.37842,-0.89394 1.78786,33.07549 -51.84807,-10.28022 z"
         sodipodi:nodetypes="ccccc" /><path
         id="rect1-398"
         style="fill:#c4b773;fill-opacity:1;stroke:#8f7843;stroke-width:1.66065;stroke-linecap:round;stroke-linejoin:round;stroke-dasharray:none;stroke-opacity:1"
         d="m 43.245107,140.10314 50.060207,-5.36359 -9.386288,46.03752 -48.719309,1.78786 z"
         sodipodi:nodetypes="ccccc" /><path
         id="rect1-6"
         style="fill:#c8bd7c;fill-opacity:1;stroke:#8f7843;stroke-width:1.66065;stroke-linecap:round;stroke-linejoin:round;stroke-dasharray:none;stroke-opacity:1"
         d="m 93.790798,133.51682 h 27.264932 l 8.93932,42.90874 -46.484473,4.0227 z"
         sodipodi:nodetypes="ccccc" /><path
         id="rect1-399"
         style="fill:#baac5b;fill-opacity:1;stroke:#8f7843;stroke-width:1.66065;stroke-linecap:round;stroke-linejoin:round;stroke-dasharray:none;stroke-opacity:1"
         d="m 120.76289,133.45259 52.29503,10.28023 2.23483,33.96943 -46.0375,-0.89394 z"
         sodipodi:nodetypes="ccccc" /></g></g></svg>
