<?xml version="1.0" encoding="UTF-8" standalone="no"?>
<!-- Created with Inkscape (http://www.inkscape.org/) -->

<svg
   width="15mm"
   height="15mm"
   viewBox="0 0 15 15"
   version="1.1"
   id="svg1"
   inkscape:export-filename="caves.png"
   inkscape:export-xdpi="96"
   inkscape:export-ydpi="96"
   inkscape:version="1.3.2 (091e20e, 2023-11-25)"
   sodipodi:docname="caves.svg"
   xmlns:inkscape="http://www.inkscape.org/namespaces/inkscape"
   xmlns:sodipodi="http://sodipodi.sourceforge.net/DTD/sodipodi-0.dtd"
   xmlns:xlink="http://www.w3.org/1999/xlink"
   xmlns="http://www.w3.org/2000/svg"
   xmlns:svg="http://www.w3.org/2000/svg">
  <sodipodi:namedview
     id="namedview1"
     pagecolor="#ffffff"
     bordercolor="#000000"
     borderopacity="0.25"
     inkscape:showpageshadow="2"
     inkscape:pageopacity="0.0"
     inkscape:pagecheckerboard="0"
     inkscape:deskcolor="#d1d1d1"
     inkscape:document-units="mm"
     showguides="false"
     inkscape:zoom="23.750934"
     inkscape:cx="29.76725"
     inkscape:cy="32.630296"
     inkscape:window-width="1792"
     inkscape:window-height="993"
     inkscape:window-x="733"
     inkscape:window-y="64"
     inkscape:window-maximized="0"
     inkscape:current-layer="layer1" />
  <defs
     id="defs1">
    <linearGradient
       id="linearGradient1"
       inkscape:collect="always">
      <stop
         style="stop-color:#000000;stop-opacity:0.86797701;"
         offset="0"
         id="stop1" />
      <stop
         style="stop-color:#000000;stop-opacity:0;"
         offset="1"
         id="stop2" />
    </linearGradient>
    <linearGradient
       inkscape:collect="always"
       xlink:href="#linearGradient1"
       id="linearGradient2"
       x1="7.5436387"
       y1="10.733417"
       x2="7.5605402"
       y2="12.003366"
       gradientUnits="userSpaceOnUse" />
  </defs>
  <g
     inkscape:label="Layer 1"
     inkscape:groupmode="layer"
     id="layer1">
    <path
       style="fill:#826d44;fill-opacity:0.867977;stroke:#000000;stroke-width:0.126;stroke-opacity:1"
       d="M 2.6151998,12.067729 C 2.6560537,11.254364 2.7401812,10.534201 2.8585755,9.8963657 3.0978009,8.6075677 3.0758921,8.3010137 3.5206203,7.5947871 3.9552011,6.9046745 4.4301426,5.7926315 4.9206728,5.4894813 5.7873753,4.9538545 7.0565057,4.9027545 7.4990067,4.8522984 c 0.4017105,-0.045805 1.8232156,0.308292 2.2915636,0.5773181 0.5358987,0.3078282 0.9823367,0.9487647 1.3885487,1.7583132 0.357809,0.7130823 0.837897,1.2620601 1.03681,2.4101149 0.09649,0.5569204 0.124201,1.7613444 0.166884,2.4381764"
       id="path3"
       sodipodi:nodetypes="csssssssc" />
    <ellipse
       style="fill:#000000;fill-opacity:0.143426;stroke:#c00707;stroke-width:0.165;stroke-dasharray:none;stroke-opacity:0.421348"
       id="path5"
       cx="7.4724536"
       cy="11.982809"
       rx="0.24757871"
       ry="0.26408395" />
    <path
       style="fill:url(#linearGradient2);stroke:none;stroke-width:0.126"
       d="m 3.8544096,11.997686 7.0404254,0.01114 0.03342,-0.824354 c 0,0 -0.187066,-1.143541 -0.222798,-1.381349 C 10.6619,9.5132404 10.337839,8.4551936 10.337839,8.4551936 L 9.8811024,7.1295442 c 0,0 -0.9811219,-0.9718645 -1.2253904,-1.0582919 C 8.3420733,5.9602804 7.1405063,5.9820735 7.1406839,5.9821327 L 5.7036351,6.427729 4.946121,7.3189222 c 0,0 -0.4413263,1.133067 -0.4901561,1.2922297 -0.093717,0.305474 -0.4344567,1.2922303 -0.4344567,1.2922303 l 0.03342,1.0360108 -0.02228,0.590416 z"
       id="path1"
       sodipodi:nodetypes="cccsccscccscccc" />
  </g>
</svg>
