<?xml version="1.0" encoding="UTF-8" standalone="no"?>
<!-- Created with Inkscape (http://www.inkscape.org/) -->

<svg
   width="15mm"
   height="15mm"
   viewBox="0 0 15 15"
   version="1.1"
   id="svg1"
   inkscape:export-filename="folklore-changeling.png"
   inkscape:export-xdpi="96"
   inkscape:export-ydpi="96"
   inkscape:version="1.3.2 (091e20e, 2023-11-25)"
   sodipodi:docname="folklore-changeling.svg"
   xml:space="preserve"
   xmlns:inkscape="http://www.inkscape.org/namespaces/inkscape"
   xmlns:sodipodi="http://sodipodi.sourceforge.net/DTD/sodipodi-0.dtd"
   xmlns:xlink="http://www.w3.org/1999/xlink"
   xmlns="http://www.w3.org/2000/svg"
   xmlns:svg="http://www.w3.org/2000/svg"><sodipodi:namedview
     id="namedview1"
     pagecolor="#ffffff"
     bordercolor="#000000"
     borderopacity="0.25"
     inkscape:showpageshadow="2"
     inkscape:pageopacity="0.0"
     inkscape:pagecheckerboard="0"
     inkscape:deskcolor="#d1d1d1"
     inkscape:document-units="mm"
     showguides="false"
     inkscape:zoom="6.5188662"
     inkscape:cx="66.882796"
     inkscape:cy="51.542705"
     inkscape:window-width="1792"
     inkscape:window-height="993"
     inkscape:window-x="0"
     inkscape:window-y="25"
     inkscape:window-maximized="0"
     inkscape:current-layer="layer1" /><defs
     id="defs1"><linearGradient
       id="linearGradient9"><stop
         style="stop-color:#17360a;stop-opacity:1;"
         offset="0"
         id="stop10" /><stop
         style="stop-color:#4cab1c;stop-opacity:1;"
         offset="1"
         id="stop11" /></linearGradient><linearGradient
       id="linearGradient9-1"><stop
         style="stop-color:#17360a;stop-opacity:1;"
         offset="0"
         id="stop9" /><stop
         style="stop-color:#4cab1c;stop-opacity:1;"
         offset="1"
         id="stop8" /></linearGradient><filter
       inkscape:collect="always"
       style="color-interpolation-filters:sRGB"
       id="filter1"
       x="-0.041453233"
       y="-0.13545699"
       width="1.0829065"
       height="1.270914"><feGaussianBlur
         inkscape:collect="always"
         stdDeviation="0.14356502"
         id="feGaussianBlur1" /></filter><filter
       inkscape:collect="always"
       style="color-interpolation-filters:sRGB"
       id="filter13"
       x="-0.03493242"
       y="-0.026968303"
       width="1.0698648"
       height="1.0539366"><feGaussianBlur
         inkscape:collect="always"
         stdDeviation="1.4946487"
         id="feGaussianBlur13" /></filter><radialGradient
       inkscape:collect="always"
       xlink:href="#linearGradient8"
       id="radialGradient10"
       cx="39.981888"
       cy="170.39244"
       fx="39.981888"
       fy="170.39244"
       r="51.344234"
       gradientTransform="matrix(-0.03503466,0.02613251,0.03607074,0.06983973,6.3263369,-5.5990942)"
       gradientUnits="userSpaceOnUse" /><linearGradient
       id="linearGradient8"
       inkscape:collect="always"><stop
         style="stop-color:#c6c2a6;stop-opacity:0.9312796;"
         offset="0"
         id="stop9-8" /><stop
         style="stop-color:#9b9863;stop-opacity:1;"
         offset="1"
         id="stop10-3" /></linearGradient><radialGradient
       inkscape:collect="always"
       xlink:href="#linearGradient13"
       id="radialGradient14"
       cx="149.4478"
       cy="59.587414"
       fx="149.4478"
       fy="59.587414"
       r="17.64156"
       gradientTransform="matrix(0.00888473,0.03236164,-0.21127,0.0350965,5.6638355,2.5434097)"
       gradientUnits="userSpaceOnUse"
       spreadMethod="pad" /><linearGradient
       id="linearGradient13"
       inkscape:collect="always"><stop
         style="stop-color:#551c1f;stop-opacity:1;"
         offset="0.01"
         id="stop13" /><stop
         style="stop-color:#9a2e79;stop-opacity:1;"
         offset="0.77351916"
         id="stop15" /><stop
         style="stop-color:#e7d169;stop-opacity:1;"
         offset="1"
         id="stop14" /></linearGradient><linearGradient
       inkscape:collect="always"
       xlink:href="#linearGradient3"
       id="linearGradient4"
       x1="56.434418"
       y1="160.30797"
       x2="104.93918"
       y2="160.30797"
       gradientUnits="userSpaceOnUse"
       gradientTransform="matrix(-0.05280502,0,0,0.06345861,14.787638,-2.9074392)" /><linearGradient
       id="linearGradient3"
       inkscape:collect="always"><stop
         style="stop-color:#000000;stop-opacity:1;"
         offset="0"
         id="stop3" /><stop
         style="stop-color:#000000;stop-opacity:0;"
         offset="1"
         id="stop4" /></linearGradient><linearGradient
       inkscape:collect="always"
       xlink:href="#linearGradient3"
       id="linearGradient5"
       gradientUnits="userSpaceOnUse"
       x1="56.434418"
       y1="160.30797"
       x2="104.93918"
       y2="160.30797"
       gradientTransform="matrix(-0.05280502,0,0,0.06345861,16.000407,-0.02721236)" /><linearGradient
       inkscape:collect="always"
       xlink:href="#linearGradient3"
       id="linearGradient6"
       gradientUnits="userSpaceOnUse"
       gradientTransform="matrix(0.04019077,0,0,0.06392761,7.5923895,-1.1092307)"
       x1="56.434418"
       y1="160.30797"
       x2="104.93918"
       y2="160.30797" /><filter
       inkscape:collect="always"
       style="color-interpolation-filters:sRGB"
       id="filter11"
       x="-0.12085768"
       y="-0.17750971"
       width="1.2417154"
       height="1.3550194"><feGaussianBlur
         inkscape:collect="always"
         stdDeviation="0.32935734"
         id="feGaussianBlur11" /></filter><filter
       inkscape:collect="always"
       style="color-interpolation-filters:sRGB"
       id="filter12"
       x="-0.083515323"
       y="-0.12266313"
       width="1.1670306"
       height="1.2453263"><feGaussianBlur
         inkscape:collect="always"
         stdDeviation="0.16309739"
         id="feGaussianBlur12" /></filter><filter
       inkscape:collect="always"
       style="color-interpolation-filters:sRGB"
       id="filter10"
       x="-0.094962376"
       y="-0.078317245"
       width="1.1899248"
       height="1.1566345"><feGaussianBlur
         inkscape:collect="always"
         stdDeviation="1.1043935"
         id="feGaussianBlur10" /></filter><filter
       inkscape:collect="always"
       style="color-interpolation-filters:sRGB"
       id="filter13-7"
       x="-0.010836271"
       y="-0.0083657484"
       width="1.0216725"
       height="1.0167315"><feGaussianBlur
         inkscape:collect="always"
         stdDeviation="0.46365004"
         id="feGaussianBlur13-0" /></filter></defs><g
     inkscape:label="Layer 1"
     inkscape:groupmode="layer"
     id="layer1"><path
       id="path1-7"
       style="fill:#000000;fill-opacity:0.297189;stroke:none;stroke-width:0.54;stroke-linecap:round;stroke-linejoin:round;stroke-dasharray:none;stroke-opacity:1;filter:url(#filter1)"
       d="m 14.846924,10.785841 c -0.37692,0.663301 -2.517644,1.201012 -4.78144,1.201012 -0.5659486,0 -1.0860124,-0.0336 -1.5418696,-0.09438 -0.2279278,-0.03039 -0.1212085,-0.298903 -1.1579933,0.236012 0.4328164,-0.541512 0.1559153,-0.439064 0.00135,-0.4934 C 6.7500706,11.418224 6.4605935,11.117386 6.6489931,10.785841 7.0259129,10.12254 9.1666359,9.5848286 11.430432,9.5848286 c 2.263796,0 3.793412,0.5377114 3.416492,1.2010124 z"
       sodipodi:nodetypes="ssscssss" /><ellipse
       style="fill:#000000;fill-opacity:0.19829424;stroke:#c00707;stroke-width:0.165;stroke-dasharray:none;stroke-opacity:0.21321961"
       id="path5"
       cx="7.4724536"
       cy="11.982809"
       rx="0.24757871"
       ry="0.26408395" /><path
       id="path1"
       style="fill:#959b93;fill-opacity:1;stroke:#39613e;stroke-width:0.54;stroke-linecap:round;stroke-linejoin:round;stroke-dasharray:none;stroke-opacity:1"
       d="m 14.451234,8.1502667 c 0,1.2687785 -1.83517,2.2973263 -4.098966,2.2973263 -0.5659485,0 -1.1051082,-0.06428 -1.5955016,-0.180535 -0.2451967,-0.05813 -0.4782018,0.595225 -1.2110218,1.618424 0.1251028,-1.035818 0.09356,-2.0068266 -0.091882,-2.1107601 -0.7401307,-0.4148175 -1.200559,-0.990269 -1.200559,-1.6244552 -1e-7,-1.2687784 1.835169,-2.2973266 4.0989643,-2.2973266 2.263796,-2e-7 4.098966,1.028548 4.098966,2.2973266 z"
       sodipodi:nodetypes="ssscssss" /><path
       style="mix-blend-mode:normal;fill:#000000;fill-opacity:0.541139;stroke-width:2.61087;stroke-linecap:round;stroke-linejoin:bevel;stroke-opacity:0.993976;filter:url(#filter13)"
       d="m 82.79104,140.25492 c -9.226883,1.85558 -14.927724,9.5879 -19.387936,19.38793 -9.922565,4.59126 -12.522222,11.6235 -12.925288,19.38793 -8.401795,7.67817 -9.423678,16.58634 -8.309112,25.85057 -3.999405,14.53122 2.567169,18.49646 5.941683,25.65376 l 22.284966,10.72575 c 10.093494,-0.79117 19.743627,-4.24259 28.246929,-14.57495 9.875718,-4.00367 15.496558,-11.41124 17.385208,-21.80456 7.36156,-3.40951 9.58696,-11.95518 10.61719,-21.69601 6.13496,-4.63612 9.26773,-12.27442 10.6172,-21.69602 3.71604,-23.16742 16.18939,-42.00359 -9.23234,-52.1237 -22.78017,-5.72061 -37.44051,11.39998 -45.2385,30.8893 z"
       id="path1-3"
       sodipodi:nodetypes="cccccccccccc"
       transform="matrix(-0.0554143,0,0,0.06608769,15.294559,-3.5511643)" /><path
       style="mix-blend-mode:normal;fill:#000000;fill-opacity:0.537975;stroke-width:2.69488;stroke-linecap:round;stroke-linejoin:bevel;stroke-opacity:0.993976;filter:url(#filter13-7)"
       d="m 82.79104,140.25492 c -9.226883,1.85558 -14.927724,9.5879 -19.387936,19.38793 -9.922565,4.59126 -12.522222,11.6235 -12.925288,19.38793 -8.401795,7.67817 -9.423678,16.58634 -8.309112,25.85057 -3.999405,14.53122 2.567169,18.49646 5.941683,25.65376 l 22.284966,10.72575 c 10.093494,-0.79117 19.743627,-4.24259 28.246929,-14.57495 9.875718,-4.00367 15.496558,-11.41124 17.385208,-21.80456 7.36156,-3.40951 9.58696,-11.95518 10.61719,-21.69601 6.13496,-4.63612 9.26773,-12.27442 10.6172,-21.69602 3.71604,-23.16742 16.18939,-42.00359 -9.23234,-52.1237 -22.78017,-5.72061 -37.44051,11.39998 -45.2385,30.8893 z"
       id="path1-3-9"
       sodipodi:nodetypes="cccccccccccc"
       transform="matrix(-0.05280502,0,0,0.06509668,15.521269,-3.4027666)" /><path
       style="fill:url(#radialGradient10);fill-opacity:1;stroke-width:0.158;stroke-linecap:round;stroke-linejoin:bevel;stroke-opacity:0.993976"
       d="m 10.887524,5.7048778 c 0.487225,0.1177525 0.788258,0.6084348 1.02378,1.2303311 0.523961,0.291355 0.661236,0.7376111 0.68252,1.2303311 0.443657,0.487246 0.497617,1.052546 0.438763,1.6404412 0.211188,0.9221308 -0.13556,1.1737598 -0.313751,1.6279518 l -1.176758,0.680641 C 11.00909,12.064368 10.499515,11.845345 10.050498,11.189668 9.529011,10.935601 9.2322024,10.465527 9.1324722,9.8059812 8.7437449,9.5896184 8.6262326,9.0473221 8.5718313,8.4291826 8.2478746,8.1349808 8.0824486,7.6502649 8.0111898,7.0523833 7.8149643,5.582211 7.1563088,4.3868939 8.4987037,3.7446857 9.7016108,3.3816635 10.47575,4.4681126 10.887524,5.7048778 Z"
       id="path1-0"
       sodipodi:nodetypes="cccccccccccc" /><ellipse
       style="fill:url(#radialGradient14);fill-opacity:1;stroke-width:0.137461;stroke-linecap:round;stroke-linejoin:bevel;stroke-opacity:0.993976"
       id="path2"
       cx="-5.4992847"
       cy="9.8190565"
       rx="0.98367465"
       ry="1.3330798"
       transform="matrix(-0.81526138,0.57909315,0.48399371,0.87507148,0,0)" /><path
       style="fill:none;fill-opacity:1;stroke:url(#linearGradient4);stroke-width:0.101;stroke-linecap:round;stroke-linejoin:bevel;stroke-dasharray:none"
       d="M 11.847353,6.9205131 C 11.027082,6.7469843 9.4903187,7.3180762 8.9594772,7.8213868"
       id="path3"
       sodipodi:nodetypes="cc" /><path
       style="fill:none;fill-opacity:1;stroke:url(#linearGradient5);stroke-width:0.101;stroke-linecap:round;stroke-linejoin:bevel;stroke-dasharray:none"
       d="M 13.002319,9.7746904 C 12.182048,9.6011616 10.621913,10.523002 10.091072,11.026313"
       id="path3-2"
       sodipodi:nodetypes="cc" /><path
       style="fill:none;fill-opacity:1;stroke:url(#linearGradient6);stroke-width:0.101;stroke-linecap:round;stroke-linejoin:bevel;stroke-dasharray:none"
       d="M 9.1303384,9.7858775 C 9.7546601,8.22603 11.972422,7.835677 12.376454,8.3427075"
       id="path3-2-2"
       sodipodi:nodetypes="cc" /><ellipse
       style="fill:#dee2e0;fill-opacity:1;stroke:#000000;stroke-width:1.00194783;stroke-linecap:round;stroke-linejoin:bevel;stroke-dasharray:none;stroke-opacity:0.684739;filter:url(#filter11)"
       id="path6"
       cx="131.43956"
       cy="86.212082"
       rx="5.3427782"
       ry="3.6376362"
       transform="matrix(-0.05030608,0.01929063,0.01605207,0.06045549,14.787638,-2.9074392)" /><ellipse
       style="fill:#dee2e0;fill-opacity:1;stroke:#000000;stroke-width:1.00194783;stroke-linecap:round;stroke-linejoin:bevel;stroke-dasharray:none;stroke-opacity:0.684739;filter:url(#filter12)"
       id="path6-7"
       cx="148.64278"
       cy="86.794479"
       rx="5.3427782"
       ry="3.6376362"
       transform="matrix(-0.05030608,0.01929063,0.01605207,0.06045549,14.787638,-2.9074392)" /><ellipse
       style="mix-blend-mode:normal;fill:none;fill-opacity:1;stroke:#000000;stroke-width:3.22164178;stroke-linecap:round;stroke-linejoin:bevel;stroke-dasharray:none;stroke-opacity:0.684739;filter:url(#filter10)"
       id="path2-9"
       cx="109.6558"
       cy="75.236107"
       rx="22.437124"
       ry="27.205791"
       transform="matrix(-0.03678519,0.02640572,0.02440767,0.0445968,11.441559,-0.88212105)" /></g></svg>
