<?xml version="1.0" encoding="UTF-8" standalone="no"?>
<!-- Created with Inkscape (http://www.inkscape.org/) -->

<svg
   width="15mm"
   height="15mm"
   viewBox="0 0 15 15"
   version="1.1"
   id="svg1"
   inkscape:export-filename="folklore-fox.png"
   inkscape:export-xdpi="96"
   inkscape:export-ydpi="96"
   inkscape:version="1.3.2 (091e20e, 2023-11-25)"
   sodipodi:docname="circle.svg"
   xml:space="preserve"
   xmlns:inkscape="http://www.inkscape.org/namespaces/inkscape"
   xmlns:sodipodi="http://sodipodi.sourceforge.net/DTD/sodipodi-0.dtd"
   xmlns:xlink="http://www.w3.org/1999/xlink"
   xmlns="http://www.w3.org/2000/svg"
   xmlns:svg="http://www.w3.org/2000/svg"><sodipodi:namedview
     id="namedview1"
     pagecolor="#ffffff"
     bordercolor="#000000"
     borderopacity="0.25"
     inkscape:showpageshadow="2"
     inkscape:pageopacity="0.0"
     inkscape:pagecheckerboard="0"
     inkscape:deskcolor="#d1d1d1"
     inkscape:document-units="mm"
     showguides="false"
     inkscape:zoom="0.4102209"
     inkscape:cx="4.875422"
     inkscape:cy="-158.45122"
     inkscape:window-width="1792"
     inkscape:window-height="993"
     inkscape:window-x="0"
     inkscape:window-y="25"
     inkscape:window-maximized="0"
     inkscape:current-layer="layer1" /><defs
     id="defs1"><linearGradient
       id="linearGradient7"
       inkscape:collect="always"><stop
         style="stop-color:#decdc4;stop-opacity:1;"
         offset="0"
         id="stop7" /><stop
         style="stop-color:#fcfcfc;stop-opacity:1;"
         offset="1"
         id="stop12" /></linearGradient><linearGradient
       id="linearGradient9"><stop
         style="stop-color:#17360a;stop-opacity:1;"
         offset="0"
         id="stop10" /><stop
         style="stop-color:#4cab1c;stop-opacity:1;"
         offset="1"
         id="stop11" /></linearGradient><linearGradient
       id="linearGradient9-1"><stop
         style="stop-color:#17360a;stop-opacity:1;"
         offset="0"
         id="stop9" /><stop
         style="stop-color:#4cab1c;stop-opacity:1;"
         offset="1"
         id="stop8" /></linearGradient><filter
       inkscape:collect="always"
       style="color-interpolation-filters:sRGB"
       id="filter1"
       x="-0.041453233"
       y="-0.13545699"
       width="1.0829065"
       height="1.270914"><feGaussianBlur
         inkscape:collect="always"
         stdDeviation="0.14356502"
         id="feGaussianBlur1" /></filter><radialGradient
       inkscape:collect="always"
       xlink:href="#linearGradient7"
       id="radialGradient12"
       cx="10.534393"
       cy="8.2229481"
       fx="10.534393"
       fy="8.2229481"
       r="2.8743881"
       gradientTransform="matrix(1.2992272,0,0,1.14927,-3.1257801,-1.7697832)"
       gradientUnits="userSpaceOnUse" /></defs><g
     inkscape:label="Layer 1"
     inkscape:groupmode="layer"
     id="layer1"><path
       id="path1-7"
       style="fill:#000000;fill-opacity:0.297189;stroke:none;stroke-width:0.54;stroke-linecap:round;stroke-linejoin:round;stroke-dasharray:none;stroke-opacity:1;filter:url(#filter1)"
       d="m 14.846924,10.785841 c -0.37692,0.663301 -2.517644,1.201012 -4.78144,1.201012 -0.5659486,0 -1.0860124,-0.0336 -1.5418696,-0.09438 -0.2279278,-0.03039 -0.1212085,-0.298903 -1.1579933,0.236012 0.4328164,-0.541512 0.1559153,-0.439064 0.00135,-0.4934 C 6.7500706,11.418224 6.4605935,11.117386 6.6489931,10.785841 7.0259129,10.12254 9.1666359,9.5848286 11.430432,9.5848286 c 2.263796,0 3.793412,0.5377114 3.416492,1.2010124 z"
       sodipodi:nodetypes="ssscssss" /><ellipse
       style="fill:#000000;fill-opacity:0.19829424;stroke:#c00707;stroke-width:0.165;stroke-dasharray:none;stroke-opacity:0.21321961"
       id="path5"
       cx="7.4724536"
       cy="11.982809"
       rx="0.24757871"
       ry="0.26408395" /><path
       id="path1"
       style="fill:#959b93;fill-opacity:1;stroke:#39613e;stroke-width:0.54;stroke-linecap:round;stroke-linejoin:round;stroke-dasharray:none;stroke-opacity:1"
       d="m 14.451234,8.1502667 c 0,1.2687785 -1.83517,2.2973263 -4.098966,2.2973263 -0.5659485,0 -1.1051082,-0.06428 -1.5955016,-0.180535 -0.2451967,-0.05813 -0.4782018,0.595225 -1.2110218,1.618424 0.1251028,-1.035818 0.09356,-2.0068266 -0.091882,-2.1107601 -0.7401307,-0.4148175 -1.200559,-0.990269 -1.200559,-1.6244552 -1e-7,-1.2687784 1.835169,-2.2973266 4.0989643,-2.2973266 2.263796,-2e-7 4.098966,1.028548 4.098966,2.2973266 z"
       sodipodi:nodetypes="ssscssss" /><path
       style="fill:url(#radialGradient12);fill-opacity:1;stroke:none;stroke-width:0.34;stroke-linecap:round;stroke-linejoin:round"
       d="M 7.8853896,3.7181425 7.7634475,5.0146019 7.9158749,5.9450022 C 7.3081124,6.3655415 6.8915005,7.0355453 6.711695,7.5770159 L 6.9860652,7.6990354 6.9708213,8.6294355 C 7.3190714,8.3002937 7.6931631,8.0314886 8.2817017,8.2633768 l 0.9984026,1.6233645 1.2906107,0.4382977 1.379094,-0.6935812 0.599874,-1.002022 0.198156,-0.396564 c 0.361329,-0.2029844 0.869224,-0.053984 1.432823,0.228787 L 14.150175,7.744793 C 14.179846,7.1439042 13.942656,6.2266463 13.250851,5.8687399 L 13.052695,3.7944048 11.528417,4.8010674 11.132104,4.9230871 C 10.579271,4.743061 10.184843,4.8404173 9.7907382,4.93834 Z"
       id="path7"
       sodipodi:nodetypes="cccccccccccccccccccc" /><path
       style="fill:#000000;stroke:none;stroke-width:0.999996"
       d="M 9.5096762,10.336469 C 9.2109514,9.9743701 8.9615799,9.7192011 8.7681048,9.4991642 8.5406107,9.2404379 8.4710956,8.9310987 8.3747743,8.5607227 8.3459276,8.4498011 8.3152216,8.3410389 8.3065389,8.3190285 c -0.00868,-0.02201 -0.015787,-0.042311 -0.015787,-0.045112 0,-0.012096 0.047106,-0.00294 0.1383377,0.026894 0.2858944,0.093485 0.5453796,0.2707718 0.72479,0.4951942 0.1220793,0.1527068 0.1886476,0.2642168 0.2786568,0.4667806 0.1906026,0.4289472 0.4214885,0.6557023 0.7941296,0.7799227 0.105705,0.03524 0.106797,0.03536 0.31293,0.03535 0.22853,-1.9e-5 0.286205,-0.0094 0.432529,-0.07035 0.18442,-0.076824 0.377545,-0.2446594 0.510151,-0.4433504 0.03681,-0.055152 0.116956,-0.2032245 0.178094,-0.3290489 0.135247,-0.2783179 0.218682,-0.4065198 0.352832,-0.5421448 0.198286,-0.2004649 0.399487,-0.3184871 0.680402,-0.3991179 0.05281,-0.015159 0.09819,-0.025387 0.100859,-0.022727 0.0026,0.00266 -0.0195,0.097523 -0.04924,0.2108092 C 12.556487,9.201038 12.083341,9.6517031 11.70827,10.21222 10.614008,12.23161 9.9686914,10.843509 9.7981934,10.686195 Z M 10.391884,9.7651864 C 10.168605,9.7182782 9.9747669,9.5845822 9.8432235,9.3867591 9.8094931,9.3360332 9.7540972,9.2273389 9.7155629,9.1362706 9.5725543,8.798298 9.4625353,8.6239906 9.2718952,8.4333489 8.9800928,8.141544 8.644666,7.979761 8.2132618,7.9227486 8.0463867,7.9006955 7.7786703,7.9080764 7.635097,7.9386901 7.4718471,7.973499 7.3354615,8.0207987 7.2034115,8.088402 7.134607,8.1236266 7.0764523,8.1505843 7.0741786,8.1483094 7.0661494,8.1402801 7.1542786,7.9817113 7.2355138,7.8580328 7.3831675,7.633234 7.4408445,7.567634 7.564121,7.4842867 7.658845,7.4202439 7.7392495,7.3759727 7.8151213,7.3460868 c 0.068725,-0.027071 0.076003,-0.039307 0.093184,-0.1566653 0.00615,-0.041985 0.011173,-0.079002 0.011173,-0.082262 0,-0.011537 -0.097429,-0.0057 -0.175983,0.010524 -0.1210308,0.025015 -0.2788336,0.083557 -0.4312845,0.1599994 -0.075641,0.037928 -0.1402223,0.066264 -0.1435143,0.062971 -0.00759,-0.0076 0.051421,-0.1655086 0.1033548,-0.2765775 C 7.3446793,6.9087567 7.512115,6.6745184 7.6675747,6.510756 7.8967381,6.2693535 8.3466541,5.9179785 8.5521591,5.8199139 c 0.1025857,-0.048952 0.183881,-0.059178 0.401576,-0.050511 0.1368469,0.00544 0.2033527,0.013165 0.2758014,0.032004 0.4897944,0.1273594 0.8774335,0.4768706 1.1061675,0.9973663 0.05831,0.1326975 0.148081,0.4044218 0.16162,0.4892252 0.0062,0.038866 0.01854,0.087973 0.02743,0.1091286 0.01463,0.034847 0.01722,0.036576 0.02747,0.0184 0.0062,-0.01103 0.02476,-0.088171 0.04121,-0.1714123 0.05898,-0.2986294 0.23307,-0.669122 0.423751,-0.9018159 0.09335,-0.1139124 0.284918,-0.2952571 0.37029,-0.3505193 0.245229,-0.1587384 0.523938,-0.2397177 0.834738,-0.2425343 l 0.149786,-0.00135 0.13132,0.065581 c 0.352002,0.1757909 0.765207,0.5246576 1.07326,0.9061461 0.08042,0.0996 0.188752,0.272934 0.269673,0.4315098 0.07254,0.1421301 0.08823,0.1837369 0.06927,0.1835488 -0.0044,-4.34e-5 -0.04602,-0.021836 -0.09254,-0.048427 -0.14742,-0.084257 -0.286068,-0.1379324 -0.436739,-0.1690741 -0.09692,-0.020033 -0.237124,-0.032625 -0.237124,-0.021297 0,0.0046 0.01286,0.054556 0.02847,0.1110047 l 0.02847,0.1026338 0.08731,0.045765 c 0.190608,0.099917 0.368839,0.2598763 0.509966,0.4576882 0.08111,0.1136901 0.231095,0.3497163 0.22223,0.3497163 -0.0022,0 -0.05828,-0.025946 -0.124622,-0.057658 -0.311713,-0.148976 -0.572925,-0.2059294 -0.888761,-0.1937809 -0.243307,0.00935 -0.45857,0.060171 -0.69575,0.164229 -0.293987,0.1289807 -0.601823,0.4103206 -0.787849,0.7200354 -0.04986,0.083031 -0.08076,0.1492555 -0.177615,0.3808573 -0.06247,0.1493774 -0.124622,0.2487732 -0.218309,0.3491611 -0.09393,0.1006446 -0.198535,0.1706899 -0.315975,0.2115858 -0.08115,0.028259 -0.107485,0.032175 -0.234619,0.034885 -0.07876,0.00168 -0.164328,-0.00139 -0.190142,-0.00681 z m 0.249871,-0.249499 c 0.135156,-0.070493 0.310988,-0.2199115 0.384361,-0.3266222 0.04291,-0.06242 0.05019,-0.1041682 0.07066,-0.4054384 0.02841,-0.4180798 0.06176,-0.7064865 0.101132,-0.8744724 0.0339,-0.14462 0.07402,-0.2164348 0.178577,-0.3196568 0.106446,-0.1050737 0.194876,-0.156051 0.382994,-0.2207695 0.179422,-0.061726 0.221018,-0.084015 0.293418,-0.1572122 0.09603,-0.097089 0.15945,-0.2349281 0.188915,-0.4105844 l 0.0068,-0.040245 0.402056,0.00309 c 0.365831,0.00282 0.403682,0.00148 0.420081,-0.014845 0.01684,-0.016764 0.01686,-0.019705 3.6e-4,-0.044901 C 13.025999,6.6351375 12.860617,6.5568658 12.67637,6.517207 12.476103,6.4741 12.057646,6.477278 11.881276,6.523247 11.734765,6.561433 11.548704,6.6704177 11.411332,6.7985161 11.299819,6.902501 11.218333,7.0171222 11.132524,7.190692 c -0.174779,0.3535326 -0.243529,0.7121873 -0.286019,1.4920948 -0.0065,0.1196784 -0.0126,0.2183448 -0.01351,0.2192589 -9.09e-4,9.14e-4 -0.128819,0.00515 -0.284252,0.00939 l -0.2826,0.00773 -0.0062,-0.030625 c -0.0035,-0.016838 -0.01363,-0.1476441 -0.0225,-0.2906742 C 10.20028,8.0002125 10.155756,7.717816 10.050418,7.412129 9.8648324,6.8735689 9.5456496,6.5793495 9.0561011,6.4955782 8.9088162,6.4703748 8.6727212,6.4680409 8.5439263,6.4905149 8.3499402,6.524365 8.1192762,6.6060331 8.0559392,6.6632908 c -0.048301,0.043664 -0.051646,0.06957 -0.012317,0.095379 0.025699,0.016864 0.06835,0.019372 0.4103497,0.024128 l 0.3816704,0.00531 0.013369,0.079453 c 0.019023,0.113051 0.091342,0.2548366 0.1696162,0.3325379 0.072801,0.072268 0.2057052,0.1408345 0.3534648,0.1823545 0.055072,0.015475 0.1147412,0.035608 0.1325967,0.04474 0.046082,0.023568 0.2327579,0.2085724 0.2876764,0.2851012 0.1061832,0.1479675 0.1570961,0.4211933 0.2008502,1.0778787 0.017955,0.2694282 0.026972,0.329825 0.058478,0.3916199 0.06039,0.1184388 0.393315,0.3713873 0.488819,0.3713873 0.01615,0 0.0617,-0.01687 0.101236,-0.037489 z M 9.3135735,7.1019607 C 9.2220291,7.0494197 9.1673229,6.9657105 9.1443092,6.8429563 c -0.00659,-0.035145 -0.00505,-0.03893 0.015792,-0.03893 0.033389,0 0.1700696,0.065521 0.2561975,0.1228159 0.1216414,0.080919 0.1312509,0.1195926 0.043544,0.1752506 -0.060777,0.038569 -0.07887,0.038552 -0.1462692,-1.321e-4 z m 2.3354785,0.00821 c -0.05067,-0.011381 -0.112331,-0.048143 -0.112331,-0.066975 0,-0.053791 0.327029,-0.2649719 0.379265,-0.2449138 0.02215,0.00851 0.01169,0.1077059 -0.01783,0.1686671 -0.05352,0.1106084 -0.149246,0.1656495 -0.249109,0.1432219 z M 10.481749,6.4935523 C 10.377148,6.2970327 10.307576,6.2013689 10.15273,6.0411419 9.8769546,5.755783 9.5685082,5.5810507 9.2689834,5.5405084 c -0.054151,-0.00733 -0.1008486,-0.0172 -0.1037732,-0.021936 -0.00709,-0.011472 0.029746,-0.029728 0.1869987,-0.092641 0.072551,-0.029027 0.1844222,-0.074244 0.248599,-0.1004835 0.064177,-0.026239 0.2169283,-0.079812 0.3394489,-0.1190508 0.2538452,-0.081298 0.3652922,-0.1288158 0.4070672,-0.1735655 0.01599,-0.017129 0.04789,-0.036863 0.0709,-0.043854 0.04437,-0.013487 0.395622,-0.0282 0.422926,-0.017715 0.01365,0.00525 0.01195,0.014206 -0.01104,0.058629 -0.03938,0.075953 -0.03052,0.085878 0.114618,0.1284013 0.440501,0.12906 0.750253,0.2346651 0.936552,0.3192992 l 0.05281,0.023993 -0.08995,0.018275 c -0.322942,0.065619 -0.627833,0.2366422 -0.882127,0.4948156 -0.20941,0.2126048 -0.276499,0.2993577 -0.375459,0.4854998 -0.02678,0.050359 -0.04954,0.091562 -0.05061,0.091562 -0.0011,0 -0.02544,-0.044183 -0.05419,-0.098184 z M 7.8136493,5.9820521 C 7.8003942,5.9471666 7.7554658,5.7136785 7.7318261,5.5568243 7.7152844,5.4470676 7.712684,5.3589816 7.7130262,4.9199553 c 4.209e-4,-0.5750296 0.00218,-0.5939978 0.094932,-1.0399399 0.051765,-0.2488792 0.055043,-0.2603342 0.074503,-0.2603342 0.042139,0 0.4678342,0.1658752 0.6734835,0.2624279 0.2964848,0.1392 0.6367318,0.3616988 0.894348,0.5848439 0.1723441,0.1492831 0.4536509,0.4617404 0.4336896,0.4817143 -0.00533,0.00531 -0.037274,0.016881 -0.071022,0.0257 -0.03375,0.00882 -0.1048385,0.034802 -0.1579727,0.057742 C 9.5205734,5.0901363 9.5142288,5.0891683 9.45437,5.0015056 9.3982906,4.9193788 9.1968606,4.7180839 9.0707942,4.6181868 8.8845937,4.4706388 8.6026442,4.3028911 8.34764,4.1879408 8.1924864,4.1180011 8.1422432,4.1051836 8.1422432,4.1355423 c 0,0.033537 0.1363806,0.5191334 0.1807712,0.6436532 0.023086,0.06476 0.070322,0.1712872 0.1049672,0.2367258 l 0.06299,0.1189793 -0.054886,0.029891 c -0.1040356,0.056659 -0.1241138,0.095504 -0.077434,0.1498082 0.03638,0.04232 0.097022,0.039581 0.1636192,-0.00739 l 0.049177,-0.034685 0.061253,0.067682 c 0.033689,0.037225 0.059758,0.072175 0.057929,0.077664 -0.00183,0.0055 -0.071995,0.047682 -0.1559251,0.093759 -0.2042877,0.11215 -0.4578957,0.2834672 -0.593038,0.4006065 -0.060725,0.052636 -0.1121584,0.095701 -0.1142957,0.095701 -0.00214,0 -0.00832,-0.011654 -0.013722,-0.025887 z M 13.132187,5.9030968 C 12.976295,5.7515326 12.780766,5.6225024 12.471944,5.467399 c -0.06299,-0.031635 -0.08674,-0.048834 -0.08253,-0.059784 0.0094,-0.024498 0.09384,-0.1331185 0.100911,-0.1297876 0.0035,0.00166 0.0429,0.021413 0.0875,0.043892 0.08986,0.045285 0.111292,0.04487 0.139364,-0.00269 0.0373,-0.063183 0.02463,-0.089324 -0.06931,-0.1429765 -0.02771,-0.015829 -0.05038,-0.03098 -0.05038,-0.03367 0,-0.00269 0.03285,-0.07533 0.07299,-0.1614234 0.08922,-0.1913102 0.111643,-0.255923 0.185146,-0.5333471 0.06355,-0.2398595 0.07433,-0.2955865 0.06125,-0.3166471 -0.0228,-0.036707 -0.461201,0.1851587 -0.735343,0.3721435 -0.194782,0.1328555 -0.349734,0.2816146 -0.550734,0.5287199 l -0.03851,0.047345 -0.173644,-0.056609 c -0.216406,-0.070549 -0.221378,-0.072561 -0.221378,-0.089517 0,-0.047123 0.339914,-0.4071293 0.52019,-0.5509368 0.267746,-0.2135847 0.591788,-0.4049517 0.948984,-0.5604354 0.206303,-0.089801 0.478724,-0.1913797 0.513258,-0.1913797 0.03822,0 0.03913,0.00252 0.08554,0.2388259 0.08028,0.4087485 0.101066,0.6283866 0.100963,1.0667555 -1.21e-4,0.3915097 -0.01,0.5208331 -0.06434,0.8385441 -0.02948,0.1724192 -0.04395,0.2336922 -0.05506,0.2331511 -0.0042,-2.022e-4 -0.05574,-0.047217 -0.114631,-0.1044761 z"
       id="path6"
       sodipodi:nodetypes="ssscscsssscscssccccssssssscssssscscssscscccccssccsccssssccsssccscscsssssssccsscccscsssscsccccsssssccssssscssssssssssssccscsscsssscccsscsscscccsssssscsssssssscssscssssscccsccscssccssscssssscccscccc" /></g></svg>
