<?xml version="1.0" encoding="UTF-8" standalone="no"?>
<!-- Created with Inkscape (http://www.inkscape.org/) -->

<svg
   width="15mm"
   height="15mm"
   viewBox="0 0 15 15"
   version="1.1"
   id="svg1"
   inkscape:export-filename="grave.png"
   inkscape:export-xdpi="96"
   inkscape:export-ydpi="96"
   inkscape:version="1.3.2 (091e20e, 2023-11-25)"
   sodipodi:docname="cult.svg"
   xmlns:inkscape="http://www.inkscape.org/namespaces/inkscape"
   xmlns:sodipodi="http://sodipodi.sourceforge.net/DTD/sodipodi-0.dtd"
   xmlns:xlink="http://www.w3.org/1999/xlink"
   xmlns="http://www.w3.org/2000/svg"
   xmlns:svg="http://www.w3.org/2000/svg">
  <sodipodi:namedview
     id="namedview1"
     pagecolor="#ffffff"
     bordercolor="#000000"
     borderopacity="0.25"
     inkscape:showpageshadow="2"
     inkscape:pageopacity="0.0"
     inkscape:pagecheckerboard="0"
     inkscape:deskcolor="#d1d1d1"
     inkscape:document-units="mm"
     showguides="false"
     inkscape:zoom="10.837667"
     inkscape:cx="19.515271"
     inkscape:cy="31.279796"
     inkscape:window-width="1792"
     inkscape:window-height="993"
     inkscape:window-x="991"
     inkscape:window-y="543"
     inkscape:window-maximized="0"
     inkscape:current-layer="layer1" />
  <defs
     id="defs1">
    <linearGradient
       id="linearGradient2"
       inkscape:collect="always">
      <stop
         style="stop-color:#000000;stop-opacity:1;"
         offset="0"
         id="stop2" />
      <stop
         style="stop-color:#000000;stop-opacity:0;"
         offset="1"
         id="stop3" />
    </linearGradient>
    <radialGradient
       inkscape:collect="always"
       xlink:href="#linearGradient2"
       id="radialGradient3"
       cx="7.7370877"
       cy="2.8803852"
       fx="7.7370877"
       fy="2.8803852"
       r="2.330898"
       gradientTransform="matrix(1.1718303,0.01350993,-0.01150075,0.99755699,-1.2963391,-0.09749067)"
       gradientUnits="userSpaceOnUse" />
  </defs>
  <g
     inkscape:label="Layer 1"
     inkscape:groupmode="layer"
     id="layer1">
    <ellipse
       style="fill:#000000;fill-opacity:0.143426;stroke:#c00707;stroke-width:0.165;stroke-dasharray:none;stroke-opacity:0.421348"
       id="path5"
       cx="7.4724536"
       cy="11.982809"
       rx="0.24757871"
       ry="0.26408395" />
    <path
       style="fill:#dc3940;fill-opacity:1;stroke-width:0.118;stroke-linecap:square;stroke-linejoin:round"
       d="M 7.533633,2.096404 C 7.0155279,2.177124 6.6096936,2.2326663 6.4637339,2.9991314 6.6988462,3.9454125 7.0184929,3.5850288 7.165855,3.9687274 6.7987484,3.9295178 6.4300784,3.8778016 6.0959559,4.1024648 6.0610038,6.1434775 7.0702769,7.3694747 7.4491995,8.9966133 8.0398729,7.3806194 8.9535858,6.0839017 9.0047441,4.1358991 8.7687149,3.822194 8.2629608,3.9650867 7.804307,4.0084969 8.0166187,3.711618 8.2627492,3.8474831 8.5350952,3.1440346 8.4324835,2.5663632 8.2874477,2.2914675 7.533633,2.096404 Z"
       id="path1"
       sodipodi:nodetypes="ccccccccc" />
    <path
       style="fill:#661315;fill-opacity:1;stroke-width:0.118;stroke-linecap:square;stroke-linejoin:round"
       d="M 5.1228567,4.6583632 C 4.6047516,4.7390832 4.1989173,4.7946255 4.0529576,5.5610906 4.2880699,6.5073717 4.6077166,6.146988 4.7550787,6.5306866 4.3879721,6.491477 4.0193021,6.4397608 3.6851796,6.664424 3.6502275,8.7054367 6.417259,9.9314342 6.7961816,11.558572 7.386855,9.9425792 6.5428095,8.6458609 6.5939678,6.6978583 6.3579386,6.3841532 5.8521845,6.5270459 5.3935307,6.5704561 5.6058424,6.2735772 5.8519729,6.4094423 6.1243189,5.7059938 6.0217072,5.1283224 5.8766714,4.8534267 5.1228567,4.6583632 Z"
       id="path1-7-5"
       sodipodi:nodetypes="ccccccccc" />
    <path
       style="fill:#641216;fill-opacity:1;stroke-width:0.118;stroke-linecap:square;stroke-linejoin:round"
       d="M 9.9788411,4.7084081 C 9.460736,4.7891281 9.0549017,4.8446704 8.908942,5.6111355 9.1440543,6.5574166 9.463701,6.1970329 9.6110631,6.5807315 9.2439565,6.5415219 8.8752865,6.4898057 8.541164,6.7144689 8.5062119,8.7554816 8.0506863,9.8838256 8.4296089,11.510964 9.0202823,9.8949706 11.398794,8.6959058 11.449952,6.7479032 11.213923,6.4341981 10.708169,6.5770908 10.249515,6.620501 10.461827,6.3236221 10.707957,6.4594872 10.980303,5.7560387 10.877692,5.1783673 10.732656,4.9034716 9.9788411,4.7084081 Z"
       id="path1-7-4"
       sodipodi:nodetypes="ccccccccc" />
    <path
       style="fill:#2b0809;fill-opacity:1;stroke-width:0.118;stroke-linecap:square;stroke-linejoin:round"
       d="M 7.5483925,5.259327 C 7.0302874,5.340047 6.6244531,5.3955893 6.4784934,6.1620544 6.7136057,7.1083355 7.0332524,6.7479518 7.1806145,7.1316504 6.8135079,7.0924408 6.4448379,7.0407246 6.1107154,7.2653878 6.0757633,9.3064005 7.0850364,10.532398 7.463959,12.159536 8.0546324,10.543543 8.9683453,9.2468247 9.0195036,7.2988221 8.7834744,6.985117 8.2777203,7.1280097 7.8190665,7.1714199 8.0313782,6.874541 8.2775087,7.0104061 8.5498547,6.3069576 8.447243,5.7292862 8.3022072,5.4543905 7.5483925,5.259327 Z"
       id="path1-7"
       sodipodi:nodetypes="ccccccccc" />
    <path
       sodipodi:type="spiral"
       style="fill:none;fill-rule:evenodd;stroke:url(#radialGradient3);stroke-width:0.264583"
       id="path2"
       sodipodi:cx="7.5193"
       sodipodi:cy="2.905184"
       sodipodi:expansion="1"
       sodipodi:revolution="2.9239132"
       sodipodi:radius="2.5541973"
       sodipodi:argument="-17.354225"
       sodipodi:t0="0"
       d="M 7.5193,2.905184 C 7.5292064,3.0362059 7.3475726,2.9831793 7.301533,2.9216492 7.1767685,2.7549064 7.3217095,2.5361123 7.4863696,2.46965 7.780908,2.3507644 8.0897733,2.5726253 8.1726011,2.8557885 8.2941542,3.2713419 7.9866692,3.6808443 7.5851607,3.7762522 7.050013,3.9034158 6.5370003,3.5074343 6.4304648,2.9875099 6.2964008,2.3332381 6.7821041,1.7155261 7.4205089,1.5985818 8.1937027,1.4569467 8.9167263,2.033 9.0436692,2.7899278 9.193267,3.6819409 8.5264996,4.5106354 7.6510214,4.6473203 6.6402472,4.8051284 5.7056524,4.0474176 5.5593967,3.0533707 5.3932117,1.9238713 6.2420198,0.88322021 7.3546482,0.72751372 8.602849,0.55283457 9.7496674,1.4928484 9.9147373,2.724067 10.037,3.6359967 9.6141263,4.5546509 8.8620306,5.0779699"
       transform="rotate(33.085112,7.3061825,2.7847608)" />
  </g>
</svg>
