<?xml version="1.0" encoding="UTF-8" standalone="no"?>
<!-- Created with Inkscape (http://www.inkscape.org/) -->

<svg
   width="15mm"
   height="15mm"
   viewBox="0 0 15 15"
   version="1.1"
   id="svg1"
   inkscape:export-filename="cunning-man.png"
   inkscape:export-xdpi="96"
   inkscape:export-ydpi="96"
   inkscape:version="1.3.2 (091e20e, 2023-11-25)"
   sodipodi:docname="cunning-man.svg"
   xml:space="preserve"
   xmlns:inkscape="http://www.inkscape.org/namespaces/inkscape"
   xmlns:sodipodi="http://sodipodi.sourceforge.net/DTD/sodipodi-0.dtd"
   xmlns:xlink="http://www.w3.org/1999/xlink"
   xmlns="http://www.w3.org/2000/svg"
   xmlns:svg="http://www.w3.org/2000/svg"><sodipodi:namedview
     id="namedview1"
     pagecolor="#ffffff"
     bordercolor="#000000"
     borderopacity="0.25"
     inkscape:showpageshadow="2"
     inkscape:pageopacity="0.0"
     inkscape:pagecheckerboard="0"
     inkscape:deskcolor="#d1d1d1"
     inkscape:document-units="mm"
     showguides="false"
     inkscape:zoom="5.1961466"
     inkscape:cx="5.2923834"
     inkscape:cy="8.756489"
     inkscape:window-width="1792"
     inkscape:window-height="992"
     inkscape:window-x="581"
     inkscape:window-y="190"
     inkscape:window-maximized="0"
     inkscape:current-layer="layer1" /><defs
     id="defs1"><linearGradient
       id="linearGradient20"
       inkscape:collect="always"><stop
         style="stop-color:#4f1d8d;stop-opacity:1;"
         offset="0"
         id="stop20" /><stop
         style="stop-color:#a82bb7;stop-opacity:1;"
         offset="1"
         id="stop21" /></linearGradient><linearGradient
       id="linearGradient9"><stop
         style="stop-color:#17360a;stop-opacity:1;"
         offset="0"
         id="stop10" /><stop
         style="stop-color:#4cab1c;stop-opacity:1;"
         offset="1"
         id="stop11" /></linearGradient><linearGradient
       id="linearGradient9-1"><stop
         style="stop-color:#17360a;stop-opacity:1;"
         offset="0"
         id="stop9" /><stop
         style="stop-color:#4cab1c;stop-opacity:1;"
         offset="1"
         id="stop8" /></linearGradient><radialGradient
       inkscape:collect="always"
       xlink:href="#linearGradient20"
       id="radialGradient21"
       cx="-10.196422"
       cy="12.955422"
       fx="-10.196422"
       fy="12.955422"
       r="5.3750832"
       gradientTransform="matrix(1,0,0,0.66598457,0,4.3273107)"
       gradientUnits="userSpaceOnUse" /></defs><g
     inkscape:label="Layer 1"
     inkscape:groupmode="layer"
     id="layer1"><ellipse
       style="fill:#000000;fill-opacity:0.19829424;stroke:#c00707;stroke-width:0.165;stroke-dasharray:none;stroke-opacity:0.21321961"
       id="path5"
       cx="7.4724536"
       cy="11.982809"
       rx="0.24757871"
       ry="0.26408395" /><g
       id="g23"
       transform="matrix(1.0805221,0,0,1.0805221,14.784573,1.0969868)"><g
         id="g22"
         transform="translate(3.3328098,-6.1287934)"><path
           style="fill:#f193e6;fill-opacity:1;stroke:none;stroke-width:0.600001;stroke-linecap:round;stroke-linejoin:round;stroke-opacity:1"
           d="m -14.076612,11.072063 0.09495,0.304381 0.09197,0.815326 -0.622574,-0.391083 -0.419658,-0.224429 c -0.361174,-0.196996 -0.442156,-0.458652 -0.619288,-0.69812 0.07627,-0.322769 0.181897,-0.604452 0.412116,-0.711701 0.266461,0.200507 0.61557,0.710941 0.711203,0.270841 0.233896,0.20186 0.30076,0.41764 0.351237,0.634785 z"
           id="path21-7"
           sodipodi:nodetypes="cccccccccc" /><path
           style="fill:#f193e6;fill-opacity:1;stroke:none;stroke-width:0.607612;stroke-linecap:round;stroke-linejoin:round;stroke-opacity:1"
           d="m -6.3178021,11.026538 -0.097374,0.304381 -0.089107,0.857011 0.6332579,-0.432768 0.4303719,-0.224429 c 0.3703949,-0.196996 0.4221806,-0.463863 0.6038348,-0.703331 -0.078217,-0.322769 -0.1552771,-0.599241 -0.3913736,-0.70649 -0.2732638,0.200507 -0.6312857,0.710941 -0.7293602,0.270841 -0.2398674,0.20186 -0.3084385,0.41764 -0.3602042,0.634785 z"
           id="path21-7-9"
           sodipodi:nodetypes="cccccccccc" /><path
           style="fill:#f193e6;fill-opacity:1;stroke:none;stroke-width:0.600001;stroke-linecap:round;stroke-linejoin:round;stroke-opacity:1"
           d="m -9.724079,10.565191 0.2872092,0.718023 -0.2051495,0.430814 -0.3487539,-0.12309 -0.5128738,-0.02052 -0.287209,0.16412 -0.246179,-0.635963 0.553903,-0.492359 z"
           id="path21" /><path
           style="fill:#ece5eb;fill-opacity:1;stroke:none;stroke-width:0.600001;stroke-linecap:round;stroke-linejoin:round;stroke-opacity:1"
           d="m -11.279896,11.373895 -0.131599,0.526396 0.094,0.620394 0.0752,0.620394 v 0.601595 l 0.375997,1.522786 0.9023916,0.413596 1.0151906,-1.203189 -0.1879981,-0.958791 -0.093999,-0.281998 0.2819974,-0.770793 -0.1503984,-0.375996 0.1127987,-0.469996 -0.2631974,-0.469996 h -0.1503987 l -0.2631975,0.582795 c -0.8075122,-0.356497 -0.8105992,-0.07419 -1.1467902,-0.0564 l -0.281997,-0.526396 z"
           id="path22"
           sodipodi:nodetypes="ccccccccccccccccccc" /><path
           style="fill:url(#radialGradient21)"
           d="m -10.522933,16.535144 c -0.38516,-0.09078 -0.744112,-0.379321 -0.774825,-0.797515 -0.07399,-0.574998 -0.07001,-1.305917 -0.240975,-1.686962 0.13353,-0.400589 -1.638222,-0.640084 -1.949431,-0.131419 -0.338842,0.02124 -0.719986,-0.122075 -0.816826,-0.479254 -0.184758,-0.49967 -0.18627,-1.04462 -0.2034,-1.571234 -0.255747,-0.254819 -0.692243,-0.269238 -0.877943,-0.621074 -0.268866,-0.294947 -0.196503,-0.612387 -0.08496,-0.883496 0.06672,-0.309794 0.565228,-0.274832 0.687586,0.0749 0.166401,0.22779 0.201978,0.204841 0.240871,-0.05126 0.312735,-0.101406 0.482801,0.510263 0.522628,0.773188 0.07116,0.226202 0.515252,0.295505 0.573106,0.618 0.224867,0.388609 0.313486,0.868453 0.647485,1.185308 -0.241123,-0.471516 -0.369754,-0.997782 -0.660075,-1.444864 0.412627,0.13816 0.805,0.364761 1.021956,0.757193 0.304598,0.451444 0.646832,0.950344 1.178797,1.140654 -0.550671,-0.340725 -0.843494,-0.932909 -1.210619,-1.440076 0.382342,0.104883 0.778971,0.167039 1.133679,0.350081 -0.359707,-0.121233 -0.790769,-0.515192 -0.496435,-0.95776 0.214586,-0.451619 0.5399,-0.841601 0.727609,-1.308962 0.185742,-0.4201019 0.620283,-0.7955339 1.1062378,-0.6547869 0.6401848,0.217876 0.7504383,0.9722539 1.1096126,1.4618989 0.2075033,0.326203 0.5552177,0.796267 0.2591205,1.166405 -0.1261048,0.145179 -0.7729853,0.40398 -0.2421168,0.195235 0.2338737,-0.08055 0.8213632,-0.26842 0.8702176,-0.196592 -0.3458739,0.489886 -0.6331159,1.048801 -1.1566989,1.379445 0.3386135,-0.10923 0.6474603,-0.432142 0.8750129,-0.723811 0.3002394,-0.402808 0.5423737,-0.9099 1.0626105,-1.065092 0.2623449,-0.160919 0.2689013,-0.07477 0.1039787,0.140833 -0.1857416,0.392962 -0.3238651,0.826244 -0.5160024,1.20334 0.4634105,-0.44637 0.4717654,-1.210125 0.9928199,-1.610819 0.3556069,-0.121325 0.2301672,-0.627545 0.5062707,-0.889871 0.099959,-0.286311 0.3736949,-0.0032 0.2966961,0.165553 0.2292666,-0.215023 0.4023815,-0.605641 0.7131996,-0.45729 0.251064,0.08042 0.1612259,0.414189 0.3024069,0.595141 -0.1113126,0.464691 -0.4793401,0.84971 -0.9468699,0.958708 -0.311107,0.169624 -0.098634,0.5795 -0.1894804,0.861447 -0.05762,0.432416 -0.06584,0.992164 -0.4860884,1.243369 -0.5331091,0.354249 -0.7390069,-0.303893 -1.1870726,-0.420922 -0.8345725,-0.12657 -1.2172126,0.910491 -1.2880912,1.556397 1.022e-4,2.044015 -0.9491762,1.385947 -1.6039932,1.565962 z m 0.15868,-1.258377 c 0.5158535,-0.228701 -0.143085,-0.677084 0.112968,-1.017818 0.196934,-0.205928 -0.102776,-0.773662 -0.009,-0.695528 0.3575123,0.311702 -0.04979,0.891834 0.4324044,1.132522 -0.2368344,-0.339556 0.1646855,-0.803059 -0.035762,-1.191307 -0.2902254,-0.376789 0.1427581,-0.695123 0.155043,-1.060691 0.087019,0.38704 -0.3572284,0.770895 0.00863,1.141259 0.053022,0.312821 -0.00577,0.954409 0.3950012,0.921686 -0.2822365,-0.40177 0.010384,-0.821989 -0.024062,-1.235437 -0.1740839,-0.132269 -0.1983837,-0.725215 -0.065619,-0.643896 0.00962,0.610346 0.3833704,-0.324156 0.073696,-0.487082 -0.2243454,-0.196521 -0.016119,-0.826815 -0.1309559,-0.834021 -0.082632,0.267794 -0.1627706,0.733105 -0.081453,0.877738 -0.1516614,-0.387186 -0.4137073,-0.682599 -0.8426477,-0.607226 -0.334653,-0.01452 -0.416413,0.566854 -0.546516,0.597748 0.168014,-0.235392 -0.03987,-0.823344 -0.09034,-0.872262 0.127187,0.468555 -0.160232,0.847531 -0.217724,1.281078 0.0824,0.472255 0.214114,0.0783 0.249723,-0.0034 0.158262,0.386536 -0.398796,0.758275 0.01965,1.098048 0.0954,0.256137 -0.190045,0.73237 0.246385,0.782001 -0.22677,-0.319381 0.181704,-0.69729 -0.142084,-1.017224 -0.06658,-0.296451 0.412146,-0.520527 0.03807,-0.784134 -0.09514,-0.149159 0.157503,-0.547112 0.04675,-0.163512 0.108042,0.25823 0.302733,0.514714 0.0149,0.75251 -0.0039,0.410613 0.496238,0.760398 0.202491,1.205703 -0.08301,0.330972 0.405977,0.498523 0.190478,0.82323 z m 0.8252305,-1.587921 c 0.076277,-0.17504 -0.1841788,-0.671768 0.059706,-0.252074 0.06171,-0.0059 -0.060109,0.442533 -0.059706,0.252074 z M -9.83013,12.322666 c 0.079994,-0.190292 -0.275181,-0.539328 -0.279033,-0.274383 -0.226037,0.0026 -0.172731,-0.07102 -0.327164,-0.09086 -0.208578,0.06521 -0.199368,0.61641 -0.221196,0.129678 0.114565,-0.339265 0.515367,-0.472718 0.7612059,-0.193363 0.1049116,0.09535 0.1557815,0.327824 0.066187,0.428925 z m -0.347258,-0.38177 c 0.3359065,-0.163552 -0.51735,-0.02938 0,0 z m -3.638275,1.551353 c 0.394821,-0.308946 0.347104,-0.896675 0.274442,-1.343041 -0.02638,-0.235579 -0.275299,-0.724253 -0.392621,-0.690063 0.190279,0.579693 0.258834,1.241536 0.0428,1.822429 -0.317537,0.137867 -0.312054,-0.54532 -0.373163,-0.76667 -0.02055,-0.229743 -0.07249,-0.68912 -0.06245,-0.182409 0.03538,0.387083 -0.01518,0.890398 0.32114,1.155659 0.05766,0.03365 0.130145,0.02856 0.189852,0.0041 z m 7.3887459,0.0018 c 0.3466542,-0.275013 0.2843469,-0.790287 0.319122,-1.188964 0.0209,-0.274098 -0.028006,-0.30758 -0.037674,-0.01079 -0.062131,0.350617 -0.020705,0.82298 -0.3187867,1.054443 -0.2905441,-0.338744 -0.1854397,-0.868717 -0.176233,-1.288424 -0.018755,-0.210574 0.3147031,-0.917658 -0.028438,-0.459477 -0.2990967,0.499268 -0.3700961,1.166355 -0.1266616,1.701721 0.065587,0.136717 0.2105524,0.261037 0.3686714,0.191488 z m -5.2004999,-0.869902 c -0.0953,-0.09585 -0.458533,-0.388624 -0.185559,-0.06626 0.04731,0.04807 0.114465,0.08496 0.185559,0.06626 z m 2.9451257,-0.02195 c 0.2117224,-0.160349 0.2127245,-0.322731 -0.016853,-0.06862 -0.1039606,0.06076 -0.171045,0.137665 0.016853,0.06862 z m -5.2768027,-0.490539 c 0.0069,-0.286396 -0.142223,-0.700868 -0.2186,-0.78333 0.162072,-0.255559 -0.129268,-0.853009 -0.313608,-0.819277 0.109904,0.243245 0.0066,0.602031 -0.0096,0.761378 -0.04342,-0.283228 -0.563943,0.109947 -0.201794,-0.185322 0.458856,-0.26464 -0.278584,-0.561833 -0.389543,-0.849094 -0.239039,0.141376 0.459982,0.506626 0.159435,0.636876 -0.138372,0.333571 -0.335534,0.237216 -0.461849,-0.06297 -0.279212,-0.158768 0.165984,0.596964 0.378948,0.652611 0.188952,0.218614 0.701259,0.03888 0.516418,0.264823 0.159502,0.122126 0.383628,0.350841 0.540182,0.3843 z m 7.5504433,-0.01431 c 0.1969111,-0.126048 0.6068811,-0.420562 0.4539978,-0.492664 0.4989011,0.05353 0.9063969,-0.389189 1.0332351,-0.834904 -0.1722238,-0.08911 -0.3381435,0.63017 -0.5067184,0.199942 -0.3445303,-0.215028 0.065908,-0.388403 0.149186,-0.693986 -0.2171128,-0.04612 -0.3910006,0.454301 -0.6363747,0.572648 -0.030922,0.182898 0.5933748,0.488887 0.1348092,0.306016 -0.1979036,0.09135 -0.1792992,0.191401 -0.1667066,-0.104001 -0.1554149,-0.119943 0.1325714,-0.849724 -0.1386311,-0.448217 -0.2413654,0.192217 -0.207146,0.649208 -0.1956677,0.778072 -0.096147,-0.05354 -0.275883,0.852457 -0.1271296,0.717094 z m -2.5279969,-0.0062 c 0.3739151,-0.250458 0.2165065,-0.775921 -0.061141,-1.036329 -0.2730437,-0.293518 -0.4283616,-0.72661 -0.8479916,-0.847287 -0.4754778,-0.2249429 -1.0898698,0.0376 -1.3181288,0.497993 -0.217126,0.345044 -0.670134,0.648763 -0.534346,1.116814 0.03908,0.187125 0.409393,0.445154 0.142879,0.09621 -0.21999,-0.536725 0.403678,-0.853675 0.660847,-1.232427 0.341119,-0.389933 0.983064,-0.392203 1.333468,-0.01449 0.2391625,0.338711 0.6975926,0.580018 0.7299327,1.026389 0.074747,0.112866 -0.2296265,0.451343 -0.1055189,0.39312 z m -0.2512307,-0.06713 c 0.1506084,-0.249513 -0.1608477,-0.969918 -0.131768,-0.367051 -0.035177,0.06548 0.052014,0.501759 0.131768,0.367051 z m -1.9884247,-0.01362 c 0.101115,-0.157671 0.08987,-0.962132 -0.05902,-0.462041 -0.05826,0.07415 -0.07482,0.611163 0.05902,0.462041 z m -1.709,-0.01925 c -0.09927,-0.200503 -0.333208,-0.272817 -0.08991,-0.02938 0.01789,0.02725 0.0589,0.04861 0.08991,0.02938 z m 5.4194846,-0.02266 c 0.2336955,-0.222304 0.066565,-0.197898 -0.072481,-0.01062 -0.030125,0.05151 0.069121,0.05072 0.072481,0.01062 z m -3.2016496,-0.35254 c 0.232108,-0.12799 0.206352,-0.262202 0.376517,-0.104513 0.286054,0.09959 0.216993,-0.247588 0.4035786,0.0263 0.3447282,0.279976 0.4584375,-0.711939 0.063954,-0.747419 -0.052452,-0.189879 -0.7792986,-0.155459 -0.7712536,-0.0073 0.285303,0.02866 -0.401377,0.06482 -0.266763,0.319529 -0.0741,0.167794 0.114237,0.477446 0.193967,0.513411 z m 0.07598,-0.391252 c 0.12957,-0.02415 -0.379544,-0.170634 -0.02257,-0.114256 0.430556,-0.09133 -0.435234,-0.09452 -0.04073,-0.173303 0.249422,-0.0261 0.467061,0.07515 0.313802,0.269699 -0.09316,-0.199226 -0.128329,0.07991 -0.2505,0.01786 z m 0.6173221,-0.01499 c -0.1076741,-0.07584 0.2817445,0.07662 0,0 z m -0.1519411,0.0078 c -0.15954,-0.326382 0.2629156,-0.317901 0.4523772,-0.220566 -0.3508762,-0.0069 -0.3016308,0.129036 -0.010418,0.11314 -0.1258,0.17701 -0.3529432,-0.0536 -0.4419592,0.107426 z m -4.976996,-0.22965 c -0.03377,-0.1494 -0.48974,-0.815514 -0.270169,-0.315962 0.07867,0.08368 0.154165,0.322278 0.270169,0.315962 z m 9.8397834,-0.0207 c 0.1722863,-0.107586 0.4136604,-0.803873 0.1204973,-0.316505 -0.01633,0.05779 -0.3345516,0.43728 -0.1204973,0.316505 z m -9.6969694,-0.117892 c -0.0064,-0.176715 -0.58765,-0.9119419 -0.31313,-0.335113 0.0713,0.09501 0.175667,0.406179 0.31313,0.335113 z m 9.5819619,-0.0089 c 0.171965,-0.120153 0.4650494,-0.8516899 0.1461691,-0.405389 -0.010979,0.08849 -0.4498998,0.498699 -0.1461691,0.405389 z m -5.5644939,-0.554085 c 0.298916,-0.217794 -0.199181,0.0219 0,0 z"
           id="path20"
           sodipodi:nodetypes="sccccccccccccccccccccccccccccccccccccccccsscccccccccccccccccccccccccsccccccccccccccccccccccccccccccccccccccccccccscccccccccccccccccccccccccccccccccccccccccsccccccccccccccccccccccccccccc" /></g><path
         style="fill:#c0a247;fill-opacity:1"
         d="m -3.1796574,8.9978342 c -0.075967,-0.204644 -0.283957,-0.147467 -0.021506,-0.28703 -0.02943,-0.208764 0.2693229,0.15079 0.185975,0.12577 -0.1130176,-0.01986 -0.1118882,0.176807 -0.164469,0.16126 z m -7.7061136,-0.002 c -0.02722,-0.204993 -0.327599,-0.165327 -0.02918,-0.300913 0.102896,-0.202086 0.243849,0.163609 0.05321,0.259836 l -0.01338,0.039 -0.01064,0.0021 z m 8.1951466,-0.608038 c 0.058714,-0.277906 -0.5616242,-0.299303 -0.1155799,-0.400839 0.1316333,-0.220094 0.109965,-0.316665 0.2230166,-0.01806 0.5218805,0.187763 -0.1273805,0.05441 -0.1074367,0.418902 z m -8.5982486,-0.06077 c 0.02279,-0.308032 -0.559149,-0.28479 -0.08895,-0.427647 0.126194,-0.4526699 0.10985,0.114991 0.415871,0.107049 -0.178603,0.04475 -0.290301,0.147325 -0.326922,0.320598 z M -11.59139,7.1852238 c -0.25477,-0.1470192 0.09044,-0.3540099 0.120638,-0.119682 -0.07417,-0.019808 -0.09258,0.1438512 -0.120638,0.119682 z m 9.1845411,-0.02753 c -0.2516194,-0.1584126 0.1364528,-0.2870667 0.119185,-0.08962 -0.079213,-0.045759 -0.08711,0.1990557 -0.119185,0.08962 z M -11.86699,6.4709928 c -0.07678,-0.1857891 -0.240997,-0.1355548 -0.01075,-0.282606 -0.02108,-0.1809895 0.293874,0.2062188 0.119801,0.1517253 -0.06662,-0.01191 -0.06984,0.2043383 -0.109054,0.1308807 z m 9.7315968,-0.00137 c -0.086418,-0.1757225 -0.2380537,-0.1411707 -0.020469,-0.273257 -0.031792,-0.1920379 0.273354,0.1711918 0.1630051,0.1297751 -0.081937,-0.028341 -0.1208576,0.2169667 -0.1425361,0.1434819 z m -7.211963,-1.3498891 c -0.05642,-0.2365151 -0.292164,-0.1775279 -0.02705,-0.3475703 -0.02642,-0.2016192 0.245319,0.197864 0.197375,0.1481227 -0.118955,0.00763 -0.126881,0.127095 -0.170327,0.1994476 z m 4.6868489,-0.013606 C -4.6982604,4.9071681 -5.0075489,4.9382139 -4.693619,4.8063162 -4.7068215,4.555038 -4.4498212,4.9497258 -4.4852636,4.931473 -4.6063355,4.8898975 -4.612939,5.1538311 -4.6605073,5.1061277 Z m 0.5147072,-0.6915674 c 0.010453,-0.3161196 -0.5729448,-0.2819021 -0.078529,-0.4403225 0.090258,-0.2781421 0.1082642,-0.2508538 0.200146,0.00776 0.2475005,0.1063322 0.2714527,0.1163314 0.00615,0.2154039 -0.074643,0.015638 -0.067354,0.2942671 -0.1277623,0.2171579 z m -5.7640301,0 c 0.09437,-0.2909894 -0.5791748,-0.305753 -0.1372778,-0.4034689 0.1393878,-0.1249477 0.1460048,-0.4579134 0.2237628,-0.083125 0.130214,0.1478035 0.398596,0.152895 0.06617,0.2367422 -0.09782,0.016993 -0.08759,0.2775078 -0.152651,0.2498517 z m 4.9072035,-0.1328434 c -0.2294412,-0.093 -0.026059,-0.2004171 0.030606,-0.242679 0.152169,0.2459563 0.2021702,0.039909 -0.030606,0.242679 z m -3.9636305,-0.00664 c -0.178041,-0.1388498 -0.08784,-0.1382207 0.02139,-0.270286 0.106146,0.2701158 0.233591,0.027856 -0.02139,0.270286 z m 3.5863015,-0.4510353 c 0.034649,-0.2879398 -0.5807894,-0.2970264 -0.1000764,-0.4170321 0.1124634,-0.3002298 0.1064014,-0.2248886 0.2347366,0.01312 0.4441423,0.108336 -0.1636678,0.1058204 -0.1088554,0.3824947 l -0.0093,0.018498 z M -8.6660232,3.7207429 c -0.0037,-0.221098 -0.419638,-0.1998793 -0.04912,-0.3200878 0.06744,-0.3591971 0.127667,0.1280534 0.301452,0.10443 -0.154756,-0.012367 -0.215571,0.2260483 -0.252336,0.2156578 z"
         id="path20-6"
         sodipodi:nodetypes="ccccsccccssccssccssccccccccccccsccscccsccccccccccccccsccccccccccccccccccc" /></g></g></svg>
