<?xml version="1.0" encoding="UTF-8" standalone="no"?>
<!-- Created with Inkscape (http://www.inkscape.org/) -->

<svg
   width="15mm"
   height="15mm"
   viewBox="0 0 15 15"
   version="1.1"
   id="svg1"
   inkscape:export-filename="dogs.png"
   inkscape:export-xdpi="96"
   inkscape:export-ydpi="96"
   inkscape:version="1.3.2 (091e20e, 2023-11-25)"
   sodipodi:docname="dogs.svg"
   xmlns:inkscape="http://www.inkscape.org/namespaces/inkscape"
   xmlns:sodipodi="http://sodipodi.sourceforge.net/DTD/sodipodi-0.dtd"
   xmlns="http://www.w3.org/2000/svg"
   xmlns:svg="http://www.w3.org/2000/svg">
  <sodipodi:namedview
     id="namedview1"
     pagecolor="#ffffff"
     bordercolor="#000000"
     borderopacity="0.25"
     inkscape:showpageshadow="2"
     inkscape:pageopacity="0.0"
     inkscape:pagecheckerboard="0"
     inkscape:deskcolor="#d1d1d1"
     inkscape:document-units="mm"
     showguides="false"
     inkscape:zoom="13.102207"
     inkscape:cx="23.431167"
     inkscape:cy="38.848417"
     inkscape:window-width="1792"
     inkscape:window-height="995"
     inkscape:window-x="0"
     inkscape:window-y="25"
     inkscape:window-maximized="1"
     inkscape:current-layer="layer1" />
  <defs
     id="defs1" />
  <g
     inkscape:label="Layer 1"
     inkscape:groupmode="layer"
     id="layer1">
    <ellipse
       style="fill:#000000;fill-opacity:0.143426;stroke:#c00707;stroke-width:0.165;stroke-dasharray:none;stroke-opacity:0.421348"
       id="path5"
       cx="7.4724536"
       cy="11.982809"
       rx="0.24757871"
       ry="0.26408395" />
    <path
       d="m 12.103925,5.1647168 c -0.09017,-0.024223 -0.340956,-0.018393 -0.555637,0.011108 -0.435856,0.056139 -0.593838,0.00979 -0.715596,-0.2067672 -0.08697,-0.1546816 -0.319482,-0.2959346 -0.42242,-0.255973 -0.03094,0.017393 -0.0523,0.1010647 -0.04767,0.1961843 0.0098,0.1361845 -0.0024,0.1463123 -0.04239,0.043377 -0.02829,-0.05901 -0.07607,-0.1266078 -0.102054,-0.138058 -0.103926,-0.045801 -0.122755,0.1553377 -0.0327,0.3734326 0.121976,0.2864629 0.0075,0.5462786 -0.2862534,0.6495392 l -0.231086,0.084326 0.108767,0.2108295 C 9.9588626,6.476647 9.8160656,6.6774528 9.2078026,6.9135889 8.8464786,7.0646286 8.6241996,7.1993775 8.4892236,7.3648435 8.3399341,7.5627869 8.1787572,7.6468943 7.7459815,7.766446 7.4421255,7.8574864 7.1325432,7.9615175 7.0555877,8.0129297 6.981495,8.0578495 6.8546685,8.0640049 6.7702281,8.0267956 6.6857884,7.9895864 6.3874373,7.9977203 6.1036189,8.0432996 5.8197997,8.0888707 5.5539265,8.1113265 5.5084579,8.0912889 5.3525679,8.0225838 5.0503748,7.4938048 4.9975364,7.19127 4.9293959,6.8354499 5.1085274,6.2705695 5.4029214,5.9193804 5.573789,5.7076762 5.6515147,5.6721181 5.924654,5.6683803 6.1055355,5.6627704 6.2812444,5.6160936 6.3228601,5.5568642 6.4297646,5.4022974 5.9616393,5.2934274 5.6065893,5.377421 4.7722878,5.5639267 4.7394836,5.8406772 4.5635708,6.2398431 4.3088058,6.817933 4.4615959,7.7385284 4.8984327,8.2258055 5.0365957,8.3875345 5.0339519,8.4639388 4.8746482,8.4557886 4.8140981,8.4523689 4.6170295,8.5827192 4.4337226,8.7346435 4.1770931,8.9473369 4.0428875,9.1286565 3.8846777,9.4700495 l -0.2162299,0.455448 -0.5080764,0.0088 c -0.2760019,0.01023 -0.5138017,0.02179 -0.5296549,0.02256 -0.04679,0.01816 -0.038334,1.1078595 0.011861,1.4867985 0.047332,0.385434 0.090708,0.427821 0.5703781,0.553886 0.176698,0.03908 0.2746796,0.02797 0.3061674,-0.04348 0.091602,-0.207853 -0.014303,-0.425177 -0.2683936,-0.552669 -0.2216143,-0.113179 -0.2462737,-0.162831 -0.23548,-0.398539 0.023347,-0.3698 0.1182481,-0.44433 0.5946177,-0.451587 0.3365525,-0.0068 0.4740587,-0.05482 0.7379539,-0.248795 0.4659176,-0.3531675 0.604965,-0.3694595 0.935897,-0.09951 0.4031525,0.317293 0.4973879,0.490691 0.3971998,0.71803 -0.080924,0.166017 -0.4026189,0.543958 -0.7037271,0.822376 -0.066829,0.06363 0.00275,0.187377 0.3390737,0.568303 0.3500857,0.402505 0.4960655,0.528894 0.8273309,0.674883 0.2208436,0.09733 0.4242933,0.163714 0.461724,0.149184 0.037429,-0.01453 0.0752,-0.153026 0.076853,-0.315194 L 6.6935136,12.530783 6.3016973,12.381382 C 6.0491477,12.285597 5.885222,12.182328 5.8330403,12.089518 5.7533377,11.953552 5.7619194,11.934066 6.211112,11.302035 6.6366307,10.706113 6.8435033,10.254298 6.8561716,9.9263335 c 0.011236,-0.09589 0.055928,-0.09171 0.261689,0.02224 0.192769,0.1082265 0.3881833,0.1400455 0.8450669,0.1242005 0.8316381,-0.02134 0.8446291,-0.01562 0.5686191,0.452271 -0.3061769,0.501135 -0.3655203,0.653391 -0.319613,0.813247 0.056807,0.187928 0.244399,0.255089 0.478348,0.164267 0.187158,-0.07266 0.219416,-0.128253 0.421666,-0.675188 0.207206,-0.575779 0.40802,-0.8906405 0.531432,-0.8362525 0.03248,0.01431 0.09765,0.1128475 0.150602,0.2215095 0.09578,0.205104 0.189574,0.238684 0.7605144,0.280861 0.156439,0.01465 0.42044,0.08445 0.582825,0.156012 0.279301,0.123089 0.30319,0.156889 0.517749,0.778913 0.194853,0.543531 0.264429,0.667276 0.449933,0.756784 l 0.221614,0.113179 0.238371,-0.271392 0.0393,-0.358662 -0.284914,-0.30397 c -0.20752,-0.215565 -0.284361,-0.358026 -0.279844,-0.526687 0.0043,-0.238571 -0.173607,-0.433328 -0.740467,-0.783983 -0.366822,-0.2237145 -0.56994,-0.4140685 -0.589093,-0.5466205 -0.0059,-0.05692 0.05967,-0.276221 0.15414,-0.4905685 0.226139,-0.5131362 0.269742,-0.8584947 0.147765,-1.1449576 -0.146636,-0.3361151 -0.148281,-0.6316029 -0.0026,-0.838904 0.205218,-0.2896487 0.417035,-0.3126541 0.99931,-0.1025866 0.462496,0.1650358 0.854643,0.1904764 0.80015,0.050108 -0.0044,-0.025213 -0.167573,-0.1126292 -0.353078,-0.2021358 -0.295926,-0.1381694 -0.332806,-0.1776951 -0.300766,-0.3032 0.03281,-0.1096517 0.117031,-0.1423474 0.358463,-0.1445442 0.38125,-0.00264 0.779238,-0.1840593 0.870838,-0.3919123 C 13.487234,5.7045312 13.39553,5.6486028 12.894498,5.6062075 12.454019,5.5672262 12.441029,5.561501 12.356151,5.3844706 12.306831,5.2851663 12.200594,5.191806 12.103934,5.1647213 Z"
       id="path20"
       style="fill:#000000;stroke:none;stroke-width:0.00709821"
       sodipodi:nodetypes="scsccccccccccccscccccccsccsccccccscccccccccsccccccccccsccccscccccccccccccccccsccss" />
    <path
       d="m 13.696487,7.9486645 c -0.08483,-0.01407 -0.336903,-0.010684 -0.558084,0.00645 -0.448225,0.032609 -0.595996,0.00569 -0.670036,-0.1201044 -0.05288,-0.08985 -0.254274,-0.1718989 -0.366017,-0.1486865 -0.03477,0.010103 -0.07457,0.058705 -0.0909,0.1139572 -0.02021,0.079105 -0.03464,0.084988 -0.05195,0.025196 -0.01533,-0.034277 -0.04818,-0.073542 -0.07164,-0.080194 -0.09383,-0.026604 -0.156982,0.090231 -0.114983,0.2169149 0.05886,0.1663971 -0.112869,0.3173156 -0.429375,0.3772964 l -0.249667,0.048982 0.06232,0.122464 C 11.262349,8.7107223 11.075305,8.8273639 10.415011,8.9645277 10.020407,9.0522618 9.768436,9.1305331 9.5970008,9.2266469 9.4040956,9.3416258 9.2243862,9.3904811 8.7652679,9.4599248 8.4413517,9.5128072 8.1088467,9.5732355 8.0205628,9.6030992 7.9365725,9.6291922 7.8083895,9.6327672 7.7321469,9.6111492 7.655907,9.5895399 7.3557637,9.5942646 7.0619022,9.6207401 6.7680416,9.6472109 6.4972205,9.6602547 6.456167,9.6486155 6.3154158,9.608707 6.1297361,9.3015564 6.1435596,9.1258237 6.1538221,8.9191393 6.4574218,8.5910185 6.8291984,8.3870242 7.0467138,8.264052 7.1322745,8.2433975 7.4062374,8.2412263 7.588355,8.2379677 7.7743489,8.2108547 7.8290155,8.1764502 7.9699779,8.0866674 7.5258414,8.0234283 7.152284,8.0722175 6.2768869,8.1805526 6.1831024,8.341308 5.9192355,8.5731706 5.5370917,8.9089643 5.4870337,9.4437084 5.8165018,9.7267519 c 0.102527,0.093943 0.083048,0.1383239 -0.07446,0.1335897 -0.059797,-0.00199 -0.2855871,0.07373 -0.5023696,0.1619784 -0.3034954,0.123546 -0.4776537,0.228869 -0.7110874,0.427173 l -0.3165853,0.264555 -0.510011,0.0051 c -0.27824,0.0059 -0.5186041,0.01266 -0.5346243,0.0131 -0.050792,0.01055 -0.2824447,0.64352 -0.3157466,0.863633 -0.037596,0.223886 -0.00356,0.248508 0.4483322,0.321735 0.168087,0.0227 0.2685154,0.01625 0.3157495,-0.02526 0.1374012,-0.120735 0.079383,-0.246972 -0.1466163,-0.321028 -0.1966766,-0.06574 -0.210396,-0.09458 -0.1476639,-0.231498 0.1048303,-0.214805 0.2161537,-0.258097 0.6941222,-0.262312 0.3380319,-0.0039 0.4861368,-0.03184 0.7927745,-0.144517 0.5437363,-0.205144 0.6863733,-0.214607 0.9578226,-0.0578 0.3332389,0.184305 0.3892671,0.285026 0.2389861,0.41708 -0.1175034,0.09643 -0.5224768,0.315967 -0.8849328,0.477691 -0.08085,0.03696 -0.038538,0.108842 0.2138513,0.330109 0.2613961,0.233802 0.3795264,0.307218 0.6786241,0.392018 0.1993959,0.05654 0.3882184,0.0951 0.4288507,0.08666 0.040616,-0.0084 0.1089192,-0.08889 0.1463041,-0.183086 l 0.075183,-0.168299 -0.3588968,-0.08678 C 6.0726652,12.084952 5.9314937,12.024968 5.899762,11.971058 c -0.049743,-0.07898 -0.036867,-0.0903 0.5515894,-0.457424 0.5568265,-0.346151 0.863254,-0.608596 0.9481875,-0.7991 0.032365,-0.0557 0.076135,-0.05327 0.256788,0.01292 0.1689201,0.06287 0.3573242,0.08135 0.8177016,0.07214 0.8363418,-0.0124 0.848081,-0.0091 0.4689639,0.262709 -0.4165991,0.291093 -0.5094915,0.379534 -0.4988074,0.472389 0.015395,0.109161 0.1881915,0.148173 0.4421516,0.09542 0.2031698,-0.04221 0.2476766,-0.0745 0.5704396,-0.392194 0.3340759,-0.334452 0.6042678,-0.517345 0.7156958,-0.485752 0.02933,0.0083 0.07278,0.06555 0.101798,0.128667 0.05059,0.119138 0.136981,0.138644 0.698629,0.163143 0.153214,0.0085 0.401833,0.04905 0.548449,0.09062 0.252178,0.0715 0.26862,0.09113 0.34612,0.452445 0.0751,0.315719 0.1174,0.387599 0.283179,0.439591 l 0.196678,0.06574 0.29817,-0.157643 0.118329,-0.208335 -0.217936,-0.176566 c -0.160023,-0.125215 -0.205473,-0.207966 -0.163788,-0.305935 0.05687,-0.138579 -0.07812,-0.251707 -0.567719,-0.455391 -0.317528,-0.129948 -0.478703,-0.240519 -0.468648,-0.317514 0.0066,-0.03306 0.120533,-0.160448 0.262233,-0.284956 0.339203,-0.298059 0.458904,-0.4986665 0.400048,-0.6650636 -0.07257,-0.1952384 -0.0091,-0.3668777 0.182247,-0.4872922 0.26904,-0.1682475 0.485927,-0.1816106 1.021915,-0.059589 0.426131,0.095864 0.812672,0.1106416 0.789109,0.029106 0.0011,-0.014645 -0.142756,-0.065423 -0.308539,-0.1174141 C 13.427265,8.8055211 13.399095,8.7825617 13.458789,8.70966 13.515759,8.645967 13.607185,8.626975 13.849102,8.625699 14.230932,8.624169 14.668896,8.5187849 14.806295,8.3980499 14.96086,8.2622252 14.881479,8.2297382 14.389789,8.2051121 13.9579,8.1824691 13.946171,8.1791441 13.9003,8.0763124 13.872867,8.0186294 13.787193,7.9643997 13.696504,7.9486671 Z"
       id="path20-2"
       style="fill:#000000;fill-opacity:0.36236;stroke:none;stroke-width:0.00540988"
       sodipodi:nodetypes="scsccccccccccccscccccccsccsccccccscccccccccsccccccccccsccccscccccccccccccccccsccss" />
  </g>
</svg>
