<?xml version="1.0" encoding="UTF-8" standalone="no"?>
<!-- Created with Inkscape (http://www.inkscape.org/) -->

<svg
   width="15mm"
   height="15mm"
   viewBox="0 0 15 15"
   version="1.1"
   id="svg1"
   inkscape:export-filename="bitmap.png"
   inkscape:export-xdpi="96"
   inkscape:export-ydpi="96"
   inkscape:version="1.3.2 (091e20e, 2023-11-25)"
   sodipodi:docname="dragon.svg"
   xml:space="preserve"
   xmlns:inkscape="http://www.inkscape.org/namespaces/inkscape"
   xmlns:sodipodi="http://sodipodi.sourceforge.net/DTD/sodipodi-0.dtd"
   xmlns="http://www.w3.org/2000/svg"
   xmlns:svg="http://www.w3.org/2000/svg"><sodipodi:namedview
     id="namedview1"
     pagecolor="#ffffff"
     bordercolor="#000000"
     borderopacity="0.25"
     inkscape:showpageshadow="2"
     inkscape:pageopacity="0.0"
     inkscape:pagecheckerboard="0"
     inkscape:deskcolor="#d1d1d1"
     inkscape:document-units="mm"
     showguides="false"
     inkscape:zoom="7.3495302"
     inkscape:cx="23.402856"
     inkscape:cy="79.052672"
     inkscape:window-width="1792"
     inkscape:window-height="993"
     inkscape:window-x="0"
     inkscape:window-y="37"
     inkscape:window-maximized="0"
     inkscape:current-layer="layer1" /><defs
     id="defs1" /><g
     inkscape:label="Layer 1"
     inkscape:groupmode="layer"
     id="layer1"><ellipse
       style="fill:#000000;fill-opacity:0.143426;stroke:#c00707;stroke-width:0.165;stroke-dasharray:none;stroke-opacity:0.421348"
       id="path5"
       cx="7.4724536"
       cy="11.982809"
       rx="0.24757871"
       ry="0.26408395" /><path
       style="fill:#000000;stroke-width:1"
       d="m -0.15601204,19.124017 c 0.31627907,-0.107766 0.26221652,-0.399336 0.76483667,-0.623234 0.16512873,-0.07356 0.43788087,-0.216014 0.73051877,-0.175154 0.2385354,0.03334 0.4221383,2.67e-4 0.8124884,0.135304 0.1329233,0.04719 0.1270995,0.04505 0.1538371,0.0567 0.013017,0.0057 0.055619,0.02339 0.09467,0.03936 0.066617,0.02725 0.2200017,0.09305 0.2786935,0.119548 0.014429,0.0065 0.053483,0.0218 0.08678,0.03397 0.1384407,0.05059 0.1563672,0.05737 0.1811289,0.06849 0.030393,0.01365 0.1620193,0.064 0.1920388,0.07345 0.011404,0.0036 0.032704,0.01182 0.047335,0.01829 0.073035,0.0323 0.1319605,0.05056 0.2455237,0.07613 0.02061,0.0047 0.052561,0.01193 0.071002,0.0162 0.029051,0.0067 0.1462799,0.02577 0.3393775,0.05512 0.1400864,0.02129 0.4608303,0.0015 0.5816745,-0.03601 0.1019641,-0.03159 0.2335525,-0.07567 0.2578113,-0.08634 0.01441,-0.0063 0.039511,-0.01736 0.05578,-0.02447 0.041487,-0.01815 0.1732372,-0.08383 0.2110334,-0.105199 0.07812,-0.04418 0.2196194,-0.142736 0.2683823,-0.186932 0.00876,-0.0079 0.040713,-0.03535 0.071002,-0.0609 0.1803659,-0.152178 0.327401,-0.373197 0.4099446,-0.616218 0.01179,-0.03471 0.024365,-0.07021 0.027943,-0.07889 0.00357,-0.0087 0.0083,-0.02465 0.010496,-0.0355 0.00222,-0.01084 0.00805,-0.03392 0.013024,-0.05128 0.021258,-0.07426 0.034141,-0.165593 0.047923,-0.339717 0.010323,-0.130415 0.00195,-0.312085 -0.021653,-0.468915 -0.011086,-0.07372 -0.0184,-0.107288 -0.042099,-0.193283 -0.00357,-0.01302 -0.012196,-0.04497 -0.019136,-0.071 -0.028706,-0.107726 -0.1323999,-0.326695 -0.2126131,-0.448971 -0.025361,-0.03867 -0.049331,-0.07416 -0.053266,-0.07889 -0.00395,-0.0047 -0.024354,-0.03176 -0.045379,-0.06006 C 5.3210373,15.965141 5.1486334,15.804458 4.999793,15.69974 4.8242719,15.57625 4.5185444,15.43632 4.3292201,15.39282 4.0998039,15.34011 3.7875403,15.33189 3.560033,15.37259 c -0.4135274,0.07396 -0.8676898,0.28274 -1.2015546,0.55236 -0.040956,0.03308 -0.086131,0.06901 -0.100388,0.07986 -0.014251,0.01084 -0.044248,0.0357 -0.066647,0.05522 -0.1045545,0.09114 -0.1380783,0.119963 -0.2293898,0.197228 -0.2544781,0.215332 -0.3493524,0.336144 -0.3481095,0.443279 3.247e-4,0.02468 0.00614,0.05575 0.013019,0.06903 0.012239,0.02365 0.013701,0.02415 0.07107,0.02415 0.052492,0 0.091196,-0.007 0.165853,-0.02999 0.040411,-0.01245 0.1488915,-0.05864 0.1696154,-0.07224 0.010842,-0.0071 0.029752,-0.01725 0.042008,-0.02251 0.030932,-0.01329 0.1385539,-0.104436 0.2227513,-0.188646 0.051648,-0.05165 0.1007807,-0.114716 0.1835353,-0.23556 0.1774096,-0.259065 0.181266,-0.264426 0.2327302,-0.323478 0.05111,-0.05865 0.124316,-0.11837 0.1709987,-0.139509 0.027905,-0.01263 0.1259449,-0.05034 0.1524191,-0.05863 0.014155,-0.0044 -0.037545,0.0803 -0.1068679,0.175142 -0.04254,0.0582 -0.094473,0.164641 -0.1366432,0.280062 -0.01189,0.03254 -0.02402,0.06272 -0.026954,0.06706 -0.00522,0.0077 -0.01837,0.05128 -0.032149,0.106502 -0.011865,0.04757 -0.023109,0.127514 -0.027947,0.198793 -0.00257,0.03775 -0.0088,0.07191 -0.013845,0.07592 -0.00505,0.004 -0.038705,0.02238 -0.07478,0.04082 -0.036077,0.01844 -0.085778,0.0485 -0.110448,0.06679 -0.104066,0.07719 -0.1419933,0.1043 -0.1851503,0.132358 -0.025097,0.01632 -0.047624,0.02966 -0.050061,0.02966 -0.00244,0 -0.013862,0.0065 -0.025374,0.01455 -0.019563,0.01359 -0.077807,0.04606 -0.1708328,0.09521 -0.055471,0.02932 -0.1449295,0.06265 -0.252451,0.09408 -0.1617191,0.04727 -0.2261386,0.05619 -0.4070497,0.05636 -0.1678478,1.62e-4 -0.1877874,-0.0039 -0.22006,-0.04494 -0.013782,-0.01751 -0.014545,-0.02228 -0.00536,-0.03305 0.00593,-0.0069 0.020992,-0.02439 0.033497,-0.03881 0.049309,-0.05685 0.1158218,-0.158876 0.1500697,-0.230175 0.019796,-0.04122 0.038683,-0.08027 0.041963,-0.08678 0.0033,-0.0065 0.012223,-0.03313 0.019861,-0.05917 0.00764,-0.02603 0.016846,-0.05444 0.020457,-0.06311 0.00949,-0.02284 0.015471,-0.06 0.025069,-0.155811 0.010567,-0.105509 -0.00374,-0.273184 -0.029085,-0.341203 -0.051204,-0.137361 -0.064087,-0.168839 -0.0764,-0.186611 -0.00798,-0.01153 -0.014513,-0.02333 -0.014513,-0.02624 0,-0.01133 -0.064709,-0.09485 -0.1122221,-0.144861 -0.1035159,-0.108957 -0.1865077,-0.17295 -0.30984474,-0.238925 -0.12858952,-0.06878 -0.19071114,-0.08778 -0.33378211,-0.102066 -0.21424622,-0.02139 -0.41982478,0.03461 -0.59713061,0.162666 -0.06376075,0.04605 -0.18539373,0.164764 -0.18539373,0.180944 0,0.0022 -0.0124179,0.02129 -0.0276129,0.04243 -0.0151895,0.02114 -0.0276128,0.04041 -0.0276128,0.04283 0,0.0024 -0.0178149,0.0313 -0.0395923,0.06418 -0.0217774,0.03289 -0.0469868,0.07397 -0.0560198,0.0913 -0.0185619,0.03561 -0.0286305,0.0397 -0.0339517,0.01377 -0.002003,-0.0098 -0.008212,-0.03727 -0.0137983,-0.06114 -0.007043,-0.0301 -0.0101931,-0.114681 -0.0103068,-0.276119 -1.559e-4,-0.222906 0.003356,-0.271412 0.027667,-0.382622 0.003789,-0.01735 0.0105991,-0.04931 0.0151137,-0.071 0.0561335,-0.269393 0.11446154,-0.445929 0.22286136,-0.674517 0.08173536,-0.172358 0.13491812,-0.276997 0.19441649,-0.382521 0.05169088,-0.09167 0.12616494,-0.239323 0.19795025,-0.392436 0.0399225,-0.08516 0.0596007,-0.163846 0.0409727,-0.163846 -0.008455,0 -0.053304,0.01837 -0.11141173,0.04563 -0.0355108,0.01666 -0.0555657,0.02045 -0.11044656,0.0209 -0.06670824,4.87e-4 -0.16233935,-0.01529 -0.17031194,-0.0282 -0.0023277,-0.0037 -0.01107005,-0.0068 -0.01949302,-0.0068 -0.02310906,0 -0.01885968,-0.0137 0.02624872,-0.0846 0.02270306,-0.03568 0.05447328,-0.08627 0.07060685,-0.112418 0.02624872,-0.04254 0.03205711,-0.04753 0.05522301,-0.0475 0.01423678,2.5e-5 0.03834187,0.0035 0.05355844,0.0077 0.0152112,0.0042 0.057817,0.01302 0.0946686,0.01954 0.14001954,0.02476 0.17654744,0.01303 0.1991444,-0.06391 0.0230441,-0.07846 0.0152112,-0.121178 -0.0221996,-0.121178 -0.0108102,0 -0.0417522,0.01115 -0.0687377,0.02477 -0.0404476,0.02042 -0.0611976,0.02546 -0.11811223,0.02871 -0.0586593,0.0034 -0.0690424,0.0021 -0.0690424,-0.0082 0,-0.0067 0.0434898,-0.04764 0.0966401,-0.09098 0.11015749,-0.08984 0.12292512,-0.102605 0.20995949,-0.209977 0.0934333,-0.115265 0.16944204,-0.275838 0.19170284,-0.404973 0.0133923,-0.07766 0.0171437,-0.261479 0.006328,-0.309613 -0.0236341,-0.105173 -0.0393271,-0.159188 -0.0582939,-0.200652 -0.0111837,-0.02444 -0.0203213,-0.04813 -0.0203213,-0.05265 0,-0.01031 0.0130513,-0.02285 0.0433924,-0.04177 0.0332859,-0.02074 0.10450121,-0.07409 0.14292699,-0.107065 0.0178636,-0.01534 0.050657,-0.04323 0.0728744,-0.06199 0.0222213,-0.01876 0.0465321,-0.0445 0.0540294,-0.0572 0.0106803,-0.01809 0.0192548,-0.02308 0.0396519,-0.02308 0.014318,0 0.0321816,0.0034 0.0397168,0.0076 0.00753,0.0042 0.0527519,0.02053 0.10047913,0.03637 0.1226956,0.04072 0.229531,0.115857 0.2997871,0.210849 0.026178,0.03539 0.021101,0.04463 -0.029199,0.05309 -0.059854,0.01008 -0.230677,0.04593 -0.2449474,0.0514 -0.020614,0.0079 -0.017025,0.02179 0.016646,0.06439 0.038261,0.04841 0.070422,0.07563 0.1045884,0.08853 0.014675,0.0056 0.033789,0.01294 0.042467,0.01643 0.00868,0.0035 0.031754,0.01229 0.05128,0.01952 0.082243,0.0305 0.1922301,0.121828 0.2519379,0.209197 0.043609,0.06381 0.081592,0.148609 0.085697,0.191312 l 0.00363,0.03748 h -0.033973 c -0.018681,0 -0.044876,-0.0035 -0.058198,-0.0078 -0.04664,-0.01505 -0.1884679,-0.04741 -0.2077634,-0.04741 -0.017301,0 -0.018871,0.0024 -0.014058,0.0217 0.00298,0.01193 0.00855,0.04655 0.012386,0.07692 0.012093,0.09584 0.022611,0.147224 0.032625,0.159284 0.00536,0.0064 0.022849,0.01694 0.038926,0.02338 0.05534,0.02214 0.113571,0.10036 0.1488636,0.199959 0.00541,0.0152 0.012564,0.03471 0.015969,0.04339 0.00732,0.01865 0.019661,0.06445 0.031229,0.115913 0.011021,0.04902 0.010583,0.136359 -8.12e-4,0.171479 -0.018048,0.05543 -0.026395,0.07156 -0.037016,0.07156 -0.00592,0 -0.039148,-0.02669 -0.073817,-0.0593 -0.037108,-0.03491 -0.080654,-0.06736 -0.1058643,-0.07889 -0.023558,-0.01078 -0.044031,-0.01959 -0.045509,-0.01959 -0.00265,0 -0.00846,0.02694 -0.020375,0.09467 -0.00346,0.01952 -0.01198,0.05609 -0.018973,0.08125 -0.00699,0.02516 -0.012726,0.0617 -0.012726,0.08121 0,0.03005 0.00449,0.04032 0.029583,0.06732 0.044513,0.04795 0.05548,0.07237 0.077489,0.172561 0.013035,0.05933 0.014854,0.172382 0.00336,0.210476 -0.00433,0.01442 -0.011817,0.03951 -0.016608,0.05578 -0.014285,0.04846 -0.059636,0.138059 -0.084864,0.167643 -0.018611,0.02182 -0.026276,0.02596 -0.036561,0.01972 -0.01801,-0.01091 -0.0526,-0.07564 -0.077541,-0.145106 -0.022671,-0.06313 -0.044307,-0.104601 -0.056671,-0.108615 -0.00698,-0.0023 -0.027537,0.03158 -0.027537,0.04534 0,0.003 -0.016164,0.04044 -0.035933,0.08324 -0.050235,0.108784 -0.048719,0.104913 -0.0588721,0.15044 -0.009154,0.04108 -0.004709,0.0891 0.008277,0.0891 0.00379,0 0.012256,0.01154 0.0188,0.02564 0.0092,0.01982 0.012418,0.06451 0.014172,0.196766 0.00244,0.185359 -0.0013,0.204947 -0.033232,0.175995 -0.042483,-0.03845 -0.0313696,0.03303 0.016814,0.108114 0.029995,0.04674 0.070525,0.07946 0.1304549,0.105303 0.025307,0.01091 0.053115,0.02289 0.061794,0.02661 0.1236716,0.05301 0.3197369,0.06223 0.4457346,0.02097 0.1310791,-0.04293 0.1954456,-0.0698 0.2637089,-0.110107 0.039367,-0.02324 0.091102,-0.05279 0.1149668,-0.06566 0.023865,-0.01287 0.077116,-0.04398 0.1183364,-0.06913 0.1169048,-0.07134 0.291469,-0.172779 0.3516297,-0.204326 0.1094888,-0.05741 0.3321736,-0.141017 0.4767263,-0.17898 0.019526,-0.0051 0.042601,-0.01198 0.051279,-0.01522 0.1203793,-0.04499 0.2946227,-0.07899 0.4891242,-0.09546 0.2545208,-0.02154 0.5025217,-0.01672 0.6784624,0.01321 0.062721,0.01066 0.096816,0.0183 0.2287834,0.05124 0.017355,0.0043 0.038656,0.01091 0.047333,0.01459 0.00868,0.0037 0.040626,0.01417 0.071002,0.02326 0.2587825,0.07747 0.4026081,0.137027 0.5877376,0.243393 0.015184,0.0087 0.048914,0.02808 0.074947,0.04302 0.1276611,0.07325 0.1716463,0.103631 0.3589536,0.24792 0.084444,0.06505 0.1081302,0.08662 0.2410222,0.219515 0.166992,0.166991 0.3419506,0.390485 0.44498,0.568419 0.03806,0.06573 0.047263,0.08277 0.085699,0.158681 0.050338,0.09942 0.058905,0.118727 0.088833,0.200272 0.013538,0.03688 0.03177,0.08658 0.040523,0.110448 0.013793,0.03761 0.028517,0.08594 0.062479,0.205117 0.058602,0.205632 0.090223,0.502019 0.082905,0.777075 -0.00503,0.18831 -0.014719,0.283453 -0.045477,0.445735 -0.015823,0.08348 -0.050245,0.23271 -0.067328,0.291896 -0.014648,0.05074 -0.097127,0.268273 -0.1063943,0.280602 -0.00346,0.0047 -0.034277,0.06321 -0.068429,0.130171 -0.057185,0.112116 -0.1422768,0.243292 -0.2145872,0.330802 -0.016131,0.01953 -0.042158,0.05563 -0.057835,0.08023 -0.028647,0.04496 -0.1563145,0.188424 -0.2350623,0.26415 -0.1029389,0.09899 -0.2544724,0.213051 -0.3637513,0.273804 -0.020608,0.01146 -0.052562,0.02925 -0.071002,0.03953 -0.1315214,0.07336 -0.1859827,0.0974 -0.3727595,0.164589 -0.1147593,0.04128 -0.2105631,0.06502 -0.3786767,0.09385 -0.096825,0.0166 -0.1784995,0.02274 -0.3666193,0.02758 -0.188365,0.0048 -0.2139588,0.0034 -0.382845,-0.02173 -0.1319389,-0.01962 -0.3411276,-0.06455 -0.4417893,-0.09489 -0.088298,-0.02661 -0.2191791,-0.06958 -0.2406175,-0.07899 -0.010848,-0.0048 -0.026823,-0.01138 -0.035501,-0.01471 -0.00868,-0.0033 -0.032602,-0.01351 -0.053165,-0.02261 -0.020563,-0.0091 -0.038954,-0.01656 -0.040867,-0.01656 -0.00192,0 -0.025916,-0.01029 -0.053338,-0.02286 -0.027421,-0.01258 -0.080033,-0.03528 -0.1169146,-0.05045 -0.066971,-0.02754 -0.1179667,-0.05121 -0.3458388,-0.160535 -0.066549,-0.03193 -0.1223633,-0.05805 -0.1240318,-0.05805 -0.00167,0 -0.035972,-0.01553 -0.076228,-0.0345 -0.1041634,-0.0491 -0.173282,-0.07879 -0.2798168,-0.120206 -0.05124,-0.01992 -0.10559,-0.04155 -0.1207759,-0.04806 -0.015192,-0.0065 -0.034712,-0.01484 -0.043391,-0.01848 -0.016848,-0.0071 -0.1476579,-0.05286 -0.2130058,-0.07453 -0.021696,-0.0072 -0.053645,-0.01607 -0.071001,-0.0197 -0.017355,-0.0036 -0.091907,-0.01962 -0.1656712,-0.03552 -0.1700083,-0.03664 -0.2156326,-0.04261 -0.3707875,-0.04854 -0.23306632,-0.0089 -0.42981537,0.03118 -0.61377243,0.125051 -0.10528342,0.05373 -0.22978758,0.151007 -0.30300306,0.236754 -0.0425858,0.04987 -0.12742256,0.139345 -0.14122411,0.195594 0.0075398,-0.02401 0.35939229,0.07765 -0.25489605,0.152161 -0.18246912,-0.541871 0.066114,-0.29915 0.066114,-0.29915 z M -1.9268287,18.62896 c -0.087315,-0.02898 -0.1318878,-0.08655 -0.1580894,-0.204172 -0.010177,-0.04569 -0.00536,-0.100298 0.016965,-0.191297 0.00724,-0.02951 0.011119,-0.03998 0.033654,-0.09072 0.025144,-0.05662 0.1349533,-0.177808 0.2197418,-0.242526 0.053206,-0.04061 0.1435581,-0.08882 0.1664761,-0.08882 0.021951,0 0.021447,-0.01396 -6.496e-4,-0.01979 -0.019915,-0.0053 -0.020381,-0.0062 -0.00586,-0.01213 0.050852,-0.02073 -0.2252123,0.0018 -0.3076758,0.0251 -0.06034,0.01705 -0.1264053,0.04053 -0.1560286,0.05545 -0.062456,0.03146 -0.1805148,0.167091 -0.2106037,0.241959 -0.00912,0.0227 -0.013392,0.02567 -0.031034,0.02163 -0.011249,-0.0026 -0.041758,-0.0085 -0.067789,-0.01318 -0.093506,-0.01677 -0.1143419,-0.02438 -0.1310293,-0.04781 -0.03635,-0.05105 -0.025188,-0.200281 0.021956,-0.293477 0.035798,-0.07077 0.15025,-0.168876 0.2481688,-0.21273 0.069759,-0.03124 0.085681,-0.03693 0.1033032,-0.03693 0.00925,0 0.027721,-0.0034 0.041043,-0.0074 0.025702,-0.0079 0.062784,-0.01497 0.1898997,-0.03636 0.043387,-0.0073 0.098416,-0.01857 0.1222804,-0.02503 0.045617,-0.01235 0.079429,-0.01964 0.1480831,-0.03191 0.051442,-0.0092 0.055637,-0.01323 0.040946,-0.03941 -0.03256,-0.05801 -0.2107487,-0.10459 -0.398999,-0.104298 -0.1444963,1.62e-4 -0.2569387,0.0239 -0.3935452,0.08287 -0.067142,0.02898 -0.1262716,0.0511 -0.1366157,0.0511 -0.00954,0 -0.010745,-0.0093 -0.00673,-0.05219 0.00265,-0.0287 0.00792,-0.05622 0.011655,-0.06114 0.00374,-0.0049 0.011573,-0.02138 0.017441,-0.03657 0.017117,-0.04433 0.066746,-0.113173 0.1086191,-0.150667 0.1195424,-0.107034 0.3865475,-0.178567 0.5577472,-0.14942 0.180419,0.03071 0.3219721,0.104257 0.4507224,0.234174 0.035435,0.03575 0.069229,0.07586 0.075101,0.08913 0.00588,0.01326 0.01362,0.02412 0.017214,0.02412 0.00363,0 0.035565,-0.0067 0.071047,-0.01496 0.093707,-0.02173 0.1451566,-0.0312 0.1986252,-0.03652 0.026032,-0.0026 0.0757359,-0.008 0.11044821,-0.01191 0.0347096,-0.004 0.11103874,-0.01079 0.16961524,-0.0152 0.12721294,-0.0096 0.30417611,-0.0287 0.35895307,-0.03883 0.0216962,-0.004 0.0536451,-0.0096 0.0710031,-0.01237 0.0173548,-0.0028 0.0564063,-0.01227 0.0867799,-0.02106 0.17396858,-0.05036 0.19961698,-0.06343 0.27560782,-0.140406 0.04302431,-0.04359 0.04586084,-0.04857 0.03492071,-0.0615 -0.02058108,-0.02432 -0.10547938,-0.162362 -0.12268098,-0.199464 -0.0090563,-0.01953 -0.0264003,-0.07455 -0.03854758,-0.122283 -0.0207976,-0.0817 -0.0220914,-0.0967 -0.0221726,-0.256395 -7.633e-5,-0.151964 0.001732,-0.176079 0.0175551,-0.231726 0.009706,-0.03416 0.0233418,-0.07321 0.03031947,-0.08678 0.06393451,-0.124438 0.21618578,-0.275071 0.32595839,-0.32249 0.0151949,-0.0066 0.0410539,-0.0179 0.057483,-0.0252 0.0652034,-0.02898 0.11936863,-0.03872 0.21863471,-0.03929 0.16321413,-9.74e-4 0.32425918,0.04643 0.44967925,0.132313 0.0621162,0.04254 0.17539329,0.162907 0.20379649,0.216559 0.042342,0.07998 0.052433,0.120756 0.068002,0.274735 0.010485,0.1037 0.0053,0.189006 -0.017642,0.290949 -0.019883,0.08833 -0.1248435,0.278181 -0.1924071,0.348035 l -0.0314075,0.03247 0.008813,0.05036 c 0.0163859,0.0936 0.0245598,0.137016 0.03216,0.170786 0.031159,0.138522 -0.020522,0.251826 -0.18264542,0.400442 -0.13064276,0.119756 -0.33128121,0.189008 -0.60658535,0.20937 -0.0585765,0.0043 -0.27868253,0.0111 -0.48912379,0.01506 -0.46206471,0.0087 -0.58210241,0.01798 -0.82835484,0.06426 -0.1022185,0.01921 -0.2785943,0.071 -0.2954473,0.08675 -0.00411,0.0038 -0.012223,0.007 -0.017999,0.007 -0.013993,0 -0.098766,0.0575 -0.156702,0.106289 -0.108619,0.09147 -0.1712565,0.173308 -0.1860038,0.243031 -0.019482,0.09208 -0.016527,0.128099 0.01867,0.227688 0.019136,0.05414 0.012824,0.07098 -0.03157,0.08429 -0.038569,0.01156 -0.13827,0.01068 -0.1750837,-0.0016 z M 2.986162,18.394724 c -0.03195,-0.01886 -0.093291,-0.0309 -0.1578386,-0.03098 -0.085529,-8.9e-5 -0.082272,0.01357 -0.039488,-0.165757 0.018788,-0.07875 0.062683,-0.162302 0.1181505,-0.224899 0.04535,-0.05118 0.1360987,-0.105634 0.2064321,-0.123875 0.049576,-0.01286 0.1688227,-0.02933 0.2143552,-0.02963 0.044511,-3.25e-4 0.077183,-0.01471 0.067781,-0.02991 -0.00284,-0.0046 -0.039297,-0.01451 -0.081012,-0.02201 -0.1245703,-0.02243 -0.2973845,-0.0092 -0.4171893,0.03194 -0.094626,0.0325 -0.2088813,0.134038 -0.2850346,0.253331 l -0.038419,0.06018 -0.1054861,-0.0043 c -0.05802,-0.0023 -0.1085815,-0.0074 -0.1123617,-0.01115 -0.00963,-0.0096 0.00669,-0.128916 0.026739,-0.19554 0.052256,-0.173609 0.2513538,-0.343668 0.4553942,-0.388978 0.019526,-0.0043 0.053981,-0.01206 0.076568,-0.01718 0.022587,-0.0051 0.090038,-0.0097 0.1498928,-0.01023 0.1024488,-8.12e-4 0.1209113,0.0017 0.187717,0.02589 0.00868,0.0031 0.035304,0.01203 0.059168,0.01975 0.05146,0.01665 0.1212399,0.0447 0.2183608,0.08777 0.047463,0.02105 0.1131748,0.03388 0.1750824,0.03418 0.054107,3.25e-4 0.063719,-0.0025 0.1380591,-0.03909 0.043947,-0.02165 0.099428,-0.05528 0.123293,-0.07473 0.023867,-0.01944 0.075341,-0.0599 0.1143917,-0.08991 0.039051,-0.03 0.086977,-0.06905 0.1065025,-0.08677 0.041189,-0.03738 0.035982,-0.04805 -0.023667,-0.04847 C 4.132654,17.314194 4.0072748,17.300446 3.8006547,17.274726 3.654967,17.256596 3.5425257,17.221446 3.4043514,17.15084 3.1992233,17.046028 3.0606999,16.890264 3.0130526,16.710842 c -0.017232,-0.06489 -0.020424,-0.09756 -0.020424,-0.209062 0,-0.122579 0.00298,-0.147049 0.028321,-0.232729 0.049548,-0.167503 0.099335,-0.252892 0.2092964,-0.358953 0.081901,-0.07899 0.08438,-0.08111 0.1512567,-0.128862 0.1074572,-0.07673 0.2291646,-0.130088 0.3382682,-0.148296 0.02496,-0.0042 0.068457,-0.01157 0.096661,-0.01647 0.069479,-0.01206 0.3076838,-0.01175 0.3668427,4.86e-4 0.026032,0.0054 0.06331,0.01265 0.082836,0.01615 0.070217,0.01261 0.185509,0.048 0.2524506,0.07752 0.2112099,0.09313 0.3342617,0.174339 0.5436165,0.358764 0.032945,0.02902 0.079425,0.07641 0.1032898,0.105312 0.023867,0.0289 0.052595,0.06373 0.063849,0.0774 0.093638,0.113772 0.1967301,0.306537 0.2348002,0.439035 0.010334,0.03597 0.019683,0.110448 0.013863,0.110448 -0.00249,0 -0.032111,-0.0252 -0.065825,-0.05601 -0.050576,-0.04622 -0.1589474,-0.125437 -0.1715932,-0.125437 -0.00184,0 -0.019358,-0.01084 -0.038986,-0.02408 -0.08776,-0.05923 -0.2232078,-0.108921 -0.3674524,-0.134811 -0.1285765,-0.02308 -0.7100185,-0.05787 -0.7100185,-0.04248 0,0.0032 0.011222,0.02942 0.024944,0.05824 0.02522,0.05299 0.1036563,0.143685 0.1536149,0.177619 0.013593,0.0092 0.049098,0.03653 0.078891,0.06065 0.029794,0.02413 0.071922,0.05598 0.093617,0.0708 0.058083,0.03966 0.20487,0.11924 0.2682291,0.145421 0.030374,0.01255 0.058597,0.02573 0.062719,0.02929 0.00411,0.0036 0.016727,0.0065 0.028008,0.0065 0.011281,0 0.02469,0.0042 0.0298,0.0093 0.00599,0.006 0.040837,0.0094 0.098219,0.0095 0.076174,1.63e-4 0.094064,-0.0023 0.1247169,-0.01725 0.019683,-0.0096 0.040984,-0.0251 0.047333,-0.03438 0.00635,-0.0093 0.019423,-0.02611 0.029047,-0.0374 l 0.017501,-0.02053 2.431e-4,0.02123 c 1.391e-4,0.01167 0.00341,0.02319 0.00731,0.02559 0.013712,0.0085 0.033313,0.183093 0.02751,0.245077 -0.0053,0.05642 -0.033573,0.141244 -0.064055,0.192067 -0.012109,0.0202 -0.027294,0.04729 -0.033741,0.06022 -0.028614,0.05738 -0.2063164,0.217575 -0.291631,0.262898 -0.010767,0.0057 -0.033843,0.02106 -0.051279,0.03409 -0.017436,0.01303 -0.056796,0.0421 -0.08746,0.06461 -0.030666,0.0225 -0.091016,0.06751 -0.1341143,0.100014 -0.1035138,0.07807 -0.1281797,0.09559 -0.2676996,0.190188 -0.065085,0.04413 -0.1337797,0.09435 -0.1526546,0.111617 l -0.03432,0.03139 -0.2496892,-0.0068 c -0.3357895,-0.0092 -0.5401014,-0.0079 -0.5919957,0.0037 -0.1036917,0.02316 -0.1793193,0.08036 -0.2259067,0.170847 -0.00954,0.01852 -0.026002,0.02269 -0.045107,0.01141 z M -0.3434552,16.84821 c -0.0788864,-0.01857 -0.22217821,-0.148221 -0.30870319,-0.279318 -0.0680507,-0.103106 -0.12217647,-0.200067 -0.13122035,-0.235066 -0.0147889,-0.05722 -0.0216746,-0.08121 -0.0270769,-0.0943 -0.004926,-0.01188 -9.7438e-4,-0.01382 0.0281163,-0.01382 0.0185944,0 0.0447132,-0.0032 0.058039,-0.0072 0.0916491,-0.02709 0.12031974,-0.03623 0.13073045,-0.04165 0.0618391,-0.0322 0.12364237,-0.05375 0.15420436,-0.05375 0.050749,0 0.0547374,0.01239 0.0442964,0.137438 -0.008634,0.103344 0.00314,0.296146 0.0235854,0.387186 0.0142043,0.06318 0.0450488,0.148072 0.0624036,0.171758 0.008813,0.01203 0.0138795,0.02534 0.0112487,0.02958 -0.005359,0.0087 -0.00471,0.0087 -0.0456172,-9.74e-4 z m 7.80326,-0.19451 c -0.00864,-0.0211 -0.013132,-0.06467 -0.029459,-0.28598 -0.010669,-0.1446 -0.022075,-0.255418 -0.03694,-0.358955 -0.018535,-0.129076 -0.024397,-0.157719 -0.057345,-0.280061 -0.00876,-0.03255 -0.018324,-0.06804 -0.021247,-0.07889 -0.031916,-0.118527 -0.1056786,-0.344433 -0.1309686,-0.401119 -0.00901,-0.0202 -0.020993,-0.04738 -0.026622,-0.06039 -0.1821274,-0.421172 -0.3095807,-0.604791 -0.5572725,-0.80285 -0.020256,-0.0162 -0.039446,-0.02945 -0.042645,-0.02945 -0.00319,0 -0.016803,-0.0082 -0.030227,-0.01818 -0.042299,-0.03151 -0.098304,-0.06116 -0.1529674,-0.08099 -0.1377769,-0.04997 -0.2758677,-0.0074 -0.431191,0.132803 -0.022487,0.0203 -0.030238,0.0086 -0.066479,-0.100685 -0.028127,-0.08479 -0.063493,-0.183782 -0.08633,-0.241649 -0.00449,-0.01141 -0.020478,-0.04692 -0.0355,-0.07889 -0.015016,-0.03198 -0.036886,-0.07944 -0.048589,-0.105471 -0.047106,-0.104783 -0.1837097,-0.375045 -0.2228094,-0.440825 -0.022898,-0.03852 -0.041633,-0.07143 -0.041633,-0.07313 0,-0.0083 -0.1687886,-0.271788 -0.2455135,-0.383195 -0.075039,-0.108961 -0.1730532,-0.242087 -0.1999163,-0.271532 -0.00449,-0.0049 -0.022394,-0.0276 -0.039749,-0.05037 C 4.9085591,12.581151 4.8365431,12.496506 4.778679,12.435008 4.750103,12.404638 4.704034,12.354938 4.6763079,12.324562 4.5442257,12.179869 4.3094937,11.957083 4.2108274,11.882771 c -0.023044,-0.01736 -0.054647,-0.0424 -0.070229,-0.05565 -0.015579,-0.01325 -0.047858,-0.03799 -0.07172,-0.05496 -0.023867,-0.01698 -0.045162,-0.03276 -0.047333,-0.03507 -0.02908,-0.031 -0.3568968,-0.246362 -0.4457341,-0.292829 C 3.42276,11.364202 3.2279942,11.26634 3.1695209,11.240114 c -0.032543,-0.01459 -0.092426,-0.04218 -0.1330743,-0.06129 -0.040649,-0.01911 -0.1058567,-0.04519 -0.1449077,-0.05795 -0.039051,-0.01276 -0.08212,-0.02822 -0.095709,-0.03435 -0.027635,-0.01247 -0.097263,-0.03619 -0.162767,-0.05545 -0.023865,-0.007 -0.05049,-0.01581 -0.059169,-0.01954 -0.064395,-0.02767 -0.082803,-0.03704 -0.1121944,-0.0571 -0.039784,-0.02716 -0.081088,-0.08434 -0.081088,-0.112256 0,-0.02682 0.027022,-0.03977 0.1065023,-0.05103 0.04391,-0.0062 0.077517,-0.0065 0.110448,-0.0011 0.026033,0.0043 0.063095,0.0079 0.08236,0.0079 0.038029,4.9e-5 0.095233,0.0095 0.1937581,0.03191 0.034712,0.0079 0.091513,0.0203 0.1262255,0.02755 0.034712,0.0072 0.071988,0.01595 0.082835,0.01935 0.010847,0.0034 0.033923,0.0099 0.051279,0.01443 0.03231,0.0084 0.1052396,0.02891 0.1893382,0.05313 0.059847,0.01724 0.1486276,0.04601 0.1894539,0.0614 0.017293,0.0065 0.054516,0.01899 0.08272,0.02772 0.1816197,0.05621 0.5347218,0.197963 0.7100187,0.285041 0.1661341,0.08252 0.3907731,0.205607 0.4891238,0.267996 0.096109,0.06097 0.3468129,0.23003 0.4073192,0.274679 0.1143511,0.08438 0.1928179,0.144383 0.2393175,0.183006 0.023715,0.0197 0.051821,0.04292 0.062451,0.05159 0.054367,0.04437 0.1619041,0.138913 0.2178807,0.191544 0.1755232,0.16503 0.48764,0.482363 0.5345743,0.543508 0.00941,0.01227 0.019369,0.02408 0.022124,0.02624 0.00276,0.0022 0.049942,0.06075 0.1048634,0.13017 0.054922,0.06942 0.113348,0.142201 0.1298351,0.161727 0.016489,0.01953 0.057943,0.07633 0.092122,0.126225 0.034179,0.0499 0.077464,0.112897 0.096188,0.139995 0.018724,0.0271 0.034044,0.0524 0.034044,0.05623 0,0.0038 0.00569,0.01169 0.012656,0.01746 0.00696,0.0058 0.015828,0.01775 0.019704,0.02661 0.0039,0.0089 0.021826,0.03918 0.039885,0.06738 0.1279686,0.199854 0.2983802,0.524798 0.4003426,0.763378 0.026449,0.06189 0.048091,0.114293 0.048091,0.11645 0,0.0022 0.00683,0.01897 0.015184,0.03737 0.032063,0.07062 0.1548009,0.436234 0.1846949,0.550179 0.02253,0.08588 0.04834,0.20758 0.06107,0.287951 0.00482,0.03037 0.012017,0.07475 0.016012,0.09861 0.00401,0.02387 0.010437,0.07002 0.014313,0.10256 0.0039,0.03254 0.011806,0.09822 0.01762,0.145947 0.013522,0.110999 0.014091,0.553717 8.661e-4,0.69424 -0.013809,0.146981 -0.030996,0.245853 -0.048335,0.278091 -0.013966,0.02596 -0.04637,0.02375 -0.057717,-0.004 z m -8.42464291,-0.132721 c -0.005662,-0.0068 -0.0239589,-0.01938 -0.0406533,-0.02789 -0.016694,-0.0085 -0.036458,-0.02053 -0.043918,-0.0267 -0.047209,-0.03902 -0.1454896,-0.115775 -0.1863513,-0.145523 -0.1113246,-0.08105 -0.2336716,-0.22076 -0.3088656,-0.35271 -0.033502,-0.05879 -0.035083,-0.06033 -0.035083,-0.03414 0,0.02672 -0.016505,0.114134 -0.027521,0.145756 -0.036442,0.104584 -0.1155772,0.186174 -0.2072555,0.213686 -0.058637,0.0176 -0.1797792,0.01962 -0.2116847,0.0035 -0.057049,-0.02876 -0.1656442,-0.109265 -0.1981046,-0.146863 -0.035651,-0.0413 -0.08123,-0.113816 -0.08123,-0.129247 0,-0.01676 0.021891,-0.0071 0.062425,0.02747 0.072303,0.06172 0.1052834,0.07712 0.1651001,0.07712 0.079702,0 0.1375116,-0.03418 0.1640483,-0.09699 0.01375,-0.03256 0.011265,-0.163871 -0.00417,-0.220675 -0.035982,-0.132353 -0.1470367,-0.252807 -0.2730095,-0.296123 -0.00868,-0.003 -0.056604,-0.01564 -0.1065024,-0.02814 -0.1373038,-0.03438 -0.2651712,-0.02996 -0.3462602,0.01198 -0.013522,0.007 -0.06274,0.04457 -0.1093671,0.08351 -0.094949,0.07929 -0.1026786,0.08219 -0.2059554,0.07725 -0.055834,-0.0027 -0.074004,-0.0068 -0.0943,-0.02121 -0.021934,-0.01561 -0.025139,-0.02247 -0.025139,-0.05369 0,-0.08201 0.107557,-0.228001 0.2139767,-0.290445 0.054655,-0.03207 0.1503929,-0.07746 0.191227,-0.09066 0.021117,-0.0068 0.070016,-0.0089 0.1592765,-0.0067 0.1381331,0.0034 0.1449586,6.5e-4 0.082043,-0.03213 -0.058437,-0.03046 -0.153735,-0.04918 -0.2557121,-0.05022 -0.088779,-9.74e-4 -0.097659,3.25e-4 -0.1362086,0.02036 -0.069688,0.03605 -0.1619783,0.09923 -0.2015046,0.137946 -0.036837,0.03608 -0.038829,0.03691 -0.09467,0.03972 -0.049163,0.0025 -0.060037,4.88e-4 -0.078737,-0.01424 -0.018297,-0.01442 -0.021696,-0.02304 -0.021696,-0.05506 0,-0.04853 0.019623,-0.109944 0.054309,-0.169949 0.032079,-0.0555 0.1566598,-0.18253 0.202086,-0.206066 0.1303488,-0.06753 0.1222787,-0.06391 0.1568979,-0.07041 0.015763,-0.003 0.030617,-0.0085 0.032994,-0.01237 0.00597,-0.0097 0.1433179,-0.0088 0.1493395,9.74e-4 0.00265,0.0043 0.01461,0.0079 0.026498,0.0079 0.011898,0 0.024998,0.0029 0.029118,0.0065 0.00411,0.0036 0.023472,0.01128 0.042997,0.01711 0.0548,0.01635 0.136514,0.05875 0.2045208,0.106129 0.059203,0.04125 0.1289322,0.08325 0.1382018,0.08325 0.012288,0 0.00162,-0.0481 -0.018567,-0.08317 -0.060732,-0.105879 -0.2023832,-0.20541 -0.3596547,-0.252709 -0.061195,-0.0184 -0.085715,-0.02145 -0.1775055,-0.02204 -0.1156092,-8.12e-4 -0.160998,0.0093 -0.2642834,0.05817 -0.06931,0.03283 -0.2115455,0.08688 -0.2162458,0.08218 -0.00222,-0.0022 3.247e-4,-0.01094 0.00552,-0.01936 0.00525,-0.0084 0.00956,-0.01926 0.00956,-0.02409 0,-0.02337 0.071383,-0.143156 0.1124316,-0.188666 0.025366,-0.02812 0.083712,-0.07439 0.1183233,-0.09383 0.016272,-0.0091 0.041124,-0.02314 0.055225,-0.03112 0.1848887,-0.104577 0.4939719,-0.07205 0.6855691,0.07214 0.078649,0.05919 0.086869,0.0676 0.1936408,0.198088 0.019747,0.02413 0.061652,0.108272 0.071058,0.142672 0.015027,0.05499 0.026005,0.106231 0.026005,0.121476 0,0.02067 0.045249,0.05783 0.1586757,0.130284 0.113571,0.07255 0.369963,0.243673 0.4330065,0.289006 0.023867,0.01716 0.068823,0.04378 0.099911,0.05916 0.068838,0.03405 0.078137,0.04358 0.06553,0.06713 -0.01094,0.02043 -0.00558,0.251038 0.00764,0.328942 0.0046,0.02712 0.011801,0.06972 0.015985,0.09467 0.019054,0.113321 0.02489,0.138035 0.054704,0.231838 0.031629,0.0995 0.14341031,0.345316 0.16034883,0.352613 0.008374,0.0036 0.007725,0.0171 -8.1199e-4,0.0171 -0.003789,0 -0.0115572,-0.0056 -0.0172249,-0.01242 z m 0.0736729,-0.581477 c -0.0227139,-0.03021 -0.0548933,-0.217439 -0.0628892,-0.365936 -0.004493,-0.08328 -0.002815,-0.08555 0.0646409,-0.08861 0.0344389,-0.0016 0.1394885,-0.02066 0.22483989,-0.04088 0.0151949,-0.0036 0.0420878,-0.0097 0.0597761,-0.01349 0.0176904,-0.0038 0.0356082,-0.0091 0.0398197,-0.01167 0.004222,-0.0026 0.0125479,-0.0017 0.0185349,0.002 0.009202,0.0057 0.008878,0.02675 -0.002165,0.137553 -0.007319,0.0735 -0.0180206,0.140333 -0.0244082,0.152512 -0.0144804,0.02757 -0.0606996,0.07115 -0.11129048,0.104908 -0.0216962,0.01448 -0.0619863,0.04349 -0.0895374,0.06448 -0.0675603,0.05147 -0.10783468,0.07177 -0.11733164,0.05914 z m -0.007449,-0.910692 c 0.005825,-0.05819 0.013165,-0.09296 0.046256,-0.219187 l 0.0268875,-0.102558 0.0942523,6.5e-4 c 0.12843037,8.12e-4 0.368299,0.01048 0.3728748,0.01506 0.002057,0.0021 -0.007773,0.03131 -0.0218153,0.06504 -0.0411134,0.09871 -0.0505703,0.114866 -0.095053,0.162367 -0.0403502,0.04309 -0.0575751,0.05245 -0.14597626,0.07932 -0.082707,0.02514 -0.13546648,0.03503 -0.2159438,0.04051 l -0.0660527,0.0045 z M 1.5516616,14.832098 c 0.00476,-0.008 0.033372,-0.04831 0.063556,-0.08953 0.1091366,-0.149056 0.2460155,-0.402763 0.2889891,-0.535644 0.00646,-0.01998 0.014592,-0.04341 0.018057,-0.0521 0.00348,-0.0087 0.010518,-0.0282 0.015663,-0.04339 0.00515,-0.01519 0.024785,-0.07199 0.043644,-0.126226 0.037,-0.1064 0.05651,-0.181435 0.084103,-0.323452 0.027783,-0.142995 0.03148,-0.166987 0.05654,-0.366844 0.012822,-0.102254 0.012822,-0.454426 -6.5e-6,-0.571959 -0.00545,-0.0499 -0.013374,-0.122675 -0.017616,-0.161725 -0.020264,-0.186472 -0.039028,-0.289532 -0.08043,-0.441791 -0.013277,-0.04881 -0.020466,-0.07614 -0.029075,-0.110447 -0.00435,-0.01735 -0.02057,-0.07159 -0.036035,-0.120529 -0.023454,-0.07422 -0.035863,-0.143756 -0.02565,-0.143756 0.0013,0 0.019995,0.0085 0.041417,0.01891 0.057358,0.02784 0.1423828,0.103949 0.1992113,0.178322 0.011605,0.01519 0.023202,0.02939 0.025773,0.03156 0.01094,0.0092 0.095097,0.12779 0.137197,0.193282 0.041432,0.06445 0.1260121,0.18415 0.1906818,0.269855 0.013764,0.01825 0.043672,0.06795 0.066444,0.110447 0.106775,0.199243 0.096996,0.185963 0.1318001,0.179002 0.015891,-0.0032 0.026971,-0.01113 0.030396,-0.02182 0.00886,-0.02762 0.00325,-0.152941 -0.00899,-0.200907 -0.023892,-0.09366 -0.1845026,-0.385636 -0.2635029,-0.479018 -0.011216,-0.01326 -0.029262,-0.03616 -0.040109,-0.05091 C 2.401752,11.916398 2.3317226,11.839039 2.284253,11.797283 2.1710148,11.697672 1.9460918,11.539707 1.8520372,11.493732 c -0.06308,-0.03083 -0.085251,-0.04716 -0.1400213,-0.103146 -0.071062,-0.07264 -0.1069388,-0.125906 -0.1030792,-0.153051 0.00238,-0.0169 0.0053,-0.01742 0.093208,-0.01662 0.090401,8.12e-4 0.1378656,0.0091 0.2563951,0.04457 0.077059,0.02308 0.3122515,0.09954 0.3313426,0.107728 0.023251,0.01 0.1141276,0.04484 0.1459471,0.05601 0.032831,0.01152 0.09384,0.03711 0.110388,0.04631 0.00648,0.0036 0.014852,0.0186 0.018614,0.03333 0.010096,0.03956 0.048241,0.15878 0.076713,0.239794 0.029168,0.08299 0.075701,0.237038 0.086978,0.287952 0.00434,0.01952 0.011459,0.0497 0.015858,0.06706 0.00847,0.03344 0.018002,0.08 0.030267,0.147921 0.00775,0.04295 0.016075,0.121006 0.033006,0.309648 0.012964,0.144444 0.01272,0.608306 -3.733e-4,0.698184 -0.025661,0.176227 -0.033797,0.226639 -0.040108,0.248507 -0.0068,0.02358 -0.02026,0.07337 -0.031979,0.118336 -0.010274,0.03942 -0.065157,0.21218 -0.071428,0.224839 -0.00323,0.0065 -0.027837,0.05621 -0.054694,0.110448 -0.059963,0.121094 -0.1239248,0.231151 -0.1588331,0.273298 -0.014446,0.01744 -0.035128,0.04361 -0.045975,0.05817 -0.036337,0.04877 -0.1135904,0.13764 -0.1457053,0.167619 -0.017489,0.01633 -0.0602,0.04621 -0.094912,0.06641 -0.034713,0.0202 -0.082639,0.04878 -0.1065038,0.06352 -0.023865,0.01474 -0.050313,0.031 -0.058776,0.03614 -0.00846,0.0051 -0.03239,0.02089 -0.053171,0.035 -0.020781,0.01411 -0.039842,0.02564 -0.04236,0.02564 -0.00252,0 -0.019786,0.01047 -0.038374,0.02325 -0.063672,0.04381 -0.231656,0.118287 -0.295165,0.130869 -0.024067,0.0048 -0.025588,0.004 -0.017653,-0.0094 z m 4.1936511,-0.03437 c -0.030374,-0.02584 -0.071199,-0.05828 -0.090725,-0.07207 -0.019525,-0.0138 -0.05325,-0.03999 -0.074946,-0.05821 -0.039165,-0.0329 -0.144617,-0.103949 -0.2051169,-0.138198 -0.091217,-0.05164 -0.4104544,-0.208522 -0.4873639,-0.239504 -0.090841,-0.03659 -0.2909375,-0.107299 -0.3036597,-0.107299 -0.0039,0 -0.028111,-0.0066 -0.05378,-0.01467 -0.025664,-0.0081 -0.067966,-0.0191 -0.093999,-0.02451 -0.096167,-0.02 -0.093694,-0.01711 -0.1147658,-0.134381 -0.00509,-0.0282 -0.01238,-0.05749 -0.016251,-0.06508 -0.017333,-0.03399 -0.02149,-0.04261 -0.029518,-0.06114 -0.018578,-0.04292 -0.040069,-0.127613 -0.060046,-0.236673 -0.011525,-0.06292 -0.023883,-0.123267 -0.027472,-0.134114 -0.00357,-0.01084 -0.010989,-0.0357 -0.016456,-0.05522 -0.00547,-0.01952 -0.014318,-0.0497 -0.019666,-0.06706 -0.00536,-0.01736 -0.017625,-0.05818 -0.027277,-0.09073 -0.00965,-0.03254 -0.020245,-0.06627 -0.023548,-0.07494 -0.0033,-0.0087 -0.010328,-0.02998 -0.015628,-0.04733 -0.015503,-0.05081 -0.048562,-0.1383 -0.071537,-0.189337 -0.01172,-0.02603 -0.025821,-0.06154 -0.031337,-0.07889 -0.014653,-0.04615 -0.121387,-0.287161 -0.1676879,-0.378676 -0.084608,-0.167229 -0.2277429,-0.388357 -0.3497994,-0.540403 -0.080875,-0.100746 -0.2111553,-0.22782 -0.259709,-0.253319 -0.017356,-0.0091 -0.038885,-0.0233 -0.047843,-0.03152 -0.00896,-0.0082 -0.022553,-0.01495 -0.030211,-0.01495 -0.011521,0 -0.013024,0.0044 -0.0087,0.02564 0.020056,0.09853 0.054509,0.17349 0.1317348,0.286611 0.088113,0.12907 0.1236924,0.189255 0.2001743,0.338599 0.031109,0.06075 0.067556,0.131748 0.080995,0.157783 0.013438,0.02603 0.03734,0.07573 0.053116,0.110447 0.015775,0.03471 0.037186,0.08175 0.047579,0.104531 0.042633,0.09345 0.057612,0.128431 0.09205,0.214977 0.019855,0.0499 0.045546,0.117351 0.05709,0.149893 0.011544,0.03254 0.027788,0.07781 0.036098,0.100586 0.037792,0.103605 0.046104,0.127927 0.06268,0.183422 0.00972,0.03254 0.024654,0.08047 0.033186,0.106502 0.00853,0.02603 0.018394,0.05799 0.021917,0.071 0.00352,0.01302 0.011695,0.04319 0.018161,0.06706 0.020722,0.07648 0.046039,0.220459 0.041357,0.235201 -0.00249,0.0079 0.00211,0.03536 0.010215,0.06112 0.016548,0.05259 0.030866,0.11984 0.03432,0.16124 0.00211,0.02524 5.955e-4,0.02744 -0.017403,0.02562 -0.2703654,-0.02735 -0.418072,-0.02622 -0.6153351,0.0047 -0.046537,0.0073 -0.2181965,0.03535 -0.2958411,0.04835 -0.026034,0.0043 -0.069838,0.01023 -0.097341,0.01305 -0.03454,0.0035 -0.0565,0.01053 -0.071002,0.0226 -0.011547,0.0096 -0.049396,0.03053 -0.084108,0.04648 -0.034712,0.01595 -0.069671,0.0327 -0.077687,0.0372 -0.035775,0.02011 -0.026973,-0.01 0.049796,-0.170403 0.029075,-0.06075 0.057366,-0.122873 0.062868,-0.13806 0.0055,-0.01519 0.012867,-0.03471 0.016364,-0.04339 0.029598,-0.07344 0.049993,-0.134578 0.071055,-0.213006 0.015848,-0.05901 0.020069,-0.07691 0.0386,-0.1637 0.034541,-0.161772 0.047329,-0.262691 0.05623,-0.443761 0.011255,-0.228958 0.00365,-0.4018 -0.02828,-0.642961 C 3.018571,12.233194 2.962693,11.983066 2.912034,11.843319 2.901025,11.812949 2.883161,11.763249 2.872339,11.732871 2.861516,11.702501 2.831345,11.624397 2.805291,11.559312 2.779237,11.494222 2.755122,11.433876 2.751703,11.425197 c -0.00343,-0.0087 -0.010209,-0.02571 -0.015095,-0.03784 -0.00489,-0.01214 -0.00888,-0.03586 -0.00888,-0.05272 0,-0.03824 0.015696,-0.04493 0.073431,-0.03128 0.038606,0.0091 0.175271,0.07596 0.2894663,0.141551 0.028203,0.0162 0.07258,0.03994 0.098614,0.05276 0.026034,0.01282 0.06331,0.03231 0.082836,0.04331 0.019525,0.01101 0.072114,0.04015 0.1168642,0.06476 0.08632,0.04748 0.3574039,0.227321 0.4629844,0.307143 0.056793,0.04294 0.1333337,0.104553 0.2631272,0.211815 0.090869,0.07509 0.3798091,0.3692 0.4942263,0.503061 0.034709,0.04061 0.077313,0.09036 0.094669,0.110559 0.017355,0.0202 0.045103,0.05251 0.061665,0.07182 0.032652,0.03807 0.138002,0.180315 0.1522155,0.205535 0.00482,0.0086 0.015574,0.02341 0.023899,0.033 0.00833,0.0096 0.027277,0.03521 0.042109,0.0569 0.014832,0.0217 0.029112,0.04122 0.031732,0.04339 0.00748,0.0062 0.1106273,0.165689 0.1326538,0.205116 0.010908,0.01952 0.026882,0.04792 0.0355,0.06311 0.00862,0.01519 0.028105,0.05069 0.043317,0.07889 0.015206,0.0282 0.03825,0.07081 0.051209,0.09467 0.060856,0.112079 0.075833,0.142941 0.092213,0.190016 0.00968,0.02783 0.037503,0.08788 0.061822,0.133436 0.064032,0.119959 0.1482904,0.29454 0.1827629,0.378676 0.00978,0.02387 0.02404,0.05759 0.031695,0.07495 0.00765,0.01736 0.026963,0.07061 0.042905,0.118336 0.028896,0.08651 0.032782,0.09718 0.051723,0.142003 0.019791,0.04683 0.02325,0.0561 0.043549,0.116473 0.011325,0.03369 0.019471,0.06998 0.018107,0.08066 -0.00238,0.01855 -0.00493,0.01734 -0.05771,-0.02758 z m -6.24422,-0.496777 c -0.0685439,-0.0089 -0.0804183,-0.01442 -0.0742537,-0.03434 0.011135,-0.03598 0.0436252,-0.09235 0.0832624,-0.144433 0.0226543,-0.02977 0.04323,-0.0559 0.0457201,-0.05808 0.0126615,-0.01104 0.0487677,-0.06455 0.0555137,-0.0823 0.009219,-0.02425 0.0120607,-0.02454 0.052059,-0.0052 0.050933,0.02461 0.20001485,0.06973 0.28145898,0.08518 0.02645442,0.005 0.02741257,0.01776 0.0035186,0.04708 -0.009982,0.01227 -0.03114228,0.04221 -0.04701385,0.06655 -0.0484267,0.07425 -0.09260836,0.117598 -0.12810774,0.125689 -0.0363444,0.0083 -0.20813198,0.0082 -0.27217367,-1.52e-4 z M -1.339096,13.66109 c -0.013019,-0.0034 -0.036095,-0.0098 -0.051279,-0.01416 -0.015189,-0.0044 -0.040036,-0.01126 -0.055225,-0.01531 -0.1426964,-0.03799 -0.253878,-0.125259 -0.3552006,-0.278815 -0.065924,-0.09991 -0.1029005,-0.19224 -0.1195457,-0.298517 -0.00821,-0.05242 -0.00493,-0.198552 0.00493,-0.222168 0.00314,-0.0075 0.028116,-0.02 0.058173,-0.02916 0.1227492,-0.03741 0.2543956,-0.08052 0.31696,-0.103783 0.03688,-0.01372 0.077706,-0.02847 0.090724,-0.03279 0.032133,-0.01066 0.066314,-0.02476 0.1498928,-0.06183 0.063697,-0.02825 0.067057,-0.03338 0.067057,-0.102428 0,-0.125331 0.088338,-0.311685 0.1950206,-0.411406 0.0492982,-0.04608 0.14122014,-0.10685 0.21521188,-0.142277 0.1944165,-0.09309 0.24519525,-0.11697 0.24870302,-0.11697 0.002165,0 0.0189679,-0.0067 0.0373621,-0.01487 0.0349803,-0.01555 0.0802906,-0.03271 0.17939155,-0.06793 0.0630072,-0.02239 0.0749423,-0.02703 0.11834607,-0.04601 0.0151895,-0.0066 0.0552571,-0.0211 0.0890324,-0.03213 0.0337731,-0.01102 0.07282249,-0.02524 0.0867702,-0.0316 0.01394447,-0.0063 0.05592131,-0.02559 0.09327202,-0.04274 0.03735125,-0.01715 0.07640333,-0.03384 0.08677994,-0.03706 0.0177391,-0.0055 0.0939736,-0.04433 0.23976307,-0.122049 0.0347096,-0.0185 0.1039377,-0.0607 0.15383734,-0.09378 0.0498991,-0.03308 0.0945154,-0.06191 0.0991492,-0.06408 0.0164291,-0.0077 0.18990457,-0.14167 0.26374798,-0.203699 C 1.0074802,10.963217 1.0943965,10.872324 1.1876025,10.747341 1.3041953,10.590996 1.3029085,10.592103 1.326494,10.6281 c 0.021631,0.03301 0.016992,0.07747 -0.020597,0.197504 -0.039684,0.12672 -0.1506365,0.311248 -0.2856536,0.475079 -0.00636,0.0077 -0.0362578,0.04422 -0.0664257,0.0811 -0.054522,0.06665 -0.21867586,0.221734 -0.31671043,0.299205 -0.0282029,0.02229 -0.0566743,0.04485 -0.0632687,0.05014 -0.0120607,0.0097 -0.10040448,0.07711 -0.17794729,0.135839 -0.0454061,0.03439 -0.11863623,0.08696 -0.13745963,0.09868 -0.008358,0.0052 -0.009527,0.01052 -0.003952,0.01808 0.004331,0.0059 0.0199369,0.02705 0.0346717,0.04702 0.0310232,0.04207 0.0761727,0.140421 0.0932141,0.203058 0.0136359,0.05011 0.0160664,0.236379 0.003627,0.277741 -0.004276,0.0143 -0.0120769,0.04019 -0.017279,0.05755 -0.0215879,0.07194 -0.1438678,0.274921 -0.17685924,0.293579 -0.006041,0.0034 -0.0263895,0.02068 -0.0452275,0.03836 -0.06953232,0.06528 -0.15914446,0.120714 -0.25110702,0.155323 -0.10846748,0.04082 -0.10568238,0.04045 -0.31556391,0.04182 -0.20687882,0.0013 -0.2509495,0.0059 -0.33923107,0.03526 -0.0633255,0.02104 -0.18988777,0.08124 -0.23414846,0.111376 -0.0181398,0.01235 -0.0364796,0.02245 -0.0407614,0.02245 -0.00428,0 -0.00896,0.0027 -0.010404,0.0061 -0.00146,0.0033 -0.020819,0.01928 -0.043051,0.03545 -0.038358,0.02789 -0.1087193,0.102063 -0.1393591,0.14691 -0.027229,0.03985 -0.054757,0.107834 -0.060451,0.149281 -0.00703,0.05116 -0.019368,0.06456 -0.051664,0.0561 z m 0.68131706,-1.096289 c 0.1268849,-0.02059 0.19033925,-0.08894 0.22861724,-0.246274 0.0108427,-0.04454 0.0122068,-0.139917 0.002003,-0.139917 -0.003952,0 -0.0207922,0.007 -0.0374758,0.01545 -0.0166781,0.0085 -0.0681368,0.03338 -0.11434516,0.05528 -0.13883621,0.06581 -0.21594055,0.134994 -0.26604427,0.238726 -0.0265194,0.0549 -0.0219777,0.06363 0.0385476,0.07416 0.068054,0.01185 0.0892808,0.01221 0.14869694,0.0025 z m 0.26931819,-0.957818 c 0,-0.002 0.0168622,-0.01318 0.0374758,-0.02488 0.0869694,-0.04937 0.21501218,-0.135077 0.26866914,-0.179829 0.03169985,-0.02644 0.07074976,-0.058 0.08677994,-0.07014 0.08298636,-0.06286 0.3255118,-0.320887 0.41673762,-0.443383 0.0416114,-0.05587 0.11528814,-0.167134 0.14076115,-0.212565 0.0392351,-0.06997 0.0488598,-0.07849 0.0651617,-0.05764 0.0289012,0.03696 0.0243487,0.114204 -0.0140581,0.238646 -0.0704141,0.228169 -0.25572992,0.431873 -0.49658701,0.545864 -0.04124335,0.01952 -0.08208721,0.03825 -0.09076461,0.04163 -0.0086828,0.0034 -0.03175397,0.01326 -0.05127947,0.02197 -0.03740538,0.01668 -0.13745855,0.0602 -0.17750558,0.07722 -0.0428782,0.01822 -0.17343917,0.06679 -0.179476,0.06676 -0.003248,-1.3e-5 -0.005922,-0.0017 -0.005922,-0.0036 z"
       id="path1"
       sodipodi:nodetypes="csccccccscsccsccccccscccsccccccssccccsccsccccssccssccccscssccsccccscccsccsscssscscscssccsccssccssscscssccscscscscccsscsccsscccsccscsccccccscsccsccscsccccccsccssccsssccscccccccccccscssssscsscsccsscscccsccssccsscscccccccsccccsssssccssscccssscsscccsscccccccsccccccccsscsccccccsscscscsccscsscssccccsssccccsccccccccssccccscccssccscccccsscsssscssccccscsccscscccccscscssccccccccsscsccsccsccccssccscssccscccssssccsccsccccssccccscccccsccccccsscsccssssscccsssscccscscccccsssccccscsccccccccsscccccsccsscccsscccsccccccssccsscscscsscccscccccscccccsscccsccccsssccccsccsssccccsscscscccccscscscccccscscccsccscssccsscsscccccccscscccscscccsccscssccscssssssscsscccsccccccscsccssssscscsscssccscssscsccssccccscsssccccsscsccccccccccsscsccssscscscccsccscsscscsscsccccccccsccssccssccccsccscccccscccccscccccc" /></g></svg>
