<?xml version="1.0" encoding="UTF-8" standalone="no"?>
<!-- Created with Inkscape (http://www.inkscape.org/) -->

<svg
   width="15mm"
   height="15mm"
   viewBox="0 0 15 15"
   version="1.1"
   id="svg1"
   inkscape:export-filename="sarcophagus.png"
   inkscape:export-xdpi="96"
   inkscape:export-ydpi="96"
   inkscape:version="1.3.2 (091e20e, 2023-11-25)"
   sodipodi:docname="sarcophagus.svg"
   xmlns:inkscape="http://www.inkscape.org/namespaces/inkscape"
   xmlns:sodipodi="http://sodipodi.sourceforge.net/DTD/sodipodi-0.dtd"
   xmlns:xlink="http://www.w3.org/1999/xlink"
   xmlns="http://www.w3.org/2000/svg"
   xmlns:svg="http://www.w3.org/2000/svg">
  <sodipodi:namedview
     id="namedview1"
     pagecolor="#ffffff"
     bordercolor="#000000"
     borderopacity="0.25"
     inkscape:showpageshadow="2"
     inkscape:pageopacity="0.0"
     inkscape:pagecheckerboard="0"
     inkscape:deskcolor="#d1d1d1"
     inkscape:document-units="mm"
     showguides="false"
     inkscape:zoom="7.0611007"
     inkscape:cx="32.289583"
     inkscape:cy="43.052778"
     inkscape:window-width="1792"
     inkscape:window-height="993"
     inkscape:window-x="1"
     inkscape:window-y="25"
     inkscape:window-maximized="0"
     inkscape:current-layer="layer1" />
  <defs
     id="defs1">
    <linearGradient
       id="linearGradient12"
       inkscape:collect="always">
      <stop
         style="stop-color:#000000;stop-opacity:0;"
         offset="0"
         id="stop12" />
      <stop
         style="stop-color:#000000;stop-opacity:1;"
         offset="1"
         id="stop13" />
    </linearGradient>
    <linearGradient
       id="linearGradient8"
       inkscape:collect="always">
      <stop
         style="stop-color:#c7cd36;stop-opacity:1;"
         offset="0"
         id="stop8" />
      <stop
         style="stop-color:#bbc03e;stop-opacity:1;"
         offset="0.33050847"
         id="stop10" />
      <stop
         style="stop-color:#a5a851;stop-opacity:0;"
         offset="1"
         id="stop9" />
    </linearGradient>
    <linearGradient
       id="linearGradient6"
       inkscape:collect="always">
      <stop
         style="stop-color:#473131;stop-opacity:0.24460432;"
         offset="0"
         id="stop6" />
      <stop
         style="stop-color:#070703;stop-opacity:0.68525177;"
         offset="1"
         id="stop7" />
    </linearGradient>
    <linearGradient
       id="linearGradient4"
       inkscape:collect="always">
      <stop
         style="stop-color:#81813f;stop-opacity:1;"
         offset="0"
         id="stop4" />
      <stop
         style="stop-color:#f9f977;stop-opacity:1;"
         offset="1"
         id="stop5" />
    </linearGradient>
    <linearGradient
       inkscape:collect="always"
       xlink:href="#linearGradient4"
       id="linearGradient5"
       x1="2.117471"
       y1="8.3293457"
       x2="8.5786495"
       y2="6.287344"
       gradientUnits="userSpaceOnUse" />
    <linearGradient
       inkscape:collect="always"
       xlink:href="#linearGradient6"
       id="linearGradient7"
       x1="5.0320754"
       y1="7.7942472"
       x2="2.0055372"
       y2="10.146195"
       gradientUnits="userSpaceOnUse" />
    <radialGradient
       inkscape:collect="always"
       xlink:href="#linearGradient8"
       id="radialGradient9"
       cx="1.9141113"
       cy="8.1426668"
       fx="1.9141113"
       fy="8.1426668"
       r="0.56007761"
       gradientTransform="matrix(1.9728502,-0.0188393,0.01180919,1.236659,-0.64119624,-1.4601463)"
       gradientUnits="userSpaceOnUse" />
    <radialGradient
       inkscape:collect="always"
       xlink:href="#linearGradient8"
       id="radialGradient9-7"
       cx="1.9141113"
       cy="8.1426668"
       fx="1.9141113"
       fy="8.1426668"
       r="0.56007761"
       gradientTransform="matrix(1.8086699,-0.0188393,0.01082643,1.236659,-0.57558412,-1.8273606)"
       gradientUnits="userSpaceOnUse" />
    <linearGradient
       inkscape:collect="always"
       xlink:href="#linearGradient12"
       id="linearGradient13"
       x1="10.397591"
       y1="6.8415217"
       x2="11.922819"
       y2="5.8156672"
       gradientUnits="userSpaceOnUse" />
  </defs>
  <g
     inkscape:label="Layer 1"
     inkscape:groupmode="layer"
     id="layer1">
    <path
       style="fill:url(#linearGradient5);stroke:#111217;stroke-width:0.0580001;stroke-linecap:round;stroke-linejoin:round"
       d="M 10.806708,3.5336759 8.3341022,5.3613626 3.6893585,7.9870604 C 2.9437653,7.5664943 2.9274579,7.2612218 2.3036646,7.7803735 1.9905203,8.6200368 3.1538762,10.068622 3.5626345,10.238979 10.18644,6.772245 11.077097,6.6261243 11.363268,6.0936969 11.794962,5.5064134 10.730165,3.8334542 10.806708,3.5336759 Z"
       id="path2-6"
       sodipodi:nodetypes="ccccccc" />
    <path
       style="fill:#a5a851;fill-opacity:1;stroke:#111217;stroke-width:0.0580001;stroke-linecap:round;stroke-linejoin:round"
       d="M 12.354009,4.9077686 9.2666713,6.6155221 4.3666774,9.0414786 C 3.7313391,8.3326416 3.6078571,8.2506573 2.9809835,8.7208086 2.6678392,9.5347135 3.548079,10.514091 3.9568373,10.718071 11.308587,6.5599757 11.541359,6.5129928 11.82753,6.004105 12.259224,5.4523314 12.277466,5.2012507 12.354009,4.9077686 Z"
       id="path2"
       sodipodi:nodetypes="ccccccc" />
    <path
       style="fill:#f3dd4e;fill-opacity:1;stroke:none;stroke-width:0.0580001;stroke-linecap:round;stroke-linejoin:round"
       d="M 10.701958,2.9653343 9.3642136,3.9240515 9.3419172,4.1693046 9.0966641,4.2361918 8.2605736,4.9719515 7.9930246,5.640824 8.0041716,5.7857463 C 8.301431,6.1813727 8.6979992,6.462412 9.2192898,6.5995409 9.6151488,6.638012 9.8550321,6.5724995 10.099972,6.5103579 l 0.813794,-0.4905066 0.680021,-0.4905063 0.746907,-1.0367523 -0.0223,-0.423619 -0.57969,-0.6131333 -0.769203,-0.4793583 z"
       id="path3"
       sodipodi:nodetypes="cccccccccccccccc" />
    <path
       style="fill:#4eeef3;fill-opacity:1;stroke:none;stroke-width:0.0580001;stroke-linecap:round;stroke-linejoin:round"
       d="M 10.743696,2.9759329 9.4059517,3.9346501 9.3836553,4.1275145 8.2001687,5.3469526 8.4642403,5.6874159 9.1920762,5.1322985 9.5366056,5.4248616 C 9.7433755,5.687135 9.7398847,4.6013061 10.261175,4.738435 c 0.395859,0.038471 0.159482,0.049161 0.32822,0.082271 L 9.0885621,5.992349 9.3970998,6.2829103 10.958413,5.379511 c 0.146033,0.094473 0.322341,0.1700251 0.372996,0.3241102 L 12.366243,4.1713048 C 12.124919,3.6538628 11.544848,3.3340231 11.011239,2.9870807 Z"
       id="path3-8"
       sodipodi:nodetypes="cccccccccccccccc" />
    <path
       style="fill:#000000"
       d="m 8.1146038,5.2120737 c 0.00833,-0.020681 0.05787,-0.063409 0.089287,-0.1109409 C 8.3059948,4.9467434 8.385401,4.8519777 8.566772,4.6680142 8.6301,4.6037752 8.9149611,4.3652881 9.008809,4.2979387 c 0.05685,-0.040826 0.2104986,-0.109729 0.2735441,-0.1227086 0.033806,-0.00671 0.052197,-0.015083 0.053625,-0.023806 0.00117,-0.00694 0.00584,-0.061947 0.010394,-0.1214845 l 0.00823,-0.1083012 0.066088,-0.044606 C 9.4570326,3.8525505 9.5540987,3.7883069 9.6363788,3.7344111 9.7894514,3.6341158 9.8782627,3.5720259 10.094825,3.4139173 c 0.124729,-0.091023 0.436343,-0.3060144 0.534623,-0.3687815 0.112508,-0.071809 0.105208,-0.070002 0.22222,-0.05751 0.164979,0.017267 0.258361,0.052204 0.459251,0.1705394 0.174451,0.1027101 0.32828,0.2088151 0.553917,0.381962 0.158848,0.121893 0.201872,0.1598188 0.279616,0.2465105 0.120332,0.1341903 0.196856,0.2630267 0.227069,0.3823094 0.0073,0.02856 0.0097,0.091074 0.0074,0.1854555 l -0.0034,0.1423313 c 0.07619,0.2217421 -0.04736,0.8273906 -0.237064,1.0983144 -0.08166,0.1166264 -0.423754,0.1199176 -0.518567,0.1807061 -0.108987,-0.00552 -0.269332,-0.00646 -0.295622,-0.015 -0.02023,-0.00638 -0.04317,0.014596 -0.149056,0.1370839 -0.167428,0.1937249 -0.30536,0.3108998 -0.515116,0.4375787 C 10.449514,6.4625827 10.161569,6.5712791 9.8926649,6.6251029 9.7038929,6.6629418 9.6079846,6.6683295 9.3867928,6.6539196 9.2063702,6.6421531 9.1774637,6.6386455 9.1035081,6.6160575 8.9557669,6.5716203 8.819647,6.5089112 8.6919107,6.426377 8.6542683,6.402059 8.5998516,6.3679767 8.5709792,6.3505714 8.5055019,6.3111239 8.2624091,6.1279658 8.1807445,6.0564825 8.1069146,5.991808 8.0233514,5.8919697 8.0040329,5.8452668 7.9914676,5.8149406 7.9911111,5.7935679 8.0007724,5.6562662 8.0123267,5.4920917 8.0268536,5.4289341 8.076715,5.3262795 l 0.021211,-0.043658 c 0.013188,-0.017744 0.00302,-0.036679 0.016679,-0.070529 z m 1.3939151,1.3817746 c 0.1445922,-0.0159 0.3137813,-0.044149 0.3457222,-0.057597 0.015936,-0.00694 0.050111,-0.025851 0.076009,-0.042627 0.025877,-0.016677 0.1045999,-0.056011 0.1749249,-0.087399 0.212656,-0.094838 0.40944,-0.2035778 0.559229,-0.3090185 0.09618,-0.067711 0.441237,-0.3695687 0.460577,-0.4029299 0.01278,-0.022081 -0.0059,-0.00943 -0.08489,0.057756 C 10.777688,5.9750435 10.616145,6.091099 10.426556,6.1928224 10.241262,6.2922433 9.9939525,6.3900692 9.7962951,6.4421285 L 9.6250842,6.4871744 9.4326205,6.4740661 9.2401563,6.4609577 9.0805894,6.39695 C 8.9928352,6.3616962 8.9062997,6.3269265 8.8882988,6.3196847 8.6800638,6.235418 8.4607582,6.1127992 8.3658405,6.0275219 8.3505224,6.0137475 8.3181419,5.9892871 8.2938738,5.9732985 8.2696224,5.9572109 8.2401555,5.9348537 8.2283991,5.9235273 8.1888821,5.8855499 8.0674913,5.7180706 8.0555182,5.684999 8.0490182,5.667016 8.0400702,5.651971 8.0356702,5.651671 c -0.011334,-7.694e-4 -0.011516,0.1527201 -1.768e-4,0.1778307 0.013852,0.030714 0.089487,0.1193166 0.1472737,0.1724323 0.06691,0.061496 0.2264421,0.1903617 0.3027788,0.2445423 0.077141,0.054778 0.2924587,0.1857236 0.3713095,0.2258529 0.051754,0.026383 0.1994705,0.081965 0.3032631,0.1142033 0.045916,0.014265 0.2467235,0.018839 0.3483907,0.00722 z M 9.7642377,6.4191467 c 0.1890808,-0.05075 0.2829523,-0.083808 0.4476003,-0.1577446 0.316085,-0.1419482 0.535946,-0.2897484 0.875546,-0.58857 l 0.119252,-0.1049377 -0.08315,-0.054585 c -0.04572,-0.030082 -0.09103,-0.060435 -0.100658,-0.067606 -0.01669,-0.012365 -0.01995,-0.010383 -0.07025,0.049234 -0.159326,0.1878827 -0.438837,0.3896587 -0.723796,0.5225141 -0.162868,0.075892 -0.3514645,0.1440652 -0.4749444,0.1715757 -0.051164,0.01144 -0.141348,0.039873 -0.2004066,0.063207 C 9.49438,6.2755692 9.431579,6.2960432 9.4138951,6.2976422 9.3765147,6.3011068 9.2987792,6.267639 9.2702753,6.2359256 9.2285095,6.1894756 9.1615952,6.158049 9.0617135,6.1379048 8.8086574,6.0869652 8.5751931,5.9412592 8.4615126,5.7631799 c -0.017552,-0.027459 -0.049007,-0.063282 -0.069899,-0.079541 -0.04674,-0.036264 -0.081235,-0.072196 -0.080745,-0.084091 4.864e-4,-0.011995 -0.043224,-0.066496 -0.0539,-0.067223 -0.00469,-3.2e-4 -0.00938,0.012591 -0.010474,0.028653 -0.0011,0.016162 -0.0059,0.029066 -0.010581,0.028746 -0.010755,-7.319e-4 -0.02069,-0.032885 -0.030441,-0.098601 -0.0042,-0.028051 -0.01131,-0.06913 -0.015881,-0.091192 l -0.0083,-0.040058 0.044941,-0.041539 c 0.056425,-0.052081 0.086662,-0.096867 0.1193491,-0.1766173 0.014152,-0.034518 0.037817,-0.078307 0.052603,-0.097285 0.01479,-0.019037 0.055079,-0.074224 0.08955,-0.1227303 0.08146,-0.114632 0.2334703,-0.2924292 0.2912881,-0.3406965 0.025026,-0.020845 0.072421,-0.054998 0.1053133,-0.075809 0.036894,-0.023343 0.094261,-0.073656 0.1497831,-0.1314814 0.049492,-0.051551 0.090131,-0.095829 0.090309,-0.098442 C 9.1265082,4.2447434 8.6840908,4.6031162 8.549539,4.740959 8.3229416,4.9730862 8.1496549,5.2244562 8.0878452,5.4106814 c -0.011849,0.035577 -0.022152,0.089199 -0.024862,0.128927 l -0.00465,0.068042 0.043425,0.083549 c 0.073774,0.1418997 0.1371411,0.225526 0.1998052,0.2636589 0.02509,0.015243 0.023333,0.0056 -0.00682,-0.036649 -0.03564,-0.050141 -0.05769,-0.094245 -0.056446,-0.1130636 7.821e-4,-0.011775 0.00746,-0.00651 0.025922,0.020111 0.029154,0.042082 0.1518909,0.1654003 0.2214531,0.2224165 0.07487,0.061338 0.242404,0.1555373 0.3402657,0.19126 0.1356177,0.049544 0.299281,0.119344 0.2947044,0.1257072 -0.0082,0.011469 0.070656,0.036994 0.1670886,0.053996 0.048846,0.00834 0.090542,0.017602 0.09269,0.020055 0.00216,0.00215 0.060464,0.00713 0.1296463,0.00968 l 0.1257295,0.00557 z M 9.4187423,6.2462333 C 9.4218904,6.2000407 9.3829055,6.1137474 9.3425568,6.0776678 9.2863453,6.0274261 9.1558015,5.9525081 9.1318919,5.956801 c -0.044607,0.00798 -0.035517,0.055311 0.016726,0.08704 0.012095,0.00785 0.044209,0.036192 0.071313,0.064102 0.027093,0.027908 0.072643,0.068402 0.1012356,0.089898 0.028583,0.021496 0.058606,0.047599 0.06671,0.057974 0.020827,0.026478 0.028576,0.024101 0.03087,-0.00952 z M 9.8341549,6.1336424 c 0.1220305,-0.040188 0.3108981,-0.1151488 0.4124131,-0.1635826 0.164921,-0.07866 0.421936,-0.2453643 0.524686,-0.3402518 0.109496,-0.1011125 0.185259,-0.1907546 0.162529,-0.192305 -0.02784,-0.0019 -0.178245,0.078652 -0.385936,0.2067549 -0.250156,0.1542733 -0.326163,0.2004478 -0.494851,0.3006602 -0.1036124,0.061591 -0.2133946,0.1275232 -0.2439656,0.146597 -0.030567,0.019063 -0.082713,0.048284 -0.1158541,0.064966 -0.033158,0.016682 -0.062923,0.032593 -0.066149,0.035381 -0.00882,0.00742 0.1000697,-0.022943 0.2071341,-0.058239 z m -0.3453011,0.00522 c 0.066434,-0.055809 0.2688671,-0.2085058 0.3286466,-0.2478588 0.028644,-0.018895 0.09676,-0.064464 0.1513858,-0.1013024 0.054622,-0.036868 0.1223268,-0.081465 0.1504478,-0.099031 0.02812,-0.017627 0.121073,-0.07734 0.206549,-0.1326909 0.269741,-0.1747483 0.469027,-0.2846508 0.585152,-0.3227061 0.01326,-0.00411 0.02207,-0.011826 0.01956,-0.016608 -0.0025,-0.00517 6.04e-4,-0.00798 0.0069,-0.00755 0.0064,4.338e-4 0.04068,-0.018074 0.07623,-0.041008 0.03556,-0.023034 0.06745,-0.041606 0.07087,-0.041372 0.0034,2.303e-4 0.01331,-0.0021 0.02195,-0.00452 0.0087,-0.00241 -0.01137,0.014058 -0.04448,0.036858 -0.0562,0.038764 -0.06003,0.043316 -0.05776,0.069029 0.0029,0.034284 0.01828,0.052365 0.05194,0.061578 0.0276,0.0079 0.04144,-0.00218 0.0436,-0.030003 6.16e-4,-0.00798 0.01984,-0.034731 0.0427,-0.059232 0.02287,-0.0245 0.04861,-0.057626 0.05722,-0.073777 0.0086,-0.016051 0.02251,-0.036352 0.03091,-0.045001 0.0142,-0.014671 0.176141,-0.255278 0.335431,-0.4983512 0.03771,-0.057567 0.0916,-0.1389784 0.119772,-0.1809786 0.102522,-0.1528775 0.181431,-0.2755517 0.179018,-0.2783224 -0.0015,-0.00109 -0.03186,0.013462 -0.06781,0.033363 -0.06383,0.035339 -0.06686,0.03854 -0.130159,0.1356166 -0.03565,0.054702 -0.128874,0.1953025 -0.207173,0.3124956 -0.07829,0.117183 -0.164839,0.2469542 -0.192312,0.2883605 -0.07615,0.1147839 -0.08919,0.1274549 -0.157454,0.1528489 -0.07016,0.026086 -0.217869,0.097158 -0.226217,0.1088174 -0.0031,0.0048 -0.0019,0.013201 0.0028,0.019634 0.0066,0.00948 0.0043,0.010615 -0.01123,0.00626 -0.01082,-0.00274 -0.0309,-1.073e-4 -0.04462,0.00598 -0.09213,0.040016 -0.43178,0.2401757 -0.597469,0.3520392 -0.04687,0.03168 -0.132654,0.087773 -0.190667,0.1248401 -0.1742966,0.1112564 -0.5912235,0.4051541 -0.6337949,0.4467633 -0.015239,0.014898 -0.015238,0.016501 4.81e-5,0.038994 0.00875,0.012825 0.020271,0.023735 0.025539,0.024094 0.00528,3.605e-4 0.02978,-0.016312 0.05446,-0.037081 z m -0.3924015,-0.04692 c -0.00289,-0.00621 -0.013755,-0.024192 -0.024197,-0.04054 -0.017246,-0.026936 -0.020767,-0.053938 -0.011193,-0.085661 0.00244,-0.00785 -0.00786,-0.014167 -0.033738,-0.020143 C 8.9547837,5.9291239 8.8241557,5.8563656 8.7462664,5.7890187 8.7031368,5.7516973 8.6352543,5.6626909 8.625987,5.6312274 c -0.00202,-0.00715 -0.020773,0.00359 -0.051088,0.029091 -0.026325,0.021959 -0.056516,0.041951 -0.067082,0.044337 -0.01056,0.00229 -0.01944,0.00769 -0.019684,0.011287 -0.00142,0.020951 0.1122279,0.1480909 0.1787457,0.199968 0.087929,0.068542 0.1744922,0.1109321 0.3507527,0.1717082 0.043942,0.015126 0.085082,0.017431 0.078825,0.00437 z m 0.5121484,0.022907 c 0.019163,-0.011021 0.062657,-0.039528 0.096642,-0.063369 0.066471,-0.046484 0.2201469,-0.1451847 0.4615593,-0.2964362 0.0832,-0.05216 0.212149,-0.1341232 0.286568,-0.1822202 0.19109,-0.123502 0.325134,-0.2027434 0.478319,-0.282764 0.01582,-0.00794 0.03047,-0.02328 0.03264,-0.033456 0.0049,-0.022521 -0.0048,-0.024187 -0.03272,-0.00524 -0.01159,0.00823 -0.0425,0.024163 -0.06877,0.036504 -0.156759,0.073304 -0.292982,0.1501413 -0.427868,0.2412829 -0.0409,0.027682 -0.110999,0.072314 -0.155782,0.099339 -0.19085,0.1150706 -0.5855157,0.3819106 -0.6705804,0.4533873 -0.06467,0.054325 -0.064686,0.070562 -1.048e-4,0.033274 z M 9.4682311,6.0303006 c 0.2625948,-0.2076607 1.0066329,-0.6944543 1.2328399,-0.8066 0.101362,-0.050218 0.128114,-0.066535 0.125464,-0.076238 -0.0016,-0.00511 0.0033,-0.0078 0.01115,-0.00526 0.0075,0.00252 0.05502,-0.017798 0.105418,-0.04493 0.0504,-0.027133 0.118114,-0.060602 0.150469,-0.074332 0.05366,-0.022801 0.06312,-0.030776 0.107712,-0.090781 0.02689,-0.036154 0.06396,-0.089254 0.08241,-0.1180855 0.01845,-0.028811 0.0717,-0.1074498 0.118333,-0.174782 0.04664,-0.067283 0.1153,-0.1704687 0.15258,-0.2291878 0.03729,-0.058699 0.07887,-0.1211433 0.09242,-0.1387116 0.01356,-0.017619 0.02985,-0.040362 0.03622,-0.050654 0.01049,-0.017126 0.0102,-0.01805 -0.0042,-0.011116 -0.0088,0.00442 -0.04749,0.027432 -0.08612,0.051659 l -0.07025,0.043922 -0.01029,0.066451 c -0.0057,0.036496 -0.01526,0.079646 -0.02118,0.09588 -0.0166,0.045276 -0.0603,0.09201 -0.115337,0.1234171 -0.05193,0.029634 -0.09618,0.084149 -0.197511,0.2434529 -0.05813,0.091355 -0.08193,0.1127163 -0.168391,0.1510304 -0.09481,0.042046 -0.197041,0.1075696 -0.196876,0.1262446 6.1e-5,0.00802 -0.0044,0.011635 -0.01025,0.00932 -0.04008,-0.018571 -0.425392,0.2091453 -1.0159341,0.6004635 -0.1383736,0.091696 -0.4266968,0.299536 -0.4416856,0.3183895 -0.00623,0.0076 -0.00321,0.01622 0.010602,0.02939 0.010662,0.00975 0.023602,0.018851 0.028807,0.019405 0.00517,5.038e-4 0.042928,-0.025537 0.08381,-0.057831 z M 9.411644,5.9495625 C 9.6111745,5.8032722 9.6590239,5.7698611 9.8282707,5.6586512 10.109146,5.4740981 10.154905,5.4443934 10.242173,5.3899963 c 0.04588,-0.028645 0.117022,-0.073307 0.158092,-0.099231 0.06624,-0.041889 0.187261,-0.1096402 0.311944,-0.1746456 0.02307,-0.012058 0.04525,-0.020668 0.04933,-0.019287 0.0042,0.00128 0.01982,-0.00767 0.03498,-0.019766 0.04103,-0.033184 0.106226,-0.070635 0.189309,-0.1086486 0.04074,-0.01867 0.08058,-0.04031 0.08852,-0.048186 0.0079,-0.00747 0.04175,-0.053984 0.07514,-0.1025942 0.03339,-0.04854 0.07568,-0.10756 0.09395,-0.1310503 0.01828,-0.02351 0.03348,-0.046329 0.03377,-0.050619 2.73e-4,-0.004 -0.01749,0.00381 -0.03945,0.017055 -0.02199,0.013734 -0.0526,0.032696 -0.06802,0.042068 -0.02968,0.018122 -0.07741,0.063179 -0.07813,0.073854 -2.03e-4,0.00299 -0.02136,0.034827 -0.04694,0.069567 -0.04093,0.055644 -0.05138,0.064754 -0.08712,0.075346 -0.0528,0.015643 -0.167887,0.073344 -0.212263,0.1062813 -0.03362,0.024969 -0.0344,0.02652 -0.02136,0.043147 0.01316,0.016734 0.01291,0.016919 -0.0088,0.00642 -0.01901,-0.00831 -0.0297,-0.00704 -0.07194,0.012935 -0.06459,0.030175 -0.241687,0.1315572 -0.325566,0.1862857 -0.03629,0.023685 -0.09159,0.057802 -0.122868,0.075814 -0.145052,0.083522 -0.6324586,0.4082049 -0.8234624,0.5486118 -0.043812,0.032193 -0.090594,0.065888 -0.1039713,0.074798 l -0.024308,0.016184 0.026136,0.018722 c 0.014392,0.01 0.029299,0.019238 0.033153,0.019902 0.00387,6.446e-4 0.053049,-0.032565 0.1093069,-0.073832 z m -0.1528553,-0.00542 c 0.019314,-0.013517 0.063044,-0.045816 0.097196,-0.071852 C 9.5068305,5.7574319 9.6783542,5.6411252 10.036512,5.4108154 10.348338,5.2103016 10.51265,5.111164 10.609307,5.0652353 c 0.02372,-0.011312 0.04218,-0.024084 0.04105,-0.028573 -0.0011,-0.00409 -0.01113,-0.015794 -0.0222,-0.025269 l -0.02012,-0.017309 -0.09854,0.053718 C 10.398074,5.1085596 10.247131,5.2011522 10.066225,5.3197158 9.9984579,5.3641073 9.910151,5.420017 9.8699745,5.4439179 9.8297968,5.4678392 9.7493401,5.5189824 9.6911865,5.557504 9.6330265,5.596035 9.5749421,5.634372 9.5620985,5.642716 9.5391635,5.65749 9.2558502,5.8651902 9.2370472,5.8810073 c -0.00534,0.00465 -0.024689,0.019565 -0.04312,0.033643 -0.03173,0.024197 -0.032732,0.026233 -0.018788,0.038411 0.023064,0.020116 0.045665,0.017648 0.083652,-0.00892 z M 9.1581326,5.8906736 c 0.028538,-0.020004 0.052074,-0.038846 0.052305,-0.041938 2.211e-4,-0.00299 -0.015428,-0.00906 -0.034751,-0.013798 C 9.1238105,5.8223794 9.0296187,5.7768637 8.9648285,5.7321507 8.8953798,5.6842133 8.8088789,5.5885447 8.7854454,5.533753 L 8.7681404,5.493281 8.7115284,5.53753 8.6549164,5.581779 8.6706354,5.618634 c 0.031391,0.073507 0.1158847,0.1599874 0.2128108,0.2178478 0.055033,0.032821 0.1804337,0.08688 0.2071864,0.089206 0.00857,7.671e-4 0.03897,-0.014983 0.067507,-0.034987 z M 9.3128552,5.7774104 c 0.056758,-0.041835 0.056969,-0.04212 0.034235,-0.048884 C 9.2501536,5.700064 9.2156064,5.6856795 9.1445405,5.6443473 9.1000623,5.6185607 9.0441663,5.5783635 9.0203298,5.5549872 8.975985,5.5116688 8.9121351,5.4157011 8.9135758,5.3945801 c 0.00112,-0.016461 -0.00738,-0.012331 -0.060572,0.029547 -0.054901,0.043264 -0.055548,0.052141 -0.00906,0.1245418 0.039776,0.061951 0.1140923,0.1329127 0.1850588,0.176774 0.050566,0.031315 0.1858022,0.089453 0.2156999,0.092694 0.00607,6.843e-4 0.036752,-0.017741 0.068158,-0.040857 z M 8.5070907,5.6636109 c 0.00238,-0.012868 0.00119,-0.041014 -0.00264,-0.062626 -0.00654,-0.036429 -0.0057,-0.03998 0.012062,-0.050496 0.027978,-0.016533 0.3714277,-0.30099 0.6189601,-0.5126952 C 9.5054354,4.721368 9.7035857,4.5538446 9.7979298,4.4777286 l 0.09124,-0.073661 0.00276,-0.040508 0.00276,-0.040508 -0.045176,0.032902 C 9.7333536,4.4404474 9.4244999,4.6970235 9.0227739,5.042816 8.54772,5.4517347 8.5116135,5.4835712 8.5041756,5.5001134 l -0.00733,0.016439 -0.020227,-0.018218 c -0.01114,-0.00978 -0.047109,-0.034686 -0.079968,-0.054769 -0.03286,-0.020083 -0.080946,-0.050427 -0.106853,-0.067429 -0.043606,-0.028734 -0.048187,-0.030048 -0.061722,-0.018243 -0.013205,0.011528 -0.013543,0.015013 -0.00348,0.036448 0.00613,0.013047 0.029839,0.035413 0.052693,0.049801 0.040315,0.025403 0.1752346,0.1783089 0.1739505,0.1971351 -9.103e-4,0.013369 0.032125,0.050704 0.042475,0.048102 0.00503,-0.00167 0.011022,-0.01288 0.013433,-0.025745 z m 0.9215212,0.031286 c 0.0041,-0.00573 0.022248,-0.019632 0.040385,-0.031324 0.018138,-0.011693 0.033181,-0.024298 0.033439,-0.028089 2.726e-4,-0.004 -0.02276,-0.012979 -0.051142,-0.020528 -0.1625133,-0.04296 -0.3275467,-0.1701862 -0.3775667,-0.2910305 -0.011813,-0.02857 -0.022182,-0.053333 -0.023017,-0.055195 -8.256e-4,-0.00206 -0.012236,0.00818 -0.02526,0.021331 -0.013052,0.013544 -0.035169,0.030377 -0.049135,0.037342 -0.029507,0.014826 -0.031543,0.025712 -0.013716,0.073237 0.021212,0.056676 0.094608,0.1399029 0.1633147,0.1852337 0.082048,0.054109 0.097724,0.061893 0.1845757,0.090873 0.085394,0.028577 0.1078583,0.032014 0.1181463,0.018082 z m 1.9043911,0.020629 c -0.01234,-0.1624276 -0.0228,-0.2606549 -0.02996,-0.2818623 -0.01239,-0.036628 -0.03091,-0.045209 -0.251408,-0.1161787 l -0.04773,-0.015384 0.004,0.026627 c 0.0093,0.063775 0.03704,0.092234 0.189544,0.193929 0.062,0.041315 0.08208,0.066841 0.09512,0.1208234 0.0073,0.030473 0.03358,0.090595 0.0397,0.091013 0.0013,8.8e-5 0.0017,-0.00791 8.66e-4,-0.018881 z M 9.6686348,5.507477 C 9.7840742,5.4199306 9.8103695,5.39428 9.8015543,5.3775714 9.7912901,5.3582335 9.76388,5.3689923 9.7270722,5.4075728 9.6826987,5.4537602 9.6125062,5.4845541 9.5609578,5.4804371 9.5175887,5.4769753 9.4275579,5.4188158 9.3171041,5.3229768 9.246326,5.2616176 9.2257307,5.2386627 9.2169234,5.2113502 c -0.00613,-0.018861 -0.010713,-0.039921 -0.010246,-0.046705 0.00133,-0.019654 -0.00839,-0.015206 -0.063784,0.029328 l -0.052029,0.041856 0.010657,0.04132 c 0.016663,0.064584 0.057985,0.1276821 0.1129186,0.1724944 0.065409,0.053375 0.086325,0.065326 0.1861513,0.106816 0.1325657,0.05505 0.1303227,0.055397 0.2680331,-0.048973 z M 9.8608283,5.423662 C 10.133622,5.2388883 10.368797,5.0906994 10.509729,5.0147845 c 0.05144,-0.027664 0.119663,-0.067312 0.151582,-0.087988 0.03192,-0.020675 0.09287,-0.053203 0.135459,-0.072149 0.0675,-0.030175 0.08303,-0.041345 0.121168,-0.086955 0.02406,-0.028829 0.04247,-0.053835 0.04091,-0.055646 -0.0016,-0.00211 -0.03807,0.01725 -0.08112,0.042278 -0.04306,0.025028 -0.106622,0.056375 -0.141265,0.069647 -0.03464,0.013273 -0.0973,0.044581 -0.139264,0.069684 -0.04195,0.025003 -0.10383,0.061275 -0.1375,0.080429 -0.101417,0.057832 -0.209327,0.1303469 -0.418515,0.2813809 -0.2002673,0.1445962 -0.3130957,0.2346666 -0.3492385,0.2787992 -0.019106,0.023355 -0.018734,0.023279 0.015541,-0.00295 0.019317,-0.01492 0.088309,-0.063237 0.1533276,-0.1072439 z M 8.7543086,5.2306213 C 9.0426017,4.9820746 9.4933798,4.5998659 9.5865991,4.5249361 9.655486,4.4695955 9.8416422,4.3300309 9.8834618,4.302413 9.9104478,4.284608 9.9340788,4.240815 9.9233588,4.228556 9.9209988,4.226386 9.9075048,4.230486 9.8931818,4.23973 9.8788718,4.24878 9.8636498,4.255457 9.8593338,4.255162 9.8435198,4.254082 9.7275123,4.330265 9.6194821,4.4126742 9.5106484,4.4956602 9.2144693,4.7467861 8.6915911,5.1992909 l -0.2636439,0.228167 0.019043,0.018239 c 0.010492,0.00973 0.023927,0.017469 0.029898,0.016473 0.00595,-5.961e-4 0.1308138,-0.1051315 0.2774262,-0.2315368 z M 8.765592,5.0945439 C 9.5043142,4.4543827 9.6849372,4.3080155 9.8084784,4.2494472 c 0.020764,-0.00981 0.052024,-0.02602 0.069459,-0.035956 0.017445,-0.00994 0.038487,-0.021431 0.046766,-0.025576 0.013868,-0.00707 0.059123,-0.1246954 0.051358,-0.1335943 -0.00295,-0.0032 -0.1108266,0.077838 -0.175319,0.1315935 -0.014095,0.011768 -0.029371,0.02115 -0.033926,0.020839 C 9.7429595,4.2051322 9.5936133,4.3078113 9.4331277,4.4361767 9.2657468,4.5700661 8.7782512,4.9925896 8.6393931,5.1241346 8.5721437,5.1878061 8.4780347,5.2698012 8.4302718,5.3062753 c -0.04776,0.036434 -0.087051,0.069337 -0.087302,0.073028 -4.081e-4,0.00599 0.035114,0.025248 0.052401,0.027931 C 8.39974,5.407893 8.5663595,5.2671864 8.7655835,5.0945442 Z M 8.4955096,5.2110033 C 9.2446324,4.5385555 9.601878,4.2444857 9.7370665,4.1889872 c 0.020614,-0.00862 0.073437,-0.043704 0.1174079,-0.078291 0.043973,-0.034587 0.094268,-0.071049 0.1117599,-0.081083 0.021717,-0.012452 0.037302,-0.030331 0.049143,-0.056487 0.0095,-0.020999 0.03192,-0.060969 0.04976,-0.08862 0.01784,-0.02765 0.02991,-0.050481 0.02683,-0.050692 -0.0031,-2.101e-4 -0.06076,0.045171 -0.1281713,0.1008414 -0.1188718,0.098169 -0.2250581,0.1741989 -0.290815,0.2082228 -0.1071686,0.055436 -0.8359544,0.6702036 -1.160311,0.978745 -0.065761,0.06257 -0.1457074,0.1327718 -0.1776507,0.1560219 -0.063781,0.046467 -0.073355,0.058845 -0.051039,0.06628 0.044913,0.014991 0.050926,0.011492 0.2115359,-0.1329724 z m 0.984428,0.074166 c -0.002,-0.052959 -0.00174,-0.053843 0.025166,-0.07035 0.014983,-0.0092 0.031829,-0.024089 0.037457,-0.033027 0.00852,-0.013459 0.00711,-0.018859 -0.0075,-0.030684 -0.00978,-0.00768 -0.0357,-0.032606 -0.057614,-0.054948 -0.038574,-0.039317 -0.1272845,-0.094281 -0.1550779,-0.096177 -0.00748,-5.103e-4 -0.024558,0.00634 -0.038001,0.016352 -0.013408,0.00951 -0.03154,0.020801 -0.0403,0.025216 -0.015358,0.00797 -0.015393,0.00908 -0.00127,0.037701 0.013703,0.027896 0.05049,0.054463 0.1955953,0.1408174 0.016718,0.010166 0.020914,0.021072 0.024375,0.06481 0.00552,0.069637 0.019925,0.069818 0.017244,2.339e-4 z m 0.3963228,0.050088 c 0.01193,-0.00721 0.041803,-0.028522 0.066446,-0.04799 0.024633,-0.019469 0.069444,-0.052696 0.099554,-0.073796 0.03011,-0.021099 0.05493,-0.040455 0.05514,-0.043147 2.38e-4,-0.003 -0.02163,-0.016209 -0.04854,-0.030074 l -0.048934,-0.025189 -0.083213,0.083029 c -0.07458,0.074398 -0.1139079,0.1217304 -0.1161597,0.1398091 -0.00139,0.011827 0.054138,0.00971 0.075737,-0.00285 z M 8.5048132,5.0999591 C 8.5419286,5.0653052 8.6296033,4.9824392 8.6996501,4.9156914 8.9781842,4.6502815 9.5409613,4.1844609 9.6470887,4.1314705 9.6781975,4.1159516 9.779628,4.0432855 9.8724719,3.9700946 10.206787,3.7064449 10.21639,3.6980691 10.257669,3.6342002 c 0.02305,-0.035615 0.04745,-0.063217 0.06087,-0.068717 0.02454,-0.010053 0.07772,-0.064461 0.07882,-0.080623 4.08e-4,-0.00599 -0.0318,0.015471 -0.07153,0.046741 -0.08117,0.063924 -0.218575,0.1694479 -0.345927,0.265574 -0.046907,0.03539 -0.1248456,0.096507 -0.1731931,0.1357681 -0.048351,0.039301 -0.1256169,0.097367 -0.1717076,0.1291039 -0.046087,0.031737 -0.1038202,0.073906 -0.1282872,0.093647 -0.024479,0.019781 -0.076496,0.061537 -0.1156182,0.092777 -0.4007491,0.3200994 -0.800734,0.6922515 -0.9652427,0.8980632 -0.056764,0.071001 -0.069263,0.098925 -0.023175,0.051743 0.019054,-0.019548 0.065015,-0.063823 0.1021226,-0.098388 z m -0.1028293,0.033179 c 0.016589,-0.02543 0.035474,-0.051605 0.04197,-0.058078 0.00646,-0.00657 0.031367,-0.04076 0.055259,-0.076116 0.023902,-0.035356 0.040223,-0.055091 0.03627,-0.043733 -0.00524,0.015078 7.479e-4,0.011077 0.022992,-0.015271 0.01659,-0.019717 0.069366,-0.075454 0.1172731,-0.1240065 C 8.723653,4.7673806 8.7985537,4.6830924 8.8421872,4.6285855 8.8858142,4.5741285 8.9365702,4.5190547 8.9549572,4.5063064 9.0325452,4.4525614 9.2667296,4.2315769 9.2474313,4.2303507 9.2210343,4.2286807 9.1028921,4.3296237 9.018624,4.4258527 9.000992,4.4459997 8.965595,4.4754587 8.939982,4.4912517 8.856044,4.5431607 8.7812658,4.612603 8.67465,4.7376875 8.616916,4.8054155 8.5628131,4.8661543 8.5544103,4.8726676 c -0.054797,0.04247 -0.1490919,0.179199 -0.1742354,0.2526582 -0.023899,0.069835 -0.0196,0.071331 0.02184,0.00751 z m 2.9331421,0.2160135 c 0.02377,-0.020932 0.05737,-0.070158 0.222834,-0.3265422 0.03716,-0.057605 0.07994,-0.1227444 0.09509,-0.1448346 0.01515,-0.022122 0.04822,-0.074692 0.0735,-0.1168794 0.02528,-0.042177 0.05577,-0.090213 0.06774,-0.1066069 0.01198,-0.016424 0.02192,-0.031983 0.02209,-0.034576 2.05e-4,-0.00299 0.044,-0.070569 0.0974,-0.1511519 0.0534,-0.080554 0.106738,-0.1628241 0.118547,-0.1828269 0.03408,-0.057715 0.10418,-0.1547088 0.128862,-0.1782635 0.02554,-0.024318 0.05509,-0.025511 0.104438,-0.004 0.01685,0.00716 0.03069,0.012217 0.03076,0.01112 6.8e-5,-9.977e-4 -0.02569,-0.024204 -0.05729,-0.050616 -0.06212,-0.051948 -0.06218,-0.064582 -1.8e-4,-0.032886 0.03133,0.01607 0.03698,0.017157 0.0288,0.00597 -0.01935,-0.026879 -0.06821,-0.048555 -0.179184,-0.07978 -0.137686,-0.03866 -0.268164,-0.049364 -0.392951,-0.031816 -0.102011,0.01399 -0.304052,0.086599 -0.40271,0.1447195 -0.03915,0.023089 -0.07831,0.043672 -0.08703,0.045783 -0.01311,0.00312 -0.01864,0.018575 -0.03189,0.088935 -0.02038,0.108124 -0.02262,0.1372691 -0.0097,0.1259626 0.0053,-0.00465 0.01442,-0.038709 0.02013,-0.075505 0.0058,-0.036897 0.01227,-0.068224 0.01447,-0.069577 0.109767,-0.067286 0.265567,-0.1390894 0.370686,-0.1709395 0.152483,-0.04623 0.353343,-0.046863 0.503027,-0.00147 0.07661,0.023167 0.09989,0.038989 0.05262,0.035764 -0.03569,-0.00244 -0.05527,0.016477 -0.109639,0.1060143 -0.02696,0.04437 -0.09644,0.1531533 -0.15438,0.2416751 -0.101641,0.1552928 -0.181361,0.2779321 -0.235456,0.3622462 -0.06198,0.096625 -0.245966,0.375722 -0.286362,0.4344389 -0.08003,0.1163034 -0.114773,0.1494057 -0.128835,0.122757 -0.0021,-0.00415 0.01601,-0.032186 0.04036,-0.062397 0.02435,-0.030213 0.08642,-0.1183029 0.137917,-0.1956978 0.155824,-0.2342191 0.250795,-0.3786908 0.293557,-0.446558 0.06634,-0.1053094 0.33992,-0.5223681 0.349863,-0.5333568 0.01135,-0.012557 -0.01457,-0.00501 -0.07814,0.021532 -0.04659,0.019775 -0.03873,0.00989 -0.166798,0.2079107 -0.438306,0.6775321 -0.559077,0.8530101 -0.656296,0.953597 -0.01993,0.020591 -0.03478,0.038823 -0.033,0.040348 0.0019,0.00113 0.02543,0.010756 0.05253,0.020121 0.02707,0.00987 0.06773,0.023865 0.09029,0.032019 0.05892,0.021158 0.0661,0.020847 0.09418,-0.0038 z M 9.63493,5.0891828 9.6810817,5.0504336 9.5748962,5.0430109 c -0.058391,-0.00408 -0.1084175,-0.00439 -0.1111536,-5.632e-4 -0.00276,0.00383 0.0011,0.013206 0.0086,0.020834 0.018839,0.019328 0.090063,0.062675 0.1045227,0.063661 0.00659,4.472e-4 0.032697,-0.016614 0.058078,-0.037835 z m 0.564133,0.00881 c 0.03393,-0.022944 0.117126,-0.07791 0.184867,-0.1220119 0.181129,-0.117977 0.182536,-0.1189935 0.175424,-0.1268557 -0.0036,-0.00425 -0.05004,-0.018047 -0.10319,-0.031296 -0.05312,-0.013647 -0.119858,-0.031229 -0.148242,-0.039881 -0.02837,-0.00895 -0.05198,-0.015072 -0.05243,-0.014101 -4.55e-4,9.411e-4 -0.04107,0.059542 -0.09027,0.1301187 -0.04918,0.070617 -0.09857,0.1438954 -0.109744,0.1628189 l -0.02031,0.034397 0.04277,0.023164 c 0.02351,0.01273 0.04652,0.02362 0.0511,0.024333 0.0045,6.134e-4 0.0361,-0.017685 0.07003,-0.040629 z M 9.752908,4.9919862 9.783339,4.9604842 9.731529,4.9539442 c -0.028469,-0.00395 -0.1047178,-0.00514 -0.1693045,-0.00453 -0.08544,0.00119 -0.1181981,-4.87e-5 -0.1199536,-0.00734 -0.00136,-0.0051 -0.013067,0.00112 -0.026105,0.015059 -0.023136,0.023981 -0.023309,0.024771 -0.00818,0.037631 0.012379,0.010867 0.044784,0.014682 0.1650343,0.020279 l 0.1495982,0.00719 z m 0.94843,0.025805 c 0.02645,-0.02566 0.105278,-0.069296 0.193403,-0.1070766 0.07696,-0.032939 0.08202,-0.036803 0.135468,-0.1033803 l 0.05553,-0.069182 -0.03717,-0.00755 c -0.0205,-0.00341 -0.03971,-0.00972 -0.04275,-0.01344 -0.0031,-0.00322 -0.02777,0.023766 -0.05495,0.060701 -0.04621,0.062702 -0.05293,0.068257 -0.10323,0.085974 -0.05816,0.02059 -0.222554,0.1071626 -0.22405,0.1180361 -0.0012,0.00893 0.04007,0.050043 0.05149,0.051222 0.005,4.983e-4 0.01688,-0.00687 0.0263,-0.015748 z m -1.0242243,-0.094021 0.1470513,0.001 0.040258,-0.035544 0.040258,-0.035544 -0.1600118,-0.00791 c -0.1363741,-0.0063 -0.1635363,-0.00614 -0.1839652,0.00569 -0.013148,0.00712 -0.025387,0.011799 -0.027164,0.00977 -0.00177,-0.00212 0.016007,-0.014343 0.039504,-0.027375 0.042534,-0.023661 0.043205,-0.023716 0.1545152,-0.016122 0.1464569,0.00992 0.20459,0.00393 0.2372103,-0.02301 0.041253,-0.034473 0.035247,-0.044505 -0.025792,-0.043356 -0.028971,0.00103 -0.1045521,-1.149e-4 -0.168038,-0.00144 l -0.1153986,-0.00286 0.00124,-0.019565 c 7.302e-4,-0.012077 -0.00154,-0.01584 -0.00583,-0.010419 -0.00378,0.00475 -0.027877,0.030072 -0.053392,0.055195 C 9.449604,4.91801 9.4420691,4.929594 9.4983629,4.9248742 c 0.017462,-0.00181 0.097882,-0.00234 0.1787493,-0.00154 z M 9.2795766,4.3089412 C 9.4180604,4.1919344 9.5662128,4.0720289 9.608806,4.0424889 9.6513968,4.0129195 9.7561794,3.9341171 9.8416515,3.867319 10.11591,3.6529765 10.302936,3.5089806 10.360561,3.4677767 c 0.03089,-0.022049 0.06442,-0.050233 0.07452,-0.062573 0.0228,-0.027813 0.06921,-0.1149763 0.06128,-0.115087 -0.0032,-4.81e-5 -0.02039,0.011037 -0.03819,0.024758 -0.0178,0.01362 -0.08357,0.062759 -0.146155,0.1091164 -0.06259,0.046348 -0.152019,0.1140389 -0.198731,0.1503741 -0.106384,0.082752 -0.441204,0.3351211 -0.530496,0.3998746 -0.036844,0.026755 -0.070759,0.051804 -0.075354,0.055701 -0.00512,0.00467 -0.00108,0.01596 0.010586,0.030187 l 0.018903,0.02314 -0.021417,-0.00647 C 9.496608,4.0704978 9.48753,4.0768937 9.437166,4.1274838 9.405833,4.1592248 9.347884,4.2113028 9.3083738,4.2432975 9.1500679,4.3714496 8.8801673,4.6204691 8.8502089,4.6660059 8.8418189,4.6787649 8.8777149,4.6489379 9.2795858,4.3094 Z m 0.7568314,0.4078411 c 0.02987,-0.012898 0.04653,-0.031405 0.03984,-0.044091 -0.004,-0.00729 -0.04066,-0.011794 -0.1405424,-0.014598 -0.074316,-0.00206 -0.1437621,-0.00178 -0.1542944,9.93e-5 -0.014192,0.00305 -0.018964,7.091e-4 -0.018281,-0.00926 0.00182,-0.025742 0.033131,-0.028412 0.1968812,-0.017238 0.1511036,0.01031 0.1635386,0.010154 0.1785106,-0.00446 0.01558,-0.014974 0.0154,-0.015788 -0.0056,-0.025438 -0.04211,-0.01941 -0.1332119,-0.035448 -0.2274561,-0.040172 -0.092682,-0.00431 -0.095809,-0.00453 -0.1107024,0.016004 -0.00839,0.011354 -0.022297,0.025242 -0.030837,0.030673 -0.010465,0.0063 -0.016372,0.021335 -0.01811,0.044971 l -0.00268,0.035108 -0.013519,-0.020268 c -0.012953,-0.019427 -0.014119,-0.019707 -0.027837,-0.00591 -0.00782,0.00748 -0.01767,0.023051 -0.021777,0.033796 l -0.00742,0.019638 0.1706806,0.00563 c 0.1151385,0.00384 0.1779949,0.00212 0.1931019,-0.00427 z m 1.151257,-0.1081928 c 0.190656,-0.08402 0.250763,-0.1411718 0.266501,-0.2532206 0.0069,-0.049048 0.0059,-0.058343 -0.0088,-0.074967 -0.01894,-0.021741 -0.07059,-0.028871 -0.1185,-0.016102 -0.05281,0.013738 -0.119062,0.064347 -0.145011,0.110748 -0.01729,0.030895 -0.03001,0.043859 -0.04591,0.046684 -0.04504,0.00805 -0.150333,0.1134923 -0.157872,0.1580426 -0.0059,0.03458 -0.0023,0.045956 0.01929,0.060051 0.03571,0.023385 0.08503,0.015824 0.190205,-0.030927 z m -0.115508,-0.057093 c -0.01548,-0.021504 0.0094,-0.052988 0.05984,-0.076104 0.03236,-0.014833 0.04515,-0.026389 0.05501,-0.049771 0.03229,-0.07658 0.168769,-0.1483485 0.22046,-0.1159756 0.05542,0.034752 -0.01561,0.1655918 -0.118785,0.2188837 -0.07963,0.041076 -0.194635,0.053278 -0.216522,0.022918 z m 0.17905,-0.026977 c 0.04655,-0.023286 0.0845,-0.057283 0.103531,-0.09287 0.01697,-0.031718 0.01697,-0.032419 8.7e-5,-0.051711 -0.016,-0.018332 -0.01865,-0.018912 -0.04079,-0.0088 -0.0209,0.0099 -0.02414,0.016494 -0.02739,0.054862 -0.0041,0.047736 -0.01099,0.05979 -0.0251,0.043592 -0.0051,-0.00536 -0.014,-0.010978 -0.01983,-0.011376 -0.0096,-6.548e-4 -0.08373,0.077281 -0.08452,0.088855 -5.45e-4,0.00798 0.06206,-0.00709 0.09405,-0.023153 z m -1.4010972,0.015706 c 0.00983,-0.013762 0.078305,-0.013702 0.1570152,1.853e-4 0.04272,0.00792 0.07881,0.012391 0.08005,0.011475 0.0012,-9.169e-4 -0.03088,-0.021851 -0.07141,-0.046166 -0.067555,-0.040491 -0.1211951,-0.058183 -0.1224131,-0.040324 -2.716e-4,0.004 -0.017059,0.023593 -0.037321,0.043662 -0.024145,0.023912 -0.032438,0.036779 -0.024056,0.037348 0.00699,4.743e-4 0.015241,-0.00296 0.018184,-0.00678 z m 0.7195152,0.016203 c 0.140696,-0.025685 0.224001,-0.063703 0.317288,-0.1447028 0.04055,-0.035223 0.07401,-0.068121 0.07436,-0.073209 0.0025,-0.036911 -0.08255,-0.1137322 -0.171383,-0.1547722 -0.0363,-0.01681 -0.08521,-0.047208 -0.108695,-0.067654 -0.02349,-0.020445 -0.05481,-0.043431 -0.06962,-0.051057 -0.01789,-0.00924 -0.02572,-0.018593 -0.02331,-0.027951 0.0052,-0.020493 0.107726,-0.061611 0.14696,-0.058934 0.0698,0.00476 0.127354,0.056197 0.165889,0.1482531 0.0246,0.05871 0.07787,0.1496164 0.10274,0.1752383 l 0.01574,0.016209 -0.01145,-0.070538 c -0.01577,-0.097199 -0.05291,-0.185733 -0.102116,-0.2432044 -0.04497,-0.052483 -0.114685,-0.097831 -0.154712,-0.1005621 -0.0288,-0.00197 -0.08733,0.026818 -0.142109,0.069891 -0.04678,0.036802 -0.115807,0.1330873 -0.132435,0.1847256 -0.01941,0.060318 -0.0348,0.07731 -0.06796,0.075048 -0.02256,-0.00154 -0.03266,-0.00925 -0.05272,-0.037475 -0.03122,-0.044828 -0.05647,-0.054068 -0.08446,-0.03122 -0.01142,0.00934 -0.02586,0.015978 -0.03206,0.014652 -0.04136,-0.00884 -0.04681,0.023268 -0.0085,0.050335 0.03071,0.021741 0.03834,0.023264 0.03941,0.0077 4.09e-4,-0.00599 -0.0092,-0.016769 -0.02152,-0.023618 -0.0135,-0.00794 -0.01793,-0.013652 -0.01119,-0.015497 0.02607,-0.00724 0.0509,0.01149 0.07373,0.055246 0.01303,0.025145 0.03766,0.062408 0.05475,0.082618 0.03523,0.041794 0.03617,0.069923 0.0021,0.064195 -0.01129,-0.00178 -0.05435,-0.00671 -0.09569,-0.010541 -0.07891,-0.00739 -0.114391,-0.022938 -0.173597,-0.073986 -0.02388,-0.020571 -0.02556,-0.0258 -0.02252,-0.070396 0.0017,-0.026438 -5.38e-4,-0.052557 -0.0052,-0.057893 -0.0047,-0.00534 -0.0054,-0.017808 -0.0017,-0.027476 0.0056,-0.014344 0.0113,-0.016469 0.0296,-0.011111 0.01243,0.00385 0.04134,0.00373 0.06424,3.692e-4 0.02907,-0.00403 0.04238,-0.00413 0.04398,0.00264 0.0045,0.017141 0.03174,0.011186 0.0429,-0.0096 0.01696,-0.031319 0.01475,-0.036481 -0.01674,-0.038629 -0.02086,-0.00142 -0.03128,-0.00714 -0.03717,-0.020176 -0.01826,-0.040537 0.01553,-0.082333 0.123396,-0.1523457 0.03922,-0.025489 0.07467,-0.048931 0.07874,-0.051961 0.0041,-0.00273 -0.01996,-0.021207 -0.05342,-0.040228 -0.03787,-0.021527 -0.06967,-0.04685 -0.08422,-0.067187 l -0.02336,-0.032666 -0.02341,0.018951 c -0.04519,0.036603 -0.09515,0.1057442 -0.138167,0.1911841 -0.04501,0.089345 -0.1297534,0.3565764 -0.1341887,0.4230788 -0.00265,0.039812 -0.00877,0.034383 0.1375587,0.1223451 0.101858,0.061174 0.138084,0.070761 0.290196,0.076326 0.07606,0.00318 0.124873,-5.019e-4 0.200085,-0.01452 z M 10.307944,4.3536596 c 0.0069,-0.00955 -0.02344,-0.039588 -0.06415,-0.063613 -0.01882,-0.011307 -0.05121,-0.03266 -0.07194,-0.047906 -0.04355,-0.031939 -0.06741,-0.036874 -0.06899,-0.013727 -0.0033,0.048885 0.0904,0.1133245 0.190249,0.1307503 0.0055,9.496e-4 0.01209,-0.00118 0.01479,-0.00501 z m 0.770721,-0.1359544 c 6.14e-4,-0.00798 0.01211,-0.03656 0.02545,-0.063114 0.03106,-0.061729 0.03152,-0.074627 0.0051,-0.1420531 -0.025,-0.06375 -0.09879,-0.1513739 -0.189662,-0.2252394 -0.121881,-0.099124 -0.334261,-0.2341507 -0.425881,-0.270861 -0.0302,-0.012083 -0.03211,-0.011211 -0.06974,0.017193 -0.02129,0.016289 -0.03926,0.032404 -0.03992,0.035867 -6.37e-4,0.00297 0.0092,0.00664 0.02181,0.0075 0.02821,0.00215 0.08282,0.030909 0.119022,0.062645 0.03965,0.034779 0.051,0.069933 0.03833,0.1187838 -0.01701,0.065594 -0.05288,0.099873 -0.19034,0.1818681 -0.04868,0.029053 -0.0929,0.058915 -0.09822,0.06637 -0.01395,0.019496 0.0093,0.045642 0.05864,0.065843 0.04099,0.01683 0.05494,0.035722 0.06343,0.085916 0.0021,0.012876 0.0072,0.023645 0.01118,0.023916 0.01511,0.00103 0.01723,-0.032502 0.005,-0.078844 -0.0089,-0.033377 -0.01,-0.052598 -0.0038,-0.062501 0.01781,-0.028454 0.152782,-0.1336724 0.193691,-0.1510086 0.02306,-0.00976 0.05916,-0.019218 0.08023,-0.020888 0.0365,-0.00252 0.03824,-0.00441 0.0364,-0.027788 -0.0011,-0.013504 1.49e-4,-0.024446 0.0027,-0.024274 0.0025,1.694e-4 0.0415,0.022176 0.0866,0.048807 0.132603,0.078506 0.194251,0.161003 0.235646,0.3154181 0.0173,0.064528 0.03101,0.078993 0.0343,0.036018 z M 9.4495477,4.069794 C 9.4499558,4.063804 9.4392227,4.040825 9.4257257,4.018453 L 9.4011697,3.977888 9.3959997,4.01412 c -0.00287,0.019952 -0.00385,0.05276 -0.00218,0.073021 l 0.003,0.036889 0.026052,-0.021778 c 0.014326,-0.011953 0.026378,-0.026566 0.026788,-0.032553 z m 1.4071703,0.07594 c 3.4e-4,-0.00499 -0.0059,-0.023954 -0.01389,-0.042645 -0.02697,-0.063182 -0.123255,-0.1084394 -0.160876,-0.075523 -0.0117,0.010224 -0.01346,0.016922 -0.0074,0.02816 0.01137,0.021123 0.0795,0.073582 0.109892,0.084675 0.03584,0.01307 0.07157,0.015707 0.07228,0.00536 z M 9.5110846,3.9975143 C 9.5658826,3.9523393 9.7376066,3.8201188 9.8550612,3.732579 9.9135232,3.689056 9.9973287,3.6250116 10.041306,3.5903641 c 0.09155,-0.072137 0.296248,-0.22469 0.394899,-0.2942977 0.08844,-0.062426 0.153317,-0.1252365 0.167481,-0.1621984 0.0087,-0.022562 0.009,-0.028756 0.0014,-0.024864 -0.04206,0.021087 -0.274735,0.1808626 -0.41592,0.2855471 -0.0487,0.036069 -0.129675,0.094914 -0.179945,0.1306768 C 9.9589579,3.5609899 9.8853614,3.6138039 9.8456901,3.642581 9.8060231,3.671348 9.7390412,3.715292 9.6968624,3.740109 9.6546784,3.764996 9.577513,3.81476 9.5253831,3.8507256 c -0.05213,0.035936 -0.1035233,0.068814 -0.1142089,0.072897 -0.021203,0.00857 -0.027851,0.029473 -0.00962,0.030717 0.01287,8.796e-4 0.1837494,-0.1024623 0.2587989,-0.1565005 l 0.049805,-0.035894 -0.062706,0.056564 c -0.034485,0.031126 -0.097205,0.076964 -0.1393565,0.1018625 -0.042153,0.024889 -0.076813,0.047683 -0.077018,0.050676 -3.403e-4,0.00499 0.038835,0.055171 0.043036,0.055457 8.97e-4,6.13e-5 0.017546,-0.013036 0.036991,-0.02895 z m 1.7761874,0.04027 c 0.07095,-0.039663 0.233996,-0.1063824 0.326634,-0.1336911 0.134197,-0.039559 0.422135,-0.024833 0.547092,0.028298 0.102047,0.043145 0.05532,-0.00715 -0.05024,-0.054044 -0.10037,-0.044533 -0.145213,-0.053908 -0.281836,-0.058616 -0.111877,-0.00363 -0.129526,-0.00182 -0.21998,0.020577 -0.128618,0.032422 -0.236505,0.074578 -0.336425,0.1314495 -0.04453,0.025329 -0.08433,0.045867 -0.08845,0.045585 -0.0098,-6.769e-4 -0.01076,0.018109 -0.0022,0.046361 0.0084,0.027837 0.01076,0.027197 0.105358,-0.025589 z m -0.05164,-0.085914 c 0.245109,-0.1355435 0.513136,-0.1966848 0.709366,-0.1618097 0.05077,0.00947 0.110652,0.026492 0.152494,0.044481 0.05953,0.025611 0.0662,0.027168 0.04918,0.011373 -0.0488,-0.045828 -0.160612,-0.095351 -0.26334,-0.116692 -0.155344,-0.032346 -0.412107,0.026316 -0.663867,0.1514922 -0.07889,0.039222 -0.103711,0.045347 -0.108022,0.02641 -0.0025,-0.010692 0.19282,-0.1040385 0.297155,-0.1420566 0.25359,-0.092397 0.448853,-0.102441 0.604986,-0.031096 0.0406,0.018506 0.0448,0.01809 0.02215,-0.0025 -0.05965,-0.053484 -0.153904,-0.087075 -0.265793,-0.094708 -0.09703,-0.00659 -0.159308,0.00267 -0.349687,0.052024 -0.13528,0.035075 -0.165621,0.046236 -0.232845,0.085773 -0.04251,0.024965 -0.08444,0.052676 -0.09315,0.061404 -0.01295,0.013049 -0.01802,0.013906 -0.02767,0.00513 -0.02476,-0.023539 -0.02409,-0.024095 0.127748,-0.1060321 0.05869,-0.031679 0.106799,-0.047943 0.249548,-0.084282 l 0.176845,-0.04507 0.148747,0.010151 0.148739,0.010151 -0.03469,-0.018302 c -0.02346,-0.012425 -0.06034,-0.021154 -0.113961,-0.027018 -0.09166,-0.010265 -0.116607,-0.015973 -0.115824,-0.027445 3.4e-4,-0.00499 0.0033,-0.00779 0.0067,-0.00656 0.0034,7.869e-4 0.03776,0.00312 0.07634,0.0052 0.05973,0.00322 0.0688,0.00168 0.06103,-0.00886 -0.02562,-0.035526 -0.130297,-0.056097 -0.229184,-0.045002 -0.06606,0.00742 -0.15004,0.038178 -0.148255,0.054237 8.52e-4,0.00808 -0.01638,0.017626 -0.05014,0.027852 -0.128797,0.038925 -0.209824,0.078402 -0.304892,0.1484752 -0.05598,0.041285 -0.08279,0.050583 -0.08127,0.028235 0.001,-0.014567 0.104248,-0.08841 0.172893,-0.1236706 0.04909,-0.025217 0.12573,-0.057878 0.211594,-0.090159 0.02132,-0.00756 0.0565,-0.02401 0.07809,-0.035468 0.05318,-0.028246 0.121495,-0.044936 0.192361,-0.047017 l 0.05899,-0.00199 -0.03641,-0.020726 c -0.03239,-0.018448 -0.05053,-0.021689 -0.164191,-0.029643 l -0.127778,-0.0089 -0.05117,0.04412 c -0.04497,0.038729 -0.04833,0.043611 -0.02776,0.040003 0.04442,-0.00779 0.02244,0.00554 -0.06577,0.039816 -0.09377,0.036503 -0.161853,0.077966 -0.245353,0.1493992 -0.04316,0.036948 -0.05297,0.041993 -0.06315,0.032277 -0.0066,-0.00646 -0.01183,-0.014739 -0.01155,-0.01873 0.0013,-0.019455 0.264603,-0.2505734 0.329989,-0.2897045 0.03669,-0.021954 0.03785,-0.02378 0.0235,-0.036386 -0.02729,-0.024013 -0.0953,-0.058421 -0.131099,-0.066275 -0.04635,-0.010182 -0.07272,-0.00469 -0.08521,0.017842 -0.0056,0.010147 -0.05965,0.067898 -0.12008,0.1283355 -0.06043,0.060428 -0.116779,0.1199709 -0.125223,0.1322747 -0.01685,0.02451 -0.03516,0.028072 -0.04134,0.0079 -0.0043,-0.013924 0.03896,-0.063194 0.196058,-0.223636 0.05176,-0.0529 0.100353,-0.098128 0.107952,-0.1005769 0.0076,-0.00249 0.0403,-0.00427 0.07265,-0.00406 0.03591,4.426e-4 0.087,-0.00709 0.131207,-0.019315 0.08526,-0.023552 0.07839,-0.032842 -0.02495,-0.033777 -0.06696,-5.535e-4 -0.145001,0.015167 -0.210632,0.042765 -0.05096,0.021382 -0.145233,0.1031753 -0.233751,0.2027324 -0.06572,0.073899 -0.08861,0.094448 -0.104136,0.09339 -0.01095,-7.444e-4 -0.01837,-0.00526 -0.01657,-0.00915 0.0058,-0.013636 0.16371,-0.1756259 0.23158,-0.2375707 0.07327,-0.066869 0.130614,-0.094761 0.247379,-0.1203237 0.08556,-0.018721 0.07457,-0.029493 -0.03079,-0.030066 -0.103721,-0.00106 -0.179536,0.031655 -0.27466,0.1168792 -0.08466,0.075915 -0.155898,0.1521432 -0.191226,0.204761 -0.02424,0.036133 -0.04767,0.046163 -0.05367,0.023103 -0.0043,-0.016736 0.118509,-0.1521175 0.216838,-0.2388969 0.102239,-0.090251 0.131316,-0.1068411 0.234616,-0.1340543 l 0.05564,-0.014647 -0.03239,-0.00822 c -0.0499,-0.013426 -0.143339,0.00536 -0.208585,0.041902 -0.03127,0.017511 -0.08752,0.062789 -0.131933,0.1062176 -0.09809,0.095887 -0.126079,0.1288585 -0.154396,0.1818243 -0.0208,0.038874 -0.03715,0.050388 -0.05032,0.035257 -0.01016,-0.01162 0.06468,-0.1178106 0.134524,-0.1907472 0.09848,-0.1028669 0.249062,-0.2064189 0.295549,-0.2032479 0.0062,4.201e-4 0.01158,-0.00322 0.01185,-0.00721 3.41e-4,-0.00499 -0.02427,-0.00967 -0.0572,-0.01192 -0.05555,-0.00379 -0.05976,-0.00308 -0.111089,0.030711 -0.02933,0.019048 -0.07776,0.057942 -0.107606,0.086377 -0.02985,0.028435 -0.05401,0.048035 -0.0537,0.043546 0.0012,-0.01766 0.06358,-0.08928 0.118575,-0.136136 l 0.05801,-0.049366 -0.04177,0.00116 c -0.04878,0.00168 -0.06361,0.014005 -0.103464,0.087061 -0.01461,0.026768 -0.05125,0.086713 -0.08144,0.1331557 -0.0798,0.1228544 -0.128001,0.2087028 -0.122759,0.2186424 0.0025,0.00517 0.01125,0.00879 0.01937,0.00934 0.03798,0.00259 0.374085,0.219527 0.472015,0.3046589 0.06084,0.052863 0.134202,0.131167 0.164411,0.1754356 0.01674,0.024495 0.03237,0.044706 0.03476,0.044869 0.0024,1.627e-4 0.03581,-0.017104 0.07424,-0.038336 z M 10.840371,3.6400191 c -0.0095,-0.00666 -0.0067,-0.012085 0.01489,-0.027551 0.03521,-0.025262 0.04261,-0.023755 0.02518,0.00472 -0.01776,0.029259 -0.02519,0.033463 -0.04005,0.022626 z M 10.498804,3.4153932 c 0.0032,-0.00479 0.0073,-0.00752 0.0094,-0.00738 0.002,1.356e-4 0.0034,0.00424 0.0032,0.00823 -3.4e-4,0.00499 -0.0045,0.00771 -0.0094,0.00738 -0.0049,-3.319e-4 -0.0062,-0.00444 -0.0032,-0.00823 z m -0.06686,0.3842612 c -0.0053,-0.060408 -0.07912,-0.111794 -0.124792,-0.087095 -0.03055,0.01656 0.01666,0.085231 0.07319,0.1065079 0.04786,0.017998 0.05475,0.015362 0.05161,-0.019433 z m 0.06885,0.0077 c 0.04079,-0.056957 0.01702,-0.118757 -0.06516,-0.1697685 -0.05203,-0.032316 -0.116961,-0.024516 -0.143009,0.017008 -0.0088,0.014128 -0.0065,0.014989 0.03639,0.012806 0.03855,-0.00238 0.05108,0.00148 0.0789,0.019415 0.03225,0.021144 0.06306,0.074965 0.0609,0.1065117 -9.56e-4,0.013968 0.0055,0.040471 0.01,0.040779 0.0014,9.49e-5 0.01132,-0.011959 0.02194,-0.026769 z m 1.030329,-0.4401423 0.03848,0.00192 -0.0445,-0.025487 c -0.03863,-0.02208 -0.05415,-0.025946 -0.117601,-0.029271 -0.0402,-0.00212 -0.08748,-0.00196 -0.105031,-1.527e-4 l -0.03195,0.00384 0.02332,0.023042 c 0.02275,0.0224 0.02553,0.022991 0.111043,0.023613 0.04824,2.823e-4 0.105058,0.00115 0.126203,0.0026 z m -0.243425,-0.07063 c 0.01714,-0.00585 0.0599,-0.01105 0.09502,-0.011658 0.063,-7.168e-4 0.06356,-0.00168 0.03785,-0.014157 -0.03101,-0.015647 -0.118584,-0.023024 -0.142819,-0.011744 -0.0095,0.00437 -0.03321,0.00966 -0.05281,0.012035 l -0.03566,0.00459 0.02837,0.015467 c 0.03526,0.019144 0.03255,0.01896 0.07001,0.00578 z"
       id="path1-8"
       sodipodi:nodetypes="ccssccccccccccsscscscccscccsscssscsccsscsccccccsccsscsscscccccccccccscscscsssscsccscscsssscscsscscsccccccccccssscssccscscssccccscccccscsscccssccsscsssssccccccscsccscccscccsccsscccsccccccsccccscscsscscccccccsccscsccccccsccccccccssccscsssccssssccsccsccccccsssscccsssccccscccscsccccccscscccccccsccccsscccscsssscccccscsccccsccccscscsssccscssccsccsscsscsscccssccsscccsscccscscccsssccccsssccsssscccccsssssccccccccssccccsccccccscsscccccccsssscsccsccccccccsccsscsssccccccssssccscccccscssscccssssscsssscccccccccccccscccccccssscscccccccccccccccccccccsccccccccccccccccscsccccccccscsscccccccsccccccsscccccscsccccccccccscsccccccccccccccscssccccccsssccccccsscscscscsssscssssccccccssscccccscccsscssscccccccssccccscscccssssccssssccscscccscccccccscccsssccccsccsscscsccssssccccccccssscccccccscscccscccsccccccscscsccssscsccscccscscsscssscssccsccsscssccscssccscscsssscsscccsccssssccccccccccccccccccccccsscccccccccccccccscccccccs" />
    <path
       style="fill:url(#linearGradient7);stroke:none;stroke-width:0.0580001;stroke-linecap:round;stroke-linejoin:round"
       d="M 2.6436627,9.2619358 C 2.8138295,9.6144241 3.1776901,10.222343 3.9199136,10.64758 3.3953728,10.029043 2.7358236,9.3617366 2.9900737,8.8972924 L 2.2607874,7.9492202 C 2.1047206,8.2733153 2.316701,8.7446293 2.6436627,9.2619358 Z"
       id="path6"
       sodipodi:nodetypes="ccccc" />
    <ellipse
       style="fill:url(#radialGradient9);stroke:none;stroke-width:0.0580001;stroke-linecap:round;stroke-linejoin:round"
       id="path7"
       cx="3.2312167"
       cy="8.5734959"
       rx="0.85550314"
       ry="0.90474069" />
    <ellipse
       style="fill:url(#radialGradient9-7);stroke:none;stroke-width:0.0580001;stroke-linecap:round;stroke-linejoin:round"
       id="path7-0"
       cx="2.9745672"
       cy="8.2062817"
       rx="0.78430831"
       ry="0.90474069" />
    <path
       style="fill:none;fill-opacity:1;stroke:#42b0ac;stroke-width:0.158;stroke-linecap:round;stroke-linejoin:round;stroke-dasharray:0.158, 0.474;stroke-dashoffset:1.738;stroke-opacity:1"
       d="M 4.0937036,8.2052058 7.9560238,5.9625682 M 5.8201785,7.5822509"
       id="path10"
       sodipodi:nodetypes="cc" />
    <path
       style="fill:none;fill-opacity:1;stroke:#42b0ac;stroke-width:0.158;stroke-linecap:round;stroke-linejoin:round;stroke-dasharray:0.158, 0.474;stroke-dashoffset:1.738;stroke-opacity:1"
       d="M 4.3983163,8.5074213 8.5098185,6.3893747"
       id="path10-0"
       sodipodi:nodetypes="cc" />
    <path
       style="fill:none;fill-opacity:1;stroke:#4b291c;stroke-width:0.058;stroke-linecap:round;stroke-linejoin:round;stroke-dasharray:none;stroke-dashoffset:0.638;stroke-opacity:1"
       d="M 3.4393856,10.290592 C 3.5707567,10.409963 11.893472,5.9790192 12.122822,5.6113472"
       id="path11"
       sodipodi:nodetypes="cc" />
    <path
       style="fill:url(#linearGradient13);stroke:none;stroke-width:0.0580001;stroke-linecap:round;stroke-linejoin:round;stroke-dasharray:none;stroke-dashoffset:2.41134;stroke-opacity:1"
       d="m 12.07368,5.1888278 c -0.06656,0.297086 0.08776,0.4101144 -0.319054,0.9907469 -0.215219,0.2271728 -0.765163,0.5380267 -1.286074,0.8416224 L 10.276902,6.397875 Z"
       id="path12"
       sodipodi:nodetypes="ccccc" />
  </g>
</svg>
