<?xml version="1.0" encoding="UTF-8" standalone="no"?>
<!-- Created with Inkscape (http://www.inkscape.org/) -->

<svg
   width="15mm"
   height="15mm"
   viewBox="0 0 15 15"
   version="1.1"
   id="svg1"
   inkscape:export-filename="fairy-tree.png"
   inkscape:export-xdpi="96"
   inkscape:export-ydpi="96"
   inkscape:version="1.3.2 (091e20e, 2023-11-25)"
   sodipodi:docname="fairy-tree.svg"
   xmlns:inkscape="http://www.inkscape.org/namespaces/inkscape"
   xmlns:sodipodi="http://sodipodi.sourceforge.net/DTD/sodipodi-0.dtd"
   xmlns:xlink="http://www.w3.org/1999/xlink"
   xmlns="http://www.w3.org/2000/svg"
   xmlns:svg="http://www.w3.org/2000/svg">
  <sodipodi:namedview
     id="namedview1"
     pagecolor="#ffffff"
     bordercolor="#000000"
     borderopacity="0.25"
     inkscape:showpageshadow="2"
     inkscape:pageopacity="0.0"
     inkscape:pagecheckerboard="0"
     inkscape:deskcolor="#d1d1d1"
     inkscape:document-units="mm"
     showguides="false"
     inkscape:zoom="5.580178"
     inkscape:cx="-0.89602877"
     inkscape:cy="50.177611"
     inkscape:window-width="1792"
     inkscape:window-height="993"
     inkscape:window-x="0"
     inkscape:window-y="25"
     inkscape:window-maximized="0"
     inkscape:current-layer="layer1" />
  <defs
     id="defs1">
    <linearGradient
       id="linearGradient3"
       inkscape:collect="always">
      <stop
         style="stop-color:#bfb370;stop-opacity:0.960443;"
         offset="0"
         id="stop3" />
      <stop
         style="stop-color:#4a452b;stop-opacity:1;"
         offset="1"
         id="stop6" />
    </linearGradient>
    <linearGradient
       id="linearGradient8"
       inkscape:collect="always">
      <stop
         style="stop-color:#000000;stop-opacity:0.32938388;"
         offset="0"
         id="stop7" />
      <stop
         style="stop-color:#000000;stop-opacity:0.3507109;"
         offset="1"
         id="stop8" />
    </linearGradient>
    <linearGradient
       id="linearGradient4"
       inkscape:collect="always">
      <stop
         style="stop-color:#8e541e;stop-opacity:1;"
         offset="0"
         id="stop4" />
      <stop
         style="stop-color:#ceb186;stop-opacity:1;"
         offset="1"
         id="stop5" />
    </linearGradient>
    <linearGradient
       id="linearGradient1"
       inkscape:collect="always">
      <stop
         style="stop-color:#000000;stop-opacity:1;"
         offset="0"
         id="stop1" />
      <stop
         style="stop-color:#000000;stop-opacity:1"
         offset="1"
         id="stop2" />
    </linearGradient>
    <linearGradient
       inkscape:collect="always"
       xlink:href="#linearGradient1"
       id="linearGradient2"
       x1="7.7841082"
       y1="11.844216"
       x2="7.8146849"
       y2="8.9893599"
       gradientUnits="userSpaceOnUse"
       gradientTransform="translate(-0.02083051,-0.04628535)" />
    <linearGradient
       inkscape:collect="always"
       xlink:href="#linearGradient4"
       id="linearGradient5"
       x1="7.2374334"
       y1="10.325676"
       x2="7.6324596"
       y2="4.7779388"
       gradientUnits="userSpaceOnUse"
       gradientTransform="translate(0.22213609,0.27767011)" />
    <linearGradient
       inkscape:collect="always"
       xlink:href="#linearGradient8"
       id="linearGradient6"
       gradientUnits="userSpaceOnUse"
       gradientTransform="matrix(1,0,-0.50185422,0.60650068,6.4850909,4.913925)"
       x1="7.2374334"
       y1="10.325676"
       x2="7.6324596"
       y2="4.7779388" />
    <radialGradient
       inkscape:collect="always"
       xlink:href="#linearGradient1-5"
       id="radialGradient2"
       cx="7.4090233"
       cy="7.512383"
       fx="7.4090233"
       fy="7.512383"
       r="4.0749102"
       gradientTransform="matrix(1.0919908,0,0,1.0700643,-0.41825373,-2.303392)"
       gradientUnits="userSpaceOnUse" />
    <linearGradient
       id="linearGradient1-5"
       inkscape:collect="always">
      <stop
         style="stop-color:#26ed2d;stop-opacity:1;"
         offset="0"
         id="stop1-7" />
      <stop
         style="stop-color:#275d23;stop-opacity:1;"
         offset="1"
         id="stop2-6" />
    </linearGradient>
    <radialGradient
       inkscape:collect="always"
       xlink:href="#linearGradient3"
       id="radialGradient6"
       cx="5.0663295"
       cy="11.421374"
       fx="5.0663295"
       fy="11.421374"
       r="0.99775028"
       gradientTransform="matrix(1.2601151,-0.24307543,0.15770815,0.83247819,-2.9766144,3.3489865)"
       gradientUnits="userSpaceOnUse" />
    <radialGradient
       inkscape:collect="always"
       xlink:href="#linearGradient3"
       id="radialGradient6-0"
       cx="5.0663295"
       cy="11.421374"
       fx="5.0663295"
       fy="11.421374"
       r="0.99775028"
       gradientTransform="matrix(1.414108,-0.27032651,0.17698094,0.92580696,-0.5608882,2.352609)"
       gradientUnits="userSpaceOnUse" />
    <radialGradient
       inkscape:collect="always"
       xlink:href="#linearGradient3"
       id="radialGradient6-9"
       cx="5.0663295"
       cy="11.421374"
       fx="5.0663295"
       fy="11.421374"
       r="0.99775028"
       gradientTransform="matrix(1.414108,-0.27032651,0.17698094,0.92580696,-2.0079793,2.6327141)"
       gradientUnits="userSpaceOnUse" />
    <radialGradient
       inkscape:collect="always"
       xlink:href="#linearGradient3"
       id="radialGradient6-8"
       cx="5.0663295"
       cy="11.421374"
       fx="5.0663295"
       fy="11.421374"
       r="0.99775028"
       gradientTransform="matrix(0.90813136,-0.17646167,0.11365606,0.60434121,0.16072533,6.0328174)"
       gradientUnits="userSpaceOnUse" />
    <radialGradient
       inkscape:collect="always"
       xlink:href="#linearGradient3"
       id="radialGradient6-8-9"
       cx="5.0663295"
       cy="11.421374"
       fx="5.0663295"
       fy="11.421374"
       r="0.99775028"
       gradientTransform="matrix(0.90813136,-0.17646167,0.11365606,0.60434121,2.4516959,6.0624344)"
       gradientUnits="userSpaceOnUse" />
    <radialGradient
       inkscape:collect="always"
       xlink:href="#linearGradient3"
       id="radialGradient6-8-9-5"
       cx="5.0663295"
       cy="11.421374"
       fx="5.0663295"
       fy="11.421374"
       r="0.99775028"
       gradientTransform="matrix(0.90813136,-0.17646167,0.11365606,0.60434121,0.89310109,5.6123033)"
       gradientUnits="userSpaceOnUse" />
    <radialGradient
       inkscape:collect="always"
       xlink:href="#linearGradient3"
       id="radialGradient6-8-9-5-5-5"
       cx="5.0663295"
       cy="11.421374"
       fx="5.0663295"
       fy="11.421374"
       r="0.99775028"
       gradientTransform="matrix(0.52314912,-0.11287581,0.06547408,0.38657407,6.2250918,8.4037434)"
       gradientUnits="userSpaceOnUse" />
    <radialGradient
       inkscape:collect="always"
       xlink:href="#linearGradient3"
       id="radialGradient6-8-9-5-5-4"
       cx="5.0663295"
       cy="11.421374"
       fx="5.0663295"
       fy="11.421374"
       r="0.99775028"
       gradientTransform="matrix(0.52314912,-0.11287581,0.06547408,0.38657407,3.2060225,8.5131088)"
       gradientUnits="userSpaceOnUse" />
    <radialGradient
       inkscape:collect="always"
       xlink:href="#linearGradient3"
       id="radialGradient6-8-9-5-5-45"
       cx="5.0663295"
       cy="11.421374"
       fx="5.0663295"
       fy="11.421374"
       r="0.99775028"
       gradientTransform="matrix(0.52314912,-0.11287581,0.06547408,0.38657407,2.1314545,8.419978)"
       gradientUnits="userSpaceOnUse" />
    <radialGradient
       inkscape:collect="always"
       xlink:href="#linearGradient3"
       id="radialGradient6-8-9-5-5-55"
       cx="5.0663295"
       cy="11.421374"
       fx="5.0663295"
       fy="11.421374"
       r="0.99775028"
       gradientTransform="matrix(0.52314912,-0.11287581,0.06547408,0.38657407,-1.1858213,8.7938938)"
       gradientUnits="userSpaceOnUse" />
    <radialGradient
       inkscape:collect="always"
       xlink:href="#linearGradient3"
       id="radialGradient6-8-9-5-5-48"
       cx="5.0663295"
       cy="11.421374"
       fx="5.0663295"
       fy="11.421374"
       r="0.99775028"
       gradientTransform="matrix(0.52314912,-0.11287581,0.06547408,0.38657407,4.5134174,7.3454101)"
       gradientUnits="userSpaceOnUse" />
  </defs>
  <g
     inkscape:label="Layer 1"
     inkscape:groupmode="layer"
     id="layer1">
    <path
       style="fill:#000000;fill-opacity:0.297468;stroke-width:0.999996"
       d="M 9.4255756,8.3034353 C 9.3998626,8.2993953 9.3903666,8.2901593 9.3644156,8.2441883 9.3292796,8.1819673 9.3045046,8.1536233 9.2740796,8.140862 9.2327406,8.12352 9.1846206,8.111429 9.1569546,8.111429 c -0.028509,0 -0.038512,0.00339 -0.2810576,0.095226 -0.073888,0.027982 -0.1423404,0.053373 -0.1521149,0.05644 -0.00977,0.00306 -0.032079,0.010541 -0.049564,0.016613 -0.01751,0.00612 -0.050119,0.017333 -0.072521,0.025022 -0.022378,0.00764 -0.061262,0.02128 -0.086361,0.030203 -0.02509,0.0089 -0.05781,0.020327 -0.072689,0.025337 -0.014893,0.00504 -0.059828,0.020642 -0.099895,0.034746 -0.077306,0.027208 -0.1547615,0.049496 -0.2797887,0.080518 -0.04224,0.010479 -0.084963,0.021874 -0.094933,0.025311 -0.00996,0.00342 -0.027351,0.00792 -0.038596,0.0099 -0.011239,0.00198 -0.03574,0.00729 -0.05443,0.011792 -0.2227102,0.05342 -0.5047705,0.077184 -0.6538991,0.055084 -0.0804,-0.011909 -0.1082135,-0.03408 -0.1188187,-0.094686 -0.013081,-0.074752 0.027148,-0.1630725 0.1659205,-0.3642935 0.040932,-0.059349 0.148195,-0.2000636 0.1642814,-0.2155242 0.02451,-0.023547 0.061373,-0.062862 0.1273688,-0.135839 0.069442,-0.076787 0.2374595,-0.2362099 0.3420162,-0.3245217 0.025105,-0.021205 0.04638,-0.039951 0.047278,-0.04166 0.00141,-0.00268 0.093481,-0.079524 0.248335,-0.2072586 C 8.3121382,7.0992688 8.5769317,6.9048115 8.6673823,6.8487634 8.7247248,6.813231 8.8368729,6.7492313 8.9323721,6.6975409 9.0775546,6.6189577 9.205928,6.5522074 9.2376637,6.5387971 c 0.056177,-0.023737 0.2024947,-0.093354 0.2273257,-0.1081589 0.021915,-0.013066 0.073157,-0.033983 0.1662099,-0.067843 0.069522,-0.025298 0.09377,-0.042179 0.093214,-0.064895 -4.998e-4,-0.020291 -0.0079,-0.025171 -0.07743,-0.051044 C 9.5761943,6.2205129 9.3515724,6.075104 9.2731633,6.004857 9.2101026,5.9483611 9.1338097,5.8566358 9.0755964,5.7673277 9.0315165,5.6997008 8.9421428,5.5258951 8.9372302,5.4982441 c -0.0023,-0.012887 -0.00757,-0.031548 -0.011727,-0.041467 -0.00645,-0.015371 -0.022949,-0.079416 -0.041722,-0.1619144 -0.00266,-0.011685 -0.00818,-0.031163 -0.012254,-0.043282 -0.00828,-0.02457 -0.034162,-0.1598924 -0.031544,-0.16487 9.235e-4,-0.00175 -0.00123,-0.040118 -0.00478,-0.085267 -0.00628,-0.079923 -0.00758,-0.3002095 -0.00185,-0.3112032 0.00269,-0.00515 0.00372,-0.016006 0.00933,-0.099932 0.00338,-0.050448 0.028032,-0.1701011 0.054073,-0.2624793 0.00449,-0.01587 0.011714,-0.041839 0.016087,-0.05771 0.028992,-0.105146 0.070183,-0.2047781 0.129575,-0.3133786 0.055762,-0.1019253 0.064813,-0.1155432 0.098545,-0.1482997 0.072697,-0.070543 0.1629473,-0.1180848 0.2827357,-0.148936 0.058003,-0.014939 0.2242315,-0.018721 0.2897515,-0.00659 0.020142,0.00373 0.059735,0.010455 0.087979,0.014949 0.044617,0.0071 0.168397,0.038384 0.2259516,0.057109 0.02373,0.00772 0.161414,0.064033 0.177084,0.072426 0.0063,0.00341 0.03538,0.018079 0.06447,0.032596 0.02909,0.014517 0.06314,0.032302 0.07567,0.039523 0.01252,0.00722 0.03814,0.022008 0.05692,0.03286 0.06186,0.035751 0.183647,0.116429 0.205088,0.1358604 0.01158,0.010494 0.02259,0.019079 0.02449,0.019079 0.0069,0 0.09428,0.078513 0.131428,0.1180074 0.05091,0.054118 0.121578,0.1321481 0.12686,0.1400681 0.0023,0.00351 0.01095,0.012539 0.01912,0.020065 0.0082,0.00753 0.01564,0.015399 0.01658,0.017498 9.32e-4,0.00209 0.0088,0.01249 0.01753,0.023095 0.0087,0.010603 0.02138,0.027761 0.02817,0.038128 0.0068,0.010366 0.02714,0.040626 0.04522,0.067243 0.01809,0.026618 0.04867,0.076382 0.06797,0.1105884 0.0193,0.034205 0.04657,0.078466 0.06059,0.098357 0.12187,0.1714557 0.05414,0.4225906 0.308647,0.1388211 0.07701,-0.1064059 0.206599,-0.2784135 0.247285,-0.3282247 0.01301,-0.01587 0.03328,-0.041839 0.04517,-0.05771 0.04999,-0.066776 0.173595,-0.2052298 0.235078,-0.2633004 0.01467,-0.013886 0.05587,-0.05284 0.09147,-0.086565 0.03561,-0.033724 0.08958,-0.090532 0.119934,-0.1262402 0.119634,-0.1407275 0.264516,-0.2765203 0.38231,-0.3583253 0.05157,-0.035813 0.165857,-0.100513 0.217281,-0.1230059 0.06846,-0.029943 0.127457,-0.046983 0.218212,-0.063027 0.103124,-0.01823 0.137527,-0.018372 0.217678,-8.978e-4 0.06502,0.014175 0.0834,0.022016 0.140472,0.059923 0.05244,0.034835 0.09933,0.1096663 0.111995,0.1787519 0.0033,0.017854 0.007,0.034085 0.0082,0.036069 0.0013,0.00198 0.0025,0.0101 0.0028,0.018034 2.33e-4,0.00793 0.0011,0.029035 0.0018,0.046889 0.0025,0.06455 -0.02246,0.2154423 -0.0463,0.2795989 -0.0047,0.012932 -0.0067,0.025296 -0.0042,0.027477 0.0025,0.00218 4.55e-4,0.011699 -0.0045,0.021149 -0.005,0.00945 -0.007,0.018958 -0.0046,0.021127 0.0025,0.00217 0.0015,0.01291 -0.0021,0.02387 -0.0036,0.010959 -0.0184,0.065372 -0.03281,0.1209182 -0.0262,0.1009793 -0.03636,0.1374323 -0.05532,0.1983775 -0.0055,0.017854 -0.01396,0.045446 -0.0187,0.061317 -0.01645,0.05522 -0.05304,0.1733858 -0.06588,0.212805 -0.05023,0.1540985 -0.07257,0.2903509 -0.04938,0.3011164 0.005,0.00236 0.01521,-0.00172 0.02388,-0.00959 0.03138,-0.028486 0.690718,-0.461525 0.801347,-0.5263068 0.117249,-0.068656 0.248278,-0.1419011 0.303743,-0.1697843 0.154709,-0.077776 0.184929,-0.092693 0.294732,-0.1454814 0.06396,-0.030749 0.11786,-0.055907 0.119784,-0.055907 0.0019,0 0.02773,-0.011362 0.05737,-0.025248 0.02963,-0.013886 0.05526,-0.025248 0.05693,-0.025248 0.0017,0 0.05853,-0.023648 0.126312,-0.052553 0.17063,-0.072756 0.350805,-0.1408925 0.480575,-0.1817389 0.03423,-0.010776 0.07031,-0.022221 0.08016,-0.025433 0.172717,-0.056324 0.438882,-0.1238019 0.569345,-0.1443386 0.02893,-0.00456 0.07018,-0.011263 0.09168,-0.014912 0.06227,-0.010566 0.267321,-0.00811 0.300848,0.00359 0.0911,0.031822 0.126047,0.094662 0.108643,0.1953644 -0.0074,0.042489 -0.09481,0.2131635 -0.143668,0.280398 -0.01633,0.022336 -0.04282,0.059279 -0.05907,0.082092 -0.04035,0.056646 -0.10017,0.1364695 -0.128407,0.171326 -0.04741,0.05854 -0.2307,0.2678069 -0.258636,0.2953143 -0.01593,0.015624 -0.03095,0.032395 -0.03352,0.037271 -0.0025,0.00488 -0.0079,0.00995 -0.01169,0.011269 -0.0038,0.00133 -0.05265,0.046228 -0.108437,0.09979 -0.107286,0.1029986 -0.137221,0.1307242 -0.175796,0.1628749 -0.01312,0.010943 -0.04676,0.041264 -0.07472,0.067376 -0.02797,0.026113 -0.08812,0.07784 -0.133668,0.1149478 -0.04556,0.037109 -0.08409,0.069879 -0.08564,0.072823 -0.0015,0.00294 -0.0126,0.011228 -0.02452,0.018409 -0.0119,0.00717 -0.02325,0.015976 -0.02512,0.019544 -0.0019,0.00356 -0.01887,0.016861 -0.03777,0.02954 -0.01888,0.01268 -0.03552,0.025256 -0.03696,0.027948 -0.0014,0.00269 -0.0091,0.00918 -0.01689,0.014427 -0.0079,0.00525 -0.03098,0.022518 -0.05139,0.038387 -0.100661,0.078291 -0.409707,0.2835482 -0.525083,0.3487502 -0.04646,0.026254 -0.08713,0.049606 -0.09036,0.051894 -0.0032,0.00229 -0.01532,0.00884 -0.02683,0.014563 -0.01152,0.00572 -0.04204,0.022496 -0.06784,0.037277 -0.07097,0.040662 -0.184969,0.099366 -0.192962,0.099366 -0.0039,0 -0.0084,0.00264 -0.01013,0.00589 -0.0017,0.00324 -0.0212,0.013787 -0.04333,0.023444 -0.02211,0.00966 -0.06014,0.02639 -0.08448,0.037182 -0.04523,0.020053 -0.377681,0.1488879 -0.443359,0.1718117 -0.01999,0.00698 -0.05681,0.019827 -0.0818,0.028551 -0.09422,0.032886 -0.11057,0.039304 -0.154262,0.060524 -0.10474,0.050866 -0.104919,0.049643 0.01797,0.1227517 0.04123,0.02454 0.168074,0.1435388 0.209279,0.1963611 0.07663,0.098238 0.09575,0.1247306 0.129435,0.1793479 0.06965,0.11293 0.130999,0.2525578 0.155625,0.3541842 0.0076,0.03141 0.01517,0.058732 0.0168,0.060716 0.0044,0.0054 0.0419,0.21584 0.03931,0.2207597 -0.0013,0.00234 -4.79e-4,0.012992 0.0018,0.023681 0.0023,0.01069 0.0047,0.038783 0.0053,0.06243 7.46e-4,0.023647 0.0021,0.057602 0.003,0.075456 0.0045,0.088276 -0.0043,0.2750496 -0.01583,0.3352315 -0.03453,0.1806434 -0.144981,0.4301665 -0.237165,0.5357961 -0.09476,0.1085744 -0.203677,0.1460999 -0.424096,0.1461162 -0.147202,1.08e-5 -0.271098,-0.013987 -0.389892,-0.044055 -0.01619,-0.00413 -0.04279,-0.010685 -0.05908,-0.014625 -0.06434,-0.015543 -0.111512,-0.032146 -0.183273,-0.064472 -0.02717,-0.012241 -0.06299,-0.028198 -0.07958,-0.035447 -0.104392,-0.045664 -0.155764,-0.070355 -0.19751,-0.094911 -0.02603,-0.015309 -0.04884,-0.027838 -0.05072,-0.027838 -0.0019,0 -0.06395,-0.038469 -0.137945,-0.085483 C 12.091945,8.087509 12.098376,8.0901638 12.018159,8.10371 c -0.03001,0.00507 -0.07098,0.013669 -0.09104,0.019115 L 11.210606,7.6159138 c -0.0014,-0.060264 0.105513,-0.1200346 0.09881,-0.2138951 -0.0097,-0.1360569 0.288241,-0.3524931 0.259398,-0.4675355 -0.02024,-0.080736 0.204703,-0.3554949 0.474122,-0.3618294 0.0016,-3.79e-5 -0.33766,-0.043988 -0.345652,-0.09431 -0.02098,-0.1322227 0.315332,-0.186831 0.356299,-0.3479192 0.01,-0.039227 0.134276,-0.2749917 0.174277,-0.3305603 0.05983,-0.083121 0.127853,-0.156549 0.208891,-0.2254986 0.05433,-0.046222 0.0619,-0.048472 0.07356,-0.021844 0.013,0.029654 0.03015,0.1165259 0.02496,0.1263939 -0.0022,0.00413 -0.0016,0.00858 0.0012,0.0099 0.0028,0.00133 0.0089,0.030998 0.01366,0.065948 0.0047,0.034948 0.01,0.06741 0.0117,0.072137 0.0017,0.00473 0.01373,0.052417 0.0267,0.1059793 -0.06743,-0.088109 0.295505,-0.3071169 0.302693,-0.2675248 5.45e-4,0.00299 1.62e-4,-0.00659 -0.0039,-0.00659 -0.0041,0 -0.0057,-0.00319 -0.0036,-0.00708 0.002,-0.00389 0.0014,-0.024423 -0.0014,-0.045628 -0.0053,-0.04064 -0.0075,-0.069823 -0.0098,-0.1348616 -0.0069,-0.1941012 -0.01313,-0.2336131 -0.04853,-0.3070392 -0.09191,-0.1906192 -1.714384,1.6243233 -0.398147,-0.00478 0.0293,-0.036256 0.05317,-0.2275118 0.06143,-0.2629649 0.0088,-0.037824 0.07047,-0.1808698 0.08712,-0.2020983 0.106108,-0.2338745 0.272455,-0.5307316 0.262012,-0.7452128 -0.0033,0.00198 -0.02219,0.016072 -0.04197,0.031307 -0.309261,0.2081252 -0.430033,0.5122188 -0.510149,0.7308043 -0.02312,0.058138 -0.08293,0.1544494 -0.119309,0.1920757 -0.05766,0.059641 -0.173422,0.00675 -0.214148,0.1031091 -0.441275,1.04408 0.09477,0.5475313 -1.110196,2.2752954 -0.37424,0.3474546 -0.8518429,0.4328694 -1.3663137,0.7683727 0.00214,0.00399 0.00277,0.034453 0.00143,0.067696 -0.00263,0.065431 0.011549,0.097174 0.0559,0.1250527 z M 13.35506,7.9305949 c 0.06236,-0.031649 0.06952,-0.089676 0.02376,-0.1925533 -0.0468,-0.1052252 -0.07924,-0.1603978 -0.138341,-0.2353429 -0.03497,-0.044341 -0.143234,-0.1487107 -0.154262,-0.1487107 -0.0041,0 -0.0056,-0.00325 -0.0035,-0.00722 0.0021,-0.00397 6.61e-4,-0.00722 -0.0031,-0.00722 -0.0059,0 -0.0307,-0.01967 -0.08177,-0.064923 -0.08091,-0.071664 -0.109085,-0.098457 -0.116904,-0.1111603 -0.01175,-0.019082 -0.05011,-0.064063 -0.09324,-0.1093153 -0.01841,-0.019316 -0.03414,-0.03701 -0.03496,-0.039322 -8.16e-4,-0.00231 -0.01986,-0.023242 -0.04232,-0.04651 -0.02244,-0.023269 -0.04458,-0.047859 -0.04917,-0.054646 -0.01745,-0.025792 -0.106526,-0.079145 -0.131938,-0.079026 -0.02592,1.214e-4 -0.07696,0.069776 -0.07537,0.1028373 0.002,0.041644 0.02157,0.071346 0.12856,0.1953074 0.0074,0.00858 0.02127,0.026649 0.03081,0.040158 0.02518,0.035632 0.08371,0.1031727 0.101949,0.1176598 0.0086,0.00685 0.02957,0.022807 0.04653,0.035443 0.01695,0.012638 0.05103,0.050872 0.07573,0.084965 0.0247,0.034094 0.05487,0.073313 0.06707,0.087152 0.0122,0.013841 0.02448,0.030276 0.02733,0.036521 0.0028,0.00625 0.01852,0.024026 0.03486,0.039511 0.01634,0.015484 0.03039,0.030047 0.03121,0.03236 8.16e-4,0.00231 0.01981,0.023347 0.04219,0.046738 0.04687,0.048982 0.0782,0.091115 0.110821,0.1490368 0.07371,0.1308898 0.129632,0.1660316 0.204083,0.1282487 z M 8.2525782,7.917538 C 8.2687242,7.910118 8.3046062,7.88984 8.3323102,7.87248 8.3600152,7.855119 8.4354236,7.810149 8.4998811,7.772548 8.5643361,7.734946 8.6197065,7.702352 8.6229237,7.700117 8.6707447,7.66688 9.0262012,7.4773836 9.0838951,7.4543683 c 0.021719,-0.00866 0.048244,-0.021 0.058938,-0.027408 0.01729,-0.010366 0.111142,-0.057354 0.1529789,-0.076594 0.036966,-0.016997 0.1462553,-0.071421 0.1518641,-0.075621 0.00336,-0.00252 0.037899,-0.020558 0.076727,-0.040082 0.038837,-0.019524 0.073037,-0.037994 0.076005,-0.041043 0.00296,-0.00305 0.00885,-0.00555 0.013053,-0.00555 0.00746,0 0.050767,-0.021233 0.16792,-0.082249 0.088038,-0.04585 0.2555129,-0.1485835 0.2968519,-0.182093 0.04073,-0.033019 0.05473,-0.054268 0.06411,-0.097308 0.0082,-0.037632 -0.0046,-0.036521 -0.125544,0.010908 -0.082155,0.032211 -0.2496202,0.110211 -0.2721699,0.1267637 -0.00332,0.00245 -0.029649,0.015408 -0.058502,0.02882 -0.028853,0.013412 -0.058743,0.028424 -0.066415,0.033362 -0.00768,0.00493 -0.040106,0.021147 -0.072058,0.03602 -0.2016562,0.093853 -0.7641639,0.3689654 -0.8133022,0.3977726 -0.03245,0.019025 -0.1011038,0.060561 -0.1525589,0.0923 -0.051459,0.03174 -0.1280312,0.078933 -0.1701684,0.1048717 -0.092667,0.057043 -0.1371091,0.090048 -0.2027315,0.1505521 -0.056155,0.051773 -0.079137,0.1013493 -0.052857,0.114025 0.025218,0.012169 0.064572,0.010424 0.096555,-0.00427 z M 10.64198,5.0181714 c -0.02274,-0.030488 -0.04206,-0.05722 -0.04295,-0.059404 -0.0039,-0.00954 -0.0674,-0.071873 -0.07323,-0.071873 -0.0036,0 -0.006,-0.00291 -0.0055,-0.00645 4.91e-4,-0.00354 -0.0063,-0.012476 -0.01507,-0.019838 -0.02968,-0.024834 -0.07227,-0.068063 -0.07967,-0.080874 -0.0041,-0.007 -0.03977,-0.03849 -0.07938,-0.069982 -0.03962,-0.031492 -0.07905,-0.062941 -0.08765,-0.069885 -0.08651,-0.069914 -0.211868,-0.1329906 -0.3813899,-0.19189 -0.058837,-0.020443 -0.1375697,-0.027524 -0.1734498,-0.0156 -0.031587,0.010497 -0.074331,0.04232 -0.085586,0.063719 -0.013508,0.025682 0.020332,0.075569 0.061102,0.090084 0.035905,0.012783 0.091346,0.036295 0.1145347,0.048576 0.00638,0.00339 0.024112,0.010934 0.039398,0.016786 0.045835,0.017542 0.092822,0.042853 0.170566,0.091873 0.05368,0.033846 0.06569,0.042539 0.104816,0.075808 0.0099,0.00839 0.0312,0.024958 0.04742,0.036811 0.0657,0.048037 0.08429,0.063648 0.124437,0.1044757 0.02307,0.023461 0.04348,0.047335 0.04535,0.053053 0.0019,0.00572 0.0075,0.010396 0.01248,0.010396 0.005,0 0.0117,0.00649 0.01491,0.014428 0.0032,0.00793 0.01034,0.014427 0.01582,0.014427 0.0055,0 0.0086,0.00255 0.007,0.00566 -0.0016,0.00311 0.0047,0.011818 0.01394,0.019343 0.01477,0.011944 0.04967,0.051201 0.05478,0.061604 0.001,0.00201 0.01012,0.013197 0.02031,0.024867 0.01019,0.011671 0.01914,0.023234 0.01988,0.025697 7.38e-4,0.00246 0.01239,0.018417 0.02587,0.035454 0.516743,0.6529009 0.350384,0.086574 0.13128,-0.2072643 z m 2.761529,0.4503029 c 0.02753,-0.013405 0.08079,-0.043502 0.118359,-0.066885 0.07451,-0.046372 0.282477,-0.1709999 0.32201,-0.1929794 0.01356,-0.00754 0.06426,-0.035903 0.112631,-0.063016 0.04838,-0.027112 0.109112,-0.059678 0.134974,-0.072367 0.02587,-0.01269 0.04985,-0.025276 0.05331,-0.027968 0.008,-0.00624 0.147883,-0.071801 0.153186,-0.071801 0.0072,0 0.147737,-0.070664 0.178086,-0.089582 0.03166,-0.019734 0.06182,-0.024652 0.05894,-0.00961 0.192405,-0.091204 0.08691,-0.035724 0.230975,-0.081148 0.02703,-0.00852 0.0348,-0.012942 0.12281,-0.048609 0.151423,-0.061362 0.300061,-0.1176179 0.357117,-0.1351597 0.03407,-0.010476 0.0735,-0.022682 0.08759,-0.027122 0.04459,-0.014041 0.0854,-0.040807 0.09761,-0.064022 0.01496,-0.028443 0.008,-0.075434 -0.0132,-0.089967 -0.0163,-0.011147 -0.02134,-0.010905 -0.08948,0.00428 -0.03971,0.00885 -0.07686,0.018942 -0.08258,0.022428 -0.0058,0.00348 -0.01462,0.00634 -0.01981,0.00634 -0.0052,0 -0.03107,0.00763 -0.05751,0.01695 -0.02645,0.00932 -0.08217,0.027784 -0.123821,0.041025 -0.07101,0.022573 -0.109592,0.051022 -0.154597,0.057905 -0.240678,0.036811 -0.139912,-0.035984 -0.302418,0.042165 -0.06869,0.033033 -0.114236,-0.016075 -0.137778,-0.00646 -0.01168,0.00479 -0.02925,0.016705 -0.03899,0.026491 -0.02048,0.02058 -0.01899,0.042542 0.0064,0.091821 0.01273,0.024743 0.01262,0.029117 -8.47e-4,0.031633 -0.0086,0.0016 -0.02898,0.00861 -0.04528,0.015567 -0.0542,0.023133 -0.184958,0.082342 -0.190875,0.086436 -0.0032,0.00222 -0.0129,0.00729 -0.02157,0.011248 -0.04706,0.02157 -0.23096,0.1180948 -0.286154,0.1501952 -0.01487,0.00864 -0.05452,0.031476 -0.08812,0.050733 -0.239518,0.1372591 -0.497316,0.3150619 -0.520373,0.3588992 -0.01014,0.019281 0.03255,0.056946 0.06454,0.056946 0.01589,0 0.0428,-0.00876 0.07485,-0.024373 z m 1.112405,1.8557116 c -0.03042,-0.038925 0.02064,-0.1104425 0.10176,-0.1424913 0.03265,-0.0129 0.05453,-0.00622 0.07292,0.022266 0.02544,0.039415 0.01364,0.064588 -0.05255,0.1121548 -0.02914,0.020936 -0.03677,0.023445 -0.07136,0.023445 -0.02829,0 -0.04197,-0.00414 -0.05076,-0.015375 z m -0.0063,-0.6705392 c -0.03393,-0.022604 -0.03523,-0.04291 -0.0051,-0.079069 0.01308,-0.015691 0.04334,-0.041514 0.0672,-0.057383 0.03642,-0.024203 0.04815,-0.028854 0.07285,-0.028854 0.03097,0 0.04126,0.012818 0.05012,0.06243 0.0057,0.031731 -0.0043,0.046588 -0.05463,0.08144 -0.05581,0.038648 -0.095,0.045085 -0.130491,0.021434 z"
       id="path1-70-3"
       sodipodi:nodetypes="cssssscssssssscssccsssssssssscsscsssssscccccscssssscssscscssssscccsscsssssccccccsccscccccsssssssscsscscccssccssssssssccscssssssssssssssscscsssssscssssccssssscsssssccsssscsscccccsscccccsssssssssccsscscsssscscsssscsscscscscsssssccccsssscccscsccssssssssssscscssssscscsscsssscsscssssssscssssssscssccsssscccsscscccccssscc" />
    <path
       style="fill:url(#radialGradient2);stroke-width:1"
       d="M 7.4764084,10.064008 C 7.4601324,10.045946 7.4414914,10.013427 7.4349814,9.991751 7.4285014,9.970075 7.4200684,9.944457 7.4163014,9.934826 7.4125214,9.925216 7.4047244,9.893658 7.3989384,9.864764 7.375847,9.7493727 7.3714102,9.7294056 7.3454198,9.6239182 7.3075757,9.4702959 7.3057958,9.4610019 7.2771026,9.2678812 7.2650471,9.1867462 7.2425935,8.9952253 7.2320788,8.8838673 7.2275361,8.8356996 7.2200701,8.7647584 7.2155023,8.7262221 7.2109597,8.6876857 7.2033397,8.6206921 7.198618,8.5773368 7.1939224,8.5339847 7.1818559,8.4433386 7.1718577,8.3759016 7.161855,8.3084711 7.1475783,8.2040277 7.1401288,8.1438164 7.1121367,7.9176127 7.0517725,7.6583326 7.0004592,7.5438919 6.9939837,7.5294449 6.9799462,7.4920005 6.9692774,7.4606932 6.9447589,7.3887419 6.9007059,7.3029027 6.8852542,7.2969743 c -0.00648,-0.00251 -0.050262,-2.435e-4 -0.09724,0.00502 C 6.6704198,7.3151533 6.4209095,7.3243143 6.373669,7.3172063 6.340809,7.3122963 6.32387,7.3010883 6.2646981,7.2452763 6.184601,7.1697355 6.1377589,7.1353236 6.0939253,7.1198304 6.0343615,7.0987768 5.9700614,7.0840961 5.9374056,7.0840961 c -0.033646,0 -0.043352,0.00412 -0.2726229,0.1156117 -0.069843,0.033972 -0.1348736,0.064799 -0.144507,0.068522 -0.00963,0.00371 -0.03132,0.012798 -0.048189,0.020169 -0.016869,0.00743 -0.048397,0.021043 -0.070065,0.030379 -0.021668,0.00928 -0.059098,0.025836 -0.083184,0.036669 -0.024087,0.010811 -0.055615,0.024679 -0.070067,0.030761 -0.01445,0.00612 -0.057802,0.025061 -0.096339,0.042184 -0.074356,0.033033 -0.1519419,0.060092 -0.2802565,0.097755 -0.043352,0.012722 -0.086704,0.026557 -0.096339,0.030729 -0.00963,0.00415 -0.027369,0.00961 -0.039408,0.012023 -0.012039,0.0024 -0.03766,0.00885 -0.056924,0.014316 -0.229709,0.064853 -0.5478808,0.093704 -0.7376216,0.066874 C 3.8395908,7.6356305 3.792997,7.608713 3.742854,7.5351324 3.6810069,7.4443771 3.6736589,7.3371501 3.7125349,7.0928527 3.7240039,7.0207987 3.7632509,6.8499603 3.7726399,6.83119 3.7869519,6.802602 3.8060549,6.754871 3.8386459,6.6662712 3.8729399,6.5730462 3.9722833,6.3794945 4.0408694,6.2722774 c 0.016468,-0.025744 0.029941,-0.048504 0.029941,-0.050578 0,-0.00325 0.060969,-0.096548 0.1644476,-0.2516275 C 4.3118741,5.855257 4.5036953,5.6191711 4.5756614,5.5511245 4.6212859,5.5079854 4.7139252,5.4302851 4.7945556,5.367529 4.9171331,5.2721228 5.0272164,5.1910831 5.0563497,5.174802 5.1079207,5.145983 5.2374047,5.0614631 5.2575224,5.043489 5.2752774,5.027626 5.3227744,5.002231 5.4115873,4.961123 5.4779403,4.930409 5.4960813,4.909914 5.4813223,4.882336 5.4681353,4.857701 5.4563723,4.851776 5.3582403,4.820365 5.2583313,4.7883816 4.9029304,4.6118439 4.7667711,4.5265588 4.6572647,4.4579684 4.510269,4.346607 4.3861139,4.2381802 4.2921004,4.1560761 4.0787084,3.9450629 4.0557436,3.9114924 4.0450367,3.8958462 4.0272274,3.8731911 4.0161583,3.8611484 3.9990039,3.8424865 3.9397684,3.7647318 3.8663925,3.6645721 3.8560014,3.6503856 3.8373988,3.6267385 3.8250586,3.6120243 3.8000396,3.5821946 3.6854715,3.4179029 3.6854715,3.4118597 c 0,-0.00213 -0.02636,-0.048706 -0.058573,-0.1035207 C 3.5698737,3.2113071 3.4315699,2.943862 3.4315144,2.9305148 3.431489,2.92426 3.4259683,2.9110819 3.3804825,2.8091901 3.3531525,2.7479425 3.3079671,2.6026745 3.2813543,2.4905204 3.2768096,2.4712531 3.2692068,2.4397243 3.2645157,2.4204561 3.2334574,2.2928008 3.2202238,2.1718398 3.2229044,2.0399907 3.2254444,1.9162456 3.2276744,1.8997125 3.2471534,1.8599436 3.2891654,1.7742986 3.366176,1.7165798 3.488413,1.6791241 c 0.059189,-0.018137 0.2530451,-0.022729 0.3379121,-0.008 0.02609,0.00453 0.076998,0.012693 0.1131252,0.018149 0.057071,0.00862 0.2225939,0.046601 0.3021514,0.069335 0.032807,0.00937 0.2302767,0.077741 0.2539825,0.08793 0.00963,0.00414 0.052989,0.021949 0.096338,0.039574 0.043352,0.017625 0.094586,0.039217 0.1138548,0.047984 0.019265,0.00877 0.05868,0.026719 0.08758,0.039895 0.095212,0.043405 0.2890448,0.1413536 0.3264155,0.1649447 0.020182,0.01274 0.038514,0.023163 0.040741,0.023163 0.00807,0 0.1600223,0.095321 0.2283904,0.1432699 0.093685,0.065704 0.2255433,0.1604378 0.2366941,0.1700533 0.00492,0.00426 0.020705,0.015223 0.035033,0.02436 0.014327,0.00914 0.028016,0.018696 0.030426,0.021244 0.00239,0.00254 0.018171,0.015164 0.035033,0.028039 0.016861,0.012873 0.042474,0.033704 0.056924,0.04629 0.01445,0.012585 0.057256,0.049323 0.095125,0.081638 0.037868,0.032316 0.104866,0.092734 0.1488853,0.1342625 0.044022,0.041528 0.1036823,0.095264 0.1325836,0.1194127 0.25029,0.2081602 0.3262556,0.513057 0.4504887,0.1685393 0.024842,-0.1291848 0.071013,-0.3380149 0.08811,-0.3984894 0.00547,-0.019267 0.01331,-0.050796 0.017486,-0.070064 0.01754,-0.081071 0.077491,-0.2491644 0.114008,-0.3196665 0.00874,-0.016859 0.033137,-0.064152 0.054228,-0.1050964 0.021091,-0.040943 0.049529,-0.1099131 0.063187,-0.1532652 0.053844,-0.1708538 0.1405469,-0.3357165 0.2287971,-0.435034 0.038638,-0.04348 0.1333646,-0.1220303 0.1800991,-0.1493384 0.062216,-0.036353 0.1212727,-0.057041 0.2184335,-0.076519 0.110403,-0.022133 0.1509228,-0.022305 0.2563766,-0.00109 0.085545,0.017209 0.11211,0.026729 0.2030039,0.072751 0.083528,0.042292 0.1853254,0.1331432 0.2431645,0.2170183 0.014951,0.021676 0.029409,0.041382 0.032136,0.04379 0.0027,0.00241 0.00925,0.012262 0.014505,0.021894 0.00524,0.00963 0.019288,0.035251 0.031197,0.056927 0.043052,0.078369 0.1072367,0.2615631 0.1189301,0.3394541 0.00239,0.0157 0.00779,0.030711 0.012079,0.033359 0.00431,0.00265 0.00779,0.014203 0.00779,0.025676 0,0.011474 0.00346,0.023016 0.00775,0.02565 0.00424,0.00263 0.00981,0.015674 0.012317,0.02898 0.00254,0.013305 0.018864,0.079367 0.036343,0.1468039 0.031775,0.1225964 0.042404,0.1668532 0.057865,0.2408452 0.00459,0.021676 0.011728,0.055175 0.015998,0.074443 0.014862,0.067041 0.045034,0.2105034 0.054348,0.2583612 0.036385,0.1870873 0.094599,0.352508 0.1286627,0.3655781 0.00743,0.00286 0.016882,-0.00209 0.022233,-0.011644 C 8.8485051,3.2959474 9.357898,2.7702053 9.4482581,2.6915553 9.5440261,2.6082013 9.6532138,2.5192767 9.7013706,2.4854244 9.8356942,2.3909984 9.8621029,2.3728882 9.958935,2.308799 c 0.0564,-0.037331 0.104405,-0.067875 0.106676,-0.067875 0.0023,0 0.02568,-0.013794 0.05204,-0.030653 0.02635,-0.016859 0.04954,-0.030653 0.05153,-0.030653 0.002,0 0.0544,-0.028711 0.116465,-0.063803 0.156231,-0.088331 0.326597,-0.1710541 0.454411,-0.2206447 0.03371,-0.013083 0.06919,-0.026978 0.07882,-0.030878 0.168896,-0.068382 0.441168,-0.1503048 0.582408,-0.1752379 0.03131,-0.00554 0.07584,-0.013674 0.09896,-0.018104 0.06694,-0.012828 0.31049,-0.00985 0.357329,0.00436 0.127286,0.038634 0.207546,0.1149273 0.249521,0.2371872 0.01771,0.051585 0.02043,0.2587965 0.0045,0.3404243 -0.0054,0.027118 -0.01374,0.071969 -0.01876,0.099666 -0.01246,0.068773 -0.03351,0.1656843 -0.0452,0.2080027 -0.01962,0.071072 -0.106043,0.3251377 -0.12194,0.3585338 -0.0091,0.018969 -0.01642,0.03933 -0.01642,0.04525 0,0.00592 -0.0031,0.012076 -0.0068,0.013681 -0.0037,0.00161 -0.03344,0.056124 -0.06604,0.1211525 -0.06269,0.1250481 -0.08081,0.1587091 -0.106381,0.1977425 -0.0087,0.013286 -0.02957,0.050097 -0.04637,0.0818 -0.0168,0.031703 -0.05568,0.094503 -0.08641,0.1395553 -0.03074,0.045053 -0.05588,0.084838 -0.05588,0.088412 0,0.00357 -0.0079,0.013631 -0.01751,0.02235 -0.0096,0.00871 -0.01752,0.019396 -0.01752,0.023728 0,0.00432 -0.0118,0.020471 -0.02624,0.035864 -0.01442,0.015394 -0.02625,0.030663 -0.02627,0.033931 -2.3e-5,0.00327 -0.005,0.011151 -0.01098,0.017516 -0.006,0.00637 -0.02259,0.027338 -0.03683,0.046605 -0.07021,0.095051 -0.307559,0.3442489 -0.403263,0.4234091 -0.03854,0.031874 -0.07204,0.060225 -0.07444,0.063003 -0.0024,0.00278 -0.01259,0.010734 -0.02263,0.01768 -0.01005,0.00695 -0.03565,0.027312 -0.05693,0.045257 -0.05853,0.049367 -0.156637,0.1206373 -0.166072,0.1206373 -0.0046,0 -0.0083,0.00321 -0.0083,0.00715 0,0.00393 -0.01646,0.016738 -0.03658,0.028463 -0.02011,0.011725 -0.05461,0.032039 -0.07664,0.045142 -0.04094,0.024346 -0.353356,0.1807613 -0.416647,0.2085925 -0.01926,0.00847 -0.05474,0.024071 -0.07882,0.034663 -0.09079,0.039926 -0.106109,0.047718 -0.144506,0.073481 -0.092045,0.061755 -0.093016,0.06027 0.09742,0.1490298 0.06391,0.029793 0.287495,0.174267 0.368923,0.2383972 0.151437,0.1192682 0.190453,0.1514324 0.264119,0.2177419 0.152316,0.1371056 0.311415,0.3066242 0.403574,0.4300064 0.02849,0.038134 0.05437,0.071305 0.05752,0.073714 0.0085,0.00655 0.183455,0.2620461 0.183455,0.268019 0,0.00284 0.0075,0.015773 0.01681,0.028751 0.0093,0.012978 0.02953,0.047085 0.04509,0.075795 0.01556,0.028709 0.03824,0.069933 0.0504,0.091609 0.0601,0.1071735 0.165649,0.333931 0.189434,0.4069963 0.07139,0.2193148 0.09593,0.5222546 0.0527,0.6504969 -0.04444,0.1318175 -0.149706,0.1773764 -0.409863,0.1773961 -0.173741,1.31e-5 -0.328669,-0.016981 -0.487552,-0.053486 -0.02168,-0.00502 -0.05714,-0.012973 -0.07882,-0.017756 -0.08559,-0.01887 -0.151578,-0.039028 -0.256349,-0.078274 -0.03967,-0.014862 -0.09185,-0.034234 -0.115933,-0.043035 -0.151566,-0.05544 -0.22753,-0.085416 -0.292049,-0.1152291 -0.04022,-0.018586 -0.07493,-0.033797 -0.07715,-0.033797 -0.0023,0 -0.099361,-0.046704 -0.2158911,-0.1037828 C 9.386905,7.0550552 9.3961432,7.0582783 9.3098705,7.0747244 c -0.032268,0.00616 -0.075293,0.016595 -0.095593,0.023207 -0.044204,0.014393 -0.1077576,0.00535 -0.1347953,-0.01906 -0.014054,-0.012726 -0.016631,-0.022455 -0.012176,-0.046167 L 8.0537719,6.482503 C 8.0148012,6.4093383 8.1037958,6.3367719 8.0376157,6.2228182 7.9416843,6.0576349 8.4207228,5.8210372 8.3152562,5.681367 8.2412412,5.583348 8.3885242,5.2235972 8.3885242,5.2159066 c 0,-0.00188 -0.033276,-0.053405 -0.073949,-0.1144993 C 8.207713,4.940879 8.1782,4.8745804 8.1265472,4.6790071 8.1139686,4.6313821 8.1143147,4.3451464 8.1270333,4.2776819 c 0.019018,-0.1009152 0.05372,-0.1900622 0.1065673,-0.2737723 0.035426,-0.056117 0.042967,-0.058849 0.07327,-0.02652 0.033747,0.036002 0.1079291,0.1414712 0.1079291,0.1534517 0,0.00501 0.00339,0.010418 0.00747,0.012024 0.00408,0.00161 0.029787,0.037634 0.057063,0.080066 0.027276,0.04243 0.053635,0.081841 0.058589,0.08758 0.00492,0.00574 0.048744,0.063638 0.097306,0.1286668 C 8.5009345,4.3322072 8.793358,4.066315 8.8264217,4.1143829 c 0.00249,0.00363 -0.00393,-0.008 -0.00874,-0.008 -0.0048,0 -0.00874,-0.00387 -0.00874,-0.00859 0,-0.00472 -0.013475,-0.029652 -0.029942,-0.055396 -0.03155,-0.04934 -0.052167,-0.08477 -0.095257,-0.1637322 C 8.5551113,3.6430112 8.5232151,3.5950408 8.4358438,3.505896 8.2090209,3.2744699 7.4207125,5.4779471 7.9629316,3.5000929 7.9749986,3.456076 7.884454,3.2238764 7.872191,3.1808336 7.8591035,3.1349122 7.8430818,2.9612441 7.8495518,2.935471 7.8296006,2.6515298 7.8415995,2.2911228 7.696171,2.0307264 7.693471,2.0331364 7.679964,2.0502394 7.666068,2.0687354 7.4302455,2.3214151 7.4764821,2.6906077 7.5176202,2.955987 c 0.00882,0.070584 -0.002,0.1875132 -0.021583,0.2331944 C 7.4650022,3.2615904 7.2955303,3.197367 7.3072831,3.3143636 7.4346179,4.5819556 7.7590605,3.979108 7.409431,6.076744 7.1834097,6.4985801 6.6727073,6.6022801 6.2737474,7.0096064 c 0.00501,0.00485 0.024657,0.041829 0.043715,0.082188 0.037513,0.079438 0.073964,0.1179771 0.1436156,0.1518234 0.047665,0.023161 0.118458,0.025618 0.2239913,0.00775 0.059043,-0.00994 0.1732419,-0.052885 0.1882973,-0.070728 0.013764,-0.016314 0.1063315,-0.07027 0.1205493,-0.07027 0.022292,0 0.039562,0.020442 0.066607,0.07882 0.081111,0.1751138 0.2766962,0.3428709 0.4565588,0.3916021 0.1431012,0.038766 0.1842118,0.037619 0.3109088,-0.00874 C 7.9486676,7.5279046 8.0419771,7.4753796 8.0951104,7.421681 8.1652154,7.350833 8.2192885,7.2811243 8.2600047,7.209114 8.3267197,7.0911184 8.3506677,7.0847328 8.4436618,7.160138 c 0.027515,0.022309 0.05701,0.036516 0.1321199,0.06363 0.041927,0.015135 0.071306,0.018586 0.1576439,0.018498 C 8.8450762,7.2421611 8.9016905,7.231565 8.9681425,7.19839 8.9990135,7.182971 9.0108615,7.181071 9.0302005,7.18845 9.0605465,7.199992 9.0604925,7.217945 9.0300225,7.248761 9.0087835,7.270241 8.9856545,7.282274 8.9069988,7.312784 8.8685498,7.32769 8.6998624,7.321844 8.6316315,7.303284 8.5383285,7.277841 8.448903,7.26668 8.43445,7.278681 8.421678,7.289273 8.39991,7.3341 8.371193,7.4089162 8.350125,7.4638102 8.344564,7.4771652 8.320454,7.5308227 8.25159,7.68404 8.225438,7.7655156 8.2038024,7.8942799 c -0.018826,0.1120415 -0.025936,0.1517397 -0.033739,0.1882974 -0.00462,0.021676 -0.014828,0.072912 -0.022662,0.1138531 -0.00784,0.040939 -0.017524,0.090209 -0.021514,0.1094754 -0.00401,0.019263 -0.011932,0.058684 -0.01764,0.087578 -0.0057,0.028905 -0.013958,0.07028 -0.018325,0.091956 -0.015229,0.075533 -0.025073,0.1368068 -0.047812,0.2977717 -0.028847,0.2041935 -0.032106,0.2216217 -0.065568,0.3503216 -0.016823,0.064711 -0.053497,0.2382538 -0.058296,0.2758761 -0.00247,0.019263 -0.008,0.038777 -0.012333,0.043352 -0.00431,0.00459 -0.00786,0.021381 -0.00786,0.037346 0,0.015965 -0.00363,0.035861 -0.00812,0.044226 -0.00447,0.00841 -0.010254,0.022102 -0.012864,0.030532 -0.00867,0.02802 -0.031713,0.016434 -0.049391,-0.02481 -0.00947,-0.02208 -0.017209,-0.047458 -0.017209,-0.056412 0,-0.00895 -0.00339,-0.018345 -0.00747,-0.02089 -0.00408,-0.00251 -0.00987,-0.033317 -0.01281,-0.068391 -0.00293,-0.035075 -0.00978,-0.1012166 -0.015206,-0.1469732 -0.014612,-0.1232126 -0.014412,-0.4038892 4.691e-4,-0.656851 0.00724,-0.1228315 0.013141,-0.3286467 0.013141,-0.4573684 0,-0.2888272 0.00778,-0.2723731 -0.1307257,-0.2768873 -0.051579,-0.00164 -0.098135,9.249e-4 -0.1076735,0.00601 -0.016223,0.00863 -0.025227,0.031133 -0.04628,0.1154049 -0.00693,0.027748 -0.0087,0.1539128 -0.00593,0.4203837 0.00378,0.3589614 0.011092,0.5176102 0.031898,0.6916418 0.00492,0.040939 0.012964,0.1375002 0.017925,0.2145708 0.010079,0.156527 0.023147,0.2910919 0.035288,0.3634571 0.01217,0.072552 0.020475,0.2787001 0.013481,0.3346934 -0.00447,0.03605 -0.012256,0.05545 -0.028708,0.07191 -0.03142,0.03142 -0.056447,0.0286 -0.091498,-0.01026 z M 10.780299,6.8645496 c 0.05396,-0.038424 0.02639,-0.1088736 -0.0915,-0.2337742 -0.120567,-0.1277514 -0.1931,-0.194735 -0.309389,-0.2857241 -0.06881,-0.053833 -0.261386,-0.180546 -0.274403,-0.180546 -0.0048,0 -0.0086,-0.00394 -0.0086,-0.00876 0,-0.00482 -0.0037,-0.00876 -0.0082,-0.00876 -0.007,0 -0.04844,-0.023881 -0.136826,-0.078822 C 9.8113882,5.9811579 9.7615006,5.948629 9.7443837,5.9332063 9.7186673,5.9100397 9.6454602,5.8554292 9.5664645,5.8004893 c -0.033721,-0.023451 -0.063281,-0.044933 -0.065683,-0.04774 -0.0024,-0.00281 -0.03787,-0.028217 -0.07882,-0.056467 -0.040939,-0.02825 -0.082325,-0.058104 -0.091957,-0.066344 -0.036614,-0.031314 -0.1748714,-0.096088 -0.2047908,-0.095943 -0.030521,1.473e-4 -0.047524,0.084713 -0.025116,0.1248522 0.028228,0.050559 0.069745,0.08662 0.2729944,0.2371179 0.014065,0.010418 0.041648,0.032354 0.061304,0.048755 0.051837,0.04326 0.1628464,0.1252595 0.1933784,0.1428479 0.014447,0.00832 0.049063,0.027689 0.07692,0.04303 0.027857,0.015343 0.091814,0.061762 0.1421291,0.1031538 0.050319,0.041393 0.1102864,0.089007 0.1332704,0.1058095 0.02299,0.016804 0.0477,0.036757 0.05493,0.044339 0.0072,0.00759 0.03678,0.029169 0.06568,0.047969 0.0289,0.018799 0.05452,0.036479 0.05693,0.039288 0.0024,0.00281 0.03787,0.028345 0.07882,0.056744 0.08573,0.059468 0.148869,0.1106199 0.22333,0.1809419 0.168262,0.1589101 0.256085,0.2015749 0.320505,0.1557036 z M 4.7495712,6.8486972 c 0.01445,-0.00901 0.044215,-0.033628 0.066137,-0.054704 0.021923,-0.021078 0.083012,-0.075674 0.1357495,-0.121325 0.052734,-0.045652 0.097855,-0.085223 0.1002644,-0.087937 0.035811,-0.040352 0.3377242,-0.2704152 0.3915338,-0.2983575 0.020259,-0.010516 0.043907,-0.025495 0.05255,-0.033276 0.013973,-0.012585 0.095578,-0.069632 0.133015,-0.092991 0.033076,-0.020635 0.1282892,-0.086711 0.1323024,-0.09181 0.00239,-0.00306 0.031967,-0.024959 0.065683,-0.048662 0.033716,-0.023704 0.062617,-0.046128 0.064227,-0.04983 0.00162,-0.0037 0.00701,-0.00674 0.011963,-0.00674 0.00876,0 0.046742,-0.025778 0.1471399,-0.099856 0.07545,-0.055665 0.2093473,-0.1803916 0.2373374,-0.2210747 0.027584,-0.040088 0.030912,-0.065885 0.01526,-0.1181391 -0.013688,-0.045688 -0.028085,-0.044339 -0.1414127,0.013243 -0.076968,0.039107 -0.2262134,0.1338045 -0.2425529,0.1539007 -0.00239,0.00297 -0.025427,0.018707 -0.051163,0.03499 -0.025727,0.016283 -0.051686,0.034509 -0.05768,0.040504 -0.00601,0.00599 -0.034209,0.025674 -0.062694,0.043731 -0.1797554,0.1139446 -0.6729062,0.4479518 -0.7130216,0.482926 -0.026491,0.023098 -0.081739,0.073525 -0.1227684,0.1120595 -0.041034,0.038535 -0.1021165,0.09583 -0.1357488,0.1273221 -0.073964,0.069255 -0.1059307,0.1093252 -0.1458249,0.1827817 -0.034139,0.062856 -0.030488,0.1230457 0.0084,0.1384349 0.037321,0.014774 0.082688,0.012656 0.1113128,-0.00519 z m 1.0203047,-3.52005 c -0.045763,-0.037015 -0.085171,-0.06947 -0.08758,-0.072121 -0.010514,-0.011581 -0.1241843,-0.087259 -0.1310599,-0.087259 -0.00416,0 -0.00892,-0.00353 -0.010527,-0.00783 -0.00162,-0.0043 -0.015151,-0.015147 -0.030111,-0.024085 -0.050449,-0.03015 -0.127554,-0.082634 -0.1442485,-0.098187 -0.00912,-0.0085 -0.070836,-0.04673 -0.1371423,-0.084963 C 5.1629004,2.9159679 5.0968216,2.8777875 5.0823709,2.8693564 4.9368841,2.7844748 4.7497584,2.7078955 4.5131005,2.6363872 4.4309611,2.6115684 4.3336353,2.6029711 4.2986871,2.6174472 c -0.030766,0.012744 -0.061462,0.05138 -0.061462,0.077359 0,0.03118 0.070913,0.091747 0.1280473,0.1093688 0.050316,0.015519 0.1303513,0.044065 0.1653458,0.058975 0.00963,0.00411 0.035248,0.013275 0.056924,0.020379 0.06499,0.021297 0.1361647,0.052027 0.2583609,0.1115413 0.084372,0.041092 0.1039521,0.051645 0.1707817,0.092036 0.016861,0.010188 0.052326,0.030301 0.078822,0.044691 0.1073711,0.058321 0.1390079,0.077273 0.2117374,0.1268414 0.041796,0.028483 0.080703,0.057468 0.086463,0.06441 0.00578,0.00695 0.01529,0.012622 0.021182,0.012622 0.00585,0 0.01784,0.00788 0.026559,0.017517 0.00873,0.00963 0.021152,0.017516 0.027631,0.017516 0.00648,0 0.011778,0.00309 0.011778,0.00687 0,0.00378 0.01281,0.014348 0.028463,0.023484 0.024842,0.014501 0.090418,0.062162 0.102907,0.074792 0.00239,0.00244 0.020143,0.016022 0.039408,0.03019 0.019265,0.014169 0.037005,0.028208 0.039408,0.031198 0.00239,0.00299 0.026059,0.02236 0.05255,0.043044 1.0152612,0.792671 0.4673166,0.1051079 0.026283,-0.2516345 z m 3.5390764,0.5467021 c 0.024166,-0.016274 0.068348,-0.052815 0.098181,-0.081203 0.059164,-0.056299 0.2272564,-0.2076068 0.2602739,-0.2342916 0.011335,-0.00916 0.053562,-0.043589 0.093824,-0.076506 0.040273,-0.032916 0.091738,-0.072453 0.1143882,-0.087859 0.022648,-0.015407 0.043145,-0.030687 0.045558,-0.033955 0.0056,-0.00758 0.1299756,-0.087172 0.1362346,-0.087172 0.0085,0 0.130509,-0.085791 0.154586,-0.108759 0.02512,-0.023958 0.05767,-0.029929 0.06361,-0.011664 0.170481,-0.110728 0.0804,-0.043372 0.22225,-0.09852 0.02661,-0.010346 0.03303,-0.015713 0.114778,-0.059015 0.140635,-0.074498 0.281153,-0.142797 0.337607,-0.1640941 0.03371,-0.012719 0.07267,-0.027537 0.08655,-0.032928 0.04391,-0.017047 0.07547,-0.049543 0.07547,-0.077728 0,-0.034532 -0.0373,-0.091583 -0.07143,-0.109227 -0.02616,-0.013533 -0.03196,-0.01324 -0.102953,0.0052 -0.04138,0.010745 -0.07896,0.022997 -0.08355,0.027229 -0.0046,0.00423 -0.01332,0.0077 -0.01944,0.0077 -0.0061,0 -0.03194,0.00926 -0.05736,0.020579 -0.02543,0.011318 -0.07974,0.033732 -0.120681,0.049807 -0.0698,0.027405 -0.09768,0.061944 -0.146528,0.070301 -0.261226,0.044691 -0.187481,-0.043687 -0.330776,0.051191 -0.06057,0.040104 -0.144815,-0.019516 -0.166633,-0.00784 -0.01081,0.00581 -0.02416,0.020281 -0.02957,0.032162 -0.01139,0.024986 0.004,0.051649 0.0646,0.1114782 0.03039,0.03004 0.03297,0.03535 0.01861,0.038405 -0.0092,0.00194 -0.02887,0.01045 -0.04379,0.0189 -0.04962,0.028085 -0.1671921,0.099969 -0.1716365,0.1049392 -0.0024,0.0027 -0.010701,0.00885 -0.018477,0.013656 -0.042162,0.026188 -0.1992938,0.1433761 -0.2445131,0.1823483 -0.012176,0.010494 -0.044815,0.038214 -0.072519,0.061594 -0.1974975,0.1666429 -0.3914023,0.3825089 -0.3914023,0.4357307 0,0.023408 0.073775,0.069137 0.1115349,0.069137 0.01876,0 0.045077,-0.010636 0.073218,-0.02959 z m 2.4650687,2.252974 c -0.06007,-0.047258 -0.0442,-0.1340855 0.03165,-0.1729952 0.03053,-0.015662 0.0605,-0.00755 0.09989,0.027033 0.0545,0.047853 0.0562,0.078415 0.0076,0.1361644 -0.02139,0.025418 -0.02885,0.028464 -0.06967,0.028464 -0.03339,0 -0.05211,-0.00503 -0.06945,-0.018666 z M 11.350332,5.3142381 c -0.05408,-0.027443 -0.06822,-0.052096 -0.05506,-0.095996 0.0057,-0.01905 0.02538,-0.050401 0.0437,-0.069667 0.02796,-0.029384 0.03892,-0.035031 0.06808,-0.035031 0.03656,0 0.05666,0.015562 0.09792,0.075795 0.02639,0.038524 0.02385,0.056561 -0.01392,0.098874 -0.04188,0.046922 -0.08414,0.054736 -0.140716,0.026023 z"
       id="path1-70"
       sodipodi:nodetypes="cccccscccsccscccssssscssssssscssccsssssssssscsscsssssscccccscssssscssscscssssscccsscsssssccccccsccscccccsssssssscsscscccssccssssssssccscssssssssssssssscscsssssscssssscccssssscsssssccsssscsscccccsscccsssscsssssssssssssscscccccssccscccsscccsssscccscsccsssssssssccsscscsssscscsssscsscscscscsssssccccsssscccscsccssssssssssscscssssscscsscsssscsscssssssscssssssscssccsssscccsscscccccssscc" />
    <path
       style="fill:url(#linearGradient6);stroke:none;stroke-width:0.200001;stroke-linecap:round;stroke-linejoin:round;stroke-dasharray:none;stroke-opacity:1"
       d="M 6.1430566,12.103276 8.4688431,10.615324 9.5098043,9.6309856 9.8903209,8.623756 9.5922905,7.3418274 8.1197259,7.52496 8.1017639,7.2273694 9.4803193,6.9297789 9.4257366,6.2659231 l 0.5852374,-0.068675 0.543574,1.2132538 1.399428,-0.5907778 0.07493,0.1831326 -1.305278,0.6594525 0.129648,0.8012056 1.191936,-0.9843381 1.286085,-0.9156633 0.585377,-0.1144578 -0.731711,0.5583412 1.233999,-0.398702 -0.05351,0.2093606 -1.645684,0.6047262 -0.998106,0.9491664 -0.662964,0.8012054 0.982317,-0.3204821 -0.171317,0.4807232 -1.13371,0.4578321 -0.511429,0.6180724 -0.5034249,0.69963 -0.2754294,0.971457 z"
       id="path1-7"
       sodipodi:nodetypes="ccccccccccccccccccccccccccccccc" />
    <ellipse
       style="fill:#000000;fill-opacity:0.143426;stroke:#c00707;stroke-width:0.165;stroke-dasharray:none;stroke-opacity:0.421348"
       id="path5"
       cx="7.4724536"
       cy="11.982809"
       rx="0.24757871"
       ry="0.26408395" />
    <path
       style="fill:url(#linearGradient5);stroke:url(#linearGradient2);stroke-width:0.2;stroke-linecap:round;stroke-linejoin:round;stroke-dasharray:none;stroke-opacity:1"
       d="M 5.8289925,12.131493 6.9235597,9.6781516 7.1500221,8.0551726 6.6970975,6.3944495 5.3383242,4.2808021 4.0172945,4.5827517 3.7530886,4.0920836 4.8853998,3.6014155 4.2815005,2.5068481 4.8099124,2.393617 6.3574043,4.3940332 7.2679879,3.419957 7.4944503,3.7219066 6.7348412,4.8092139 7.527459,6.1302437 7.9048961,4.5072643 8.4333079,2.9975162 8.9239761,2.8087977 8.6542686,3.7293924 9.558359,3.0720115 9.6780836,3.4172063 8.5327853,4.4142804 8.3200768,5.9792687 v 1.3210297 l 0.7171304,-0.5284118 0.2264621,0.7926178 -0.754874,0.754874 v 1.01908 l 0.075487,1.1535506 0.5284118,1.601741 z"
       id="path1"
       sodipodi:nodetypes="ccccccccccccccccccccccccccccccc" />
    <ellipse
       style="fill:url(#radialGradient6);stroke:none;stroke-width:1.765;stroke-linecap:round;stroke-linejoin:round;stroke-dashoffset:2.41134"
       id="path2"
       cx="5.4854178"
       cy="11.848845"
       rx="0.88909775"
       ry="0.62303406" />
    <ellipse
       style="fill:url(#radialGradient6-8);fill-opacity:0.960443;stroke:none;stroke-width:1.765;stroke-linecap:round;stroke-linejoin:round;stroke-dashoffset:2.41134"
       id="path2-4"
       cx="6.2590861"
       cy="12.203327"
       rx="0.64074904"
       ry="0.45229429" />
    <ellipse
       style="fill:url(#radialGradient6-0);fill-opacity:0.960443;stroke:none;stroke-width:1.765;stroke-linecap:round;stroke-linejoin:round;stroke-dashoffset:2.41134"
       id="path2-5"
       cx="8.9352503"
       cy="11.805383"
       rx="0.99775028"
       ry="0.69288212" />
    <ellipse
       style="fill:url(#radialGradient6-8-9-5);fill-opacity:0.960443;stroke:none;stroke-width:1.765;stroke-linecap:round;stroke-linejoin:round;stroke-dashoffset:2.41134"
       id="path2-4-8-7"
       cx="6.9914613"
       cy="11.782813"
       rx="0.64074904"
       ry="0.45229429" />
    <ellipse
       style="fill:url(#radialGradient6-8-9-5-5-55);fill-opacity:0.960443;stroke:none;stroke-width:1.765;stroke-linecap:round;stroke-linejoin:round;stroke-dashoffset:2.41134"
       id="path2-4-8-7-8-68"
       cx="2.3272741"
       cy="12.740934"
       rx="0.36911762"
       ry="0.28931543"
       transform="rotate(-18.123769)" />
    <ellipse
       style="fill:url(#radialGradient6-8-9-5-5-45);fill-opacity:0.960443;stroke:none;stroke-width:1.765;stroke-linecap:round;stroke-linejoin:round;stroke-dashoffset:2.41134"
       id="path2-4-8-7-8-3"
       cx="5.6445498"
       cy="12.367018"
       rx="0.36911762"
       ry="0.28931543" />
    <ellipse
       style="fill:url(#radialGradient6-8-9-5-5-5);fill-opacity:0.960443;stroke:none;stroke-width:1.765;stroke-linecap:round;stroke-linejoin:round;stroke-dashoffset:2.41134"
       id="path2-4-8-7-8-6"
       cx="9.7381868"
       cy="12.350783"
       rx="0.36911762"
       ry="0.28931543" />
    <ellipse
       style="fill:url(#radialGradient6-8-9-5-5-4);fill-opacity:0.960443;stroke:none;stroke-width:1.765;stroke-linecap:round;stroke-linejoin:round;stroke-dashoffset:2.41134"
       id="path2-4-8-7-8-2"
       cx="6.7191176"
       cy="12.460149"
       rx="0.36911762"
       ry="0.28931543" />
    <ellipse
       style="fill:url(#radialGradient6-9);fill-opacity:0.960443;stroke:none;stroke-width:1.765;stroke-linecap:round;stroke-linejoin:round;stroke-dashoffset:2.41134"
       id="path2-53"
       cx="7.4881592"
       cy="12.085487"
       rx="0.99775028"
       ry="0.69288212" />
    <ellipse
       style="fill:url(#radialGradient6-8-9);fill-opacity:0.960443;stroke:none;stroke-width:1.765;stroke-linecap:round;stroke-linejoin:round;stroke-dashoffset:2.41134"
       id="path2-4-8"
       cx="8.5500565"
       cy="12.232944"
       rx="0.64074904"
       ry="0.45229429" />
    <ellipse
       style="fill:url(#radialGradient6-8-9-5-5-48);fill-opacity:0.960443;stroke:none;stroke-width:1.765;stroke-linecap:round;stroke-linejoin:round;stroke-dashoffset:2.41134"
       id="path2-4-8-7-8-9"
       cx="8.0265121"
       cy="11.29245"
       rx="0.36911762"
       ry="0.28931543" />
  </g>
</svg>
