<?xml version="1.0" encoding="UTF-8" standalone="no"?>
<!-- Created with Inkscape (http://www.inkscape.org/) -->

<svg
   width="15mm"
   height="15mm"
   viewBox="0 0 15 15"
   version="1.1"
   id="svg1"
   inkscape:export-filename="fairy.png"
   inkscape:export-xdpi="96"
   inkscape:export-ydpi="96"
   inkscape:version="1.3.2 (091e20e, 2023-11-25)"
   sodipodi:docname="fairy.svg"
   xmlns:inkscape="http://www.inkscape.org/namespaces/inkscape"
   xmlns:sodipodi="http://sodipodi.sourceforge.net/DTD/sodipodi-0.dtd"
   xmlns:xlink="http://www.w3.org/1999/xlink"
   xmlns="http://www.w3.org/2000/svg"
   xmlns:svg="http://www.w3.org/2000/svg">
  <sodipodi:namedview
     id="namedview1"
     pagecolor="#ffffff"
     bordercolor="#000000"
     borderopacity="0.25"
     inkscape:showpageshadow="2"
     inkscape:pageopacity="0.0"
     inkscape:pagecheckerboard="0"
     inkscape:deskcolor="#d1d1d1"
     inkscape:document-units="mm"
     showguides="false"
     inkscape:zoom="12.085578"
     inkscape:cx="55.18975"
     inkscape:cy="12.742461"
     inkscape:window-width="1792"
     inkscape:window-height="993"
     inkscape:window-x="0"
     inkscape:window-y="34"
     inkscape:window-maximized="0"
     inkscape:current-layer="layer1" />
  <defs
     id="defs1">
    <linearGradient
       id="linearGradient1"
       inkscape:collect="always">
      <stop
         style="stop-color:#26ed2d;stop-opacity:1;"
         offset="0"
         id="stop1" />
      <stop
         style="stop-color:#275d23;stop-opacity:1;"
         offset="1"
         id="stop2" />
    </linearGradient>
    <radialGradient
       inkscape:collect="always"
       xlink:href="#linearGradient1"
       id="radialGradient2"
       cx="7.4090234"
       cy="7.5123831"
       fx="7.4090234"
       fy="7.5123831"
       r="4.0749104"
       gradientTransform="matrix(1,0,0,0.97992061,-0.02189246,0.17273652)"
       gradientUnits="userSpaceOnUse" />
  </defs>
  <g
     inkscape:label="Layer 1"
     inkscape:groupmode="layer"
     id="layer1">
    <path
       style="fill:none;fill-opacity:1;stroke:#cfcfcf;stroke-width:0.5;stroke-dasharray:none;stroke-opacity:1"
       d="m 7.2549118,11.514872 c -0.01491,-0.01654 -0.03198,-0.04632 -0.03794,-0.06617 -0.0059,-0.01985 -0.01366,-0.04331 -0.01711,-0.05213 -0.0035,-0.0088 -0.0106,-0.0377 -0.0159,-0.06416 -0.02115,-0.105671 -0.02521,-0.123956 -0.04901,-0.220557 -0.03466,-0.140682 -0.03629,-0.149193 -0.06256,-0.326045 -0.01104,-0.0743 -0.0316,-0.249687 -0.04123,-0.351664 -0.0042,-0.04411 -0.011,-0.109075 -0.01518,-0.144365 -0.0042,-0.03529 -0.01114,-0.09664 -0.01546,-0.136343 -0.0043,-0.0397 -0.01535,-0.122709 -0.02451,-0.1844645 -0.0092,-0.06175 -0.02223,-0.157395 -0.02906,-0.212534 -0.02563,-0.2071485 -0.08091,-0.4445861 -0.127903,-0.5493857 -0.0059,-0.013233 -0.01878,-0.04752 -0.02855,-0.076192 -0.02245,-0.065893 -0.0628,-0.1444985 -0.07695,-0.1499276 -0.0059,-0.00229 -0.04603,-2.225e-4 -0.08905,0.0046 -0.107688,0.012048 -0.336179,0.020439 -0.37944,0.013934 -0.03009,-0.00452 -0.0456,-0.014763 -0.09979,-0.065868 -0.07335,-0.069182 -0.116246,-0.1006927 -0.156387,-0.1148811 -0.05455,-0.01928 -0.11343,-0.032724 -0.143334,-0.032724 -0.03081,0 -0.0397,0.00377 -0.249657,0.1058724 -0.06396,0.031105 -0.123512,0.059341 -0.132334,0.062746 -0.0088,0.00341 -0.02868,0.011717 -0.04413,0.018472 -0.01545,0.00675 -0.04432,0.019274 -0.06416,0.027823 -0.01984,0.00855 -0.05412,0.023661 -0.07618,0.033581 -0.02206,0.00992 -0.05093,0.022597 -0.06416,0.028167 -0.01323,0.00557 -0.05293,0.022954 -0.08822,0.038628 -0.06809,0.030245 -0.139142,0.055029 -0.256647,0.08952 -0.0397,0.011654 -0.0794,0.024317 -0.08822,0.028141 -0.0088,0.00382 -0.02506,0.00878 -0.03609,0.011008 -0.01103,0.00223 -0.03449,0.00813 -0.05213,0.013114 -0.210358,0.059391 -0.501727,0.085806 -0.675483,0.06124 -0.09368,-0.013245 -0.136344,-0.037891 -0.182263,-0.1052723 -0.05664,-0.083111 -0.06337,-0.1813035 -0.02777,-0.4050212 0.0105,-0.065984 0.04644,-0.2224308 0.05504,-0.2396199 0.01311,-0.02618 0.0306,-0.06989 0.06045,-0.1510258 0.0314,-0.085372 0.12238,-0.2626182 0.185188,-0.3608032 0.01508,-0.023575 0.02742,-0.044418 0.02742,-0.046317 0,-0.00298 0.05583,-0.088415 0.150594,-0.23043 0.07016,-0.1051466 0.245822,-0.3213443 0.311726,-0.3836586 0.04178,-0.039505 0.126616,-0.1106597 0.200454,-0.1681292 0.112251,-0.087369 0.213061,-0.1615818 0.23974,-0.1764914 0.04723,-0.026391 0.165803,-0.103791 0.184226,-0.120251 0.01626,-0.014527 0.05976,-0.037782 0.141086,-0.075427 0.06076,-0.028127 0.07738,-0.046895 0.06386,-0.07215 -0.01208,-0.02256 -0.02285,-0.027986 -0.112713,-0.05675 -0.09149,-0.02929 -0.416953,-0.1909557 -0.541643,-0.2690563 -0.100281,-0.062812 -0.234894,-0.1647924 -0.34859,-0.2640852 -0.08609,-0.075188 -0.281509,-0.2684247 -0.302539,-0.2991671 -0.0098,-0.014328 -0.02611,-0.035075 -0.03625,-0.046103 -0.01571,-0.01709 -0.06996,-0.088294 -0.137149,-0.1800164 -0.0095,-0.012991 -0.02655,-0.034647 -0.03785,-0.048121 -0.02291,-0.027317 -0.127828,-0.1777684 -0.127828,-0.1833025 0,-0.00195 -0.02414,-0.044603 -0.05364,-0.0948 -0.05222,-0.088858 -0.178874,-0.3337729 -0.178925,-0.3459957 -2.3e-5,-0.00573 -0.0051,-0.017796 -0.04673,-0.1111042 -0.02503,-0.056088 -0.06641,-0.1891184 -0.09078,-0.2918245 -0.0042,-0.017644 -0.01112,-0.046517 -0.01542,-0.064162 -0.02844,-0.1169014 -0.04056,-0.2276725 -0.03811,-0.3484145 0.0023,-0.1133206 0.0044,-0.1284609 0.02221,-0.1648797 0.03847,-0.07843 0.108996,-0.1312866 0.220936,-0.165587 0.0542,-0.016609 0.231728,-0.020814 0.309446,-0.00733 0.02389,0.00415 0.07051,0.011624 0.103595,0.01662 0.05226,0.00789 0.203842,0.042675 0.276698,0.063494 0.03004,0.00858 0.210878,0.071192 0.232586,0.080523 0.0088,0.00379 0.04852,0.0201 0.08822,0.03624 0.0397,0.01614 0.08662,0.035913 0.104264,0.043942 0.01764,0.00803 0.05374,0.024468 0.0802,0.036534 0.08719,0.039749 0.264695,0.1294458 0.298918,0.1510495 0.01848,0.011667 0.03527,0.021212 0.03731,0.021212 0.0074,0 0.146542,0.087291 0.20915,0.1312007 0.08579,0.060169 0.206543,0.1469223 0.216755,0.1557277 0.0045,0.0039 0.01896,0.013941 0.03208,0.022308 0.01312,0.00837 0.02566,0.017121 0.02786,0.019454 0.0022,0.00233 0.01664,0.013887 0.03208,0.025677 0.01544,0.011789 0.0389,0.030865 0.05213,0.04239 0.01323,0.011525 0.05243,0.045168 0.08711,0.074761 0.03468,0.029594 0.09603,0.084922 0.136343,0.122952 0.04031,0.03803 0.09495,0.087239 0.121414,0.1093532 0.05589,0.046699 0.242578,0.2370066 0.287123,0.2926905 0.01711,0.021379 0.03716,0.038095 0.04571,0.038095 0.01771,0 0.05615,-0.046808 0.05615,-0.06836 0,-0.00809 0.0034,-0.025797 0.0075,-0.039344 0.0042,-0.013547 0.01136,-0.04448 0.01602,-0.068741 0.02275,-0.1183021 0.06503,-0.30954 0.08069,-0.3649201 0.005,-0.017644 0.01219,-0.046517 0.01601,-0.064162 0.01606,-0.074241 0.07096,-0.2281744 0.104403,-0.2927373 0.008,-0.015439 0.03035,-0.058748 0.04966,-0.096243 0.01931,-0.037494 0.04536,-0.1006538 0.05786,-0.1403539 0.04931,-0.1564608 0.128707,-0.3074353 0.209523,-0.3983861 0.03538,-0.039817 0.12213,-0.1117503 0.164928,-0.136758 0.05698,-0.033291 0.111056,-0.052236 0.200032,-0.070073 0.101102,-0.020268 0.138209,-0.020426 0.234779,-0.001 0.07834,0.015759 0.102666,0.024477 0.185903,0.066622 0.07649,0.038729 0.169713,0.121927 0.22268,0.1987364 0.01369,0.01985 0.02693,0.037896 0.02943,0.040101 0.0025,0.00221 0.0085,0.011229 0.01328,0.02005 0.0048,0.00882 0.01766,0.032281 0.02857,0.052131 0.03943,0.071767 0.0982,0.2395286 0.108911,0.310858 0.0022,0.014377 0.0071,0.028124 0.01106,0.030549 0.0039,0.00243 0.0071,0.013006 0.0071,0.023513 0,0.010507 0.0032,0.021077 0.0071,0.023489 0.0039,0.00241 0.009,0.014354 0.01128,0.026539 0.0023,0.012184 0.01727,0.072681 0.03328,0.1344369 0.0291,0.1122687 0.03883,0.1527973 0.05299,0.2205561 0.0042,0.01985 0.01074,0.050527 0.01465,0.068172 0.01361,0.061393 0.04124,0.1927703 0.04977,0.2365965 0.03332,0.1713268 0.08663,0.3228122 0.117824,0.3347813 0.0068,0.00262 0.01546,-0.00191 0.02036,-0.010663 0.01773,-0.031671 0.484213,-0.5131236 0.566961,-0.585148 0.0877,-0.076332 0.18769,-0.1577656 0.23179,-0.1887662 0.123007,-0.086471 0.147192,-0.103056 0.235866,-0.1617462 0.05165,-0.034186 0.09561,-0.062157 0.09769,-0.062157 0.0021,0 0.02352,-0.012632 0.04766,-0.028071 0.02413,-0.015439 0.04537,-0.028071 0.04719,-0.028071 0.0018,0 0.04982,-0.026292 0.106654,-0.058428 0.14307,-0.08089 0.2990822,-0.1566443 0.4161292,-0.2020573 0.03087,-0.011981 0.06336,-0.024705 0.07218,-0.028277 0.154668,-0.062621 0.404003,-0.1376429 0.533345,-0.1604756 0.02867,-0.00507 0.06945,-0.012522 0.09062,-0.016579 0.0613,-0.011747 0.284334,-0.00902 0.327227,0.00399 0.116563,0.035379 0.190062,0.1052456 0.228501,0.2172062 0.01622,0.047239 0.01871,0.2369951 0.0041,0.3117465 -0.0049,0.024834 -0.01258,0.065906 -0.01718,0.09127 -0.01141,0.062979 -0.03069,0.1517268 -0.04139,0.1904802 -0.01797,0.065085 -0.09711,0.2977477 -0.111668,0.3283305 -0.0083,0.017371 -0.01504,0.036017 -0.01504,0.041438 0,0.00542 -0.0028,0.011059 -0.0062,0.012529 -0.0034,0.00147 -0.03062,0.051396 -0.06048,0.1109464 -0.05741,0.1145139 -0.074,0.1453393 -0.09742,0.1810844 -0.008,0.012167 -0.02708,0.045877 -0.04246,0.074909 -0.01538,0.029032 -0.05099,0.086542 -0.07913,0.127799 -0.02815,0.041258 -0.05117,0.077691 -0.05117,0.080964 0,0.00327 -0.0072,0.012483 -0.01604,0.020467 -0.0088,0.00798 -0.01604,0.017762 -0.01604,0.021729 0,0.00396 -0.01081,0.018746 -0.02403,0.032843 -0.01321,0.014097 -0.02404,0.02808 -0.02406,0.031073 -2.1e-5,0.00299 -0.0046,0.010212 -0.01006,0.01604 -0.0055,0.00583 -0.02069,0.025035 -0.03373,0.042679 -0.0643,0.087044 -0.28165,0.3152489 -0.369292,0.3877405 -0.03526,0.029189 -0.06594,0.055152 -0.06814,0.057696 -0.0022,0.00255 -0.01153,0.00983 -0.02072,0.016191 -0.0092,0.00636 -0.03265,0.025011 -0.05213,0.041445 -0.0536,0.045208 -0.143441,0.1104746 -0.152081,0.1104746 -0.0042,0 -0.0076,0.00294 -0.0076,0.00655 0,0.0036 -0.01507,0.015328 -0.0335,0.026065 -0.01842,0.010737 -0.05001,0.02934 -0.07018,0.041339 -0.03749,0.022295 -0.3235882,0.1655337 -0.3815472,0.1910204 -0.01764,0.00776 -0.05013,0.022043 -0.07218,0.031743 -0.08314,0.036563 -0.09717,0.043698 -0.1323331,0.067291 -0.08429,0.056553 -0.08518,0.055193 0.08921,0.1364753 0.05853,0.027283 0.263276,0.1595865 0.337844,0.2183143 0.1386793,0.1092209 0.1744083,0.1386755 0.2418683,0.199399 0.139484,0.1255557 0.28518,0.2807938 0.369576,0.3937821 0.02609,0.034922 0.04979,0.065298 0.05267,0.067504 0.0078,0.006 0.168001,0.2399709 0.168001,0.2454407 0,0.0026 0.0069,0.014444 0.01539,0.026329 0.0085,0.011885 0.02704,0.043119 0.04129,0.06941 0.01425,0.02629 0.03502,0.064042 0.04615,0.083892 0.05504,0.098145 0.151695,0.3058002 0.173476,0.3727103 0.06538,0.2008395 0.08785,0.4782595 0.04826,0.5956987 -0.0407,0.1207127 -0.137095,0.1624338 -0.375336,0.1624514 -0.159105,1.19e-5 -0.300981,-0.015553 -0.446479,-0.048982 -0.01985,-0.00456 -0.05233,-0.011876 -0.07218,-0.016257 -0.07838,-0.017286 -0.138809,-0.035741 -0.2347523,-0.071678 -0.03634,-0.01361 -0.08411,-0.031346 -0.106168,-0.039413 -0.138798,-0.050772 -0.208362,-0.078217 -0.267445,-0.1055217 -0.03683,-0.017021 -0.06862,-0.030946 -0.07065,-0.030946 -0.002,0 -0.09099,-0.042769 -0.197704,-0.095041 C 8.9568774,8.8628513 7.9614656,9.0001541 8.6777507,8.881536 8.6318965,9.0594718 8.5185376,9.0375794 8.3370236,9.0140812 8.185435,9.1137196 8.1005567,9.014872 8.0742567,9.0833852 c -0.01929,0.050266 -0.02439,0.062505 -0.04647,0.111637 -0.06306,0.1403095 -0.08701,0.2149221 -0.106825,0.3328387 -0.01724,0.1026026 -0.02375,0.1389566 -0.0309,0.1724346 -0.0042,0.01985 -0.01358,0.06677 -0.02075,0.104263 -0.0072,0.03749 -0.01605,0.08261 -0.0197,0.100253 -0.0037,0.01764 -0.01093,0.05374 -0.01615,0.0802 -0.0052,0.026469 -0.01278,0.06436 -0.01678,0.08421 -0.01395,0.06917 -0.02296,0.125283 -0.04378,0.272688 -0.02642,0.186991 -0.0294,0.202951 -0.06004,0.320809 -0.01541,0.05926 -0.04899,0.218183 -0.05339,0.252636 -0.0023,0.01764 -0.0073,0.03551 -0.01129,0.0397 -0.0039,0.0042 -0.0072,0.01958 -0.0072,0.0342 0,0.01462 -0.0033,0.03284 -0.0074,0.0405 -0.0041,0.0077 -0.0094,0.02024 -0.01178,0.02796 -0.0079,0.02566 -0.02904,0.01505 -0.04523,-0.02272 -0.0087,-0.02022 -0.01576,-0.04346 -0.01576,-0.05166 0,-0.0082 -0.0031,-0.0168 -0.0068,-0.01913 -0.0037,-0.0023 -0.009,-0.03051 -0.01173,-0.06263 -0.0027,-0.03212 -0.009,-0.09269 -0.01393,-0.134592 -0.01338,-0.112833 -0.0132,-0.369865 4.29e-4,-0.601516 0.0066,-0.112484 0.01203,-0.300964 0.01203,-0.418842 0,-0.264496 0.0071,-0.2494278 -0.119713,-0.2535616 -0.04723,-0.00154 -0.08987,8.465e-4 -0.0986,0.00552 -0.01486,0.00795 -0.0231,0.028513 -0.04238,0.1056826 -0.0064,0.02541 -0.008,0.140948 -0.0054,0.38497 0.0035,0.328725 0.01016,0.474009 0.02921,0.63338 0.0045,0.03749 0.01187,0.125917 0.01641,0.196495 0.0092,0.143341 0.0212,0.26657 0.03232,0.332839 0.01115,0.06644 0.01875,0.255223 0.01234,0.306499 -0.0041,0.03301 -0.01122,0.05078 -0.02629,0.06585 -0.02877,0.02877 -0.05169,0.02619 -0.08379,-0.0094 z"
       id="path1-1"
       sodipodi:nodetypes="ccccssccccccsccccsssccssssscscsssccssssssssscsssscsssscccscscsccsscssscssssssccssccccsscsssssscccccssccccccssssscscsccscsccscssccscscscscccsccssccscssssscscscscsscscsscssccsccccccsccscccsccccssccsccscscc" />
    <ellipse
       style="fill:#000000;fill-opacity:0.143426;stroke:#c00707;stroke-width:0.165;stroke-dasharray:none;stroke-opacity:0.421348"
       id="path5"
       cx="7.4724536"
       cy="11.982809"
       rx="0.24757871"
       ry="0.26408395" />
    <path
       style="fill:url(#radialGradient2);stroke-width:1"
       d="m 7.2077125,11.49829 c -0.014905,-0.01654 -0.031976,-0.04632 -0.037937,-0.06617 -0.00593,-0.01985 -0.013657,-0.04331 -0.017106,-0.05213 -0.00346,-0.0088 -0.010602,-0.0377 -0.0159,-0.06416 -0.021147,-0.10567 -0.02521,-0.123955 -0.049011,-0.220556 -0.034656,-0.140681 -0.036286,-0.149192 -0.062562,-0.326044 -0.01104,-0.0743 -0.031602,-0.249687 -0.041231,-0.351664 -0.00416,-0.04411 -0.010997,-0.109075 -0.01518,-0.144365 -0.00416,-0.03529 -0.011138,-0.09664 -0.015462,-0.136343 -0.0043,-0.0397 -0.01535,-0.12271 -0.024506,-0.1844657 C 6.9196614,9.8906374 6.9065832,9.7949964 6.899762,9.7398574 6.8741277,9.5327094 6.8188495,9.2952718 6.7718584,9.1904722 6.765933,9.1772389 6.7530735,9.1429521 6.7433037,9.1142802 6.7208508,9.0483872 6.6805088,8.9697817 6.6663584,8.9643526 c -0.00593,-0.00229 -0.046028,-2.225e-4 -0.089048,0.0046 -0.1076881,0.012048 -0.3361793,0.020439 -0.3794402,0.013934 -0.030092,-0.00452 -0.045604,-0.014763 -0.099791,-0.065868 -0.07335,-0.069182 -0.1162461,-0.1006927 -0.1563871,-0.1148811 -0.054546,-0.01928 -0.1134294,-0.032724 -0.1433342,-0.032724 -0.030812,0 -0.0397,0.00377 -0.2496568,0.1058724 -0.063959,0.031105 -0.1235117,0.059341 -0.1323335,0.062746 -0.00882,0.00341 -0.028682,0.011717 -0.04413,0.018472 -0.015448,0.00675 -0.04432,0.019274 -0.064163,0.027823 -0.019843,0.00855 -0.054119,0.023661 -0.076176,0.033581 -0.022058,0.00992 -0.05093,0.022597 -0.064164,0.028167 -0.013233,0.00557 -0.052933,0.022954 -0.088223,0.038628 -0.068092,0.030245 -0.1391421,0.055029 -0.2566473,0.08952 -0.0397,0.011654 -0.0794,0.024317 -0.088223,0.028141 -0.00882,0.00382 -0.025063,0.00878 -0.036088,0.011008 -0.011025,0.00223 -0.034487,0.00813 -0.052129,0.013114 -0.210358,0.059391 -0.5017266,0.085806 -0.6754834,0.06124 C 3.8772663,9.2744807 3.8345972,9.2498354 3.7886783,9.1824536 3.7320415,9.0993424 3.725312,9.0011501 3.7609137,8.7774324 c 0.010503,-0.065984 0.046444,-0.2224308 0.055042,-0.2396199 0.013106,-0.02618 0.0306,-0.06989 0.060446,-0.1510258 0.031405,-0.085372 0.1223796,-0.2626182 0.1851879,-0.3608032 0.015081,-0.023575 0.027419,-0.044418 0.027419,-0.046317 0,-0.00298 0.055833,-0.088415 0.1505943,-0.23043 C 4.3097629,7.6440899 4.4854248,7.4278922 4.5513284,7.3655779 4.5931094,7.3260729 4.6779446,7.2549182 4.7517826,7.1974487 4.864034,7.1100797 4.9648438,7.0358669 4.9915228,7.0209573 c 0.047227,-0.026391 0.1658027,-0.103791 0.1842257,-0.120251 0.016259,-0.014527 0.059755,-0.037782 0.1410862,-0.075427 0.060763,-0.028127 0.077376,-0.046895 0.06386,-0.07215 -0.012076,-0.02256 -0.022848,-0.027986 -0.1127134,-0.05675 C 5.1764892,6.6670895 4.8510278,6.5054236 4.7263387,6.427323 4.6260573,6.3645108 4.4914447,6.2625306 4.3777486,6.1632378 4.2916549,6.0880503 4.0962394,5.8948131 4.0752092,5.8640707 4.0654042,5.8497425 4.0490952,5.8289959 4.0389586,5.8179677 4.0232493,5.8008779 3.9690039,5.7296734 3.9018093,5.6379513 3.8922935,5.6249599 3.875258,5.6033048 3.8639574,5.5898302 3.841046,5.5625134 3.7361293,5.4120618 3.7361293,5.4065277 c 0,-0.00195 -0.024139,-0.044603 -0.053639,-0.0948 C 3.6302696,5.2228699 3.5036167,4.9779548 3.5035659,4.965732 3.5035426,4.9600041 3.498487,4.9479361 3.456833,4.8546278 3.4318053,4.7985398 3.3904264,4.6655094 3.3660555,4.5628033 3.3618936,4.5451591 3.3549313,4.5162863 3.3506354,4.4986413 3.3221935,4.3817399 3.3100747,4.2709688 3.3125295,4.1502268 c 0.00233,-0.1133206 0.00437,-0.1284609 0.022206,-0.1648797 0.038473,-0.07843 0.108996,-0.1312866 0.2209356,-0.165587 0.054203,-0.016609 0.2317282,-0.020814 0.3094459,-0.00733 0.023892,0.00415 0.070512,0.011624 0.1035954,0.01662 0.052263,0.00789 0.2038423,0.042675 0.2766977,0.063494 0.030043,0.00858 0.2108779,0.071192 0.2325867,0.080523 0.00882,0.00379 0.048525,0.0201 0.088222,0.03624 0.0397,0.01614 0.086618,0.035913 0.1042635,0.043942 0.017642,0.00803 0.053737,0.024468 0.080202,0.036534 0.087191,0.039749 0.2646952,0.1294458 0.2989178,0.1510495 0.018482,0.011667 0.03527,0.021212 0.037309,0.021212 0.00739,0 0.1465418,0.087291 0.2091505,0.1312007 0.085793,0.060169 0.2065432,0.1469223 0.2167546,0.1557277 0.00451,0.0039 0.018961,0.013941 0.032082,0.022308 0.01312,0.00837 0.025656,0.017121 0.027863,0.019454 0.00219,0.00233 0.01664,0.013887 0.032082,0.025677 0.015441,0.011789 0.038896,0.030865 0.052129,0.04239 0.013233,0.011525 0.052433,0.045168 0.087112,0.074761 0.034678,0.029594 0.096032,0.084922 0.136343,0.122952 0.040314,0.03803 0.094948,0.087239 0.1214146,0.1093532 0.055889,0.046699 0.2425773,0.2370066 0.2871221,0.2926905 0.017106,0.021379 0.037161,0.038095 0.04571,0.038095 0.017706,0 0.05615,-0.046808 0.05615,-0.06836 0,-0.00809 0.00339,-0.025797 0.00754,-0.039344 0.00416,-0.013547 0.011357,-0.04448 0.01602,-0.068741 0.022749,-0.1183021 0.065031,-0.30954 0.080687,-0.3649201 0.00501,-0.017644 0.012189,-0.046517 0.016013,-0.064162 0.016062,-0.074241 0.070963,-0.2281744 0.1044038,-0.2927373 0.008,-0.015439 0.030346,-0.058748 0.04966,-0.096243 0.019314,-0.037494 0.045357,-0.1006538 0.057864,-0.1403539 0.049308,-0.1564608 0.128707,-0.3074353 0.2095229,-0.3983861 0.035383,-0.039817 0.1221298,-0.1117503 0.1649273,-0.136758 0.056975,-0.033291 0.1110565,-0.052236 0.2000324,-0.070073 0.1011025,-0.020268 0.1382088,-0.020426 0.2347791,-10e-4 0.078339,0.015759 0.1026657,0.024477 0.1859025,0.066622 0.076492,0.038729 0.1697134,0.121927 0.22268,0.1987364 0.013692,0.01985 0.026932,0.037896 0.029429,0.040101 0.00247,0.00221 0.00847,0.011229 0.013283,0.02005 0.0048,0.00882 0.017663,0.032281 0.028569,0.052131 0.039425,0.071767 0.098203,0.2395286 0.1089113,0.310858 0.00219,0.014377 0.00713,0.028124 0.011061,0.030549 0.00395,0.00243 0.00713,0.013006 0.00713,0.023513 0,0.010507 0.00317,0.021077 0.0071,0.023489 0.00388,0.00241 0.00898,0.014354 0.011279,0.026539 0.00233,0.012184 0.017275,0.072681 0.033281,0.1344369 0.029098,0.1122687 0.038832,0.1527973 0.05299,0.2205561 0.00416,0.01985 0.010736,0.050527 0.014651,0.068172 0.013607,0.061393 0.041245,0.1927703 0.049766,0.2365965 0.033316,0.1713268 0.086634,0.3228122 0.117824,0.3347813 0.00684,0.00262 0.015462,-0.00191 0.020358,-0.010663 0.017727,-0.031671 0.4842116,-0.5131235 0.5669596,-0.5851479 0.0877,-0.076332 0.18769,-0.1577656 0.23179,-0.1887662 0.123008,-0.086471 0.147192,-0.103056 0.235866,-0.1617462 0.05165,-0.034186 0.09561,-0.062157 0.09769,-0.062157 0.0021,0 0.02352,-0.012632 0.04766,-0.028071 0.02413,-0.015439 0.04537,-0.028071 0.04719,-0.028071 0.0018,0 0.04982,-0.026292 0.106654,-0.058428 0.14307,-0.08089 0.2990832,-0.1566443 0.4161302,-0.2020573 0.03087,-0.011981 0.06336,-0.024705 0.07218,-0.028277 0.154668,-0.062621 0.404003,-0.1376429 0.533345,-0.1604756 0.02867,-0.00507 0.06945,-0.012522 0.09062,-0.016579 0.0613,-0.011747 0.284334,-0.00902 0.327227,0.00399 0.116563,0.035379 0.190062,0.1052456 0.228501,0.2172062 0.01622,0.047239 0.01871,0.2369951 0.0041,0.3117465 -0.0049,0.024834 -0.01258,0.065906 -0.01718,0.09127 -0.01141,0.062979 -0.03069,0.1517268 -0.04139,0.1904802 -0.01797,0.065085 -0.09711,0.2977477 -0.111668,0.3283305 -0.0083,0.017371 -0.01504,0.036017 -0.01504,0.041438 0,0.00542 -0.0028,0.011059 -0.0062,0.012529 -0.0034,0.00147 -0.03062,0.051396 -0.06048,0.1109464 -0.05741,0.1145139 -0.074,0.1453393 -0.09742,0.1810844 -0.008,0.012167 -0.02708,0.045877 -0.04246,0.074909 -0.01538,0.029032 -0.05099,0.086542 -0.07913,0.127799 -0.02815,0.041258 -0.05117,0.077691 -0.05117,0.080964 0,0.00327 -0.0072,0.012483 -0.01604,0.020467 -0.0088,0.00798 -0.01604,0.017762 -0.01604,0.021729 0,0.00396 -0.01081,0.018746 -0.02403,0.032843 -0.01321,0.014097 -0.02404,0.02808 -0.02406,0.031073 -2.1e-5,0.00299 -0.0046,0.010212 -0.01006,0.01604 -0.0055,0.00583 -0.02069,0.025035 -0.03373,0.042679 -0.0643,0.087044 -0.28165,0.3152489 -0.369292,0.3877405 -0.03529,0.029189 -0.06597,0.055152 -0.06817,0.057696 -0.0022,0.00255 -0.01153,0.00983 -0.02072,0.016191 -0.0092,0.00636 -0.03265,0.025011 -0.05213,0.041445 -0.0536,0.045208 -0.143442,0.1104746 -0.152082,0.1104746 -0.0042,0 -0.0076,0.00294 -0.0076,0.00655 0,0.0036 -0.01507,0.015328 -0.0335,0.026065 -0.01842,0.010737 -0.05001,0.02934 -0.07018,0.041339 -0.03749,0.022295 -0.3235882,0.1655337 -0.3815472,0.1910204 -0.01764,0.00776 -0.05013,0.022043 -0.07218,0.031743 -0.08314,0.036563 -0.09717,0.043698 -0.132333,0.067291 -0.08429,0.056553 -0.08518,0.055193 0.08921,0.1364753 0.05853,0.027283 0.263276,0.1595865 0.337844,0.2183143 0.1386792,0.1092209 0.1744082,0.1386755 0.2418682,0.199399 0.139485,0.1255557 0.285181,0.2807938 0.369577,0.3937821 0.02609,0.034922 0.04979,0.065298 0.05267,0.067504 0.0078,0.006 0.168001,0.2399709 0.168001,0.2454407 0,0.0026 0.0069,0.014444 0.01539,0.026329 0.0085,0.011885 0.02704,0.043119 0.04129,0.06941 0.01425,0.02629 0.03502,0.064042 0.04615,0.083892 0.05504,0.098145 0.151695,0.3058002 0.173476,0.3727103 0.06538,0.2008395 0.08785,0.4782595 0.04826,0.5956987 -0.0407,0.1207127 -0.137095,0.1624338 -0.375336,0.1624514 -0.159105,1.19e-5 -0.300981,-0.015553 -0.44648,-0.048982 -0.01985,-0.00456 -0.05233,-0.011876 -0.07218,-0.016257 -0.07838,-0.017285 -0.1388082,-0.035741 -0.2347522,-0.071678 -0.03633,-0.01361 -0.08411,-0.031346 -0.106167,-0.039413 -0.138798,-0.050772 -0.208363,-0.078217 -0.267446,-0.1055217 -0.03683,-0.017021 -0.06862,-0.030946 -0.07065,-0.030946 -0.0021,0 -0.09099,-0.042769 -0.197704,-0.095041 C 8.9572618,8.7428184 8.9657218,8.74577 8.8867168,8.7608307 c -0.02955,0.00564 -0.06895,0.015197 -0.08754,0.021252 -0.04048,0.013182 -0.09868,0.00495 -0.1234401,-0.017454 -0.012874,-0.011654 -0.01523,-0.020563 -0.011152,-0.042278 0.00649,-0.034563 0.022418,-0.04761 0.1122581,-0.091932 0.08548,-0.042169 0.138639,-0.079542 0.147602,-0.1037686 0.01118,-0.030227 -0.008,-0.083282 -0.07015,-0.1943421 -0.01482,-0.026466 -0.0452,-0.082407 -0.06752,-0.1243127 C 8.7510938,8.1409911 8.6960468,8.0430276 8.6354414,7.9386735 8.5475913,7.7874055 8.335062,7.4657048 8.2384804,7.3378006 8.1707004,7.2480385 8.0429908,7.065642 8.0429908,7.0585992 c 0,-0.00172 -0.030473,-0.048906 -0.067719,-0.1048537 C 7.877411,6.8067403 7.8503842,6.7460268 7.8030827,6.5669289 7.7915635,6.523316 7.7918809,6.2611931 7.8035278,6.1994119 c 0.017416,-0.092414 0.049195,-0.1740511 0.09759,-0.2507094 0.032442,-0.05139 0.039347,-0.053891 0.067098,-0.024286 0.030904,0.032969 0.098837,0.1295535 0.098837,0.1405247 0,0.00459 0.0031,0.00954 0.00684,0.011011 0.00374,0.00147 0.027278,0.034464 0.052256,0.073321 0.024978,0.038856 0.049117,0.074947 0.053653,0.080202 0.00451,0.00526 0.044638,0.058277 0.089109,0.1178277 0.044476,0.05955 0.083323,0.1100775 0.086332,0.1122831 0.00303,0.00221 0.010673,0.011529 0.017035,0.02072 0.072288,0.1044402 0.490189,0.5420286 0.621102,0.6503621 0.100569,0.083223 0.100063,0.082819 0.103674,0.082819 0.0018,0 0.04536,0.028873 0.09683,0.064162 0.05147,0.035289 0.09634,0.064162 0.09969,0.064162 0.0034,0 0.01263,0.00722 0.02061,0.01604 0.008,0.00882 0.0176,0.016041 0.02136,0.016041 0.0037,0 0.01674,0.00878 0.02883,0.019512 0.01209,0.010733 0.03462,0.028161 0.05005,0.038731 0.01544,0.010571 0.05153,0.035709 0.0802,0.055863 0.11112,0.078109 0.257199,0.129002 0.37294,0.1299308 0.06316,5.044e-4 0.07544,-0.00174 0.09823,-0.017999 0.03332,-0.02377 0.03949,-0.049227 0.02261,-0.09342 -0.01653,-0.043266 -0.06703,-0.090977 -0.12511,-0.1182047 -0.07313,-0.034278 -0.119585,-0.054515 -0.125147,-0.054515 -0.0088,0 -0.229913,-0.1131106 -0.252782,-0.1292965 -0.01171,-0.00829 -0.0234,-0.015067 -0.02597,-0.015067 -0.0054,0 -0.0023,0.00253 -0.13449,-0.1068266 -0.160004,-0.1323421 -0.230861,-0.1990478 -0.299687,-0.2821547 -0.02192,-0.026467 -0.04888,-0.057144 -0.0599,-0.068172 -0.03081,-0.030809 -0.130278,-0.1449879 -0.153714,-0.1764449 -0.0115,-0.015439 -0.02854,-0.036744 -0.03786,-0.047343 -0.0093,-0.0106 -0.01696,-0.021427 -0.01699,-0.024061 -2e-5,-0.00263 -0.0099,-0.015615 -0.02206,-0.028849 -0.012112,-0.013234 -0.032843,-0.038186 -0.046077,-0.05545 -0.013233,-0.017265 -0.038261,-0.049747 -0.055621,-0.072182 -0.047142,-0.06093 -0.1889949,-0.2696431 -0.1889949,-0.2780743 0,-0.00403 -0.0036,-0.00733 -0.00802,-0.00733 -0.00437,0 -0.00802,-0.00354 -0.00802,-0.00787 0,-0.00432 -0.012338,-0.027154 -0.027419,-0.050729 -0.0289,-0.045176 -0.047777,-0.077621 -0.087237,-0.1499318 C 8.195544,5.6182067 8.1663347,5.5742774 8.0863237,5.4926423 8.0145356,5.4193972 7.9747791,5.3934841 7.8897971,5.3645473 7.7979051,5.3332577 7.78231,5.3287354 7.7662939,5.3287354 c -0.016683,0 -0.056968,-0.011971 -0.1025401,-0.030469 -0.038727,-0.015721 -0.08237,-0.063886 -0.0936,-0.1033028 -0.011985,-0.042053 -0.026657,-0.201091 -0.020732,-0.224693 0.00346,-0.013874 0.018721,-0.025667 0.054704,-0.042328 C 7.6910198,4.8877086 7.7517813,4.8356116 7.8141262,4.7478887 7.8724422,4.6658347 7.9323115,4.5509183 7.948736,4.4895064 7.962477,4.4381364 7.942736,4.4039274 7.878668,4.3679951 7.804527,4.3264201 7.7561989,4.2865171 7.7168988,4.2344281 7.6845838,4.1916021 7.6339518,4.0969761 7.6339518,4.0794214 c 0,-0.00377 -0.00722,-0.021788 -0.016041,-0.040048 -0.00882,-0.01826 -0.01604,-0.038107 -0.01604,-0.044105 0,-0.012594 -0.029133,-0.046011 -0.040116,-0.046011 -0.00409,0 -0.022608,0.022557 -0.041188,0.050127 -0.02828,0.041962 -0.095732,0.128004 -0.1116052,0.1423589 -0.00247,0.00221 -0.014842,0.017869 -0.027567,0.034807 -0.036843,0.049052 -0.111874,0.094997 -0.2567262,0.1572106 -0.00882,0.00379 -0.032279,0.013997 -0.052129,0.022683 -0.01985,0.00869 -0.04511,0.018566 -0.056143,0.021955 -0.048038,0.014762 -0.1043579,0.04565 -0.1204467,0.06606 -0.024336,0.030876 -0.01748,0.070937 0.021282,0.1242286 0.016894,0.023232 0.033485,0.043443 0.036871,0.044913 0.00339,0.00147 0.00614,0.00595 0.00614,0.00994 0,0.004 0.016238,0.032607 0.036088,0.063576 0.01985,0.030968 0.036088,0.059878 0.036088,0.064244 0,0.00437 0.00339,0.00794 0.00748,0.00794 0.00409,0 0.00992,0.00768 0.012902,0.017071 0.00744,0.023447 0.083515,0.096937 0.1401712,0.135411 0.045731,0.031058 0.046923,0.032814 0.052482,0.077276 0.00808,0.064638 -0.00183,0.1717169 -0.019765,0.2135498 C 7.1972679,5.2689173 7.1581609,5.2948503 7.0528357,5.317245 6.9581627,5.337374 6.9348896,5.344363 6.8641885,5.373892 6.8178855,5.393231 6.7390882,5.443668 6.704807,5.4759089 c -0.014771,0.013894 -0.047212,0.05233 -0.072093,0.085413 -0.024879,0.033083 -0.051586,0.067148 -0.05936,0.075699 -0.00777,0.00855 -0.014122,0.018406 -0.014122,0.0219 0,0.00349 -0.012634,0.026099 -0.028068,0.050234 -0.015441,0.024135 -0.028068,0.047664 -0.028068,0.052287 0,0.00462 -0.00317,0.0084 -0.00706,0.0084 -0.00656,0 -0.065116,0.1106539 -0.065116,0.12303 0,0.00305 -0.013283,0.026237 -0.029521,0.051533 C 6.385161,5.9697009 6.360592,6.0084439 6.346801,6.0304989 6.333003,6.0525549 6.29937,6.1040439 6.272056,6.14492 6.244743,6.185796 6.222396,6.221192 6.222396,6.223577 c 0,0.00631 -0.069397,0.1048914 -0.1075845,0.1528255 -0.018023,0.022624 -0.039989,0.051125 -0.048814,0.063334 -0.00882,0.01221 -0.029839,0.037008 -0.046712,0.055108 -0.016866,0.0181 -0.045555,0.054563 -0.063747,0.08103 -0.018192,0.026467 -0.0414,0.054711 -0.051572,0.062765 -0.010172,0.00805 -0.030001,0.031513 -0.044066,0.052131 -0.05414,0.079349 -0.2371738,0.2715393 -0.3723578,0.3909882 -0.1187475,0.1049249 -0.2603401,0.1900118 -0.4320971,0.2596579 -0.096812,0.039256 -0.1615323,0.078666 -0.2129335,0.1296614 -0.030657,0.030417 -0.055741,0.060873 -0.055741,0.067679 0,0.046375 0.060904,0.091256 0.1243166,0.091605 0.064453,3.56e-4 0.1929685,-0.035118 0.290077,-0.080065 0.046288,-0.021425 0.2368036,-0.1453365 0.3007984,-0.195641 0.011794,-0.00927 0.04887,-0.036706 0.082399,-0.060967 0.2166143,-0.1567552 0.3012845,-0.2308588 0.5177535,-0.4531426 0.097512,-0.1001316 0.254141,-0.2796496 0.3246713,-0.372118 0.00875,-0.01148 0.040405,-0.05155 0.070329,-0.089044 0.029923,-0.037494 0.057187,-0.071781 0.060587,-0.076192 0.011068,-0.014359 0.1176032,-0.165639 0.1258487,-0.1787046 0.00437,-0.00699 0.026967,-0.042692 0.050126,-0.079338 0.023158,-0.036646 0.042105,-0.068362 0.042105,-0.070479 0,-0.00694 0.051085,-0.0765 0.056185,-0.0765 0.024745,0 0.1091286,0.1508747 0.1300155,0.2324622 0.022157,0.086548 0.030325,0.150741 0.030339,0.238331 1.13e-5,0.1201749 -0.016986,0.2173326 -0.055847,0.3191985 -0.012408,0.032527 -0.067458,0.1444926 -0.072951,0.1483741 -0.0031,0.00221 -0.013819,0.018446 -0.023779,0.036091 -0.026826,0.047541 -0.057328,0.1021059 -0.067246,0.1203034 -0.0048,0.00882 -0.010567,0.017845 -0.012796,0.02005 -0.00226,0.00221 -0.014757,0.018446 -0.027828,0.036091 -0.013071,0.017644 -0.030198,0.039077 -0.038049,0.047629 -0.00785,0.00855 -0.014277,0.020281 -0.014277,0.026065 0,0.00578 -0.0036,0.010518 -0.00802,0.010518 -0.00437,0 -0.00802,0.00377 -0.00802,0.00838 0,0.00461 -0.026516,0.047013 -0.058922,0.094238 -0.032406,0.047224 -0.065793,0.098414 -0.074187,0.1137545 -0.00839,0.01534 -0.025521,0.038799 -0.038064,0.052131 -0.019624,0.020864 -0.062865,0.080576 -0.089485,0.1235689 -0.00444,0.00712 -0.010137,0.014758 -0.012718,0.016964 -0.00698,0.00595 -0.063472,0.09583 -0.063472,0.1009685 0,0.00243 -0.010828,0.020151 -0.024061,0.039386 -0.013233,0.019234 -0.024061,0.037602 -0.024061,0.040817 0,0.00322 -0.015279,0.026024 -0.033958,0.050686 -0.018679,0.024662 -0.043721,0.063574 -0.055649,0.086472 -0.011928,0.022897 -0.066435,0.1077113 -0.1211219,0.1884752 -0.05469,0.080764 -0.1061546,0.1612797 -0.1143655,0.1789242 -0.00821,0.017644 -0.016972,0.033885 -0.019462,0.036091 -0.00247,0.00221 -0.022079,0.040101 -0.043516,0.084212 -0.021437,0.044111 -0.042141,0.086469 -0.046006,0.094129 -0.00388,0.00766 -0.00705,0.03531 -0.00705,0.061444 0,0.043729 0.00205,0.049279 0.026065,0.06962 0.014334,0.012156 0.056742,0.036189 0.094238,0.053406 0.1056192,0.0485 0.139652,0.065497 0.1486544,0.074245 0.00459,0.00444 0.02258,0.038305 0.040032,0.075264 0.034353,0.072746 0.067733,0.1080382 0.1315173,0.1390339 0.04365,0.021214 0.1084789,0.023456 0.2051219,0.0071 0.054069,-0.00915 0.1586478,-0.048433 0.1724349,-0.064768 0.012605,-0.014938 0.097374,-0.064348 0.1103941,-0.064348 0.020414,0 0.036229,0.018719 0.060996,0.072182 0.074278,0.1603613 0.2533869,0.3139867 0.4180977,0.3586127 0.1310461,0.035505 0.1686935,0.034448 0.2847174,-0.008 0.1105111,-0.040429 0.1959601,-0.088531 0.2446173,-0.1377053 0.064199,-0.064882 0.1137172,-0.1287157 0.1510034,-0.1946597 0.061095,-0.1080555 0.083025,-0.1139032 0.1681856,-0.044852 0.025197,0.020428 0.052207,0.033438 0.1209899,0.058267 0.038395,0.01386 0.065299,0.017017 0.1443641,0.016943 0.1022446,-9.63e-5 0.1540896,-0.00979 0.2149439,-0.04018 0.028272,-0.014121 0.039122,-0.015862 0.056834,-0.00913 0.027793,0.010566 0.027743,0.02701 -1.63e-4,0.055235 -0.019448,0.019672 -0.040631,0.030693 -0.1126605,0.058625 -0.035214,0.013654 -0.1896862,0.0083 -0.2521701,-0.00874 -0.085443,-0.023299 -0.1673348,-0.03352 -0.1805703,-0.022535 -0.011696,0.00971 -0.03163,0.050751 -0.057928,0.1192642 -0.019293,0.050266 -0.024386,0.062505 -0.046465,0.111637 -0.063063,0.1403095 -0.087012,0.2149221 -0.1068247,0.3328387 -0.01724,0.102603 -0.023751,0.1389569 -0.030897,0.1724348 -0.00423,0.01985 -0.013579,0.066768 -0.020753,0.1042628 -0.00718,0.037494 -0.016048,0.082608 -0.019702,0.1002527 -0.00367,0.017644 -0.010927,0.053736 -0.016154,0.080202 -0.00522,0.026467 -0.012782,0.064362 -0.016781,0.084212 -0.013946,0.06917 -0.022961,0.125282 -0.043784,0.272687 -0.026417,0.186992 -0.029401,0.202952 -0.060044,0.32081 -0.015406,0.05926 -0.04899,0.218183 -0.053385,0.252636 -0.00226,0.01764 -0.00733,0.03551 -0.011294,0.0397 -0.00395,0.0042 -0.0072,0.01958 -0.0072,0.0342 0,0.01462 -0.00332,0.03284 -0.00744,0.0405 -0.00409,0.0077 -0.00939,0.02024 -0.01178,0.02796 -0.00794,0.02566 -0.029041,0.01505 -0.04523,-0.02272 -0.00867,-0.02022 -0.015759,-0.04346 -0.015759,-0.05166 0,-0.0082 -0.0031,-0.0168 -0.00684,-0.01913 -0.00374,-0.0023 -0.00904,-0.03051 -0.011731,-0.06263 -0.00268,-0.03212 -0.00896,-0.09269 -0.013925,-0.134592 -0.013381,-0.112833 -0.013198,-0.369865 4.296e-4,-0.601517 0.00663,-0.112484 0.012034,-0.3009612 0.012034,-0.418839 0,-0.2644964 0.00712,-0.2494282 -0.1197132,-0.253562 -0.047234,-0.00154 -0.089868,8.465e-4 -0.098603,0.00552 -0.014856,0.00795 -0.023102,0.028513 -0.042381,0.1056824 -0.00635,0.025414 -0.00797,0.1409479 -0.00543,0.3849706 0.00346,0.328722 0.010158,0.474006 0.029211,0.633377 0.00451,0.03749 0.011872,0.125917 0.016415,0.196495 0.00923,0.143341 0.021197,0.26657 0.032315,0.332839 0.011145,0.06644 0.01875,0.255222 0.012345,0.306498 -0.00409,0.03301 -0.011223,0.05078 -0.02629,0.06585 -0.028773,0.02877 -0.051692,0.02619 -0.08379,-0.0094 z M 10.233278,8.5683583 c 0.04941,-0.035187 0.02417,-0.099702 -0.08379,-0.2140808 C 10.039078,8.2372881 9.9726558,8.1759473 9.8661638,8.0926232 9.8031538,8.0433252 9.6267968,7.9272867 9.6148768,7.9272867 c -0.0044,0 -0.0079,-0.00361 -0.0079,-0.00802 0,-0.00441 -0.0034,-0.00802 -0.0075,-0.00802 -0.0064,0 -0.04436,-0.021869 -0.125299,-0.072182 -0.128187,-0.07968 -0.173872,-0.1094686 -0.189547,-0.1235921 -0.02355,-0.021215 -0.09059,-0.071225 -0.162931,-0.1215367 -0.03088,-0.021475 -0.05795,-0.041148 -0.06015,-0.043718 -0.0022,-0.00257 -0.03468,-0.02584 -0.07218,-0.05171 -0.03749,-0.02587 -0.07539,-0.053209 -0.08421,-0.060755 -0.03353,-0.028676 -0.16014,-0.087993 -0.1875389,-0.087861 -0.027948,1.349e-4 -0.043523,0.077577 -0.023003,0.1143345 0.025853,0.0463 0.063874,0.079323 0.2499969,0.2171427 0.01288,0.00954 0.03814,0.029628 0.05614,0.044648 0.04747,0.039616 0.149128,0.1147075 0.177088,0.1308142 0.01323,0.00762 0.04493,0.025356 0.07044,0.039405 0.02551,0.01405 0.08408,0.056559 0.130156,0.094464 0.04608,0.037906 0.100996,0.081509 0.122044,0.096896 0.02105,0.015388 0.04368,0.03366 0.0503,0.040604 0.0066,0.00695 0.03368,0.026712 0.06015,0.043928 0.02647,0.017215 0.04993,0.033406 0.05213,0.035978 0.0022,0.00257 0.03468,0.025957 0.07218,0.051964 0.07851,0.054458 0.136328,0.1013012 0.204516,0.1656991 0.1540872,0.1455233 0.2345112,0.184594 0.2935042,0.142587 z M 4.7105878,8.5538413 c 0.013233,-0.00825 0.04049,-0.030795 0.060566,-0.050096 0.020076,-0.019302 0.076019,-0.069299 0.1243137,-0.1111044 0.048292,-0.041806 0.089612,-0.078044 0.091818,-0.080529 0.032794,-0.036953 0.3092739,-0.2476351 0.3585505,-0.2732235 0.018552,-0.00963 0.040208,-0.023347 0.048123,-0.030473 0.012796,-0.011525 0.087526,-0.063766 0.1218096,-0.085157 0.03029,-0.018897 0.117482,-0.079406 0.1211571,-0.084076 0.00219,-0.0028 0.029274,-0.022856 0.06015,-0.044563 0.030876,-0.021707 0.057342,-0.042242 0.058816,-0.045632 0.00148,-0.00339 0.00642,-0.00617 0.010955,-0.00617 0.00802,0 0.042804,-0.023606 0.1347446,-0.091444 0.069094,-0.050976 0.1917116,-0.1651952 0.2173438,-0.2024511 0.02526,-0.036711 0.028308,-0.060335 0.013974,-0.1081869 -0.012535,-0.041839 -0.025719,-0.040604 -0.1294999,0.012127 -0.070484,0.035813 -0.2071569,0.1225326 -0.2221199,0.1409359 -0.00219,0.00272 -0.023285,0.017131 -0.046853,0.032042 -0.02356,0.014911 -0.047332,0.031602 -0.052821,0.037092 -0.0055,0.00549 -0.031327,0.023511 -0.057413,0.040047 C 5.4595898,7.707325 5.0079827,8.013195 4.9712467,8.0452229 c -0.024259,0.021152 -0.074853,0.067331 -0.1124263,0.1026195 -0.037577,0.035289 -0.093514,0.087757 -0.1243131,0.1165963 -0.067733,0.063421 -0.097007,0.1001155 -0.1335404,0.1673839 -0.031263,0.057561 -0.02792,0.1126802 0.00769,0.126773 0.034177,0.013529 0.075722,0.01159 0.1019356,-0.00475 z M 6.0447162,5.845455 C 6.0946516,5.8205451 6.0853332,5.7796868 6.0081622,5.6851307 5.9457129,5.6086159 5.7373251,5.4050529 5.6449406,5.3303251 5.6030327,5.2964284 5.5669443,5.2667077 5.5647385,5.2642797 5.5551097,5.2536746 5.4510156,5.1843712 5.4447192,5.1843712 c -0.00381,0 -0.00817,-0.00323 -0.00964,-0.00717 -0.00148,-0.00394 -0.013875,-0.013871 -0.027574,-0.022056 C 5.3613052,5.1275342 5.290696,5.0794722 5.2754078,5.0652292 5.2670578,5.0574492 5.2105388,5.0224362 5.1498186,4.9874232 5.0890976,4.9524105 5.0285853,4.9174465 5.015352,4.9097256 4.8821212,4.8319946 4.7107592,4.7618664 4.4940377,4.6963821 4.4188178,4.673654 4.3296909,4.665781 4.2976868,4.6790376 c -0.028174,0.01167 -0.056284,0.047052 -0.056284,0.070842 0,0.028553 0.064939,0.084018 0.1172604,0.1001554 0.046077,0.014212 0.1193703,0.040353 0.1514168,0.054007 0.00882,0.00376 0.032279,0.012157 0.052129,0.018662 0.059515,0.019503 0.124694,0.047644 0.2365962,0.1021449 0.077264,0.03763 0.095195,0.047294 0.1563948,0.084283 0.015441,0.00933 0.047918,0.027748 0.072182,0.040926 0.098326,0.053408 0.1272977,0.070763 0.1939004,0.1161561 0.038275,0.026084 0.073904,0.052627 0.079179,0.058984 0.00529,0.00636 0.014002,0.011559 0.019398,0.011559 0.00536,0 0.016337,0.00722 0.024322,0.016041 0.00799,0.00882 0.01937,0.01604 0.025303,0.01604 0.00593,0 0.010786,0.00283 0.010786,0.00629 0,0.00346 0.011731,0.013139 0.026065,0.021506 0.022749,0.013279 0.082801,0.056925 0.094238,0.068491 0.00219,0.00223 0.018446,0.014672 0.036088,0.027647 0.017642,0.012975 0.033888,0.025832 0.036088,0.02857 0.00219,0.00274 0.023864,0.020476 0.048123,0.039418 0.024259,0.018941 0.096732,0.084978 0.1610462,0.1467499 0.1485916,0.1427166 0.1995753,0.1694794 0.2627864,0.1379452 z M 8.8858808,5.830972 c 0.02213,-0.014903 0.06259,-0.048366 0.08991,-0.074362 0.05418,-0.051556 0.208112,-0.1901178 0.238348,-0.2145546 0.01038,-0.00839 0.04905,-0.039917 0.08592,-0.070061 0.03688,-0.030143 0.08401,-0.066349 0.104752,-0.080458 0.02074,-0.014109 0.03951,-0.028102 0.04172,-0.031095 0.0051,-0.00694 0.119027,-0.079828 0.124758,-0.079828 0.0078,0 0.119515,-0.078564 0.141564,-0.099597 0.023,-0.02194 0.05281,-0.027408 0.05825,-0.010681 0.0018,0.00552 0.0072,0.064162 0.01198,0.1303285 0.01,0.1371655 0.01685,0.151378 0.078,0.1610142 0.02974,0.00468 0.0359,0.00279 0.05379,-0.016504 0.0197,-0.021257 0.02028,-0.025304 0.02344,-0.1633555 0.0038,-0.1675525 0.0076,-0.1883368 0.03632,-0.2017041 0.02371,-0.011025 0.03025,-0.014389 0.1051082,-0.054043 0.128788,-0.068222 0.257469,-0.1307676 0.309167,-0.1502706 0.03087,-0.011648 0.06655,-0.025217 0.07926,-0.030154 0.04021,-0.015611 0.06911,-0.045369 0.06911,-0.07118 0,-0.031623 -0.03416,-0.083868 -0.06541,-0.1000256 -0.02396,-0.012393 -0.02927,-0.012125 -0.09428,0.00476 -0.03789,0.00984 -0.07231,0.02106 -0.07651,0.024935 -0.0042,0.00387 -0.0122,0.00705 -0.0178,0.00705 -0.0056,0 -0.02925,0.00848 -0.05253,0.018845 -0.02329,0.010365 -0.07302,0.03089 -0.110515,0.045611 -0.06392,0.025096 -0.09569,0.040342 -0.1341832,0.064379 -0.03648,0.022782 -0.05014,-0.011892 -0.0504,-0.1279494 -2.99e-4,-0.1272695 -0.06114,-0.1924176 -0.120433,-0.1289433 -0.02802,0.029997 -0.03629,0.083499 -0.02861,0.1851911 0.0084,0.1114867 -0.01521,0.1385627 -0.103475,0.1185832 -0.06488,-0.014686 -0.132616,-0.017872 -0.152596,-0.00718 -0.0099,0.00532 -0.02212,0.018572 -0.02708,0.029453 -0.01043,0.022881 0.0037,0.047298 0.05916,0.1020871 0.02783,0.027509 0.03019,0.032372 0.01704,0.03517 -0.0084,0.00178 -0.02644,0.00957 -0.0401,0.017308 -0.04544,0.025719 -0.153108,0.091547 -0.157178,0.096099 -0.0022,0.00247 -0.0098,0.0081 -0.01692,0.012506 -0.03861,0.023982 -0.182505,0.1312979 -0.223915,0.166987 -0.01115,0.00961 -0.04104,0.034995 -0.06641,0.056405 -0.18086,0.1526046 -0.3584308,0.3502858 -0.3584308,0.3990241 0,0.021436 0.067556,0.063313 0.1021398,0.063313 0.01718,0 0.04128,-0.00974 0.06705,-0.027097 z m 2.2574072,2.0631804 c -0.05501,-0.043277 -0.04048,-0.1227899 0.02898,-0.1584218 0.02796,-0.014343 0.0554,-0.00691 0.09147,0.024756 0.04991,0.043822 0.05147,0.071809 0.007,0.1246938 -0.01959,0.023277 -0.02642,0.026066 -0.0638,0.026066 -0.03058,0 -0.04772,-0.00461 -0.0636,-0.017094 z M 10.755291,7.1486471 c -0.04952,-0.025131 -0.06247,-0.047707 -0.05042,-0.087909 0.0052,-0.017445 0.02324,-0.046155 0.04002,-0.063798 0.0256,-0.026909 0.03564,-0.03208 0.06234,-0.03208 0.03348,0 0.05189,0.014251 0.08967,0.06941 0.02417,0.035279 0.02184,0.051796 -0.01275,0.090545 -0.03835,0.042969 -0.07705,0.050125 -0.128862,0.023831 z"
       id="path1"
       sodipodi:nodetypes="cccccscccsccscccssssscssssssscssccsssssssssscsscsssssscccccscssssscssscscssssscssccccsscsssssccccccsccscccccsssssssscsscscccssccssssssssccscssssssssssssssscscsssssscssssscsssccssssscsssssccccsssssssssssssssscscscssscsssscssssccssscssssssccsscccssssscscssssscscsssscsssscsscssssssscsssscsssscsccccssssssscccssssssscscscsccsssscsssssssssssssscscccccssccscccsscccsssscccscsccsssssssssccsscscsssscscsssscsscscscscsssssccccssssccccsscsccssssssssssscscssssscscsscccsssscsscssscssssssscsssscssssscssccsssscccsscscccccssscc" />
  </g>
</svg>
