<?xml version="1.0" encoding="UTF-8" standalone="no"?>
<!-- Created with Inkscape (http://www.inkscape.org/) -->

<svg
   width="15mm"
   height="15mm"
   viewBox="0 0 15 15"
   version="1.1"
   id="svg1"
   inkscape:export-filename="folklore.png"
   inkscape:export-xdpi="96"
   inkscape:export-ydpi="96"
   inkscape:version="1.3.2 (091e20e, 2023-11-25)"
   sodipodi:docname="folklore.svg"
   xmlns:inkscape="http://www.inkscape.org/namespaces/inkscape"
   xmlns:sodipodi="http://sodipodi.sourceforge.net/DTD/sodipodi-0.dtd"
   xmlns="http://www.w3.org/2000/svg"
   xmlns:svg="http://www.w3.org/2000/svg">
  <sodipodi:namedview
     id="namedview1"
     pagecolor="#ffffff"
     bordercolor="#000000"
     borderopacity="0.25"
     inkscape:showpageshadow="2"
     inkscape:pageopacity="0.0"
     inkscape:pagecheckerboard="0"
     inkscape:deskcolor="#d1d1d1"
     inkscape:document-units="mm"
     showguides="false"
     inkscape:zoom="13.877997"
     inkscape:cx="20.031709"
     inkscape:cy="21.761065"
     inkscape:window-width="1792"
     inkscape:window-height="993"
     inkscape:window-x="0"
     inkscape:window-y="25"
     inkscape:window-maximized="0"
     inkscape:current-layer="layer1" />
  <defs
     id="defs1">
    <linearGradient
       id="linearGradient9">
      <stop
         style="stop-color:#17360a;stop-opacity:1;"
         offset="0"
         id="stop10" />
      <stop
         style="stop-color:#4cab1c;stop-opacity:1;"
         offset="1"
         id="stop11" />
    </linearGradient>
    <linearGradient
       id="linearGradient9-1">
      <stop
         style="stop-color:#17360a;stop-opacity:1;"
         offset="0"
         id="stop9" />
      <stop
         style="stop-color:#4cab1c;stop-opacity:1;"
         offset="1"
         id="stop8" />
    </linearGradient>
    <filter
       inkscape:collect="always"
       style="color-interpolation-filters:sRGB"
       id="filter1"
       x="-0.041453233"
       y="-0.13545699"
       width="1.0829065"
       height="1.270914">
      <feGaussianBlur
         inkscape:collect="always"
         stdDeviation="0.14356502"
         id="feGaussianBlur1" />
    </filter>
  </defs>
  <g
     inkscape:label="Layer 1"
     inkscape:groupmode="layer"
     id="layer1">
    <path
       id="path1-7"
       style="fill:#000000;fill-opacity:0.297189;stroke:none;stroke-width:0.54;stroke-linecap:round;stroke-linejoin:round;stroke-dasharray:none;stroke-opacity:1;filter:url(#filter1)"
       d="m 14.846924,10.785841 c -0.37692,0.663301 -2.517644,1.201012 -4.78144,1.201012 -0.5659486,0 -1.0860124,-0.0336 -1.5418696,-0.09438 -0.2279278,-0.03039 -0.1212085,-0.298903 -1.1579933,0.236012 0.4328164,-0.541512 0.1559153,-0.439064 0.00135,-0.4934 C 6.7500706,11.418224 6.4605935,11.117386 6.6489931,10.785841 7.0259129,10.12254 9.1666359,9.5848286 11.430432,9.5848286 c 2.263796,0 3.793412,0.5377114 3.416492,1.2010124 z"
       sodipodi:nodetypes="ssscssss" />
    <ellipse
       style="fill:#000000;fill-opacity:0.19829424;stroke:#c00707;stroke-width:0.165;stroke-dasharray:none;stroke-opacity:0.21321961"
       id="path5"
       cx="7.4724536"
       cy="11.982809"
       rx="0.24757871"
       ry="0.26408395" />
    <path
       id="path1"
       style="fill:#959b93;fill-opacity:1;stroke:#39613e;stroke-width:0.54;stroke-linecap:round;stroke-linejoin:round;stroke-dasharray:none;stroke-opacity:1"
       d="m 14.451234,8.1502667 c 0,1.2687785 -1.83517,2.2973263 -4.098966,2.2973263 -0.5659485,0 -1.1051082,-0.06428 -1.5955016,-0.180535 -0.2451967,-0.05813 -0.4782018,0.595225 -1.2110218,1.618424 0.1251028,-1.035818 0.09356,-2.0068266 -0.091882,-2.1107601 -0.7401307,-0.4148175 -1.200559,-0.990269 -1.200559,-1.6244552 -1e-7,-1.2687784 1.835169,-2.2973266 4.0989643,-2.2973266 2.263796,-2e-7 4.098966,1.028548 4.098966,2.2973266 z"
       sodipodi:nodetypes="ssscssss" />
    <path
       id="rect1-9"
       style="fill:#9b9b9b;fill-opacity:1;stroke:none;stroke-width:0.24;stroke-linecap:round;stroke-linejoin:round;stroke-dasharray:none"
       d="M 6.8791663,5.6348353 H 8.4806221 V 7.3296008 H 7.6798941 L 7.7116692,8.5708377 6.8791663,7.3296008 Z"
       sodipodi:nodetypes="ccccccc" />
    <path
       id="rect1-9-8"
       style="fill:#9b9b9b;fill-opacity:1;stroke:none;stroke-width:0.24;stroke-linecap:round;stroke-linejoin:round;stroke-dasharray:none"
       d="M 8.5187524,5.6087927 H 10.120208 V 7.3035582 H 9.3194802 L 9.3512553,8.5447951 8.5187524,7.3035582 Z"
       sodipodi:nodetypes="ccccccc" />
    <path
       id="rect1-9-1"
       style="fill:#9b9b9b;fill-opacity:1;stroke:none;stroke-width:0.24;stroke-linecap:round;stroke-linejoin:round;stroke-dasharray:none"
       d="m 13.857747,7.896446 -1.771811,-0.00912 0.01369,1.694738 0.885906,0.00456 -0.02516,1.241036 0.911074,-1.236476 z"
       sodipodi:nodetypes="ccccccc" />
    <path
       id="rect1-9-1-3"
       style="fill:#9b9b9b;fill-opacity:1;stroke:none;stroke-width:0.24;stroke-linecap:round;stroke-linejoin:round;stroke-dasharray:none"
       d="m 12.107757,7.9633589 -1.771811,-0.00912 0.01369,1.694738 0.885906,0.00456 -0.02516,1.2410361 0.911074,-1.2364761 z"
       sodipodi:nodetypes="ccccccc" />
    <path
       id="rect1"
       style="fill:#8d2f9b;fill-opacity:1;stroke:none;stroke-width:0.24;stroke-linecap:round;stroke-linejoin:round;stroke-dasharray:none"
       d="M 7.0921619,5.8529398 H 8.2932538 V 7.2065512 H 7.6927078 L 7.7165391,8.1979287 7.0921619,7.2065512 Z"
       sodipodi:nodetypes="ccccccc" />
    <path
       id="rect1-0"
       style="fill:#8d2f9b;fill-opacity:1;stroke:none;stroke-width:0.24;stroke-linecap:round;stroke-linejoin:round;stroke-dasharray:none"
       d="M 8.7396397,5.8752451 H 9.9407316 V 7.2288565 H 9.3401856 L 9.3640169,8.220234 8.7396397,7.2288565 Z"
       sodipodi:nodetypes="ccccccc" />
    <path
       id="rect1-0-4"
       style="fill:#8d2f9b;fill-opacity:1;stroke:none;stroke-width:0.24;stroke-linecap:round;stroke-linejoin:round;stroke-dasharray:none"
       d="m 12.074595,8.0439973 h -1.277352 v 1.3536114 h 0.638675 l -0.02534,0.9913773 0.664021,-0.9913773 z"
       sodipodi:nodetypes="ccccccc" />
    <path
       id="rect1-0-4-5"
       style="fill:#8d2f9b;fill-opacity:1;stroke:none;stroke-width:0.24;stroke-linecap:round;stroke-linejoin:round;stroke-dasharray:none"
       d="m 13.778354,8.0491065 h -1.277353 v 1.3536114 h 0.638676 l -0.02534,0.9913771 0.664021,-0.9913771 z"
       sodipodi:nodetypes="ccccccc" />
  </g>
</svg>
