<?xml version="1.0" encoding="UTF-8" standalone="no"?>
<!-- Created with Inkscape (http://www.inkscape.org/) -->

<svg
   width="15mm"
   height="15mm"
   viewBox="0 0 15 15"
   version="1.1"
   id="svg1"
   inkscape:export-filename="folklore-swine.png"
   inkscape:export-xdpi="96"
   inkscape:export-ydpi="96"
   inkscape:version="1.3.2 (091e20e, 2023-11-25)"
   sodipodi:docname="folklore-swine.svg"
   xml:space="preserve"
   xmlns:inkscape="http://www.inkscape.org/namespaces/inkscape"
   xmlns:sodipodi="http://sodipodi.sourceforge.net/DTD/sodipodi-0.dtd"
   xmlns:xlink="http://www.w3.org/1999/xlink"
   xmlns="http://www.w3.org/2000/svg"
   xmlns:svg="http://www.w3.org/2000/svg"><sodipodi:namedview
     id="namedview1"
     pagecolor="#ffffff"
     bordercolor="#000000"
     borderopacity="0.25"
     inkscape:showpageshadow="2"
     inkscape:pageopacity="0.0"
     inkscape:pagecheckerboard="0"
     inkscape:deskcolor="#d1d1d1"
     inkscape:document-units="mm"
     showguides="false"
     inkscape:zoom="7.8229262"
     inkscape:cx="18.599178"
     inkscape:cy="57.651061"
     inkscape:window-width="1792"
     inkscape:window-height="993"
     inkscape:window-x="634"
     inkscape:window-y="86"
     inkscape:window-maximized="0"
     inkscape:current-layer="layer1" /><defs
     id="defs1"><linearGradient
       id="linearGradient7"
       inkscape:collect="always"><stop
         style="stop-color:#decdc4;stop-opacity:1;"
         offset="0"
         id="stop7" /><stop
         style="stop-color:#b73112;stop-opacity:1;"
         offset="1"
         id="stop12" /></linearGradient><linearGradient
       id="linearGradient9"><stop
         style="stop-color:#17360a;stop-opacity:1;"
         offset="0"
         id="stop10" /><stop
         style="stop-color:#4cab1c;stop-opacity:1;"
         offset="1"
         id="stop11" /></linearGradient><linearGradient
       id="linearGradient9-1"><stop
         style="stop-color:#17360a;stop-opacity:1;"
         offset="0"
         id="stop9" /><stop
         style="stop-color:#4cab1c;stop-opacity:1;"
         offset="1"
         id="stop8" /></linearGradient><filter
       inkscape:collect="always"
       style="color-interpolation-filters:sRGB"
       id="filter1"
       x="-0.041453233"
       y="-0.13545699"
       width="1.0829065"
       height="1.270914"><feGaussianBlur
         inkscape:collect="always"
         stdDeviation="0.14356502"
         id="feGaussianBlur1" /></filter><radialGradient
       inkscape:collect="always"
       xlink:href="#linearGradient7"
       id="radialGradient12"
       cx="10.534393"
       cy="8.2229481"
       fx="10.534393"
       fy="8.2229481"
       r="2.8743881"
       gradientTransform="matrix(1,0,0,0.88457968,-8.4072067,3.8094684)"
       gradientUnits="userSpaceOnUse" /></defs><g
     inkscape:label="Layer 1"
     inkscape:groupmode="layer"
     id="layer1"><path
       id="path1-7"
       style="fill:#000000;fill-opacity:0.297189;stroke:none;stroke-width:0.54;stroke-linecap:round;stroke-linejoin:round;stroke-dasharray:none;stroke-opacity:1;filter:url(#filter1)"
       d="m 14.846924,10.785841 c -0.37692,0.663301 -2.517644,1.201012 -4.78144,1.201012 -0.5659486,0 -1.0860124,-0.0336 -1.5418696,-0.09438 -0.2279278,-0.03039 -0.1212085,-0.298903 -1.1579933,0.236012 0.4328164,-0.541512 0.1559153,-0.439064 0.00135,-0.4934 C 6.7500706,11.418224 6.4605935,11.117386 6.6489931,10.785841 7.0259129,10.12254 9.1666359,9.5848286 11.430432,9.5848286 c 2.263796,0 3.793412,0.5377114 3.416492,1.2010124 z"
       sodipodi:nodetypes="ssscssss" /><ellipse
       style="fill:#000000;fill-opacity:0.19829424;stroke:#c00707;stroke-width:0.165;stroke-dasharray:none;stroke-opacity:0.21321961"
       id="path5"
       cx="7.4724536"
       cy="11.982809"
       rx="0.24757871"
       ry="0.26408395" /><path
       id="path1"
       style="fill:#959b93;fill-opacity:1;stroke:#39613e;stroke-width:0.54;stroke-linecap:round;stroke-linejoin:round;stroke-dasharray:none;stroke-opacity:1"
       d="m 14.451234,8.1502667 c 0,1.2687785 -1.83517,2.2973263 -4.098966,2.2973263 -0.5659485,0 -1.1051082,-0.06428 -1.5955016,-0.180535 -0.2451967,-0.05813 -0.4782018,0.595225 -1.2110218,1.618424 0.1251028,-1.035818 0.09356,-2.0068266 -0.091882,-2.1107601 -0.7401307,-0.4148175 -1.200559,-0.990269 -1.200559,-1.6244552 -1e-7,-1.2687784 1.835169,-2.2973266 4.0989643,-2.2973266 2.263796,-2e-7 4.098966,1.028548 4.098966,2.2973266 z"
       sodipodi:nodetypes="ssscssss" /><g
       id="g2"
       transform="rotate(-0.35140691,-501.03855,-1325.1153)"><path
         style="fill:url(#radialGradient12);fill-opacity:1;stroke:none;stroke-width:0.34;stroke-linecap:round;stroke-linejoin:round"
         d="m -0.81556103,8.3132429 c 0.1972912,0.9316347 0.21833484,1.5345118 0.61296105,1.7046881 L 0.07670085,9.968329 c -0.4677877,0.323685 0.27177868,-0.1913984 0.13338448,0.225365 l -0.48091358,0.771288 -0.0411838,0.657217 c 0.268044,-0.253337 0.15839263,0.555819 0.61138393,0.7343 l 0.84208572,0.424863 1.1406215,0.499331 0.9142192,-0.69582 0.6236952,-0.02025 0.5942796,-0.673366 C 4.6923841,11.735023 4.2881343,11.511024 4.7219293,11.728669 L 4.6984643,11.176902 C 4.7213013,10.714405 4.5681901,10.479615 4.0357161,10.204139 5.7574035,9.4421683 4.8470106,8.943406 5.2526578,8.3130396 4.3051496,8.2667728 3.6486365,8.598097 3.166465,9.0584053 L 2.6994488,8.8430892 C 2.2739398,8.7045252 1.8378243,8.8972623 1.5344866,8.9726323 0.81936554,8.4799232 0.01667936,8.3374747 -0.81556103,8.3132429 Z"
         id="path7"
         sodipodi:nodetypes="cccccccccccccccccccc" /><path
         style="fill:#000000;stroke-width:0.0334537"
         d="M 2.1837048,13.775637 C 2.1447778,13.670607 2.0023367,13.515508 1.818345,13.377809 1.6331774,13.23923 1.1414102,12.918406 1.1414102,12.936184 c 0,0.01209 0.085158,0.123472 0.1357856,0.177592 l 0.054301,0.05805 -0.030809,-0.0068 c -0.047049,-0.01033 -0.2391844,-0.0847 -0.36285585,-0.140458 -0.1916772,-0.08641 -0.420838,-0.219299 -0.5736073,-0.33263 -0.1111061,-0.08242 -0.3310293,-0.305965 -0.3978434,-0.404388 -0.093009,-0.137011 -0.1637182,-0.298711 -0.176545,-0.40373 -0.00283,-0.02312 -0.00815,-0.04204 -0.01183,-0.04204 -0.00892,0 -0.057963,0.07827 -0.066556,0.106215 -0.00374,0.01217 -0.00924,0.04603 -0.012233,0.07524 l -0.00543,0.05311 -0.046226,-0.09294 c -0.025425,-0.05112 -0.052443,-0.116837 -0.06004,-0.146046 -0.017396,-0.06688 -0.032634,-0.273659 -0.025765,-0.349625 0.041516,-0.45913 0.200893,-0.815656 0.5351558,-1.197144 0.032394,-0.03697 0.034891,-0.04273 0.020661,-0.04767 -0.08188,-0.02841 -0.2115788,-0.08238 -0.258936,-0.10775 -0.2459691,-0.131746 -0.440909,-0.3361919 -0.5628377,-0.5902884 -0.1024682,-0.2135413 -0.1449796,-0.4322802 -0.1462188,-0.7523579 -3.145e-4,-0.081354 -0.004564,-0.1345587 -0.0123694,-0.1548971 C -0.96179845,8.3796388 -1.0020791,8.244731 -1.0140544,8.1310318 l -0.00628,-0.059625 0.096169,0.040346 c 0.1482016,0.062176 0.2885626,0.1063049 0.4148151,0.1304158 0.1523365,0.029093 0.1721906,0.030912 0.4558403,0.041766 0.3878826,0.014841 0.5286473,0.043281 0.7479319,0.1511006 0.1690425,0.083116 0.3551419,0.2354181 0.4963277,0.4061895 0.018113,0.021907 0.035331,0.038937 0.038265,0.037845 0.3337433,-0.1242174 0.5517557,-0.1668584 0.9006991,-0.1761686 0.156623,-0.00418 0.2351089,-0.00207 0.3482392,0.00939 0.2436226,0.024662 0.4754015,0.077143 0.6315671,0.1430053 l 0.071637,0.030212 0.022347,-0.02878 C 3.4016766,8.6014975 3.6680965,8.41788 3.9516896,8.3410781 c 0.1348302,-0.036515 0.2380296,-0.048414 0.5000967,-0.057663 0.3869309,-0.013655 0.5858924,-0.0505 0.8365175,-0.154907 0.06402,-0.026671 0.1211093,-0.048491 0.1268655,-0.048491 0.01084,0 0.00917,0.024126 -0.00859,0.1239176 -0.01621,0.091091 -0.061114,0.2373943 -0.1064292,0.3467531 l -0.045202,0.1090873 -0.0072,0.2212817 c -0.00735,0.2260797 -0.013773,0.2849418 -0.0441,0.404326 -0.065237,0.2568149 -0.164614,0.430975 -0.3527761,0.6182494 -0.061281,0.060992 -0.141982,0.1317188 -0.1793354,0.1571688 -0.092221,0.06283 -0.2257755,0.12928 -0.3193086,0.158862 -0.042586,0.01347 -0.077346,0.02648 -0.077244,0.02891 1.036e-4,0.0024 0.026518,0.0343 0.058699,0.07081 0.2776987,0.315055 0.4370468,0.6451 0.4909415,1.016846 0.023913,0.164935 0.020178,0.410427 -0.00777,0.511045 -0.020228,0.07281 -0.052562,0.146626 -0.08541,0.194966 l -0.02297,0.0338 -5e-5,-0.03967 c -6.69e-5,-0.05495 -0.014568,-0.103106 -0.045928,-0.152527 -0.029506,-0.0465 -0.042536,-0.0529 -0.042536,-0.0209 0,0.0439 -0.046519,0.181579 -0.093042,0.27538 -0.1934467,0.390027 -0.6726283,0.753006 -1.301032,0.985527 -0.1609522,0.05956 -0.160624,0.05962 -0.089606,-0.01702 0.063316,-0.06832 0.1357713,-0.16747 0.1223868,-0.16747 -0.029919,0 -0.5357398,0.333715 -0.7022949,0.46334 -0.1763574,0.137253 -0.2984504,0.275375 -0.3356739,0.379744 -0.00651,0.01826 -0.014162,0.03319 -0.017003,0.03319 -0.00283,0 -0.011833,-0.018 -0.019988,-0.04 z M 2.385523,12.961691 c 0.1174057,-0.01904 0.2960078,-0.07926 0.2960078,-0.0998 0,-0.0038 -0.020911,-0.01462 -0.046469,-0.02406 -0.051875,-0.01918 -0.053888,-0.01843 0.08013,-0.02987 0.080685,-0.0069 0.099657,-0.01198 0.1646393,-0.04418 0.047844,-0.02371 0.095621,-0.05692 0.1370619,-0.09529 0.034989,-0.03239 0.062427,-0.06009 0.060974,-0.06154 -0.00147,-0.0015 -0.034465,0.003 -0.073359,0.0098 -0.1426932,0.02514 -0.2262665,0.0125 -0.4816751,-0.07288 -0.1635503,-0.05467 -0.1784446,-0.05804 -0.2766189,-0.06256 -0.1365006,-0.0063 -0.2095723,0.0061 -0.3834249,0.06523 -0.077891,0.02647 -0.1695018,0.05492 -0.2035791,0.06323 -0.072454,0.01765 -0.24649,0.02001 -0.3003477,0.0041 l -0.034809,-0.0103 0.043661,0.04457 c 0.048663,0.04967 0.1219064,0.101403 0.1924027,0.135894 0.040764,0.01994 0.058775,0.02298 0.1416934,0.02389 0.052247,5.66e-4 0.096947,0.0042 0.099334,0.0081 0.0024,0.0039 -0.01612,0.01465 -0.04113,0.02398 l -0.04547,0.01696 0.030126,0.01862 c 0.041827,0.02585 0.1768501,0.06991 0.2606006,0.08503 0.092734,0.01675 0.2805816,0.01731 0.3802551,0.0011 z m 1.2519445,-0.436533 c 0.2205068,-0.121103 0.4259982,-0.290497 0.5435341,-0.448055 0.082948,-0.111192 0.1518812,-0.274033 0.17267,-0.407899 0.01157,-0.07451 0.00565,-0.21081 -0.012076,-0.27806 C 4.3209275,11.312738 4.2808164,11.233869 4.2291181,11.169976 4.2050989,11.14029 4.187775,11.116 4.190624,11.116 c 0.00986,0 0.079878,0.03794 0.1195411,0.06478 0.106071,0.07177 0.1835176,0.161611 0.2442079,0.283301 l 0.040501,0.08121 -0.00444,-0.128343 C 4.5867987,11.311919 4.5810487,11.26964 4.5587851,11.184256 4.5133005,11.009815 4.4474429,10.865557 4.3421923,10.709816 4.2558277,10.582022 4.2114564,10.529158 4.0388801,10.348449 3.9008102,10.203874 3.889174,10.193961 3.8118781,10.155071 c -0.075586,-0.03803 -0.08499,-0.04062 -0.1301546,-0.03584 -0.026774,0.0028 -0.064614,0.0099 -0.084087,0.01578 l -0.035405,0.01063 0.046198,0.0062 c 0.088127,0.01184 0.1514517,0.0662 0.1835902,0.157579 0.02324,0.06608 0.017213,0.08037 -0.014015,0.03322 -0.042754,-0.06455 -0.1052579,-0.102936 -0.1676086,-0.102936 h -0.024429 l 0.016903,0.03498 c 0.027154,0.0562 0.03743,0.12168 0.031285,0.199326 -0.010234,0.129276 -0.041843,0.213213 -0.1080103,0.286807 -0.1263961,0.140582 -0.3357208,0.179027 -0.5126426,0.09415 -0.034052,-0.01634 -0.063165,-0.02845 -0.064695,-0.02692 -0.00444,0.0044 0.2029468,0.226946 0.216311,0.232075 0.021517,0.0083 0.012812,0.02045 -0.014605,0.02045 h -0.026691 l 0.07439,0.09958 c 0.040915,0.05477 0.082626,0.116007 0.092693,0.13609 0.049543,0.09884 0.089381,0.243477 0.090602,0.328944 l 7.329e-4,0.05055 0.013292,-0.03051 c 0.050476,-0.115864 0.083439,-0.439535 0.051833,-0.508963 -0.022723,-0.04992 0.1612186,0.119343 0.2222508,0.204509 0.1795219,0.250509 0.2084469,0.60104 0.073655,0.892593 -0.045495,0.09841 -0.1873373,0.298666 -0.2307408,0.325772 -0.036197,0.02261 -0.014078,0.0239 0.025378,0.0015 0.023123,-0.01314 0.067933,-0.0381 0.099577,-0.05548 z m -2.77198705,0.02696 c -0.059953,-0.06192 -0.1531645,-0.202175 -0.1976887,-0.297455 -0.060676,-0.129843 -0.076581,-0.199926 -0.081642,-0.359752 -0.004,-0.126231 -0.0025,-0.144888 0.018872,-0.233466 0.045155,-0.18726 0.1269651,-0.32474 0.2657631,-0.446613 0.084882,-0.07453 0.080148,-0.07694 0.081514,0.04148 0.00147,0.126685 0.02297,0.291496 0.0490799,0.376071 l 0.019565,0.06337 0.0068,-0.06961 c 0.017973,-0.184055 0.11038,-0.39087 0.2237311,-0.500735 0.02758,-0.02673 0.029389,-0.03118 0.016524,-0.04059 -0.012769,-0.0093 -0.00771,-0.01919 0.043622,-0.08485 0.054579,-0.06982 0.07491,-0.09375 0.1281051,-0.150775 l 0.021814,-0.02338 -0.073762,0.02955 c -0.1283933,0.05144 -0.2257022,0.05734 -0.3341601,0.02026 -0.1345069,-0.04599 -0.2317946,-0.15513 -0.2670316,-0.299564 -0.018992,-0.07784 -0.014718,-0.224646 0.00825,-0.283241 0.010494,-0.02677 0.019082,-0.04968 0.019082,-0.0509 1.16e-5,-0.0058 -0.041317,-0.0012 -0.072059,0.0081 -0.041417,0.01241 -0.1000819,0.06087 -0.1198979,0.09904 -0.020158,0.03883 -0.024895,0.01479 -0.00744,-0.03776 0.01633,-0.04917 0.072618,-0.118147 0.1137719,-0.139428 0.015074,-0.0078 0.04748,-0.01689 0.072009,-0.0202 l 0.044599,-0.006 -0.048076,-0.01491 c -0.1410541,-0.04375 -0.2383124,0.0072 -0.4479066,0.234586 -0.2281314,0.247508 -0.3137628,0.364469 -0.4021589,0.549293 -0.089784,0.187726 -0.1306629,0.344927 -0.138567,0.532864 l -0.00449,0.106677 0.033944,-0.06638 c 0.069481,-0.135884 0.1560644,-0.239182 0.2598145,-0.309973 0.040768,-0.02782 0.106761,-0.06178 0.1200412,-0.06178 0.00183,0 -0.016194,0.0242 -0.040027,0.05378 -0.051583,0.06401 -0.092074,0.143218 -0.1131089,0.22125 -0.022943,0.08511 -0.020172,0.263325 0.00563,0.362257 0.063671,0.244125 0.2477215,0.477364 0.5246233,0.664828 0.083588,0.05659 0.2892053,0.176032 0.3030519,0.176042 0.00468,3e-6 -0.0098,-0.01892 -0.032188,-0.04204 z m 0.44410365,-0.08895 c -0.039169,-0.02655 -0.106231,-0.09236 -0.1374446,-0.134884 -0.040237,-0.05481 -0.074794,-0.126273 -0.1137912,-0.235303 -0.017626,-0.04928 -0.050049,-0.124877 -0.0720511,-0.167997 -0.05587,-0.109492 -0.1090096,-0.278718 -0.1271966,-0.40506 -0.017033,-0.118335 -0.014941,-0.117885 -0.067332,-0.01447 -0.1422611,0.280813 -0.096788,0.561159 0.1249818,0.770528 0.095133,0.08981 0.1832251,0.138885 0.3240957,0.180537 0.086555,0.02559 0.098374,0.02673 0.068738,0.0067 z m 1.8819302,-0.01512 c 0.1297565,-0.04356 0.2204796,-0.09788 0.315145,-0.188689 0.072999,-0.07003 0.1249177,-0.148108 0.1551892,-0.23339 0.031312,-0.08821 0.038543,-0.257884 0.015101,-0.354216 -0.021797,-0.08957 -0.094494,-0.254811 -0.1121035,-0.254811 -0.00387,0 -0.00704,0.0152 -0.00704,0.03378 0,0.115271 -0.059777,0.318567 -0.1411331,0.479981 -0.023416,0.04646 -0.057441,0.126122 -0.075608,0.177025 -0.059085,0.165554 -0.1197773,0.259324 -0.2148175,0.331893 -0.033353,0.02547 -0.0368,0.03062 -0.020478,0.03062 0.010794,0 0.04938,-0.01 0.085744,-0.02219 z m -1.3375772,-0.07078 c 0.2122031,-0.06516 0.233356,-0.06935 0.3496251,-0.06916 0.093754,1.67e-4 0.1227999,0.0038 0.1903022,0.02381 0.234946,0.06969 0.2775214,0.07796 0.3806045,0.07387 0.1145784,-0.0045 0.1704219,-0.02256 0.2464593,-0.0795 0.098176,-0.07352 0.1460502,-0.16941 0.1538946,-0.308241 C 3.1829281,11.8746 3.1510335,11.766961 3.0582443,11.624608 2.8888411,11.364721 2.5917502,11.178571 2.2865125,11.141059 2.030643,11.109614 1.7348707,11.220677 1.513527,11.431314 c -0.1929214,0.18359 -0.2836041,0.360265 -0.2836041,0.552539 0,0.205199 0.098091,0.347348 0.2814497,0.407862 0.0764,0.02522 0.2352262,0.01852 0.3425645,-0.01445 z M 1.6126538,12.098109 c -0.043633,-0.02228 -0.06692,-0.05153 -0.080734,-0.101408 -0.014268,-0.05152 -0.012026,-0.08145 0.010997,-0.146665 0.027327,-0.07741 0.079531,-0.152349 0.1544224,-0.221688 0.076246,-0.07059 0.1344873,-0.102957 0.1988965,-0.110526 0.046879,-0.0055 0.051158,-0.0044 0.075994,0.02048 0.036885,0.03688 0.047962,0.08712 0.043483,0.197178 -0.00522,0.128223 -0.031865,0.19304 -0.1135474,0.276193 -0.068043,0.06927 -0.1165948,0.09425 -0.1962551,0.100994 -0.045728,0.0039 -0.062221,0.0013 -0.093256,-0.01456 z m 1.0254675,0.0048 c -0.099792,-0.03111 -0.186124,-0.12022 -0.2295798,-0.236957 -0.041414,-0.111251 -0.032015,-0.261905 0.020118,-0.322515 0.018269,-0.02124 0.027744,-0.02465 0.06844,-0.02465 0.07232,0 0.1381246,0.03666 0.2293537,0.127772 0.099,0.09887 0.14353,0.183203 0.1484778,0.28118 0.00378,0.07488 -0.00566,0.104164 -0.045735,0.141903 -0.049034,0.04617 -0.113621,0.05742 -0.1910755,0.03327 z M 1.2231055,11.498633 c 0.059743,-0.09028 0.2248117,-0.243544 0.3475913,-0.322738 0.2060377,-0.132896 0.4024223,-0.192662 0.6330646,-0.192662 0.2379159,0 0.4393616,0.06415 0.6575362,0.209396 0.099287,0.0661 0.2488825,0.205312 0.3077483,0.286392 0.03913,0.0539 0.039136,0.0539 0.041923,0.02671 0.00685,-0.06679 -0.059652,-0.221093 -0.1339514,-0.310817 -0.08522,-0.102913 -0.2335002,-0.197464 -0.3886424,-0.247819 -0.032971,-0.0107 -0.057141,-0.02321 -0.054162,-0.02803 0.011124,-0.018 0.1477422,0.0053 0.2585751,0.04402 0.028227,0.0099 -0.057294,-0.07123 -0.1149291,-0.10899 -0.032214,-0.0211 -0.088235,-0.04833 -0.1244926,-0.0605 -0.070863,-0.02379 -0.2021999,-0.04935 -0.2535804,-0.04935 -0.024182,0 -0.029153,-0.0024 -0.021197,-0.01039 0.00615,-0.0061 0.050516,-0.01205 0.1085936,-0.01444 0.054011,-0.0022 0.09494,-0.0072 0.090954,-0.01107 -0.015564,-0.01509 -0.1435484,-0.0601 -0.2095599,-0.07369 -0.1637059,-0.0337 -0.3873026,-0.0083 -0.5118898,0.05825 l -0.038155,0.02037 0.090288,0.0044 c 0.1111104,0.0054 0.1371445,0.02124 0.049617,0.03011 -0.1631615,0.01652 -0.3106666,0.0765 -0.401862,0.163403 l -0.056688,0.05402 0.049983,-0.01676 c 0.064212,-0.02153 0.1702078,-0.03845 0.2155548,-0.03441 l 0.035405,0.0032 -0.044256,0.01425 c -0.192027,0.06184 -0.3664059,0.175287 -0.449669,0.292542 -0.059043,0.08315 -0.1123867,0.221144 -0.1123867,0.290738 0,0.02393 0.00333,0.02206 0.028588,-0.01611 z m 0.1142599,-0.748606 c 0.045116,-0.02264 0.120953,-0.08198 0.1131013,-0.0885 -0.00203,-0.0017 -0.030499,-0.01712 -0.06327,-0.0343 -0.049067,-0.02573 -0.061342,-0.02912 -0.069555,-0.01922 -0.00548,0.0066 -0.024352,0.01599 -0.041928,0.02084 -0.042987,0.01187 -0.088706,-0.0013 -0.120882,-0.03492 -0.020968,-0.02189 -0.026258,-0.03624 -0.029409,-0.07983 l -0.00384,-0.05314 -0.069321,-0.06249 -0.0693211,-0.06249 -0.019252,0.06339 c -0.049228,0.162073 0.023819,0.32815 0.1632541,0.371168 0.015264,0.0047 0.058177,0.0074 0.095363,0.0059 0.052149,-0.002 0.078465,-0.0081 0.1150664,-0.02644 z m 1.9804858,0.0037 c 0.050851,-0.02615 0.086175,-0.06463 0.1143555,-0.124571 0.019026,-0.04047 0.022877,-0.06137 0.022823,-0.123917 -6e-5,-0.07165 -0.011007,-0.130358 -0.029706,-0.159323 -0.00697,-0.01079 -0.021058,-8.99e-4 -0.075238,0.05289 -0.063393,0.06291 -0.066668,0.06813 -0.0667,0.106215 -8.03e-5,0.09908 -0.1025505,0.162874 -0.1752648,0.109114 l -0.025868,-0.01912 -0.063099,0.03256 c -0.034704,0.01791 -0.063129,0.03507 -0.063166,0.03813 -1.605e-4,0.0132 0.09937,0.08065 0.1427719,0.09675 0.063962,0.02373 0.1637125,0.01975 0.219092,-0.0087 z M 1.8052554,10.503702 c 0.1221836,-0.03844 0.1398685,-0.142753 0.043565,-0.256963 l -0.035165,-0.0417 0.033217,0.01388 c 0.092316,0.03857 0.1735694,0.121421 0.1881995,0.191895 l 0.0095,0.04577 h 0.1586602 0.1586601 l 0.00981,-0.03896 c 0.018296,-0.07265 0.043971,-0.108233 0.1150971,-0.159507 0.034609,-0.02495 0.090378,-0.0538 0.1039979,-0.0538 0.00246,0 -0.012273,0.01817 -0.032734,0.04036 -0.1403689,0.152283 -0.030415,0.300737 0.1990994,0.268814 0.1627914,-0.02264 0.2818559,-0.08942 0.4731445,-0.265356 0.1379017,-0.126836 0.1950335,-0.172023 0.2571201,-0.203364 0.06248,-0.03154 0.1395547,-0.052889 0.1909402,-0.052889 0.047234,0 0.1350354,0.027121 0.1712261,0.052892 0.015331,0.01092 0.029859,0.01787 0.032281,0.01544 0.00825,-0.0083 -0.050125,-0.1459386 -0.083922,-0.1979574 -0.088846,-0.1367451 -0.2100031,-0.197615 -0.3944398,-0.1981693 -0.0971,-2.912e-4 -0.097793,-4.331e-4 -0.078008,-0.016947 0.01098,-0.00916 0.048819,-0.02766 0.084087,-0.041114 0.049515,-0.018889 0.075278,-0.035697 0.1130806,-0.073779 0.045721,-0.046058 0.050891,-0.055752 0.078232,-0.1466809 C 3.6526549,9.2134823 3.7151129,9.0979628 3.8120906,8.9949869 3.926587,8.8734083 4.0696407,8.795534 4.2508753,8.7561258 c 0.03969,-0.00863 0.1421445,-0.016524 0.2717188,-0.020931 0.1353216,-0.0046 0.2322983,-0.012249 0.2775281,-0.021884 0.038238,-0.00814 0.071501,-0.012829 0.073919,-0.010411 0.010534,0.010537 -0.085444,0.097428 -0.1682665,0.1523359 -0.053751,0.035635 -0.1218162,0.091767 -0.1683242,0.1388158 -0.042945,0.043444 -0.076801,0.080134 -0.075236,0.081535 0.00157,0.0014 0.065949,-0.018329 0.1430753,-0.043847 l 0.1402293,-0.046393 -0.00577,0.067345 c -0.032591,0.380292 -0.30543,0.7497624 -0.6707818,0.9083496 -0.032861,0.014265 -0.059746,0.028676 -0.059746,0.032025 0,0.00335 0.018352,0.014975 0.040781,0.025835 0.093335,0.04518 0.2329582,0.02876 0.3820846,-0.044943 0.2835838,-0.1401537 0.4930825,-0.4296038 0.5646128,-0.780087 0.021194,-0.103845 0.026048,-0.3480782 0.00911,-0.4585357 L 4.991617,8.6427244 5.034689,8.5981404 C 5.0936818,8.5370768 5.1467803,8.4560331 5.1636514,8.4013059 l 0.00601,-0.019482 -0.051354,0.020711 C 4.9761059,8.4598829 4.8395831,8.4782789 4.5181751,8.4834029 4.3818655,8.4855729 4.2376148,8.4913929 4.1976177,8.4963249 3.7616174,8.5501199 3.4185102,8.8298394 3.2836,9.2414817 3.257109,9.3223147 3.229967,9.3722985 3.212567,9.3722985 3.20239,9.3722985 3.196926,9.3529095 3.186849,9.2810635 3.1661612,9.1335749 3.0419455,9.0434531 2.7582571,8.9701099 2.5588146,8.9185471 2.4672037,8.9081869 2.2079906,8.9078797 1.9201289,8.9075466 1.7628033,8.9283907 1.5662737,8.9929367 1.3268306,9.0715757 1.2312144,9.1549072 1.2128792,9.3009288 1.2084592,9.3361278 1.2021822,9.3675808 1.1989302,9.3708258 1.1857412,9.3839818 1.1500662,9.3238788 1.1278712,9.2511141 1.0367542,8.9523862 0.79260625,8.6861006 0.50986385,8.5770689 c -0.1914396,-0.073823 -0.3063984,-0.090564 -0.6474588,-0.094285 -0.3069961,-0.00335 -0.4407219,-0.02263 -0.5845268,-0.084271 -0.021717,-0.00931 -0.039487,-0.014961 -0.039487,-0.012563 0,0.0024 0.013749,0.033127 0.030549,0.068283 0.030445,0.063704 0.083145,0.1348802 0.123189,0.1663787 0.018736,0.014738 0.020325,0.020804 0.014258,0.054427 -0.00375,0.020811 -0.011963,0.0866 -0.018239,0.1461938 -0.02867,0.2721748 0.051365,0.5914051 0.2049879,0.8176249 0.1651061,0.2431292 0.4454735,0.4162837 0.6543015,0.4040947 0.062686,-0.0037 0.1416202,-0.03111 0.1416202,-0.049246 0,-0.00367 -0.038835,-0.025842 -0.0863,-0.049266 C 0.18714295,9.88738 0.11329395,9.8365561 0.02231505,9.7514354 -0.17328475,9.5684305 -0.31533965,9.289528 -0.33395545,9.0519538 l -0.00533,-0.068085 0.138467,0.046541 c 0.076157,0.025598 0.1384671,0.044036 0.1384671,0.040975 0,-0.016071 -0.182932,-0.1813076 -0.2478355,-0.2238606 -0.089979,-0.058994 -0.1048671,-0.071474 -0.136868,-0.114729 -0.027847,-0.037643 -0.029086,-0.037148 0.048355,-0.019342 0.035258,0.00811 0.1432086,0.01638 0.2788149,0.021374 0.2722175,0.010021 0.3756465,0.031118 0.5089479,0.1038234 0.1793657,0.097827 0.296795,0.231465 0.3705018,0.4216404 0.019159,0.049434 0.037751,0.1038214 0.041315,0.12086 0.010237,0.048949 0.043478,0.1176399 0.073442,0.1517669 0.028077,0.031978 0.072202,0.057353 0.14318125,0.082342 0.021907,0.00771 0.049789,0.021834 0.061959,0.031382 l 0.022127,0.017356 -0.097364,3.012e-4 c -0.11089125,3.331e-4 -0.16532715,0.012296 -0.24191045,0.053114 -0.096734,0.051559 -0.1631905,0.1337468 -0.2166455,0.267929 -0.031668,0.079492 -0.031571,0.09285 4.997e-4,0.070296 0.077832,-0.05473 0.1696118,-0.072528 0.2626838,-0.05094 0.105256,0.02441 0.1799975,0.07298 0.35260245,0.229114 0.2059301,0.186282 0.3053974,0.245728 0.4623555,0.276318 0.064391,0.01255 0.1283327,0.01028 0.1814512,-0.0064 z"
         id="path2" /></g></g></svg>
