<?xml version="1.0" encoding="UTF-8" standalone="no"?>
<!-- Created with Inkscape (http://www.inkscape.org/) -->

<svg
   width="15mm"
   height="15mm"
   viewBox="0 0 15 15"
   version="1.1"
   id="svg1"
   inkscape:export-filename="folklore-serpent.png"
   inkscape:export-xdpi="96"
   inkscape:export-ydpi="96"
   inkscape:version="1.3.2 (091e20e, 2023-11-25)"
   sodipodi:docname="folklore-serpent.svg"
   xml:space="preserve"
   xmlns:inkscape="http://www.inkscape.org/namespaces/inkscape"
   xmlns:sodipodi="http://sodipodi.sourceforge.net/DTD/sodipodi-0.dtd"
   xmlns:xlink="http://www.w3.org/1999/xlink"
   xmlns="http://www.w3.org/2000/svg"
   xmlns:svg="http://www.w3.org/2000/svg"><sodipodi:namedview
     id="namedview1"
     pagecolor="#ffffff"
     bordercolor="#000000"
     borderopacity="0.25"
     inkscape:showpageshadow="2"
     inkscape:pageopacity="0.0"
     inkscape:pagecheckerboard="0"
     inkscape:deskcolor="#d1d1d1"
     inkscape:document-units="mm"
     showguides="false"
     inkscape:zoom="10.186013"
     inkscape:cx="30.72841"
     inkscape:cy="24.248937"
     inkscape:window-width="1792"
     inkscape:window-height="993"
     inkscape:window-x="0"
     inkscape:window-y="25"
     inkscape:window-maximized="0"
     inkscape:current-layer="layer1" /><defs
     id="defs1"><linearGradient
       id="linearGradient1"
       inkscape:collect="always"><stop
         style="stop-color:#4dad00;stop-opacity:1;"
         offset="0"
         id="stop1" /><stop
         style="stop-color:#002000;stop-opacity:1;"
         offset="1"
         id="stop2" /></linearGradient><linearGradient
       inkscape:collect="always"
       xlink:href="#linearGradient1"
       id="linearGradient2"
       x1="8.6681328"
       y1="6.8330154"
       x2="10.41113"
       y2="14.937265"
       gradientUnits="userSpaceOnUse" /></defs><g
     inkscape:label="Layer 1"
     inkscape:groupmode="layer"
     id="layer1"><ellipse
       style="fill:#000000;fill-opacity:0.143426;stroke:#c00707;stroke-width:0.165;stroke-dasharray:none;stroke-opacity:0.421348"
       id="path5"
       cx="7.4724536"
       cy="11.982809"
       rx="0.24757871"
       ry="0.26408395" /><path
       style="fill:url(#linearGradient2);stroke-width:1"
       d="m 5.4204099,14.155439 c 0.343517,-0.117046 0.2847987,-0.433726 0.8307045,-0.676907 0.1793497,-0.0799 0.4755913,-0.234617 0.7934312,-0.190238 0.2590782,0.03621 0.458493,2.9e-4 0.8824601,0.146957 0.1443707,0.05125 0.1380453,0.04893 0.1670856,0.06158 0.014138,0.0062 0.060409,0.0254 0.102823,0.04275 0.072354,0.0296 0.2389483,0.101064 0.3026946,0.129844 0.015672,0.0071 0.058089,0.02368 0.094254,0.03689 0.1503633,0.05495 0.1698336,0.06231 0.1967278,0.07439 0.03301,0.01483 0.1759724,0.06951 0.2085772,0.07977 0.012386,0.0039 0.03552,0.01284 0.051412,0.01987 0.079325,0.03508 0.143325,0.05491 0.2666683,0.08269 0.022385,0.0051 0.057087,0.01296 0.077117,0.0176 0.031553,0.0073 0.1588778,0.02799 0.3686044,0.05987 0.1521513,0.02312 0.5005174,0.0016 0.6317684,-0.03911 0.110746,-0.03431 0.253666,-0.08219 0.280014,-0.09377 0.01565,-0.0068 0.04291,-0.01886 0.06058,-0.02658 0.04506,-0.01971 0.188156,-0.09105 0.229207,-0.114259 0.08485,-0.04799 0.238534,-0.155029 0.291496,-0.203031 0.0096,-0.0086 0.04422,-0.03839 0.07711,-0.06614 0.195899,-0.165283 0.355597,-0.405336 0.445248,-0.669286 0.01281,-0.0377 0.02646,-0.07626 0.03035,-0.08568 0.0039,-0.0095 0.009,-0.02677 0.0114,-0.03856 0.0024,-0.01177 0.0087,-0.03684 0.01414,-0.0557 0.02309,-0.08066 0.03708,-0.179854 0.05205,-0.368973 0.01121,-0.141647 0.0022,-0.338962 -0.02351,-0.509298 -0.01205,-0.08007 -0.01999,-0.116529 -0.04573,-0.20993 -0.0039,-0.01414 -0.01325,-0.04884 -0.02079,-0.07711 -0.03118,-0.117003 -0.143803,-0.35483 -0.230924,-0.487636 -0.02754,-0.042 -0.05358,-0.08055 -0.05786,-0.08568 -0.0042,-0.0051 -0.02645,-0.03449 -0.04929,-0.06523 -0.0891,-0.120013 -0.276353,-0.294534 -0.438011,-0.40827 -0.190637,-0.134125 -0.522695,-0.286105 -0.728324,-0.333352 -0.249173,-0.05725 -0.5883297,-0.06618 -0.8354297,-0.02197 -0.4491405,0.08033 -0.9424154,0.307089 -1.3050327,0.599929 -0.044483,0.03593 -0.093549,0.07495 -0.1090334,0.08674 -0.015478,0.01177 -0.048059,0.03877 -0.072387,0.05997 -0.1135588,0.09899 -0.1499696,0.130294 -0.2491449,0.214213 -0.2763938,0.233877 -0.3794387,0.365093 -0.3780888,0.481455 3.527e-4,0.0268 0.00667,0.06055 0.01414,0.07498 0.013293,0.02569 0.014881,0.02623 0.077191,0.02623 0.057013,0 0.09905,-0.0076 0.1801363,-0.03257 0.043891,-0.01352 0.1617141,-0.06369 0.1842227,-0.07846 0.011776,-0.0077 0.032314,-0.01874 0.045626,-0.02445 0.033596,-0.01443 0.1504862,-0.11343 0.2419347,-0.204892 0.1518958,-0.151902 0.3055641,-0.439025 0.4521144,-0.607183 0.055512,-0.0637 0.1350221,-0.128564 0.1857251,-0.151523 0.030308,-0.01372 0.1367913,-0.05468 0.1655455,-0.06368 0.015374,-0.0048 -0.040778,0.08722 -0.1160714,0.190226 -0.046203,0.06321 -0.102609,0.17882 -0.1484109,0.304181 -0.012914,0.03534 -0.026089,0.06812 -0.029275,0.07284 -0.00567,0.0084 -0.019952,0.0557 -0.034918,0.115674 -0.012887,0.05167 -0.025099,0.138495 -0.030354,0.215913 -0.00279,0.041 -0.00956,0.0781 -0.015037,0.08246 -0.00548,0.0043 -0.042038,0.02431 -0.08122,0.04434 -0.039184,0.02003 -0.093165,0.05268 -0.1199598,0.07254 -0.1130282,0.08384 -0.1542218,0.113282 -0.2010955,0.143756 -0.027258,0.01773 -0.051725,0.03222 -0.054372,0.03222 -0.00265,0 -0.015056,0.0071 -0.027559,0.0158 -0.021248,0.01476 -0.084508,0.05003 -0.185545,0.103409 -0.060248,0.03185 -0.1574109,0.06805 -0.2741921,0.102182 -0.1756464,0.05134 -0.2456137,0.06103 -0.4421049,0.06121 -0.1823029,1.76e-4 -0.2039597,-0.0042 -0.2390116,-0.04881 -0.7511079,-0.02859 -1.517706,-0.33822 -1.6917459,-1.204173 -0.00217,-0.01064 -0.00892,-0.04048 -0.014986,-0.0664 -0.00765,-0.03269 -0.011071,-0.124558 -0.011195,-0.299899 -1.693e-4,-0.242102 0.00365,-0.294785 0.03005,-0.4155729 0.00412,-0.018844 0.011512,-0.053557 0.016416,-0.077115 C 5.2797951,9.6138851 5.3431459,9.4221458 5.4608813,9.1738718 5.5496553,8.98667 5.6074185,8.8730195 5.6720409,8.7584078 5.7281839,8.6588428 5.8090712,8.4984742 5.8870387,8.3321751 c 0.04336,-0.092494 0.064734,-0.1779565 0.044502,-0.1779565 -0.00919,0 -0.057895,0.019952 -0.1210065,0.04956 -0.038569,0.018095 -0.060351,0.022211 -0.1199583,0.0227 -0.072453,5.29e-4 -0.17632,-0.016607 -0.1849792,-0.030629 -0.00253,-0.00402 -0.012023,-0.00739 -0.021172,-0.00739 -0.025099,0 -0.020484,-0.01488 0.02851,-0.091886 0.024658,-0.038753 0.059164,-0.093699 0.076688,-0.1220994 0.02851,-0.046204 0.034818,-0.051623 0.059979,-0.051591 0.015463,2.71e-5 0.041644,0.0038 0.058172,0.00836 0.016521,0.00456 0.062796,0.014141 0.1028219,0.021223 0.152078,0.026892 0.1917517,0.014152 0.2162948,-0.069414 0.025029,-0.085217 0.016521,-0.1316138 -0.024112,-0.1316138 -0.011741,0 -0.045348,0.01211 -0.074658,0.026903 -0.043931,0.022179 -0.066468,0.027653 -0.1282842,0.031182 -0.063711,0.00369 -0.074988,0.00228 -0.074988,-0.00891 0,-0.00728 0.047235,-0.051743 0.1049627,-0.098815 C 5.9494527,7.6042169 5.9633199,7.5903526 6.0578496,7.4737337 6.1593291,7.3485421 6.2418841,7.1741405 6.266062,7.0338844 c 0.014545,-0.084348 0.01862,-0.2839977 0.00688,-0.336277 -0.025669,-0.1142305 -0.042714,-0.1728973 -0.063314,-0.2179322 -0.012147,-0.026545 -0.022071,-0.052275 -0.022071,-0.057184 0,-0.011198 0.014175,-0.024818 0.047129,-0.045367 0.036153,-0.022526 0.1135008,-0.080471 0.1552359,-0.1162855 0.019402,-0.016661 0.05502,-0.046953 0.07915,-0.067329 0.024135,-0.020376 0.050539,-0.048332 0.058682,-0.062126 0.0116,-0.019648 0.020913,-0.025068 0.043067,-0.025068 0.015551,0 0.034954,0.00369 0.043137,0.00825 0.00818,0.00456 0.057295,0.022298 0.1091324,0.039502 0.1332622,0.044227 0.2492983,0.1258346 0.3256049,0.2290074 0.028432,0.038438 0.022918,0.048474 -0.031714,0.057662 -0.065009,0.010948 -0.2505429,0.049886 -0.2660423,0.055827 -0.022389,0.00858 -0.018491,0.023667 0.01808,0.069935 0.041556,0.052579 0.076487,0.082143 0.1135955,0.096154 0.015939,0.00608 0.036699,0.014054 0.046124,0.017845 0.00943,0.0038 0.034489,0.013348 0.055696,0.021201 0.089326,0.033127 0.2087849,0.1323198 0.2736348,0.2272131 0.047365,0.069305 0.088619,0.1614072 0.093077,0.2077878 l 0.00394,0.040708 H 7.318182 c -0.02029,0 -0.048741,-0.0038 -0.06321,-0.00847 -0.050657,-0.016346 -0.2046988,-0.051493 -0.2256561,-0.051493 -0.018791,0 -0.020496,0.00261 -0.015269,0.023569 0.00324,0.012957 0.00929,0.050559 0.013453,0.083544 0.013134,0.1040937 0.024558,0.1599029 0.035435,0.1730015 0.00582,0.00695 0.024817,0.018399 0.042278,0.025393 0.060106,0.024047 0.1233518,0.109003 0.1616838,0.2171795 0.00588,0.016509 0.013646,0.037699 0.017344,0.047127 0.00795,0.020256 0.021354,0.07 0.033918,0.1258954 0.01197,0.053242 0.011494,0.1481023 -8.819e-4,0.1862468 -0.019602,0.060204 -0.028668,0.077723 -0.040204,0.077723 -0.00643,0 -0.042519,-0.028989 -0.080174,-0.064407 C 7.1565948,7.974801 7.1092988,7.939556 7.0819175,7.927033 7.0563305,7.915325 7.0340945,7.905756 7.0324895,7.905756 c -0.00288,0 -0.00919,0.02926 -0.02213,0.102823 -0.00376,0.021201 -0.013012,0.06092 -0.020607,0.088247 -0.00759,0.027327 -0.013822,0.067014 -0.013822,0.088204 0,0.032638 0.00488,0.043792 0.032131,0.073118 0.048347,0.052079 0.060258,0.078602 0.084162,0.1874219 0.014157,0.06444 0.016133,0.1872276 0.00365,0.2286023 -0.0047,0.015662 -0.012835,0.042913 -0.018038,0.060584 -0.015515,0.052633 -0.064772,0.1499486 -0.092172,0.1820804 -0.020214,0.023699 -0.028539,0.028196 -0.03971,0.021418 -0.019561,-0.01185 -0.05713,-0.082154 -0.084219,-0.1576026 -0.024623,-0.068567 -0.048123,-0.1136092 -0.061552,-0.1179689 -0.00758,-0.0025 -0.029909,0.0343 -0.029909,0.049245 0,0.00326 -0.017556,0.043923 -0.039027,0.090409 -0.054561,0.1181525 -0.052915,0.1139482 -0.063942,0.163396 -0.00994,0.044618 -0.00512,0.096773 0.00899,0.096773 0.00412,0 0.013312,0.012534 0.020419,0.027848 0.00999,0.021527 0.013488,0.070066 0.015392,0.2137117 0.00265,0.2013222 -0.00141,0.2225971 -0.036094,0.1911518 -0.046142,-0.041761 -0.034072,0.035875 0.018262,0.1174248 0.032578,0.050765 0.076599,0.086303 0.1416897,0.1143717 0.027487,0.01185 0.057689,0.024861 0.067116,0.028902 0.1343222,0.057575 0.3472727,0.067589 0.4841214,0.022776 0.1423676,-0.046627 0.2122774,-0.075811 0.2864195,-0.1195895 0.042757,-0.025241 0.098948,-0.057336 0.1248678,-0.071315 0.02592,-0.013978 0.083757,-0.047768 0.1285276,-0.075083 C 8.0539881,9.4352206 8.2435858,9.3250458 8.3089276,9.290782 8.4278456,9.228428 8.669708,9.1376206 8.8267096,9.096388 8.8479176,9.090848 8.8729796,9.083376 8.8824046,9.079857 9.013151,9.030992 9.2024003,8.994064 9.4136523,8.976176 9.6900925,8.952781 9.9594514,8.958016 10.150544,8.990524 c 0.06812,0.011578 0.105158,0.019876 0.248486,0.055653 0.01886,0.00467 0.04199,0.01185 0.05141,0.015847 0.0094,0.00402 0.04413,0.01539 0.07712,0.025263 0.281068,0.084142 0.43728,0.148828 0.638354,0.2643543 0.01649,0.00945 0.05312,0.030498 0.0814,0.046725 0.138655,0.079558 0.186428,0.1125557 0.389866,0.2692709 0.09171,0.070652 0.117443,0.09408 0.261779,0.2384194 0.181374,0.1813724 0.3714,0.4241134 0.483302,0.6173714 0.04134,0.07139 0.05133,0.0899 0.09308,0.172346 0.05467,0.107982 0.06397,0.128953 0.09648,0.217521 0.01471,0.04006 0.03451,0.09404 0.04401,0.11996 0.01498,0.04085 0.03098,0.09334 0.06786,0.222781 0.06365,0.223341 0.09799,0.545252 0.09005,0.843996 -0.0054,0.204527 -0.01599,0.307864 -0.0494,0.484122 -0.01718,0.09067 -0.05458,0.252751 -0.07313,0.317034 -0.01591,0.05511 -0.105495,0.291377 -0.115557,0.304768 -0.0038,0.0051 -0.03723,0.06865 -0.07432,0.141381 -0.06212,0.121771 -0.15453,0.264244 -0.233067,0.359291 -0.01752,0.02121 -0.04579,0.06042 -0.06282,0.08714 -0.03112,0.04883 -0.169777,0.204651 -0.255306,0.286899 -0.111804,0.107515 -0.276388,0.231399 -0.395078,0.297384 -0.02238,0.01245 -0.05709,0.03177 -0.07711,0.04293 -0.142848,0.07968 -0.201999,0.105788 -0.404861,0.178763 -0.124643,0.04484 -0.228697,0.07062 -0.411289,0.101933 -0.105169,0.01803 -0.193871,0.0247 -0.398192,0.02996 -0.204587,0.0052 -0.2323848,0.0037 -0.4158153,-0.0236 -0.1433016,-0.02131 -0.3705058,-0.07011 -0.4798365,-0.103062 -0.095902,-0.0289 -0.2380548,-0.07557 -0.2613395,-0.08579 -0.011782,-0.0052 -0.029133,-0.01236 -0.038558,-0.01598 -0.00943,-0.0036 -0.03541,-0.01467 -0.057744,-0.02456 -0.022334,-0.0099 -0.042309,-0.01799 -0.044386,-0.01799 -0.00209,0 -0.028148,-0.01118 -0.057932,-0.02483 -0.029782,-0.01366 -0.086925,-0.03832 -0.1269833,-0.0548 -0.072739,-0.02991 -0.128126,-0.05562 -0.3756225,-0.17436 -0.07228,-0.03468 -0.1329013,-0.06305 -0.1347135,-0.06305 -0.00181,0 -0.03907,-0.01687 -0.082793,-0.03747 -0.113134,-0.05333 -0.1882051,-0.08558 -0.3039147,-0.130558 -0.055653,-0.02164 -0.1146835,-0.04513 -0.1311772,-0.0522 -0.0165,-0.0071 -0.037701,-0.01612 -0.047128,-0.02007 -0.018299,-0.0077 -0.1603742,-0.05741 -0.2313499,-0.08095 -0.023564,-0.0078 -0.058265,-0.01745 -0.077116,-0.0214 -0.01885,-0.0039 -0.099822,-0.02131 -0.1799389,-0.03858 -0.1846494,-0.03979 -0.2342029,-0.04628 -0.4027198,-0.05272 -0.253138,-0.0097 -0.4668311,0.03386 -0.6666306,0.13582 -0.1143505,0.05836 -0.2495769,0.164012 -0.3290977,0.257143 -0.046254,0.05416 -0.1383963,0.151346 -0.1533864,0.212439 0.00819,-0.02608 0.3903432,0.08434 -0.2768478,0.165265 -0.1981834,-0.588537 0.071808,-0.324913 0.071808,-0.324913 z M 8.819532,11.384432 c -0.07837,-0.312691 0.1023169,-0.52421 0.2787579,-0.719696 0.082805,-0.09175 0.091647,-0.0881 0.1642829,-0.13996 0.1167115,-0.08334 0.2489,-0.141291 0.3674001,-0.161067 0.027109,-0.0046 0.074356,-0.01257 0.1049844,-0.01789 0.075464,-0.0131 0.3341817,-0.01276 0.3984357,5.28e-4 0.02827,0.0059 0.06876,0.01374 0.08997,0.01754 0.07627,0.0137 0.201485,0.05213 0.274191,0.0842 0.2294,0.101151 0.363049,0.189354 0.590434,0.389661 0.03579,0.03152 0.08627,0.08299 0.112184,0.114382 0.02593,0.03139 0.05713,0.06922 0.06935,0.08407 C 10.280242,10.96 9.772705,10.54315 8.819529,11.384439 Z M 5.4820438,11.629666 C 5.2108497,11.493328 4.8118157,11.292393 4.7096054,11.022534 c -0.00535,-0.0129 -0.00106,-0.01501 0.030537,-0.01501 0.020195,0 0.048564,-0.0035 0.063037,-0.0078 0.099542,-0.02942 0.1306816,-0.03935 0.1419889,-0.04524 0.067165,-0.03497 0.1342905,-0.05838 0.1674845,-0.05838 0.1341406,0.414307 0.1201065,0.394153 0.3693903,0.733578 z m -0.9401162,-0.30144 c -0.00615,-0.0074 -0.026022,-0.02105 -0.044154,-0.03029 -0.018132,-0.0092 -0.039598,-0.0223 -0.0477,-0.029 l 0.111445,0.05428 c 0.00909,0.0039 0.00838,0.01857 -8.819e-4,0.01857 -0.00412,0 -0.012552,-0.0061 -0.018708,-0.01349 z m 0.080018,-0.631554 c -0.02467,-0.03281 -0.05962,-0.236165 -0.068305,-0.39745 -0.00488,-0.09045 -0.00306,-0.09292 0.070208,-0.09624 0.037405,-0.0017 0.1515013,-0.02244 0.2442031,-0.0444 0.016504,-0.0039 0.045713,-0.01054 0.064924,-0.01465 0.019213,-0.0041 0.038674,-0.0099 0.043249,-0.01268 0.00458,-0.0028 0.013629,-0.0018 0.020131,0.0022 0.00999,0.0062 0.00964,0.02905 -0.00235,0.149399 -0.00795,0.07983 -0.019573,0.152418 -0.02651,0.165646 -0.015727,0.02994 -0.065927,0.07728 -0.1208749,0.113943 -0.023564,0.01573 -0.067324,0.04724 -0.097248,0.07003 -0.073378,0.0559 -0.1171215,0.07795 -0.1274363,0.06423 z m -0.00809,-0.9891202 c 0.00632,-0.063201 0.014299,-0.1009657 0.05024,-0.2380634 l 0.0292,-0.1113903 0.102369,7.059e-4 c 0.1394908,8.82e-4 0.400017,0.011383 0.4049868,0.016357 0.00224,0.00228 -0.00844,0.034006 -0.023694,0.070641 -0.044654,0.1072109 -0.054925,0.1247583 -0.1032389,0.1763501 -0.043825,0.046801 -0.062533,0.056967 -0.1585479,0.086151 -0.08983,0.027305 -0.1471329,0.038047 -0.2345409,0.043999 l -0.071741,0.00489 z M 5.0479844,8.9170092 c -0.074447,-0.00967 -0.087344,-0.015662 -0.080649,-0.037297 0.012094,-0.039079 0.047382,-0.1003032 0.090433,-0.1568716 0.024605,-0.032334 0.046953,-0.060714 0.049657,-0.063082 0.013752,-0.011991 0.052968,-0.070109 0.060295,-0.089388 0.010014,-0.026338 0.0131,-0.026653 0.056542,-0.00565 0.055319,0.026729 0.2172401,0.075735 0.3056983,0.092516 0.028732,0.00543 0.029774,0.01929 0.00382,0.051134 -0.01084,0.013327 -0.033824,0.045845 -0.051063,0.072281 C 5.4301197,8.8612966 5.3821343,8.9083772 5.3435773,8.917165 5.3041033,8.926175 5.117521,8.926075 5.047964,8.9169999 Z M 4.1354385,8.2220433 c -0.01414,-0.00369 -0.039203,-0.010644 -0.055695,-0.015379 -0.016497,-0.00478 -0.043484,-0.01223 -0.059981,-0.016629 C 3.8647769,8.1487736 3.7440203,8.053989 3.6339718,7.8872087 3.5623704,7.7786944 3.5222095,7.678413 3.5041308,7.5629834 c -0.00892,-0.056935 -0.00535,-0.2156514 0.00535,-0.2413012 0.00341,-0.00815 0.030537,-0.021722 0.063183,-0.031671 0.1333203,-0.040632 0.2763042,-0.087454 0.3442566,-0.1127209 0.040056,-0.014901 0.084398,-0.030922 0.098537,-0.035614 0.0349,-0.011578 0.072025,-0.026892 0.1628016,-0.067155 0.069183,-0.030683 0.072832,-0.036255 0.072832,-0.1112491 0,-0.1361245 0.095946,-0.3385273 0.2118159,-0.4468363 0.053543,-0.050048 0.153382,-0.116052 0.2337459,-0.15453 0.2111597,-0.1011069 0.2663115,-0.1270434 0.2701214,-0.1270434 0.00235,0 0.020601,-0.00728 0.04058,-0.016151 0.037993,-0.016889 0.087206,-0.035527 0.1948407,-0.07378 0.068433,-0.024318 0.081396,-0.029358 0.1285381,-0.049972 0.016497,-0.00717 0.060016,-0.022917 0.096699,-0.034897 0.036682,-0.011969 0.079095,-0.027414 0.094243,-0.034321 0.015146,-0.00684 0.060737,-0.027794 0.1013046,-0.046421 0.040568,-0.018627 0.082983,-0.036754 0.094254,-0.040252 0.019267,-0.00597 0.102067,-0.048148 0.2604114,-0.1325599 0.037703,-0.020093 0.1128927,-0.065927 0.1670898,-0.1018563 0.054196,-0.035929 0.1026547,-0.067242 0.1076877,-0.069599 0.017844,-0.00836 0.2062593,-0.1538707 0.2864621,-0.2212416 0.1452167,-0.1219833 0.2396183,-0.220704 0.3408512,-0.3564506 0.1266338,-0.1698094 0.1252362,-0.1686071 0.1508529,-0.12951 0.023494,0.035853 0.018455,0.084142 -0.022371,0.2145131 -0.043101,0.1376331 -0.1636093,0.3380527 -0.3102541,0.5159929 -0.00691,0.00836 -0.039381,0.048028 -0.072147,0.088084 -0.059217,0.07239 -0.2375083,0.2408298 -0.3439856,0.3249726 -0.030632,0.02421 -0.061555,0.048712 -0.068718,0.054458 -0.0131,0.010535 -0.1090514,0.083751 -0.1932722,0.1475374 -0.049316,0.037352 -0.1288533,0.094449 -0.1492977,0.1071784 -0.00908,0.00565 -0.010351,0.011426 -0.00429,0.019637 0.0047,0.00641 0.021654,0.02938 0.037658,0.051069 0.033695,0.045693 0.082733,0.1525141 0.1012416,0.2205454 0.01481,0.054425 0.01745,0.256736 0.00394,0.3016601 -0.00465,0.015531 -0.013117,0.043651 -0.018767,0.062506 -0.023447,0.078136 -0.1562577,0.2985973 -0.1920903,0.3188621 -0.00656,0.00369 -0.028662,0.022461 -0.049123,0.041664 -0.07552,0.070902 -0.17285,0.1311099 -0.2727324,0.1686994 C 5.3585714,7.609566 5.3615963,7.609165 5.1336398,7.610653 4.9089446,7.612063 4.8610785,7.617063 4.765194,7.64895 4.696414,7.671802 4.5589531,7.737186 4.5108806,7.7699177 c -0.019702,0.013414 -0.039622,0.024383 -0.044271,0.024383 -0.00465,0 -0.00973,0.00293 -0.0113,0.00663 -0.00159,0.00358 -0.022612,0.02094 -0.046759,0.038503 -0.041661,0.030292 -0.1180822,0.1108527 -0.1513607,0.1595619 -0.029574,0.043282 -0.059473,0.1171207 -0.065657,0.1621371 -0.00764,0.055566 -0.021036,0.07012 -0.056113,0.060931 z M 4.8754308,7.0313416 C 5.013243,7.0089786 5.082162,6.9347426 5.1237365,6.7638585 c 0.011777,-0.048376 0.013258,-0.1519667 0.00217,-0.1519667 -0.00429,0 -0.022583,0.0076 -0.040703,0.016781 -0.018114,0.00923 -0.074005,0.036255 -0.1241926,0.060041 -0.1507928,0.071478 -0.2345373,0.1466197 -0.288956,0.2592851 -0.028803,0.059628 -0.023871,0.06911 0.041868,0.080547 0.073915,0.012871 0.09697,0.013261 0.1615027,0.00272 z M 5.1679426,5.9910362 c 0,-0.00217 0.018314,-0.014315 0.040703,-0.027023 0.094459,-0.053622 0.2335291,-0.1467099 0.2918071,-0.1953159 0.03443,-0.028717 0.076843,-0.062995 0.094253,-0.076181 0.090133,-0.068274 0.3535449,-0.3485218 0.4526271,-0.4815672 0.045195,-0.060682 0.1252169,-0.1815276 0.1528836,-0.2308712 0.042614,-0.075996 0.053068,-0.085249 0.070774,-0.062604 0.03139,0.040143 0.026446,0.1240393 -0.015269,0.2591982 C 6.1792434,5.4244911 5.977968,5.6457381 5.7163682,5.769546 5.6715732,5.790747 5.6272122,5.81109 5.6177862,5.814761 5.6083562,5.818451 5.5832972,5.829163 5.5620902,5.838623 5.5214642,5.856739 5.4127937,5.904007 5.3692978,5.922493 5.3227268,5.942282 5.180922,5.995035 5.1743652,5.995002 c -0.00353,-1.42e-5 -0.00643,-0.00185 -0.00643,-0.00391 z"
       id="path1"
       sodipodi:nodetypes="csccccccscsccsccccccscccsccccccssccccsccsccccsccssccccscssccscccssccsccssccssscscssccscscscscccsscsccsscccsccscsccccccscsccsccscsccccccsccssccsssccscccccccccccscssssscsscsccsscscccsccssccsscscccccccscccccscccccssccccsccscccccccccccscccccssccccccccsssccccscsccccccccccsscsccssscscscccsccscsscscsscsccccccccsccssccssccccsccscccccscccccsccccccc" /></g></svg>
