<?xml version="1.0" encoding="UTF-8" standalone="no"?>
<!-- Created with Inkscape (http://www.inkscape.org/) -->

<svg
   width="15mm"
   height="15mm"
   viewBox="0 0 15 15"
   version="1.1"
   id="svg1"
   inkscape:export-filename="folklore-fox.png"
   inkscape:export-xdpi="96"
   inkscape:export-ydpi="96"
   inkscape:version="1.3.2 (091e20e, 2023-11-25)"
   sodipodi:docname="folklore-fox.svg"
   xml:space="preserve"
   xmlns:inkscape="http://www.inkscape.org/namespaces/inkscape"
   xmlns:sodipodi="http://sodipodi.sourceforge.net/DTD/sodipodi-0.dtd"
   xmlns:xlink="http://www.w3.org/1999/xlink"
   xmlns="http://www.w3.org/2000/svg"
   xmlns:svg="http://www.w3.org/2000/svg"><sodipodi:namedview
     id="namedview1"
     pagecolor="#ffffff"
     bordercolor="#000000"
     borderopacity="0.25"
     inkscape:showpageshadow="2"
     inkscape:pageopacity="0.0"
     inkscape:pagecheckerboard="0"
     inkscape:deskcolor="#d1d1d1"
     inkscape:document-units="mm"
     showguides="false"
     inkscape:zoom="11.997222"
     inkscape:cx="16.587174"
     inkscape:cy="37.925448"
     inkscape:window-width="1792"
     inkscape:window-height="993"
     inkscape:window-x="0"
     inkscape:window-y="25"
     inkscape:window-maximized="0"
     inkscape:current-layer="layer1" /><defs
     id="defs1"><linearGradient
       id="linearGradient7"
       inkscape:collect="always"><stop
         style="stop-color:#decdc4;stop-opacity:1;"
         offset="0"
         id="stop7" /><stop
         style="stop-color:#b73112;stop-opacity:1;"
         offset="1"
         id="stop12" /></linearGradient><linearGradient
       id="linearGradient9"><stop
         style="stop-color:#17360a;stop-opacity:1;"
         offset="0"
         id="stop10" /><stop
         style="stop-color:#4cab1c;stop-opacity:1;"
         offset="1"
         id="stop11" /></linearGradient><linearGradient
       id="linearGradient9-1"><stop
         style="stop-color:#17360a;stop-opacity:1;"
         offset="0"
         id="stop9" /><stop
         style="stop-color:#4cab1c;stop-opacity:1;"
         offset="1"
         id="stop8" /></linearGradient><filter
       inkscape:collect="always"
       style="color-interpolation-filters:sRGB"
       id="filter1"
       x="-0.041453233"
       y="-0.13545699"
       width="1.0829065"
       height="1.270914"><feGaussianBlur
         inkscape:collect="always"
         stdDeviation="0.14356502"
         id="feGaussianBlur1" /></filter><radialGradient
       inkscape:collect="always"
       xlink:href="#linearGradient7"
       id="radialGradient12"
       cx="10.534393"
       cy="8.2229481"
       fx="10.534393"
       fy="8.2229481"
       r="2.8743881"
       gradientTransform="matrix(1,0,0,0.88457968,0,0.88291104)"
       gradientUnits="userSpaceOnUse" /></defs><g
     inkscape:label="Layer 1"
     inkscape:groupmode="layer"
     id="layer1"><path
       id="path1-7"
       style="fill:#000000;fill-opacity:0.297189;stroke:none;stroke-width:0.54;stroke-linecap:round;stroke-linejoin:round;stroke-dasharray:none;stroke-opacity:1;filter:url(#filter1)"
       d="m 14.846924,10.785841 c -0.37692,0.663301 -2.517644,1.201012 -4.78144,1.201012 -0.5659486,0 -1.0860124,-0.0336 -1.5418696,-0.09438 -0.2279278,-0.03039 -0.1212085,-0.298903 -1.1579933,0.236012 0.4328164,-0.541512 0.1559153,-0.439064 0.00135,-0.4934 C 6.7500706,11.418224 6.4605935,11.117386 6.6489931,10.785841 7.0259129,10.12254 9.1666359,9.5848286 11.430432,9.5848286 c 2.263796,0 3.793412,0.5377114 3.416492,1.2010124 z"
       sodipodi:nodetypes="ssscssss" /><ellipse
       style="fill:#000000;fill-opacity:0.19829424;stroke:#c00707;stroke-width:0.165;stroke-dasharray:none;stroke-opacity:0.21321961"
       id="path5"
       cx="7.4724536"
       cy="11.982809"
       rx="0.24757871"
       ry="0.26408395" /><path
       id="path1"
       style="fill:#959b93;fill-opacity:1;stroke:#39613e;stroke-width:0.54;stroke-linecap:round;stroke-linejoin:round;stroke-dasharray:none;stroke-opacity:1"
       d="m 14.451234,8.1502667 c 0,1.2687785 -1.83517,2.2973263 -4.098966,2.2973263 -0.5659485,0 -1.1051082,-0.06428 -1.5955016,-0.180535 -0.2451967,-0.05813 -0.4782018,0.595225 -1.2110218,1.618424 0.1251028,-1.035818 0.09356,-2.0068266 -0.091882,-2.1107601 -0.7401307,-0.4148175 -1.200559,-0.990269 -1.200559,-1.6244552 -1e-7,-1.2687784 1.835169,-2.2973266 4.0989643,-2.2973266 2.263796,-2e-7 4.098966,1.028548 4.098966,2.2973266 z"
       sodipodi:nodetypes="ssscssss" /><path
       style="fill:url(#radialGradient12);fill-opacity:1;stroke:none;stroke-width:0.34;stroke-linecap:round;stroke-linejoin:round"
       d="M 8.4751687,5.1069033 8.3813113,6.104773 8.4986329,6.8208912 C 8.0308452,7.1445754 7.7101839,7.6602695 7.5717897,8.0770331 l 0.2111795,0.093917 -0.011733,0.7161181 C 8.0392802,8.6337316 8.3272142,8.4268354 8.7802055,8.6053171 L 9.5486643,9.8548018 10.542032,10.192154 11.603505,9.658313 12.065221,8.8870684 12.217739,8.5818377 C 12.49585,8.425603 12.886771,8.540287 13.320566,8.7579324 L 13.297101,8.2061692 C 13.319938,7.7436721 13.137376,7.0376694 12.604902,6.762193 L 12.452383,5.1656015 11.279164,5.940418 10.974127,6.0343351 c -0.425509,-0.138564 -0.729096,-0.06363 -1.0324337,0.01174 z"
       id="path7"
       sodipodi:nodetypes="cccccccccccccccccccc" /><path
       style="fill:#000000;stroke:none;stroke-width:0.999996"
       d="M 9.7253631,10.200952 C 9.4008083,10.042191 9.3034998,9.725848 9.1545843,9.5564882 8.9794847,9.3573496 8.9259798,9.1192548 8.8518424,8.8341807 c -0.022203,-0.085375 -0.045837,-0.169088 -0.05252,-0.1860292 -0.00668,-0.016941 -0.012151,-0.032566 -0.012151,-0.034722 0,-0.00931 0.036257,-0.00226 0.1064769,0.0207 0.2200496,0.071954 0.4197723,0.2084099 0.5578624,0.3811452 0.093963,0.1175366 0.1451999,0.2033646 0.2144789,0.3592756 0.1467046,0.3301556 0.3244148,0.5046864 0.6112324,0.6002973 0.08136,0.027121 0.0822,0.027217 0.240858,0.027205 0.175897,-1.4e-5 0.220289,-0.00723 0.332913,-0.054149 0.141946,-0.05913 0.290592,-0.1883111 0.392657,-0.3412413 0.02833,-0.04245 0.09002,-0.1564195 0.137077,-0.2532651 0.104098,-0.214218 0.168317,-0.3128935 0.271571,-0.4172825 0.152618,-0.1542955 0.30748,-0.2451358 0.523697,-0.3071964 0.04065,-0.011668 0.07558,-0.01954 0.07763,-0.017493 0.002,0.00205 -0.01501,0.075062 -0.0379,0.1622574 -0.145268,0.5533365 -0.509443,0.9002081 -0.798131,1.3316313 -0.303895,0.269001 -1.6417524,0.102325 -1.6922309,0.09564 z M 10.404388,9.7612424 C 10.232533,9.7251377 10.083338,9.6222334 9.9820906,9.4699713 9.9561287,9.4309282 9.9134911,9.3472674 9.8838317,9.2771732 9.7737597,9.0170397 9.6890793,8.8828773 9.5423459,8.7361426 9.317749,8.5115438 9.0595749,8.3870213 8.7275281,8.3431395 8.5990863,8.3261655 8.3930281,8.3318465 8.2825214,8.3554095 8.1568699,8.3822015 8.0518955,8.4186075 7.9502581,8.470641 7.8973001,8.497753 7.8525391,8.518502 7.8507891,8.516751 7.8446091,8.510571 7.9124411,8.3885224 7.9749669,8.2933285 8.0886142,8.1203035 8.1330075,8.069812 8.227892,8.0056605 8.3008,7.9563675 8.3626864,7.9222925 8.421084,7.8992897 8.473981,7.8784537 8.479583,7.8690357 8.492807,7.7787062 c 0.00473,-0.032315 0.0086,-0.060807 0.0086,-0.063316 0,-0.00888 -0.07499,-0.00439 -0.1354521,0.0081 C 8.2727989,7.7427442 8.15134,7.7878032 8.0340003,7.8466398 7.9757803,7.8758328 7.9260728,7.8976428 7.923539,7.8951078 7.917699,7.8892578 7.963117,7.7677178 8.00309,7.6822293 8.0589905,7.5626816 8.1878642,7.3823911 8.3075197,7.2563451 8.4839041,7.0705404 8.8301992,6.8000912 8.988374,6.724612 9.067333,6.686934 9.1299051,6.679063 9.2974624,6.685734 c 0.1053294,0.00419 0.1565182,0.010133 0.2122811,0.024633 0.376989,0.098027 0.6753505,0.3670417 0.8514045,0.7676612 0.04488,0.1021357 0.113976,0.3112787 0.124397,0.3765509 0.0048,0.029915 0.01427,0.067712 0.02111,0.083995 0.01126,0.026821 0.01325,0.028152 0.02114,0.014162 0.0048,-0.00849 0.01906,-0.067864 0.03172,-0.131934 0.0454,-0.2298516 0.179391,-0.5150154 0.326156,-0.6941172 0.07185,-0.087677 0.219298,-0.2272559 0.285008,-0.2697906 0.18875,-0.1221791 0.403269,-0.1845079 0.642488,-0.1866758 l 0.115289,-0.00104 0.101075,0.050477 c 0.270932,0.1353042 0.588971,0.4038228 0.826076,0.6974501 0.0619,0.076661 0.14528,0.2100741 0.207564,0.332128 0.05583,0.1093959 0.06791,0.1414202 0.05332,0.1412754 -0.0034,-3.34e-5 -0.03542,-0.016807 -0.07123,-0.037274 -0.113467,-0.064852 -0.220183,-0.106165 -0.336153,-0.1301344 -0.0746,-0.015419 -0.182511,-0.025111 -0.182511,-0.016392 0,0.00354 0.0099,0.041991 0.02191,0.085439 l 0.02191,0.078996 0.0672,0.035225 c 0.146709,0.076905 0.283891,0.2000237 0.392515,0.3522772 0.06243,0.087506 0.177871,0.2691726 0.171048,0.2691726 -0.0017,0 -0.04486,-0.01997 -0.09592,-0.044379 -0.239922,-0.1146651 -0.440974,-0.1585015 -0.684069,-0.1491509 -0.187271,0.0072 -0.352956,0.046313 -0.535511,0.1264051 -0.226278,0.099275 -0.463216,0.315819 -0.606398,0.5542029 -0.03838,0.063908 -0.06216,0.1148802 -0.136708,0.2931414 -0.04808,0.114974 -0.09592,0.1914778 -0.16803,0.2687452 -0.0723,0.077465 -0.15281,0.131378 -0.243202,0.1628551 -0.06246,0.021751 -0.08273,0.024765 -0.180584,0.026851 -0.06062,0.00129 -0.126481,-0.00107 -0.14635,-0.00524 z m 0.192323,-0.1920365 c 0.104028,-0.054258 0.239364,-0.1692633 0.295838,-0.2513973 0.03303,-0.048044 0.03863,-0.080177 0.05439,-0.3120612 0.02187,-0.3217911 0.04754,-0.5437744 0.07784,-0.6730712 0.02609,-0.1113123 0.05697,-0.1665873 0.137449,-0.2460361 0.08193,-0.080874 0.149994,-0.1201106 0.294786,-0.1699237 0.138099,-0.04751 0.170115,-0.064665 0.22584,-0.1210044 0.07391,-0.074728 0.122727,-0.1808214 0.145406,-0.316022 l 0.0052,-0.030976 0.309458,0.00238 c 0.281576,0.00217 0.310709,0.00114 0.323331,-0.011426 0.01296,-0.012903 0.01298,-0.015167 2.77e-4,-0.03456 -0.03472,-0.053026 -0.162013,-0.113271 -0.303826,-0.1437959 -0.154143,-0.033179 -0.476224,-0.030733 -0.611974,0.00465 -0.112768,0.029391 -0.255977,0.1132756 -0.361711,0.2118714 -0.08583,0.080036 -0.148549,0.1682586 -0.214595,0.3018532 -0.134525,0.2721099 -0.187441,0.5481623 -0.220145,1.148448 -0.005,0.092115 -0.0097,0.1680574 -0.0104,0.168761 -6.99e-4,7.035e-4 -0.09915,0.00396 -0.218785,0.00723 l -0.217514,0.00595 -0.0048,-0.023572 c -0.0027,-0.01296 -0.01049,-0.1136399 -0.01732,-0.2237285 C 10.256913,8.4027626 10.222643,8.1854053 10.141566,7.9501216 9.9987227,7.5355982 9.7530514,7.3091409 9.3762517,7.2446631 9.2628882,7.2252644 9.0811686,7.223468 8.9820367,7.240766 8.8327279,7.26682 8.6551885,7.329679 8.6064387,7.3737496 c -0.037177,0.033608 -0.039751,0.053547 -0.00948,0.073412 0.01978,0.01298 0.052608,0.01491 0.3158414,0.018571 l 0.2937672,0.00409 0.01029,0.061154 c 0.014642,0.087014 0.070305,0.1961447 0.1305516,0.2559505 0.056034,0.055624 0.1583289,0.1083987 0.2720577,0.1403561 0.042388,0.011911 0.088315,0.027407 0.1020582,0.034436 0.035469,0.01814 0.179151,0.1605357 0.2214211,0.219439 0.081728,0.1138889 0.1209151,0.3241876 0.1545921,0.8296307 0.01382,0.2073757 0.02076,0.2538624 0.04501,0.3014252 0.04648,0.091161 0.30273,0.2858525 0.376238,0.2858525 0.01243,0 0.04749,-0.012985 0.07792,-0.028855 z M 9.5744252,7.7113887 C 9.5039645,7.6709485 9.4618578,7.6065185 9.4441444,7.512036 c -0.00507,-0.027051 -0.00389,-0.029964 0.012155,-0.029964 0.025699,0 0.1309006,0.050431 0.1971922,0.09453 0.093626,0.062282 0.1010223,0.092049 0.033515,0.1348883 -0.046779,0.029686 -0.060705,0.029673 -0.1125814,-1.016e-4 z m 1.7975908,0.00632 c -0.039,-0.00876 -0.08646,-0.037055 -0.08646,-0.05155 0,-0.041402 0.25171,-0.2039458 0.291916,-0.1885073 0.01705,0.00655 0.009,0.0829 -0.01372,0.1298211 -0.04119,0.085134 -0.114873,0.1274985 -0.191736,0.1102362 z M 10.473556,7.2431038 C 10.393046,7.091845 10.339497,7.0182137 10.220314,6.8948888 10.008053,6.6752514 9.7706454,6.540762 9.5401047,6.5095571 c -0.041679,-0.00564 -0.077622,-0.013239 -0.079873,-0.016884 -0.00546,-0.00883 0.022895,-0.022881 0.1439307,-0.071305 0.055842,-0.022342 0.1419476,-0.057145 0.1913437,-0.077341 0.049396,-0.020196 0.1669672,-0.06143 0.2612699,-0.091632 0.195382,-0.062574 0.281161,-0.099148 0.313315,-0.1335913 0.01231,-0.013184 0.03686,-0.028373 0.05457,-0.033754 0.03415,-0.010381 0.304506,-0.021705 0.325521,-0.013635 0.01051,0.00404 0.0092,0.010934 -0.0085,0.045126 -0.03031,0.05846 -0.02349,0.066099 0.08822,0.098829 0.339048,0.099336 0.577461,0.180619 0.720853,0.2457609 l 0.04065,0.018467 -0.06923,0.014066 c -0.248565,0.050506 -0.483236,0.1821407 -0.678963,0.3808538 -0.16118,0.1636394 -0.212818,0.2304121 -0.288986,0.3736835 -0.02061,0.038761 -0.03813,0.070474 -0.03895,0.070474 -8.15e-4,0 -0.01958,-0.034007 -0.04171,-0.075571 z M 8.419951,6.8494081 C 8.4097487,6.8225571 8.3751679,6.6428441 8.3569727,6.5221152 8.3442407,6.4376368 8.3422392,6.369838 8.3425026,6.0319246 c 3.24e-4,-0.4425936 0.00168,-0.4571932 0.073068,-0.8004296 0.039843,-0.1915594 0.042366,-0.2003762 0.057344,-0.2003762 0.032434,0 0.3600865,0.1276722 0.5183724,0.2019877 0.2282009,0.1071406 0.490085,0.2783953 0.6883692,0.4501475 0.1326512,0.1149015 0.3491698,0.3553962 0.3338058,0.3707699 -0.0041,0.00409 -0.028689,0.012993 -0.054665,0.019781 -0.025977,0.00679 -0.080693,0.026787 -0.1215898,0.044443 -0.1034566,0.044663 -0.10834,0.043918 -0.1544126,-0.023555 C 9.6396309,6.0314809 9.4845926,5.8765465 9.3875608,5.7996569 9.2442444,5.6860909 9.0272312,5.5569775 8.8309574,5.4685016 8.7115375,5.4146698 8.6728659,5.4048043 8.6728659,5.4281711 c 0,0.025813 0.1049706,0.3995709 0.1391375,0.4954123 0.017769,0.049845 0.054126,0.1318378 0.080792,0.1822051 l 0.048483,0.091577 -0.042245,0.023007 c -0.080075,0.04361 -0.095529,0.073508 -0.0596,0.1153056 0.028001,0.032573 0.074677,0.030465 0.1259358,-0.00569 l 0.037851,-0.026697 0.047146,0.052094 c 0.02593,0.028652 0.045995,0.055552 0.044587,0.059777 -0.00141,0.00423 -0.055414,0.0367 -0.1200137,0.072165 -0.1572384,0.086323 -0.3524375,0.2181838 -0.456455,0.3083446 -0.046739,0.040513 -0.086327,0.07366 -0.087972,0.07366 -0.00165,0 -0.0064,-0.00897 -0.010562,-0.019925 z m 4.093616,-0.060771 C 12.393579,6.6719799 12.243083,6.5726669 12.005386,6.4532856 c -0.04848,-0.024349 -0.06676,-0.037587 -0.06352,-0.046015 0.0072,-0.018856 0.07223,-0.1024598 0.07767,-0.099896 0.0027,0.00128 0.03302,0.016481 0.06735,0.033783 0.06916,0.034855 0.08566,0.034536 0.107267,-0.00207 0.02871,-0.048631 0.01896,-0.068752 -0.05335,-0.1100474 -0.02133,-0.012183 -0.03878,-0.023845 -0.03878,-0.025915 0,-0.00207 0.02528,-0.057981 0.05618,-0.1242457 0.06867,-0.1472492 0.08593,-0.1969809 0.142505,-0.410511 0.04891,-0.1846171 0.05721,-0.2275095 0.04714,-0.2437196 -0.01755,-0.028253 -0.354981,0.1425145 -0.565985,0.2864345 -0.149921,0.1022573 -0.269186,0.2167555 -0.423893,0.4069495 l -0.02964,0.036441 -0.133652,-0.043571 c -0.166565,-0.054301 -0.170392,-0.055849 -0.170392,-0.0689 0,-0.03627 0.261628,-0.3133627 0.400384,-0.4240496 0.206081,-0.1643937 0.455492,-0.3116866 0.730422,-0.4313606 0.158789,-0.069119 0.368468,-0.1473027 0.395049,-0.1473027 0.02942,0 0.03012,0.00194 0.06584,0.1838215 0.06179,0.3146089 0.07779,0.4836618 0.07771,0.8210692 -9.3e-5,0.3013405 -0.0077,0.4008792 -0.04952,0.6454176 -0.02269,0.1327091 -0.03383,0.1798702 -0.04238,0.1794537 -0.0032,-1.556e-4 -0.0429,-0.036342 -0.08823,-0.080414 z"
       id="path6"
       sodipodi:nodetypes="csscscsssscscssccccssssssscssssscscssscscccccssccsccssssccsssccscscssssscsccsscccscsssscsccccsssssccssssscssssssssssssccscsscsssscccsscsscscccscsssscsssssssscssscssssscccsccscssccssscssssscccscc" /></g></svg>
