<?xml version="1.0" encoding="UTF-8" standalone="no"?>
<!-- Created with Inkscape (http://www.inkscape.org/) -->

<svg
   width="15mm"
   height="15mm"
   viewBox="0 0 15 15"
   version="1.1"
   id="svg1"
   inkscape:export-filename="folklore-lizard.png"
   inkscape:export-xdpi="96"
   inkscape:export-ydpi="96"
   inkscape:version="1.3.2 (091e20e, 2023-11-25)"
   sodipodi:docname="folklore-lizard.svg"
   xml:space="preserve"
   xmlns:inkscape="http://www.inkscape.org/namespaces/inkscape"
   xmlns:sodipodi="http://sodipodi.sourceforge.net/DTD/sodipodi-0.dtd"
   xmlns="http://www.w3.org/2000/svg"
   xmlns:svg="http://www.w3.org/2000/svg"><sodipodi:namedview
     id="namedview1"
     pagecolor="#ffffff"
     bordercolor="#000000"
     borderopacity="0.25"
     inkscape:showpageshadow="2"
     inkscape:pageopacity="0.0"
     inkscape:pagecheckerboard="0"
     inkscape:deskcolor="#d1d1d1"
     inkscape:document-units="mm"
     showguides="false"
     inkscape:zoom="7.3882493"
     inkscape:cx="40.334318"
     inkscape:cy="15.700607"
     inkscape:window-width="1792"
     inkscape:window-height="993"
     inkscape:window-x="0"
     inkscape:window-y="25"
     inkscape:window-maximized="0"
     inkscape:current-layer="layer1" /><defs
     id="defs1"><linearGradient
       id="linearGradient9"><stop
         style="stop-color:#17360a;stop-opacity:1;"
         offset="0"
         id="stop10" /><stop
         style="stop-color:#4cab1c;stop-opacity:1;"
         offset="1"
         id="stop11" /></linearGradient><linearGradient
       id="linearGradient9-1"><stop
         style="stop-color:#17360a;stop-opacity:1;"
         offset="0"
         id="stop9" /><stop
         style="stop-color:#4cab1c;stop-opacity:1;"
         offset="1"
         id="stop8" /></linearGradient><filter
       inkscape:collect="always"
       style="color-interpolation-filters:sRGB"
       id="filter1"
       x="-0.041453233"
       y="-0.13545699"
       width="1.0829065"
       height="1.270914"><feGaussianBlur
         inkscape:collect="always"
         stdDeviation="0.14356502"
         id="feGaussianBlur1" /></filter></defs><g
     inkscape:label="Layer 1"
     inkscape:groupmode="layer"
     id="layer1"><path
       id="path1-7"
       style="fill:#000000;fill-opacity:0.297189;stroke:none;stroke-width:0.54;stroke-linecap:round;stroke-linejoin:round;stroke-dasharray:none;stroke-opacity:1;filter:url(#filter1)"
       d="m 14.846924,10.785841 c -0.37692,0.663301 -2.517644,1.201012 -4.78144,1.201012 -0.5659486,0 -1.0860124,-0.0336 -1.5418696,-0.09438 -0.2279278,-0.03039 -0.1212085,-0.298903 -1.1579933,0.236012 0.4328164,-0.541512 0.1559153,-0.439064 0.00135,-0.4934 C 6.7500706,11.418224 6.4605935,11.117386 6.6489931,10.785841 7.0259129,10.12254 9.1666359,9.5848286 11.430432,9.5848286 c 2.263796,0 3.793412,0.5377114 3.416492,1.2010124 z"
       sodipodi:nodetypes="ssscssss" /><ellipse
       style="fill:#000000;fill-opacity:0.19829424;stroke:#c00707;stroke-width:0.165;stroke-dasharray:none;stroke-opacity:0.21321961"
       id="path5"
       cx="7.4724536"
       cy="11.982809"
       rx="0.24757871"
       ry="0.26408395" /><path
       id="path1"
       style="fill:#959b93;fill-opacity:1;stroke:#39613e;stroke-width:0.54;stroke-linecap:round;stroke-linejoin:round;stroke-dasharray:none;stroke-opacity:1"
       d="m 14.451234,8.1502667 c 0,1.2687785 -1.83517,2.2973263 -4.098966,2.2973263 -0.5659485,0 -1.1051082,-0.06428 -1.5955016,-0.180535 -0.2451967,-0.05813 -0.4782018,0.595225 -1.2110218,1.618424 0.1251028,-1.035818 0.09356,-2.0068266 -0.091882,-2.1107601 -0.7401307,-0.4148175 -1.200559,-0.990269 -1.200559,-1.6244552 -1e-7,-1.2687784 1.835169,-2.2973266 4.0989643,-2.2973266 2.263796,-2e-7 4.098966,1.028548 4.098966,2.2973266 z"
       sodipodi:nodetypes="ssscssss" /><g
       id="g5"
       transform="translate(7.0190286,6.5892921)"><path
         style="fill:#6cd5a1;fill-opacity:1;stroke:none;stroke-width:1.94001;stroke-linecap:butt;stroke-linejoin:miter;stroke-dasharray:none;stroke-opacity:1"
         d="M 1.0829212,2.846618 0.38217334,1.1492023 0.58756486,-0.36890878 1.1916583,-1.5045036 l 1.2323501,-0.7052642 0.5436839,-0.083675 0.459111,-0.3705626 0.4591109,-0.023907 2.0780808,0.4781453 0.4832746,0.2868869 0.1691461,0.3825163 -0.096655,0.454238 L 5.7344396,-0.42867695 4.5141712,0.3004947 4.0429784,1.1013879 3.7530136,1.9620494 3.7138705,2.6383527 4.6108261,3.8746302 3.6749071,3.9532523 1.2399856,3.2052268 Z"
         id="path4"
         sodipodi:nodetypes="ccccccccccccccccccccc" /><g
         id="g4"><path
           style="fill:#000000;stroke-width:1"
           d="M 4.72564,3.8224133 C 4.2513913,3.4032143 3.7952268,2.9765602 3.7266114,2.3901413 3.5061218,2.4175995 4.7923123,2.7992401 4.6302728,2.7572288 4.387236,2.694217 4.0993145,2.6089126 4.110456,2.5324011 c 0.00312,-0.021436 0.018343,0.034798 0.041729,0.023307 L 4.194705,2.5348161 4.129096,2.4946981 C 3.7233383,1.8273329 4.0070794,2.4565451 4.2501672,2.5147851 4.3761966,2.4388031 4.381384,2.5743421 4.421922,2.5920611 4.46246,2.6097801 4.6257442,2.6798321 4.7768719,2.7164539 5.0425921,2.7808429 5.0862823,2.8019789 5.3434637,2.7945309 5.5957738,2.7872309 5.971198,2.6367675 6.0845177,2.5829335 6.1969769,2.5295086 6.754278,1.7425238 6.7968864,1.6637541 6.8205227,1.6200577 6.2114147,2.0945318 5.9712685,2.1489832 5.6915296,2.2124127 5.4884131,2.3742253 5.2003758,2.3417827 4.8841998,2.3061704 4.7450326,2.2632816 4.5852129,2.152201 4.3764182,2.0070812 4.116115,1.5908607 4.116115,1.4782868 4.116115,1.3555349 4.2815158,0.98948031 4.3885356,0.84523326 4.6775532,0.45567974 4.8898345,0.2052986 5.5402025,-0.11004369 6.2502521,-0.45432354 6.3935764,-0.72461139 6.6121394,-0.95817412 6.7599685,-1.1161486 6.7507612,-1.2071206 6.7786734,-1.34749 6.8307097,-1.6091784 6.7723659,-1.8198176 6.5945194,-2.0123448 6.4536012,-2.1648954 6.25317,-2.2541117 5.6871562,-2.4162321 5.5660239,-2.4509275 5.3554925,-2.5198478 5.219309,-2.5693884 4.9142114,-2.6803761 4.8082333,-2.7016768 4.6880288,-2.6761712 c -0.082485,0.017502 -0.1001119,0.014511 -0.2191683,-0.037188 -0.3343079,-0.1451715 -0.6957168,-0.1629233 -1.0238814,-0.050292 -0.1647385,0.056541 -0.2234169,0.088547 -0.4983415,0.2718217 -0.026121,0.017413 -0.075076,0.031704 -0.1087883,0.031757 -0.067403,1.029e-4 -0.5738008,0.1597918 -0.8951891,0.2822878 -0.2120827,0.080835 -0.7589652,0.3399579 -0.95100365,0.4506035 l -0.11004732,0.063405 0.0825355,0.035764 c 0.0453945,0.01967 0.11474217,0.048859 0.15410587,0.064864 l 0.07157,0.0291 -0.1816177,0.120128 c -0.23846733,0.1577301 -0.57589476,0.42740411 -0.71300676,0.56983895 -0.13091042,0.13599201 -0.12622292,0.14109466 0.13138489,0.14304379 0.0927156,6.9957e-4 0.17320261,0.008685 0.17886005,0.017742 0.005658,0.009056 -0.0479744,0.0927577 -0.1191817,0.18600218 C 0.3372448,-0.3021618 0.09569416,0.16589729 0.02052887,0.4051644 -0.00577435,0.4888922 -0.0250037,0.55920935 -0.02220347,0.56142473 c 0.0027971,0.002215 0.08714294,-0.0313836 0.18742606,-0.0746642 0.10028416,-0.0432806 0.18534519,-0.0757128 0.18902552,-0.0720716 0.00368,0.003641 -0.00563,0.0544781 -0.0206876,0.11297066 C 0.2855065,0.71432046 0.14622472,0.91349947 0.19179191,1.2114768 0.23694339,1.5067351 0.31884274,1.6315083 0.17387658,1.6060176 0.02623061,1.5800556 0.04999564,1.0502339 0.07723262,0.86537916 0.08735004,0.79670844 0.08459452,0.78825628 0.05208359,0.78825628 -0.09246674,0.92576388 0.13844397,0.61116344 -0.14087233,0.81607061 -0.39981246,1.00603 0.06808753,-0.05016976 0.30822818,-0.41859273 c 0.0926748,-0.14218054 -0.0797484,0.18316552 -0.0797484,0.18316552 L 0.0712078,-0.00864342 -0.01118079,0.15342499 c -0.07268948,0.43811199 -0.13844899,0.4277107 -0.07448358,0.83226066 -0.02340702,0.47367895 0.07756456,0.80606675 0.29406174,1.13065245 0.0541243,0.081146 0.19544898,0.234783 0.25656384,0.3224949 0.055,0.078936 0.0176225,-0.2783815 0.10400203,-0.2346974 0.0532219,0.026916 0.0904917,0.323162 0.11889751,0.4561167 0.0388933,0.1820423 0.60934445,0.6035708 0.74805375,0.6710974 0.031087,0.013123 0.029546,-0.2461971 0.077602,-0.2220261 0.048056,0.024171 0.1291373,0.2990398 0.1928901,0.3311566 0.1275056,0.064234 0.2354152,0.1166617 0.4180753,0.194064 0.09133,0.038701 -0.026524,-0.2914265 0.076686,-0.2540869 0.1032104,0.03734 0.2534742,0.3683621 0.3672929,0.4012378 0.2276374,0.065751 0.4752193,0.1194726 0.7376573,0.1487538 0.2352657,0.02625 0.6240083,0.040508 0.9063346,0.029662 0.1976368,-0.00759 0.368621,-0.035999 0.5131873,-0.1376976 z m -1.3679655,0.01503 C 3.2567978,3.8198685 3.1060466,3.7871265 3.022672,3.7646827 2.888266,3.7285014 2.8628281,3.7145985 2.7982744,3.6420396 2.634453,3.4579042 2.4629666,3.1363577 2.3862342,2.8694415 2.2194561,2.2892974 2.3423333,1.5861963 2.7069669,1.0342159 2.8100522,0.87816619 3.0187415,0.66524626 3.0807721,0.65283299 3.1019287,0.64859955 3.1935206,0.64151722 3.2843097,0.63709531 3.5082056,0.62619034 4.0724461,0.48533714 4.1870273,0.41174688 4.2688754,0.35917977 4.2647469,0.40154034 4.1759556,0.52535065 3.8978774,0.91310133 3.7373051,1.1782527 3.6595901,1.3780193 3.5964336,1.5403635 3.5102928,1.8856305 3.5010897,2.0133164 3.4755313,2.3679179 3.5929011,2.7758975 3.8205696,3.1238323 3.9474841,3.3177894 4.0578941,3.4453788 4.2552839,3.6261851 4.3630386,3.7248863 4.444511,3.8117401 4.4363337,3.8191926 4.4103419,3.8428803 4.0266356,3.8733405 3.7795228,3.8713333 3.6427354,3.8702222 3.4628957,3.855774 3.3576745,3.8374433 Z M 3.1946217,2.7386638 c 0.058256,-0.057637 0.052673,-0.1279937 -0.014048,-0.1770553 -0.072466,-0.053286 -0.1417467,-0.04604 -0.202447,0.021174 -0.063061,0.069828 -0.063233,0.076101 -0.00399,0.1457629 0.061841,0.072713 0.1529883,0.076896 0.2204824,0.010123 z M 3.1636844,2.2111481 c 0.069207,-0.057616 0.071475,-0.1042783 0.0079,-0.1625726 -0.060698,-0.055656 -0.1120856,-0.056267 -0.1917776,-0.00228 -0.07208,0.04883 -0.076192,0.103569 -0.012795,0.1703358 0.052115,0.054886 0.126656,0.052807 0.1966724,-0.00548 z M 3.2447408,1.69891 C 3.3325964,1.6205593 3.3252261,1.5435366 3.2259458,1.502495 3.0507214,1.4300586 2.9258245,1.6159321 3.0781128,1.7225025 3.1247763,1.7551573 3.1924072,1.7455815 3.2447408,1.69891 Z M 3.526656,1.1418745 C 3.586948,1.0822225 3.589349,1.0755115 3.56398,1.0375318 3.549068,1.0152068 3.510751,0.9817597 3.47883,0.9632041 3.428975,0.9342231 3.413011,0.9326552 3.3656056,0.952083 3.2704856,0.991065 3.244913,1.0940989 3.3125346,1.1659123 c 0.057547,0.061114 0.1370786,0.052186 0.21412,-0.024038 z M 1.8859004,3.002468 C 1.6431232,2.6208632 1.5192614,2.1875818 1.501928,1.659291 1.4810063,1.0216351 1.5664319,0.565562 1.7848926,0.14859023 c 0.035296,-0.06736911 0.070309,-0.12248925 0.077807,-0.12248925 0.0075,0 0.034161,0.03062229 0.059253,0.06804955 0.1356308,0.20231207 0.3851551,0.37548453 0.6187091,0.4293907 0.063034,0.0145487 0.1182133,0.0300203 0.1226209,0.0343813 0.00441,0.004361 -0.052791,0.0845094 -0.127108,0.17810773 C 2.3504401,0.96995188 2.2654238,1.0990575 2.1851205,1.26914 1.9574482,1.7513496 1.8679284,2.3557937 1.9449979,2.8904656 c 0.017639,0.1223674 0.029072,0.225157 0.025407,0.2284213 -0.00366,0.00326 -0.041692,-0.049125 -0.084504,-0.1164189 z M 1.171089,2.6891085 C 0.92465113,2.313732 0.83086562,2.1069079 0.77883357,1.8240723 0.71900839,1.4988742 0.74327014,1.1622727 0.84367149,0.92452883 c 0.0147924,-0.0350274 0.0198112,-0.0636863 0.0111529,-0.0636863 -0.008659,0 -0.0760426,0.049846 -0.14974266,0.11076886 C 0.63138173,1.0325343 0.56815201,1.0736846 0.5645713,1.0630566 0.5554223,1.0358996 0.610857,0.67477955 0.6449116,0.53969545 0.6863911,0.37515879 0.82422116,0.05505951 0.91968556,-0.09844512 c 0.0457037,-0.07349057 0.0791972,-0.13747849 0.0744298,-0.14219514 -0.004768,-0.004717 -0.0807906,0.0248632 -0.1689406,0.0657332 -0.08815,0.04087 -0.16410109,0.0705214 -0.16878016,0.0658921 -0.004679,-0.00463 0.0119971,-0.0434913 0.0370581,-0.0863597 0.0250611,-0.0428685 0.0724771,-0.12693832 0.10536908,-0.18682192 C 0.89067332,-0.54942293 0.98911846,-0.67112691 1.2245,-0.90844665 1.3511435,-1.0361331 1.4299448,-1.1284924 1.4150099,-1.1317346 c -0.014009,-0.00304 -0.08198,0.00211 -0.1510469,0.011448 -0.069067,0.00934 -0.1292314,0.013654 -0.1336985,0.00959 -0.014422,-0.013115 0.204717,-0.2234532 0.3960615,-0.3801543 0.3117258,-0.2552871 0.8226537,-0.5339502 1.0958948,-0.5977073 0.061519,-0.014355 0.1650796,-0.02622 0.2301356,-0.026367 L 2.9706398,-2.115192 3.099963,-2.2468648 c 0.1462054,-0.148862 0.2916111,-0.2301199 0.4973326,-0.2779274 0.1777575,-0.041309 0.4455224,-0.026764 0.6407578,0.034806 0.3856196,0.1216101 0.5304495,0.1611133 0.8399248,0.2290954 0.4290448,0.094248 1.0427489,0.2645643 1.1543794,0.3203661 0.097107,0.048542 0.2196273,0.1887516 0.2737912,0.3133216 0.019058,0.04383 0.03238,0.081168 0.029604,0.082974 -0.0072,0.00468 -0.2537728,0.070027 -0.7295246,0.1933274 -1.0404003,0.26964 -1.492913,0.35288792 -2.2559707,0.41502723 -0.8391152,0.0683329 -1.0159883,0.12795187 -1.2471532,0.42038022 -0.08616,0.1089937 -0.1175431,0.19681149 -0.070335,0.19681149 0.011782,0 0.1087611,-0.0401446 0.2155095,-0.0892101 0.2860088,-0.13146053 0.4337014,-0.16301798 0.8601145,-0.18378032 0.6271874,-0.0305383 0.8946849,-0.0623036 1.4475828,-0.17190007 0.3700694,-0.0733558 1.0700866,-0.25393575 1.4450467,-0.37277125 0.09741,-0.030872 0.1806652,-0.052613 0.1850115,-0.048313 0.00435,0.0043 -0.052764,0.076373 -0.1269122,0.1601615 -0.095325,0.10771935 -0.1961738,0.19464138 -0.3442925,0.29674677 -0.2011568,0.13866735 -0.6939083,0.39760466 -1.0257028,0.5389994 C 4.6455344,-0.08494318 3.9276964,0.14689511 3.7218296,0.18824861 3.1943195,0.29421193 2.7242647,0.25390933 2.4476944,0.0790041 2.2715707,-0.03237792 2.0739699,-0.28747479 2.0106662,-0.48518676 c -0.056709,-0.17711547 -0.05232,-0.56333744 0.00871,-0.76667534 0.032712,-0.1089833 0.034446,-0.1737616 0.00465,-0.1737616 -0.012236,0 -0.065988,0.045765 -0.1194488,0.1016989 -0.1181449,0.1236104 -0.2150148,0.3162505 -0.2447752,0.48677165 -0.025509,0.14616202 -0.011891,0.38616811 0.028307,0.49889268 l 0.027181,0.0762226 -0.072858,0.11413771 C 1.4175658,0.20437969 1.2180864,0.77264813 1.1567238,1.2357796 1.0964188,1.6909295 1.1323518,2.1608046 1.2585669,2.5675116 1.3740205,2.9395425 1.3538809,2.9675367 1.171089,2.6891085 Z M 2.3111847,-1.193756 c 0.039627,-0.055975 0.035863,-0.081119 -0.017301,-0.1155836 -0.042476,-0.027536 -0.04923,-0.027536 -0.091706,0 -0.080251,0.052024 -0.047944,0.153633 0.049398,0.1553626 0.017081,2.984e-4 0.043905,-0.017597 0.059609,-0.039779 z M 2.6710844,-1.22665 c 0.040208,-0.02129 0.048343,-0.1063995 0.013467,-0.1409046 -0.036481,-0.036094 -0.1197371,-0.025877 -0.1511922,0.018555 -0.036256,0.051214 -0.036034,0.053759 0.00884,0.1014199 0.041244,0.0438 0.075256,0.049324 0.1288799,0.02093 z m 1.4304702,-0.059014 c 0.1818686,-0.061343 0.310873,-0.1479335 0.5126164,-0.3440782 0.1007416,-0.097946 0.2003213,-0.1843619 0.2212883,-0.1920356 0.034423,-0.012599 0.028646,-0.021024 -0.059547,-0.086839 C 4.722194,-1.9487042 4.6229012,-2.0232278 4.5552615,-2.0742248 4.2816535,-2.2805114 4.0293733,-2.387391 3.816059,-2.387391 c -0.3067984,0 -0.5638939,0.1727471 -0.6694391,0.449808 -0.048749,0.127968 -0.046065,0.2137477 0.010183,0.3254236 0.1498697,0.2975574 0.5848601,0.4478849 0.9447517,0.3264954 z M 3.7070448,-1.5301499 c -0.052899,-0.017545 -0.1242183,-0.061784 -0.1708105,-0.1059539 -0.073631,-0.069802 -0.079535,-0.082124 -0.074252,-0.154971 0.00856,-0.1180719 0.062322,-0.117762 0.1893398,0.00109 0.090881,0.085039 0.1054524,0.092162 0.1885449,0.092162 0.09921,0 0.2063378,-0.060968 0.2663487,-0.1515847 0.058986,-0.089069 0.2139573,-0.048574 0.1891003,0.049413 -0.018798,0.074102 -0.1321158,0.186685 -0.2377305,0.2361883 -0.128736,0.060341 -0.2383539,0.070865 -0.3505407,0.033656 z m 0.041225,-0.3990405 c -0.05083,-0.058131 -0.052586,-0.1137758 -0.00507,-0.1607829 0.073531,-0.072751 0.1922283,-0.054425 0.1922283,0.029678 0,0.075727 -0.017035,0.1068215 -0.074677,0.1363131 -0.066384,0.033964 -0.078725,0.033393 -0.112477,-0.00521 z m 2.2236747,0.312698 c 0.097817,-0.050046 0.097446,-0.1569676 -7.695e-4,-0.2228041 -0.080523,-0.053975 -0.1736884,-0.04444 -0.2337236,0.023921 -0.067152,0.076465 -0.044552,0.1565028 0.056468,0.1999793 0.075845,0.032642 0.112527,0.032416 0.1780279,-0.0011 z m -5.91591117,0.99061354 c 0.03666532,0.0620157 0.01460465,-0.18376262 0.05969634,-0.24170224 0.0891768,-0.11458821 0.31215633,-0.4193798 0.49777592,-0.5316545 l 0.11706182,-0.070807 -0.098207,-0.085666 c -0.0540138,-0.047116 -0.0943113,-0.089138 -0.08955,-0.093382 0.0870465,-0.077587 1.81623399,-0.8167114 1.96080329,-0.8594002 0.579246,-0.1710413 0.048852,-0.1692453 0.2903075,-0.1692453 0.049082,0 0.083743,-0.018318 0.1555836,-0.082223 0.1582988,-0.1408137 0.4686459,-0.2649512 0.750423,-0.3001658 0.1944177,-0.024297 0.4335766,0.00541 0.6718058,0.083455 0.1713577,0.056136 0.043258,0.1873862 0.2178481,0.1873862 0.1860777,0 0.2879325,-0.02261 0.4955104,0.052902 0.1202736,0.043753 0.4225596,0.1356295 0.5839624,0.1824578 0.3610321,0.1047472 0.5683731,0.1842558 0.7143202,0.2450321 l 0.3803912,0.2723453 c -0.6325781,-0.4666186 -1.9449564,-1.027492 -3.1331254,-0.913382 -0.32717,0.022961 -1.7724867,0.645733 -1.8494646,0.6982339 -0.2066882,0.1409666 -1.94353873,1.25642037 -1.72514257,1.62581574 z"
           id="path2"
           sodipodi:nodetypes="ccssssssscsscssssssssssssssssscsscsscsssssssssssssccsccsssscssssssscscsssssssssssssssscssssccsssscsssssssssssssssssssssssssssssssssssssssssscssssssssssssssssssssssssssscssssssssssssssssssssssssssssssssssssssssssccssscssscsssssssscccss" /><path
           style="fill:none;fill-opacity:0.343354;stroke:#3e771d;stroke-width:0.24;stroke-linecap:butt;stroke-linejoin:miter;stroke-dasharray:none;stroke-opacity:1"
           d="M 4.068775,2.4516634 C 4.4204796,2.6626798 5.2543851,3.2027307 6.1922599,2.5078316 6.7445168,1.861464 7.4278728,1.3448038 6.9567604,-0.31407135 7.0420915,0.14749952 7.1283293,0.6081093 6.7734954,1.5362798 6.4962441,1.754984 6.2331127,2.1833809 5.3248458,2.2460056 5.1032098,2.2541391 4.8726205,2.2171267 4.6832006,2.1296384 4.4856516,1.9547603 4.2995328,1.8176773 4.1633928,1.4605275 4.2843503,1.0703699 4.5312757,0.4922204 5.8031678,-0.24494169 6.1337371,-0.49743934 6.8597762,-0.72549511 6.9058128,-1.5650179 6.8784937,-2.3815442 5.7394655,-2.4554513 4.9462339,-2.776504 L 4.6044508,-2.8014189 C 4.0669032,-3.0241945 3.5033442,-3.0582456 2.8696226,-2.5832305 1.9940114,-2.3943459 1.3215375,-2.0635922 0.77327314,-1.6460918 l 0.17666406,0.1247114 c -0.50564994,0.3558939 -0.76266278,0.59874254 -0.98382655,0.91615309 l 0.45359428,0.022176 C -0.04815014,0.10424061 -0.09074002,0.41085256 -0.1669287,0.74754072 L 0.19266723,0.62473389 C 0.13127755,1.1768724 0.14017651,1.5203834 0.19435173,1.7295073"
           id="path3"
           sodipodi:nodetypes="ccccccccccccccccccc" /></g></g><path
       id="path1-4"
       style="fill:none;fill-opacity:1;stroke:#39613e;stroke-width:0.54;stroke-linecap:round;stroke-linejoin:round;stroke-dasharray:none;stroke-opacity:1"
       d="m 14.458125,8.0818654 c 0,1.2687785 -1.83517,2.2973266 -4.098966,2.2973266 -0.5659486,0 -1.1051083,-0.06428 -1.5955017,-0.180535 C 8.5184606,10.140527 8.2854555,10.793882 7.5526355,11.817081 7.6777383,10.781263 7.6461955,9.8102541 7.4607535,9.7063206 6.7206228,9.2915031 6.2601945,8.7160516 6.2601945,8.0818654"
       sodipodi:nodetypes="csscsc" /></g></svg>
