<?xml version="1.0" encoding="UTF-8" standalone="no"?>
<!-- Created with Inkscape (http://www.inkscape.org/) -->

<svg
   width="15mm"
   height="15mm"
   viewBox="0 0 15 15"
   version="1.1"
   id="svg1"
   inkscape:export-filename="fortlet.png"
   inkscape:export-xdpi="96"
   inkscape:export-ydpi="96"
   inkscape:version="1.3.2 (091e20e, 2023-11-25)"
   sodipodi:docname="fortlet.svg"
   xmlns:inkscape="http://www.inkscape.org/namespaces/inkscape"
   xmlns:sodipodi="http://sodipodi.sourceforge.net/DTD/sodipodi-0.dtd"
   xmlns="http://www.w3.org/2000/svg"
   xmlns:svg="http://www.w3.org/2000/svg">
  <sodipodi:namedview
     id="namedview1"
     pagecolor="#ffffff"
     bordercolor="#000000"
     borderopacity="0.25"
     inkscape:showpageshadow="2"
     inkscape:pageopacity="0.0"
     inkscape:pagecheckerboard="0"
     inkscape:deskcolor="#d1d1d1"
     inkscape:document-units="mm"
     showguides="false"
     inkscape:zoom="6.0938126"
     inkscape:cx="24.615132"
     inkscape:cy="58.255812"
     inkscape:window-width="1792"
     inkscape:window-height="993"
     inkscape:window-x="0"
     inkscape:window-y="25"
     inkscape:window-maximized="0"
     inkscape:current-layer="layer1" />
  <defs
     id="defs1">
    <inkscape:perspective
       sodipodi:type="inkscape:persp3d"
       inkscape:vp_x="-0.86087388 : 12.46959 : 1"
       inkscape:vp_y="0 : 1000 : 0"
       inkscape:vp_z="15.743482 : 12.195676 : 1"
       inkscape:persp3d-origin="7.5 : 5 : 1"
       id="perspective1" />
    <filter
       inkscape:collect="always"
       style="color-interpolation-filters:sRGB"
       id="filter1"
       x="-0.023527722"
       y="-0.033959413"
       width="1.0470554"
       height="1.0679188">
      <feGaussianBlur
         inkscape:collect="always"
         stdDeviation="0.059119923"
         id="feGaussianBlur1" />
    </filter>
  </defs>
  <g
     inkscape:label="Layer 1"
     inkscape:groupmode="layer"
     id="layer1">
    <path
       style="mix-blend-mode:normal;fill:#9f9f9f;fill-opacity:0.47191;fill-rule:evenodd;stroke:#c00707;stroke-width:0;stroke-linejoin:bevel;stroke-opacity:0.21322;filter:url(#filter1)"
       d="M 7.1967235,13.16085 11.443674,10.118069 10.051916,8.9848047 5.4130089,8.9826915 Z"
       id="path20"
       sodipodi:nodetypes="ccccc"
       transform="matrix(1.7287518,0,0,1.7287518,-4.9839015,-8.913293)" />
    <ellipse
       style="fill:#000000;fill-opacity:0.143426;stroke:#c00707;stroke-width:0.165;stroke-dasharray:none;stroke-opacity:1"
       id="path5"
       cx="7.4724536"
       cy="11.982809"
       rx="0.24757871"
       ry="0.26408395" />
    <path
       d="M 3.7877926,5.8799731 7.6655433,10.602282 11.531786,5.7315335 7.3860281,5.2138902 Z"
       style="fill:#cdcde7;fill-opacity:1;fill-rule:evenodd;stroke:none;stroke-width:0;stroke-linejoin:round;stroke-opacity:0.21322"
       id="path17"
       sodipodi:nodetypes="ccccc" />
    <g
       id="g1"
       transform="matrix(0.82346828,0,0,1.7287518,1.1714848,-10.465837)"
       style="stroke-width:0.578452">
      <path
         style="fill:#938946;fill-opacity:1;fill-rule:evenodd;stroke:#c00707;stroke-width:0;stroke-linejoin:bevel;stroke-opacity:0.21322"
         d="M 4.089276,12.315863 4.870613,12.04843 c 0,0 -0.094701,0.499615 -0.072685,-0.3032 0.010514,-0.383183 -0.069389,-0.724823 0.3744072,-0.671989 0.4437964,0.05283 0.3698303,-0.818915 0.3698303,-0.818915 l -1.4793216,-0.07924 z"
         id="path21"
         sodipodi:nodetypes="ccssccc" />
      <path
         d="m 2.754731,9.0342578 c 0.4805353,0.1081556 1.2091739,0.2199615 1.2091739,0.2199615 l 0.022808,0.5835935 0.288731,0.068691 0.02653,-0.5903361 1.0480322,0.1731427 -0.026933,0.5808866 0.2953622,0.09112 0.045927,-0.60703 1.9957251,0.3118506 -0.01762,4.2511604 -1.7355684,-0.909627 c 0,0 7.211e-4,0.100089 0.056506,-1.437313 -0.1886232,-0.405064 -1.1248678,-1.18185 -1.8988966,-0.900225 0.087455,1.457031 -0.00816,1.462978 -0.00816,1.462978 L 2.7450522,11.494289 Z"
         style="fill:#bcbc81;fill-opacity:1;fill-rule:evenodd;stroke:none;stroke-width:0;stroke-linejoin:round;stroke-opacity:0.21322"
         id="path19"
         sodipodi:nodetypes="ccccccccccccccccc" />
    </g>
    <path
       d="m 7.4662977,6.6746381 0.00467,7.1828489 3.9994433,-4.3738839 0.05585,-3.6182582 -0.02637,-0.9450602 -1.013632,0.422769 0.02126,1.1764059 -0.292328,0.1585612 -2.09e-4,-1.2641434 -1.0268353,0.470308 -0.01217,1.1617767 -0.276268,0.1886609 0.0057,-1.2549412 z"
       style="fill:#a2a07b;fill-opacity:0.945946;fill-rule:evenodd;stroke:none;stroke-width:0;stroke-linejoin:round;stroke-opacity:0.21322"
       id="path18"
       sodipodi:nodetypes="cccccccccccccc" />
  </g>
</svg>
