<?xml version="1.0" encoding="UTF-8" standalone="no"?>
<!-- Created with Inkscape (http://www.inkscape.org/) -->

<svg
   width="15mm"
   height="15mm"
   viewBox="0 0 15 15"
   version="1.1"
   id="svg1"
   inkscape:export-filename="bitmap.png"
   inkscape:export-xdpi="96"
   inkscape:export-ydpi="96"
   inkscape:version="1.3.2 (091e20e, 2023-11-25)"
   sodipodi:docname="fossils.svg"
   xmlns:inkscape="http://www.inkscape.org/namespaces/inkscape"
   xmlns:sodipodi="http://sodipodi.sourceforge.net/DTD/sodipodi-0.dtd"
   xmlns:xlink="http://www.w3.org/1999/xlink"
   xmlns="http://www.w3.org/2000/svg"
   xmlns:svg="http://www.w3.org/2000/svg">
  <sodipodi:namedview
     id="namedview1"
     pagecolor="#ffffff"
     bordercolor="#000000"
     borderopacity="0.25"
     inkscape:showpageshadow="2"
     inkscape:pageopacity="0.0"
     inkscape:pagecheckerboard="0"
     inkscape:deskcolor="#d1d1d1"
     inkscape:document-units="mm"
     showguides="false"
     inkscape:zoom="8.3972233"
     inkscape:cx="10.003307"
     inkscape:cy="55.018187"
     inkscape:window-width="1792"
     inkscape:window-height="993"
     inkscape:window-x="733"
     inkscape:window-y="65"
     inkscape:window-maximized="0"
     inkscape:current-layer="layer1" />
  <defs
     id="defs1">
    <linearGradient
       id="linearGradient31"
       inkscape:collect="always">
      <stop
         style="stop-color:#eceea8;stop-opacity:1;"
         offset="0"
         id="stop31" />
      <stop
         style="stop-color:#ffffff;stop-opacity:0;"
         offset="1"
         id="stop32" />
    </linearGradient>
    <radialGradient
       inkscape:collect="always"
       xlink:href="#linearGradient31"
       id="radialGradient32"
       cx="11.327281"
       cy="11.689628"
       fx="11.327281"
       fy="11.689628"
       r="1.4966506"
       gradientTransform="matrix(1.6736842,0,0,1.3588919,-11.443531,-10.164668)"
       gradientUnits="userSpaceOnUse" />
  </defs>
  <g
     inkscape:label="Layer 1"
     inkscape:groupmode="layer"
     id="layer1">
    <ellipse
       style="fill:#000000;fill-opacity:0.143426;stroke:#c00707;stroke-width:0.165;stroke-dasharray:none;stroke-opacity:0.421348"
       id="path5"
       cx="7.4724536"
       cy="11.982809"
       rx="0.24757871"
       ry="0.26408395" />
    <g
       id="g32"
       transform="translate(0.40960961,4.7577731)">
      <path
         style="fill:#ad9149;fill-opacity:1;stroke-width:0.126"
         d="m 4.4741973,7.1524132 c 0,0 -2.4355578,0.9534236 0.5671517,2.5521835 2.3122535,1.2311343 2.9933011,-0.5041353 2.9933011,-0.5041353 z"
         id="path4"
         sodipodi:nodetypes="cscc" />
      <ellipse
         style="fill:#ad9149;fill-opacity:1;stroke-width:0.227033"
         id="path2"
         cx="7.1209054"
         cy="6.8530836"
         rx="2.8672671"
         ry="3.0090551" />
      <path
         sodipodi:type="spiral"
         style="fill:none;fill-opacity:1;fill-rule:evenodd;stroke:#000000;stroke-width:0.264583"
         id="path1"
         sodipodi:cx="7.6565485"
         sodipodi:cy="7.372973"
         sodipodi:expansion="1"
         sodipodi:revolution="3"
         sodipodi:radius="3.6879673"
         sodipodi:argument="-16.056734"
         sodipodi:t0="0"
         d="M 7.6565485,7.372973 C 7.4827724,7.4361642 7.4856329,7.1699026 7.5515205,7.0841457 7.7300716,6.8517497 8.0815995,6.9650422 8.2342031,7.1629169 8.5071751,7.5168683 8.3238666,8.0196631 7.9716326,8.2394549 7.4547152,8.5620082 6.7830301,8.3009024 6.5012393,7.7930852 6.1256564,7.1162447 6.4673603,6.2706849 7.1314083,5.9288364 7.9670448,5.498655 8.9885557,5.9221656 9.3895123,6.7428047 9.8751246,7.7367086 9.3691885,8.9352389 8.3917448,9.3947641 7.2398613,9.9362986 5.8636865,9.3475804 5.3459301,8.2131974 4.7481598,6.9035073 5.4198839,5.3492899 6.7112961,4.7735272 8.1786807,4.1193091 9.9112105,4.8741885 10.544822,6.3226925 11.255637,7.9476951 10.417498,9.8587289 8.811857,10.550073 7.029291,11.317597 4.9396123,10.396122 4.1906209,8.6333096"
         transform="translate(-0.85072764,-0.72469392)" />
      <path
         style="fill:none;fill-opacity:1;stroke:#000000;stroke-width:0.226;stroke-dasharray:none;stroke-opacity:1"
         d="m 3.5289442,8.0346499 c 0,-0.042011 0.042011,-0.1260338 0,-0.1260338 -0.042011,0 -0.013285,0.165889 0,0.1260338 0.023484,-0.070455 0.013496,-0.1485104 0.031508,-0.2205591 0.00715,-0.028583 0.049453,-0.067398 0.063017,-0.094525 0.01324,-0.026479 0.013197,-0.1077219 0.031508,-0.1260337 0.015753,-0.015753 0.047263,-0.015753 0.063017,-0.031509 0.00743,-0.00743 -0.00743,-0.024082 0,-0.031508 0.00565,-0.00565 0.2284553,-0.033501 0.2520675,-0.063017 0.038257,-0.047821 0.056268,-0.1097205 0.094525,-0.1575421 0.020749,-0.025934 0.07104,-0.00802 0.094525,-0.031509 0.00743,-0.00743 -0.0094,-0.026811 0,-0.031508 0.018788,-0.00939 0.043089,0.00664 0.063017,0 0.014092,-0.0047 0.018224,-0.024866 0.031508,-0.031508 0.043669,-0.021834 0.1388052,0 0.1890506,0"
         id="path6" />
      <path
         style="fill:none;fill-opacity:1;stroke:#000000;stroke-width:0.226;stroke-dasharray:none;stroke-opacity:1"
         d="m 4.8838069,8.0976667 c -0.010504,0.07352 -0.022296,0.1468665 -0.031508,0.2205591 -0.012004,0.096026 0.022505,-0.022506 -0.031509,0.031508 -0.071783,0.071783 0.1323941,0.3402322 0,0.4726265 -0.014854,0.014854 -0.044229,-0.0094 -0.063017,0 -0.1311307,0.065565 0.033684,-0.00217 -0.031509,0.063017 -0.016605,0.016605 -0.04641,0.014901 -0.063017,0.031508 -0.037133,0.037133 -0.057392,0.088901 -0.094525,0.1260337 -0.010504,0.010504 -0.084023,0.021005 -0.094525,0.031508 -0.016605,0.016605 -0.018481,0.043476 -0.031508,0.063017 0.00315,0.06242 -0.046411,0.014901 -0.063017,0.031508 -0.00834,0.00834 0,0.081551 0,0.094525"
         id="path7" />
      <path
         style="fill:none;fill-opacity:1;stroke:#000000;stroke-width:0.226;stroke-dasharray:none;stroke-opacity:1"
         d="M 6.1756525,8.8853776 C 6.0413682,8.9870961 5.8799541,9.0574473 5.923585,9.2319701 c 0.00948,0.037909 0.1020961,0.1499714 0.094525,0.1575422 -0.00743,0.00743 -0.022114,-0.0047 -0.031508,0 -0.042475,0.021238 -0.238305,0.3053056 -0.2520675,0.3465928 -0.00542,0.016259 -0.010488,0.1470541 0,0.1575422 0.042011,0.042011 0.031508,-0.052514 0.031508,0.031508"
         id="path8" />
      <path
         style="fill:none;fill-opacity:1;stroke:#000000;stroke-width:0.226;stroke-dasharray:none;stroke-opacity:1"
         d="m 7.1839221,8.7908523 c 0.010504,0.042011 -0.010501,0.1365364 0.031509,0.1260338 0.042011,-0.010504 -0.00749,-0.1620653 -0.031509,-0.1260338 -0.041195,0.061793 -0.022296,0.1468662 -0.031508,0.2205591 -0.012316,0.098524 0.024844,-0.049687 -0.031508,0.063017 -0.028673,0.057346 0.1046927,0.1463683 0.1260337,0.1890504 0.01456,0.02912 0.012859,0.2263497 0,0.2520675 -0.0047,0.0094 -0.026811,-0.0094 -0.031508,0 -0.014092,0.028182 0.02228,0.072245 0,0.094525 -0.014004,0.014004 -0.059516,-0.024506 -0.031509,0.031508 0.039802,0.079603 0.1613916,0.098375 0.1890506,0.1260337 0.023818,0.023818 0.013668,0.063017 0.063017,0.063017"
         id="path9" />
      <path
         style="fill:none;fill-opacity:1;stroke:#000000;stroke-width:0.226;stroke-dasharray:none;stroke-opacity:1"
         d="m 7.971633,8.4127511 c 0.031508,0.042011 0.057392,0.088901 0.094525,0.1260337 0.00743,0.00743 0.024082,-0.00743 0.031508,0 0.00743,0.00743 -0.00743,0.024082 0,0.031508 0.015753,0.015753 0.047263,0.015753 0.063017,0.031508 0.016605,0.016605 0.014901,0.04641 0.031508,0.063017 0.065192,0.065192 -0.00254,-0.099622 0.063017,0.031508 0.0366,0.073199 -0.081085,0.297016 -0.031508,0.3465928 0.00743,0.00743 0.024082,-0.00743 0.031508,0 0.016309,0.016309 0.0152,0.1097251 0.031509,0.1260335 0.019987,0.019987 0.0998,-0.013115 0.1260337,0 0.013285,0.00664 0.018225,0.024866 0.031508,0.031508 0.018788,0.0094 0.048164,-0.014854 0.063017,0 0.00743,0.00743 -0.00743,0.024082 0,0.031508 0.014854,0.014854 0.048164,-0.014854 0.063017,0 0.00743,0.00743 -0.00743,0.024082 0,0.031508 0.015753,0.015753 0.078771,-0.015753 0.094525,0 0.00743,0.00743 0,0.021005 0,0.031508"
         id="path10" />
      <path
         style="fill:none;fill-opacity:1;stroke:#000000;stroke-width:0.226;stroke-dasharray:none;stroke-opacity:1"
         d="M 9.4525292,8.3182258 C 9.475495,8.2133177 9.2634786,8.1644682 9.2634786,8.0976667 c 0,-0.050704 -0.053656,-0.033221 -0.094525,-0.094525 -0.011652,-0.017478 0.014854,-0.048164 0,-0.063017 -0.047263,-0.047263 -0.2363132,0.047263 -0.2835757,0 -0.00743,-0.00743 0,-0.021005 0,-0.031509 -0.052514,-0.021005 -0.1038852,-0.045131 -0.1575422,-0.063017 -0.019928,-0.00664 -0.048164,0.014854 -0.063017,0 -0.00743,-0.00743 0.00743,-0.024082 0,-0.031509 -0.01207,-0.012068 -0.1913774,-0.094525 -0.094525,-0.094525"
         id="path11" />
      <path
         style="fill:none;fill-opacity:1;stroke:#000000;stroke-width:0.226;stroke-dasharray:none;stroke-opacity:1"
         d="m 8.6018017,6.8373296 c 0.052514,0 0.1055558,0.00743 0.1575422,0 0.2276208,-0.032517 0.2182447,-0.2374704 0.4411178,-0.1260337 0.025207,0.012602 0.069319,-0.012602 0.094525,0 0.045881,0.022939 0.067461,0.017976 0.094525,0.031508 0.069203,0.034601 0.094756,0.1577729 0.1260338,0.1890506 0.00491,0.00491 0.1211233,0.00491 0.1260337,0 0.015753,-0.015753 0.015753,-0.047263 0.031508,-0.063017 0.014854,-0.014854 0.048164,0.014854 0.063017,0 0.00743,-0.00743 -0.00743,-0.024082 0,-0.031508 0.011218,-0.011218 0.093417,-0.0304 0.094525,-0.031508 0.015753,-0.015753 0.015753,-0.047263 0.031508,-0.063017 0.014854,-0.014854 0.042011,0 0.063017,0"
         id="path12" />
      <path
         style="fill:none;fill-opacity:1;stroke:#000000;stroke-width:0.226;stroke-dasharray:none;stroke-opacity:1"
         d="m 8.4442595,5.8920766 c 0.1720477,0.027988 0.136288,-0.048847 0.2520675,-0.1260338 0.00874,-0.00583 0.024082,0.00743 0.031508,0 0.021892,-0.021892 0.00346,-0.096253 0.063017,-0.1260337 0.080348,-0.040174 0.4198726,0.052754 0.4411178,0.031508 0.022281,-0.022281 -0.014092,-0.066343 0,-0.094525 0.0047,-0.0094 0.024082,0.00743 0.031508,0 0.015753,-0.015753 -0.015753,-0.078771 0,-0.094525 0.00743,-0.00743 0.024082,0.00743 0.031508,0 0.00579,-0.00579 0.063017,-0.2419966 0.063017,-0.2835759"
         id="path13" />
      <path
         style="fill:none;fill-opacity:1;stroke:#000000;stroke-width:0.226;stroke-dasharray:none;stroke-opacity:1"
         d="m 7.5620233,5.1043657 c 0.07352,-0.1260335 0.1522897,-0.2491478 0.2205591,-0.378101 0.026463,-0.049987 0.047479,-0.1031592 0.063017,-0.1575422 0.00547,-0.019135 -0.016695,-0.1408467 0,-0.1575421 0.00351,-0.00351 0.3487954,0.07767 0.3781012,0.063017 0.0014,-6.879e-4 -0.031508,-0.2830083 -0.031508,-0.4096096"
         id="path14" />
      <path
         style="fill:none;fill-opacity:1;stroke:#000000;stroke-width:0.226;stroke-dasharray:none;stroke-opacity:1"
         d="M 6.5852621,4.9468238 C 6.523841,4.7734325 6.5796212,4.8005626 6.648279,4.6632479 c 0.0047,-0.00939 -0.00743,-0.024082 0,-0.031509 0.012613,-0.012613 0.04004,-0.017066 0.063017,-0.063017 C 6.747061,4.4971909 6.719166,4.4190662 6.742804,4.3481629 6.752134,4.3201849 6.808928,4.193728 6.774312,4.1591123 6.7577075,4.1425076 6.7253868,4.1463917 6.7112959,4.1276045 6.6764608,4.0811579 6.7026599,4.0287609 6.648279,4.0015707 6.5702034,3.962533 6.4031703,3.9070454 6.3016862,3.9070454"
         id="path15" />
      <path
         style="fill:none;fill-opacity:1;stroke:#000000;stroke-width:0.226;stroke-dasharray:none;stroke-opacity:1"
         d="m 5.0413491,4.5057057 c 0.1001553,0.021677 0.1722686,0.054626 0.2520672,0.094525 0.018788,0.0094 0.048164,-0.014854 0.063017,0 0.00743,0.00743 -0.00743,0.024082 0,0.031508 0.014854,0.014854 0.048164,-0.014854 0.063017,0 0.016605,0.016605 0.014901,0.04641 0.031508,0.063017 0.010504,0.010504 0.084023,0.021005 0.094525,0.031508 0.015753,0.015753 0.015753,0.047263 0.031508,0.063017 0.00743,0.00743 0.024082,-0.00743 0.031508,0 0.015145,0.015145 -0.00621,0.3739631 0,0.3781009 0.1001649,0.066777 0.2092656,0.073124 0.3150844,0.1260338"
         id="path16" />
      <path
         style="fill:none;fill-opacity:1;stroke:#000000;stroke-width:0.226;stroke-dasharray:none;stroke-opacity:1"
         d="m 5.5769922,5.8920766 c -0.3115834,0.055845 -0.049013,-0.031509 -0.220559,-0.031509 -0.049365,0 -0.2441358,0.1339652 -0.283576,0.094525 -0.0635,-0.0635 0.0635,4.763e-4 0,-0.063017 -0.00743,-0.00743 -0.024082,0.00743 -0.031508,0 -0.015753,-0.015753 -0.015753,-0.047263 -0.031508,-0.063017 -0.071433,-0.071433 -0.069374,0.018793 -0.1260337,-0.094525 -0.0094,-0.018788 0.00939,-0.044229 0,-0.063017 -0.0094,-0.018788 -0.048164,0.014854 -0.063017,0 -0.021005,-0.021005 0.031509,-0.052514 -0.031508,-0.031508 -0.1259049,0.041968 -0.020235,0.071979 -0.063017,0.1575421 -0.0047,0.0094 -0.022114,-0.0047 -0.031508,0 -0.02657,0.013285 -0.036447,0.049732 -0.063017,0.063017 -0.035395,0.017698 -0.2331918,0.031509 -0.2835759,0.031509"
         id="path17" />
      <path
         style="fill:none;fill-opacity:1;stroke:#000000;stroke-width:0.226;stroke-dasharray:none;stroke-opacity:1"
         d="M 5.6400091,6.868838 C 5.3728177,6.866986 5.3242852,6.7267301 5.1673825,6.648279 c -0.018788,-0.0094 -0.044229,0.0094 -0.063017,0 -0.013285,-0.00664 -0.016655,-0.031508 -0.031509,-0.031508 -0.065565,0 -0.012679,0.044186 -0.031508,0.063017 -0.053585,0.053584 -0.107954,0.076445 -0.1575422,0.1260338 -0.020378,0.020378 -0.050169,0.1382696 -0.063017,0.1575421 -0.00583,0.00874 -0.026811,-0.0094 -0.031508,0 -0.021005,0.042011 0.021005,0.1155309 0,0.157542 -0.032987,0.065974 -0.03003,-0.00296 -0.063017,0.063017 -0.0047,0.0094 0.00743,0.024082 0,0.031509 -0.00743,0.00743 -0.024082,-0.00743 -0.031508,0 -0.00743,0.00743 0.00743,0.024082 0,0.031508 -0.010504,0.010504 -0.021005,-0.021005 -0.031508,-0.031508 -0.010504,-0.010501 -0.084023,-0.021005 -0.094525,-0.031509 -0.00743,-0.00743 0.00743,-0.024082 0,-0.031508 -0.00834,-0.00834 -0.081551,0 -0.094525,0"
         id="path18" />
      <path
         style="fill:none;fill-opacity:1;stroke:#000000;stroke-width:0.226;stroke-dasharray:none;stroke-opacity:1"
         d="m 5.923585,7.4359896 c -0.055486,0.048077 -0.1590154,-0.030772 -0.2205591,0 -0.01112,0.00556 -0.01112,0.135301 0,0.1575422 0.013285,0.02657 0.049732,0.036447 0.063017,0.063017 0.0094,0.018788 -0.0094,0.044229 0,0.063017 0.049666,0.099331 0.063017,0.1957824 0.063017,0.3150844 0,0.010504 0.00743,0.024082 0,0.031508 -0.014854,0.014854 -0.045539,-0.011652 -0.063017,0 C 5.6493998,8.1439202 5.482467,8.2941777 5.482467,8.412751"
         id="path19" />
      <path
         style="fill:none;fill-opacity:1;stroke:#000000;stroke-width:0.226;stroke-dasharray:none;stroke-opacity:1"
         d="m 6.5222453,8.8223607 c 0.016402,-0.1148056 0.025876,-0.2351714 0.063017,-0.3465927 0.018039,-0.054121 0.076485,-0.1349296 0.094525,-0.1890506 0.00996,-0.029892 -0.022281,-0.072246 0,-0.094525 0.00743,-0.00743 0.022114,0.0047 0.031508,0 0.036309,-0.018156 0.04941,-0.1217398 0.031508,-0.1575421 -0.02345,-0.046901 -0.098023,-0.084018 -0.1260337,-0.1260338 -0.021394,-0.032091 0.026625,-0.1309174 0,-0.1575421 -0.00743,-0.00743 -0.02277,0.00583 -0.031509,0 -0.073356,-0.048904 -0.063017,-0.060449 -0.063017,-0.1260338"
         id="path20" />
      <path
         style="fill:none;fill-opacity:1;stroke:#000000;stroke-width:0.226;stroke-dasharray:none;stroke-opacity:1"
         d="M 7.5620233,8.6018017 C 7.4961212,8.371144 7.4990065,8.4577043 7.4990065,8.3497342 c 0,-0.022447 0.015679,-0.2047298 0.031508,-0.220559 0.018029,-0.018029 0.07963,-0.01833 0.094525,-0.063017 0.00969,-0.029075 -0.015444,-0.2360038 -0.031508,-0.2520675 -0.010504,-0.010504 -0.084022,-0.021005 -0.094525,-0.031508 -0.00743,-0.00743 0.00743,-0.024082 0,-0.031508 -0.00743,-0.00743 -0.024082,0.00743 -0.031509,0 -0.00743,-0.00743 0.00656,-0.023307 0,-0.031509 -0.037115,-0.046394 -0.088919,-0.07964 -0.1260337,-0.1260337 -0.00656,-0.0082 0.00743,-0.024082 0,-0.031509 C 7.3188424,7.5394015 7.2154306,7.5164258 7.2154306,7.467498"
         id="path21" />
      <path
         style="fill:none;fill-opacity:1;stroke:#000000;stroke-width:0.226;stroke-dasharray:none;stroke-opacity:1"
         d="M 8.5387848,7.2784474 C 8.3182258,7.246939 8.0978631,7.2140254 7.8771077,7.1839221 c -0.047928,-0.00654 -0.061428,-0.139405 -0.094525,-0.1890503 -0.010083,-0.015124 -0.081292,0.013234 -0.094525,0 -0.00743,-0.00743 0.00743,-0.024082 0,-0.031509 -0.00457,-0.00457 -0.1177983,-0.031508 -0.1260338,-0.031508"
         id="path22" />
      <path
         style="fill:none;fill-opacity:1;stroke:#000000;stroke-width:0.226;stroke-dasharray:none;stroke-opacity:1"
         d="m 8.1606836,5.5769922 c -0.037141,-0.00768 -0.1554752,-0.00206 -0.1890506,0.031508 -0.00743,0.00743 0.00743,0.024082 0,0.031509 -0.00743,0.00743 -0.024082,-0.00743 -0.031508,0 -0.034047,0.034047 0.010454,0.3571205 -0.094525,0.4096096 -0.025207,0.012602 -0.069318,-0.012602 -0.094525,0 -0.013285,0.00664 -0.017418,0.026812 -0.031509,0.031509 -0.05937,0.019791 -0.423096,0.013486 -0.4411181,0.031508 -0.00743,0.00743 0.0094,0.026812 0,0.031508 -0.018788,0.00939 -0.044229,-0.0094 -0.063017,0 -0.00939,0.0047 0.00743,0.024082 0,0.031509 -0.00743,0.00743 -0.036205,-0.0094 -0.031509,0 0.049769,0.099537 0.063017,0.034948 0.063017,0.1260337"
         id="path23" />
      <path
         style="fill:none;fill-opacity:1;stroke:#000000;stroke-width:0.226;stroke-dasharray:none;stroke-opacity:1"
         d="m 6.3962115,5.198891 c 0.061135,0.076497 -0.020378,0.1705538 0,0.2520675 0.025011,0.1000458 0.1271744,0.1894308 0.2205591,0.220559 0.00996,0.00332 0.024082,-0.00743 0.031508,0 0.00743,0.00743 0,0.021005 0,0.031508 0.021005,0.021005 0.042011,0.042011 0.063017,0.063017 0.042011,0.042011 0.099464,0.072893 0.1260337,0.1260338 0.016404,0.032811 -0.2022374,0.1392205 -0.220559,0.1575421 -0.065418,0.065418 0.077852,0.1575422 0.1260337,0.1575422"
         id="path24" />
      <path
         style="fill:none;fill-opacity:1;stroke:#000000;stroke-width:0.226;stroke-dasharray:none;stroke-opacity:1"
         d="M 6.5852621,6.5222453 C 6.666259,6.6747902 6.3134284,6.4202841 6.3016862,6.4907368 6.2906769,6.5567887 6.338449,6.7244229 6.2386693,6.7743127 6.2120218,6.7876372 5.8922536,6.6272142 5.7345344,6.6797874 c -0.035925,0.011975 -0.060655,0.046081 -0.094525,0.063017 -0.039519,0.019759 -0.1598449,0.031508 -0.031509,0.031508"
         id="path25" />
      <path
         style="fill:none;fill-opacity:1;stroke:#000000;stroke-width:0.226;stroke-dasharray:none;stroke-opacity:1"
         d="M 6.7112959,6.7112959 C 6.5211046,6.6951933 6.7176564,6.8309696 6.6797874,6.868838 6.6701592,6.8784662 6.4996617,6.9770217 6.4907368,6.9948718 6.4840429,7.0082597 6.42772,7.4179371 6.42772,7.467498"
         id="path26" />
      <ellipse
         style="fill:url(#radialGradient32);stroke:none;stroke-width:0.35822;stroke-dasharray:none;stroke-opacity:1"
         id="path31"
         cx="7.514761"
         cy="5.7202725"
         rx="2.5049205"
         ry="2.0337863" />
    </g>
  </g>
</svg>
