<?xml version="1.0" encoding="UTF-8" standalone="no"?>
<!-- Created with Inkscape (http://www.inkscape.org/) -->

<svg
   width="15mm"
   height="15mm"
   viewBox="0 0 15 15"
   version="1.1"
   id="svg1"
   inkscape:export-filename="ghost-horse.png"
   inkscape:export-xdpi="96"
   inkscape:export-ydpi="96"
   inkscape:version="1.3.2 (091e20e, 2023-11-25)"
   sodipodi:docname="ghost-horse.svg"
   xml:space="preserve"
   xmlns:inkscape="http://www.inkscape.org/namespaces/inkscape"
   xmlns:sodipodi="http://sodipodi.sourceforge.net/DTD/sodipodi-0.dtd"
   xmlns="http://www.w3.org/2000/svg"
   xmlns:svg="http://www.w3.org/2000/svg"><sodipodi:namedview
     id="namedview1"
     pagecolor="#ffffff"
     bordercolor="#000000"
     borderopacity="0.25"
     inkscape:showpageshadow="2"
     inkscape:pageopacity="0.0"
     inkscape:pagecheckerboard="0"
     inkscape:deskcolor="#d1d1d1"
     inkscape:document-units="mm"
     showguides="false"
     inkscape:zoom="12.021549"
     inkscape:cx="31.94264"
     inkscape:cy="29.613489"
     inkscape:window-width="1376"
     inkscape:window-height="993"
     inkscape:window-x="0"
     inkscape:window-y="30"
     inkscape:window-maximized="0"
     inkscape:current-layer="layer1" /><defs
     id="defs1"><filter
       inkscape:collect="always"
       style="color-interpolation-filters:sRGB"
       id="filter5"
       x="-0.10482047"
       y="-0.11137844"
       width="1.2096409"
       height="1.2227569"><feGaussianBlur
         inkscape:collect="always"
         stdDeviation="0.39910309"
         id="feGaussianBlur5" /></filter><filter
       inkscape:collect="always"
       style="color-interpolation-filters:sRGB"
       id="filter5-7"
       x="-0.10482047"
       y="-0.11137844"
       width="1.2096409"
       height="1.2227569"><feGaussianBlur
         inkscape:collect="always"
         stdDeviation="0.39910309"
         id="feGaussianBlur5-0" /></filter></defs><g
     inkscape:label="Layer 1"
     inkscape:groupmode="layer"
     id="layer1"><path
       style="fill:#000000;fill-opacity:0.99799198;stroke-width:1;filter:url(#filter5)"
       d="m 3.8366962,13.389415 c 5.3e-4,-0.05854 0.1163561,-0.447928 0.1833575,-0.616412 0.1370902,-0.344737 0.4373905,-0.940642 0.7176968,-1.424174 0.02236,-0.03857 0.052737,-0.09197 0.067504,-0.118683 0.014767,-0.02671 0.056417,-0.101954 0.092554,-0.167233 0.036138,-0.06528 0.081729,-0.142956 0.1013155,-0.172626 0.019586,-0.02967 0.05611,-0.09521 0.081165,-0.145654 0.025055,-0.05044 0.047071,-0.09404 0.048925,-0.09688 0.00186,-0.0029 0.01642,0.0097 0.032368,0.02793 0.040971,0.04677 0.1896121,0.170152 0.2667654,0.221422 l 0.065142,0.04328 -0.07258,0.07566 c -0.039919,0.04162 -0.1032188,0.119679 -0.1406662,0.173468 -0.037447,0.05379 -0.097507,0.137126 -0.1334658,0.18519 -0.1824891,0.243915 -0.3680471,0.576496 -0.4671218,0.837235 -0.023676,0.0623 -0.055517,0.141245 -0.070761,0.175417 -0.035327,0.07919 -0.05229,0.222616 -0.038591,0.32628 0.016404,0.124135 0.013166,0.206425 -0.00989,0.251277 -0.082415,0.160329 -0.3772921,0.357739 -0.6240768,0.4178 -0.089554,0.02179 -0.099784,0.02248 -0.09964,0.0067 z m 3.5497683,-1.97585 c 0.040241,-0.05743 0.2435564,-0.254933 0.3146848,-0.305677 0.03467,-0.02473 0.095721,-0.06819 0.1356697,-0.09657 0.1424571,-0.101198 0.4333826,-0.232984 0.5973491,-0.270598 0.2833933,-0.06502 0.851365,-0.04555 1.1933896,0.0409 0.057897,0.01463 0.144109,0.03456 0.1915815,0.04429 0.082781,0.01696 0.2712308,0.06702 0.5124858,0.136123 0.06231,0.01785 0.195824,0.04639 0.296703,0.06342 0.100879,0.01703 0.224685,0.03817 0.275124,0.04698 0.132556,0.02313 0.403408,0.03205 0.561037,0.01846 0.317335,-0.02736 0.658041,-0.159843 0.91596,-0.35618 0.159975,-0.121778 0.310763,-0.303964 0.420407,-0.507946 0.05026,-0.0935 0.136702,-0.3119549 0.147755,-0.373398 0.0074,-0.041652 0.0254,-0.084911 0.02604,-0.06288 0.0011,0.037754 -0.0352,0.273391 -0.05472,0.355357 -0.0209,0.0878 -0.106858,0.304226 -0.147834,0.372227 -0.18806,0.31212 -0.389316,0.525446 -0.629615,0.66738 -0.183228,0.108226 -0.345904,0.168857 -0.586275,0.218514 -0.222921,0.04605 -0.613935,0.02316 -0.949449,-0.05559 -0.09086,-0.02132 -0.319051,-0.09713 -0.598801,-0.198936 -0.1794181,-0.06529 -0.4428431,-0.150307 -0.5394583,-0.174104 -0.3486883,-0.08588 -0.5539893,-0.109641 -0.8307672,-0.09611 -0.2051231,0.01008 -0.269031,0.02062 -0.4558539,0.07561 -0.2780207,0.08182 -0.5277056,0.220871 -0.7197658,0.400841 -0.062072,0.05817 -0.091725,0.08087 -0.075639,0.0579 z M 7.073724,11.115441 c 0.1043426,-0.189464 0.1184045,-0.210813 0.275652,-0.418496 0.054745,-0.07231 0.2897665,-0.311854 0.3682879,-0.375383 0.084952,-0.06873 0.1752658,-0.118264 0.3482329,-0.191011 0.1501681,-0.06316 0.2116521,-0.08139 0.3938052,-0.116813 0.1228073,-0.023878 0.1769214,-0.027896 0.4349056,-0.032238 0.2633124,-0.00444 0.3092071,-0.00252 0.4315674,0.017678 0.075306,0.012449 0.209748,0.032625 0.2987588,0.044818 0.08901,0.0122 0.2103892,0.03362 0.2697297,0.04761 0.1418695,0.03344 0.2090255,0.04501 0.3776215,0.0651 0.470813,0.0561 0.507139,0.05791 0.651573,0.0325 0.141667,-0.02493 0.242592,-0.05595 0.338718,-0.1041 C 11.480319,9.9760249 11.62349,9.849591 11.723399,9.6781458 11.788569,9.56631 11.816729,9.4809394 11.832008,9.3488701 11.853668,9.1616604 11.823608,8.9914649 11.739338,8.823614 11.65547,8.6566194 11.557204,8.5369437 11.421333,8.4363274 11.285104,8.3354413 10.989449,8.2038612 10.838717,8.1770306 c -0.126921,-0.022593 -0.125935,-0.02228 -0.105851,-0.033516 0.03372,-0.018871 0.143689,-0.022464 0.350991,-0.011465 0.192004,0.010182 0.216793,0.013926 0.334464,0.05051 0.236976,0.073675 0.465218,0.2012076 0.572145,0.3196936 0.03116,0.034516 0.05664,0.056284 0.05664,0.048356 0,-0.028508 -0.0838,-0.143247 -0.143089,-0.1959423 C 11.787048,8.2507213 11.5505,8.1343106 11.320949,8.0677291 c -0.12399,-0.035964 -0.381501,-0.040618 -0.574788,-0.010386 -0.08261,0.012919 -0.192492,0.035678 -0.244182,0.050576 -0.24211,0.069778 -0.6500098,0.11183 -0.8840998,0.091143 C 9.3732879,8.1774429 9.0203288,8.0977383 8.896664,8.0361949 8.8640266,8.0199525 8.8060396,7.9935104 8.767804,7.9774349 8.6387167,7.9231619 8.46127,7.7856499 8.4145714,7.7036978 c -0.015721,-0.02759 -0.037208,-0.059888 -0.047747,-0.071774 -0.02517,-0.028386 -0.07842,-0.1451541 -0.070023,-0.1535506 0.015295,-0.015295 0.1303376,0.024641 0.2761869,0.095874 0.086043,0.042024 0.185574,0.090437 0.2211783,0.1075819 0.2745896,0.1322329 0.794539,0.2094609 1.1544428,0.1714691 0.1700205,-0.017948 0.6374385,-0.1169269 0.8415565,-0.1782058 0.140609,-0.042212 0.434441,-0.065035 0.625401,-0.048576 0.172575,0.014875 0.218911,0.024073 0.360579,0.07157 0.467655,0.1567956 0.849112,0.5523479 0.961091,0.9966018 0.0442,0.1753214 0.05714,0.3058449 0.05132,0.5173327 -0.0049,0.1803356 -0.0089,0.2124304 -0.03912,0.3242242 -0.07576,0.2796472 -0.252384,0.5665025 -0.489786,0.7954925 -0.220346,0.212538 -0.547776,0.370896 -0.863956,0.417845 -0.294604,0.04374 -0.756912,-5.21e-4 -1.108832,-0.106175 -0.6671108,-0.200265 -0.8130909,-0.235997 -1.1546693,-0.282629 -0.4233385,-0.05779 -0.8438453,-0.02617 -1.1785896,0.08865 -0.1852571,0.06354 -0.4254894,0.197157 -0.5531863,0.307678 -0.05941,0.05141 -0.153596,0.161062 -0.2602496,0.302961 -0.093713,0.124683 -0.1138603,0.141472 -0.066441,0.05537 z M 6.0806869,10.991345 C 5.74194,10.922132 5.6170543,10.858709 5.3578117,10.624238 5.09888,10.390049 4.8368527,10.036828 4.6503804,9.670599 4.4114632,9.2013696 4.3730929,8.9574776 4.506051,8.7532 4.6077478,8.5969513 4.8141451,8.4913123 5.0274349,8.4863435 c 0.1260644,-0.00288 0.1388052,0.00252 0.1581097,0.067941 l 0.016126,0.054641 0.1293189,0.060469 c 0.1878665,0.08785 0.5183147,0.253658 0.6649278,0.3336341 0.06986,0.038102 0.1293624,0.069284 0.1322284,0.069284 0.00287,0 0.045552,0.018889 0.09486,0.041976 0.2417742,0.113215 0.4167047,0.1699245 0.6034323,0.1956269 0.119449,0.016443 0.3041544,7.94e-4 0.4680321,-0.039649 0.1581229,-0.039026 0.5047172,-0.238103 0.5964693,-0.3426026 0.040133,-0.045706 0.040897,-0.044147 0.016397,0.033581 -0.011142,0.035344 -0.03859,0.082153 -0.070161,0.1196314 -0.059367,0.070483 -0.1273218,0.1986492 -0.1273218,0.2401322 0,0.02503 0.00622,0.029587 0.056643,0.041496 0.1337219,0.031578 0.3680222,0.024826 0.5421564,-0.015639 0.035604,-0.00828 0.1424173,-0.044782 0.2373621,-0.081133 0.094945,-0.036351 0.2211782,-0.082812 0.2805188,-0.1032368 0.118456,-0.040777 0.4261728,-0.1327326 0.4261728,-0.1273561 0,0.0072 -0.2285546,0.1665544 -0.3722268,0.2595191 C 8.5645596,9.4990795 8.1867265,9.6598364 7.899293,9.7121228 7.7855011,9.7328229 7.7326818,9.7357133 7.477886,9.7351976 7.2102974,9.7346567 7.1734946,9.7321993 7.0258891,9.7056225 6.9375095,9.6896717 6.8404074,9.6694273 6.8101055,9.6606244 6.7798037,9.6518694 6.7098106,9.6319248 6.6545652,9.6164177 6.4746576,9.5659027 6.2685444,9.4741782 6.0449568,9.3451431 5.8439465,9.2291337 5.6126892,9.1130547 5.5048882,9.0740483 5.4037898,9.0374693 5.2714057,9.0165653 5.1959739,9.0252723 5.0914179,9.0373493 5.0601325,9.0652213 5.0283122,9.1746837 4.9855862,9.3216546 5.0416882,9.614975 5.1615868,9.871497 c 0.1089023,0.232994 0.3629771,0.525831 0.4858365,0.559955 0.021703,0.006 0.096783,0.01103 0.1668483,0.01103 0.070064,3.3e-5 0.1491039,0.0055 0.1756432,0.01221 0.044313,0.01115 0.051898,0.01839 0.092877,0.08856 0.061128,0.104664 0.1215954,0.249382 0.1482616,0.354833 0.012244,0.04842 0.02226,0.09196 0.02226,0.09676 0,0.01139 -0.110615,0.0091 -0.1726265,-0.0035 z M 6.0693059,10.32854 c -0.035171,-0.04237 -0.077185,-0.05247 -0.2431477,-0.05843 -0.1547966,-0.0055 -0.1650301,-0.0073 -0.2076918,-0.03554 -0.055931,-0.03701 -0.056624,-0.0559 -0.00543,-0.148071 0.021422,-0.03857 0.061804,-0.1113915 0.089737,-0.161837 0.027933,-0.050443 0.090405,-0.1632467 0.1388267,-0.2506825 0.048421,-0.087442 0.088113,-0.162689 0.088205,-0.167232 9.1e-5,-0.00456 0.0042,-0.01462 0.00913,-0.022391 0.0068,-0.010674 0.029647,-2.914e-4 0.094633,0.043211 0.11928,0.079838 0.3356841,0.1843714 0.5326346,0.2572848 0.097773,0.036195 0.358275,0.1074463 0.3928394,0.1074463 0.034938,0 0.013092,0.010074 -0.046263,0.021324 -0.054896,0.010434 -0.1382382,0.043967 -0.303419,0.1221474 -0.044505,0.02107 -0.11005,0.05104 -0.145654,0.06662 -0.035604,0.01558 -0.081728,0.03945 -0.1024968,0.05303 -0.02077,0.01359 -0.066311,0.04127 -0.1012039,0.0615 -0.034893,0.02023 -0.086585,0.05742 -0.1148713,0.08264 -0.028287,0.02522 -0.053764,0.04585 -0.056616,0.04585 -0.00285,0 -0.011501,-0.0076 -0.019207,-0.0169 z M 10.612142,9.939426 c -0.09621,-0.012401 -0.230556,-0.053525 -0.32907,-0.1007422 -0.09525,-0.045646 -0.180009,-0.0976 -0.134865,-0.082657 0.0089,0.003 0.06115,0.020244 0.116112,0.038438 0.08736,0.028915 0.114982,0.033089 0.219548,0.033089 0.07931,0 0.131074,-0.00516 0.153617,-0.015135 0.0187,-0.00828 0.0607,-0.027008 0.09334,-0.041508 0.103704,-0.04609 0.176168,-0.115026 0.226901,-0.215857 0.04465,-0.088749 0.04473,-0.089145 0.04042,-0.1914281 -0.0037,-0.089109 -0.0089,-0.1112482 -0.03864,-0.1694626 -0.04347,-0.084863 -0.08724,-0.1346288 -0.163136,-0.185524 -0.07689,-0.051558 -0.159791,-0.083892 -0.251403,-0.098056 -0.09335,-0.01444 -0.215853,0.00192 -0.289955,0.038798 -0.02672,0.013288 -0.02783,0.012701 -0.02305,-0.012293 0.0058,-0.030534 0.05351,-0.108022 0.118135,-0.1920446 0.04195,-0.054545 0.05228,-0.061345 0.134625,-0.088773 0.239177,-0.079658 0.540195,-0.003 0.780443,0.1987368 0.07094,0.05957 0.137179,0.1499631 0.179013,0.2442998 0.01775,0.040021 0.02519,0.081817 0.02881,0.1619059 0.0089,0.1971187 -0.03927,0.307591 -0.20731,0.4751708 -0.104916,0.104628 -0.179152,0.1492903 -0.302881,0.1822306 -0.06476,0.017246 -0.279512,0.029995 -0.350649,0.020832 z M 6.3018628,8.494867 C 6.2484563,8.4754981 6.1574226,8.4485136 6.0995656,8.4349014 5.997527,8.4108914 5.9943716,8.4092364 5.9943716,8.3800204 c 0,-0.038906 0.07654,-0.3357396 0.1136048,-0.4405684 0.1003285,-0.2837551 0.1714935,-0.5217216 0.219407,-0.7336644 0.030184,-0.1335162 0.064706,-0.2755289 0.076718,-0.3155837 0.012011,-0.040055 0.031739,-0.1055994 0.04384,-0.1456539 0.027425,-0.090777 0.039185,-0.2685811 0.022813,-0.3449173 -0.016752,-0.07812 -0.1031732,-0.277398 -0.1498727,-0.3455934 -0.021335,-0.031156 -0.035988,-0.059449 -0.032561,-0.062875 0.00343,-0.00343 0.068791,0.056051 0.1452565,0.1321704 0.1774923,0.1766903 0.2635232,0.302518 0.3196184,0.4674695 0.043904,0.1291052 0.054281,0.207759 0.054085,0.4099889 -1.635e-4,0.1690121 -0.00375,0.2063468 -0.034277,0.3560432 -0.018752,0.091978 -0.046347,0.2128546 -0.061323,0.2686151 -0.014976,0.055761 -0.025598,0.1030125 -0.023606,0.1050058 0.00199,0.00199 0.035103,-0.013094 0.073579,-0.033524 0.075473,-0.040076 0.1639376,-0.066736 0.2513143,-0.075734 l 0.054931,-0.00566 -0.055222,0.020557 C 6.9049865,7.6761837 6.7007496,7.8048517 6.6317198,7.8760959 6.5285263,7.9825996 6.4475094,8.2084858 6.4300232,8.4384514 c -0.00447,0.05891 -0.011669,0.093882 -0.019117,0.093019 -0.00656,-7.627e-4 -0.055635,-0.017234 -0.1090415,-0.036603 z M 4.6912939,7.8216614 C 4.6111222,7.791994 4.5674825,7.7627836 4.5133,7.7025194 4.4241573,7.6033711 4.399285,7.4491467 4.4403035,7.2498937 4.4716087,7.0978249 4.600562,6.7222787 4.6721774,6.5746156 4.6865667,6.5449458 4.7123807,6.4915392 4.7295404,6.4559341 4.7641214,6.384184 4.8446228,6.2392219 4.8823247,6.1808099 4.9233952,6.1171792 5.0150908,5.9709171 5.0718982,5.8784253 5.1391124,5.7689905 5.2250005,5.6485535 5.3092602,5.5455865 5.3448642,5.5020779 5.3850255,5.4508205 5.3985082,5.4316819 L 5.4230209,5.396885 5.4000649,5.2952421 C 5.3671869,5.1496706 5.3050734,4.9388139 5.2866951,4.9103831 c -0.017644,-0.027294 -0.013541,-0.029713 0.020579,-0.012135 0.096507,0.049722 0.1854483,0.1502576 0.254565,0.2877521 0.039628,0.078832 0.057448,0.090025 0.086951,0.054615 0.047477,-0.05698 0.039389,-0.1732691 -0.023702,-0.3407428 l -0.03749,-0.09952 0.053986,0.02939 c 0.1200184,0.065339 0.208838,0.1794378 0.2569731,0.3301137 0.022391,0.070091 0.029346,0.2612755 0.011789,0.3242234 -0.010458,0.037523 -0.020821,0.043445 -0.1022343,0.058431 -0.082376,0.015165 -0.2203518,0.07763 -0.3230055,0.146234 C 5.3736532,5.7632294 5.1834469,5.951516 5.0981177,6.0718281 4.8955256,6.3574782 4.6762029,6.8397104 4.5750264,7.2219665 c -0.044258,0.167212 -0.047,0.2385229 -0.011825,0.3074918 0.059804,0.1172459 0.1768723,0.128359 0.3214768,0.030518 0.054708,-0.037016 0.083626,-0.077863 0.1466965,-0.2072102 0.072134,-0.1479343 0.1483509,-0.2386026 0.2755649,-0.3278142 0.070564,-0.049485 0.1140402,-0.061508 0.2828347,-0.078218 0.1501325,-0.014863 0.186191,-0.024497 0.2859134,-0.076393 0.1882219,-0.097949 0.3036579,-0.2503348 0.3600891,-0.4753484 0.00964,-0.038449 0.017586,-0.089018 0.017651,-0.1123755 6.53e-5,-0.023357 0.00321,-0.061207 0.007,-0.08411 l 0.00688,-0.041643 0.024595,0.058325 C 6.3492399,6.3511358 6.3664645,6.5772786 6.327915,6.6879008 6.3101712,6.738802 6.204503,6.9201916 6.1610825,6.9742754 6.0828757,7.0716883 5.9038526,7.1560945 5.7380444,7.1737296 5.4504919,7.2043133 5.2680738,7.3269204 5.1536543,7.5665105 c -0.067317,0.1409588 -0.09937,0.1769939 -0.2029634,0.2281807 -0.1025832,0.050688 -0.174966,0.058213 -0.259397,0.02697 z M 7.0820581,7.6084019 c 0.00778,-0.00312 0.017094,-0.00273 0.02068,8.518e-4 0.00359,0.00359 -0.00278,0.00614 -0.01416,0.00566 -0.012569,-5.177e-4 -0.015126,-0.00307 -0.00652,-0.00652 z M 9.4954637,7.5620687 C 9.1914747,7.5260772 8.8459461,7.4190484 8.565952,7.2741486 8.2634976,7.1176253 8.1618596,7.0168061 7.8661769,6.5800104 7.528438,6.0810876 7.1895493,5.7748984 6.7739086,5.5931355 6.5975345,5.5160058 6.2994412,5.4582742 6.1497414,5.4722534 l -0.067184,0.00627 -5.253e-4,-0.088518 C 6.0814583,5.2934276 6.0616365,5.2034901 6.0232422,5.1232649 l -0.024677,-0.051563 0.027575,-0.016288 c 0.057082,-0.033719 0.2782203,-0.1248592 0.340461,-0.1403191 0.19522,-0.04849 0.257232,-0.055788 0.4747241,-0.055873 0.3229351,-1.263e-4 0.4962336,0.029949 0.8307671,0.1441789 0.1723078,0.058836 0.2705499,0.096493 0.4909079,0.1881711 0.2471786,0.1028362 0.4095884,0.1547286 0.5612905,0.179341 0.09127,0.014808 0.3453488,0.014692 0.4258749,-1.94e-4 0.1630754,-0.030146 0.3730521,-0.1397118 0.4764226,-0.248597 0.054608,-0.057521 0.1332113,-0.1782954 0.1332113,-0.2046799 0,-0.010602 0.00486,-0.02227 0.010794,-0.025937 0.021778,-0.01346 0.00128,0.1758084 -0.030418,0.280826 C 9.6896846,5.3396067 9.4908325,5.5618274 9.3063884,5.657089 9.2534084,5.684452 9.174747,5.715822 9.1315848,5.726799 9.013244,5.756897 8.8295703,5.774519 8.7132487,5.766934 8.4749749,5.7513958 8.0771924,5.6611632 7.9225075,5.5875614 c -0.072425,-0.034461 -0.075633,-0.021363 -0.00688,0.028088 0.1728813,0.1243459 0.4760099,0.2814701 0.7059129,0.3659041 0.053407,0.019614 0.1162025,0.043778 0.1395457,0.053698 0.07705,0.032742 0.3761573,0.1132619 0.5024107,0.1352481 0.3928032,0.068405 0.6439407,0.048571 0.9112862,-0.07197 0.228173,-0.1028781 0.41288,-0.2782015 0.493015,-0.4679674 0.04146,-0.098182 0.06238,-0.1815516 0.06362,-0.2535459 l 9.28e-4,-0.053946 0.01739,0.043157 c 0.02721,0.067538 0.02631,0.4399741 -0.0013,0.52867 -0.04976,0.1601324 -0.12725,0.2919092 -0.248583,0.4228086 C 10.288912,6.5452531 9.9525615,6.6780889 9.5871717,6.6781448 9.3765884,6.6781771 9.033812,6.6191256 8.8561944,6.5522165 8.8161452,6.5371298 8.7372537,6.5085964 8.6808803,6.4888092 8.5654096,6.4482786 8.3809379,6.3641239 8.3334673,6.3303217 c -0.048215,-0.034332 -0.049931,-0.014 -0.0023,0.027301 0.2566146,0.2225296 0.3887559,0.3143323 0.5870795,0.4078621 0.175503,0.082767 0.422782,0.1530656 0.7552429,0.2147056 0.1718762,0.031867 0.2076808,0.034998 0.3992003,0.034919 0.184277,-7.65e-5 0.227797,-0.00361 0.350648,-0.02848 0.283563,-0.057403 0.507178,-0.1615208 0.698625,-0.3252897 0.132545,-0.1133842 0.255193,-0.2966185 0.299974,-0.4481619 0.01316,-0.044505 0.02689,-0.088201 0.03053,-0.097102 0.0128,-0.031267 0.01354,0.3075897 8.35e-4,0.3830161 C 11.417742,6.7102295 11.29698,6.9289637 11.11384,7.113956 10.866204,7.3640976 10.567913,7.5029352 10.139323,7.5675402 9.9986275,7.5887482 9.6993227,7.5862052 9.4954637,7.5620702 Z M 5.2206331,6.3548835 c 0.013404,-0.1598778 0.089793,-0.2495971 0.2125136,-0.2495971 0.060802,0 0.1431641,0.028142 0.1215173,0.04152 -0.00726,0.00449 -0.018119,0.034172 -0.024152,0.06598 -0.012135,0.063985 -0.052918,0.1258746 -0.092986,0.1411084 -0.014331,0.00544 -0.055863,0.014707 -0.092294,0.020574 -0.039929,0.00643 -0.075501,0.019371 -0.089562,0.03258 -0.012829,0.012052 -0.027357,0.021913 -0.032287,0.021913 -0.00493,0 -0.00616,-0.033335 -0.00275,-0.074078 z"
       id="path1-7"
       sodipodi:nodetypes="cssssssccccssssssccccscccssssssscccccsssssccssssssccccsccccssccsscscscssscsssssscsssscccssssccssscssscccccscscsscscsscssssccccccssccccsscccccsscsccssccssssscccccsssccccscccscsscscccscssssscssssscsssccssccssssssssssscsscssscsscsssscsssssssccscssssscscccssssscsscsssssssssccsssscsssssscscssssscssssscccssscsssccsscc" /><path
       style="fill:#000000;fill-opacity:0.997992;stroke-width:1;filter:url(#filter5-7)"
       d="m 3.8462559,13.579316 c 5.3e-4,-0.05854 0.1163561,-0.447928 0.1833575,-0.616412 0.1370902,-0.344737 0.4373905,-0.940642 0.7176968,-1.424174 0.02236,-0.03857 0.052737,-0.09197 0.067504,-0.118683 0.014767,-0.02671 0.056417,-0.101954 0.092554,-0.167233 0.036138,-0.06528 0.081729,-0.142956 0.1013155,-0.172626 0.019586,-0.02967 0.05611,-0.09521 0.081165,-0.145654 0.025055,-0.05044 0.047071,-0.09404 0.048925,-0.09688 0.00186,-0.0029 0.01642,0.0097 0.032368,0.02793 0.040971,0.04677 0.1896121,0.170152 0.2667654,0.221422 l 0.065142,0.04328 -0.07258,0.07566 c -0.039919,0.04162 -0.1032188,0.119679 -0.1406662,0.173468 -0.037447,0.05379 -0.097507,0.137126 -0.1334658,0.18519 C 4.973848,11.808519 4.78829,12.1411 4.6892153,12.401839 c -0.023676,0.0623 -0.055517,0.141245 -0.070761,0.175417 -0.035327,0.07919 -0.05229,0.222616 -0.038591,0.32628 0.016404,0.124135 0.013166,0.206425 -0.00989,0.251277 -0.082415,0.160329 -0.3772921,0.357739 -0.6240768,0.4178 -0.089554,0.02179 -0.099784,0.02248 -0.09964,0.0067 z m 3.5497683,-1.97585 c 0.040241,-0.05743 0.2435564,-0.254933 0.3146848,-0.305677 0.03467,-0.02473 0.095721,-0.06819 0.1356697,-0.09657 0.1424571,-0.101198 0.4333826,-0.232984 0.5973491,-0.270598 0.2833933,-0.06502 0.851365,-0.04555 1.1933896,0.0409 0.057897,0.01463 0.144109,0.03456 0.1915815,0.04429 0.082781,0.01696 0.2712311,0.06702 0.5124861,0.136123 0.06231,0.01785 0.195824,0.04639 0.296703,0.06342 0.100879,0.01703 0.224685,0.03817 0.275124,0.04698 0.132556,0.02313 0.403408,0.03205 0.561037,0.01846 0.317335,-0.02736 0.658041,-0.159843 0.91596,-0.35618 0.159975,-0.121778 0.310763,-0.303964 0.420407,-0.507946 0.05026,-0.0935 0.136702,-0.311955 0.147755,-0.373398 0.0074,-0.04165 0.0254,-0.084911 0.02604,-0.06288 0.0011,0.037754 -0.0352,0.2733912 -0.05472,0.3553572 -0.0209,0.0878 -0.106858,0.304226 -0.147834,0.372227 -0.18806,0.31212 -0.389316,0.525446 -0.629615,0.66738 -0.183228,0.108226 -0.345904,0.168857 -0.586275,0.218514 -0.222921,0.04605 -0.613935,0.02316 -0.949449,-0.05559 -0.09086,-0.02132 -0.319051,-0.09713 -0.598801,-0.198936 -0.1794184,-0.06529 -0.4428434,-0.150307 -0.5394586,-0.174104 -0.3486883,-0.08588 -0.5539893,-0.109641 -0.8307672,-0.09611 -0.2051231,0.01008 -0.269031,0.02062 -0.4558539,0.07561 -0.2780207,0.08182 -0.5277056,0.220871 -0.7197658,0.400841 -0.062072,0.05817 -0.091725,0.08087 -0.075639,0.0579 z M 7.0832837,11.305342 c 0.1043426,-0.189464 0.1184045,-0.210813 0.275652,-0.418496 0.054745,-0.07231 0.2897665,-0.311854 0.3682879,-0.375383 0.084952,-0.06873 0.1752658,-0.118264 0.3482329,-0.191011 0.1501681,-0.06316 0.2116521,-0.08139 0.3938052,-0.116813 0.1228073,-0.02388 0.1769214,-0.0279 0.4349056,-0.03224 0.2633124,-0.0044 0.3092071,-0.0025 0.4315674,0.01768 0.075306,0.01245 0.209748,0.03263 0.2987588,0.04482 0.08901,0.0122 0.2103892,0.03362 0.2697297,0.04761 0.1418698,0.03344 0.2090258,0.04501 0.3776218,0.0651 0.470813,0.0561 0.507139,0.05791 0.651573,0.0325 0.141667,-0.02493 0.242592,-0.05595 0.338718,-0.1041 0.217743,-0.109081 0.360914,-0.235515 0.460823,-0.4069604 0.06517,-0.1118358 0.09333,-0.1972064 0.108609,-0.3292757 0.02166,-0.1872097 -0.0084,-0.3574052 -0.09267,-0.5252561 C 11.66503,8.8465202 11.566764,8.7268445 11.430893,8.6262282 11.294664,8.5253421 10.999009,8.393762 10.848277,8.3669314 c -0.126921,-0.022593 -0.125935,-0.02228 -0.105851,-0.033516 0.03372,-0.018871 0.143689,-0.022464 0.350991,-0.011465 0.192004,0.010182 0.216793,0.013926 0.334464,0.05051 0.236976,0.073675 0.465218,0.2012076 0.572145,0.3196936 0.03116,0.034516 0.05664,0.056284 0.05664,0.048356 0,-0.028508 -0.0838,-0.143247 -0.143089,-0.1959423 -0.116969,-0.1039456 -0.353517,-0.2203563 -0.583068,-0.2869378 -0.12399,-0.035964 -0.381501,-0.040618 -0.574788,-0.010386 -0.08261,0.012919 -0.192492,0.035678 -0.244182,0.050576 -0.24211,0.069778 -0.6500101,0.11183 -0.8841001,0.091143 C 9.3828476,8.3673437 9.0298885,8.2876391 8.9062237,8.2260957 8.8735863,8.2098533 8.8155993,8.1834112 8.7773637,8.1673357 8.6482764,8.1130627 8.4708297,7.9755507 8.4241311,7.8935986 8.4084101,7.8660086 8.3869231,7.8337106 8.3763841,7.8218246 8.3512141,7.7934386 8.2979641,7.6766705 8.3063611,7.668274 8.3216561,7.652979 8.4366987,7.692915 8.582548,7.764148 8.668591,7.806172 8.768122,7.854585 8.8037263,7.8717299 9.0783159,8.0039628 9.5982653,8.0811908 9.9581691,8.043199 10.12819,8.025251 10.595608,7.9262721 10.799726,7.8649932 c 0.140609,-0.042212 0.434441,-0.065035 0.625401,-0.048576 0.172575,0.014875 0.218911,0.024073 0.360579,0.07157 0.467655,0.1567956 0.849112,0.5523479 0.961091,0.9966018 0.0442,0.1753214 0.05714,0.3058449 0.05132,0.5173327 -0.0049,0.1803356 -0.0089,0.2124304 -0.03912,0.3242242 -0.07576,0.2796471 -0.252384,0.5665031 -0.489786,0.7954931 -0.220346,0.212538 -0.547776,0.370896 -0.863956,0.417845 -0.294604,0.04374 -0.756912,-5.21e-4 -1.108832,-0.106175 C 9.6293118,10.633044 9.4833317,10.597312 9.1417533,10.55068 8.7184148,10.49289 8.297908,10.52451 7.9631637,10.63933 c -0.1852571,0.06354 -0.4254894,0.197157 -0.5531863,0.307678 -0.05941,0.05141 -0.153596,0.161062 -0.2602496,0.302961 -0.093713,0.124683 -0.1138603,0.141472 -0.066441,0.05537 z M 6.0902466,11.181246 C 5.7514997,11.112033 5.626614,11.04861 5.3673714,10.814139 5.1084397,10.57995 4.8464124,10.226729 4.6599401,9.8604998 4.4210229,9.3912704 4.3826526,9.1473784 4.5156107,8.9431008 4.6173075,8.7868521 4.8237048,8.6812131 5.0369946,8.6762443 c 0.1260644,-0.00288 0.1388052,0.00252 0.1581097,0.067941 l 0.016126,0.054641 0.1293189,0.060469 c 0.1878665,0.08785 0.5183147,0.253658 0.6649278,0.3336341 0.06986,0.038102 0.1293624,0.069284 0.1322284,0.069284 0.00287,0 0.045552,0.018889 0.09486,0.041976 0.2417742,0.113215 0.4167047,0.1699245 0.6034323,0.1956269 0.119449,0.016443 0.3041544,7.94e-4 0.4680321,-0.039649 0.1581229,-0.039026 0.5047172,-0.238103 0.5964693,-0.3426026 0.040133,-0.045706 0.040897,-0.044147 0.016397,0.033581 -0.011142,0.035344 -0.03859,0.082153 -0.070161,0.1196314 -0.059367,0.070483 -0.1273218,0.1986492 -0.1273218,0.2401322 0,0.02503 0.00622,0.029587 0.056643,0.041496 0.1337219,0.031578 0.3680222,0.024826 0.5421564,-0.015639 0.035604,-0.00828 0.1424173,-0.044782 0.2373621,-0.081133 0.094945,-0.036351 0.2211782,-0.082812 0.2805188,-0.1032368 0.118456,-0.040777 0.4261728,-0.1327326 0.4261728,-0.1273561 0,0.0072 -0.2285546,0.1665544 -0.3722268,0.2595191 C 8.5741193,9.6889803 8.1962862,9.8497372 7.9088527,9.9020236 7.7950608,9.9227237 7.7422415,9.9256141 7.4874457,9.9250984 7.2198571,9.9245575 7.1830543,9.9221001 7.0354488,9.8955233 6.9470692,9.8795725 6.8499671,9.8593281 6.8196652,9.8505252 6.7893634,9.8417702 6.7193703,9.8218256 6.6641249,9.8063185 6.4842173,9.7558035 6.2781041,9.664079 6.0545165,9.5350439 5.8535062,9.4190345 5.6222489,9.3029555 5.5144479,9.2639491 5.4133495,9.2273701 5.2809654,9.2064661 5.2055336,9.2151731 c -0.104556,0.012077 -0.1358414,0.039949 -0.1676617,0.1494114 -0.042726,0.1469709 0.013376,0.4402913 0.1332746,0.6968135 0.1089023,0.232994 0.3629771,0.525831 0.4858365,0.559955 0.021703,0.006 0.096783,0.01103 0.1668483,0.01103 0.070064,3.3e-5 0.1491039,0.0055 0.1756432,0.01221 0.044313,0.01115 0.051898,0.01839 0.092877,0.08856 0.061128,0.104664 0.1215954,0.249382 0.1482616,0.354833 0.012244,0.04842 0.02226,0.09196 0.02226,0.09676 0,0.01139 -0.110615,0.0091 -0.1726265,-0.0035 z m -0.011381,-0.662805 c -0.035171,-0.04237 -0.077185,-0.05247 -0.2431477,-0.05843 -0.1547966,-0.0055 -0.1650301,-0.0073 -0.2076918,-0.03554 -0.055931,-0.03701 -0.056624,-0.0559 -0.00543,-0.148071 0.021422,-0.03857 0.061804,-0.111392 0.089737,-0.161837 0.027933,-0.05044 0.090405,-0.1632469 0.1388267,-0.2506827 0.048421,-0.087442 0.088113,-0.162689 0.088205,-0.167232 9.1e-5,-0.00456 0.0042,-0.01462 0.00913,-0.022391 0.0068,-0.010674 0.029647,-2.914e-4 0.094633,0.043211 0.11928,0.079838 0.3356841,0.1843714 0.5326346,0.2572848 0.097773,0.036195 0.358275,0.1074459 0.3928394,0.1074459 0.034938,0 0.013092,0.01007 -0.046263,0.02132 -0.054896,0.01043 -0.1382382,0.04397 -0.303419,0.122148 -0.044505,0.02107 -0.11005,0.05104 -0.145654,0.06662 -0.035604,0.01558 -0.081728,0.03945 -0.1024968,0.05303 -0.02077,0.01359 -0.066311,0.04127 -0.1012039,0.0615 -0.034893,0.02023 -0.086585,0.05742 -0.1148713,0.08264 -0.028287,0.02522 -0.053764,0.04585 -0.056616,0.04585 -0.00285,0 -0.011501,-0.0076 -0.019207,-0.0169 z m 4.5428364,-0.389114 c -0.09621,-0.0124 -0.230556,-0.05353 -0.32907,-0.100742 -0.09525,-0.045646 -0.180009,-0.0976 -0.134865,-0.082657 0.0089,0.003 0.06115,0.020244 0.116112,0.038438 0.08736,0.028915 0.114982,0.033089 0.219548,0.033089 0.07931,0 0.131074,-0.0052 0.153617,-0.01514 0.0187,-0.00828 0.0607,-0.027008 0.09334,-0.041508 0.103704,-0.04609 0.176168,-0.115026 0.226901,-0.215857 0.04465,-0.088749 0.04473,-0.089145 0.04042,-0.1914281 -0.0037,-0.089109 -0.0089,-0.1112482 -0.03864,-0.1694626 -0.04347,-0.084863 -0.08724,-0.1346288 -0.163136,-0.185524 -0.07689,-0.051558 -0.159791,-0.083892 -0.251403,-0.098056 -0.09335,-0.01444 -0.215853,0.00192 -0.289955,0.038798 -0.02672,0.013288 -0.02783,0.012701 -0.02305,-0.012293 0.0058,-0.030534 0.05351,-0.108022 0.118135,-0.1920446 0.04195,-0.054545 0.05228,-0.061345 0.134625,-0.088773 0.239177,-0.079658 0.540195,-0.003 0.780443,0.1987368 0.07094,0.05957 0.137179,0.1499631 0.179013,0.2442998 0.01775,0.040021 0.02519,0.081817 0.02881,0.1619059 0.0089,0.1971187 -0.03927,0.307591 -0.20731,0.4751708 -0.104916,0.1046284 -0.179152,0.1492904 -0.302881,0.1822304 -0.06476,0.01725 -0.279512,0.02999 -0.350649,0.02083 z M 6.3114225,8.6847678 c -0.053407,-0.019369 -0.1444402,-0.046353 -0.2022972,-0.059966 -0.1020386,-0.02401 -0.105194,-0.025665 -0.105194,-0.054881 0,-0.038906 0.07654,-0.3357396 0.1136048,-0.4405684 0.1003285,-0.2837551 0.1714935,-0.5217216 0.219407,-0.7336644 0.030184,-0.1335162 0.064706,-0.2755289 0.076718,-0.3155837 0.012011,-0.040055 0.031739,-0.1055994 0.04384,-0.1456539 0.027425,-0.090777 0.039185,-0.2685811 0.022813,-0.3449173 -0.016752,-0.07812 -0.1031732,-0.277398 -0.1498727,-0.3455934 -0.021335,-0.031156 -0.035988,-0.059449 -0.032561,-0.062875 0.00343,-0.00343 0.068791,0.056051 0.1452565,0.1321704 0.1774923,0.1766903 0.2635232,0.302518 0.3196184,0.4674695 0.043904,0.1291052 0.054281,0.207759 0.054085,0.4099889 -1.635e-4,0.1690121 -0.00375,0.2063468 -0.034277,0.3560432 -0.018752,0.091978 -0.046347,0.2128546 -0.061323,0.2686151 -0.014976,0.055761 -0.025598,0.1030125 -0.023606,0.1050058 0.00199,0.00199 0.035103,-0.013094 0.073579,-0.033524 0.075473,-0.040076 0.1639376,-0.066736 0.2513143,-0.075734 l 0.054931,-0.00566 -0.055222,0.020557 C 6.9145462,7.8660845 6.7103093,7.9947525 6.6412795,8.0659967 6.538086,8.1725004 6.4570691,8.3983866 6.4395829,8.6283522 c -0.00447,0.05891 -0.011669,0.093882 -0.019117,0.093019 -0.00656,-7.627e-4 -0.055635,-0.017234 -0.1090415,-0.036603 z M 4.7008536,8.0115622 C 4.6206819,7.9818948 4.5770422,7.9526844 4.5228597,7.8924202 4.433717,7.7932719 4.4088447,7.6390475 4.4498632,7.4397945 4.4811684,7.2877257 4.6101217,6.9121795 4.6817371,6.7645164 4.6961264,6.7348466 4.7219404,6.68144 4.7391001,6.6458349 4.7736811,6.5740848 4.8541825,6.4291227 4.8918844,6.3707107 4.9329549,6.30708 5.0246505,6.1608179 5.0814579,6.0683261 5.1486721,5.9588913 5.2345602,5.8384543 5.3188199,5.7354873 5.3544239,5.6919787 5.3945852,5.6407213 5.4080679,5.6215827 L 5.4325806,5.5867858 5.4096246,5.4851429 C 5.3767466,5.3395714 5.3146331,5.1287147 5.2962548,5.1002839 c -0.017644,-0.027294 -0.013541,-0.029713 0.020579,-0.012135 0.096507,0.049722 0.1854483,0.1502576 0.254565,0.2877521 0.039628,0.078832 0.057448,0.090025 0.086951,0.054615 0.047477,-0.05698 0.039389,-0.1732691 -0.023702,-0.3407428 l -0.03749,-0.09952 0.053986,0.02939 c 0.1200184,0.065339 0.208838,0.1794378 0.2569731,0.3301137 0.022391,0.070091 0.029346,0.2612755 0.011789,0.3242234 -0.010458,0.037523 -0.020821,0.043445 -0.1022343,0.058431 -0.082376,0.015165 -0.2203518,0.07763 -0.3230055,0.146234 C 5.3832129,5.9531302 5.1930066,6.1414168 5.1076774,6.2617289 4.9050853,6.547379 4.6857626,7.0296112 4.5845861,7.4118673 c -0.044258,0.167212 -0.047,0.2385229 -0.011825,0.3074918 0.059804,0.1172459 0.1768723,0.128359 0.3214768,0.030518 0.054708,-0.037016 0.083626,-0.077863 0.1466965,-0.2072102 0.072134,-0.1479343 0.1483509,-0.2386026 0.2755649,-0.3278142 0.070564,-0.049485 0.1140402,-0.061508 0.2828347,-0.078218 0.1501325,-0.014863 0.186191,-0.024497 0.2859134,-0.076393 0.1882219,-0.097949 0.3036579,-0.2503348 0.3600891,-0.4753484 0.00964,-0.038449 0.017586,-0.089018 0.017651,-0.1123755 6.53e-5,-0.023357 0.00321,-0.061207 0.007,-0.08411 l 0.00688,-0.041643 0.024595,0.058325 c 0.057337,0.1359468 0.074562,0.3620896 0.036012,0.4727118 C 6.3197309,6.9287028 6.2140627,7.1100924 6.1706422,7.1641762 6.0924354,7.2615891 5.9134123,7.3459953 5.7476041,7.3636304 5.4600516,7.3942141 5.2776335,7.5168212 5.163214,7.7564113 5.095897,7.8973701 5.063844,7.9334052 4.9602506,7.984592 4.8576674,8.03528 4.7852846,8.042805 4.7008536,8.0115622 Z M 7.0916178,7.7983027 c 0.00778,-0.00312 0.017094,-0.00273 0.02068,8.518e-4 0.00359,0.00359 -0.00278,0.00614 -0.01416,0.00566 -0.012569,-5.177e-4 -0.015126,-0.00307 -0.00652,-0.00652 z M 9.5050234,7.7519695 C 9.2010344,7.715978 8.8555058,7.6089492 8.5755117,7.4640494 8.2730573,7.3075261 8.1714193,7.2067069 7.8757366,6.7699112 7.5379977,6.2709884 7.199109,5.9647992 6.7834683,5.7830363 6.6070942,5.7059066 6.3090009,5.648175 6.1593011,5.6621542 l -0.067184,0.00627 -5.253e-4,-0.088518 C 6.091018,5.4833284 6.0711962,5.3933909 6.0328019,5.3131657 l -0.024677,-0.051563 0.027575,-0.016288 c 0.057082,-0.033719 0.2782203,-0.1248592 0.340461,-0.1403191 0.19522,-0.04849 0.257232,-0.055788 0.4747241,-0.055873 0.3229351,-1.263e-4 0.4962336,0.029949 0.8307671,0.1441789 0.1723078,0.058836 0.2705499,0.096493 0.4909079,0.1881711 0.2471786,0.1028362 0.4095884,0.1547286 0.5612905,0.179341 0.09127,0.014808 0.3453488,0.014692 0.4258749,-1.94e-4 0.1630754,-0.030146 0.3730521,-0.1397118 0.4764226,-0.248597 0.054608,-0.057521 0.1332113,-0.1782954 0.1332113,-0.2046799 0,-0.010602 0.00486,-0.02227 0.010794,-0.025937 0.021778,-0.01346 0.00128,0.1758084 -0.030418,0.280826 -0.050491,0.1672758 -0.2493431,0.3894965 -0.4337872,0.4847581 -0.05298,0.027363 -0.1316414,0.058733 -0.1748036,0.06971 C 9.0228037,5.9467978 8.83913,5.9644198 8.7228084,5.9568348 8.4845346,5.9412966 8.0867521,5.851064 7.9320672,5.7774622 c -0.072425,-0.034461 -0.075633,-0.021363 -0.00688,0.028088 0.1728813,0.1243459 0.4760099,0.2814701 0.7059129,0.3659041 0.053407,0.019614 0.1162025,0.043778 0.1395457,0.053698 0.07705,0.032742 0.3761573,0.1132619 0.5024107,0.1352481 0.3928032,0.068405 0.6439407,0.048571 0.9112865,-0.07197 0.228173,-0.1028781 0.41288,-0.2782015 0.493015,-0.4679674 0.04146,-0.098182 0.06238,-0.1815516 0.06362,-0.2535459 l 9.28e-4,-0.053946 0.01739,0.043157 c 0.02721,0.067538 0.02631,0.4399741 -0.0013,0.52867 -0.04976,0.1601324 -0.12725,0.2919092 -0.248583,0.4228086 C 10.298472,6.7351539 9.9621212,6.8679897 9.5967314,6.8680456 9.3861481,6.8680779 9.0433717,6.8090264 8.8657541,6.7421173 8.8257049,6.7270306 8.7468134,6.6984972 8.69044,6.67871 8.5749693,6.6381794 8.3904976,6.5540247 8.343027,6.5202225 c -0.048215,-0.034332 -0.049931,-0.014 -0.0023,0.027301 0.2566146,0.2225296 0.3887559,0.3143323 0.5870795,0.4078621 0.175503,0.082767 0.422782,0.1530656 0.7552429,0.2147056 0.1718762,0.031867 0.2076808,0.034998 0.3992006,0.034919 0.184277,-7.65e-5 0.227797,-0.00361 0.350648,-0.02848 0.283563,-0.057403 0.507178,-0.1615208 0.698625,-0.3252897 0.132545,-0.1133842 0.255193,-0.2966185 0.299974,-0.4481619 0.01316,-0.044505 0.02689,-0.088201 0.03053,-0.097102 0.0128,-0.031267 0.01354,0.3075897 8.35e-4,0.3830161 C 11.427302,6.9001303 11.30654,7.1188645 11.1234,7.3038568 10.875764,7.5539984 10.577473,7.692836 10.148883,7.757441 10.008187,7.778649 9.7088824,7.776106 9.5050234,7.751971 Z M 5.2301928,6.5447843 c 0.013404,-0.1598778 0.089793,-0.2495971 0.2125136,-0.2495971 0.060802,0 0.1431641,0.028142 0.1215173,0.04152 -0.00726,0.00449 -0.018119,0.034172 -0.024152,0.06598 -0.012135,0.063985 -0.052918,0.1258746 -0.092986,0.1411084 -0.014331,0.00544 -0.055863,0.014707 -0.092294,0.020574 -0.039929,0.00643 -0.075501,0.019371 -0.089562,0.03258 -0.012829,0.012052 -0.027357,0.021913 -0.032287,0.021913 -0.00493,0 -0.00616,-0.033335 -0.00275,-0.074078 z"
       id="path1-7-9"
       sodipodi:nodetypes="cssssssccccssssssccccscccssssssscccccsssssccssssssccccsccccssccsscscscssscsssssscsssscccssssccssscssscccccscscsscscsscssssccccccssccccsscccccsscsccssccssssscccccsssccccscccscsscscccscssssscssssscsssccssccssssssssssscsscssscsscsssscsssssssccscssssscscccssssscsscsssssssssccsssscsssssscscssssscssssscccssscsssccsscc" /><ellipse
       style="fill:#000000;fill-opacity:0.143426;stroke:#c00707;stroke-width:0.165;stroke-dasharray:none;stroke-opacity:0.421348"
       id="path5"
       cx="7.4724536"
       cy="11.982809"
       rx="0.24757871"
       ry="0.26408395" /><path
       style="fill:#dddddd;fill-opacity:1;stroke-width:1"
       d="m 3.7681082,13.360041 c 5.3e-4,-0.05854 0.1163561,-0.447928 0.1833575,-0.616412 0.1370902,-0.344737 0.4373905,-0.940642 0.7176968,-1.424174 0.02236,-0.03857 0.052737,-0.09197 0.067504,-0.118683 0.014767,-0.02671 0.056417,-0.101954 0.092554,-0.167233 0.036138,-0.06528 0.081729,-0.142956 0.1013155,-0.172626 0.019586,-0.02967 0.05611,-0.09521 0.081165,-0.145654 0.025055,-0.05044 0.047071,-0.09404 0.048925,-0.09688 0.00186,-0.0029 0.01642,0.0097 0.032368,0.02793 0.040971,0.04677 0.1896121,0.170152 0.2667654,0.221422 l 0.065142,0.04328 -0.07258,0.07566 c -0.039919,0.04162 -0.1032188,0.119679 -0.1406662,0.173468 -0.037447,0.05379 -0.097507,0.137126 -0.1334658,0.18519 -0.1824891,0.243915 -0.3680471,0.576496 -0.4671218,0.837235 -0.023676,0.0623 -0.055517,0.141245 -0.070761,0.175417 -0.035327,0.07919 -0.05229,0.222616 -0.038591,0.32628 0.016404,0.124135 0.013166,0.206425 -0.00989,0.251277 -0.082415,0.160329 -0.3772921,0.357739 -0.6240768,0.4178 -0.089554,0.02179 -0.099784,0.02248 -0.09964,0.0067 z m 3.5497683,-1.97585 c 0.040241,-0.05743 0.2435564,-0.254933 0.3146848,-0.305677 0.03467,-0.02473 0.095721,-0.06819 0.1356697,-0.09657 0.1424571,-0.101198 0.4333826,-0.232984 0.5973491,-0.270598 0.2833933,-0.06502 0.851365,-0.04555 1.1933896,0.0409 0.057897,0.01463 0.144109,0.03456 0.1915815,0.04429 0.082781,0.01696 0.2712308,0.06702 0.5124858,0.136123 0.06231,0.01785 0.195824,0.04639 0.296703,0.06342 0.100879,0.01703 0.224685,0.03817 0.275124,0.04698 0.132556,0.02313 0.403408,0.03205 0.561037,0.01846 0.317335,-0.02736 0.658041,-0.159843 0.91596,-0.35618 0.159975,-0.121778 0.310763,-0.303964 0.420407,-0.507946 0.05026,-0.0935 0.136702,-0.3119551 0.147755,-0.3733982 0.0074,-0.041652 0.0254,-0.084911 0.02604,-0.06288 0.0011,0.037754 -0.0352,0.2733912 -0.05472,0.3553572 -0.0209,0.0878 -0.106858,0.304226 -0.147834,0.372227 -0.18806,0.31212 -0.389316,0.525446 -0.629615,0.66738 -0.183228,0.108226 -0.345904,0.168857 -0.586275,0.218514 -0.222921,0.04605 -0.613935,0.02316 -0.949449,-0.05559 -0.09086,-0.02132 -0.319051,-0.09713 -0.5988001,-0.198936 -0.179419,-0.06529 -0.442844,-0.150307 -0.5394592,-0.174104 -0.3486883,-0.08588 -0.5539893,-0.109641 -0.8307672,-0.09611 -0.2051231,0.01008 -0.269031,0.02062 -0.4558539,0.07561 -0.2780207,0.08182 -0.5277056,0.220871 -0.7197658,0.400841 -0.062072,0.05817 -0.091725,0.08087 -0.075639,0.0579 z M 7.005136,11.086067 c 0.1043426,-0.189464 0.1184045,-0.210813 0.275652,-0.418496 0.054745,-0.07231 0.2897665,-0.311854 0.3682879,-0.375383 0.084952,-0.06873 0.1752658,-0.118264 0.3482329,-0.191011 0.1501681,-0.06316 0.2116521,-0.08139 0.3938052,-0.1168135 0.1228073,-0.023878 0.1769214,-0.027896 0.4349056,-0.032238 0.2633124,-0.00444 0.3092071,-0.00252 0.4315674,0.017678 0.075306,0.012449 0.209748,0.032622 0.2987588,0.044818 0.08901,0.0122 0.2103892,0.03362 0.2697297,0.04761 0.14187,0.03344 0.2090255,0.04501 0.3776215,0.0651 0.470813,0.0561 0.507139,0.05791 0.651573,0.0325 0.141667,-0.02493 0.242592,-0.05595 0.338718,-0.1041 0.217743,-0.1090783 0.360914,-0.2355122 0.460823,-0.4069574 0.06517,-0.1118358 0.09333,-0.1972064 0.108609,-0.3292757 C 11.78508,9.1322862 11.755025,8.9620907 11.67075,8.7942398 11.586882,8.6272452 11.488616,8.5075695 11.352745,8.4069532 11.216516,8.3060671 10.920861,8.174487 10.770129,8.1476564 c -0.126921,-0.022593 -0.125935,-0.02228 -0.105851,-0.033516 0.03372,-0.018871 0.143689,-0.022464 0.350991,-0.011465 0.192004,0.010182 0.216793,0.013926 0.334464,0.05051 0.236976,0.073675 0.465218,0.2012076 0.572145,0.3196936 0.03116,0.034516 0.05664,0.056284 0.05664,0.048356 0,-0.028508 -0.0838,-0.143247 -0.143089,-0.1959423 -0.116969,-0.1039456 -0.353517,-0.2203563 -0.583068,-0.2869378 -0.12399,-0.035964 -0.381501,-0.040618 -0.574788,-0.010386 -0.08261,0.012919 -0.192492,0.035678 -0.244182,0.050576 -0.24211,0.069778 -0.6500098,0.11183 -0.8840998,0.091143 C 9.3046999,8.1480687 8.9517408,8.0683641 8.828076,8.0068207 8.7954386,7.9905783 8.7374516,7.9641362 8.699216,7.9480607 8.5701287,7.8937877 8.392682,7.7562757 8.3459834,7.6743236 8.3302619,7.6467337 8.3087757,7.6144355 8.2982365,7.60255 8.2730664,7.5741643 8.219817,7.4573959 8.2282135,7.4489994 c 0.015295,-0.015295 0.1303376,0.024641 0.2761869,0.095874 0.086043,0.042024 0.185574,0.090437 0.2211783,0.1075819 0.2745896,0.1322329 0.794539,0.2094609 1.1544427,0.1714691 0.1700206,-0.017948 0.6374386,-0.1169269 0.8415566,-0.1782058 0.140609,-0.042212 0.434441,-0.065035 0.625401,-0.048576 0.172575,0.014875 0.218911,0.024073 0.360579,0.07157 0.467655,0.1567956 0.849112,0.5523479 0.961091,0.9966018 0.0442,0.1753214 0.05714,0.3058449 0.05132,0.5173327 -0.0049,0.1803356 -0.0089,0.2124304 -0.03912,0.3242242 -0.07576,0.2796472 -0.252384,0.5665027 -0.489786,0.7954927 -0.220346,0.212538 -0.547776,0.370896 -0.863956,0.417845 -0.294604,0.04374 -0.756912,-5.21e-4 -1.108832,-0.106175 -0.6671108,-0.200265 -0.8130909,-0.235997 -1.1546693,-0.282629 -0.4233385,-0.05779 -0.8438453,-0.02617 -1.1785896,0.08865 -0.1852571,0.06354 -0.4254894,0.197157 -0.5531863,0.307678 -0.05941,0.05141 -0.153596,0.161062 -0.2602496,0.302961 -0.093713,0.124683 -0.1138603,0.141472 -0.066441,0.05537 z M 6.0120989,10.961971 C 5.673352,10.892758 5.5484663,10.829335 5.2892237,10.594864 5.030292,10.360675 4.7682647,10.007454 4.5817924,9.6412248 4.3428752,9.1719954 4.3045049,8.9281034 4.437463,8.7238258 4.5391598,8.5675771 4.7455571,8.4619381 4.9588469,8.4569693 c 0.1260644,-0.00288 0.1388052,0.00252 0.1581097,0.067941 l 0.016126,0.054641 0.1293189,0.060469 c 0.1878665,0.08785 0.5183147,0.253658 0.6649278,0.3336341 0.06986,0.038102 0.1293624,0.069284 0.1322284,0.069284 0.00287,0 0.045552,0.018889 0.09486,0.041976 0.2417742,0.113215 0.4167047,0.1699245 0.6034323,0.1956269 0.119449,0.016443 0.3041544,7.94e-4 0.4680321,-0.039649 0.1581229,-0.039026 0.5047172,-0.238103 0.5964693,-0.3426026 0.040133,-0.045706 0.040897,-0.044147 0.016397,0.033581 -0.011142,0.035344 -0.03859,0.082153 -0.070161,0.1196314 -0.059367,0.070483 -0.1273218,0.1986492 -0.1273218,0.2401322 0,0.02503 0.00622,0.029587 0.056643,0.041496 0.1337219,0.031578 0.3680222,0.024826 0.5421564,-0.015639 0.035604,-0.00828 0.1424173,-0.044782 0.2373621,-0.081133 0.094945,-0.036351 0.2211782,-0.082812 0.2805188,-0.1032368 0.118456,-0.040777 0.4261728,-0.1327326 0.4261728,-0.1273561 0,0.0072 -0.2285546,0.1665544 -0.3722268,0.2595191 C 8.4959716,9.4697053 8.1181385,9.6304622 7.830705,9.6827486 7.7169131,9.7034487 7.6640938,9.7063391 7.409298,9.7058234 7.1417094,9.7052825 7.1049066,9.7028251 6.9573011,9.6762483 6.8689215,9.6602975 6.7718194,9.6400531 6.7415175,9.6312502 6.7112157,9.6224952 6.6412226,9.6025506 6.5859772,9.5870435 6.4060696,9.5365285 6.1999564,9.444804 5.9763688,9.3157689 5.7753585,9.1997595 5.5441012,9.0836805 5.4363002,9.0446741 5.3352018,9.0080951 5.2028177,8.9871911 5.1273859,8.9958981 c -0.104556,0.012077 -0.1358414,0.039949 -0.1676617,0.1494114 -0.042726,0.1469709 0.013376,0.4402913 0.1332746,0.6968133 0.1089023,0.2329942 0.3629771,0.5258312 0.4858365,0.5599552 0.021703,0.006 0.096783,0.01103 0.1668483,0.01103 0.070064,3.3e-5 0.1491039,0.0055 0.1756432,0.01221 0.044313,0.01115 0.051898,0.01839 0.092877,0.08856 0.061128,0.104664 0.1215954,0.249382 0.1482616,0.354833 0.012244,0.04842 0.02226,0.09196 0.02226,0.09676 0,0.01139 -0.110615,0.0091 -0.1726265,-0.0035 z m -0.011381,-0.662805 c -0.035171,-0.04237 -0.077185,-0.05247 -0.2431477,-0.05843 -0.1547966,-0.0055 -0.1650301,-0.0073 -0.2076918,-0.03554 -0.055931,-0.03701 -0.056624,-0.0559 -0.00543,-0.148071 0.021422,-0.03857 0.061804,-0.1113917 0.089737,-0.1618372 0.027933,-0.050443 0.090405,-0.1632467 0.1388267,-0.2506825 0.048421,-0.087442 0.088113,-0.162689 0.088205,-0.167232 9.1e-5,-0.00456 0.0042,-0.01462 0.00913,-0.022391 0.0068,-0.010674 0.029647,-2.914e-4 0.094633,0.043211 0.11928,0.079838 0.3356841,0.1843714 0.5326346,0.2572848 0.097773,0.036195 0.358275,0.1074463 0.3928394,0.1074463 0.034938,0 0.013092,0.010074 -0.046263,0.021324 -0.054896,0.010434 -0.1382382,0.043967 -0.303419,0.1221476 -0.044505,0.02107 -0.11005,0.05104 -0.145654,0.06662 -0.035604,0.01558 -0.081728,0.03945 -0.1024968,0.05303 -0.02077,0.01359 -0.066311,0.04127 -0.1012039,0.0615 -0.034893,0.02023 -0.086585,0.05742 -0.1148713,0.08264 -0.028287,0.02522 -0.053764,0.04585 -0.056616,0.04585 -0.00285,0 -0.011501,-0.0076 -0.019207,-0.0169 z M 10.543554,9.9100518 c -0.09621,-0.012401 -0.230556,-0.053525 -0.32907,-0.1007422 -0.09525,-0.045646 -0.180009,-0.0976 -0.134865,-0.082657 0.0089,0.003 0.06115,0.020244 0.116112,0.038438 0.08736,0.028915 0.114982,0.033089 0.219548,0.033089 0.07931,0 0.131074,-0.00516 0.153617,-0.015135 0.0187,-0.00828 0.0607,-0.027008 0.09334,-0.041508 0.103704,-0.04609 0.176168,-0.115026 0.226901,-0.215857 0.04465,-0.088749 0.04473,-0.089145 0.04042,-0.1914281 -0.0037,-0.089109 -0.0089,-0.1112482 -0.03864,-0.1694626 -0.04347,-0.084863 -0.08724,-0.1346288 -0.163136,-0.185524 -0.07689,-0.051558 -0.159791,-0.083892 -0.251403,-0.098056 -0.09335,-0.01444 -0.215853,0.00192 -0.289955,0.038798 -0.02672,0.013288 -0.02783,0.012701 -0.02305,-0.012293 0.0058,-0.030534 0.05351,-0.108022 0.118135,-0.1920446 0.04195,-0.054545 0.05228,-0.061345 0.134625,-0.088773 0.239177,-0.079658 0.540195,-0.003 0.780443,0.1987368 0.07094,0.05957 0.137179,0.1499631 0.179013,0.2442998 0.01775,0.040021 0.02519,0.081817 0.02881,0.1619059 0.0089,0.1971187 -0.03927,0.307591 -0.20731,0.4751708 -0.104916,0.104628 -0.179152,0.1492903 -0.302881,0.1822306 -0.06476,0.017246 -0.279512,0.029995 -0.350649,0.020832 z M 6.2332748,8.4654928 C 6.1798683,8.4461239 6.0888346,8.4191394 6.0309776,8.4055272 5.928939,8.381517 5.9257836,8.379862 5.9257836,8.3506467 c 0,-0.038906 0.07654,-0.3357396 0.1136048,-0.4405684 C 6.1397169,7.6263232 6.2108819,7.3883567 6.2587954,7.1764139 6.2889797,7.0428977 6.3235019,6.900885 6.335513,6.8608302 6.3475241,6.8207756 6.3672516,6.7552308 6.3793527,6.7151763 6.4067773,6.6243992 6.4185378,6.4465952 6.402166,6.370259 6.385414,6.2921394 6.2989928,6.092861 6.2522933,6.0246656 c -0.021335,-0.031156 -0.035988,-0.059449 -0.032561,-0.062875 0.00343,-0.00343 0.068791,0.056051 0.1452565,0.1321704 0.1774923,0.1766903 0.2635232,0.302518 0.3196184,0.4674695 0.043904,0.1291052 0.054281,0.207759 0.054085,0.4099889 -1.635e-4,0.1690121 -0.00375,0.2063468 -0.034277,0.3560432 -0.018752,0.091978 -0.046347,0.2128546 -0.061323,0.2686151 -0.014976,0.055761 -0.025598,0.1030125 -0.023606,0.1050058 0.00199,0.00199 0.035103,-0.013094 0.073579,-0.033524 0.075473,-0.040076 0.1639376,-0.066736 0.2513143,-0.075734 l 0.054931,-0.00566 -0.055222,0.020557 c -0.10769,0.040087 -0.3119269,0.168755 -0.3809567,0.2399992 -0.1031935,0.1065037 -0.1842104,0.3323899 -0.2016966,0.5623555 -0.00447,0.05891 -0.011669,0.093882 -0.019117,0.093019 -0.00656,-7.627e-4 -0.055635,-0.017234 -0.1090415,-0.036603 z M 4.6227059,7.7922872 C 4.5425342,7.7626198 4.4988945,7.7334094 4.444712,7.6731452 4.3555693,7.5739969 4.330697,7.4197725 4.3717155,7.2205195 4.4030207,7.0684507 4.531974,6.6929045 4.6035894,6.5452414 4.6179787,6.5155716 4.6437927,6.462165 4.6609524,6.4265599 4.6955334,6.3548098 4.7760348,6.2098477 4.8137367,6.1514357 4.8548072,6.087805 4.9465028,5.9415429 5.0033102,5.8490511 5.0705244,5.7396163 5.1564125,5.6191793 5.2406722,5.5162123 5.2762762,5.4727037 5.3164375,5.4214463 5.3299202,5.4023077 L 5.3544329,5.3675108 5.3314769,5.2658679 C 5.2985989,5.1202964 5.2364854,4.9094397 5.2181071,4.8810089 5.2004629,4.853715 5.2045657,4.851296 5.2386861,4.8688743 c 0.096507,0.049722 0.1854483,0.1502576 0.254565,0.2877521 0.039628,0.078832 0.057448,0.090025 0.086951,0.054615 0.047477,-0.05698 0.039389,-0.1732691 -0.023702,-0.3407428 l -0.03749,-0.09952 0.053986,0.02939 c 0.1200184,0.065339 0.208838,0.1794378 0.2569731,0.3301137 0.022391,0.070091 0.029346,0.2612755 0.011789,0.3242234 C 5.8313,5.4922292 5.8209368,5.4981502 5.7395239,5.5131368 5.657148,5.5283021 5.5191721,5.590767 5.4165184,5.6593708 5.3050652,5.7338552 5.1148589,5.9221418 5.0295297,6.0424539 4.8269376,6.328104 4.6076149,6.8103362 4.5064384,7.1925923 c -0.044258,0.167212 -0.047,0.2385229 -0.011825,0.3074918 0.059804,0.1172459 0.1768723,0.128359 0.3214768,0.030518 0.054708,-0.037016 0.083626,-0.077863 0.1466965,-0.2072102 0.072134,-0.1479343 0.1483509,-0.2386026 0.2755649,-0.3278142 0.070564,-0.049485 0.1140402,-0.061508 0.2828347,-0.078218 0.1501325,-0.014863 0.186191,-0.024497 0.2859134,-0.076393 0.1882219,-0.097949 0.3036579,-0.2503348 0.3600891,-0.4753484 0.00964,-0.038449 0.017586,-0.089018 0.017651,-0.1123755 6.53e-5,-0.023357 0.00321,-0.061207 0.007,-0.08411 l 0.00688,-0.041643 0.024595,0.058325 C 6.2806519,6.3217616 6.2978765,6.5479044 6.259327,6.6585266 6.2415832,6.7094278 6.135915,6.8908174 6.0924945,6.9449012 6.0142877,7.0423141 5.8352646,7.1267203 5.6694564,7.1443554 5.3819039,7.1749391 5.1994858,7.2975462 5.0850663,7.5371363 5.0177495,7.6780951 4.9856967,7.7141302 4.8821029,7.765317 4.7795197,7.816005 4.7071369,7.82353 4.6227059,7.7922872 Z M 7.0134701,7.5790277 c 0.00778,-0.00312 0.017094,-0.00273 0.02068,8.518e-4 0.00359,0.00359 -0.00278,0.00614 -0.01416,0.00566 -0.012569,-5.177e-4 -0.015126,-0.00307 -0.00652,-0.00652 z M 9.4268757,7.5326945 C 9.1228867,7.496703 8.7773581,7.3896742 8.497364,7.2447744 8.1949096,7.0882511 8.0932716,6.9874319 7.7975889,6.5506362 7.45985,6.0517134 7.1209613,5.7455242 6.7053206,5.5637613 6.5289465,5.4866316 6.2308532,5.4289 6.0811534,5.4428792 l -0.067184,0.00627 -5.253e-4,-0.088518 C 6.0128703,5.2640534 5.9930485,5.1741159 5.9546542,5.0938907 l -0.024677,-0.051563 0.027575,-0.016288 c 0.057082,-0.033719 0.2782203,-0.1248592 0.340461,-0.1403191 0.19522,-0.04849 0.257232,-0.055788 0.4747241,-0.055873 0.3229351,-1.263e-4 0.4962336,0.029949 0.8307671,0.1441789 0.1723078,0.058836 0.2705499,0.096493 0.4909079,0.1881711 0.2471786,0.1028362 0.4095884,0.1547286 0.5612905,0.179341 0.09127,0.014808 0.3453488,0.014692 0.4258749,-1.94e-4 0.1630754,-0.030146 0.3730521,-0.1397118 0.4764226,-0.248597 0.054608,-0.057521 0.1332113,-0.1782954 0.1332113,-0.2046799 0,-0.010602 0.00486,-0.02227 0.010794,-0.025937 0.021778,-0.01346 0.00128,0.1758084 -0.030418,0.280826 C 9.6210966,5.3102325 9.4222445,5.5324532 9.2378004,5.6277148 9.1848204,5.6550778 9.106159,5.6864478 9.0629968,5.6974248 8.944656,5.7275228 8.7609823,5.7451448 8.6446607,5.7375598 8.4063869,5.7220216 8.0086044,5.631789 7.8539195,5.5581872 c -0.072425,-0.034461 -0.075633,-0.021363 -0.00688,0.028088 0.1728813,0.1243459 0.4760099,0.2814701 0.7059129,0.3659041 0.053407,0.019614 0.1162025,0.043778 0.1395457,0.053698 0.07705,0.032742 0.3761573,0.1132619 0.5024107,0.1352481 0.3928032,0.068405 0.6439402,0.048571 0.9112862,-0.07197 0.228173,-0.1028781 0.41288,-0.2782015 0.493015,-0.4679674 0.04146,-0.098182 0.06238,-0.1815516 0.06362,-0.2535459 l 9.28e-4,-0.053946 0.01739,0.043157 c 0.02721,0.067538 0.02631,0.4399741 -0.0013,0.52867 -0.04976,0.1601324 -0.12725,0.2919092 -0.248583,0.4228086 C 10.220324,6.5158789 9.8839734,6.6487147 9.5185837,6.6487706 9.3080004,6.6488029 8.965224,6.5897514 8.7876064,6.5228423 8.7475572,6.5077556 8.6686657,6.4792222 8.6122923,6.459435 8.4968216,6.4189044 8.3123499,6.3347497 8.2648793,6.3009475 c -0.048215,-0.034332 -0.049931,-0.014 -0.0023,0.027301 0.2566146,0.2225296 0.3887559,0.3143323 0.5870795,0.4078621 0.175503,0.082767 0.422782,0.1530656 0.7552429,0.2147056 0.1718762,0.031867 0.2076805,0.034998 0.3992003,0.034919 0.184277,-7.65e-5 0.227797,-0.00361 0.350648,-0.02848 0.283563,-0.057403 0.507178,-0.1615208 0.698625,-0.3252897 0.132545,-0.1133842 0.255193,-0.2966185 0.299974,-0.4481619 0.01316,-0.044505 0.02689,-0.088201 0.03053,-0.097102 0.0128,-0.031267 0.01354,0.3075897 8.35e-4,0.3830161 -0.03556,0.2111376 -0.156322,0.4298718 -0.339462,0.6148641 C 10.797616,7.3347234 10.499325,7.473561 10.070735,7.538166 9.9300395,7.5593743 9.6307347,7.5568308 9.4268757,7.5326945 Z M 5.1520451,6.3255093 c 0.013404,-0.1598778 0.089793,-0.2495971 0.2125136,-0.2495971 0.060802,0 0.1431641,0.028142 0.1215173,0.04152 -0.00726,0.00449 -0.018119,0.034172 -0.024152,0.06598 -0.012135,0.063985 -0.052918,0.1258746 -0.092986,0.1411084 -0.014331,0.00544 -0.055863,0.014707 -0.092294,0.020574 -0.039929,0.00643 -0.075501,0.019371 -0.089562,0.03258 -0.012829,0.012052 -0.027357,0.021913 -0.032287,0.021913 -0.00493,0 -0.00616,-0.033335 -0.00275,-0.074078 z"
       id="path1"
       sodipodi:nodetypes="cssssssccccssssssccccscccssssssscccccsssssccssssssccccsccccssccsscscscssscsssssscsssscccssssccssscssscccccscscsscscsscssssccccccssccccsscccccsscsccssccssssscccccsssccccscccscsscscccscssssscssssscsssccssccssssssssssscsscssscsscsssscsssssssccscssssscscccssssscsscsssssssssccsssscsssssscscssssscssssscccssscsssccsscc" /></g></svg>
