<?xml version="1.0" encoding="UTF-8" standalone="no"?>
<!-- Created with Inkscape (http://www.inkscape.org/) -->

<svg
   width="15mm"
   height="15mm"
   viewBox="0 0 15 15"
   version="1.1"
   id="svg1"
   inkscape:export-filename="ghost-train.png"
   inkscape:export-xdpi="96"
   inkscape:export-ydpi="96"
   inkscape:version="1.3.2 (091e20e, 2023-11-25)"
   sodipodi:docname="ghost-train.svg"
   xmlns:inkscape="http://www.inkscape.org/namespaces/inkscape"
   xmlns:sodipodi="http://sodipodi.sourceforge.net/DTD/sodipodi-0.dtd"
   xmlns:xlink="http://www.w3.org/1999/xlink"
   xmlns="http://www.w3.org/2000/svg"
   xmlns:svg="http://www.w3.org/2000/svg">
  <sodipodi:namedview
     id="namedview1"
     pagecolor="#ffffff"
     bordercolor="#000000"
     borderopacity="0.25"
     inkscape:showpageshadow="2"
     inkscape:pageopacity="0.0"
     inkscape:pagecheckerboard="0"
     inkscape:deskcolor="#d1d1d1"
     inkscape:document-units="mm"
     showguides="false"
     inkscape:zoom="29.611448"
     inkscape:cx="22.829009"
     inkscape:cy="39.207809"
     inkscape:window-width="1792"
     inkscape:window-height="993"
     inkscape:window-x="0"
     inkscape:window-y="37"
     inkscape:window-maximized="0"
     inkscape:current-layer="layer1" />
  <defs
     id="defs1">
    <filter
       inkscape:collect="always"
       style="color-interpolation-filters:sRGB"
       id="filter3"
       x="-0.033786187"
       y="-0.03562239"
       width="1.0675724"
       height="1.0712448">
      <feGaussianBlur
         inkscape:collect="always"
         stdDeviation="1.4166477"
         id="feGaussianBlur3" />
    </filter>
    <radialGradient
       inkscape:collect="always"
       xlink:href="#linearGradient2"
       id="radialGradient3"
       cx="128.75095"
       cy="146.46013"
       fx="128.75095"
       fy="146.46013"
       r="46.388309"
       gradientTransform="matrix(-0.14223771,0.14737496,-0.07034791,-0.06789569,38.729429,-3.2308218)"
       gradientUnits="userSpaceOnUse" />
    <linearGradient
       id="linearGradient2"
       inkscape:collect="always">
      <stop
         style="stop-color:#64e53a;stop-opacity:1;"
         offset="0"
         id="stop2" />
      <stop
         style="stop-color:#41ced6;stop-opacity:0.98479086;"
         offset="1"
         id="stop3" />
    </linearGradient>
  </defs>
  <g
     inkscape:label="Layer 1"
     inkscape:groupmode="layer"
     id="layer1">
    <ellipse
       style="fill:#000000;fill-opacity:0.143426;stroke:#c00707;stroke-width:0.165;stroke-dasharray:none;stroke-opacity:0.421348"
       id="path5"
       cx="7.4724536"
       cy="11.982809"
       rx="0.24757871"
       ry="0.26408395" />
    <path
       style="fill:url(#radialGradient3);fill-opacity:1;stroke:none;stroke-width:4.43798;stroke-linecap:round;stroke-linejoin:round;stroke-opacity:0.581121"
       d="M 9.3980991,4.8093626 7.3724771,5.7923852 7.491631,6.0604828 7.5809965,6.5817825 H 7.4469477 L 7.2533219,6.4179452 7.1341679,6.37326 6.7618106,6.5966743 6.6575515,7.0435034 6.6426585,7.5350147 6.5979733,7.698852 6.1511454,7.1626574 6.0468851,7.1924434 5.8532593,7.3711749 5.7043169,7.5052238 V 7.9520523 L 5.6000566,8.1456775 5.5106916,7.9818408 5.5702696,7.4903289 5.7787896,7.1179728 5.8979442,6.8498752 5.8681582,6.2689979 5.6894273,5.9562182 5.4809073,5.8370642 5.0638673,5.792379 4.572356,5.8817445 4.3489417,6.1051587 4.3191557,6.3583621 4.2297897,6.6264585 4.2893677,6.8498734 4.4234165,7.1924416 4.5276768,7.4605386 4.6468308,7.7435298 4.3787338,7.6988448 4.244685,7.7435298 4.28937,7.8477901 4.259584,7.9222621 3.93191,8.0563103 v 0.1489424 l -0.074471,0.4468291 0.059578,0.1638373 -0.2532027,0.4617228 -0.029786,0.3723567 -0.089366,0.3574624 -0.268097,0.819186 -0.2978855,-0.05958 -0.029786,0.07447 0.089366,0.208519 -0.41704,0.789398 0.4468285,0.983022 0.2234143,0.223415 1.5936883,-0.01489 -0.3872509,0.312779 -0.3127804,0.193627 -0.2532027,-0.05958 0.268097,0.282992 0.014893,0.119154 h 0.148943 L 4.5574748,13.790609 4.60216,13.641666 11.945042,9.679787 11.796099,9.4265843 11.855678,8.9797563 11.647157,8.7563408 11.945043,8.4435617 11.900358,8.2648308 11.885465,7.1328646 11.870572,7.0434991 11.259907,6.7456136 11.081174,6.6264585 10.947127,6.4924109 11.30459,6.2243139 11.364168,6.0604766 10.857762,5.4200217 10.366251,5.0774541 9.8002676,4.8689334 Z"
       id="path2" />
    <path
       style="mix-blend-mode:normal;fill:#28851f;fill-opacity:0.501475;stroke:none;stroke-width:47.2948;stroke-linecap:round;stroke-linejoin:round;stroke-opacity:0.581121;filter:url(#filter3)"
       d="m 132.38335,101.71955 -21.86243,10.34372 1.28602,2.82101 0.96452,5.48531 h -1.44678 l -2.08979,-1.72395 -1.28602,-0.47018 -4.01883,2.35085 -1.12526,4.70169 -0.16076,5.17186 -0.48226,1.72396 -4.822597,-5.64204 -1.12527,0.31345 -2.089793,1.88068 -1.607527,1.41051 v 4.70168 l -1.125274,2.0374 -0.964517,-1.72395 0.643011,-5.17186 2.250549,-3.91807 1.286022,-2.82101 -0.321506,-6.11221 -1.929043,-3.29118 -2.250538,-1.25378 -4.501087,-0.47017 -5.304866,0.94033 -2.411296,2.35085 -0.321506,2.6643 -0.964516,2.821 0.643011,2.35086 1.44678,3.60462 1.125274,2.82101 1.286022,2.97774 -2.89356,-0.47016 -1.44678,0.47016 0.482264,1.09706 -0.321506,0.78362 -3.53657,1.41051 v 1.56722 l -0.803769,4.7017 0.643011,1.72395 -2.732802,4.85842 -0.321505,3.91807 -0.964516,3.76135 -2.89356,8.61976 -3.215065,-0.62689 -0.321506,0.78362 0.964517,2.19412 -4.501087,8.30632 4.822592,10.34371 2.411307,2.35086 17.200589,-0.15673 -4.179582,3.29118 -3.375823,2.03741 -2.732801,-0.6269 2.893559,2.97774 0.160748,1.25378 h 1.607538 l 2.08979,-0.94033 0.482253,-1.56724 79.251321,-41.68832 -1.60753,-2.66429 0.64301,-4.70168 -2.25055,-2.35086 3.21507,-3.29118 -0.48226,-1.88067 -0.16075,-11.91095 -0.16076,-0.94034 -6.59088,-3.13446 -1.92904,-1.25379 -1.44677,-1.4105 3.85808,-2.82101 0.64301,-1.72396 -5.46562,-6.73909 -5.30485,-3.60462 -6.10863,-2.19413 z"
       id="path2-5"
       transform="matrix(0.10826138,0,0,0.11287979,-4.470082,-7.2362002)" />
    <path
       style="fill:#000000;stroke-width:0.999997"
       d="M 4.0820061,13.832172 C 3.8260811,13.479137 3.4003267,13.278625 3.0229071,13.019084 2.8027649,12.90164 2.1256515,12.665689 2.5814806,12.47134 3.0965447,12.355012 2.425664,11.916891 2.7692099,11.612356 2.8552735,11.408397 2.9465871,11.206707 3.035387,11.003933 2.7120896,10.709469 3.1582655,10.736977 3.2783965,10.743604 3.3422805,10.384808 3.8123382,9.9146035 3.3213155,9.7155591 3.3201455,9.4501138 3.7589408,9.4632427 3.7299994,9.1364287 3.9071741,8.9427741 3.9709534,8.8880802 3.8296954,8.6874257 3.9441778,8.4292005 3.8163914,8.020113 4.226636,7.9080885 4.171572,7.5282061 4.63607,7.7102996 4.6388137,7.6767002 4.496532,7.2336022 4.131301,6.8775696 4.2746377,6.3754388 4.2507467,5.8357006 4.9395564,5.7592555 5.3426781,5.8181842 5.9435009,5.8298324 5.9392145,6.4622017 5.935449,6.9024399 5.7485085,7.2525945 5.4136266,7.7102309 5.6026403,8.1087167 5.8370667,7.9009143 5.5390433,7.3956981 5.9765685,7.2709581 6.2626334,6.7819482 6.652663,8.0703929 6.6687018,7.3606441 6.5901479,6.9346511 6.7421873,6.4250621 7.2198343,6.3633868 7.3689987,6.4585923 7.6106539,6.7605666 7.5450062,6.3666988 7.6459892,6.0472374 7.1068951,5.7759017 7.6384415,5.6643777 8.2686314,5.438827 8.8161522,5.0145386 9.4518454,4.8137454 10.266246,4.8279085 10.98073,5.393407 11.409068,6.05169 c 0.09012,0.2889213 -0.735311,0.3874919 -0.185517,0.6323636 0.281196,0.1857432 0.84536,0.2879805 0.749056,0.6557209 0.02626,0.2758618 -0.143648,0.707568 0.0262,1.0116063 0.08397,0.253488 -0.512269,0.3296779 -0.137396,0.5795862 0.176733,0.2223801 -0.291884,0.7471455 0.160222,0.4583031 -0.14328,0.1918329 -0.707311,0.3924881 -1.014778,0.5813571 -1.6827493,0.8965408 -3.3913433,1.7451068 -5.0595808,2.6688218 -0.5862812,0.29693 -1.1580847,0.622381 -1.7422689,0.922379 -0.2813437,-0.214858 -0.2406811,0.03428 6.748e-4,0.125114 -0.095855,0.454515 0.6520596,-0.159355 0.2105748,0.07204 -0.389188,0.05778 0.2322054,-0.35012 0.3827861,-0.382841 2.3975825,-1.309907 4.8289295,-2.556246 7.243528,-3.8339505 0.100445,0.3081934 -0.908122,0.5778745 -0.248107,0.3646875 0.287421,-0.1647059 0.283382,-0.036184 0.01911,0.06132 -0.43417,0.112376 0.214349,0.167854 0.159036,0.402318 -0.04594,0.212195 -0.38779,0.42982 -0.572217,0.213682 -0.18683,-0.05915 -0.376934,-0.316435 -0.562041,-0.12192 -0.45568,0.137631 0.581,0.401525 -0.01215,0.633327 -0.335119,0.274317 -0.9297904,-0.496762 -1.0966112,0.02887 0.2528127,0.03012 0.4390622,0.39497 0.126595,0.471552 -0.1410157,0.103304 -0.2819412,0.175206 -0.4222428,0.02877 -0.2109662,-0.192569 -0.5812528,-0.256053 -0.7184458,0.0012 0.2727183,0.03549 0.4475487,0.431053 0.1208303,0.503403 -0.1355663,0.0997 -0.2699966,0.133164 -0.4016759,0.0063 -0.237924,-0.224164 -0.5246562,-0.18841 -0.7615681,-0.002 0.308394,0.06883 0.5252555,0.446482 0.090352,0.544393 C 7.513148,12.826472 7.286511,12.535671 7.057399,12.447034 c -0.1827424,0.09293 -0.553627,0.245109 -0.1355976,0.333139 0.2980119,0.185946 -0.1396846,0.5141 -0.3412875,0.481451 -0.169324,-0.09338 -0.3386492,-0.186755 -0.5079745,-0.280133 -0.2044109,0.101307 -0.5223026,0.241609 -0.1210812,0.348959 0.1861259,0.180348 0.00546,0.348017 -0.18284,0.399441 -0.1417431,0.144463 -0.276877,0.0029 -0.4135756,-0.07107 -0.1406053,-0.08271 -0.2808714,-0.214893 -0.4231095,-0.05932 -0.2343326,0.131138 -0.5983049,0.444218 -0.8499233,0.232614 z m 1.5754818,-0.173615 c 0.1789628,-0.16606 0.4598624,-0.259859 0.06254,-0.384759 -0.1877084,-0.1321 -0.635511,0.201683 -0.2067228,0.266674 0.087271,-0.01836 0.1052927,0.313188 0.1441828,0.118085 z m -0.8109947,-0.08266 c 0.1584469,-0.115258 0.6455988,-0.30003 0.6050509,-0.368203 -0.2166296,0.112231 -0.7279489,0.35973 -0.7483078,0.436222 l 0.063028,-0.02684 z m 1.8214123,-0.4538 c 0.09346,-0.210998 0.5012218,-0.07736 0.1664294,-0.32714 -0.1498784,-0.203873 -0.6657583,0.0039 -0.4595526,0.141371 0.1963241,-0.06245 0.2684442,0.414314 0.2931232,0.185769 z m -0.824288,-0.08684 c 0.2072399,-0.09865 0.9895563,-0.560102 0.4131506,-0.269249 -0.104015,0.05521 -0.9427605,0.521157 -0.4131506,0.269249 z m -0.957391,-0.144794 c -0.019555,-0.274701 0.1916618,-0.79398 0.032522,-0.918612 -0.1447629,0.244913 -0.032816,0.853547 -0.1992033,0.868175 C 4.0497894,12.973011 4.5793558,12.25658 4.5752258,11.912527 4.5313438,11.513925 4.343629,12.461136 4.2935208,12.621699 4.2526938,12.997667 3.5886714,12.749311 3.2909797,12.736666 3.133656,12.446804 2.9504639,12.171399 2.7916226,11.88206 2.9107238,11.590497 3.0918954,11.312039 3.151976,11.005489 c -0.190998,0.258888 -0.5594291,0.778549 -0.3383003,1.148298 0.1429178,0.256105 0.2989013,0.504603 0.4488049,0.756626 0.5412225,0.02382 1.0822396,0.05439 1.623897,0.06648 z m 0.5035147,-0.0057 C 5.9206956,12.70704 5.5131269,11.801434 5.1222557,12.23183 4.9388103,12.556279 5.544869,11.912911 5.19554,12.323222 5.0153198,12.498864 5.0026436,13.076761 5.3897412,12.884759 Z m -0.1934571,-0.08946 c -0.2738666,-0.408019 0.5989102,-0.754729 0.3306611,-0.158219 -0.047813,0.08983 -0.2309074,0.287656 -0.3306611,0.158219 z m 0.2364652,-0.202196 c 0.040661,-0.482925 -0.3104273,0.228335 0,0 z m -0.1088128,0.0047 c 0.00638,-0.299628 0.1822603,0.0015 0,0 z m -0.7168001,0.192977 c 0.040545,-0.275073 0.2326519,-0.729934 0.1225528,-0.916101 0.00104,0.178481 -0.3586341,0.94873 -0.1225528,0.916101 z M 4.2411835,12.25874 c 0.1039383,-0.173886 0.2193297,-0.894036 0.024413,-0.3672 -0.035748,0.228144 -0.3816746,0.802614 -0.2075968,0.863202 0.079278,-0.1579 0.1263888,-0.329342 0.1831859,-0.496002 z M 3.558319,12.585101 C 3.668063,12.206842 4.0404952,11.78109 3.9970466,11.43829 3.7326391,11.826312 3.5519042,12.292831 3.379293,12.725723 c 0.1151645,0.08542 0.1450315,-0.06398 0.179026,-0.140622 z m 0.4479701,-0.397033 c 0.1021104,-0.175715 0.3070721,-0.960094 0.052923,-0.419705 -0.054647,0.285238 -0.4318975,0.834222 -0.2879615,0.973587 0.1023521,-0.173013 0.1597239,-0.368519 0.2350373,-0.553882 z m 3.6454461,0.421822 c 0.08032,-0.310372 0.4795724,0.01179 0.2311988,-0.296787 -0.1726958,-0.126902 -0.3516187,-0.191787 -0.5251377,-0.03552 -0.1930149,0.123198 0.3368343,0.258499 0.2861275,0.384893 l 0.00781,-0.05259 z m -4.3075757,0.02287 c 0.1603459,-0.416488 0.3867566,-0.817104 0.5158363,-1.239875 -0.2600776,0.215988 -0.3746648,0.759293 -0.5519862,1.10947 -0.044342,0.03564 -0.039441,0.221671 0.036147,0.130405 z m 3.7093009,-0.251912 c 0.2054844,-0.08058 0.683722,-0.43059 0.1935933,-0.152688 -0.1597816,0.08457 -0.9532071,0.535344 -0.4320711,0.284769 0.079757,-0.04355 0.159124,-0.0878 0.2384778,-0.132081 z m -3.8327682,0.0043 c 0.1213683,-0.350668 0.454583,-0.778854 0.4040093,-1.107 -0.1680175,0.379985 -0.3790359,0.764152 -0.4852357,1.159076 0.035527,0.02463 0.064989,-0.03492 0.081226,-0.05203 z m 3.2093611,-0.0609 c 0.2213809,-0.114693 0.257556,-0.588679 0.062627,-0.168306 -0.089394,0.330777 -0.603921,-0.135262 -0.3189902,0.217115 0.085331,0.0435 0.1864234,0.0042 0.2563635,-0.04881 z m -0.5578005,-0.11653 c 0.2456888,-0.272831 -0.2076478,-0.521734 0.080853,-0.761687 -0.020677,-0.484917 -0.8038352,-0.327326 -0.5491456,0.06652 -0.1232575,-0.451285 0.6419559,-0.210213 0.3556474,0.08016 -0.1798172,-0.175278 -0.5744122,0.08312 -0.4477909,0.21447 0.2656373,-0.466713 0.7390022,0.240473 0.4143467,0.480375 0.058351,-7.98e-4 0.1051945,-0.04411 0.1460894,-0.07984 z M 3.1137201,12.132594 C 3.187854,11.830603 3.5502333,11.423725 3.442005,11.17604 3.3526715,11.484912 2.9678041,12.014298 3.0784713,12.203015 Z m 2.9333122,0.01329 c 0.045556,-0.236018 -0.017801,-0.492413 0.022517,-0.721544 0.077482,-0.264585 0.5693408,-0.136685 0.2150477,-0.431289 -0.2154482,0.104188 -0.3451659,0.228933 -0.5854231,0.07872 0.4962355,0.118444 0.1716843,0.972181 0.3478562,1.074093 z m 2.6200025,-0.06581 C 8.7757673,11.817399 9.1492956,12.0162 8.8289344,11.75663 8.6309867,11.578605 8.452571,11.69999 8.2457495,11.791127 c 0.1382223,0.107324 0.3757622,0.218602 0.4075332,0.342375 l 0.013752,-0.05343 z M 7.8910454,11.93869 c 0.1817396,-0.07835 0.8848624,-0.491237 0.3472048,-0.22765 -0.1120239,0.0643 -0.8303992,0.413739 -0.5450844,0.331687 0.066981,-0.0327 0.1325086,-0.06826 0.1978796,-0.104037 z M 3.1496437,11.567328 c 0.1094864,-0.157626 0.2876278,-0.727967 0.035024,-0.287661 -0.053279,0.179948 -0.3940467,0.681577 -0.231454,0.694725 0.072424,-0.132175 0.1342347,-0.269887 0.1964321,-0.407064 z m 2.0292239,0.361179 C 4.8238139,11.606979 4.3202336,11.455552 3.9038898,11.205894 3.626871,11.135992 3.1420113,10.647003 2.9876539,10.849006 c 0.6862755,0.411802 1.4237841,0.740444 2.1213766,1.135462 0.036901,0.02722 0.081878,-0.01778 0.069837,-0.05596 z m 0.2127199,0.05119 c -0.033963,-0.0477 -0.033969,0.0477 0,0 z m 1.1304462,-0.103151 c 0.056137,-0.28773 0.083385,-0.986938 -0.2317171,-0.949714 0.3459743,0.221619 0.066283,0.83349 0.19578,1.021472 l 0.035938,-0.07176 z m -1.1570359,0.04997 c -0.033969,-0.0477 -0.033969,0.04769 0,0 z m 1.9322413,-0.06478 c 0.2701083,-0.03245 0.6326502,-0.864777 0.2780848,-0.34442 -0.082186,0.333665 -0.5775663,0.192371 -0.6239138,0.316157 0.089888,0.10855 0.2341786,0.08588 0.345829,0.02826 z m -0.6147093,-0.02579 c 0.2854166,-0.23291 0.8646599,-0.284742 0.9695072,-0.61281 -0.3288756,0.01029 -0.7441092,0.556038 -0.9965569,0.33719 -0.1103482,-0.121086 -0.04582,0.409006 0.02705,0.27562 z m 0.011967,-0.06896 c 0.033969,-0.0477 0.033969,0.0477 0,0 z M 4.9927386,11.69385 c 0.1944078,-0.523377 0.4467181,-1.041745 0.5773491,-1.578583 -0.2635708,0.252464 -0.3116069,0.750423 -0.4958528,1.094046 0.00448,0.09177 -0.2903764,0.522378 -0.081496,0.484537 z m 2.3314907,-0.0781 c -0.046844,-0.05044 0.01677,0.153436 0,0 z m 2.3266359,-0.03883 c 0.2728298,-0.19208 0.4409488,-0.2378 0.016629,-0.411915 -0.1964615,-0.114957 -0.6443469,0.185422 -0.1960334,0.265966 0.1657045,-0.02833 0.1029649,0.353875 0.1794044,0.145949 z M 8.6501894,11.54387 c 0.1928615,-0.12814 0.7804235,-0.381433 0.7401982,-0.424921 -0.2348005,0.136995 -0.701915,0.306336 -0.7968187,0.447863 z M 6.9289246,11.4525 c 0.099142,-0.13989 0.3864211,-0.250139 0.032957,-0.127099 -0.06102,-0.191353 0.1499028,-0.486039 0.1370009,-0.362019 -0.066201,-0.04991 0.3065442,-0.492015 0.5379454,-0.282534 0.088503,0.123609 0.1656915,0.496451 0.1577519,0.111044 -0.2005847,-0.619934 -0.9146558,-0.03139 -0.9260451,0.400107 -0.048372,0.06036 -0.059345,0.532092 0.060394,0.260501 z m -0.2876082,0.0087 c -0.063679,-0.10623 -0.042409,0.09888 0,0 z m 1.7630002,-0.177449 c 0.2471793,-0.08834 0.5161135,-0.692079 0.152289,-0.22402 -0.1356362,0.227088 -0.4198021,0.157284 -0.5766818,0.143742 0.081441,0.165277 0.2850983,0.163929 0.4243928,0.08028 z m -1.0450709,-0.0087 c 0.3796578,-0.150513 -0.2224249,-0.436461 -0.1479021,-0.01043 0.00666,0.09382 0.1105788,0.05475 0.1479021,0.01043 z M 8.0180164,11.110388 C 8.5941369,10.876869 9.1383239,10.554273 9.7114119,10.327195 9.599575,9.9696132 9.028069,10.523971 8.7659942,10.583032 c -0.3994702,0.23438 -0.8377641,0.391737 -1.2472086,0.601251 0.1667981,0.02055 0.3382298,-0.03458 0.4992308,-0.0739 z m 2.7315786,-0.173125 c 0.436375,-0.02677 -0.104857,-0.393333 -0.260321,-0.293792 -0.334931,0.08376 -0.231643,0.199618 0.02902,0.299314 0.164586,0.158184 0.025,0.279514 0.182236,0.02625 z m -3.1484948,0.106062 c 0.2511927,-0.205361 -0.3205587,0.143159 0,0 z m 2.2162821,-0.103999 c 0.1903717,-0.07562 0.6157667,-0.36019 0.1739435,-0.135777 -0.1898026,0.08339 -0.762336,0.42463 -0.1739435,0.135777 z m -1.8320104,-0.07196 c 0.125056,-0.138278 0.3834897,-0.271724 0.026645,-0.124094 -0.067014,-0.331701 0.4679904,-1.0110192 0.7440436,-0.543011 0.00685,0.259719 0.1288584,0.358208 0.097417,0.048 -0.089219,-0.628607 -0.877652,-0.197082 -0.9074233,0.244617 -0.027878,0.04333 -0.1201317,0.600696 0.039312,0.374488 z m -1.748626,-0.09463 C 7.8228681,9.9317446 9.398902,9.0707399 11.010626,8.2789448 c -0.01129,-0.569967 0.01078,-1.142287 -0.03999,-1.710182 -0.07392,0.5208728 -0.0031,1.0554855 -0.05075,1.5791603 -0.362209,0.2437406 -0.779808,0.4199573 -1.1675479,0.6317184 V 7.2068046 C 9.529752,7.1439577 9.648476,7.4224234 9.6193899,7.5530783 9.617243,7.9783065 9.6261862,8.4039499 9.6072325,8.8287928 9.3933926,8.803509 9.1780885,8.5084359 8.972947,8.6830571 7.8227087,9.2948068 6.6750005,9.9121555 5.526422,10.526457 c -0.1793333,0.232919 0.583756,0.482115 0.7103221,0.246275 z m -1.3733287,0.03514 C 5.3956303,10.588251 4.9666783,9.8251498 5.4876358,9.6663012 5.7300313,9.5735232 5.558992,9.5294727 5.7877282,9.4708107 5.9957011,9.2807242 6.147056,9.1769607 5.7582792,9.2058113 5.6218125,8.9276597 6.0577178,8.840668 5.6928202,8.6118682 5.5271777,8.4077517 5.3358718,8.898492 5.0501503,8.8016254 4.9675023,9.0318023 4.3795517,9.0433953 4.7808811,9.3350788 5.0863739,9.7147673 5.2747362,10.406742 4.8088581,10.740084 4.3381884,10.959987 3.9243895,10.438006 3.8158729,10.028571 3.6246903,9.6539169 3.7848479,9.0654354 4.1021176,8.946187 3.6033414,8.970821 3.6607555,9.6325552 3.759085,9.9877837 3.8621885,10.467098 4.3151601,11.05116 4.8634172,10.807873 Z M 5.065861,9.092566 c -0.1556345,-0.6495017 0.564476,0.098295 0,0 z M 5.243102,9.024473 c -0.075609,-0.445887 -0.2527985,0.1642636 0,0 z M 5.152279,8.960176 c 0.054058,-0.058358 0.060198,0.088977 0,0 z M 3.4291146,10.736527 C 3.5056436,10.541962 3.7605161,9.9678868 3.6529527,9.9273382 3.5759447,10.162523 3.2276896,10.755626 3.3933456,10.805317 l 0.035767,-0.06879 z m 5.9988373,0.0052 c 0.2278246,-0.03464 0.536959,-0.634567 0.1773681,-0.214033 -0.077247,0.251825 -0.8057552,0.08247 -0.3690806,0.294953 0.067236,-0.01852 0.1291736,-0.051 0.1917125,-0.08092 z M 8.383724,10.68925 C 8.5242949,10.652588 8.9434186,10.285338 8.5399878,10.487761 8.3530602,10.19598 8.1336016,10.893815 8.383724,10.68925 Z m 2.010712,-0.06531 c 0.271376,-0.205922 -0.393804,0.205483 0,0 z m -5.9600868,-3.02e-4 c -0.07563,-0.128339 -0.06888,0.131782 0,0 z m 0.3190798,0 c -0.067282,-0.138459 -0.054186,0.133481 0,0 z m 6.891684,-0.08446 c 0.119296,-0.288264 0.48449,-0.04864 0.159692,-0.321518 -0.191354,-0.166414 -0.386115,-0.07904 -0.580402,0.03774 0.159707,0.0029 0.404851,0.418302 0.42071,0.283778 z m -7.4234837,-0.0219 c -0.033969,-0.04769 -0.033969,0.0477 0,0 z M 11.071709,10.27639 c 0.206421,-0.07922 0.666071,-0.3909409 0.181985,-0.141336 -0.217445,0.129546 -0.519077,0.249215 -0.687693,0.386411 0.174501,-0.06855 0.338376,-0.161155 0.505708,-0.245075 z m -6.0922656,0.121237 c -0.1318363,-0.05103 0.00613,0.173439 0,0 z M 4.6391307,10.372109 C 5.0228804,10.072024 4.6708177,9.2958382 4.1850451,9.3766022 3.9518743,9.4018552 3.8936413,9.8461278 4.1134171,9.4996665 4.5791741,9.338279 4.9657264,10.299912 4.4195158,10.415378 c 0.075055,0.01814 0.1541446,-0.0073 0.219615,-0.04327 z m -0.2668249,0.0078 c -0.08153,-0.03134 -0.00864,0.0599 0,0 z m 4.6834539,-0.05408 c 0.1562025,-0.144785 0.3363,-0.241265 0.011802,-0.125502 C 8.9894355,9.8008547 9.6614068,9.1567962 9.8275535,9.7581269 9.893084,10.358117 10.036751,9.2178103 9.580449,9.3867773 9.1467973,9.4227034 8.8659492,10.033855 9.0134802,10.38905 l 0.025811,-0.01635 0.016463,-0.04686 z m -5.02026,-0.03299 c -0.064308,-0.138226 -0.060756,0.09344 0,0 z m -0.2393095,-0.01361 c -0.057419,-0.3207048 -0.206329,0.07932 0,0 z m 0.6526625,-0.05322 C 4.8047768,9.8341487 3.8959053,9.3051491 3.9667667,9.9552551 4.0037537,10.153679 4.253637,10.413121 4.4488527,10.225999 Z m 5.478238,-0.03034 c 0.1914003,-0.3632964 0.2099633,0.250838 0.5192833,0.02251 0.436585,-0.189137 0.680164,-0.8101123 0.434115,-1.227272 -0.441865,-0.3863493 -0.9332614,0.3389879 -0.84802,0.767827 0.08493,0.245523 -0.1849117,0.251519 -0.31417,0.375249 0.09542,0.104486 0.032675,0.187772 0.2087917,0.06168 z m -0.094977,-0.05065 c 0.033969,-0.0477 0.033963,0.0477 0,0 z m 0.3479613,-0.0563 C 10.070432,9.9454391 10.654471,9.6804752 10.450095,10.057231 10.647002,9.7212047 10.211758,9.8293416 10.10582,9.9104484 9.9554323,9.6668722 10.132186,9.7806552 10.109685,9.6796981 10.00532,9.2690269 10.66669,8.6585935 10.87993,9.2070632 11.000352,9.6052164 10.628061,10.297498 10.18009,10.088717 Z m 0.434934,-0.4149356 c 0.241551,-0.4311939 -0.470462,-0.2566966 -0.164555,0.040864 0.05425,0.034908 0.131469,0.012771 0.164555,-0.040864 z M 9.4319396,10.173208 C 9.8942022,9.9017525 9.1202223,9.8336126 9.3910943,10.208048 Z m -4.386021,-0.02819 c -0.067282,-0.138459 -0.054187,0.13348 0,0 z m 0.620859,-0.08062 c -0.4388753,-0.1378366 -0.074366,0.162531 0,0 z M 6.2284032,9.8943301 c 0.069046,-0.2720693 0.065266,-0.746921 -0.1704735,-0.8717549 0.1786371,0.2922687 0.1036218,0.9321949 0.074934,1.0559738 0.04114,-0.05613 0.072116,-0.1189411 0.09554,-0.1842189 z M 3.9291398,10.078549 c -0.071593,-0.1071588 -0.062665,0.103524 0,0 z M 4.9838752,9.9544614 c -0.054205,0.00802 0.02345,0.072545 0,0 z M 9.8002137,9.8950549 C 9.6904997,9.8492595 9.513439,10.102327 9.7662505,9.926632 Z M 3.8521298,9.8579539 c -0.1254553,-0.053874 0.037834,0.1288424 0,0 z M 3.6366503,9.6515402 c 0.067115,-0.3842441 -0.5486212,0.1422633 -0.067223,0.1617297 0.099524,0.056205 0.049414,-0.1244076 0.067223,-0.1617297 z m 1.3294986,0.094634 c -0.07563,-0.1283394 -0.068881,0.1317811 0,0 z m -0.5214776,-0.09635 c -0.2846266,-0.2002172 0.07131,0.2464881 0,0 z M 7.0694753,9.5148296 C 7.2417804,9.2768002 7.1333196,8.4867048 6.9514291,8.5695677 7.1236343,8.8953341 7.0906874,9.4591292 6.9694442,9.6548884 l 0.049194,-0.056861 z m 4.4617697,0.1263392 c 0.433981,-0.1151602 0.400896,-1.100497 -0.111587,-0.7081697 -0.233645,0.1477734 -0.342181,0.8888365 0.111587,0.7081697 z M 11.322088,9.5219039 c -0.282313,-0.4939397 0.722887,-0.8037022 0.361416,-0.20496 -0.05582,0.1373206 -0.19821,0.3664995 -0.361416,0.20496 z M 11.61438,9.3060557 c 0.0589,-0.6006744 -0.402119,0.266409 0,0 z m -0.133687,-0.035251 c 0.09589,-0.2445062 0.126458,0.1237268 0,0 z M 3.8255395,9.5920483 c -0.1254547,-0.053874 0.037834,0.1288399 0,0 z M 4.8331987,9.4802684 c -0.07563,-0.1283394 -0.06888,0.1317818 0,0 z M 9.5324221,9.3445493 c -0.1311775,-0.045409 -0.018997,0.054702 0,0 z M 3.8759598,9.2941413 c -0.067281,-0.1384627 -0.054187,0.1334777 0,0 z m 0.7711093,0.013292 c -0.071594,-0.1071555 -0.062664,0.1035242 0,0 z M 4.0620894,9.1478922 c -0.063679,-0.1062299 -0.042409,0.098886 0,0 z m 0.3190798,0.00442 c -0.081071,-0.1667662 -0.090248,0.1020295 0,0 z m 1.9794194,-0.00196 c -0.067496,-0.052929 -0.123901,0.079837 0,0 z M 7.9731159,9.0500492 C 8.1941042,8.8141979 7.920794,7.9497276 7.8757936,8.0863624 c 0.130539,0.3159019 0.078324,0.8727185 0.046421,1.0542643 l 0.05093,-0.090582 z m 3.2682661,0.041502 c -0.06676,-0.065169 -0.05053,0.1431011 0,0 z M 5.9233878,9.0681012 C 6.0260502,8.8964106 6.5997797,8.8059086 6.8473676,8.5924177 6.7762516,8.5838548 5.8182705,9.1099071 6.4221848,8.7504119 6.8404835,8.5669125 7.1528682,8.3762279 7.5422881,8.1485174 7.7358452,8.002042 8.1846372,7.9103764 8.250064,7.814974 7.7029015,8.06018 8.4875298,7.6509177 8.6576573,7.5723386 9.1309382,7.2427951 8.1799301,7.7438518 8.0144992,7.8370234 7.2830104,8.2056562 6.5825988,8.6415542 5.8285343,8.9617412 c -0.1548395,-0.020432 0.024106,0.2127714 0.094854,0.10636 z m 0.3855543,-0.02659 c 0.00221,-0.1018767 -0.1216057,0.1073003 0,0 z M 4.5141195,8.9727952 C 4.6862731,8.8631395 5.2377281,8.5334089 4.7051322,8.778199 4.5603798,8.8861691 4.4120722,8.8998973 4.2594207,8.798435 4.0631996,8.6847119 3.7139369,8.6573831 4.1054184,8.823283 4.2343485,8.778788 4.4671789,9.1195105 4.5141195,8.9727941 Z m 2.0740169,0.055419 c -0.033969,-0.047697 -0.033963,0.047697 0,0 z m 0.15954,-0.07977 c -0.033969,-0.047697 -0.033963,0.047697 0,0 z M 11.899484,8.4931896 C 11.963532,8.225441 11.258366,8.7238798 11.058332,8.811783 11.024425,9.0575558 11.799437,8.5031724 11.899484,8.4931896 Z M 6.7959425,8.4437138 C 6.7241536,8.2538708 6.5087483,7.969343 6.5194722,8.3418427 6.396525,8.6718745 5.6959227,8.3181046 5.756605,8.4391269 5.9042961,8.5935647 5.3008817,8.1406133 5.6402573,8.4743229 5.8296354,8.7916761 6.0592454,8.9571321 6.3727428,8.6671115 6.5140326,8.5931035 6.65651,8.521193 6.7959425,8.4437156 Z M 6.9322939,8.856873 c -0.00288,-0.3918256 -0.1679653,0.065255 0,0 z M 4.5583195,8.7157764 c -0.046127,-0.0086 0.027915,0.1776753 0,0 z m 2.1893569,0.073122 c -0.033969,-0.047697 -0.033963,0.047697 0,0 z M 4.3821046,8.7086452 C 4.8242083,8.524068 3.8865285,7.8053291 4.4265196,8.1819887 4.4590966,8.4868968 5.0987811,8.0697237 4.7341543,7.9973447 4.5584719,7.8403081 4.6821633,8.2093721 4.7614503,8.1091834 4.4771991,8.4654492 4.350679,7.7183239 4.0340742,8.1071634 3.7609622,8.3056582 4.0684852,8.8863853 4.3821053,8.7086223 Z M 4.1496006,8.6291292 C 3.7742451,8.3458355 4.2212326,7.9264419 4.3794401,8.4138373 4.4849609,8.5704422 4.3065591,8.7492927 4.1496006,8.6291292 Z m 0.2005153,-0.04893 c -0.040128,-0.3174083 -0.458914,-0.1606151 -0.1343696,0.040355 0.041986,0.028197 0.1265551,0.024548 0.1343696,-0.040355 z m 4.5364694,-0.064623 c 0.09742,-0.196981 0.016979,-0.9155605 -0.1333317,-0.7933813 0.1599367,0.2794263 0.080652,0.7988748 0.039717,0.9622735 0.04355,-0.048684 0.071824,-0.1081148 0.093617,-0.1688922 z M 5.2952723,8.64032 C 5.6415797,8.686011 5.4369615,8.0138343 5.3916303,8.4754326 5.256251,8.6021121 4.7403859,8.6239419 5.2108905,8.6599029 l 0.084382,-0.019579 z M 9.5219982,8.6176861 C 9.2585893,8.6070071 9.2498106,8.4294066 9.2687182,8.2194764 9.298725,7.8527629 9.1522398,8.5432805 9.2918797,8.5829513 9.3305107,8.5986785 9.5547923,8.7066854 9.521997,8.6176873 Z M 11.519119,8.4975814 c 0.116522,-0.095021 0.39187,-0.089767 0.360423,-0.278208 -0.0073,-0.1541274 0.02126,-0.6482033 -0.02907,-0.5778117 -0.09853,0.2193445 0.124201,0.6295036 -0.144068,0.7303657 -0.240408,0.1195379 -0.646576,0.3934265 -0.5182,-0.1148283 0.02628,-0.1969031 -0.05624,-0.4885235 -0.05137,-0.1260454 0.04626,0.388625 -0.153528,0.7171626 0.382291,0.3665277 z M 4.8527025,8.3442189 c -0.030743,-0.013206 0.00851,0.4646548 0.00313,0.051966 z M 7.137663,8.5717466 c -0.054205,0.00802 0.02345,0.072544 0,0 z m 3.25598,-0.1965652 C 10.57924,8.2948199 11.090739,8.0004994 10.628676,8.2216012 10.441188,8.317728 9.9298264,8.5543454 9.9299099,8.5964507 10.086788,8.5276625 10.240275,8.4513947 10.393643,8.3751814 Z M 7.7161942,8.4350602 C 7.9870238,8.3628879 7.727094,8.049658 7.7587018,8.3302239 7.5806064,8.4253662 7.5062774,8.3262369 7.545371,8.5060793 7.6064152,8.4933024 7.6615439,8.46359 7.7161942,8.4350602 Z M 7.1613863,8.4151742 c 0.1271237,-0.1088951 -0.2597341,0.1365612 0,0 z m 0.3126804,0.00448 c -0.05131,-0.1075069 -0.105841,0.1197502 0,0 z m 2.5970753,-0.029261 c -0.01875,-0.2551263 0.653509,-0.4478547 0.625146,-0.3689187 -0.114444,0.072188 -0.399586,0.2015097 -0.403841,0.1704177 -0.222788,0.2791269 0.863521,-0.3358185 0.300205,-0.2391298 -0.110069,0.03887 -0.9147218,0.4156164 -0.52151,0.4376308 z m -0.0529,-0.055088 c 0.05846,-0.096187 0.05037,0.1292822 0,0 z m 0.42544,-0.1845608 c 0.03397,-0.047697 0.03396,0.047697 0,0 z M 7.057729,8.3013586 C 7.2527944,8.2306066 7.9927491,7.7896338 7.4407623,7.8791421 7.2577143,7.7511774 6.6476907,7.9872803 6.8001589,8.1620745 6.6114856,7.9326227 6.4366319,7.9637256 6.7036371,8.1953445 6.8210601,8.3790592 6.8560795,8.4591122 7.057729,8.3013586 Z m 0.195158,0.062106 c -0.033969,-0.047691 -0.033969,0.047691 0,0 z M 6.362122,8.3175956 C 6.5795705,8.1825458 6.5375677,7.96307 6.3265702,8.2337326 6.1376031,8.4171437 5.731466,8.0663015 5.7277022,8.1789636 5.8762024,8.3802334 6.1457807,8.3470933 6.3621239,8.3175962 Z M 7.5090794,8.230713 C 8.0469173,7.9128508 7.0461685,8.4347302 7.3846626,8.3011396 l 0.054297,-0.030498 z M 5.4119825,8.23372 C 5.5715114,7.9696308 5.4414005,7.5285902 5.6624355,7.2228558 5.4712442,7.4789899 5.3930197,7.7975827 5.418179,8.1135742 5.2365559,8.2004192 4.6880789,8.2202236 5.1785235,8.2878071 5.2581555,8.2814471 5.3394153,8.2689581 5.4119825,8.23372 Z m 0.1989739,-3.012e-4 c 0.1479003,-0.1617175 -0.2465021,0.1160183 0,0 z m 2.4928089,-0.029461 c -0.033969,-0.047697 -0.033969,0.047691 0,0 z M 5.8051931,7.8655336 c -0.1457847,-0.053493 0.07812,0.5551169 0.028314,0.080997 z m 0.6424847,0.066178 c -0.039379,0.086689 0.022321,0.2356286 3.92e-5,0 z m 1.6294978,0.1525271 c 0.090787,-0.092626 -0.2145582,0.099118 0,0 z M 10.291124,7.9081682 C 10.490314,7.7583584 10.937122,7.725476 10.842533,7.3889067 11.052903,6.2714827 10.133345,6.9644811 9.8650007,7.372763 9.9042147,7.6166 9.6894637,8.3501246 10.13274,7.9868571 l 0.07673,-0.037981 c 0.02721,-0.013559 0.0545,-0.02717 0.08165,-0.040708 z M 9.8865036,7.9845262 C 10.072805,7.8331971 10.453392,7.742468 10.052812,7.9440918 10.008323,7.9503728 9.9219671,8.0478221 9.8865036,7.9845262 Z M 9.5263294,7.5244786 V 6.9824464 C 9.1460035,6.6470652 9.2133809,7.2328269 9.2205447,7.49519 9.2377072,7.6493855 9.1862871,7.8546251 9.2460615,7.9771054 9.6855012,8.2491324 9.4729059,7.8148666 9.5263312,7.5244786 Z m -0.179483,0.3959052 c -0.1532686,-0.060817 -0.036779,-0.310298 -0.073122,-0.45289 -0.081203,-0.2062321 0.06182,-0.7595396 0.2127199,-0.384998 -0.013114,0.2840561 0.033154,0.5799106 -0.032295,0.854807 l -0.024885,0.00749 z m 1.3627366,0.07079 c -0.03397,-0.047697 -0.03396,0.047697 0,0 z M 4.4957246,7.9532294 C 4.8477973,7.6769743 4.0966868,7.6013273 4.3604963,7.9364901 l 0.063841,0.03811 z M 4.811045,7.9047594 C 4.780314,7.7490765 4.6143364,7.1382898 4.5437626,7.2747431 4.7453618,7.4662122 4.5608206,8.0241667 4.811045,7.9047594 Z M 7.8511612,7.8577067 C 8.0681644,7.7742507 8.8927082,7.4264159 8.2997741,7.3471866 7.933047,7.1722587 7.4974662,7.6387702 7.7615694,7.9100249 c 0.041416,0.014819 0.042796,-0.071332 0.089592,-0.052316 z M 6.3969072,7.8076851 C 6.6882625,7.6569148 6.2918593,7.1494696 6.1573793,7.4992635 6.0002592,7.6904676 6.6844099,7.5838625 6.2667288,7.7113835 5.9496677,7.8364946 5.7714354,7.6076065 5.961525,7.3663139 5.393492,7.7017877 6.0415738,7.9983378 6.3969072,7.8076851 Z M 11.560795,7.6719323 c 0.191601,-0.062208 0.601419,-0.3692775 0.166251,-0.1602576 -0.16199,0.047617 -0.930783,0.5018064 -0.39328,0.2716498 0.07602,-0.036429 0.15165,-0.073657 0.227029,-0.1113922 z m -3.0729849,0.050617 c 0.4708782,-0.2711142 -0.5097129,0.223783 0,0 z M 7.523751,7.7019393 C 7.8355094,7.222067 7.184776,7.9023589 6.9560798,7.6477343 6.8221506,7.5677553 6.5831938,7.3639334 6.7577758,7.6496343 6.958196,7.8035096 7.2932527,7.772303 7.523751,7.7019443 Z m 1.4840744,0.04993 c -0.033969,-0.047697 -0.033963,0.047697 0,0 z M 11.926829,7.1494223 C 11.676152,6.9949527 11.262778,6.6805622 11.037122,6.7247892 c 0.196002,0.1985598 0.473495,0.2841309 0.713762,0.4180509 -0.22009,0.124856 -0.499342,0.184317 -0.668224,0.3719353 0.129562,0.1372642 0.652196,-0.2685399 0.844169,-0.3653531 z M 6.8806272,7.4992647 C 6.8291948,7.3132866 6.7358975,6.9255082 6.7526325,7.3615877 c -0.022481,0.054383 0.1048572,0.290566 0.1279947,0.137677 z M 7.5381564,7.2400121 c -0.034411,0.057628 0.018009,0.4146546 0,0 z m 1.4164884,0.2209368 c -0.066839,-0.2735101 -0.055346,0.2219882 0,0 z M 6.1880731,7.3810725 c 0.074152,-0.4809033 -0.3918164,0.1318437 0,0 z m 5.6914699,-0.056211 c -0.07572,-0.2234823 -0.04583,0.2585669 0,0 z M 6.8722011,7.2815628 c -0.04685,-0.050439 0.01677,0.1534324 0,0 z m -1.4752729,-0.0515 C 5.7681931,7.2459988 5.999493,6.7743152 5.8244326,6.5940091 5.8703323,7.1917797 5.0351132,7.2236255 4.630512,7.0502709 4.3981821,7.0727147 4.4833171,6.3285362 4.3223768,6.6352477 4.1963781,7.2535404 4.9819455,7.3083219 5.3969282,7.2300628 Z m 3.077196,-0.062184 C 8.8231176,6.7499282 8.1342997,7.3527586 7.9570783,7.0319282 7.5214937,6.8863024 8.3077653,7.3468051 8.4741242,7.1678788 Z M 7.4590669,7.0992234 C 7.950158,6.9531596 7.1041347,6.3151859 7.4506942,6.7680458 7.6439882,7.1847749 6.4819341,7.0785057 6.9836951,6.6360684 6.7432538,6.4625494 6.5567164,7.2391282 7.0486686,7.1524408 c 0.1384585,0.029185 0.2825803,0.00448 0.4103983,-0.053217 z m 2.4661119,-0.025394 c 0.02283,-0.096061 -0.08344,0.099337 0,0 z M 8.376313,7.0296286 c -0.1654664,-0.026376 -0.00209,0.04601 0,0 z M 9.7922286,6.9933346 C 10.308211,6.6995741 10.86614,6.4728347 11.361158,6.1465734 11.106992,5.5732793 10.541007,5.1596104 9.9591408,4.9443401 9.8090851,4.8141771 8.9634488,4.8810049 9.5420271,4.9409661 10.226033,5.0364029 10.849314,5.4910569 11.208504,6.0689827 10.736021,6.3444057 10.242897,6.5875023 9.7554052,6.8345191 9.2582458,6.3661307 8.7210815,5.8649512 8.0206784,5.7429904 7.8570282,5.5903486 7.144371,5.873557 7.5797525,5.8903914 c 0.8412071,-0.094027 1.5471072,0.5213108 2.0623652,1.1125384 0.041293,0.044207 0.1113903,0.026357 0.1501109,-0.0096 z M 7.9822075,6.9076415 C 7.9718842,6.546798 7.7941396,6.9228166 7.9763803,7.0163967 l 0.010483,-0.033969 z m 2.1158055,0.073123 c -0.03397,-0.047697 -0.03397,0.047691 0,0 z m -2.7653564,-0.02659 c -0.033969,-0.047691 -0.033963,0.047697 0,0 z M 8.5028693,6.8212252 c -0.073274,-0.2270394 0.04325,0.3282456 0,0 z m 1.302655,-0.066475 c -0.042673,-0.00761 -0.3691486,-0.2645399 -0.1015595,-0.00989 0.020542,0.037079 0.074744,0.040686 0.1015595,0.00989 z M 5.518075,6.6459893 C 6.1268345,6.522484 5.7582084,5.7954619 5.2752275,5.8658854 4.9099768,5.7548766 4.0520299,6.0447108 4.4468065,6.5054527 4.7330235,6.7592333 5.1726245,6.7559118 5.518075,6.6459893 Z M 4.8684684,6.5423866 C 4.4216742,6.5452086 4.3989544,6.0279868 4.8482144,6.0092172 5.3246762,5.7802315 6.1393359,6.4030645 5.2908799,6.5387204 5.1516872,6.5606428 5.0076488,6.5691996 4.8684672,6.5424004 Z M 7.6590848,6.4262677 C 7.5269498,6.0375108 7.9021937,6.0575784 7.8910466,6.3559 8.075414,6.0260424 7.4370869,5.9332597 7.5985565,6.3031365 7.56939,6.5502042 7.6739294,7.0213258 7.6590854,6.4262658 Z M 10.629814,6.688275 c -0.03397,-0.047697 -0.03397,0.047691 0,0 z M 7.2743304,6.5371213 c -0.131864,-0.4422797 -0.3842,0.3175954 -0.00688,0.054162 z M 9.0344151,6.0102299 c 0.035509,-0.091707 -0.3069918,0.1000574 0,0 z m 1.0104189,0.014862 c -0.09964,-0.121145 -0.02271,0.052561 0,0 z M 9.7257547,5.7576227 c -0.033969,-0.047691 -0.033969,0.047691 0,0 z M 8.2135038,5.5169999 C 8.5061258,5.3664375 9.129201,5.0630554 9.2042096,4.9795993 8.7537455,5.1968871 8.2989288,5.410229 7.8683489,5.6645579 7.9884064,5.6292821 8.1002162,5.5692101 8.2135038,5.5169999 Z"
       id="path1"
       sodipodi:nodetypes="ccccccccccccccccccccccccccccccccccccccccccccccccccccccccccccccccccccccccccccccccccccccccccccccccccccccccccccccsccsscccccccccsccccccccccsccssccccccccccccccccccsccccscccccccccscccssccccccccccccccccccccccccccccccccccccccccccccsccssccccccccccccccccccccccccccscccccccccssccccccccccccccccccscccscccccccccccccccccccccccccccscccsscccccccccccccccccccccccccccccccccccccccccccccccccccccccccccccccccccccccccccccccccccccccccccccccccccccccccccccccccscccsscccccccsccccsscccccccccccccccccccccccccccccsccssccccccccccccccccccccccccccccccccccccccccccccccccccccccccccccccccccccccccccccccccsccccccccccccccscscccsccccccccccccccccccccccccccccccccccccccccccccccccccccccccccccccccccccccccccccccccccccccccccccccccccccccccccc" />
  </g>
</svg>
