<?xml version="1.0" encoding="UTF-8" standalone="no"?>
<!-- Created with Inkscape (http://www.inkscape.org/) -->

<svg
   width="15mm"
   height="15mm"
   viewBox="0 0 15 15"
   version="1.1"
   id="svg1"
   inkscape:export-filename="ghost-sign.png"
   inkscape:export-xdpi="96"
   inkscape:export-ydpi="96"
   inkscape:version="1.3.2 (091e20e, 2023-11-25)"
   sodipodi:docname="ghost-sign.svg"
   xmlns:inkscape="http://www.inkscape.org/namespaces/inkscape"
   xmlns:sodipodi="http://sodipodi.sourceforge.net/DTD/sodipodi-0.dtd"
   xmlns="http://www.w3.org/2000/svg"
   xmlns:svg="http://www.w3.org/2000/svg">
  <sodipodi:namedview
     id="namedview1"
     pagecolor="#ffffff"
     bordercolor="#000000"
     borderopacity="0.25"
     inkscape:showpageshadow="2"
     inkscape:pageopacity="0.0"
     inkscape:pagecheckerboard="0"
     inkscape:deskcolor="#d1d1d1"
     inkscape:document-units="mm"
     showguides="false"
     inkscape:zoom="3.9064393"
     inkscape:cx="26.366722"
     inkscape:cy="163.57607"
     inkscape:window-width="1792"
     inkscape:window-height="993"
     inkscape:window-x="13"
     inkscape:window-y="44"
     inkscape:window-maximized="0"
     inkscape:current-layer="layer1" />
  <defs
     id="defs1" />
  <g
     inkscape:label="Layer 1"
     inkscape:groupmode="layer"
     id="layer1">
    <ellipse
       style="fill:#000000;fill-opacity:0.143426;stroke:#c00707;stroke-width:0.165;stroke-dasharray:none;stroke-opacity:0.421348"
       id="path5"
       cx="7.4724536"
       cy="11.982809"
       rx="0.24757871"
       ry="0.26408395" />
    <rect
       style="fill:#8a8251;fill-opacity:1;stroke-width:7.11363;stroke-linecap:round;stroke-linejoin:round;stroke-opacity:0.320225"
       id="rect2"
       width="8.3276463"
       height="8.9353924"
       x="3.9039149"
       y="0.90183556"
       transform="matrix(0.95001104,0.3122163,0,1,0,0)" />
    <rect
       style="fill:#a84a3e;fill-opacity:1;stroke-width:2.69023;stroke-linecap:round;stroke-linejoin:round;stroke-opacity:0.320225"
       id="rect3"
       width="1.8871982"
       height="1.2168702"
       x="3.1551206"
       y="0.65913796"
       transform="matrix(0.95001104,0.3122163,0,1,0,0)" />
    <rect
       style="fill:#a84a3e;fill-opacity:1;stroke-width:2.69023;stroke-linecap:round;stroke-linejoin:round;stroke-opacity:0.320225"
       id="rect3-2"
       width="1.8871982"
       height="1.2168702"
       x="5.1824784"
       y="0.66069794"
       transform="matrix(0.95001104,0.3122163,0,1,0,0)" />
    <rect
       style="fill:#a84a3e;fill-opacity:1;stroke-width:2.69023;stroke-linecap:round;stroke-linejoin:round;stroke-opacity:0.320225"
       id="rect3-9"
       width="1.8871982"
       height="1.2168702"
       x="7.1646008"
       y="0.66465622"
       transform="matrix(0.95001104,0.3122163,0,1,0,0)" />
    <rect
       style="fill:#a84a3e;fill-opacity:1;stroke-width:2.69023;stroke-linecap:round;stroke-linejoin:round;stroke-opacity:0.320225"
       id="rect3-27"
       width="1.8871982"
       height="1.2168702"
       x="9.1585121"
       y="0.66490978"
       transform="matrix(0.95001104,0.3122163,0,1,0,0)" />
    <rect
       style="fill:#a84a3e;fill-opacity:1;stroke-width:2.69023;stroke-linecap:round;stroke-linejoin:round;stroke-opacity:0.320225"
       id="rect3-0"
       width="1.8871982"
       height="1.2168702"
       x="11.133349"
       y="0.66485882"
       transform="matrix(0.95001104,0.3122163,0,1,0,0)" />
    <rect
       style="fill:#a84a3e;fill-opacity:1;stroke-width:2.69023;stroke-linecap:round;stroke-linejoin:round;stroke-opacity:0.320225"
       id="rect3-97"
       width="1.8871982"
       height="1.2168702"
       x="4.1124067"
       y="1.9842217"
       transform="matrix(0.95001104,0.3122163,0,1,0,0)" />
    <rect
       style="fill:#a84a3e;fill-opacity:1;stroke-width:2.69023;stroke-linecap:round;stroke-linejoin:round;stroke-opacity:0.320225"
       id="rect3-2-0"
       width="1.8871982"
       height="1.2168702"
       x="6.1397643"
       y="1.9857814"
       transform="matrix(0.95001104,0.3122163,0,1,0,0)" />
    <rect
       style="fill:#a84a3e;fill-opacity:1;stroke-width:2.69023;stroke-linecap:round;stroke-linejoin:round;stroke-opacity:0.320225"
       id="rect3-9-3"
       width="1.8871982"
       height="1.2168702"
       x="8.1218872"
       y="1.9897401"
       transform="matrix(0.95001104,0.3122163,0,1,0,0)" />
    <rect
       style="fill:#a84a3e;fill-opacity:1;stroke-width:2.69023;stroke-linecap:round;stroke-linejoin:round;stroke-opacity:0.320225"
       id="rect3-27-9"
       width="1.8871982"
       height="1.2168702"
       x="10.115798"
       y="1.9899937"
       transform="matrix(0.95001104,0.3122163,0,1,0,0)" />
    <rect
       style="fill:#a84a3e;fill-opacity:1;stroke-width:2.69023;stroke-linecap:round;stroke-linejoin:round;stroke-opacity:0.320225"
       id="rect3-6"
       width="1.8871982"
       height="1.2168702"
       x="3.1369123"
       y="3.3395534"
       transform="matrix(0.95001104,0.3122163,0,1,0,0)" />
    <rect
       style="fill:#a84a3e;fill-opacity:1;stroke-width:2.69023;stroke-linecap:round;stroke-linejoin:round;stroke-opacity:0.320225"
       id="rect3-2-2"
       width="1.8871982"
       height="1.2168702"
       x="5.1642704"
       y="3.3411133"
       transform="matrix(0.95001104,0.3122163,0,1,0,0)" />
    <rect
       style="fill:#a84a3e;fill-opacity:1;stroke-width:2.69023;stroke-linecap:round;stroke-linejoin:round;stroke-opacity:0.320225"
       id="rect3-9-7"
       width="1.8871982"
       height="1.2168702"
       x="7.1463923"
       y="3.3450716"
       transform="matrix(0.95001104,0.3122163,0,1,0,0)" />
    <rect
       style="fill:#a84a3e;fill-opacity:1;stroke-width:2.69023;stroke-linecap:round;stroke-linejoin:round;stroke-opacity:0.320225"
       id="rect3-27-0"
       width="1.8871982"
       height="1.2168702"
       x="9.1403036"
       y="3.3453252"
       transform="matrix(0.95001104,0.3122163,0,1,0,0)" />
    <rect
       style="fill:#a84a3e;fill-opacity:1;stroke-width:2.69023;stroke-linecap:round;stroke-linejoin:round;stroke-opacity:0.320225"
       id="rect3-0-3"
       width="1.8871982"
       height="1.2168702"
       x="11.115141"
       y="3.3452742"
       transform="matrix(0.95001104,0.3122163,0,1,0,0)" />
    <rect
       style="fill:#a84a3e;fill-opacity:1;stroke-width:2.69023;stroke-linecap:round;stroke-linejoin:round;stroke-opacity:0.320225"
       id="rect3-97-9"
       width="1.8871982"
       height="1.2168702"
       x="4.0941982"
       y="4.6646366"
       transform="matrix(0.95001104,0.3122163,0,1,0,0)" />
    <rect
       style="fill:#a84a3e;fill-opacity:1;stroke-width:2.69023;stroke-linecap:round;stroke-linejoin:round;stroke-opacity:0.320225"
       id="rect3-2-0-9"
       width="1.8871982"
       height="1.2168702"
       x="6.1215568"
       y="4.6661968"
       transform="matrix(0.95001104,0.3122163,0,1,0,0)" />
    <rect
       style="fill:#a84a3e;fill-opacity:1;stroke-width:2.69023;stroke-linecap:round;stroke-linejoin:round;stroke-opacity:0.320225"
       id="rect3-9-3-9"
       width="1.8871982"
       height="1.2168702"
       x="8.1036787"
       y="4.6701555"
       transform="matrix(0.95001104,0.3122163,0,1,0,0)" />
    <rect
       style="fill:#a84a3e;fill-opacity:1;stroke-width:2.69023;stroke-linecap:round;stroke-linejoin:round;stroke-opacity:0.320225"
       id="rect3-27-9-1"
       width="1.8871982"
       height="1.2168702"
       x="10.097589"
       y="4.6704087"
       transform="matrix(0.95001104,0.3122163,0,1,0,0)" />
    <rect
       style="fill:#a84a3e;fill-opacity:1;stroke-width:2.69023;stroke-linecap:round;stroke-linejoin:round;stroke-opacity:0.320225"
       id="rect3-5"
       width="1.8871982"
       height="1.2168702"
       x="3.148468"
       y="6.046864"
       transform="matrix(0.95001104,0.3122163,0,1,0,0)" />
    <rect
       style="fill:#a84a3e;fill-opacity:1;stroke-width:2.69023;stroke-linecap:round;stroke-linejoin:round;stroke-opacity:0.320225"
       id="rect3-2-5"
       width="1.8871982"
       height="1.2168702"
       x="5.1758251"
       y="6.0484238"
       transform="matrix(0.95001104,0.3122163,0,1,0,0)" />
    <rect
       style="fill:#a84a3e;fill-opacity:1;stroke-width:2.69023;stroke-linecap:round;stroke-linejoin:round;stroke-opacity:0.320225"
       id="rect3-9-8"
       width="1.8871982"
       height="1.2168702"
       x="7.1579475"
       y="6.052382"
       transform="matrix(0.95001104,0.3122163,0,1,0,0)" />
    <rect
       style="fill:#a84a3e;fill-opacity:1;stroke-width:2.69023;stroke-linecap:round;stroke-linejoin:round;stroke-opacity:0.320225"
       id="rect3-27-1"
       width="1.8871982"
       height="1.2168702"
       x="9.1518602"
       y="6.0526357"
       transform="matrix(0.95001104,0.3122163,0,1,0,0)" />
    <rect
       style="fill:#a84a3e;fill-opacity:1;stroke-width:2.69023;stroke-linecap:round;stroke-linejoin:round;stroke-opacity:0.320225"
       id="rect3-0-4"
       width="1.8871982"
       height="1.2168702"
       x="11.126697"
       y="6.0525846"
       transform="matrix(0.95001104,0.3122163,0,1,0,0)" />
    <rect
       style="fill:#a84a3e;fill-opacity:1;stroke-width:2.69023;stroke-linecap:round;stroke-linejoin:round;stroke-opacity:0.320225"
       id="rect3-97-7"
       width="1.8871982"
       height="1.2168702"
       x="4.1057539"
       y="7.3719473"
       transform="matrix(0.95001104,0.3122163,0,1,0,0)" />
    <rect
       style="fill:#a84a3e;fill-opacity:1;stroke-width:2.69023;stroke-linecap:round;stroke-linejoin:round;stroke-opacity:0.320225"
       id="rect3-2-0-1"
       width="1.8871982"
       height="1.2168702"
       x="6.133111"
       y="7.373507"
       transform="matrix(0.95001104,0.3122163,0,1,0,0)" />
    <rect
       style="fill:#a84a3e;fill-opacity:1;stroke-width:2.69023;stroke-linecap:round;stroke-linejoin:round;stroke-opacity:0.320225"
       id="rect3-9-3-3"
       width="1.8871982"
       height="1.2168702"
       x="8.1152334"
       y="7.3774662"
       transform="matrix(0.95001104,0.3122163,0,1,0,0)" />
    <rect
       style="fill:#a84a3e;fill-opacity:1;stroke-width:2.69023;stroke-linecap:round;stroke-linejoin:round;stroke-opacity:0.320225"
       id="rect3-27-9-8"
       width="1.8871982"
       height="1.2168702"
       x="10.109146"
       y="7.3777194"
       transform="matrix(0.95001104,0.3122163,0,1,0,0)" />
    <rect
       style="fill:#a84a3e;fill-opacity:1;stroke-width:2.69023;stroke-linecap:round;stroke-linejoin:round;stroke-opacity:0.320225"
       id="rect3-60"
       width="1.8871982"
       height="1.2168702"
       x="3.0739152"
       y="8.7328691"
       transform="matrix(0.95001104,0.3122163,0,1,0,0)" />
    <rect
       style="fill:#a84a3e;fill-opacity:1;stroke-width:2.69023;stroke-linecap:round;stroke-linejoin:round;stroke-opacity:0.320225"
       id="rect3-2-3"
       width="1.8871982"
       height="1.2168702"
       x="5.1012731"
       y="8.7344284"
       transform="matrix(0.95001104,0.3122163,0,1,0,0)" />
    <rect
       style="fill:#a84a3e;fill-opacity:1;stroke-width:2.69023;stroke-linecap:round;stroke-linejoin:round;stroke-opacity:0.320225"
       id="rect3-9-2"
       width="1.8871982"
       height="1.2168702"
       x="7.0833955"
       y="8.7383871"
       transform="matrix(0.95001104,0.3122163,0,1,0,0)" />
    <rect
       style="fill:#a84a3e;fill-opacity:1;stroke-width:2.69023;stroke-linecap:round;stroke-linejoin:round;stroke-opacity:0.320225"
       id="rect3-27-6"
       width="1.8871982"
       height="1.2168702"
       x="9.0773067"
       y="8.7386398"
       transform="matrix(0.95001104,0.3122163,0,1,0,0)" />
    <rect
       style="fill:#a84a3e;fill-opacity:1;stroke-width:2.69023;stroke-linecap:round;stroke-linejoin:round;stroke-opacity:0.320225"
       id="rect3-0-9"
       width="1.8871982"
       height="1.2168702"
       x="11.052143"
       y="8.7385902"
       transform="matrix(0.95001104,0.3122163,0,1,0,0)" />
    <path
       id="rect4"
       style="fill:#fefcfc;fill-opacity:0.466667;stroke:#000000;stroke-width:0.114;stroke-linecap:round;stroke-linejoin:round;stroke-dasharray:none"
       d="M 4.9983813,3.1806306 10.242598,4.9041157 V 6.2658361 L 11.248993,5.942498 10.274679,7.6296963 10.242598,10.350998 9.5993157,10.160693 C 8.2838031,11.525153 7.8331214,10.900044 6.1407679,11.340433 6.5924871,10.315536 7.7367265,10.311618 5.7083055,8.8608256 L 4.9983813,8.6275126 5.0304624,6.1202932 3.7558758,3.8567443 4.9983813,4.542351 Z"
       sodipodi:nodetypes="cccccccccccccc" />
    <path
       id="rect5-3"
       style="fill:#000000;fill-opacity:0.551852;stroke:none;stroke-width:2.37251;stroke-linecap:round;stroke-linejoin:round"
       d="M 7.2939406,4.4158646 5.5530475,4.1187217 5.6394222,5.5083158 C 7.4714071,6.2250736 7.3854651,4.4017127 7.2939406,4.4158646 Z"
       sodipodi:nodetypes="cccc" />
    <path
       id="rect5-3-4"
       style="fill:#000000;fill-opacity:0.551852;stroke:none;stroke-width:2.28416;stroke-linecap:round;stroke-linejoin:round"
       d="m 8.0688653,4.7067721 1.6136468,0.8053095 -0.080062,1.334896 C 7.9043706,6.4035973 7.984031,4.6346608 8.0688653,4.7067721 Z"
       sodipodi:nodetypes="cccc" />
    <path
       style="fill:#000000;fill-opacity:0.551852;stroke:none;stroke-width:2.4776;stroke-linecap:round;stroke-linejoin:round;stroke-opacity:1"
       id="path5-6"
       sodipodi:type="arc"
       sodipodi:cx="7.4139757"
       sodipodi:cy="6.5083265"
       sodipodi:rx="0.78761381"
       sodipodi:ry="0.81718224"
       sodipodi:start="0"
       sodipodi:end="3.4370335"
       sodipodi:arc-type="slice"
       d="M 8.2015895,6.5083265 A 0.78761381,0.81718224 0 0 1 7.7388103,7.2527713 0.78761381,0.81718224 0 0 1 6.8943041,7.1223873 0.78761381,0.81718224 0 0 1 6.6604862,6.2703944 l 0.7534895,0.2379321 z"
       transform="matrix(0.9801998,0.19801098,0.0511598,0.99869048,0,0)" />
  </g>
</svg>
