<?xml version="1.0" encoding="UTF-8" standalone="no"?>
<!-- Created with Inkscape (http://www.inkscape.org/) -->

<svg
   width="15mm"
   height="15mm"
   viewBox="0 0 15 15"
   version="1.1"
   id="svg1"
   inkscape:export-filename="ghost-photo.png"
   inkscape:export-xdpi="96"
   inkscape:export-ydpi="96"
   inkscape:version="1.3.2 (091e20e, 2023-11-25)"
   sodipodi:docname="ghost-photo.svg"
   xmlns:inkscape="http://www.inkscape.org/namespaces/inkscape"
   xmlns:sodipodi="http://sodipodi.sourceforge.net/DTD/sodipodi-0.dtd"
   xmlns:xlink="http://www.w3.org/1999/xlink"
   xmlns="http://www.w3.org/2000/svg"
   xmlns:svg="http://www.w3.org/2000/svg">
  <sodipodi:namedview
     id="namedview1"
     pagecolor="#ffffff"
     bordercolor="#000000"
     borderopacity="0.25"
     inkscape:showpageshadow="2"
     inkscape:pageopacity="0.0"
     inkscape:pagecheckerboard="0"
     inkscape:deskcolor="#d1d1d1"
     inkscape:document-units="mm"
     showguides="false"
     inkscape:zoom="4.8590355"
     inkscape:cx="-23.77015"
     inkscape:cy="53.714364"
     inkscape:window-width="1792"
     inkscape:window-height="993"
     inkscape:window-x="773"
     inkscape:window-y="121"
     inkscape:window-maximized="0"
     inkscape:current-layer="layer1"
     showgrid="false" />
  <defs
     id="defs1">
    <linearGradient
       id="linearGradient59"
       inkscape:collect="always">
      <stop
         style="stop-color:#8db8c0;stop-opacity:1;"
         offset="0"
         id="stop60" />
      <stop
         style="stop-color:#07a4c0;stop-opacity:0.65357143;"
         offset="1"
         id="stop61" />
    </linearGradient>
    <linearGradient
       id="linearGradient1"
       inkscape:collect="always">
      <stop
         style="stop-color:#ffffff;stop-opacity:0.6785714;"
         offset="0"
         id="stop1" />
      <stop
         style="stop-color:#96c0c0;stop-opacity:1;"
         offset="1"
         id="stop2" />
    </linearGradient>
    <radialGradient
       inkscape:collect="always"
       xlink:href="#linearGradient1"
       id="radialGradient2"
       cx="7.4277964"
       cy="6.3238001"
       fx="7.4277964"
       fy="6.3238001"
       r="4.6273964"
       gradientTransform="matrix(0.55626288,0.12521317,-0.2072445,0.92068939,4.9035062,-0.57113793)"
       gradientUnits="userSpaceOnUse" />
    <radialGradient
       inkscape:collect="always"
       xlink:href="#linearGradient59"
       id="radialGradient61"
       cx="7.4988864"
       cy="7.2060394"
       fx="7.4988864"
       fy="7.2060394"
       r="4.7725479"
       gradientTransform="matrix(0.7622259,0,0,0.82298293,1.8613023,1.0138704)"
       gradientUnits="userSpaceOnUse" />
    <filter
       inkscape:collect="always"
       style="color-interpolation-filters:sRGB"
       id="filter3"
       x="-0.1109179"
       y="-0.20745691"
       width="1.2218358"
       height="1.4149138">
      <feGaussianBlur
         inkscape:collect="always"
         stdDeviation="0.35057837"
         id="feGaussianBlur3" />
    </filter>
  </defs>
  <g
     inkscape:label="Layer 1"
     inkscape:groupmode="layer"
     id="layer1">
    <rect
       style="font-variation-settings:'opsz' 27.6, 'wght' 977;fill:#000000;fill-opacity:0.335413;stroke:none;stroke-width:0.0640306;stroke-linecap:square;stroke-linejoin:round;stroke-dasharray:none;stroke-opacity:1;filter:url(#filter3)"
       id="rect1-4"
       width="7.5856838"
       height="4.0557246"
       x="-2.1817167"
       y="11.003576"
       ry="0.037915327"
       transform="matrix(0.96916449,-0.24641467,0.62411198,0.7813349,0,0)" />
    <ellipse
       style="fill:#000000;fill-opacity:0.143426;stroke:#c00707;stroke-width:0.165;stroke-dasharray:none;stroke-opacity:0.4213483"
       id="path5"
       cx="7.4724536"
       cy="11.982809"
       rx="0.24757871"
       ry="0.26408395" />
    <g
       id="g2"
       transform="matrix(0.6659247,-0.44383697,0.44383697,0.6659247,11.358825,-10.516075)">
      <rect
         style="font-variation-settings:'opsz' 27.6, 'wght' 977;fill:#fafae0;fill-opacity:1;stroke:#b1a01f;stroke-width:0.1183;stroke-linecap:square;stroke-linejoin:round;stroke-dasharray:none;stroke-opacity:1"
         id="rect1"
         width="9.6406727"
         height="10.893064"
         x="-19.767361"
         y="9.7455254"
         ry="0.10183483" />
      <rect
         style="font-variation-settings:'opsz' 27.6, 'wght' 977;fill:#715417;fill-opacity:1;stroke:#b1a01f;stroke-width:0.121;stroke-linecap:square;stroke-linejoin:round;stroke-dasharray:none;stroke-opacity:1"
         id="rect2"
         width="8.440032"
         height="8.440032"
         x="-19.167038"
         y="10.345845"
         ry="0.098755307" />
    </g>
    <g
       id="g3"
       transform="matrix(0.82355941,-0.13008511,0.13008511,0.82355941,0.77671379,1.8005569)">
      <path
         id="path1"
         style="fill:url(#radialGradient2);fill-opacity:0.497191;stroke:url(#radialGradient61);stroke-width:0.190556;stroke-dasharray:none;stroke-opacity:0.421348"
         inkscape:transform-center-x="0.19457976"
         inkscape:transform-center-y="0.93232251"
         d="M 7.5696985,10.553741 6.3755167,6.7277717 4.194365,5.7940637 6.9779768,4.7422703 6.5427536,3.1529078 8.3548354,3.1137611 c 0.053017,0.5584952 -0.063439,1.5587043 -0.063439,1.5587043 l 2.6613416,-0.071519 -2.0779141,1.813617 z"
         sodipodi:nodetypes="cccccccccc" />
      <path
         id="path1-0"
         style="fill:none;fill-opacity:0.497191;stroke:#000000;stroke-width:0.200502;stroke-dasharray:none;stroke-opacity:0.803371"
         inkscape:transform-center-x="0.20473595"
         inkscape:transform-center-y="0.98098577"
         d="M 7.478025,10.853862 6.221512,6.8281947 3.9265135,5.8457512 6.8554179,4.7390586 6.3974779,3.0667382 8.3041427,3.0255482 c 0.055784,0.5876462 -0.06675,1.640062 -0.06675,1.640062 L 11.037644,4.5903582 8.8512724,6.4986383 Z"
         sodipodi:nodetypes="cccccccccc" />
      <path
         id="path1-0-7"
         style="fill:none;fill-opacity:0.497191;stroke:#000000;stroke-width:0.213825;stroke-dasharray:none;stroke-opacity:0.640449"
         inkscape:transform-center-x="0.21834102"
         inkscape:transform-center-y="1.0461731"
         d="M 7.4635387,11.164873 6.1235295,6.8716967 3.6760266,5.8239696 6.7995589,4.643736 6.3111884,2.8602891 8.3445525,2.816362 c 0.059491,0.6266955 -0.071186,1.7490454 -0.071186,1.7490454 L 11.259696,4.485157 8.9280394,6.5202436 Z"
         sodipodi:nodetypes="cccccccccc" />
      <path
         id="path1-0-7-0"
         style="fill:none;fill-opacity:0.497191;stroke:#000000;stroke-width:0.326;stroke-dasharray:none;stroke-opacity:0.429775"
         inkscape:transform-center-x="0.23066747"
         inkscape:transform-center-y="1.1052355"
         d="M 7.4767309,11.507634 6.0610708,6.9720831 3.4753928,5.8652061 6.7752658,4.6183414 6.2593241,2.7342088 8.4074829,2.6877988 c 0.062849,0.6620764 -0.075205,1.8477893 -0.075205,1.8477893 l 3.1549241,-0.084781 -2.4632912,2.149979 z"
         sodipodi:nodetypes="cccccccccc" />
      <path
         id="path1-0-7-0-9"
         style="fill:none;fill-opacity:0.497191;stroke:#000000;stroke-width:0.34438;stroke-dasharray:none;stroke-opacity:0.247191"
         inkscape:transform-center-x="0.24758942"
         inkscape:transform-center-y="1.1490772"
         d="M 7.4474832,11.61632 5.9279698,6.9008569 3.1526056,5.7500731 6.6945584,4.4537483 6.140767,2.4948769 8.4465154,2.4466259 c 0.06746,0.6883398 -0.080722,1.9210869 -0.080722,1.9210869 L 11.752164,4.2795698 9.1081645,6.5148326 Z"
         sodipodi:nodetypes="cccccccccc" />
    </g>
    <path
       id="rect1-7"
       style="font-variation-settings:'opsz' 27.6, 'wght' 977;fill:#fafae0;stroke:#b1a01f;stroke-width:0.094673;stroke-linecap:square;stroke-linejoin:round"
       d="m 8.9059594,0.52397828 c -0.0104,0.00199 -0.02058,0.00614 -0.029972,0.012402 L 2.5916168,4.724755 c -0.03757,0.02504 -0.04778,0.075603 -0.02274,0.1131715 l 4.744413,7.1179115 c 0.02504,0.03757 0.0756,0.04778 0.113171,0.02274 L 13.710832,7.7902029 c 0.03757,-0.02504 0.04726,-0.075601 0.02222,-0.1131712 L 8.9886419,0.55860198 c -0.01878,-0.028177 -0.051482,-0.04059 -0.082682,-0.0346237 z M 8.7736677,1.1890545 c 0.030255,-0.00578 0.062405,0.00678 0.080616,0.034106 l 3.6581743,5.4885538 c 0.02428,0.03643 0.01473,0.085273 -0.0217,0.1095536 L 7.0016828,10.47996 c -0.03643,0.02428 -0.08527,0.01421 -0.109554,-0.02222 L 3.2339538,4.9691865 c -0.02428,-0.03643 -0.01473,-0.085273 0.0217,-0.109554 L 8.7447242,1.2009411 c 0.00911,-0.00607 0.018854,-0.00996 0.028939,-0.011885 z" />
  </g>
</svg>
