<?xml version="1.0" encoding="UTF-8" standalone="no"?>
<!-- Created with Inkscape (http://www.inkscape.org/) -->

<svg
   width="15mm"
   height="15mm"
   viewBox="0 0 15 15"
   version="1.1"
   id="svg1"
   inkscape:export-filename="giants-grave.png"
   inkscape:export-xdpi="96"
   inkscape:export-ydpi="96"
   inkscape:version="1.3.2 (091e20e, 2023-11-25)"
   sodipodi:docname="giants-grave.svg"
   xmlns:inkscape="http://www.inkscape.org/namespaces/inkscape"
   xmlns:sodipodi="http://sodipodi.sourceforge.net/DTD/sodipodi-0.dtd"
   xmlns="http://www.w3.org/2000/svg"
   xmlns:svg="http://www.w3.org/2000/svg">
  <sodipodi:namedview
     id="namedview1"
     pagecolor="#ffffff"
     bordercolor="#000000"
     borderopacity="0.25"
     inkscape:showpageshadow="2"
     inkscape:pageopacity="0.0"
     inkscape:pagecheckerboard="0"
     inkscape:deskcolor="#d1d1d1"
     inkscape:document-units="mm"
     showguides="false"
     inkscape:zoom="6.280649"
     inkscape:cx="12.976366"
     inkscape:cy="37.894173"
     inkscape:window-width="1728"
     inkscape:window-height="993"
     inkscape:window-x="0"
     inkscape:window-y="65"
     inkscape:window-maximized="0"
     inkscape:current-layer="layer1" />
  <defs
     id="defs1" />
  <g
     inkscape:label="Layer 1"
     inkscape:groupmode="layer"
     id="layer1">
    <path
       style="fill:#d4ab54;fill-opacity:1;stroke-width:0.180069;stroke-linecap:round;stroke-linejoin:bevel"
       d="M 6.6082723,14.320164 6.1140949,13.255782 5.9240266,11.355099 6.2016977,9.8296459 4.1539148,8.4131851 1.3243749,5.8051059 0.90622481,4.8927783 1.0202658,4.170519 1.3623887,3.8283962 8.2428592,8.4660613 8.1668319,12.457496 6.9884087,14.092082 Z"
       id="path3"
       sodipodi:nodetypes="ccccccccccccc" />
    <ellipse
       style="fill:#000000;fill-opacity:0.143426;stroke:#c00707;stroke-width:0.165;stroke-dasharray:none;stroke-opacity:0.421348"
       id="path5"
       cx="7.4724536"
       cy="11.982809"
       rx="0.24757871"
       ry="0.26408395" />
    <path
       style="fill:#dbc492;fill-opacity:1;stroke-width:0.180069;stroke-linecap:round;stroke-linejoin:bevel"
       d="M 7.8136913,8.6362079 8.383896,7.4346337 9.3342374,7.3437439 1.9976028,3.5423789 C 1.8147524,3.4920147 1.6153704,3.455427 1.3133572,3.5043652 1.0919472,3.6934585 1.0498799,3.9273874 0.98267294,4.1550315 L 6.5592408,8.0279896 Z"
       id="path4"
       sodipodi:nodetypes="cccccccc" />
    <path
       style="fill:#e7d09f;fill-opacity:1;stroke:#000000;stroke-width:0.08;stroke-linecap:round;stroke-linejoin:bevel;stroke-dasharray:none;stroke-opacity:1"
       d="M 7.1858299,14.49211 6.701924,14.401312 6.6732817,12.285518 6.8928923,10.699216 C 7.1008762,10.141683 7.3231434,9.5841493 7.8700756,9.0266159 L 7.8136913,8.1800442 C 7.8411545,8.0163457 7.9621892,7.7902662 8.2595838,7.4466134 9.7568458,6.8811981 9.6394742,7.6577524 9.7846292,7.6465812 L 9.9469554,8.1465301 9.9714704,8.0092465 C 10.397599,7.9203712 9.9644628,7.6999725 12.114106,7.699737 l 2.047865,0.4042792 0.208575,0.2871011 -0.47467,0.2450899 -5.1318431,0.6082184 z"
       id="path2"
       sodipodi:nodetypes="cccccccccccccccc" />
    <path
       style="fill:#dcbb74;fill-opacity:1;stroke-width:0.180069;stroke-linecap:round;stroke-linejoin:bevel"
       d="m 7.1674592,14.566337 0.3801366,-0.456163 0.3421229,-0.760273 0.8744265,-1.2154 2.6988568,-1.90172 1.634587,-0.5702045 1.368491,-0.076027 0.03801,-0.5321911 -0.11404,-0.6842457 -2.052738,-0.3801366 C 12.023051,7.9129812 11.650861,7.8582652 10.892798,7.9519623 L 9.980469,8.180044 9.8284147,7.5718256 9.4102647,7.4197713 8.8020462,7.4957983 8.2698551,7.9139484 8.1178005,8.408126 8.1558142,9.0923717 7.6236232,9.9184007 7.3575274,10.688945 7.1294456,12.209491 v 1.064382 z"
       id="path1"
       sodipodi:nodetypes="ccccccccccccccccccccccc" />
    <path
       style="fill:#d4ab54;fill-opacity:1;stroke-width:0.1;stroke-linecap:round;stroke-linejoin:bevel;stroke:#000000;stroke-opacity:1;stroke-dasharray:none"
       d="M 7.6910538,8.5637975 6.6001243,8.1001525 2.7818704,5.3182818 1.2545691,4.3637184 0.98183664,4.2000791"
       id="path6" />
    <path
       style="fill:none;fill-opacity:1;stroke:#000000;stroke-width:0.1;stroke-linecap:round;stroke-linejoin:bevel;stroke-dasharray:none;stroke-opacity:1"
       d="M 8.5637974,6.9819495 C 8.0477953,6.9001942 7.367871,7.8630158 7.3910483,8.4274312"
       id="path7"
       sodipodi:nodetypes="cc" />
    <path
       style="fill:none;fill-opacity:1;stroke:#000000;stroke-width:0.1;stroke-linecap:round;stroke-linejoin:bevel;stroke-dasharray:none;stroke-opacity:1"
       d="M 7.6815492,6.48017 C 7.1655471,6.3984147 6.4856228,7.3612363 6.5088001,7.9256517"
       id="path7-8"
       sodipodi:nodetypes="cc" />
    <path
       style="fill:none;fill-opacity:1;stroke:#000000;stroke-width:0.1;stroke-linecap:round;stroke-linejoin:bevel;stroke-dasharray:none;stroke-opacity:1"
       d="M 6.8877992,6.0651168 C 6.3717971,5.9833615 5.6918728,6.9461831 5.7150501,7.5105985"
       id="path7-5"
       sodipodi:nodetypes="cc" />
    <path
       style="fill:none;fill-opacity:1;stroke:#000000;stroke-width:0.0842979;stroke-linecap:round;stroke-linejoin:bevel;stroke-dasharray:none;stroke-opacity:1"
       d="M 5.2645918,5.310926 C 4.8296128,5.242008 4.2564509,6.0536464 4.2759889,6.5294368"
       id="path7-3"
       sodipodi:nodetypes="cc" />
    <path
       style="fill:none;fill-opacity:1;stroke:#000000;stroke-width:0.0851299;stroke-linecap:round;stroke-linejoin:bevel;stroke-dasharray:none;stroke-opacity:1"
       d="M 5.9780641,5.6359804 C 5.5387921,5.5663822 4.9599732,6.3860313 4.979704,6.8665175"
       id="path7-2"
       sodipodi:nodetypes="cc" />
    <path
       style="fill:none;fill-opacity:1;stroke:#000000;stroke-width:0.0766327;stroke-linecap:round;stroke-linejoin:bevel;stroke-dasharray:none;stroke-opacity:1"
       d="M 4.4641333,4.8586978 C 4.0687069,4.7960465 3.5476625,5.5338827 3.5654239,5.9664095"
       id="path7-7"
       sodipodi:nodetypes="cc" />
    <path
       style="fill:none;fill-opacity:1;stroke:#000000;stroke-width:0.0660112;stroke-linecap:round;stroke-linejoin:bevel;stroke-dasharray:none;stroke-opacity:1"
       d="M 3.7568433,4.5400943 C 3.4162241,4.4861266 2.9673979,5.1216968 2.9826975,5.4942742"
       id="path7-86"
       sodipodi:nodetypes="cc" />
    <path
       style="fill:none;fill-opacity:1;stroke:#000000;stroke-width:0.0651064;stroke-linecap:round;stroke-linejoin:bevel;stroke-dasharray:none;stroke-opacity:1"
       d="M 3.2013873,4.1997791 C 2.8654367,4.1465511 2.4227621,4.7734101 2.437852,5.1408809"
       id="path7-27"
       sodipodi:nodetypes="cc" />
    <path
       style="fill:none;fill-opacity:1;stroke:#000000;stroke-width:0.0633618;stroke-linecap:round;stroke-linejoin:bevel;stroke-dasharray:none;stroke-opacity:1"
       d="M 2.5790345,3.9071875 C 2.2520864,3.8553859 1.8212743,4.4654468 1.8359598,4.8230704"
       id="path7-9"
       sodipodi:nodetypes="cc" />
    <path
       style="fill:none;fill-opacity:1;stroke:#000000;stroke-width:0.057514;stroke-linecap:round;stroke-linejoin:bevel;stroke-dasharray:none;stroke-opacity:1"
       d="M 2.0324287,3.6123419 C 1.7356552,3.5653212 1.3446035,4.1190784 1.3579337,4.4436964"
       id="path7-23"
       sodipodi:nodetypes="cc" />
    <path
       style="fill:none;fill-opacity:1;stroke:#000000;stroke-width:0.1;stroke-linecap:round;stroke-linejoin:bevel;stroke-dasharray:none;stroke-opacity:1"
       d="m 8.1910421,9.1148121 0.478478,3.0596599"
       id="path8"
       sodipodi:nodetypes="cc" />
    <path
       style="fill:none;fill-opacity:1;stroke:#000000;stroke-width:0.1;stroke-linecap:round;stroke-linejoin:bevel;stroke-dasharray:none;stroke-opacity:1"
       d="M 9.8428671,7.6765007 10.376828,10.902129"
       id="path9"
       sodipodi:nodetypes="cc" />
    <path
       style="fill:none;fill-opacity:1;stroke:#000000;stroke-width:0.1;stroke-linecap:round;stroke-linejoin:bevel;stroke-dasharray:none;stroke-opacity:1"
       d="m 11.048122,7.9824174 0.406519,2.1936336"
       id="path10"
       sodipodi:nodetypes="cc" />
    <path
       style="fill:none;fill-opacity:1;stroke:#000000;stroke-width:0.1;stroke-linecap:round;stroke-linejoin:bevel;stroke-dasharray:none;stroke-opacity:1"
       d="M 7.6686962,10.026939 8.151749,12.929535"
       id="path11"
       sodipodi:nodetypes="cc" />
    <path
       style="fill:none;fill-opacity:1;stroke:#000000;stroke-width:0.1;stroke-linecap:round;stroke-linejoin:bevel;stroke-dasharray:none;stroke-opacity:1"
       d="M 7.3264403,11.251398 7.7562391,13.51156"
       id="path12"
       sodipodi:nodetypes="cc" />
    <path
       style="fill:none;fill-opacity:1;stroke:#000000;stroke-width:0.1;stroke-linecap:round;stroke-linejoin:bevel;stroke-dasharray:none;stroke-opacity:1"
       d="m 7.170175,12.78157 0.3050512,1.355035"
       id="path13"
       sodipodi:nodetypes="cc" />
    <path
       style="fill:none;fill-opacity:1;stroke:#000000;stroke-width:0.1;stroke-linecap:round;stroke-linejoin:bevel;stroke-dasharray:none;stroke-opacity:1"
       d="m 11.928884,7.9614653 0.321294,1.9313216"
       id="path14"
       sodipodi:nodetypes="cc" />
    <path
       style="fill:none;fill-opacity:1;stroke:#000000;stroke-width:0.1;stroke-linecap:round;stroke-linejoin:bevel;stroke-dasharray:none;stroke-opacity:1"
       d="m 12.717681,8.0855621 0.222298,1.5973747"
       id="path15"
       sodipodi:nodetypes="cc" />
    <path
       style="fill:none;fill-opacity:1;stroke:#000000;stroke-width:0.1;stroke-linecap:round;stroke-linejoin:bevel;stroke-dasharray:none;stroke-opacity:1"
       d="m 13.543848,8.2450803 0.177107,1.3755645"
       id="path16"
       sodipodi:nodetypes="cc" />
    <path
       style="fill:none;fill-opacity:1;stroke:#000000;stroke-width:0.0799999;stroke-linecap:round;stroke-linejoin:bevel;stroke-dasharray:none;stroke-opacity:1"
       d="M 7.1243163,12.718018 6.7068757,12.662359"
       id="path17" />
    <path
       style="fill:none;fill-opacity:1;stroke:#000000;stroke-width:0.0799999;stroke-linecap:round;stroke-linejoin:bevel;stroke-dasharray:none;stroke-opacity:1"
       d="M 7.2773777,11.229147 6.7903639,11.187403"
       id="path18" />
    <path
       style="fill:none;fill-opacity:1;stroke:#000000;stroke-width:0.0799999;stroke-linecap:round;stroke-linejoin:bevel;stroke-dasharray:none;stroke-opacity:1"
       d="M 7.6391594,10.004655 7.263463,9.9350816"
       id="path19" />
    <path
       style="fill:none;fill-opacity:1;stroke:#000000;stroke-width:0.0799999;stroke-linecap:round;stroke-linejoin:bevel;stroke-dasharray:none;stroke-opacity:1"
       d="M 8.1540026,9.0306275 7.833965,8.9749687"
       id="path20" />
    <path
       style="fill:none;fill-opacity:1;stroke:#000000;stroke-width:0.0799999;stroke-linecap:round;stroke-linejoin:bevel;stroke-dasharray:none;stroke-opacity:1"
       d="M 11.020427,7.8896235 10.895195,7.7504768"
       id="path21" />
    <path
       style="fill:none;fill-opacity:1;stroke:#000000;stroke-width:0.0799999;stroke-linecap:round;stroke-linejoin:bevel;stroke-dasharray:none;stroke-opacity:1"
       d="m 11.869222,7.8478797 -0.0974,-0.1252323"
       id="path22" />
    <path
       style="fill:none;fill-opacity:1;stroke:#000000;stroke-width:0.0799999;stroke-linecap:round;stroke-linejoin:bevel;stroke-dasharray:none;stroke-opacity:1"
       d="M 12.690188,8.0844291 12.495383,7.7783062"
       id="path23" />
    <path
       style="fill:none;fill-opacity:1;stroke:#000000;stroke-width:0.0799999;stroke-linecap:round;stroke-linejoin:bevel;stroke-dasharray:none;stroke-opacity:1"
       d="M 13.552898,8.1540026 13.385922,7.9313677"
       id="path24" />
    <path
       style="fill:none;fill-opacity:1;stroke:#000000;stroke-width:0.0799999;stroke-linecap:round;stroke-linejoin:bevel;stroke-dasharray:none;stroke-opacity:0.36037442"
       d="m 6.5685556,13.769553 c -0.130212,-0.99468 -0.355816,-1.650489 0.07349,-3.8885437 0.2235058,-0.4503395 0.0668,-0.6218379 -0.2088932,-0.7861689 L 2.7735424,6.4229403 1.1970025,5.0507667"
       id="path25"
       sodipodi:nodetypes="ccccc" />
    <path
       style="fill:none;fill-opacity:1;stroke:#000000;stroke-width:0.0799999;stroke-linecap:round;stroke-linejoin:bevel;stroke-dasharray:none;stroke-opacity:0.360374"
       d="M 6.5451135,12.840937 C 6.4149015,11.846257 6.6981997,10.52496 7.0883594,9.5787348 7.3118652,9.1283953 7.1551594,8.9568969 6.8794662,8.7925659 L 3.2341261,6.2490951 1.5006171,4.8911914"
       id="path25-9"
       sodipodi:nodetypes="ccccc" />
    <path
       style="fill:none;fill-opacity:1;stroke:#000000;stroke-width:0.0799999;stroke-linecap:round;stroke-linejoin:bevel;stroke-dasharray:none;stroke-opacity:0.360374"
       d="M 6.3633118,13.248602 C 6.2330998,12.253922 6.0533652,12.00481 6.3260859,9.9624864 6.4198408,9.7788572 6.2007969,9.3871742 5.9251037,9.2228432 L 2.5311759,6.6303822 1.3684638,5.5721468"
       id="path25-5"
       sodipodi:nodetypes="ccccc" />
    <path
       id="rect25"
       style="fill:#0e0b04;stroke:#000000;stroke-width:0.0799999;stroke-linecap:round;stroke-linejoin:bevel;stroke-opacity:0.360374"
       d="m 9.1695682,10.885972 0.6988561,-0.386191 c 0.052477,-0.01792 0.1002129,0.0117 0.10703,0.06641 l 0.073833,0.592533 c 0.0068,0.05471 -0.02994,0.113189 -0.082418,0.131111 l -0.6848237,0.421272 c -0.052477,0.01792 -0.099386,-0.01181 -0.10703,-0.06641 l -0.087865,-0.627614 c -0.00682,-0.05471 0.029941,-0.113189 0.082418,-0.131111 z"
       sodipodi:nodetypes="ccscccscc" />
  </g>
</svg>
