<?xml version="1.0" encoding="UTF-8" standalone="no"?>
<!-- Created with Inkscape (http://www.inkscape.org/) -->

<svg
   width="15mm"
   height="15mm"
   viewBox="0 0 15 15"
   version="1.1"
   id="svg1"
   inkscape:export-filename="bitmap.png"
   inkscape:export-xdpi="96"
   inkscape:export-ydpi="96"
   inkscape:version="1.3.2 (091e20e, 2023-11-25)"
   sodipodi:docname="hogback-grave.svg"
   xmlns:inkscape="http://www.inkscape.org/namespaces/inkscape"
   xmlns:sodipodi="http://sodipodi.sourceforge.net/DTD/sodipodi-0.dtd"
   xmlns:xlink="http://www.w3.org/1999/xlink"
   xmlns="http://www.w3.org/2000/svg"
   xmlns:svg="http://www.w3.org/2000/svg">
  <sodipodi:namedview
     id="namedview1"
     pagecolor="#ffffff"
     bordercolor="#000000"
     borderopacity="0.25"
     inkscape:showpageshadow="2"
     inkscape:pageopacity="0.0"
     inkscape:pagecheckerboard="0"
     inkscape:deskcolor="#d1d1d1"
     inkscape:document-units="mm"
     showguides="false"
     inkscape:zoom="8.0721827"
     inkscape:cx="21.803272"
     inkscape:cy="46.331954"
     inkscape:window-width="1792"
     inkscape:window-height="993"
     inkscape:window-x="56"
     inkscape:window-y="88"
     inkscape:window-maximized="0"
     inkscape:current-layer="layer1" />
  <defs
     id="defs1">
    <linearGradient
       inkscape:collect="always"
       xlink:href="#linearGradient7"
       id="linearGradient10"
       gradientUnits="userSpaceOnUse"
       gradientTransform="matrix(-0.04459126,0.01242269,0.003283,0.04596268,13.421417,-2.4990451)"
       x1="33.656094"
       y1="272.67798"
       x2="30.081285"
       y2="254.27203" />
    <linearGradient
       id="linearGradient7"
       inkscape:collect="always">
      <stop
         style="stop-color:#517e2e;stop-opacity:1;"
         offset="0"
         id="stop7" />
      <stop
         style="stop-color:#55c256;stop-opacity:1;"
         offset="1"
         id="stop8" />
    </linearGradient>
    <linearGradient
       inkscape:collect="always"
       xlink:href="#linearGradient7"
       id="linearGradient9"
       gradientUnits="userSpaceOnUse"
       gradientTransform="matrix(-0.04643938,6.777667e-4,-0.00957073,0.04515143,8.2243398,1.7245382)"
       x1="33.656094"
       y1="272.67798"
       x2="30.081285"
       y2="254.27203" />
    <linearGradient
       inkscape:collect="always"
       xlink:href="#linearGradient7"
       id="linearGradient8"
       x1="33.656094"
       y1="272.67798"
       x2="30.081285"
       y2="254.27203"
       gradientUnits="userSpaceOnUse"
       gradientTransform="matrix(0.05560257,6.777667e-4,0.01145917,0.04515143,-2.1416998,0.59033489)" />
    <linearGradient
       inkscape:collect="always"
       xlink:href="#linearGradient5"
       id="linearGradient6"
       x1="96.293823"
       y1="163.2975"
       x2="106.53251"
       y2="189.90877"
       gradientUnits="userSpaceOnUse"
       gradientTransform="matrix(0.06219252,0,0,0.05947685,1.654128,0.10647949)" />
    <linearGradient
       id="linearGradient5"
       inkscape:collect="always">
      <stop
         style="stop-color:#f2f2f2;stop-opacity:1;"
         offset="0"
         id="stop5" />
      <stop
         style="stop-color:#ececec;stop-opacity:0;"
         offset="1"
         id="stop6" />
    </linearGradient>
  </defs>
  <g
     inkscape:label="Layer 1"
     inkscape:groupmode="layer"
     id="layer1">
    <ellipse
       style="fill:#000000;fill-opacity:0.143426;stroke:#c00707;stroke-width:0.165;stroke-dasharray:none;stroke-opacity:0.421348"
       id="path5"
       cx="7.4724536"
       cy="11.982809"
       rx="0.24757871"
       ry="0.26408395" />
    <path
       style="fill:none;fill-opacity:1;stroke:#000000;stroke-width:0.365;stroke-dasharray:none;stroke-opacity:1"
       d="m 2.445302,11.717785 c 0,0 2.7866716,-1.7390433 4.3081563,-2.3063323 C 9.4529596,8.4049372 11.538913,8.4581317 11.467723,8.4875721 L 12.33497,8.3711682 13.034854,8.734931 12.821845,10.291835 4.1797971,13.973114 2.8104587,12.72177 Z"
       id="path10"
       sodipodi:nodetypes="csccccccc" />
    <path
       style="fill:#adadad;fill-opacity:1;stroke-width:0.264583"
       d="m 2.5388126,11.7321 c 0,0 3.2858855,-2.0735434 5.1099739,-2.555821 C 11.391916,8.1866187 11.686062,8.6016445 11.686062,8.6016445 l -1.395681,2.0930785 z"
       id="path5-8"
       sodipodi:nodetypes="csccc" />
    <path
       style="fill:#dadada;fill-opacity:1;stroke-width:0.264583"
       d="m 4.0686478,13.96101 8.6743862,-3.677437 0.26828,-1.5678995 -2.183592,0.1328649 c 0,0 -1.6267898,0.1868458 -2.8227922,0.6619453 -1.4778418,0.5870573 -3.429531,1.5065573 -3.429531,1.5065573 l -0.8942661,1.661143 z"
       id="path1"
       sodipodi:nodetypes="ccccsccc" />
    <path
       style="fill:url(#linearGradient6);fill-opacity:1;stroke-width:0.264583"
       d="m 4.4657368,12.598105 7.9287172,-3.4861153 0.522899,-0.2286449 -1.965348,0.063293 c 0,0 -1.7722863,0.2390249 -2.9682887,0.7141243 -1.4778418,0.587057 -3.265847,1.52395 -3.265847,1.52395 l -0.5487125,1.330677 z"
       id="path1-3"
       sodipodi:nodetypes="ccccsccc" />
    <path
       style="fill:#b7b7b7;fill-opacity:1;stroke-width:0.264583"
       d="m 4.5354769,11.048433 -0.3976707,-0.161586 -1.63439,0.847203 1.3166471,1.104063 z"
       id="path3"
       sodipodi:nodetypes="ccccc" />
    <path
       style="fill:#919191;fill-opacity:1;stroke-width:0.264583"
       d="M 2.4887768,11.708936 3.844816,12.811049 4.081778,13.927667 2.7040045,12.586383 Z"
       id="path2"
       sodipodi:nodetypes="ccccc" />
    <path
       style="fill:#9e9e9e;fill-opacity:1;stroke-width:0.264583"
       d="M 11.542756,8.8023485 11.319729,8.5703675 12.2959,8.4306003 13.019388,8.769295 Z"
       id="path4"
       sodipodi:nodetypes="ccccc" />
    <path
       style="fill:url(#linearGradient8);stroke-width:0.217635"
       d="m 2.6296541,12.981358 c 0,0 0.013048,-0.284962 -0.3117895,-0.508395 C 1.9643269,12.229789 1.2858306,12.041167 1.9446691,12.1758 2.2465538,12.23749 2.8095592,12.890347 2.5481104,12.465135 2.2218661,11.93454 1.9403056,11.640214 2.3145147,12.027693 c 0.4647075,0.481185 0.4313713,0.753448 0.4401202,0.509959 0.014942,-0.415779 -0.1000395,-1.114294 0.081317,-0.399716 0.1813556,0.714578 0.3399119,0.835239 0.2628022,0.819457 -0.07711,-0.01578 -0.4690998,0.02396 -0.4690998,0.02396 z"
       id="path6"
       sodipodi:nodetypes="csssssssc" />
    <path
       style="fill:url(#linearGradient9);stroke-width:0.198896"
       d="m 4.2392968,14.115562 c 0,0 -0.010895,-0.284962 0.2604071,-0.508395 0.2952752,-0.243174 0.8619572,-0.431796 0.3116938,-0.297163 -0.2521353,0.06169 -0.7223587,0.714547 -0.5039958,0.289335 0.27248,-0.530595 0.5076403,-0.82492 0.1950996,-0.437442 -0.3881247,0.481185 -0.3602819,0.753448 -0.3675893,0.509958 -0.012474,-0.415778 0.083553,-1.114293 -0.067914,-0.399715 -0.1514683,0.714578 -0.2838953,0.835238 -0.2194921,0.819457 0.064401,-0.01578 0.3917925,0.02396 0.3917925,0.02396 z"
       id="path6-7"
       sodipodi:nodetypes="csssssssc" />
    <path
       style="fill:url(#linearGradient10);stroke-width:0.198896"
       d="m 13.012422,10.458904 c 0,0 -0.08947,-0.272012 0.110221,-0.5562133 0.217334,-0.309312 0.711488,-0.6348044 0.218205,-0.3655311 -0.226026,0.1233829 -0.49853,0.8720674 -0.405802,0.4067182 0.11571,-0.5806797 0.260904,-0.9240794 0.06691,-0.471247 -0.240911,0.5623442 -0.13862,0.8178162 -0.213138,0.5848842 -0.127244,-0.3977505 -0.228206,-1.0956292 -0.176249,-0.3682125 0.05195,0.7274165 -0.0423,0.8773245 0.01543,0.8457855 0.05773,-0.03153 0.384426,-0.07618 0.384425,-0.07618 z"
       id="path6-7-9"
       sodipodi:nodetypes="csssssssc" />
  </g>
</svg>
