<?xml version="1.0" encoding="UTF-8" standalone="no"?>
<!-- Created with Inkscape (http://www.inkscape.org/) -->

<svg
   width="15mm"
   height="15mm"
   viewBox="0 0 15 15"
   version="1.1"
   id="svg1"
   inkscape:export-filename="holy-well.png"
   inkscape:export-xdpi="96"
   inkscape:export-ydpi="96"
   inkscape:version="1.3.2 (091e20e, 2023-11-25)"
   sodipodi:docname="holy-well.svg"
   xmlns:inkscape="http://www.inkscape.org/namespaces/inkscape"
   xmlns:sodipodi="http://sodipodi.sourceforge.net/DTD/sodipodi-0.dtd"
   xmlns="http://www.w3.org/2000/svg"
   xmlns:svg="http://www.w3.org/2000/svg">
  <sodipodi:namedview
     id="namedview1"
     pagecolor="#ffffff"
     bordercolor="#000000"
     borderopacity="0.25"
     inkscape:showpageshadow="2"
     inkscape:pageopacity="0.0"
     inkscape:pagecheckerboard="0"
     inkscape:deskcolor="#d1d1d1"
     inkscape:document-units="mm"
     showguides="false"
     inkscape:zoom="9.1929844"
     inkscape:cx="13.27099"
     inkscape:cy="26.433201"
     inkscape:window-width="1792"
     inkscape:window-height="993"
     inkscape:window-x="670"
     inkscape:window-y="143"
     inkscape:window-maximized="0"
     inkscape:current-layer="layer1" />
  <defs
     id="defs1">
    <filter
       inkscape:collect="always"
       style="color-interpolation-filters:sRGB"
       id="filter12"
       x="-0.15415363"
       y="-0.62262053"
       width="1.3083073"
       height="2.2452411">
      <feGaussianBlur
         inkscape:collect="always"
         stdDeviation="0.16131436"
         id="feGaussianBlur12" />
    </filter>
  </defs>
  <g
     inkscape:label="Layer 1"
     inkscape:groupmode="layer"
     id="layer1">
    <ellipse
       style="fill:#000000;fill-opacity:0.143426;stroke:#c00707;stroke-width:0.165;stroke-dasharray:none;stroke-opacity:0.421348"
       id="path5"
       cx="7.4724536"
       cy="11.982809"
       rx="0.24757871"
       ry="0.26408395" />
    <g
       id="g12"
       transform="matrix(0.95237451,0,0,0.95300844,0.66997147,3.1917809)"
       style="stroke-width:1.04965">
      <path
         id="path9-7"
         style="fill:#000000;fill-opacity:0.331325;stroke:none;stroke-width:0.104965;stroke-linecap:round;stroke-linejoin:round;stroke-dasharray:none;stroke-opacity:0.315261"
         d="m 10.117973,4.6141923 -2.2568924,0.7536527 -0.0019,-0.00137 -0.026444,0.010967 -0.00615,0.00192 3.727e-4,2.742e-4 -0.05393,0.021932 L 7.7571762,5.3895021 4.6085728,6.673371 4.8618004,6.8636347 5.144155,6.7484896 6.1274232,6.51628 5.3870403,7.9215962 5.2803013,8.1241969 5.2747607,8.1239228 a 0.42770327,2.3166 88.923854 0 0 -0.028118,0.064152 L 4.6558995,9.3093701 4.6446749,9.309096 a 0.42770327,2.3166 88.923854 0 0 0.8527382,0.3912194 0.42770327,2.3166 88.923854 0 0 2.3410392,0.01453 0.42770327,2.3166 88.923854 0 0 1.3959444,-0.3769633 h -0.05219 L 9.2760877,9.159686 a 0.42770327,2.3166 88.923854 0 0 0.120682,-0.102534 h -0.05323 L 9.4525892,8.8501645 a 0.42770327,2.3166 88.923854 0 0 0.098702,-0.088278 h -0.05168 l 0.094173,-0.1787492 a 0.42770327,2.3166 88.923854 0 0 0.120393,-0.1019857 h -0.05374 l 0.137938,-0.2618182 a 0.42770327,2.3166 88.923854 0 0 0.06596,-0.066345 H 9.8333243 L 9.9364553,7.957241 a 0.42770327,2.3166 88.923854 0 0 0.0878,-0.080328 l 7.34e-4,-0.00247 a 0.42770327,2.3166 88.923854 0 0 0.0018,-0.00247 h -0.0015 l 0.01,-0.042496 a 0.42770327,2.3166 88.923854 0 0 -0.0073,-0.017546 l 0.64939,-1.2326018 0.816821,-0.3056831 0.07854,0.062781 0.507241,-0.2143893 -1.87081,-1.4985324 -0.0512,0.021658 z M 7.9785149,6.0787295 9.3462436,7.1128429 9.8804553,6.8943412 9.8657393,6.8831012 9.9905463,6.8364952 9.5923333,7.592341 A 0.42770327,2.3166 88.923854 0 0 7.7545512,7.4484091 0.42770327,2.3166 88.923854 0 0 6.1082808,7.5991944 L 6.7572369,6.3674149 Z" />
      <ellipse
         style="fill:none;fill-opacity:1;stroke:#000000;stroke-width:1.25959;stroke-linecap:round;stroke-linejoin:round;stroke-dasharray:none;stroke-opacity:1;filter:url(#filter12)"
         id="path10-0"
         cx="6.9657269"
         cy="0.61666203"
         rx="3.2984934"
         ry="0.81666875" />
      <path
         style="fill:#094656;fill-opacity:1;stroke:none;stroke-width:0.104965;stroke-linecap:round;stroke-linejoin:round;stroke-dasharray:none;stroke-opacity:1"
         d="M 3.5848578,4.3060718 5.7484996,2.163642 7.2545643,2.4394003 Z"
         id="path9" />
      <path
         style="fill:#e56024;fill-opacity:1;stroke:#a58a7e;stroke-width:0.104965;stroke-linecap:round;stroke-linejoin:round;stroke-dasharray:none;stroke-opacity:1"
         id="path6"
         sodipodi:type="arc"
         sodipodi:cx="6.9153252"
         sodipodi:cy="9.0949078"
         sodipodi:rx="2.3051083"
         sodipodi:ry="0.8102113"
         sodipodi:start="0"
         sodipodi:end="3.2089095"
         sodipodi:arc-type="slice"
         d="M 9.2204335,9.0949078 A 2.3051083,0.8102113 0 0 1 8.0227985,9.8054841 2.3051083,0.8102113 0 0 1 5.6743726,9.7776907 2.3051083,0.8102113 0 0 1 4.6154377,9.0404081 l 2.2998875,0.0545 z" />
      <rect
         style="fill:#e56024;fill-opacity:1;stroke:none;stroke-width:0.104965;stroke-linecap:round;stroke-linejoin:round;stroke-dasharray:none;stroke-opacity:1"
         id="rect7"
         width="4.5417476"
         height="2.8985026"
         x="4.6266823"
         y="6.2317848" />
      <path
         style="fill:#e56024;fill-opacity:1;stroke:#a58a7e;stroke-width:0.104965;stroke-linecap:round;stroke-linejoin:round;stroke-dasharray:none;stroke-opacity:1"
         id="path6-4-5"
         sodipodi:type="arc"
         sodipodi:cx="6.9298444"
         sodipodi:cy="8.5656214"
         sodipodi:rx="2.3051083"
         sodipodi:ry="0.8102113"
         sodipodi:start="0"
         sodipodi:end="3.2089095"
         sodipodi:arc-type="slice"
         d="M 9.2349527,8.5656214 A 2.3051083,0.8102113 0 0 1 8.0373177,9.2761977 2.3051083,0.8102113 0 0 1 5.6888918,9.2484043 2.3051083,0.8102113 0 0 1 4.629957,8.5111217 l 2.2998874,0.0545 z" />
      <rect
         style="fill:#e56024;fill-opacity:1;stroke:none;stroke-width:0.104965;stroke-linecap:round;stroke-linejoin:round;stroke-dasharray:none;stroke-opacity:1"
         id="rect7-3"
         width="4.5417476"
         height="2.3537998"
         x="4.6399422"
         y="6.2332911" />
      <path
         style="fill:#e56024;fill-opacity:1;stroke:#a58a7e;stroke-width:0.104965;stroke-linecap:round;stroke-linejoin:round;stroke-dasharray:none;stroke-opacity:1"
         id="path6-0"
         sodipodi:type="arc"
         sodipodi:cx="6.9289155"
         sodipodi:cy="8.0090208"
         sodipodi:rx="2.3051083"
         sodipodi:ry="0.8102113"
         sodipodi:start="0"
         sodipodi:end="3.2089095"
         sodipodi:arc-type="slice"
         d="M 9.2340238,8.0090208 A 2.3051083,0.8102113 0 0 1 8.0363888,8.7195971 2.3051083,0.8102113 0 0 1 5.6879629,8.6918037 2.3051083,0.8102113 0 0 1 4.6290281,7.9545211 l 2.2998874,0.0545 z" />
      <rect
         style="fill:#e56024;fill-opacity:1;stroke:none;stroke-width:0.104965;stroke-linecap:round;stroke-linejoin:round;stroke-dasharray:none;stroke-opacity:1"
         id="rect7-4"
         width="4.5417476"
         height="1.8436579"
         x="4.6402726"
         y="6.2007427" />
      <path
         style="fill:#e56024;fill-opacity:1;stroke:#a58a7e;stroke-width:0.104965;stroke-linecap:round;stroke-linejoin:round;stroke-dasharray:none;stroke-opacity:1"
         id="path6-4-5-6"
         sodipodi:type="arc"
         sodipodi:cx="6.9434342"
         sodipodi:cy="7.4797344"
         sodipodi:rx="2.3051083"
         sodipodi:ry="0.8102113"
         sodipodi:start="0"
         sodipodi:end="3.2089095"
         sodipodi:arc-type="slice"
         d="M 9.2485425,7.4797344 A 2.3051083,0.8102113 0 0 1 8.0509075,8.1903107 2.3051083,0.8102113 0 0 1 5.7024816,8.1625173 2.3051083,0.8102113 0 0 1 4.6435468,7.4252347 l 2.2998874,0.0545 z" />
      <rect
         style="fill:#e56024;fill-opacity:1;stroke:none;stroke-width:0.104965;stroke-linecap:round;stroke-linejoin:round;stroke-dasharray:none;stroke-opacity:1"
         id="rect7-3-4"
         width="4.5417476"
         height="1.20306"
         x="4.6535325"
         y="6.2981439" />
      <path
         style="fill:#e56024;fill-opacity:1;stroke:#a58a7e;stroke-width:0.104965;stroke-linecap:round;stroke-linejoin:round;stroke-dasharray:none;stroke-opacity:1"
         id="path6-8"
         sodipodi:type="arc"
         sodipodi:cx="6.9210539"
         sodipodi:cy="6.8611197"
         sodipodi:rx="2.3051083"
         sodipodi:ry="0.8102113"
         sodipodi:start="0"
         sodipodi:end="3.2089095"
         sodipodi:arc-type="slice"
         d="M 9.2261622,6.8611197 A 2.3051083,0.8102113 0 0 1 8.0285272,7.5716961 2.3051083,0.8102113 0 0 1 5.6801013,7.5439027 2.3051083,0.8102113 0 0 1 4.6211665,6.8066201 l 2.2998874,0.0545 z" />
      <rect
         style="fill:#e56024;fill-opacity:1;stroke:none;stroke-width:0.104965;stroke-linecap:round;stroke-linejoin:round;stroke-dasharray:none;stroke-opacity:1"
         id="rect7-40"
         width="4.5417476"
         height="0.62099683"
         x="4.632411"
         y="6.2755032" />
      <path
         style="fill:#e56024;fill-opacity:1;stroke:#a58a7e;stroke-width:0.104965;stroke-linecap:round;stroke-linejoin:round;stroke-dasharray:none;stroke-opacity:1"
         id="path6-4-5-0"
         sodipodi:type="arc"
         sodipodi:cx="6.9355731"
         sodipodi:cy="6.3318338"
         sodipodi:rx="2.3051083"
         sodipodi:ry="0.8102113"
         sodipodi:start="0"
         sodipodi:end="3.2089095"
         sodipodi:arc-type="slice"
         d="M 9.2406814,6.3318338 A 2.3051083,0.8102113 0 0 1 8.0430464,7.0424102 2.3051083,0.8102113 0 0 1 5.6946205,7.0146168 2.3051083,0.8102113 0 0 1 4.6356857,6.2773342 l 2.2998874,0.0545 z" />
      <rect
         style="fill:#e56024;fill-opacity:1;stroke:none;stroke-width:0.104965;stroke-linecap:round;stroke-linejoin:round;stroke-dasharray:none;stroke-opacity:1"
         id="rect7-3-9"
         width="4.5417476"
         height="0.24411026"
         x="4.6456709"
         y="6.1091933" />
      <path
         style="fill:#e56024;fill-opacity:1;stroke:#a58a7e;stroke-width:0.104965;stroke-linecap:round;stroke-linejoin:round;stroke-dasharray:none;stroke-opacity:1"
         id="path6-4"
         sodipodi:type="arc"
         sodipodi:cx="6.9355698"
         sodipodi:cy="6.3408012"
         sodipodi:rx="2.3051083"
         sodipodi:ry="0.8102113"
         sodipodi:start="0"
         sodipodi:end="6.1728562"
         sodipodi:arc-type="arc"
         d="M 9.2406781,6.3408012 A 2.3051083,0.8102113 0 0 1 6.9991418,7.1507044 2.3051083,0.8102113 0 0 1 4.6339679,6.3854735 2.3051083,0.8102113 0 0 1 6.745047,5.5333621 2.3051083,0.8102113 0 0 1 9.2266628,6.2515926"
         sodipodi:open="true" />
      <path
         style="fill:#000000;fill-opacity:1;stroke:#a58a7e;stroke-width:0.104965;stroke-linecap:round;stroke-linejoin:round;stroke-dasharray:none;stroke-opacity:1"
         id="path6-4-7"
         sodipodi:type="arc"
         sodipodi:cx="6.9018159"
         sodipodi:cy="6.2615466"
         sodipodi:rx="1.7297318"
         sodipodi:ry="0.51054806"
         sodipodi:start="0"
         sodipodi:end="6.1728562"
         sodipodi:arc-type="arc"
         d="M 8.6315477,6.2615466 A 1.7297318,0.51054806 0 0 1 6.9495198,6.7719005 1.7297318,0.51054806 0 0 1 5.1747153,6.2896965 1.7297318,0.51054806 0 0 1 6.7588493,5.7527454 1.7297318,0.51054806 0 0 1 8.6210308,6.2053325"
         sodipodi:open="true" />
      <rect
         style="fill:#7a330d;fill-opacity:1;stroke:none;stroke-width:0.104965;stroke-linecap:round;stroke-linejoin:round;stroke-dasharray:none;stroke-opacity:1"
         id="rect8"
         width="0.55139613"
         height="3.6605785"
         x="4.6269326"
         y="2.764385" />
      <rect
         style="fill:#7a330d;fill-opacity:1;stroke:none;stroke-width:0.104965;stroke-linecap:round;stroke-linejoin:round;stroke-dasharray:none;stroke-opacity:1"
         id="rect8-5"
         width="0.55139613"
         height="3.7878516"
         x="8.6584558"
         y="2.6209874" />
      <rect
         style="fill:#7a330d;fill-opacity:1;stroke:none;stroke-width:0.104965;stroke-linecap:round;stroke-linejoin:round;stroke-dasharray:none;stroke-opacity:1"
         id="rect8-5-0"
         width="0.58740091"
         height="4.0352411"
         x="2.3921106"
         y="5.179554"
         transform="matrix(0.71327209,-0.70088724,0.70038386,0.71376639,0,0)" />
      <rect
         style="fill:#7a330d;fill-opacity:1;stroke:none;stroke-width:0.104965;stroke-linecap:round;stroke-linejoin:round;stroke-dasharray:none;stroke-opacity:1"
         id="rect8-5-0-5"
         width="0.50352043"
         height="3.4591608"
         x="-5.645575"
         y="-0.58421212"
         transform="matrix(-0.70173585,-0.71243722,0.71459959,-0.69953372,0,0)"
         inkscape:transform-center-x="0.7566323"
         inkscape:transform-center-y="-2.8818131" />
      <rect
         style="fill:#7a330d;fill-opacity:1;stroke:none;stroke-width:0.105011;stroke-linecap:round;stroke-linejoin:round;stroke-dasharray:none;stroke-opacity:1"
         id="rect8-5-0-58"
         width="0.56436145"
         height="3.8798711"
         x="4.9113498"
         y="5.6676216"
         transform="matrix(0.69871701,-0.71539816,0.6855784,0.72799881,0,0)" />
      <path
         style="fill:#094656;fill-opacity:1;stroke:none;stroke-width:0.104965;stroke-linecap:round;stroke-linejoin:round;stroke-dasharray:none;stroke-opacity:1"
         d="M 5.7272875,1.6333375 8.5485065,4.4757691 10.287906,2.9484924 7.6151715,0.19090959 Z"
         id="path8" />
      <ellipse
         style="fill:none;fill-opacity:1;stroke:#ece811;stroke-width:0.524828;stroke-linecap:round;stroke-linejoin:round;stroke-dasharray:none;stroke-opacity:0.861446"
         id="path10"
         cx="6.8409266"
         cy="0.6257593"
         rx="3.2984934"
         ry="0.81666875" />
    </g>
  </g>
</svg>
