<?xml version="1.0" encoding="UTF-8" standalone="no"?>
<!-- Created with Inkscape (http://www.inkscape.org/) -->

<svg
   width="15mm"
   height="15mm"
   viewBox="0 0 15 15"
   version="1.1"
   id="svg1"
   inkscape:export-filename="holy-well.png"
   inkscape:export-xdpi="96"
   inkscape:export-ydpi="96"
   inkscape:version="1.3.2 (091e20e, 2023-11-25)"
   sodipodi:docname="holy-well.svg"
   xmlns:inkscape="http://www.inkscape.org/namespaces/inkscape"
   xmlns:sodipodi="http://sodipodi.sourceforge.net/DTD/sodipodi-0.dtd"
   xmlns="http://www.w3.org/2000/svg"
   xmlns:svg="http://www.w3.org/2000/svg">
  <sodipodi:namedview
     id="namedview1"
     pagecolor="#ffffff"
     bordercolor="#000000"
     borderopacity="0.25"
     inkscape:showpageshadow="2"
     inkscape:pageopacity="0.0"
     inkscape:pagecheckerboard="0"
     inkscape:deskcolor="#d1d1d1"
     inkscape:document-units="mm"
     showguides="false"
     inkscape:zoom="9.1929844"
     inkscape:cx="13.379768"
     inkscape:cy="26.433201"
     inkscape:window-width="1792"
     inkscape:window-height="993"
     inkscape:window-x="670"
     inkscape:window-y="115"
     inkscape:window-maximized="0"
     inkscape:current-layer="layer1" />
  <defs
     id="defs1">
    <filter
       inkscape:collect="always"
       style="color-interpolation-filters:sRGB"
       id="filter12"
       x="-0.18597593"
       y="-0.75114954"
       width="1.3719519"
       height="2.5022991">
      <feGaussianBlur
         inkscape:collect="always"
         stdDeviation="0.16131436"
         id="feGaussianBlur12" />
    </filter>
  </defs>
  <g
     inkscape:label="Layer 1"
     inkscape:groupmode="layer"
     id="layer1">
    <ellipse
       style="fill:#000000;fill-opacity:0.143426;stroke:#c00707;stroke-width:0.165;stroke-dasharray:none;stroke-opacity:0.421348"
       id="path5"
       cx="7.4724536"
       cy="11.982809"
       rx="0.24757871"
       ry="0.26408395" />
    <path
       id="path9-7"
       style="fill:#000000;fill-opacity:0.331325;stroke:none;stroke-width:0.0999993;stroke-linecap:round;stroke-linejoin:round;stroke-dasharray:none;stroke-opacity:0.315261"
       d="m 10.306071,7.5891451 -2.1494067,0.7182374 -0.00181,-0.00131 -0.025184,0.010452 -0.00586,0.00183 3.55e-4,2.613e-4 -0.051362,0.020901 L 8.0577053,8.3280178 5.0590556,9.5515557 5.3002231,9.7328786 5.5691305,9.6231443 6.50557,9.4018466 5.8004482,10.741125 l -0.1016555,0.19308 -0.00528,-2.61e-4 a 0.40760473,2.2062713 88.923087 0 0 -0.026779,0.06114 l -0.5626087,1.068604 -0.01069,-2.61e-4 a 0.40760473,2.2062713 88.923087 0 0 0.8121261,0.372835 0.40760473,2.2062713 88.923087 0 0 2.229546,0.01385 0.40760473,2.2062713 88.923087 0 0 1.3294619,-0.35925 H 9.414865 l 0.08941,-0.169822 a 0.40760473,2.2062713 88.923087 0 0 0.1149345,-0.09772 h -0.050695 l 0.103856,-0.197261 a 0.40760473,2.2062713 88.923087 0 0 0.094001,-0.08413 H 9.717159 l 0.089688,-0.17035 a 0.40760473,2.2062713 88.923087 0 0 0.1146592,-0.09719 h -0.051181 l 0.1313688,-0.249515 a 0.40760473,2.2062713 88.923087 0 0 0.06282,-0.06323 h -0.02953 l 0.09822,-0.186549 a 0.40760473,2.2062713 88.923087 0 0 0.08362,-0.07655 l 6.99e-4,-0.0024 a 0.40760473,2.2062713 88.923087 0 0 0.0017,-0.0024 h -0.0014 l 0.0095,-0.0405 a 0.40760473,2.2062713 88.923087 0 0 -0.007,-0.01672 l 0.618462,-1.1746799 0.77792,-0.2913186 0.0748,0.059831 0.483084,-0.2043148 -1.781712,-1.428114 -0.04876,0.02064 z M 8.2685057,8.9848614 9.5710956,9.9703802 10.079865,9.7621463 10.06585,9.7514344 10.184713,9.7070185 9.8054652,10.427346 A 0.40760473,2.2062713 88.923087 0 0 8.0552084,10.290178 0.40760473,2.2062713 88.923087 0 0 6.4873424,10.433877 L 7.1053917,9.259981 Z" />
    <ellipse
       style="fill:none;fill-opacity:1;stroke:#000000;stroke-width:1.67945251;stroke-linecap:round;stroke-linejoin:round;stroke-dasharray:none;stroke-opacity:1;filter:url(#filter12)"
       id="path10-0"
       cx="6.9657269"
       cy="0.61666203"
       rx="3.2984934"
       ry="0.81666875"
       transform="matrix(0.95237451,0,0,0.95300844,0.55484745,2.7312848)" />
    <path
       style="fill:#094656;fill-opacity:1;stroke:none;stroke-width:0.0999993;stroke-linecap:round;stroke-linejoin:round;stroke-dasharray:none;stroke-opacity:1"
       d="M 4.0840987,7.2955037 6.144696,5.25375 7.5790336,5.51655 Z"
       id="path9" />
    <path
       style="fill:#e56024;fill-opacity:1;stroke:#a58a7e;stroke-width:0.0999993;stroke-linecap:round;stroke-linejoin:round;stroke-dasharray:none;stroke-opacity:1"
       id="path6"
       sodipodi:type="arc"
       sodipodi:cx="7.2559509"
       sodipodi:cy="11.859304"
       sodipodi:rx="2.1953263"
       sodipodi:ry="0.77213818"
       sodipodi:start="0"
       sodipodi:end="3.2089095"
       sodipodi:arc-type="slice"
       d="M 9.4512773,11.859304 A 2.1953263,0.77213818 0 0 1 8.3106802,12.53649 2.1953263,0.77213818 0 0 1 6.0740993,12.510002 2.1953263,0.77213818 0 0 1 5.0655968,11.807366 l 2.1903541,0.05194 z" />
    <rect
       style="fill:#e56024;fill-opacity:1;stroke:none;stroke-width:0.0999993;stroke-linecap:round;stroke-linejoin:round;stroke-dasharray:none;stroke-opacity:1"
       id="rect7"
       width="4.3254447"
       height="2.7622974"
       x="5.0763059"
       y="9.1307249" />
    <path
       style="fill:#e56024;fill-opacity:1;stroke:#a58a7e;stroke-width:0.0999993;stroke-linecap:round;stroke-linejoin:round;stroke-dasharray:none;stroke-opacity:1"
       id="path6-4-5"
       sodipodi:type="arc"
       sodipodi:cx="7.2697787"
       sodipodi:cy="11.354891"
       sodipodi:rx="2.1953263"
       sodipodi:ry="0.77213818"
       sodipodi:start="0"
       sodipodi:end="3.2089095"
       sodipodi:arc-type="slice"
       d="M 9.4651051,11.354891 A 2.1953263,0.77213818 0 0 1 8.324508,12.032076 2.1953263,0.77213818 0 0 1 6.0879271,12.005589 2.1953263,0.77213818 0 0 1 5.0794246,11.302952 l 2.1903541,0.05194 z" />
    <rect
       style="fill:#e56024;fill-opacity:1;stroke:none;stroke-width:0.0999993;stroke-linecap:round;stroke-linejoin:round;stroke-dasharray:none;stroke-opacity:1"
       id="rect7-3"
       width="4.3254447"
       height="2.243191"
       x="5.0889339"
       y="9.1321602" />
    <path
       style="fill:#e56024;fill-opacity:1;stroke:#a58a7e;stroke-width:0.0999993;stroke-linecap:round;stroke-linejoin:round;stroke-dasharray:none;stroke-opacity:1"
       id="path6-0"
       sodipodi:type="arc"
       sodipodi:cx="7.2688942"
       sodipodi:cy="10.824446"
       sodipodi:rx="2.1953263"
       sodipodi:ry="0.77213818"
       sodipodi:start="0"
       sodipodi:end="3.2089095"
       sodipodi:arc-type="slice"
       d="m 9.4642205,10.824446 a 2.1953263,0.77213818 0 0 1 -1.140597,0.677185 2.1953263,0.77213818 0 0 1 -2.2365809,-0.02649 2.1953263,0.77213818 0 0 1 -1.0085025,-0.702637 l 2.1903541,0.05194 z" />
    <rect
       style="fill:#e56024;fill-opacity:1;stroke:none;stroke-width:0.0999993;stroke-linecap:round;stroke-linejoin:round;stroke-dasharray:none;stroke-opacity:1"
       id="rect7-4"
       width="4.3254447"
       height="1.7570215"
       x="5.0892487"
       y="9.101141" />
    <path
       style="fill:#e56024;fill-opacity:1;stroke:#a58a7e;stroke-width:0.0999993;stroke-linecap:round;stroke-linejoin:round;stroke-dasharray:none;stroke-opacity:1"
       id="path6-4-5-6"
       sodipodi:type="arc"
       sodipodi:cx="7.282721"
       sodipodi:cy="10.320031"
       sodipodi:rx="2.1953263"
       sodipodi:ry="0.77213818"
       sodipodi:start="0"
       sodipodi:end="3.2089095"
       sodipodi:arc-type="slice"
       d="M 9.4780474,10.320031 A 2.1953263,0.77213818 0 0 1 8.3374503,10.997216 2.1953263,0.77213818 0 0 1 6.1008695,10.970729 2.1953263,0.77213818 0 0 1 5.092367,10.268093 l 2.190354,0.05194 z" />
    <rect
       style="fill:#e56024;fill-opacity:1;stroke:none;stroke-width:0.0999993;stroke-linecap:round;stroke-linejoin:round;stroke-dasharray:none;stroke-opacity:1"
       id="rect7-3-4"
       width="4.3254447"
       height="1.1465263"
       x="5.1018772"
       y="9.193965" />
    <path
       style="fill:#e56024;fill-opacity:1;stroke:#a58a7e;stroke-width:0.0999993;stroke-linecap:round;stroke-linejoin:round;stroke-dasharray:none;stroke-opacity:1"
       id="path6-8"
       sodipodi:type="arc"
       sodipodi:cx="7.2614069"
       sodipodi:cy="9.7304859"
       sodipodi:rx="2.1953263"
       sodipodi:ry="0.77213818"
       sodipodi:start="0"
       sodipodi:end="3.2089095"
       sodipodi:arc-type="slice"
       d="M 9.4567332,9.7304859 A 2.1953263,0.77213818 0 0 1 8.3161362,10.407671 2.1953263,0.77213818 0 0 1 6.0795553,10.381184 2.1953263,0.77213818 0 0 1 5.0710528,9.6785473 l 2.1903541,0.051939 z" />
    <rect
       style="fill:#e56024;fill-opacity:1;stroke:none;stroke-width:0.0999993;stroke-linecap:round;stroke-linejoin:round;stroke-dasharray:none;stroke-opacity:1"
       id="rect7-40"
       width="4.3254447"
       height="0.59181523"
       x="5.0817618"
       y="9.1723881" />
    <path
       style="fill:#e56024;fill-opacity:1;stroke:#a58a7e;stroke-width:0.0999993;stroke-linecap:round;stroke-linejoin:round;stroke-dasharray:none;stroke-opacity:1"
       id="path6-4-5-0"
       sodipodi:type="arc"
       sodipodi:cx="7.2752347"
       sodipodi:cy="9.2260723"
       sodipodi:rx="2.1953263"
       sodipodi:ry="0.77213818"
       sodipodi:start="0"
       sodipodi:end="3.2089095"
       sodipodi:arc-type="slice"
       d="M 9.470561,9.2260723 A 2.1953263,0.77213818 0 0 1 8.329964,9.9032575 2.1953263,0.77213818 0 0 1 6.0933831,9.8767702 2.1953263,0.77213818 0 0 1 5.0848806,9.1741337 l 2.1903541,0.051939 z" />
    <rect
       style="fill:#e56024;fill-opacity:1;stroke:none;stroke-width:0.0999993;stroke-linecap:round;stroke-linejoin:round;stroke-dasharray:none;stroke-opacity:1"
       id="rect7-3-9"
       width="4.3254447"
       height="0.23263913"
       x="5.0943899"
       y="9.0138941" />
    <path
       style="fill:#e56024;fill-opacity:1;stroke:#a58a7e;stroke-width:0.0999993;stroke-linecap:round;stroke-linejoin:round;stroke-dasharray:none;stroke-opacity:1"
       id="path6-4"
       sodipodi:type="arc"
       sodipodi:cx="7.2752314"
       sodipodi:cy="9.2346182"
       sodipodi:rx="2.1953263"
       sodipodi:ry="0.77213818"
       sodipodi:start="0"
       sodipodi:end="6.1728562"
       sodipodi:arc-type="arc"
       d="M 9.4705577,9.2346182 A 2.1953263,0.77213818 0 0 1 7.3357758,10.006463 2.1953263,0.77213818 0 0 1 5.0832445,9.2771912 2.1953263,0.77213818 0 0 1 7.0937823,8.4651219 2.1953263,0.77213818 0 0 1 9.4572099,9.1496016"
       sodipodi:open="true" />
    <path
       style="fill:#000000;fill-opacity:1;stroke:#a58a7e;stroke-width:0.0999993;stroke-linecap:round;stroke-linejoin:round;stroke-dasharray:none;stroke-opacity:1"
       id="path6-4-7"
       sodipodi:type="arc"
       sodipodi:cx="7.2430849"
       sodipodi:cy="9.1590881"
       sodipodi:rx="1.6473525"
       sodipodi:ry="0.48655662"
       sodipodi:start="0"
       sodipodi:end="6.1728562"
       sodipodi:arc-type="arc"
       d="M 8.8904374,9.1590881 A 1.6473525,0.48655662 0 0 1 7.2885169,9.6454597 1.6473525,0.48655662 0 0 1 5.5982384,9.1859152 1.6473525,0.48655662 0 0 1 7.1069272,8.6741963 1.6473525,0.48655662 0 0 1 8.8804213,9.1055156"
       sodipodi:open="true" />
    <rect
       style="fill:#7a330d;fill-opacity:1;stroke:none;stroke-width:0.0999993;stroke-linecap:round;stroke-linejoin:round;stroke-dasharray:none;stroke-opacity:1"
       id="rect8"
       width="0.52513564"
       height="3.4885621"
       x="5.0765443"
       y="5.826263" />
    <rect
       style="fill:#7a330d;fill-opacity:1;stroke:none;stroke-width:0.0999993;stroke-linecap:round;stroke-linejoin:round;stroke-dasharray:none;stroke-opacity:1"
       id="rect8-5"
       width="0.52513564"
       height="3.6098545"
       x="8.9160643"
       y="5.6896038" />
    <rect
       style="fill:#7a330d;fill-opacity:1;stroke:none;stroke-width:0.0999993;stroke-linecap:round;stroke-linejoin:round;stroke-dasharray:none;stroke-opacity:1"
       id="rect8-5-0"
       width="0.55960864"
       height="3.8443642"
       x="0.52257389"
       y="7.6801481"
       transform="matrix(0.7130389,-0.70112448,0.70014639,0.71399932,0,0)" />
    <rect
       style="fill:#7a330d;fill-opacity:1;stroke:none;stroke-width:0.0999992;stroke-linecap:round;stroke-linejoin:round;stroke-dasharray:none;stroke-opacity:1"
       id="rect8-5-0-5"
       width="0.47970206"
       height="3.2954898"
       x="-8.1274557"
       y="-2.3181367"
       transform="matrix(-0.70149881,-0.71267062,0.71436686,-0.69977138,0,0)"
       inkscape:transform-center-x="0.7566323"
       inkscape:transform-center-y="-2.8818131" />
    <rect
       style="fill:#7a330d;fill-opacity:1;stroke:none;stroke-width:0.100044;stroke-linecap:round;stroke-linejoin:round;stroke-dasharray:none;stroke-opacity:1"
       id="rect8-5-0-58"
       width="0.53766662"
       height="3.6963942"
       x="2.9779515"
       y="8.1108904"
       transform="matrix(0.69847903,-0.71563052,0.68533659,0.72822645,0,0)" />
    <path
       style="fill:#094656;fill-opacity:1;stroke:none;stroke-width:0.0999993;stroke-linecap:round;stroke-linejoin:round;stroke-dasharray:none;stroke-opacity:1"
       d="M 6.1244941,4.7483653 8.8113512,7.4572266 10.467911,6.001719 7.9224667,3.3737194 Z"
       id="path8" />
    <ellipse
       style="fill:none;fill-opacity:1;stroke:#ece811;stroke-width:0.8;stroke-linecap:round;stroke-linejoin:round;stroke-dasharray:none;stroke-opacity:0.861446"
       id="path10"
       cx="7.1850958"
       cy="3.2700768"
       rx="3.1414011"
       ry="0.77829224" />
  </g>
</svg>
