<?xml version="1.0" encoding="UTF-8" standalone="no"?>
<!-- Created with Inkscape (http://www.inkscape.org/) -->

<svg
   width="15mm"
   height="15mm"
   viewBox="0 0 15 15"
   version="1.1"
   id="svg1"
   inkscape:export-filename="hominid.png"
   inkscape:export-xdpi="96"
   inkscape:export-ydpi="96"
   inkscape:version="1.3.2 (091e20e, 2023-11-25)"
   sodipodi:docname="hominid.svg"
   xmlns:inkscape="http://www.inkscape.org/namespaces/inkscape"
   xmlns:sodipodi="http://sodipodi.sourceforge.net/DTD/sodipodi-0.dtd"
   xmlns="http://www.w3.org/2000/svg"
   xmlns:svg="http://www.w3.org/2000/svg">
  <sodipodi:namedview
     id="namedview1"
     pagecolor="#ffffff"
     bordercolor="#000000"
     borderopacity="0.25"
     inkscape:showpageshadow="2"
     inkscape:pageopacity="0.0"
     inkscape:pagecheckerboard="0"
     inkscape:deskcolor="#d1d1d1"
     inkscape:document-units="mm"
     showguides="false"
     inkscape:zoom="11.153993"
     inkscape:cx="27.523775"
     inkscape:cy="26.268619"
     inkscape:window-width="1448"
     inkscape:window-height="951"
     inkscape:window-x="0"
     inkscape:window-y="25"
     inkscape:window-maximized="0"
     inkscape:current-layer="layer1" />
  <defs
     id="defs1" />
  <g
     inkscape:label="Layer 1"
     inkscape:groupmode="layer"
     id="layer1">
    <ellipse
       style="fill:#000000;fill-opacity:0.143426;stroke:#c00707;stroke-width:0.165;stroke-dasharray:none;stroke-opacity:0.421348"
       id="path5"
       cx="7.4724536"
       cy="11.982809"
       rx="0.24757871"
       ry="0.26408395" />
    <g
       id="g1"
       style="stroke-width:0.6;stroke-dasharray:none">
      <path
         style="fill:#000000;stroke:#39d73a;stroke-width:0.6;stroke-dasharray:none;stroke-opacity:1"
         d="M 8.7344565,12.243036 C 8.3009451,12.274613 8.6763363,11.681804 8.4610305,11.6119 8.6194116,11.154603 8.2360282,10.933107 8.2920855,10.491257 7.9792116,10.167121 8.5088715,9.5370263 8.0312296,9.2629019 7.8650538,9.1062628 7.5587485,8.8871237 7.6105195,9.3084228 7.5655255,9.6800697 7.3147844,9.8338822 7.172279,10.066669 7.0712387,9.9897371 6.9171321,10.625643 6.6034466,10.609449 6.4615531,10.786625 6.3600535,10.833469 6.2501489,10.75382 6.0767776,10.881967 5.8972365,11.224525 5.741671,11.123424 5.5790799,11.605573 6.3133882,11.69746 6.3936995,12.035885 5.9750641,12.369687 5.4026092,12.155147 5.0565117,11.816663 4.7817132,11.581978 4.0689747,11.374295 4.3897604,10.903368 4.4862423,10.737962 4.7370479,10.784202 4.542324,10.642526 4.7038667,10.491422 5.1945939,10.211104 4.9310216,10.049255 5.3374013,9.7891241 5.3922899,9.2521398 5.9133852,9.1891372 6.1217709,9.1483351 6.2010424,9.0172422 6.0404985,8.9690747 6.1879634,8.8598843 6.2844319,8.6465013 6.1728309,8.5998431 6.2552948,8.3972459 6.5122812,7.657776 6.2169126,7.7460219 5.9630705,7.2916643 6.0853824,6.6477294 6.4337796,6.2482391 6.5692217,5.9314627 6.3425309,5.8774204 6.228635,6.1741614 5.8447813,6.7294775 5.7497536,7.5464439 5.0719013,7.8506383 4.6612156,8.130699 3.7171359,7.6665774 4.0491682,7.2496235 4.2812959,7.4573816 4.5360873,7.0198332 4.8056644,6.9714282 4.5274888,6.8706782 5.1403636,6.3977464 4.9055651,6.1859962 5.0470504,5.9955357 5.0764495,5.7933734 5.028717,5.7255269 5.2477924,5.4455346 5.2302659,5.1124083 5.4213941,4.8559912 5.307241,4.7143564 5.8624014,4.3984995 5.8376928,4.213295 5.9211004,4.0697239 6.4112606,3.6351885 6.3603641,3.5262811 6.1742356,3.4307234 6.6994299,3.1496331 6.8129373,3.0055571 7.1667368,2.7635883 7.5627178,2.7649285 7.9142806,2.536369 8.0695354,2.4130574 7.7830791,2.3171772 8.080325,2.2351042 8.3930479,2.1609243 8.2022776,1.9422775 8.5253142,1.8445766 8.9492811,1.516431 9.5454846,1.8709936 9.6456336,2.3459251 c 0.07107,1.2812563 -0.0495,0.925777 -0.175751,1.2585014 -0.05549,0.1689968 -0.3936895,-0.228333 -0.3649455,0.014943 0.028746,0.2432728 0.1021374,0.4825511 0.1101342,0.911825 -0.030696,0.3669021 0.6859533,1.0392978 1.1431737,1.297777 0.254511,0.3204012 0.578265,0.5432305 0.793109,0.8676159 0.386701,0.3667385 0.381778,1.2180312 -0.306443,1.215553 -0.33423,0.043248 -0.182644,-0.3846983 0.0767,-0.2927874 C 10.966271,7.2832593 10.532531,7.2711398 10.580519,7.588948 10.329106,7.6743225 10.517035,7.0719699 10.17933,7.0637765 9.9260606,7.0112087 9.7724166,6.879618 9.5872326,6.7601994 9.4731086,6.810974 9.1832397,6.7025354 9.0700988,6.5003762 9.1229496,6.7753917 8.7817777,6.1062205 8.5925709,6.4835142 8.395276,6.9143336 8.7921442,7.3083029 9.0326061,7.6270501 8.9129375,7.7170751 9.1813907,7.8431598 9.2017194,8.0042266 9.3136166,8.3806442 9.8187586,8.8608461 9.6515466,9.302654 c 0.08755,0.4362476 0.09516,0.821882 0.154492,1.254927 -0.04723,0.43539 0.2527814,0.90063 0.7361344,0.819668 0.240626,-0.07377 0.957998,0.0075 0.531431,0.337261 -0.454974,0.322702 -0.952663,0.612048 -1.5315964,0.517037 -0.268785,0.01398 -0.5386692,0.03556 -0.8075511,0.01148 z"
         id="path1-8"
         sodipodi:nodetypes="scccccccccccccccccccccccccccccccccsccccccccccccccccccs" />
    </g>
    <path
       style="fill:#000000;stroke:#43ff45;stroke-width:0;stroke-opacity:1;stroke-dasharray:none"
       d="M 8.7327819,12.239189 C 8.2992705,12.270766 8.6746617,11.677957 8.4593559,11.608053 8.617737,11.150756 8.2343536,10.92926 8.2904109,10.48741 7.977537,10.163274 8.5071969,9.533179 8.029555,9.2590546 7.8633792,9.1024155 7.5570739,8.8832764 7.6088449,9.3045755 7.5638509,9.6762224 7.3131098,9.8300349 7.1706044,10.062822 7.0695641,9.9858898 6.9154575,10.621796 6.601772,10.605602 6.4598785,10.782778 6.3583789,10.829622 6.2484743,10.749973 6.075103,10.87812 5.8955619,11.220678 5.7399964,11.119577 5.5774053,11.601726 6.3117136,11.693613 6.3920249,12.032038 5.9733895,12.36584 5.4009346,12.1513 5.0548371,11.812816 4.7800386,11.578131 4.0673001,11.370448 4.3880858,10.899521 4.4845677,10.734115 4.7353733,10.780355 4.5406494,10.638679 4.7021921,10.487575 5.1929193,10.207257 4.929347,10.045408 5.3357267,9.7852768 5.3906153,9.2482925 5.9117106,9.1852899 6.1200963,9.1444878 6.1993678,9.0133949 6.0388239,8.9652274 6.1862888,8.856037 6.2827573,8.642654 6.1711563,8.5959958 6.2536202,8.3933986 6.5106066,7.6539287 6.215238,7.7421746 5.9613959,7.287817 6.0837078,6.6438821 6.432105,6.2443918 6.5675471,5.9276154 6.3408563,5.8735731 6.2269604,6.1703141 5.8431067,6.7256302 5.748079,7.5425966 5.0702267,7.846791 4.659541,8.1268517 3.7154613,7.6627301 4.0474936,7.2457762 4.2796213,7.4535343 4.5344127,7.0159859 4.8039898,6.9675809 4.5258142,6.8668309 5.138689,6.3938991 4.9038905,6.1821489 5.0453758,5.9916884 5.0747749,5.7895261 5.0270424,5.7216796 5.2461178,5.4416873 5.2285913,5.108561 5.4197195,4.8521439 5.3055664,4.7105091 5.8607268,4.3946522 5.8360182,4.2094477 5.9194258,4.0658766 6.409586,3.6313412 6.3586895,3.5224338 6.172561,3.4268761 6.6977553,3.1457858 6.8112627,3.0017098 7.1650622,2.759741 7.5610432,2.7610812 7.912606,2.5325217 8.0678608,2.4092101 7.7814045,2.3133299 8.0786504,2.2312569 8.3913733,2.157077 8.200603,1.9384302 8.5236396,1.8407293 c 0.4239669,-0.3281456 1.0201706,0.026417 1.120319,0.5013485 0.071073,1.2812563 -0.0495,0.925777 -0.1757511,1.2585014 -0.055485,0.1689968 -0.393689,-0.228333 -0.364945,0.014943 0.028746,0.2432728 0.1021374,0.4825511 0.1101342,0.911825 -0.030696,0.3669021 0.6859534,1.0392978 1.1431733,1.297777 0.254511,0.3204012 0.578265,0.5432305 0.793109,0.8676159 0.386701,0.3667385 0.381778,1.2180312 -0.306443,1.215553 -0.33423,0.043248 -0.182644,-0.3846983 0.0767,-0.2927874 C 10.964596,7.279412 10.530856,7.2672925 10.578844,7.5851007 10.327431,7.6704752 10.51536,7.0681226 10.177655,7.0599292 9.9243858,7.0073614 9.7707416,6.8757707 9.5855584,6.7563521 9.4714336,6.8071267 9.1815651,6.6986881 9.0684242,6.4965289 9.121275,6.7715444 8.7801031,6.1023732 8.5908963,6.4796669 8.3936014,6.9104863 8.7904696,7.3044556 9.0309315,7.6232028 c -0.1196686,0.090025 0.1487846,0.2161097 0.1691133,0.3771765 0.1118967,0.3764176 0.6170396,0.8566195 0.4498273,1.2984274 0.087546,0.4362476 0.095159,0.8218823 0.154492,1.2549273 -0.047228,0.43539 0.2527809,0.90063 0.7361339,0.819668 0.240626,-0.07377 0.957998,0.0075 0.531431,0.337261 -0.454974,0.322702 -0.952663,0.612048 -1.5315958,0.517037 -0.2687848,0.01398 -0.5386694,0.03556 -0.8075513,0.01148 z"
       id="path1"
       sodipodi:nodetypes="scccccccccccccccccccccccccccccccccsccccccccccccccccccs" />
    <path
       style="fill:#000000;fill-opacity:0.339888;stroke:none;stroke-width:0.0807354;stroke-opacity:0.300562"
       d="M 8.4718445,11.906774 C 8.0502226,11.920524 8.6658911,11.662377 8.4944165,11.631937 8.845981,11.4328 8.5836395,11.336346 8.8321446,11.143936 8.681585,11.002785 9.4588316,10.728401 9.13118,10.609029 c -0.086843,-0.06821 -0.2777532,-0.163638 -0.4157619,0.01982 -0.20699,0.161839 -0.5109219,0.228819 -0.7480722,0.33019 -0.060917,-0.0335 -0.4876089,0.243414 -0.7753895,0.236362 -0.2119322,0.07715 -0.3281296,0.09755 -0.396177,0.06287 -0.2198056,0.0558 -0.5404227,0.204975 -0.6418992,0.160949 -0.3665358,0.209959 0.2832111,0.249973 0.2087621,0.397345 -0.5415556,0.145359 -0.9847624,0.05194 -1.1602042,-0.09546 -0.1543961,-0.102197 -0.7325489,-0.192636 -0.2222366,-0.397708 0.1640168,-0.07203 0.3793572,-0.05189 0.2590402,-0.113588 0.2188554,-0.0658 0.8044989,-0.18787 0.6283834,-0.258349 0.4973865,-0.113278 0.7869495,-0.347116 1.3048495,-0.374552 0.2140242,-0.01777 0.3466528,-0.07485 0.2170388,-0.09583 0.187045,-0.04755 0.3723096,-0.14047 0.2880474,-0.160788 C 7.8448767,10.232066 8.4141969,9.9100529 8.0973597,9.9484809 8.0600116,9.7506239 8.4603648,9.4702127 8.9649843,9.2962486 9.2327121,9.1583035 9.0435039,9.13477 8.8049146,9.2639903 8.1979049,9.5058112 7.7465322,9.8615719 6.9743564,9.9940379 6.4640898,10.115994 5.7820431,9.9138859 6.2790135,9.7323166 6.4052184,9.822788 6.8386859,9.6322509 7.1136166,9.6111723 6.8966951,9.5672991 7.6825449,9.3613538 7.5555977,9.269144 7.7730332,9.1862051 7.8902603,9.0981704 7.8754423,9.0686257 8.205509,8.9466988 8.3366459,8.8016339 8.6299873,8.6899732 8.585412,8.6282961 9.2473894,8.4907515 9.306225,8.4101014 c 0.1420476,-0.06252 0.795495,-0.2517453 0.795897,-0.2991707 -0.132671,-0.041612 0.485724,-0.164017 0.656297,-0.2267571 0.439898,-0.105369 0.811643,-0.1047854 1.243494,-0.2043151 0.200628,-0.053698 -0.02623,-0.09545 0.289629,-0.1311903 0.326922,-0.032303 0.244429,-0.1275158 0.591473,-0.1700612 0.544062,-0.1428959 0.947553,0.011504 0.831267,0.2183198 -0.500931,0.5579425 -0.456781,0.4031437 -0.722933,0.5480335 -0.127063,0.073592 -0.269001,-0.099431 -0.349776,0.00651 -0.08077,0.1059368 -0.117792,0.2101342 -0.300495,0.397068 -0.191451,0.1597731 0.184458,0.452578 0.49984,0.5651367 0.09734,0.1395235 0.303018,0.2365579 0.361291,0.3778165 0.2011,0.1597018 -0.180758,0.5304105 -0.826789,0.5293315 -0.333439,0.01883 -0.0013,-0.1675231 0.201862,-0.1274991 0.190925,-0.1463573 -0.211547,-0.1516349 -0.307253,-0.01324 -0.274234,0.03718 0.169397,-0.2251292 -0.144518,-0.2286972 -0.214854,-0.022892 -0.301013,-0.080195 -0.422221,-0.1321972 -0.12981,0.022111 -0.354319,-0.025111 -0.371123,-0.113144 -0.07218,0.1197597 -0.09644,-0.171641 -0.441544,-0.00734 -0.376422,0.1876068 -0.177828,0.3591668 -0.09297,0.4979702 -0.152416,0.0392 0.04414,0.09411 -0.0081,0.1642473 -0.06159,0.163917 0.200608,0.373028 -0.152397,0.56542 -0.11099,0.18997 -0.274719,0.357901 -0.410824,0.546477 -0.2373418,0.189597 -0.161404,0.392193 0.328965,0.356937 0.258949,-0.03212 0.897475,0.0033 0.350253,0.146866 -0.570807,0.140525 -1.1669973,0.266525 -1.6692611,0.225151 -0.2589313,0.0061 -0.5222648,0.01548 -0.7644211,0.005 z"
       id="path1-5"
       sodipodi:nodetypes="scccccccccccccccccccccccccccccccccsccccccccccccccccccs" />
  </g>
</svg>
