<?xml version="1.0" encoding="UTF-8" standalone="no"?>
<!-- Created with Inkscape (http://www.inkscape.org/) -->

<svg
   width="15mm"
   height="15mm"
   viewBox="0 0 15 15"
   version="1.1"
   id="svg1"
   inkscape:export-filename="bitmap.png"
   inkscape:export-xdpi="96"
   inkscape:export-ydpi="96"
   inkscape:version="1.3.2 (091e20e, 2023-11-25)"
   sodipodi:docname="i-spy.svg"
   xmlns:inkscape="http://www.inkscape.org/namespaces/inkscape"
   xmlns:sodipodi="http://sodipodi.sourceforge.net/DTD/sodipodi-0.dtd"
   xmlns="http://www.w3.org/2000/svg"
   xmlns:svg="http://www.w3.org/2000/svg">
  <sodipodi:namedview
     id="namedview1"
     pagecolor="#ffffff"
     bordercolor="#000000"
     borderopacity="0.25"
     inkscape:showpageshadow="2"
     inkscape:pageopacity="0.0"
     inkscape:pagecheckerboard="0"
     inkscape:deskcolor="#d1d1d1"
     inkscape:document-units="mm"
     showguides="false"
     inkscape:zoom="9.7771674"
     inkscape:cx="12.784889"
     inkscape:cy="40.502528"
     inkscape:window-width="1792"
     inkscape:window-height="993"
     inkscape:window-x="0"
     inkscape:window-y="25"
     inkscape:window-maximized="0"
     inkscape:current-layer="layer1" />
  <defs
     id="defs1" />
  <g
     inkscape:label="Layer 1"
     inkscape:groupmode="layer"
     id="layer1">
    <ellipse
       style="fill:#000000;fill-opacity:0.143426;stroke:#c00707;stroke-width:0.165;stroke-dasharray:none;stroke-opacity:0.421348"
       id="path5"
       cx="7.4724536"
       cy="11.982809"
       rx="0.24757871"
       ry="0.26408395" />
    <g
       id="g3"
       transform="matrix(0.02700728,0,0,0.02700728,1.137124,1.9130532)">
      <g
         id="g2"
         transform="matrix(0.90192957,0.17396826,-0.17467184,0.89829661,67.032349,64.679092)">
	<g
   id="XMLID_1736_">
		<path
   id="XMLID_1737_"
   d="m 379,229.65 c -25.6,0 -46.3,20.8 -46.3,46.3 0,6.1 5,11.1 11.1,11.1 6.1,0 11.1,-5 11.1,-11.1 0,-13.3 10.9,-24.2 24.2,-24.2 6.1,0 11.1,-5 11.1,-11.1 -0.1,-6.1 -5.1,-11 -11.2,-11 z" />

		<path
   id="XMLID_1738_"
   d="m 454.5,197.75 c -2.7,-2.6 -5.6,-5.1 -8.6,-7.5 v 0 l -41,-34.8 c -15.8,-11.2 -34.6,-18.3 -55,-19.7 l 2.2,2.2 -24.9,-25 H 327 c -6.9,-6.3 -16.2,-10.2 -26.3,-10.2 -17.4,0 -32.1,11.3 -37.1,27 -5,-3.2 -10.8,-5.1 -17.1,-5.5 -1,-0.1 -2.1,-0.1 -3.1,-0.1 -7.1,0 -13.7,2.1 -19.3,5.6 -5.1,-15.6 -19.8,-26.9 -37.1,-26.9 -10.1,0 -19.3,3.8 -26.3,10.2 h -0.2 l -24.9,25 2.2,-2.2 c -20.4,1.4 -39.3,8.6 -55,19.7 l -41,34.8 v 0 c -3,2.3 -5.9,4.8 -8.6,7.5 -20.5,19.8 -33.2,47.5 -33.2,78.2 0,60 48.8,108.8 108.8,108.8 55.4,0 101.3,-41.7 107.9,-95.4 8,4.6 17.3,7.2 27.1,7.2 9.9,0 19.1,-2.6 27.1,-7.2 6.7,53.6 52.5,95.3 107.9,95.3 60,0 108.8,-48.8 108.8,-108.8 0.1,-30.7 -12.6,-58.4 -33.1,-78.2 z m -345.7,152.5 c -41,0 -74.2,-33.2 -74.2,-74.2 0,-41 33.2,-74.2 74.2,-74.2 41,0 74.2,33.2 74.2,74.2 0.1,40.9 -33.2,74.2 -74.2,74.2 z m 135.1,-84.4 c -13.3,0 -24.1,-10.8 -24.1,-24.1 0,-13.3 10.8,-24.1 24.1,-24.1 13.3,0 24.1,10.8 24.1,24.1 0,13.3 -10.8,24.1 -24.1,24.1 z m 135.1,84.4 c -41,0 -74.2,-33.2 -74.2,-74.2 0,-41 33.2,-74.2 74.2,-74.2 41,0 74.2,33.2 74.2,74.2 0,40.9 -33.2,74.2 -74.2,74.2 z" />

		<path
   id="XMLID_1745_"
   d="m 108.8,229.65 c -25.6,0 -46.3,20.8 -46.3,46.3 0,6.1 5,11.1 11.1,11.1 6.1,0 11.1,-5 11.1,-11.1 0,-13.3 10.9,-24.2 24.2,-24.2 6.1,0 11.1,-5 11.1,-11.1 -0.1,-6.1 -5.1,-11 -11.2,-11 z" />

	</g>

</g>
      <ellipse
         style="fill:#2c9f99;fill-opacity:0.339888;stroke:none;stroke-width:3.01146;stroke-linecap:round"
         id="path1"
         cx="115.70193"
         cy="327.47781"
         rx="70.247604"
         ry="71.280655" />
      <ellipse
         style="fill:#2c9f99;fill-opacity:0.339888;stroke:none;stroke-width:3.01146;stroke-linecap:round"
         id="path1-0"
         cx="359.79169"
         cy="375.96933"
         rx="70.247604"
         ry="71.280655" />
    </g>
  </g>
</svg>
