<?xml version="1.0" encoding="UTF-8" standalone="no"?>
<!-- Created with Inkscape (http://www.inkscape.org/) -->

<svg
   width="15mm"
   height="15mm"
   viewBox="0 0 15 15"
   version="1.1"
   id="svg1"
   inkscape:export-filename="lost-mine.png"
   inkscape:export-xdpi="96"
   inkscape:export-ydpi="96"
   inkscape:version="1.3.2 (091e20e, 2023-11-25)"
   sodipodi:docname="lost-mine.svg"
   xmlns:inkscape="http://www.inkscape.org/namespaces/inkscape"
   xmlns:sodipodi="http://sodipodi.sourceforge.net/DTD/sodipodi-0.dtd"
   xmlns:xlink="http://www.w3.org/1999/xlink"
   xmlns="http://www.w3.org/2000/svg"
   xmlns:svg="http://www.w3.org/2000/svg">
  <sodipodi:namedview
     id="namedview1"
     pagecolor="#ffffff"
     bordercolor="#000000"
     borderopacity="0.25"
     inkscape:showpageshadow="2"
     inkscape:pageopacity="0.0"
     inkscape:pagecheckerboard="0"
     inkscape:deskcolor="#d1d1d1"
     inkscape:document-units="mm"
     showguides="true"
     inkscape:zoom="11.676612"
     inkscape:cx="37.939088"
     inkscape:cy="18.07031"
     inkscape:window-width="1792"
     inkscape:window-height="993"
     inkscape:window-x="1"
     inkscape:window-y="37"
     inkscape:window-maximized="0"
     inkscape:current-layer="layer1" />
  <defs
     id="defs1">
    <linearGradient
       id="linearGradient3"
       inkscape:collect="always">
      <stop
         style="stop-color:#c38357;stop-opacity:1;"
         offset="0"
         id="stop4" />
      <stop
         style="stop-color:#be3e37;stop-opacity:1;"
         offset="1"
         id="stop5" />
    </linearGradient>
    <linearGradient
       id="linearGradient2"
       inkscape:collect="always">
      <stop
         style="stop-color:#c2dedb;stop-opacity:1;"
         offset="0"
         id="stop2" />
      <stop
         style="stop-color:#8285cb;stop-opacity:0.96402878;"
         offset="1"
         id="stop3" />
    </linearGradient>
    <radialGradient
       inkscape:collect="always"
       xlink:href="#linearGradient2"
       id="radialGradient3"
       cx="4.1253281"
       cy="10.333073"
       fx="4.1253281"
       fy="10.333073"
       r="1.7496517"
       gradientTransform="matrix(1.4804136,-0.22867153,0.29091729,1.8868421,-2.6881889,-7.7429805)"
       gradientUnits="userSpaceOnUse" />
    <linearGradient
       inkscape:collect="always"
       xlink:href="#linearGradient3"
       id="linearGradient5"
       x1="11.747543"
       y1="8.9750776"
       x2="8.642457"
       y2="9.8396225"
       gradientUnits="userSpaceOnUse"
       gradientTransform="matrix(1.4804136,-0.22867153,0.22846232,1.4817693,-8.3479706,-1.8283819)" />
    <filter
       inkscape:collect="always"
       style="color-interpolation-filters:sRGB"
       id="filter6"
       x="-0.081721623"
       y="-0.094111389"
       width="1.1634432"
       height="1.1882228">
      <feGaussianBlur
         inkscape:collect="always"
         stdDeviation="0.27725096"
         id="feGaussianBlur6" />
    </filter>
  </defs>
  <g
     inkscape:label="Layer 1"
     inkscape:groupmode="layer"
     id="layer1">
    <path
       id="path3-8"
       style="mix-blend-mode:normal;fill:#000000;fill-opacity:0.267068;stroke:none;stroke-width:0.131899;stroke-linecap:round;stroke-linejoin:round;stroke-dasharray:none;stroke-opacity:1;filter:url(#filter6)"
       d="m 11.16793,5.5324928 c -0.150446,0.031898 -0.661142,0.4123276 -0.36897,0.5074625 1.75865,0.4425277 1.613433,2.98132 -1.6603634,1.81901 L 6.6694966,10.334783 6.473643,10.15805 6.1956238,10.537872 C 4.4420805,9.3140633 4.8929466,8.9273443 4.4029683,8.2749613 4.2435425,9.9201263 5.0708787,10.719512 5.5248637,11.056186 l -0.2645834,0.299724 0.2289266,0.16278 -0.4842081,0.485759 c -0.1706935,0.543227 0.3451462,0.489529 0.5467366,0.598413 l 0.6035807,-0.609265 0.1519287,0.108004 0.2899048,-0.303858 C 7.572348,12.715374 8.9436214,12.760157 10.564866,12.300038 8.2363771,12.229588 7.3613283,11.729994 7.1123637,11.277361 L 7.4058858,10.998825 7.2653259,10.872218 9.497231,8.6186093 c 3.077613,0.986292 4.114765,-2.4053355 1.670699,-3.0861165 z"
       transform="matrix(1,0.08417211,-0.13529039,0.56341396,2.0792181,4.749162)" />
    <path
       style="fill:url(#linearGradient5);stroke:#000000;stroke-width:0.1;stroke-linecap:round;stroke-linejoin:round;stroke-dasharray:none;stroke-opacity:1"
       d="M 5.0311723,11.880924 9.1645315,7.7352762 C 12.438331,8.8975867 12.583813,6.358916 10.825162,5.9163879 10.480429,5.4883746 10.938515,5.3005622 11.19408,5.4088229 13.638148,6.0896046 12.600975,9.4815769 9.5233594,8.4952842 L 5.5780523,12.479062 c -0.2791521,0.232387 -0.7951351,-0.194521 -0.54688,-0.598138 z"
       id="path3"
       sodipodi:nodetypes="ccccccc" />
    <ellipse
       style="fill:#000000;fill-opacity:0.143426;stroke:#c00707;stroke-width:0.165;stroke-dasharray:none;stroke-opacity:0.421348"
       id="path5"
       cx="7.4724536"
       cy="11.982809"
       rx="0.24757871"
       ry="0.26408395" />
    <path
       style="fill:url(#radialGradient3);stroke:#000000;stroke-width:0.1;stroke-linecap:round;stroke-linejoin:round;stroke-dasharray:none;stroke-opacity:1"
       d="m 4.4292513,8.1515219 c -0.159426,1.6451666 0.754898,2.4298581 1.2088834,2.7665331 l -0.2644382,0.299993 0.8866792,0.861879 0.2605808,-0.289326 C 7.4961558,12.708233 8.9698307,12.636799 10.591077,12.17668 8.2625857,12.106229 7.387231,11.606501 7.1382661,11.153868 L 7.3444552,10.962721 6.4122043,10.121961 6.2216252,10.414358 C 4.4680802,9.1905475 4.9192301,8.8039063 4.4292513,8.1515219 Z"
       id="path1"
       sodipodi:nodetypes="ccccccccccc" />
  </g>
</svg>
