<?xml version="1.0" encoding="UTF-8" standalone="no"?>
<!-- Created with Inkscape (http://www.inkscape.org/) -->

<svg
   width="15mm"
   height="15mm"
   viewBox="0 0 15 15"
   version="1.1"
   id="svg1"
   inkscape:export-filename="medicine-wheel.png"
   inkscape:export-xdpi="96"
   inkscape:export-ydpi="96"
   inkscape:version="1.3.2 (091e20e, 2023-11-25)"
   sodipodi:docname="medicine-wheel.svg"
   xmlns:inkscape="http://www.inkscape.org/namespaces/inkscape"
   xmlns:sodipodi="http://sodipodi.sourceforge.net/DTD/sodipodi-0.dtd"
   xmlns="http://www.w3.org/2000/svg"
   xmlns:svg="http://www.w3.org/2000/svg">
  <sodipodi:namedview
     id="namedview1"
     pagecolor="#ffffff"
     bordercolor="#000000"
     borderopacity="0.25"
     inkscape:showpageshadow="2"
     inkscape:pageopacity="0.0"
     inkscape:pagecheckerboard="0"
     inkscape:deskcolor="#d1d1d1"
     inkscape:document-units="mm"
     showguides="false"
     inkscape:zoom="10.046949"
     inkscape:cx="1.0948597"
     inkscape:cy="28.466353"
     inkscape:window-width="1792"
     inkscape:window-height="993"
     inkscape:window-x="0"
     inkscape:window-y="37"
     inkscape:window-maximized="0"
     inkscape:current-layer="layer1" />
  <defs
     id="defs1">
    <filter
       inkscape:collect="always"
       style="color-interpolation-filters:sRGB"
       id="filter12"
       x="-0.10578755"
       y="-0.07457422"
       width="1.2115751"
       height="1.1491484">
      <feGaussianBlur
         inkscape:collect="always"
         stdDeviation="0.39118435"
         id="feGaussianBlur12" />
    </filter>
  </defs>
  <g
     inkscape:label="Layer 1"
     inkscape:groupmode="layer"
     id="layer1">
    <path
       style="fill:#ffffff;fill-opacity:0.75502008;stroke:none;stroke-width:0.169;stroke-linecap:round;stroke-linejoin:round;stroke-dasharray:none;filter:url(#filter12)"
       d="M 7.4790532,0.13167347 C 5.2770611,0.2704433 3.826145,1.3888775 3.2391672,3.6341878 L 3.0811591,8.5851102 3.9238695,10.71822 4.9245877,10.059853 5.1352653,7.7424001 6.6890124,8.2164244 6.4783347,10.165192 6.9786938,12.719657 7.7424001,12.666988 8.348098,11.429257 8.4007673,9.2434777 8.2954285,8.2954285 9.8755104,7.4527184 l 0.079004,1.7380897 0.3423506,0.8690449 0.474025,0.421355 0.84271,-0.7110365 0.342351,-2.4754612 -0.605698,-1.3694042 0.079,-2.1331102 C 11.107671,1.7651424 10.370606,0.07496693 7.4790532,0.13167347 Z"
       id="path12"
       sodipodi:nodetypes="cccccccccccccccccccccc" />
    <ellipse
       style="fill:#000000;fill-opacity:0.143426;stroke:#c00707;stroke-width:0.165;stroke-dasharray:none;stroke-opacity:0.421348"
       id="path5"
       cx="7.4724536"
       cy="11.982809"
       rx="0.24757871"
       ry="0.26408395" />
    <g
       id="path6"
       transform="translate(-0.04396252,0.01099063)">
      <path
         style="color:#000000;fill:#e6e5e7;fill-opacity:0.287149;stroke-linecap:round;stroke-linejoin:round;-inkscape-stroke:none"
         d="M 1.2529318,2.6487419 H 3.5719549"
         id="path7" />
    </g>
    <g
       id="g10"
       transform="matrix(1.2515973,0,0,1.2515973,-1.618626,-1.5209188)"
       style="stroke-width:0.798979">
      <g
         id="g9"
         style="stroke-width:0.798979">
        <g
           id="path1"
           style="stroke-width:0.798979">
          <path
             style="color:#000000;fill:#e6e5e7;fill-opacity:0.287149;stroke-width:0.798979;stroke-linecap:round;stroke-linejoin:round;-inkscape-stroke:none"
             d="M 10.100003,4.5116763 A 2.8197978,2.8197978 0 0 1 7.2802048,7.3314741 2.8197978,2.8197978 0 0 1 4.460407,4.5116763 2.8197978,2.8197978 0 0 1 7.2802048,1.6918786 2.8197978,2.8197978 0 0 1 10.100003,4.5116763 Z"
             id="path3" />
          <path
             style="color:#000000;fill:#000000;stroke-width:0.798979;stroke-linecap:round;stroke-linejoin:round;-inkscape-stroke:none"
             d="m 7.2792969,1.6074219 c -1.6029528,0 -2.9023437,1.301344 -2.9023438,2.9042968 0,1.6029529 1.2993909,2.9042969 2.9023438,2.9042969 1.602953,3e-7 2.9042971,-1.3013438 2.9042971,-2.9042969 0,-1.6029529 -1.3013441,-2.9042971 -2.9042971,-2.9042968 z m 0,0.4110897 c 1.5117068,-2e-7 2.5661434,0.9815004 2.5661434,2.4932071 0,1.5117069 -1.0544366,2.5155664 -2.5661434,2.5155661 -1.5117067,0 -2.5885024,-1.0038594 -2.5885024,-2.5155661 0,-1.5117066 1.0767957,-2.4932071 2.5885024,-2.4932071 z"
             id="path4"
             sodipodi:nodetypes="ssssssssss" />
        </g>
      </g>
      <path
         style="color:#000000;fill:#000000;stroke-width:0.798979;stroke-linecap:round;stroke-linejoin:round;-inkscape-stroke:none"
         d="m 4.6060484,4.3119633 c -0.112109,-0.00202 -0.1121089,0.3018739 0,0.2998556 l 5.3078108,-0.021981 c 0.1096928,-5.626e-4 0.1096928,-0.2992929 0,-0.2998556 z"
         id="path8"
         sodipodi:nodetypes="ccccc"
         transform="translate(-0.04396252,0.01099063)" />
      <g
         id="path6-3"
         transform="matrix(0,1.0301692,-1.075423,0,12.067135,-2.9573532)"
         style="stroke-width:0.759087">
        <path
           style="color:#000000;fill:#e6e5e7;fill-opacity:0.287149;stroke-width:0.759087;stroke-linecap:round;stroke-linejoin:round;-inkscape-stroke:none"
           d="M 1.2529318,2.6487419 H 3.5719549"
           id="path7-9" />
        <path
           style="color:#000000;fill:#000000;stroke-width:0.759087;stroke-linecap:round;stroke-linejoin:round;-inkscape-stroke:none"
           d="m 4.6060484,4.3119633 c -0.112109,-0.00202 -0.1121089,0.3018739 0,0.2998556 l 5.3078108,-0.021981 c 0.1096928,-5.626e-4 0.1096928,-0.2992929 0,-0.2998556 z"
           id="path8-9"
           sodipodi:nodetypes="ccccc" />
      </g>
    </g>
    <path
       style="fill:#e6e5e7;fill-opacity:0.287149;stroke:#000000;stroke-width:0.168837;stroke-linecap:round;stroke-linejoin:round"
       d="M 4.1176128,5.3287178 V 6.636073"
       id="path10" />
    <path
       style="fill:#e6e5e7;fill-opacity:0.287149;stroke:#000000;stroke-width:0.168837;stroke-linecap:round;stroke-linejoin:round"
       d="M 7.4927518,7.4927517 V 8.7431263"
       id="path10-6" />
    <path
       style="fill:#e6e5e7;fill-opacity:0.287149;stroke:#000000;stroke-width:0.168837;stroke-linecap:round;stroke-linejoin:round"
       d="M 10.889219,5.2016371 V 6.4520117"
       id="path10-1" />
    <path
       style="fill:#797879;fill-opacity:1;stroke:none;stroke-width:0.169;stroke-linecap:round;stroke-linejoin:round;stroke-dasharray:none"
       d="M 4.1388632,6.559421 C 3.8117021,6.7242604 3.6232894,6.9647808 3.5802101,7.2845739 L 3.5252203,7.87447 3.9951228,7.6092056 3.5467785,7.982261 3.5683367,8.5484099 3.9832494,8.3121998 3.5898949,8.7424336 3.6545695,9.2791999 3.9995004,9.0170535 3.7020633,9.4204219 C 3.7938843,9.8612599 3.8928066,10.072248 4.1429116,10.236185 4.420577,10.058764 4.4893385,9.7420739 4.6246875,9.4697759 L 4.3013149,9.1464029 4.6106255,9.2541939 4.6646854,8.5902674 4.3563047,8.3618824 4.689362,8.4134246 4.7540367,7.5510973 4.2916302,7.3205235 4.7680988,7.4001901 C 4.6710954,7.1490829 4.7475233,6.9323512 4.1388632,6.559421 Z"
       id="path11"
       sodipodi:nodetypes="cccccccccccccccccccccc" />
    <path
       style="fill:#797879;fill-opacity:1;stroke:none;stroke-width:0.169;stroke-linecap:round;stroke-linejoin:round;stroke-dasharray:none"
       d="M 10.903508,6.4160626 C 10.576347,6.580902 10.387934,6.8214224 10.344855,7.1412155 l -0.05499,0.5898961 0.469902,-0.2652644 -0.448344,0.3730554 0.02156,0.5661489 0.414913,-0.2362101 -0.393354,0.4302338 0.06467,0.5367663 0.344931,-0.2621464 -0.297437,0.4033684 c 0.09182,0.440838 0.190743,0.6518261 0.440848,0.8157635 0.277666,-0.1774214 0.346427,-0.4941115 0.481776,-0.7664095 l -0.323372,-0.323373 0.30931,0.107791 0.05406,-0.6639265 -0.308381,-0.228385 0.333058,0.051542 0.06467,-0.8623273 -0.462406,-0.2305738 0.476468,0.079667 c -0.097,-0.2511072 -0.02057,-0.4678389 -0.629235,-0.8407691 z"
       id="path11-3"
       sodipodi:nodetypes="cccccccccccccccccccccc" />
    <path
       style="fill:#797879;fill-opacity:1;stroke:none;stroke-width:0.169;stroke-linecap:round;stroke-linejoin:round;stroke-dasharray:none"
       d="M 7.4790328,8.5740599 C 7.1518717,8.7388993 6.963459,8.9794197 6.9203797,9.2992128 l -0.05499,0.5898961 0.4699025,-0.2652644 -0.4483443,0.3730554 0.021558,0.5661491 0.4149127,-0.23621 -0.3933545,0.430234 0.064675,0.536766 0.3449309,-0.262146 -0.2974371,0.403368 c 0.091821,0.440838 0.1907433,0.651826 0.4408483,0.815763 0.2776654,-0.177421 0.3464269,-0.494111 0.4817759,-0.766409 L 7.6414845,11.161042 7.9507951,11.268833 8.004855,10.604907 7.6964743,10.376522 8.0295316,10.428064 8.0942063,9.5657362 7.6317998,9.3351624 8.1082684,9.414829 C 8.011265,9.1637218 8.0876929,8.9469901 7.4790328,8.5740599 Z"
       id="path11-0"
       sodipodi:nodetypes="cccccccccccccccccccccc" />
  </g>
</svg>
