<?xml version="1.0" encoding="UTF-8" standalone="no"?>
<!-- Created with Inkscape (http://www.inkscape.org/) -->

<svg
   width="15mm"
   height="15mm"
   viewBox="0 0 15 15"
   version="1.1"
   id="svg1"
   inkscape:export-filename="merfolk.png"
   inkscape:export-xdpi="96"
   inkscape:export-ydpi="96"
   inkscape:version="1.3.2 (091e20e, 2023-11-25)"
   sodipodi:docname="merfolk.svg"
   xmlns:inkscape="http://www.inkscape.org/namespaces/inkscape"
   xmlns:sodipodi="http://sodipodi.sourceforge.net/DTD/sodipodi-0.dtd"
   xmlns:xlink="http://www.w3.org/1999/xlink"
   xmlns="http://www.w3.org/2000/svg"
   xmlns:svg="http://www.w3.org/2000/svg">
  <sodipodi:namedview
     id="namedview1"
     pagecolor="#ffffff"
     bordercolor="#000000"
     borderopacity="0.25"
     inkscape:showpageshadow="2"
     inkscape:pageopacity="0.0"
     inkscape:pagecheckerboard="0"
     inkscape:deskcolor="#d1d1d1"
     inkscape:document-units="mm"
     showguides="false"
     inkscape:zoom="11.875467"
     inkscape:cx="19.367659"
     inkscape:cy="27.535759"
     inkscape:window-width="1792"
     inkscape:window-height="993"
     inkscape:window-x="536"
     inkscape:window-y="247"
     inkscape:window-maximized="0"
     inkscape:current-layer="layer1" />
  <defs
     id="defs1">
    <linearGradient
       id="linearGradient2"
       inkscape:collect="always">
      <stop
         style="stop-color:#12bbe9;stop-opacity:1;"
         offset="0"
         id="stop3" />
      <stop
         style="stop-color:#0d0eff;stop-opacity:0.1635071;"
         offset="1"
         id="stop2" />
    </linearGradient>
    <radialGradient
       inkscape:collect="always"
       xlink:href="#linearGradient2"
       id="radialGradient3"
       cx="5.9866023"
       cy="9.2634783"
       fx="5.9866023"
       fy="9.2634783"
       r="3.3398938"
       gradientTransform="matrix(1.1845316,0,0,0.25702099,0.41467693,9.7343376)"
       gradientUnits="userSpaceOnUse"
       spreadMethod="reflect" />
  </defs>
  <g
     inkscape:label="Layer 1"
     inkscape:groupmode="layer"
     id="layer1">
    <ellipse
       style="fill:url(#radialGradient3);stroke:none;stroke-width:0.1;stroke-linecap:round;stroke-linejoin:round"
       id="path1"
       cx="7.5059967"
       cy="12.115246"
       rx="3.9562097"
       ry="0.85842282" />
    <path
       id="path3-9"
       style="fill:#000000;fill-opacity:0.287149;stroke:none;stroke-width:0.1;stroke-linecap:round;stroke-linejoin:round"
       d="M 9.9956743,9.0711212 C 5.0816714,10.116538 7.8576791,9.120098 5.4610194,9.1799235 c -0.645193,0.041098 -0.9824995,0.126869 -0.8824665,0.1644752 0.3704032,0.1392488 1.2473584,0.4827469 0.1961454,1.0179103 0.058943,0.01215 0.1181002,0.02155 0.1770747,0.02957 -0.032849,0.01378 -0.065072,0.02697 -0.098317,0.04155 1.2635134,0.111583 -2.1756594,1.402618 0.238981,0.737657 2.1056214,-0.5945 1.1889059,-1.134064 3.5886416,-1.024998 -0.2999103,0.404647 -1.134128,0.960924 -3.7737789,1.850618 0.773791,0.497589 4.0137099,0.145519 4.9741516,-0.05599 -0.143433,-0.607599 5.8888737,-3.5417696 0.114223,-2.8696001 z"
       sodipodi:nodetypes="ccscccccccc" />
    <ellipse
       style="fill:#000000;fill-opacity:0.143426;stroke:#c00707;stroke-width:0.165;stroke-dasharray:none;stroke-opacity:0.421348"
       id="path5"
       cx="7.4724536"
       cy="11.982809"
       rx="0.24757871"
       ry="0.26408395" />
    <path
       id="path3-8"
       style="fill:#000000;fill-opacity:1;stroke:#000000;stroke-width:0.4;stroke-linecap:round;stroke-linejoin:round;stroke-dasharray:none;stroke-opacity:1"
       d="M 6.1495466,5.358117 C 2.4900755,7.528436 4.0084241,5.3869403 1.6149181,5.4303559 1.0043789,5.4984172 0.77213593,5.6789938 0.92627894,5.7676361 1.4970406,6.0958614 2.8670467,6.9041221 2.505558,8.0710574 2.582856,8.1007274 2.6566286,8.1241604 2.728371,8.1445124 2.713087,8.1743284 2.697676,8.2028764 2.683073,8.2344944 4.1384993,8.5344166 2.3339248,11.315064 3.9275208,9.9074288 5.2973745,8.6469229 3.621131,7.3949123 6.2462453,7.7325529 6.4839083,8.6337966 6.441853,9.9457628 5.1649858,11.940818 6.6368935,13.092693 9.1938295,12.244075 9.9128827,11.826235 8.9429912,10.450301 11.202426,4.0625363 6.1495466,5.358117 Z"
       sodipodi:nodetypes="ccscccccccc" />
    <path
       id="path3"
       style="fill:#86dfbd;fill-opacity:1;stroke:none;stroke-width:0.1;stroke-linecap:round;stroke-linejoin:round"
       d="M 6.1686394,5.4231332 C 2.5091683,7.5934522 4.0275169,5.4519565 1.6340109,5.4953721 1.0234717,5.5634334 0.79122873,5.74401 0.94537173,5.8326523 1.5161334,6.1608776 2.8861395,6.9691383 2.5246508,8.1360736 c 0.077298,0.02967 0.1510706,0.053103 0.222813,0.073455 -0.015284,0.029816 -0.030695,0.058364 -0.045298,0.089982 C 4.1575921,8.5994328 2.3530176,11.38008 3.9466136,9.972445 5.3164673,8.7119391 3.6402238,7.4599285 6.2653381,7.7975691 6.5030011,8.6988128 6.4609458,10.010779 5.1840786,12.005834 6.6559863,13.157709 9.2129223,12.309091 9.9319753,11.891251 8.962084,10.515317 11.221518,4.1275525 6.1686394,5.4231332 Z"
       sodipodi:nodetypes="ccscccccccc" />
    <path
       sodipodi:type="star"
       style="fill:none;fill-opacity:1;stroke:#1d38a5;stroke-width:0.221302;stroke-linecap:round;stroke-linejoin:round;stroke-dasharray:none;stroke-opacity:1"
       id="path2-26"
       inkscape:flatsided="false"
       sodipodi:sides="5"
       sodipodi:cx="4.4114056"
       sodipodi:cy="3.0077765"
       sodipodi:r1="1.4514208"
       sodipodi:r2="1.8372415"
       sodipodi:arg1="-0.24497866"
       sodipodi:arg2="0.38333987"
       inkscape:rounded="0"
       inkscape:randomized="0"
       d="M 5.8194906,2.6557553 6.1153013,3.6949416 5.1813199,4.2381644 4.2844054,4.8406233 3.4791538,4.1202193 2.6290195,3.453373 3.065328,2.4649161 3.4368305,1.4503235 l 1.0749052,0.109504 1.0797354,0.039794 z"
       inkscape:transform-center-x="-0.0071859267"
       inkscape:transform-center-y="-0.068671137"
       transform="matrix(0.26468462,0.12003479,-0.12259706,0.27033459,6.5797609,4.7362469)" />
    <path
       sodipodi:type="star"
       style="fill:none;fill-opacity:1;stroke:#1d38a5;stroke-width:0.221302;stroke-linecap:round;stroke-linejoin:round;stroke-dasharray:none;stroke-opacity:1"
       id="path2-41"
       inkscape:flatsided="false"
       sodipodi:sides="5"
       sodipodi:cx="4.4114056"
       sodipodi:cy="3.0077765"
       sodipodi:r1="1.4514208"
       sodipodi:r2="1.8372415"
       sodipodi:arg1="-0.24497866"
       sodipodi:arg2="0.38333987"
       inkscape:rounded="0"
       inkscape:randomized="0"
       d="M 5.8194906,2.6557553 6.1153013,3.6949416 5.1813199,4.2381644 4.2844054,4.8406233 3.4791538,4.1202193 2.6290195,3.453373 3.065328,2.4649161 3.4368305,1.4503235 l 1.0749052,0.109504 1.0797354,0.039794 z"
       inkscape:transform-center-x="-0.032441199"
       inkscape:transform-center-y="-0.03216522"
       transform="matrix(0.27824237,-0.08394927,0.08574125,0.28418175,2.6211559,6.758435)" />
    <path
       sodipodi:type="star"
       style="fill:none;fill-opacity:1;stroke:#1d38a5;stroke-width:0.221302;stroke-linecap:round;stroke-linejoin:round;stroke-dasharray:none;stroke-opacity:1"
       id="path2-69"
       inkscape:flatsided="false"
       sodipodi:sides="5"
       sodipodi:cx="4.4114056"
       sodipodi:cy="3.0077765"
       sodipodi:r1="1.4514208"
       sodipodi:r2="1.8372415"
       sodipodi:arg1="-0.24497866"
       sodipodi:arg2="0.38333987"
       inkscape:rounded="0"
       inkscape:randomized="0"
       d="M 5.8194906,2.6557553 6.1153013,3.6949416 5.1813199,4.2381644 4.2844054,4.8406233 3.4791538,4.1202193 2.6290195,3.453373 3.065328,2.4649161 3.4368305,1.4503235 l 1.0749052,0.109504 1.0797354,0.039794 z"
       inkscape:transform-center-x="0.0024316519"
       inkscape:transform-center-y="-0.0068779761"
       transform="matrix(0.29063086,0,0,0.29683468,7.9993336,8.0690047)" />
    <path
       sodipodi:type="star"
       style="fill:none;fill-opacity:1;stroke:#1d38a5;stroke-width:0.221302;stroke-linecap:round;stroke-linejoin:round;stroke-dasharray:none;stroke-opacity:1"
       id="path2-7"
       inkscape:flatsided="false"
       sodipodi:sides="5"
       sodipodi:cx="4.4114056"
       sodipodi:cy="3.0077765"
       sodipodi:r1="1.4514208"
       sodipodi:r2="1.8372415"
       sodipodi:arg1="-0.24497866"
       sodipodi:arg2="0.38333987"
       inkscape:rounded="0"
       inkscape:randomized="0"
       d="M 5.8194906,2.6557553 6.1153013,3.6949416 5.1813199,4.2381644 4.2844054,4.8406233 3.4791538,4.1202193 2.6290195,3.453373 3.065328,2.4649161 3.4368305,1.4503235 l 1.0749052,0.109504 1.0797354,0.039794 z"
       inkscape:transform-center-x="0.0024316519"
       inkscape:transform-center-y="-0.0068779761"
       transform="matrix(0.29063086,0,0,0.29683468,7.9993336,6.4815047)" />
    <path
       sodipodi:type="star"
       style="fill:none;fill-opacity:1;stroke:#1d38a5;stroke-width:0.221302;stroke-linecap:round;stroke-linejoin:round;stroke-dasharray:none;stroke-opacity:1"
       id="path2-81"
       inkscape:flatsided="false"
       sodipodi:sides="5"
       sodipodi:cx="4.4114056"
       sodipodi:cy="3.0077765"
       sodipodi:r1="1.4514208"
       sodipodi:r2="1.8372415"
       sodipodi:arg1="-0.24497866"
       sodipodi:arg2="0.38333987"
       inkscape:rounded="0"
       inkscape:randomized="0"
       d="M 5.8194906,2.6557553 6.1153013,3.6949416 5.1813199,4.2381644 4.2844054,4.8406233 3.4791538,4.1202193 2.6290195,3.453373 3.065328,2.4649161 3.4368305,1.4503235 l 1.0749052,0.109504 1.0797354,0.039794 z"
       inkscape:transform-center-x="0.0024316519"
       inkscape:transform-center-y="-0.0068779761"
       transform="matrix(0.29063086,0,0,0.29683468,7.2055836,5.952338)" />
    <path
       sodipodi:type="star"
       style="fill:none;fill-opacity:1;stroke:#1d38a5;stroke-width:0.221302;stroke-linecap:round;stroke-linejoin:round;stroke-dasharray:none;stroke-opacity:1"
       id="path2-43"
       inkscape:flatsided="false"
       sodipodi:sides="5"
       sodipodi:cx="4.4114056"
       sodipodi:cy="3.0077765"
       sodipodi:r1="1.4514208"
       sodipodi:r2="1.8372415"
       sodipodi:arg1="-0.24497866"
       sodipodi:arg2="0.38333987"
       inkscape:rounded="0"
       inkscape:randomized="0"
       d="M 5.8194906,2.6557553 6.1153013,3.6949416 5.1813199,4.2381644 4.2844054,4.8406233 3.4791538,4.1202193 2.6290195,3.453373 3.065328,2.4649161 3.4368305,1.4503235 l 1.0749052,0.109504 1.0797354,0.039794 z"
       inkscape:transform-center-x="0.0024316519"
       inkscape:transform-center-y="-0.0068779761"
       transform="matrix(0.29063086,0,0,0.29683468,6.2140898,6.1946415)" />
    <path
       sodipodi:type="star"
       style="fill:none;fill-opacity:1;stroke:#1d38a5;stroke-width:0.221302;stroke-linecap:round;stroke-linejoin:round;stroke-dasharray:none;stroke-opacity:1"
       id="path2-5"
       inkscape:flatsided="false"
       sodipodi:sides="5"
       sodipodi:cx="4.4114056"
       sodipodi:cy="3.0077765"
       sodipodi:r1="1.4514208"
       sodipodi:r2="1.8372415"
       sodipodi:arg1="-0.24497866"
       sodipodi:arg2="0.38333987"
       inkscape:rounded="0"
       inkscape:randomized="0"
       d="M 5.8194906,2.6557553 6.1153013,3.6949416 5.1813199,4.2381644 4.2844054,4.8406233 3.4791538,4.1202193 2.6290195,3.453373 3.065328,2.4649161 3.4368305,1.4503235 l 1.0749052,0.109504 1.0797354,0.039794 z"
       inkscape:transform-center-x="0.0024316519"
       inkscape:transform-center-y="-0.0068779761"
       transform="matrix(0.29063086,0,0,0.29683468,5.3535003,6.746088)" />
    <path
       sodipodi:type="star"
       style="fill:none;fill-opacity:1;stroke:#1d38a5;stroke-width:0.221302;stroke-linecap:round;stroke-linejoin:round;stroke-dasharray:none;stroke-opacity:1"
       id="path2-75"
       inkscape:flatsided="false"
       sodipodi:sides="5"
       sodipodi:cx="4.4114056"
       sodipodi:cy="3.0077765"
       sodipodi:r1="1.4514208"
       sodipodi:r2="1.8372415"
       sodipodi:arg1="-0.24497866"
       sodipodi:arg2="0.38333987"
       inkscape:rounded="0"
       inkscape:randomized="0"
       d="M 5.8194906,2.6557553 6.1153013,3.6949416 5.1813199,4.2381644 4.2844054,4.8406233 3.4791538,4.1202193 2.6290195,3.453373 3.065328,2.4649161 3.4368305,1.4503235 l 1.0749052,0.109504 1.0797354,0.039794 z"
       inkscape:transform-center-x="0.0024316519"
       inkscape:transform-center-y="-0.0068779761"
       transform="matrix(0.29063086,0,0,0.29683468,5.0443572,5.5986354)" />
    <path
       sodipodi:type="star"
       style="fill:none;fill-opacity:1;stroke:#1d38a5;stroke-width:0.221302;stroke-linecap:round;stroke-linejoin:round;stroke-dasharray:none;stroke-opacity:1"
       id="path2-88"
       inkscape:flatsided="false"
       sodipodi:sides="5"
       sodipodi:cx="4.4114056"
       sodipodi:cy="3.0077765"
       sodipodi:r1="1.4514208"
       sodipodi:r2="1.8372415"
       sodipodi:arg1="-0.24497866"
       sodipodi:arg2="0.38333987"
       inkscape:rounded="0"
       inkscape:randomized="0"
       d="M 5.8194906,2.6557553 6.1153013,3.6949416 5.1813199,4.2381644 4.2844054,4.8406233 3.4791538,4.1202193 2.6290195,3.453373 3.065328,2.4649161 3.4368305,1.4503235 l 1.0749052,0.109504 1.0797354,0.039794 z"
       inkscape:transform-center-x="-0.037309337"
       inkscape:transform-center-y="-0.026736855"
       transform="matrix(-0.05880569,0.28461937,-0.29069487,-0.06006096,6.2596103,5.8169253)" />
    <path
       sodipodi:type="star"
       style="fill:none;fill-opacity:1;stroke:#1d38a5;stroke-width:0.221302;stroke-linecap:round;stroke-linejoin:round;stroke-dasharray:none;stroke-opacity:1"
       id="path2"
       inkscape:flatsided="false"
       sodipodi:sides="5"
       sodipodi:cx="4.4114056"
       sodipodi:cy="3.0077765"
       sodipodi:r1="1.4514208"
       sodipodi:r2="1.8372415"
       sodipodi:arg1="-0.24497866"
       sodipodi:arg2="0.38333987"
       inkscape:rounded="0"
       inkscape:randomized="0"
       d="M 5.8194906,2.6557553 6.1153013,3.6949416 5.1813199,4.2381644 4.2844054,4.8406233 3.4791538,4.1202193 2.6290195,3.453373 3.065328,2.4649161 3.4368305,1.4503235 l 1.0749052,0.109504 1.0797354,0.039794 z"
       inkscape:transform-center-x="0.0024316519"
       inkscape:transform-center-y="-0.0068779761"
       transform="matrix(0.29063086,0,0,0.29683468,4.8058824,10.8675)" />
    <path
       sodipodi:type="star"
       style="fill:none;fill-opacity:1;stroke:#1d38a5;stroke-width:0.221302;stroke-linecap:round;stroke-linejoin:round;stroke-dasharray:none;stroke-opacity:1"
       id="path2-2"
       inkscape:flatsided="false"
       sodipodi:sides="5"
       sodipodi:cx="4.4114056"
       sodipodi:cy="3.0077765"
       sodipodi:r1="1.4514208"
       sodipodi:r2="1.8372415"
       sodipodi:arg1="-0.24497866"
       sodipodi:arg2="0.38333987"
       inkscape:rounded="0"
       inkscape:randomized="0"
       d="M 5.8194906,2.6557553 6.1153013,3.6949416 5.1813199,4.2381644 4.2844054,4.8406233 3.4791538,4.1202193 2.6290195,3.453373 3.065328,2.4649161 3.4368305,1.4503235 l 1.0749052,0.109504 1.0797354,0.039794 z"
       inkscape:transform-center-x="0.041711672"
       inkscape:transform-center-y="-0.081169801"
       transform="matrix(0.20758676,-0.20340608,0.207748,0.21201792,5.7886827,12.075136)" />
    <path
       sodipodi:type="star"
       style="fill:none;fill-opacity:1;stroke:#1d38a5;stroke-width:0.221302;stroke-linecap:round;stroke-linejoin:round;stroke-dasharray:none;stroke-opacity:1"
       id="path2-9"
       inkscape:flatsided="false"
       sodipodi:sides="5"
       sodipodi:cx="4.4114056"
       sodipodi:cy="3.0077765"
       sodipodi:r1="1.4514208"
       sodipodi:r2="1.8372415"
       sodipodi:arg1="-0.24497866"
       sodipodi:arg2="0.38333987"
       inkscape:rounded="0"
       inkscape:randomized="0"
       d="M 5.8194906,2.6557553 6.1153013,3.6949416 5.1813199,4.2381644 4.2844054,4.8406233 3.4791538,4.1202193 2.6290195,3.453373 3.065328,2.4649161 3.4368305,1.4503235 l 1.0749052,0.109504 1.0797354,0.039794 z"
       inkscape:transform-center-x="0.0024316519"
       inkscape:transform-center-y="-0.0068779761"
       transform="matrix(0.29063086,0,0,0.29683468,7.0468502,10.979421)" />
    <path
       sodipodi:type="star"
       style="fill:none;fill-opacity:1;stroke:#1d38a5;stroke-width:0.221302;stroke-linecap:round;stroke-linejoin:round;stroke-dasharray:none;stroke-opacity:1"
       id="path2-99"
       inkscape:flatsided="false"
       sodipodi:sides="5"
       sodipodi:cx="4.4114056"
       sodipodi:cy="3.0077765"
       sodipodi:r1="1.4514208"
       sodipodi:r2="1.8372415"
       sodipodi:arg1="-0.24497866"
       sodipodi:arg2="0.38333987"
       inkscape:rounded="0"
       inkscape:randomized="0"
       d="M 5.8194906,2.6557553 6.1153013,3.6949416 5.1813199,4.2381644 4.2844054,4.8406233 3.4791538,4.1202193 2.6290195,3.453373 3.065328,2.4649161 3.4368305,1.4503235 l 1.0749052,0.109504 1.0797354,0.039794 z"
       inkscape:transform-center-x="-0.030651834"
       inkscape:transform-center-y="-0.083602496"
       transform="matrix(0.24925719,0.14945618,-0.15264648,0.25457785,8.5305755,9.932229)" />
    <path
       sodipodi:type="star"
       style="fill:none;fill-opacity:1;stroke:#1d38a5;stroke-width:0.221302;stroke-linecap:round;stroke-linejoin:round;stroke-dasharray:none;stroke-opacity:1"
       id="path2-98"
       inkscape:flatsided="false"
       sodipodi:sides="5"
       sodipodi:cx="4.4114056"
       sodipodi:cy="3.0077765"
       sodipodi:r1="1.4514208"
       sodipodi:r2="1.8372415"
       sodipodi:arg1="-0.24497866"
       sodipodi:arg2="0.38333987"
       inkscape:rounded="0"
       inkscape:randomized="0"
       d="M 5.8194906,2.6557553 6.1153013,3.6949416 5.1813199,4.2381644 4.2844054,4.8406233 3.4791538,4.1202193 2.6290195,3.453373 3.065328,2.4649161 3.4368305,1.4503235 l 1.0749052,0.109504 1.0797354,0.039794 z"
       inkscape:transform-center-x="0.0024316519"
       inkscape:transform-center-y="-0.0068779761"
       transform="matrix(0.29063086,0,0,0.29683468,6.4981783,9.921088)" />
    <path
       sodipodi:type="star"
       style="fill:none;fill-opacity:1;stroke:#1d38a5;stroke-width:0.221302;stroke-linecap:round;stroke-linejoin:round;stroke-dasharray:none;stroke-opacity:1"
       id="path2-6"
       inkscape:flatsided="false"
       sodipodi:sides="5"
       sodipodi:cx="4.4114056"
       sodipodi:cy="3.0077765"
       sodipodi:r1="1.4514208"
       sodipodi:r2="1.8372415"
       sodipodi:arg1="-0.24497866"
       sodipodi:arg2="0.38333987"
       inkscape:rounded="0"
       inkscape:randomized="0"
       d="M 5.8194906,2.6557553 6.1153013,3.6949416 5.1813199,4.2381644 4.2844054,4.8406233 3.4791538,4.1202193 2.6290195,3.453373 3.065328,2.4649161 3.4368305,1.4503235 l 1.0749052,0.109504 1.0797354,0.039794 z"
       inkscape:transform-center-x="0.0024316519"
       inkscape:transform-center-y="-0.0068779761"
       transform="matrix(0.29063086,0,0,0.29683468,5.3535003,9.6565047)" />
    <path
       sodipodi:type="star"
       style="fill:none;fill-opacity:1;stroke:#1d38a5;stroke-width:0.221302;stroke-linecap:round;stroke-linejoin:round;stroke-dasharray:none;stroke-opacity:1"
       id="path2-3"
       inkscape:flatsided="false"
       sodipodi:sides="5"
       sodipodi:cx="4.4114056"
       sodipodi:cy="3.0077765"
       sodipodi:r1="1.4514208"
       sodipodi:r2="1.8372415"
       sodipodi:arg1="-0.24497866"
       sodipodi:arg2="0.38333987"
       inkscape:rounded="0"
       inkscape:randomized="0"
       d="M 5.8194906,2.6557553 6.1153013,3.6949416 5.1813199,4.2381644 4.2844054,4.8406233 3.4791538,4.1202193 2.6290195,3.453373 3.065328,2.4649161 3.4368305,1.4503235 l 1.0749052,0.109504 1.0797354,0.039794 z"
       inkscape:transform-center-x="0.0024316519"
       inkscape:transform-center-y="-0.0068779761"
       transform="matrix(0.29063086,0,0,0.29683468,6.0135713,8.7290757)" />
    <path
       sodipodi:type="star"
       style="fill:none;fill-opacity:1;stroke:#1d38a5;stroke-width:0.221302;stroke-linecap:round;stroke-linejoin:round;stroke-dasharray:none;stroke-opacity:1"
       id="path2-1"
       inkscape:flatsided="false"
       sodipodi:sides="5"
       sodipodi:cx="4.4114056"
       sodipodi:cy="3.0077765"
       sodipodi:r1="1.4514208"
       sodipodi:r2="1.8372415"
       sodipodi:arg1="-0.24497866"
       sodipodi:arg2="0.38333987"
       inkscape:rounded="0"
       inkscape:randomized="0"
       d="M 5.8194906,2.6557553 6.1153013,3.6949416 5.1813199,4.2381644 4.2844054,4.8406233 3.4791538,4.1202193 2.6290195,3.453373 3.065328,2.4649161 3.4368305,1.4503235 l 1.0749052,0.109504 1.0797354,0.039794 z"
       inkscape:transform-center-x="0.0024316519"
       inkscape:transform-center-y="-0.0068779761"
       transform="matrix(0.29063086,0,0,0.29683468,7.0719046,8.6622363)" />
    <path
       sodipodi:type="star"
       style="fill:none;fill-opacity:1;stroke:#1d38a5;stroke-width:0.221302;stroke-linecap:round;stroke-linejoin:round;stroke-dasharray:none;stroke-opacity:1"
       id="path2-65"
       inkscape:flatsided="false"
       sodipodi:sides="5"
       sodipodi:cx="4.4114056"
       sodipodi:cy="3.0077765"
       sodipodi:r1="1.4514208"
       sodipodi:r2="1.8372415"
       sodipodi:arg1="-0.24497866"
       sodipodi:arg2="0.38333987"
       inkscape:rounded="0"
       inkscape:randomized="0"
       d="M 5.8194906,2.6557553 6.1153013,3.6949416 5.1813199,4.2381644 4.2844054,4.8406233 3.4791538,4.1202193 2.6290195,3.453373 3.065328,2.4649161 3.4368305,1.4503235 l 1.0749052,0.109504 1.0797354,0.039794 z"
       inkscape:transform-center-x="0.02434016"
       inkscape:transform-center-y="-0.091581428"
       transform="matrix(0.22380761,-0.18540887,0.18936662,0.22858502,7.5360604,10.464929)" />
    <path
       sodipodi:type="star"
       style="fill:none;fill-opacity:1;stroke:#1d38a5;stroke-width:0.221302;stroke-linecap:round;stroke-linejoin:round;stroke-dasharray:none;stroke-opacity:1"
       id="path2-4"
       inkscape:flatsided="false"
       sodipodi:sides="5"
       sodipodi:cx="4.4114056"
       sodipodi:cy="3.0077765"
       sodipodi:r1="1.4514208"
       sodipodi:r2="1.8372415"
       sodipodi:arg1="-0.24497866"
       sodipodi:arg2="0.38333987"
       inkscape:rounded="0"
       inkscape:randomized="0"
       d="M 5.8194906,2.6557553 6.1153013,3.6949416 5.1813199,4.2381644 4.2844054,4.8406233 3.4791538,4.1202193 2.6290195,3.453373 3.065328,2.4649161 3.4368305,1.4503235 l 1.0749052,0.109504 1.0797354,0.039794 z"
       inkscape:transform-center-x="0.0024316519"
       inkscape:transform-center-y="-0.0068779761"
       transform="matrix(0.29063086,0,0,0.29683468,5.3535003,8.0690047)" />
    <path
       sodipodi:type="star"
       style="fill:none;fill-opacity:1;stroke:#1d38a5;stroke-width:0.221302;stroke-linecap:round;stroke-linejoin:round;stroke-dasharray:none;stroke-opacity:1"
       id="path2-8"
       inkscape:flatsided="false"
       sodipodi:sides="5"
       sodipodi:cx="4.4114056"
       sodipodi:cy="3.0077765"
       sodipodi:r1="1.4514208"
       sodipodi:r2="1.8372415"
       sodipodi:arg1="-0.24497866"
       sodipodi:arg2="0.38333987"
       inkscape:rounded="0"
       inkscape:randomized="0"
       d="M 5.8194906,2.6557553 6.1153013,3.6949416 5.1813199,4.2381644 4.2844054,4.8406233 3.4791538,4.1202193 2.6290195,3.453373 3.065328,2.4649161 3.4368305,1.4503235 l 1.0749052,0.109504 1.0797354,0.039794 z"
       inkscape:transform-center-x="0.084409976"
       inkscape:transform-center-y="-0.031959973"
       transform="matrix(0.15105322,-0.24829261,0.25359268,0.15427761,6.0888079,8.9232444)" />
    <path
       sodipodi:type="star"
       style="fill:none;fill-opacity:1;stroke:#1d38a5;stroke-width:0.221302;stroke-linecap:round;stroke-linejoin:round;stroke-dasharray:none;stroke-opacity:1"
       id="path2-46"
       inkscape:flatsided="false"
       sodipodi:sides="5"
       sodipodi:cx="4.4114056"
       sodipodi:cy="3.0077765"
       sodipodi:r1="1.4514208"
       sodipodi:r2="1.8372415"
       sodipodi:arg1="-0.24497866"
       sodipodi:arg2="0.38333987"
       inkscape:rounded="0"
       inkscape:randomized="0"
       d="M 5.8194906,2.6557553 6.1153013,3.6949416 5.1813199,4.2381644 4.2844054,4.8406233 3.4791538,4.1202193 2.6290195,3.453373 3.065328,2.4649161 3.4368305,1.4503235 l 1.0749052,0.109504 1.0797354,0.039794 z"
       inkscape:transform-center-x="0.0024316519"
       inkscape:transform-center-y="-0.0068779761"
       transform="matrix(0.29063086,0,0,0.29683468,7.2724231,7.3170397)" />
  </g>
</svg>
