<?xml version="1.0" encoding="UTF-8" standalone="no"?>
<!-- Created with Inkscape (http://www.inkscape.org/) -->

<svg
   width="15mm"
   height="15mm"
   viewBox="0 0 15 15"
   version="1.1"
   id="svg1"
   inkscape:export-filename="national-trust.png"
   inkscape:export-xdpi="96"
   inkscape:export-ydpi="96"
   inkscape:version="1.3.2 (091e20e, 2023-11-25)"
   sodipodi:docname="national-trust.svg"
   xml:space="preserve"
   xmlns:inkscape="http://www.inkscape.org/namespaces/inkscape"
   xmlns:sodipodi="http://sodipodi.sourceforge.net/DTD/sodipodi-0.dtd"
   xmlns="http://www.w3.org/2000/svg"
   xmlns:svg="http://www.w3.org/2000/svg"><sodipodi:namedview
     id="namedview1"
     pagecolor="#ffffff"
     bordercolor="#000000"
     borderopacity="0.25"
     inkscape:showpageshadow="2"
     inkscape:pageopacity="0.0"
     inkscape:pagecheckerboard="0"
     inkscape:deskcolor="#d1d1d1"
     inkscape:document-units="mm"
     showguides="false"
     inkscape:zoom="3.9703583"
     inkscape:cx="68.129872"
     inkscape:cy="57.677414"
     inkscape:window-width="1728"
     inkscape:window-height="993"
     inkscape:window-x="370"
     inkscape:window-y="244"
     inkscape:window-maximized="0"
     inkscape:current-layer="layer1" /><defs
     id="defs1"><filter
       inkscape:collect="always"
       style="color-interpolation-filters:sRGB"
       id="filter1"
       x="-0.15284745"
       y="-0.15263447"
       width="1.3057059"
       height="1.3055704"><feGaussianBlur
         inkscape:collect="always"
         stdDeviation="0.48966131"
         id="feGaussianBlur1" /></filter></defs><g
     inkscape:label="Layer 1"
     inkscape:groupmode="layer"
     id="layer1"><ellipse
       style="fill:#000000;fill-opacity:0.143426;stroke:#c00707;stroke-width:0.165;stroke-dasharray:none;stroke-opacity:0.421348"
       id="path5"
       cx="7.4724536"
       cy="11.982809"
       rx="0.24757871"
       ry="0.26408395" /><path
       style="fill:#ffffff;fill-opacity:1;stroke:#ffffff;stroke-width:0.399;stroke-dasharray:none;stroke-opacity:1;filter:url(#filter1)"
       d="m 7.4684119,12.175853 c -0.06442,-0.0092 -0.09041,-0.02024 -0.09868,-0.04179 -0.0038,-0.0099 -0.02028,-0.08714 -0.03659,-0.171554 -0.06557,-0.33941 -0.151117,-0.669738 -0.199785,-0.771462 -0.03902,-0.08156 -0.03873,-0.08127 -0.199918,-0.197962 -0.292271,-0.211583 -0.563884,-0.345474 -0.734237,-0.361942 -0.03752,-0.0036 -0.08255,-0.0089 -0.100065,-0.01176 -0.04414,-0.0072 -0.09155,0.01299 -0.09155,0.0389 0,0.01035 -0.0054,0.02328 -0.01194,0.02873 -0.0066,0.0055 -0.01194,0.01862 -0.01194,0.02925 0,0.02405 -0.03232,0.08206 -0.04577,0.08214 -0.0057,3.5e-5 -0.0099,0.0101 -0.0099,0.02357 0,0.03199 -0.01473,0.0619 -0.03281,0.06662 -0.01061,0.0028 -0.01495,0.01114 -0.01495,0.02881 0,0.02001 -0.0055,0.02812 -0.02786,0.04134 -0.01533,0.0091 -0.02786,0.02169 -0.02786,0.02811 0,0.01509 -0.07701,0.09025 -0.09248,0.09025 -0.0065,0 -0.02304,0.0058 -0.03678,0.01291 -0.03423,0.0177 -0.106113,0.01052 -0.15978,-0.01596 -0.173026,-0.08539 -0.336639,-0.342812 -0.372122,-0.58548 -0.01317,-0.09008 -0.0047,-0.211356 0.02058,-0.296408 0.02443,-0.08204 0.03928,-0.102921 0.08403,-0.118143 0.0193,-0.0066 0.03983,-0.01641 0.04561,-0.02188 0.01446,-0.01368 0.04532,-0.02052 0.07069,-0.01567 0.01166,0.0022 0.02905,4.78e-4 0.03865,-0.0039 0.0124,-0.0057 0.02293,-0.005 0.03637,0.0023 0.01689,0.0092 0.04919,0.01317 0.121572,0.01511 0.01267,3.29e-4 0.03238,0.0054 0.04378,0.01131 0.01141,0.0059 0.03429,0.01652 0.05084,0.02364 0.01655,0.0071 0.03216,0.01832 0.03468,0.0249 0.0026,0.0068 0.01444,0.01196 0.02723,0.01196 0.01498,0 0.03154,0.0089 0.0489,0.02618 0.01444,0.0144 0.03616,0.03047 0.04827,0.0357 0.0121,0.0052 0.02608,0.01847 0.03106,0.0294 0.005,0.01093 0.01588,0.02203 0.02422,0.02468 0.0083,0.0026 0.01846,0.01346 0.02248,0.02404 0.004,0.01057 0.01098,0.01923 0.01546,0.01923 0.0045,0 0.0082,0.0045 0.0082,0.0099 3.4e-5,0.01504 0.102189,0.119154 0.111353,0.11349 0.0085,-0.0052 -0.0092,-0.04675 -0.02386,-0.05581 -0.0045,-0.0028 -0.01535,-0.01821 -0.02418,-0.03434 -0.05336,-0.09747 -0.06333,-0.117849 -0.06333,-0.129423 0,-0.0071 -0.0075,-0.01964 -0.01666,-0.02793 -0.01268,-0.01147 -0.01565,-0.02128 -0.01244,-0.04104 0.003,-0.01829 0.0011,-0.02596 -0.0063,-0.02596 -0.0071,0 -0.01344,-0.02213 -0.01982,-0.06966 -0.015,-0.1117164 -0.01582,-0.1379284 -0.0063,-0.1994963 0.01093,-0.070627 0.04001,-0.1097797 0.103476,-0.1393439 0.07696,-0.035846 0.117374,-0.041356 0.296333,-0.040396 0.193178,0.00105 0.301131,0.016491 0.440147,0.063008 0.118472,0.039643 0.184599,0.07695 0.256821,0.1448919 0.05647,0.053121 0.06325,0.062776 0.07221,0.1028258 0.0077,0.034394 0.0078,0.051996 4.79e-4,0.079356 -0.0052,0.01934 -0.0094,0.05043 -0.0094,0.0691 0,0.02409 -0.0046,0.03789 -0.01592,0.04758 -0.0088,0.0075 -0.01592,0.02262 -0.01592,0.03362 0,0.02031 -0.01916,0.04526 -0.04128,0.05374 -0.0067,0.0025 -0.01449,0.01902 -0.0173,0.03657 -0.0043,0.02678 -0.0087,0.03269 -0.0276,0.03684 -0.0165,0.0036 -0.02627,0.01348 -0.03663,0.03695 -0.0088,0.01999 -0.02205,0.03501 -0.03522,0.03998 -0.03123,0.01179 -0.06488,0.04714 -0.06488,0.06815 0,0.02163 -0.02409,0.0254 -0.03997,0.0063 -0.009,-0.01084 -0.01166,-0.0107 -0.02486,0.0013 -0.0081,0.0074 -0.01478,0.02027 -0.01478,0.02869 0,0.01293 -0.0038,0.01449 -0.02421,0.01 -0.02766,-0.0061 -0.04744,0.006 -0.04744,0.02906 0,0.01256 -0.0037,0.01413 -0.02189,0.0094 -0.0461,-0.01208 -0.06098,-0.0082 -0.06623,0.01737 -0.004,0.01942 -0.0061,0.02128 -0.01099,0.0099 -0.004,-0.0091 -0.01478,-0.01387 -0.0311,-0.01376 l -0.02502,1.77e-4 0.0199,0.01552 c 0.01095,0.0085 0.09155,0.05209 0.17912,0.09677 0.08757,0.04468 0.196833,0.104488 0.242807,0.132894 0.152754,0.09438 0.213405,0.11496 0.247739,0.08406 0.05989,-0.05391 0.162673,-0.268426 0.232307,-0.484837 0.0639,-0.19858 0.08708,-0.326023 0.08542,-0.4696934 -0.0017,-0.1458083 -0.0025,-0.1505895 -0.03038,-0.1823743 -0.02969,-0.033821 -0.03681,-0.06609 -0.0318,-0.1441878 0.0042,-0.065391 0.01697,-0.091576 0.0564,-0.115618 0.03693,-0.022518 0.04958,-0.019698 0.09276,0.020694 l 0.03877,0.036266 0.01348,-0.046217 c 0.03674,-0.1259809 0.07632,-0.3364126 0.0774,-0.411517 0.0012,-0.084927 -0.0077,-0.099232 -0.08751,-0.1398537 -0.05026,-0.025602 -0.08623,-0.05164 -0.129222,-0.093553 -0.03276,-0.031943 -0.06232,-0.058079 -0.06568,-0.058079 -0.0034,0 -0.0061,0.013794 -0.0061,0.030649 0,0.042726 -0.03778,0.093205 -0.08559,0.1143539 -0.04752,0.021018 -0.1093,0.015973 -0.213599,-0.017434 -0.09883,-0.031685 -0.174686,-0.042261 -0.234188,-0.032678 -0.05536,0.00892 -0.07131,0.016725 -0.16835,0.082455 -0.128623,0.087122 -0.246443,0.1256713 -0.299784,0.098087 -0.03093,-0.015997 -0.04493,-0.042052 -0.06133,-0.1141243 -0.01937,-0.085173 -0.05467,-0.1113048 -0.09537,-0.070606 -0.01049,0.010494 -0.02492,0.040048 -0.03206,0.065678 -0.0071,0.025629 -0.01815,0.065256 -0.02447,0.088059 -0.01617,0.058368 -0.0934,0.1698004 -0.182937,0.2639687 -0.1865221,0.1961661 -0.3180861,0.2437976 -0.3741171,0.1354455 -0.0067,-0.012889 -0.01939,-0.052658 -0.02828,-0.08838 -0.02317,-0.09311 -0.0332,-0.1096874 -0.06634,-0.1096874 -0.03875,0 -0.07489,0.045053 -0.103536,0.1290666 -0.08452,0.2478601 -0.14448,0.3564196 -0.302274,0.5472291 -0.128515,0.1554291 -0.193315,0.2056591 -0.275477,0.2135541 -0.03286,0.0031 -0.04027,6.89e-4 -0.06618,-0.02207 -0.02883,-0.02531 -0.0403,-0.05279 -0.0688,-0.1648653 -0.01113,-0.043762 -0.04201,-0.079584 -0.07692,-0.089225 -0.05135,-0.014178 -0.06154,-0.00304 -0.134249,0.1462499 -0.0798,0.1638904 -0.121893,0.2196634 -0.193938,0.2569584 -0.06246,0.03233 -0.11538,0.03487 -0.168517,0.008 -0.05087,-0.02565 -0.06889,-0.06283 -0.07832,-0.16158 -0.0042,-0.04358 -0.01171,-0.08998 -0.01677,-0.1031042 -0.03162,-0.082002 -0.08855,-0.066183 -0.139763,0.038849 -0.03734,0.07657 -0.08651,0.131173 -0.148293,0.164668 -0.04914,0.02664 -0.05274,0.02733 -0.142179,0.02733 -0.08254,0 -0.09574,-0.002 -0.131355,-0.0202 -0.04797,-0.02448 -0.06743,-0.05802 -0.06744,-0.11624 -9e-6,-0.02842 -0.0047,-0.04665 -0.01524,-0.05971 -0.01404,-0.01732 -0.02104,-0.0188 -0.08972,-0.0188 -0.0833,0 -0.09942,-0.0074 -0.142555,-0.066141 -0.07668,-0.1042716 -0.07514,-0.2171608 0.0052,-0.3766002 0.01507,-0.029931 0.0274,-0.063349 0.0274,-0.074263 0,-0.013542 -0.01547,-0.035729 -0.04872,-0.069857 -0.06486,-0.066591 -0.07827,-0.09705 -0.07849,-0.178377 -1.93e-4,-0.071359 0.01282,-0.1185348 0.044,-0.1594029 0.03138,-0.04114 0.0669,-0.064215 0.16405,-0.1065709 0.111977,-0.048776 0.137762,-0.073074 0.131986,-0.1243238 -0.0056,-0.049618 -0.03368,-0.086984 -0.124536,-0.1656544 -0.10105,-0.087502 -0.125094,-0.1296757 -0.117193,-0.2055682 0.01329,-0.1276866 0.107446,-0.223 0.275685,-0.279077 0.09963,-0.033209 0.173288,-0.040201 0.270082,-0.025638 0.103368,0.015554 0.130491,0.015608 0.181806,3.592e-4 0.05272,-0.015647 0.07416,-0.04132 0.06573,-0.078694 -0.0081,-0.036117 -0.04482,-0.098972 -0.100299,-0.1718864 -0.05292,-0.069557 -0.06704,-0.099382 -0.06704,-0.1415955 0,-0.1229133 0.10419,-0.2277528 0.258729,-0.260343 0.133865,-0.028231 0.428722,-7.784e-4 0.611887,0.056988 0.03563,0.011236 0.106002,0.041842 0.156372,0.068015 0.103859,0.053964 0.153113,0.065058 0.187834,0.042308 0.01823,-0.011943 0.02046,-0.017794 0.0169,-0.044328 -0.0023,-0.016962 -0.02264,-0.061259 -0.04575,-0.099519 -0.04773,-0.079027 -0.06356,-0.1245297 -0.06331,-0.182043 2.23e-4,-0.051736 0.02148,-0.098325 0.06343,-0.139042 0.08993,-0.087271 0.249342,-0.088668 0.475603,-0.00417 0.146635,0.054763 0.20988,0.092363 0.4001741,0.2379131 0.111483,0.085269 0.200054,0.1341764 0.235624,0.1301064 0.03045,-0.00348 0.03928,-0.023781 0.05444,-0.1251485 0.01339,-0.089552 0.03341,-0.1357555 0.07078,-0.163369 0.03495,-0.025827 0.143197,-0.023434 0.210582,0.00466 0.08232,0.034314 0.134937,0.070268 0.217993,0.1489495 0.08596,0.08143 0.156178,0.1697891 0.216926,0.2729555 0.104692,0.1777972 0.147793,0.23032 0.242875,0.2959679 0.111735,0.077146 0.220384,0.2459228 0.257015,0.3992522 0.0094,0.039406 0.02454,0.082395 0.03362,0.095531 l 0.0165,0.023884 0.0043,-0.065753 c 0.0052,-0.079198 0.02072,-0.1016488 0.06959,-0.1003674 0.03656,9.554e-4 0.103164,0.033689 0.144446,0.070985 0.05569,0.050312 0.0517,0.012994 -0.02304,-0.2153398 -0.0258,-0.078815 -0.06304,-0.1940622 -0.08276,-0.256107 -0.03537,-0.1112787 -0.140762,-0.3703197 -0.19233,-0.4727215 -0.01457,-0.028922 -0.04258,-0.068428 -0.06226,-0.087789 -0.0337,-0.033158 -0.05074,-0.044486 -0.167902,-0.1116135 -0.02599,-0.014892 -0.08552,-0.063799 -0.132267,-0.1086784 -0.04675,-0.04488 -0.0906,-0.081599 -0.09745,-0.081599 -0.0068,0 -0.01974,0.00928 -0.02866,0.020617 -0.04139,0.052624 -0.126465,0.066224 -0.196364,0.031392 -0.02168,-0.010803 -0.09123,-0.061 -0.154568,-0.1115496 C 6.3900909,6.9658166 6.3065989,6.9166483 6.1986489,6.8780267 6.1130089,6.8473857 5.9676179,6.8132007 5.8417748,6.7941147 5.6682488,6.7677967 5.5052478,6.7227377 5.4121648,6.675355 5.3017108,6.61913 5.2563148,6.5202233 5.2997668,6.4304637 c 0.02115,-0.043693 0.06788,-0.084006 0.138616,-0.1195755 0.06514,-0.032757 0.08359,-0.047428 0.08359,-0.066469 0,-0.033725 -0.118415,-0.1044523 -0.199023,-0.1188725 -0.02408,-0.00431 -0.09778,-0.011386 -0.163771,-0.015728 -0.194629,-0.012807 -0.349068,-0.04893 -0.448502,-0.1049038 -0.105103,-0.059166 -0.215352,-0.1576532 -0.25794,-0.2304243 -0.04583,-0.0783 -0.03366,-0.1674033 0.03242,-0.2374558 0.02926,-0.031024 0.06151,-0.051829 0.143777,-0.092754 0.138199,-0.068751 0.161321,-0.102092 0.104162,-0.1501888 C 4.6901458,5.257952 4.6261108,5.234509 4.4910378,5.205478 4.2608778,5.15601 4.1781408,5.132277 4.0914078,5.0908449 3.9477898,5.0222399 3.8800368,4.9388077 3.8800368,4.830559 c 0,-0.1089942 0.07704,-0.1875661 0.232856,-0.2374875 0.09012,-0.028872 0.119414,-0.044596 0.119414,-0.064089 0,-0.024424 -0.03162,-0.04967 -0.125287,-0.1000178 -0.233424,-0.1254757 -0.361472,-0.2530941 -0.361461,-0.3602489 1.1e-5,-0.1057058 0.04967,-0.1477653 0.222343,-0.1883033 0.0446,-0.01047 0.07708,-0.022751 0.08587,-0.032463 0.01313,-0.014512 0.01324,-0.017447 0.0015,-0.041321 -0.007,-0.014134 -0.04355,-0.062801 -0.08127,-0.1081486 -0.07909,-0.095074 -0.09989,-0.1314862 -0.09989,-0.1748887 0,-0.036056 0.0187,-0.063616 0.06082,-0.089649 0.02853,-0.017631 0.02869,-0.018038 0.02419,-0.061584 -0.01089,-0.1055395 0.05695,-0.148952 0.194594,-0.1245286 0.07906,0.014028 0.100054,0.010675 0.158845,-0.025365 0.105512,-0.064681 0.17508,-0.038603 0.271131,0.1016348 0.04272,0.062371 0.05167,0.071253 0.06966,0.069154 0.01746,-0.00204 0.02405,-0.011012 0.04272,-0.058133 0.02623,-0.066235 0.07104,-0.1134812 0.12839,-0.1353843 0.03361,-0.012836 0.04548,-0.013641 0.08964,-0.00608 0.13917,0.023839 0.262104,0.1303433 0.347588,0.3011363 0.0528,0.1054977 0.06719,0.1032268 0.15423,-0.024341 0.107723,-0.1578869 0.145503,-0.1831795 0.273279,-0.1829514 0.07319,1.307e-4 0.08904,0.00271 0.127375,0.020778 0.06061,0.028557 0.1120641,0.076811 0.1376751,0.1291156 0.0119,0.024305 0.034,0.090048 0.0491,0.1460957 0.0151,0.056048 0.03188,0.1144442 0.03727,0.129769 0.0068,0.019233 0.01017,0.098142 0.01098,0.2547487 0.0012,0.2311847 0.0047,0.2758322 0.0254,0.3280869 0.02313,0.058262 0.04881,0.049225 0.165481,-0.058222 0.08903,-0.081998 0.139758,-0.1100309 0.210742,-0.1164675 0.03757,-0.00341 0.05359,-8.455e-4 0.08262,0.013204 0.105284,0.050967 0.165092,0.1910048 0.165146,0.3866817 3.7e-5,0.1322513 -0.01246,0.1956923 -0.07368,0.3741623 -0.0447,0.1303069 -0.04949,0.1506761 -0.05284,0.2247125 -0.003,0.06669 -0.0013,0.085049 0.0095,0.1015015 0.02566,0.039165 0.06151,0.020829 0.1123,-0.057434 0.03028,-0.046664 0.08948,-0.074975 0.167215,-0.079964 0.03218,-0.00206 0.06766,-0.00145 0.07885,0.00135 0.03271,0.00821 0.07296,0.049293 0.09227,0.09418 0.02875,0.066833 0.02866,0.1396336 -4.79e-4,0.4002898 -0.01883,0.1683941 -0.02603,0.2696417 -0.02659,0.3741622 -7.18e-4,0.1357067 7.19e-4,0.1500423 0.02709,0.2706705 0.02582,0.1180287 0.02785,0.1373042 0.02771,0.2627097 l -1.49e-4,0.1353353 -0.03767,0.1106811 c -0.04505,0.1323696 -0.04647,0.1533902 -0.01296,0.191556 0.02719,0.030965 0.062,0.040359 0.04722,0.012741 -0.01699,-0.03174 -0.004,-0.1152076 0.0236,-0.1517804 0.01285,-0.017026 0.0207,-0.019666 0.05427,-0.018268 l 0.03925,0.00163 0.0039,-0.085224 c 0.0041,-0.09019 0.01698,-0.1359889 0.05146,-0.1826831 0.01048,-0.014196 0.02799,-0.028054 0.03891,-0.030794 0.03121,-0.00783 0.115068,0.038135 0.176105,0.096529 l 0.05295,0.050656 0.02308,-0.019417 c 0.03718,-0.031287 0.07167,-0.025308 0.135627,0.023513 0.02069,0.015795 0.03922,0.028718 0.04117,0.028718 0.0019,0 0.0057,-0.011643 0.0084,-0.025873 0.0032,-0.017106 -0.0048,-0.063506 -0.02344,-0.1369469 -0.05154,-0.2025522 -0.05558,-0.3110805 -0.01749,-0.470064 0.06707,-0.2800022 0.06287,-0.2520964 0.05813,-0.3861036 -0.0044,-0.1243355 -0.0099,-0.1574664 -0.06558,-0.3980449 -0.01858,-0.080225 -0.02069,-0.1028762 -0.01702,-0.1831007 0.01097,-0.2402098 0.08761,-0.3741622 0.214073,-0.3741622 0.05194,0 0.09114,0.016187 0.173744,0.071726 0.03998,0.026882 0.08499,0.050873 0.100032,0.053314 0.02377,0.00386 0.03081,7.574e-4 0.05391,-0.023732 0.04056,-0.043006 0.05791,-0.111574 0.08507,-0.336155 0.0397,-0.3282778 0.07039,-0.4868695 0.124766,-0.6448327 0.05299,-0.1539393 0.135308,-0.2770411 0.225547,-0.3373005 0.08082,-0.053969 0.138125,-0.060276 0.212082,-0.023339 0.04943,0.024688 0.08561,0.06553 0.169701,0.1915608 0.105973,0.1588324 0.139942,0.1727883 0.214475,0.088114 0.03292,-0.037404 0.07465,-0.1050276 0.124437,-0.2016468 0.04659,-0.090425 0.151877,-0.1930823 0.245614,-0.2394823 0.06981,-0.034556 0.07245,-0.035169 0.151257,-0.035169 0.06758,0 0.0854,0.00278 0.113188,0.017637 0.04867,0.02603 0.08641,0.075117 0.1110474,0.1444234 0.05174,0.1455792 0.06261,0.1603555 0.1179417,0.1603555 0.04232,0 0.086,-0.022408 0.15111,-0.077523 0.135862,-0.1150106 0.176631,-0.1451661 0.230158,-0.1702375 0.05124,-0.023999 0.06464,-0.026852 0.126218,-0.02687 0.06509,-1.95e-5 0.07058,0.00134 0.09951,0.024574 0.01684,0.013527 0.03922,0.039996 0.04973,0.058821 0.01789,0.032021 0.01902,0.041392 0.01765,0.145442 -0.002,0.15445 0.0047,0.1599514 0.11049,0.089586 0.07604,-0.050603 0.11352,-0.064087 0.155987,-0.056121 0.03842,0.00721 0.06278,0.034348 0.08966,0.099898 l 0.02122,0.051746 0.07157,0.035824 c 0.08248,0.041287 0.107062,0.072319 0.107215,0.1353353 1.86e-4,0.0772 -0.02148,0.1116389 -0.121821,0.1936071 -0.05356,0.043759 -0.05116,0.059234 0.01933,0.1243404 0.03111,0.028729 0.06155,0.061908 0.06767,0.073732 0.02541,0.049129 0.0016,0.1319851 -0.05628,0.1960833 -0.04418,0.048894 -0.0811,0.062817 -0.193552,0.072985 -0.140616,0.012714 -0.192818,0.034417 -0.192818,0.080165 0,0.017464 0.01042,0.03026 0.0509,0.062465 0.08254,0.065684 0.137873,0.1303787 0.151903,0.1776209 0.01991,0.067039 0.0046,0.1176824 -0.05067,0.167615 -0.04146,0.037459 -0.0816,0.057522 -0.153539,0.076765 -0.09875,0.026412 -0.169958,0.032864 -0.388742,0.035229 -0.191411,0.00207 -0.215744,0.00388 -0.263337,0.019568 -0.07435,0.024514 -0.106184,0.047656 -0.109278,0.079449 -0.0036,0.037458 0.01924,0.063752 0.09425,0.1083384 0.08596,0.051085 0.117034,0.079276 0.128097,0.1162009 0.02663,0.088877 -0.03694,0.1926982 -0.163255,0.266633 -0.05093,0.029813 -0.1840837,0.08023 -0.2882531,0.1091476 -0.09381,0.02604 -0.09638,0.026293 -0.261916,0.025747 -0.119986,-3.952e-4 -0.187967,-0.00433 -0.240821,-0.013932 -0.136606,-0.02482 -0.223843,-0.014836 -0.252499,0.028897 -0.02927,0.04467 0.01063,0.089607 0.136235,0.1534476 0.131028,0.066595 0.185385,0.1296144 0.185751,0.2153522 4.48e-4,0.1080978 -0.123994,0.1943251 -0.361408,0.2503999 -0.161954,0.038251 -0.251191,0.067555 -0.33788,0.110953 -0.108377,0.054255 -0.190413,0.116935 -0.329488,0.2517445 -0.18006,0.1745386 -0.26545,0.2270364 -0.372171,0.2288098 -0.02846,4.73e-4 -0.0635,-0.0041 -0.07787,-0.010162 -0.01437,-0.00606 -0.02726,-0.00965 -0.02864,-0.00796 -0.0571,0.069688 -0.194508,0.2615292 -0.210032,0.2932391 -0.03899,0.079636 -0.03377,0.1712514 0.02286,0.4010072 0.05801,0.2353366 0.164951,0.5278237 0.238178,0.6514004 0.0411,0.069363 0.07398,0.097428 0.106515,0.090921 0.03869,-0.00774 0.08676,-0.033896 0.165835,-0.090229 0.04055,-0.028891 0.141789,-0.098995 0.224981,-0.1557886 0.501303,-0.3422348 0.557413,-0.3779426 0.930692,-0.5922895 0.253433,-0.1455267 0.26882,-0.1548997 0.313198,-0.1907753 0.02891,-0.023365 0.03384,-0.031692 0.03384,-0.05714 0,-0.030546 -0.03343,-0.095153 -0.07877,-0.1522461 -0.02843,-0.03579 -0.08045,-0.1509771 -0.08045,-0.1781319 0,-0.01149 -0.0035,-0.020891 -0.0079,-0.020891 -0.0044,0 -0.008,-0.018148 -0.008,-0.040328 0,-0.02218 -0.004,-0.047785 -0.0089,-0.0569 -0.0066,-0.012276 -0.0064,-0.024721 5.4e-4,-0.048001 0.008,-0.026484 0.0074,-0.0336 -0.003,-0.045228 -0.01596,-0.017639 -0.01572,-0.028496 0.0013,-0.057256 0.01127,-0.01907 0.01198,-0.026116 0.004,-0.038935 -0.01283,-0.020543 -0.0124,-0.048308 0.001,-0.067831 0.0059,-0.00864 0.01324,-0.028944 0.0162,-0.045126 0.0063,-0.034378 0.06324,-0.089798 0.100721,-0.09803 0.01844,-0.00405 0.03126,-0.018471 0.06278,-0.070663 0.09105,-0.1507209 0.2572104,-0.3489272 0.3768191,-0.4494788 0.174114,-0.1463714 0.364352,-0.2405834 0.535881,-0.2653839 0.08014,-0.011588 0.179749,-0.00174 0.254127,0.025126 0.106507,0.03847 0.10126,0.038265 0.148561,0.00578 0.06121,-0.042032 0.08747,-0.045418 0.11771,-0.015179 0.02375,0.02375 0.02393,0.02457 0.01268,0.056455 -0.0063,0.017795 -0.02056,0.045816 -0.03174,0.062269 -0.02576,0.037908 -0.0255,0.044631 0.0036,0.08985 0.04226,0.065846 0.05703,0.1213088 0.06154,0.2309204 0.0063,0.1529142 -0.02642,0.2859934 -0.116441,0.4736734 -0.105477,0.2199141 -0.22837,0.378829 -0.407955,0.5275341 -0.03785,0.031343 -0.07695,0.070558 -0.08687,0.087143 -0.02553,0.042654 -0.04794,0.065979 -0.06339,0.065979 -0.0073,0 -0.01978,0.00716 -0.02771,0.015922 -0.0089,0.00988 -0.02452,0.015922 -0.04104,0.015922 -0.01601,0 -0.03297,0.00635 -0.04255,0.015922 -0.0088,0.00876 -0.02229,0.015922 -0.03007,0.015922 -0.0078,0 -0.02236,0.00575 -0.03239,0.012776 -0.01004,0.00703 -0.02784,0.015674 -0.03959,0.019218 -0.0448,0.013521 0.104686,0.0076 0.196298,-0.00777 0.135425,-0.022722 0.306069,-0.016815 0.399327,0.013829 0.01533,0.00504 0.03744,0.011069 0.04914,0.01341 0.0117,0.00233 0.03192,0.013213 0.04494,0.024158 0.01301,0.010946 0.02858,0.019904 0.03459,0.019904 0.01943,0 0.07036,0.03992 0.07036,0.055151 0,0.00937 0.0078,0.016724 0.02129,0.020114 0.02623,0.00659 0.058,0.035645 0.05818,0.053236 7.7e-5,0.00728 0.0091,0.015309 0.02029,0.018126 0.02259,0.00567 0.05142,0.04713 0.05147,0.074008 1.6e-5,0.0097 0.0075,0.021625 0.01662,0.026512 0.04302,0.023024 0.0502,0.136938 0.01266,0.2009918 -0.09141,0.1559776 -0.397688,0.2626826 -0.785538,0.2736766 -0.182596,0.00517 -0.22616,-2.799e-4 -0.301045,-0.0377 -0.07291,-0.036432 -0.0816,-0.051483 -0.09788,-0.1693732 -0.0061,-0.044202 -0.0052,-0.059091 0.0047,-0.079023 0.0068,-0.013509 0.01037,-0.030496 0.008,-0.03775 -0.0054,-0.017009 0.01498,-0.074713 0.03568,-0.1010254 0.0089,-0.011251 0.01609,-0.030799 0.01609,-0.043438 0,-0.016228 0.0053,-0.025422 0.01824,-0.03129 0.01003,-0.00457 0.02167,-0.016137 0.02587,-0.025704 0.0042,-0.00957 0.01569,-0.020928 0.02555,-0.025252 0.0099,-0.00432 0.01792,-0.01374 0.01792,-0.020925 0,-0.012365 0.0699,-0.071654 0.09553,-0.081026 0.02514,-0.00919 -0.06294,-0.00503 -0.131355,0.00621 -0.03941,0.00648 -0.09722,0.011836 -0.128485,0.01191 -0.1499587,3.589e-4 -0.3452871,0.059866 -0.6099411,0.1858016 -0.562318,0.2675818 -1.182095,0.7556376 -1.393282,1.0971631 -0.04321,0.069883 -0.05175,0.097732 -0.129159,0.4214066 -0.06914,0.2890945 -0.11891,0.4748957 -0.218108,0.8142514 -0.03905,0.133586 -0.07339,0.25477 -0.07631,0.269296 l -0.0053,0.02641 0.0384,-0.04094 c 0.06541,-0.06974 0.109615,-0.0904 0.15875,-0.07418 0.03242,0.0107 0.04975,0.04013 0.05632,0.09565 0.0086,0.07301 0.02128,0.04563 0.02928,-0.06348 0.0083,-0.112806 0.09867,-0.237276 0.28336,-0.3901354 0.128122,-0.106042 0.180931,-0.1957789 0.279099,-0.4742631 0.05252,-0.1489993 0.08519,-0.2214016 0.130901,-0.2901673 0.145667,-0.2191132 0.342046,-0.2105159 0.452919,0.01983 0.03788,0.078682 0.05812,0.1071407 0.0762,0.1071407 0.03263,0 0.09729,-0.085649 0.231378,-0.3064945 0.210893,-0.3473492 0.344425,-0.5046017 0.485512,-0.5717567 0.04192,-0.019952 0.06434,-0.02517 0.1194141,-0.027791 0.08015,-0.00381 0.120992,0.00566 0.166477,0.038609 0.04745,0.03437 0.08654,0.1000322 0.130592,0.2193496 0.04421,0.1197521 0.0637,0.1491986 0.09873,0.1491986 0.0418,0 0.0771,-0.030307 0.137977,-0.118465 0.111184,-0.161 0.297051,-0.3065613 0.437341,-0.3425018 0.06861,-0.017578 0.124111,-0.0064 0.163424,0.032913 0.03608,0.036079 0.04427,0.067416 0.0505,0.1931976 0.0046,0.092296 0.0073,0.107608 0.0207,0.1174233 0.03326,0.024294 0.05011,0.01488 0.154516,-0.086336 0.113275,-0.109812 0.172658,-0.1474714 0.244183,-0.1548534 0.08016,-0.00827 0.144309,0.031758 0.163177,0.1018257 0.0061,0.022701 0.0061,0.054398 -2.26e-4,0.1114111 -0.0048,0.043826 -0.0067,0.08632 -0.0041,0.09443 0.0069,0.02185 0.04543,0.034875 0.08387,0.02838 0.01808,-0.00305 0.05388,-0.00555 0.07956,-0.00555 0.114397,0 0.173274,0.094149 0.140029,0.2239189 -0.0169,0.065961 -0.04169,0.1104221 -0.108941,0.1953717 -0.07627,0.096347 -0.07459,0.1179686 0.01601,0.2069826 0.04819,0.04734 0.04837,0.047689 0.04837,0.093796 0,0.055102 -0.01549,0.095877 -0.05016,0.1320459 -0.03717,0.038777 -0.0751,0.055415 -0.177855,0.078007 -0.05043,0.01109 -0.103189,0.024964 -0.11724,0.030834 -0.0587,0.024527 -0.08773,0.080161 -0.06934,0.1329068 0.005,0.014255 0.02885,0.058659 0.05307,0.098692 0.05158,0.08526 0.06704,0.130951 0.0668,0.197489 -2.2e-4,0.06117 -0.01857,0.102361 -0.0643,0.144339 -0.05956,0.05468 -0.132654,0.08188 -0.268984,0.10009 -0.06579,0.0088 -0.225271,0.0066 -0.427986,-0.0059 -0.202502,-0.0125 -0.232512,0.02725 -0.118142,0.156443 0.09499,0.107301 0.129519,0.196256 0.107675,0.277379 -0.03449,0.128116 -0.247711,0.194541 -0.5627,0.175306 -0.171691,-0.01048 -0.315359,-0.04508 -0.5237591,-0.126112 -0.140119,-0.05448 -0.18991,-0.06995 -0.255218,-0.0793 -0.09175,-0.01313 -0.171133,0.01419 -0.171133,0.05891 0,0.0093 0.02329,0.05061 0.05176,0.09172 0.06705,0.09685 0.08593,0.146451 0.0821,0.215805 -0.0024,0.0426 -0.0071,0.05815 -0.02506,0.08167 -0.03233,0.04238 -0.07758,0.06273 -0.148608,0.06682 -0.118253,0.0068 -0.211503,-0.02908 -0.434759,-0.167272 -0.157678,-0.09761 -0.256476,-0.148877 -0.342579,-0.17778 -0.144968,-0.04866 -0.288238,-0.05661 -0.416796,-0.02312 -0.183107,0.04769 -0.343688,0.02809 -0.389636,-0.04757 -0.0081,-0.0133 -0.01717,-0.03941 -0.02021,-0.05803 -0.003,-0.01861 -0.0081,-0.03384 -0.01126,-0.03384 -0.0031,0 -0.02702,0.01274 -0.05304,0.02831 -0.06924,0.04145 -0.142908,0.117457 -0.173067,0.178554 -0.02475,0.05015 -0.02548,0.05461 -0.02536,0.155238 1.16e-4,0.09462 0.0019,0.107437 0.02074,0.14782 0.01341,0.02877 0.03399,0.05518 0.05892,0.07563 0.06298,0.05165 0.098,0.08945 0.100739,0.108745 0.0014,0.01001 -5.99e-4,0.05999 -0.0045,0.111067 -0.0061,0.08055 -0.0047,0.106866 0.01055,0.19836 0.0097,0.05802 0.02672,0.139822 0.03787,0.181782 0.02886,0.108644 0.02861,0.111982 -0.0095,0.125834 -0.03818,0.01387 -0.216908,0.02031 -0.286593,0.01031 z"
       id="path1-6"
       sodipodi:nodetypes="cscssscssssscssssscssssccccsscssssccssscssscsssscssscsssssssssscssssssccsssssscssscssssssscsssssscsscsscsssssssscssscsssssscsssssssscsssssssssssssssssssssscsssssssssssscsssssssssssssssssssssscsssssssscssssssssscssssssscsssscccscssssscsssscsssccssscssssssssssssssssssssscssscssssscssssssssssssssssscssssscsssssssssssssscscscssssssssssssssssssssscsscssssssscsssssssssssssssssssscssssssssssssssssssssssssssssssssssssssssssssssscsssssscssssssccssscc" /><path
       style="fill:#00c116;fill-opacity:1;stroke-width:0.299402"
       d="m 7.4189829,12.134956 c -0.064422,-0.0092 -0.090411,-0.02024 -0.098682,-0.04179 -0.00381,-0.0099 -0.020278,-0.08714 -0.036588,-0.171554 C 7.2181399,11.582202 7.1325959,11.251874 7.0839282,11.15015 7.0449062,11.06859 7.0452002,11.06888 6.8840099,10.952188 6.591739,10.740605 6.3201261,10.606714 6.1497729,10.590246 c -0.037522,-0.0036 -0.082551,-0.0089 -0.1000646,-0.01176 -0.04414,-0.0072 -0.09155,0.01299 -0.09155,0.0389 0,0.01035 -0.00538,0.02328 -0.01194,0.02873 -0.00657,0.0055 -0.011941,0.01862 -0.011941,0.02925 0,0.02405 -0.032324,0.08206 -0.045775,0.08214 -0.0057,3.5e-5 -0.00995,0.0101 -0.00995,0.02357 0,0.03199 -0.014727,0.0619 -0.032814,0.06662 -0.010608,0.0028 -0.014952,0.01114 -0.014952,0.02881 0,0.02001 -0.00546,0.02812 -0.027863,0.04134 -0.015327,0.0091 -0.027862,0.02169 -0.027862,0.02811 0,0.01509 -0.077014,0.09025 -0.092476,0.09025 -0.00649,0 -0.023041,0.0058 -0.036776,0.01291 -0.034229,0.0177 -0.1061134,0.01052 -0.15978,-0.01596 -0.1730259,-0.08539 -0.3366398,-0.342812 -0.3721225,-0.58548 -0.013171,-0.09008 -0.00475,-0.211356 0.020578,-0.296408 0.024432,-0.08204 0.039285,-0.102921 0.08403,-0.118143 0.019305,-0.0066 0.039832,-0.01641 0.04561,-0.02188 0.014461,-0.01368 0.045322,-0.02052 0.070691,-0.015667 0.011659,0.0022 0.029051,4.785e-4 0.038651,-0.00389 0.012398,-0.00566 0.022932,-0.00499 0.036371,0.00228 0.016889,0.00916 0.049194,0.013172 0.1215719,0.015109 0.012674,3.29e-4 0.032377,0.0054 0.043785,0.01131 0.011407,0.0059 0.034285,0.01652 0.05084,0.02364 0.016554,0.0071 0.032163,0.01832 0.034685,0.0249 0.0026,0.0068 0.014437,0.01196 0.027233,0.01196 0.014976,0 0.031542,0.0089 0.048904,0.02618 0.01444,0.0144 0.036161,0.03047 0.048266,0.0357 0.012105,0.0052 0.026084,0.01847 0.031062,0.0294 0.00498,0.01093 0.015877,0.02203 0.024222,0.02468 0.00834,0.0026 0.018458,0.01346 0.022479,0.02404 0.00402,0.01057 0.010979,0.01923 0.015465,0.01923 0.00449,0 0.00817,0.0045 0.00818,0.0099 3.47e-5,0.01504 0.1021892,0.119154 0.1113532,0.11349 0.00852,-0.0052 -0.00922,-0.04675 -0.023862,-0.05581 -0.00447,-0.0028 -0.015353,-0.01821 -0.024179,-0.03434 -0.05336,-0.09747 -0.063333,-0.117849 -0.063333,-0.129423 0,-0.0071 -0.00749,-0.01964 -0.016656,-0.02793 -0.012677,-0.01147 -0.01565,-0.02128 -0.012444,-0.04104 0.00297,-0.01829 0.00111,-0.02596 -0.00626,-0.02596 -0.00714,0 -0.013443,-0.02213 -0.019824,-0.069658 -0.014997,-0.111716 -0.015823,-0.137928 -0.00629,-0.1994959 0.010934,-0.070627 0.040008,-0.1097797 0.103476,-0.1393439 0.076955,-0.035846 0.1173746,-0.041356 0.2963326,-0.040396 0.1931787,0.00105 0.301132,0.016491 0.4401476,0.063008 0.1184716,0.039643 0.1845984,0.07695 0.2568207,0.1448919 0.056471,0.053121 0.063249,0.062776 0.072211,0.1028258 0.00769,0.034394 0.0078,0.051996 4.79e-4,0.079356 -0.00517,0.019336 -0.0094,0.050432 -0.0094,0.0691 0,0.02409 -0.00462,0.03789 -0.015922,0.04758 -0.00876,0.0075 -0.015922,0.02262 -0.015922,0.03362 0,0.02031 -0.019162,0.04526 -0.041276,0.05374 -0.00671,0.0025 -0.014491,0.01902 -0.017297,0.03657 -0.00428,0.02678 -0.00871,0.03269 -0.027602,0.03684 -0.016497,0.0036 -0.026273,0.01348 -0.036628,0.03695 -0.00882,0.01999 -0.022054,0.03501 -0.035221,0.03998 -0.031226,0.01179 -0.064881,0.04714 -0.064881,0.06815 0,0.02163 -0.024093,0.0254 -0.039971,0.0063 -0.009,-0.01084 -0.011662,-0.0107 -0.024856,0.0013 -0.00812,0.0074 -0.014781,0.02027 -0.014781,0.02869 0,0.01293 -0.00378,0.01449 -0.02421,0.01 -0.027656,-0.0061 -0.047439,0.006 -0.047439,0.02906 0,0.01256 -0.00369,0.01413 -0.021892,0.0094 -0.046101,-0.01208 -0.06098,-0.0082 -0.06623,0.01737 -0.00399,0.01942 -0.00605,0.02128 -0.010991,0.0099 -0.00397,-0.0091 -0.014779,-0.01387 -0.031104,-0.01376 l -0.025021,1.77e-4 0.019902,0.01552 c 0.010946,0.0085 0.09155,0.05209 0.1791203,0.09677 0.08757,0.04468 0.1968331,0.104488 0.2428072,0.132894 0.152754,0.09438 0.2134051,0.11496 0.2477388,0.08406 0.059885,-0.05391 0.1626725,-0.268426 0.2323066,-0.484837 0.063897,-0.19858 0.087075,-0.326023 0.085422,-0.4696931 -0.00167,-0.1458085 -0.00249,-0.1505897 -0.030382,-0.1823745 -0.029694,-0.033821 -0.036812,-0.06609 -0.031801,-0.1441878 0.00419,-0.065391 0.01697,-0.091576 0.0564,-0.115618 0.036931,-0.022518 0.049575,-0.019698 0.092756,0.020694 l 0.03877,0.036266 0.013479,-0.046217 c 0.036739,-0.1259809 0.07632,-0.3364126 0.077404,-0.411517 0.00123,-0.084927 -0.00773,-0.099232 -0.087512,-0.1398537 C 7.5100058,8.877463 7.4740378,8.851425 7.4310484,8.809512 7.3982844,8.777569 7.3687294,8.751433 7.3653704,8.751433 c -0.00336,0 -0.0061,0.013794 -0.0061,0.030649 0,0.042726 -0.037784,0.093205 -0.085594,0.1143539 -0.047515,0.021018 -0.1093,0.015973 -0.2135991,-0.017434 -0.098833,-0.031685 -0.1746867,-0.042261 -0.2341883,-0.032678 -0.055365,0.00892 -0.07131,0.016725 -0.1683503,0.082455 -0.1286227,0.087122 -0.2464422,0.1256713 -0.299784,0.098087 -0.030932,-0.015997 -0.044934,-0.042052 -0.061327,-0.1141243 -0.019371,-0.085173 -0.05467,-0.1113048 -0.095369,-0.070606 -0.010494,0.010494 -0.024919,0.040048 -0.03206,0.065678 -0.00714,0.025629 -0.01815,0.065256 -0.02447,0.088059 C 6.1283547,9.0542406 6.0511307,9.165673 5.961592,9.2598413 5.7750705,9.4560074 5.6435064,9.5036389 5.5874754,9.3952868 c -0.00666,-0.012889 -0.019393,-0.052658 -0.028282,-0.08838 -0.023173,-0.09311 -0.0332,-0.1096874 -0.066339,-0.1096874 -0.03875,0 -0.074892,0.045053 -0.1035365,0.1290666 C 5.3048019,9.5741461 5.2448377,9.6827056 5.0870439,9.8735151 4.9585291,10.028944 4.893729,10.079174 4.811567,10.087069 c -0.03286,0.0031 -0.04027,6.89e-4 -0.066184,-0.02207 C 4.716548,10.039689 4.705082,10.012209 4.676586,9.9001339 4.665457,9.8563719 4.634575,9.8205499 4.59967,9.8109089 4.548321,9.7967309 4.538127,9.8078689 4.4654215,9.9571588 4.3856235,10.121049 4.3435283,10.176823 4.2714826,10.214118 c -0.062456,0.03233 -0.1153793,0.03487 -0.1685169,0.008 -0.050865,-0.02565 -0.06889,-0.06283 -0.078322,-0.161581 -0.00416,-0.04358 -0.01171,-0.089976 -0.016772,-0.103104 -0.03162,-0.082002 -0.088547,-0.066183 -0.1397623,0.038849 -0.037337,0.076566 -0.08651,0.131173 -0.148293,0.164669 -0.049139,0.02664 -0.052742,0.02733 -0.1421797,0.02733 -0.082535,0 -0.095744,-0.002 -0.1313548,-0.0202 -0.047966,-0.02448 -0.067425,-0.05802 -0.067443,-0.116241 -8.6e-6,-0.02842 -0.00466,-0.04665 -0.015236,-0.059707 -0.014036,-0.017324 -0.021036,-0.018795 -0.089725,-0.018795 -0.083298,0 -0.099416,-0.00744 -0.1425554,-0.066141 -0.076682,-0.1042716 -0.075137,-0.2171608 0.00516,-0.3766002 0.015072,-0.029931 0.027404,-0.063349 0.027404,-0.074263 0,-0.013542 -0.015473,-0.035729 -0.048715,-0.069857 -0.064865,-0.066591 -0.078267,-0.09705 -0.078487,-0.178377 C 3.0364919,9.1367403 3.0495079,9.089565 3.0806812,9.0486969 3.1120599,9.0075573 3.1475806,8.9844819 3.2447313,8.942126 3.3567077,8.89335 3.3824933,8.8690521 3.3767167,8.8178022 3.3711197,8.7681842 3.3430332,8.7308187 3.2521813,8.6521478 3.1511308,8.5646462 3.1270873,8.5224721 3.1349876,8.4465796 c 0.013291,-0.1276866 0.1074467,-0.223 0.2756849,-0.279077 0.099632,-0.033209 0.1732885,-0.040201 0.2700825,-0.025638 0.1033676,0.015554 0.1304905,0.015608 0.1818064,3.592e-4 0.05272,-0.015647 0.074163,-0.04132 0.065733,-0.078694 C 3.9201444,8.0274128 3.8834714,7.9645578 3.827995,7.8916434 3.775073,7.8220864 3.760951,7.7922614 3.760951,7.7500479 c 0,-0.1229133 0.1041899,-0.2277528 0.2587295,-0.260343 0.1338645,-0.028231 0.4287218,-7.784e-4 0.6118867,0.056988 0.035634,0.011236 0.1060015,0.041842 0.1563717,0.068015 0.103859,0.053964 0.1531133,0.065058 0.1878343,0.042308 0.018228,-0.011943 0.020458,-0.017794 0.016898,-0.044328 -0.00227,-0.016962 -0.022638,-0.061259 -0.045748,-0.099519 -0.047734,-0.079027 -0.06356,-0.1245297 -0.063311,-0.182043 2.23e-4,-0.051736 0.021479,-0.098325 0.063434,-0.139042 0.089927,-0.087271 0.2493414,-0.088668 0.4756028,-0.00417 0.1466354,0.054763 0.2098799,0.092363 0.4001741,0.2379131 0.1114827,0.085269 0.2000541,0.1341764 0.2356238,0.1301064 0.030451,-0.00348 0.03928,-0.023781 0.054437,-0.1251485 0.013389,-0.089552 0.033408,-0.1357555 0.070781,-0.163369 0.034954,-0.025827 0.1431966,-0.023434 0.2105818,0.00466 0.082318,0.034314 0.1349378,0.070268 0.2179937,0.1489495 0.085956,0.08143 0.156178,0.1697891 0.2169255,0.2729555 0.1046919,0.1777972 0.1477929,0.23032 0.2428746,0.2959679 0.1117356,0.077146 0.2203844,0.2459228 0.2570156,0.3992522 0.00941,0.039406 0.024542,0.082395 0.03362,0.095531 l 0.016503,0.023884 0.00428,-0.065753 c 0.00515,-0.079198 0.020719,-0.1016488 0.069591,-0.1003674 0.036561,9.554e-4 0.1031641,0.033689 0.1444459,0.070985 C 7.653185,8.4637926 7.649193,8.4264746 7.574457,8.1981408 7.548658,8.1193258 7.511417,8.0040786 7.491697,7.9420338 7.4563282,7.8307551 7.3509355,7.5717141 7.2993668,7.4693123 7.284801,7.4403901 7.2567856,7.400884 7.2371082,7.3815234 7.2034095,7.3483655 7.1863682,7.3370373 7.0692065,7.2699099 7.0432126,7.2550177 6.9836914,7.2061112 6.9369385,7.1612315 c -0.046753,-0.04488 -0.090603,-0.081599 -0.097446,-0.081599 -0.00684,0 -0.019739,0.00928 -0.028659,0.020617 -0.041394,0.052624 -0.1264659,0.066224 -0.1963649,0.031392 C 6.592792,7.1208388 6.5232367,7.070642 6.4599009,7.0200919 6.3406625,6.9249206 6.2571695,6.875752 6.1492201,6.8371304 6.0635791,6.8064897 5.9181886,6.7723041 5.7923458,6.7532185 5.6188202,6.7269007 5.4558194,6.6818415 5.3627362,6.6344588 5.2522817,6.5782334 5.2068864,6.4793271 5.2503383,6.3895675 c 0.021149,-0.043693 0.067884,-0.084006 0.1386156,-0.1195755 0.065138,-0.032757 0.08359,-0.047428 0.08359,-0.066469 0,-0.033725 -0.118415,-0.1044523 -0.1990225,-0.1188725 -0.024081,-0.00431 -0.097779,-0.011386 -0.163771,-0.015728 C 4.9151212,6.0561151 4.7606819,6.0199924 4.6612483,5.9640187 4.5561447,5.9048528 4.4458962,5.8063655 4.4033078,5.7335944 4.3574834,5.6552948 4.3696489,5.5661911 4.4357256,5.4961386 4.464989,5.465115 4.4972393,5.4443097 4.5795029,5.4033845 4.7177018,5.3346327 4.7408243,5.301292 4.6836646,5.2531952 4.640714,5.2170548 4.5766799,5.1936125 4.441607,5.1645813 4.2114489,5.115113 4.1287125,5.0913798 4.041979,5.0499482 3.8983612,4.9813436 3.830608,4.897911 3.830608,4.7896623 c 0,-0.1089942 0.07704,-0.1875661 0.2328564,-0.2374875 0.090117,-0.028872 0.1194135,-0.044596 0.1194135,-0.064089 0,-0.024424 -0.031623,-0.04967 -0.1252866,-0.1000178 C 3.824167,4.2625923 3.6961191,4.1349739 3.6961299,4.0278191 3.6961406,3.9221133 3.7458039,3.8800538 3.918473,3.8395158 3.96307,3.8290458 3.995555,3.8167648 4.004344,3.8070528 4.017478,3.7925408 4.017581,3.7896058 4.005814,3.7657318 3.998834,3.7515978 3.962266,3.7029308 3.924542,3.6575832 3.84545,3.5625092 3.824652,3.526097 3.824652,3.4826945 c 0,-0.036056 0.018698,-0.063616 0.060821,-0.089649 C 3.914,3.3754145 3.914159,3.3750075 3.909664,3.3314615 3.898772,3.225922 3.96661,3.1825095 4.1042576,3.2069329 c 0.079059,0.014028 0.1000545,0.010675 0.1588457,-0.025365 0.105512,-0.064681 0.1750796,-0.038603 0.2711304,0.1016348 0.042719,0.062371 0.051666,0.071253 0.069659,0.069154 0.017458,-0.00204 0.024054,-0.011012 0.042716,-0.058133 0.026234,-0.066235 0.071037,-0.1134812 0.1283899,-0.1353843 0.033612,-0.012836 0.045477,-0.013641 0.08964,-0.00608 0.1391706,0.023839 0.2621043,0.1303433 0.3475886,0.3011363 0.052803,0.1054977 0.067193,0.1032268 0.1542294,-0.024341 0.1077231,-0.1578869 0.1455038,-0.1831795 0.2732796,-0.1829514 0.073192,1.307e-4 0.089036,0.00271 0.1273746,0.020778 0.060611,0.028557 0.1120638,0.076811 0.1376749,0.1291156 0.011902,0.024305 0.033996,0.090048 0.049102,0.1460957 0.015105,0.056048 0.031878,0.1144442 0.037273,0.129769 0.00677,0.019233 0.010174,0.098142 0.010982,0.2547487 0.0012,0.2311847 0.00465,0.2758322 0.025395,0.3280869 0.023129,0.058262 0.048815,0.049225 0.165481,-0.058222 0.089033,-0.081998 0.1397581,-0.1100309 0.2107424,-0.1164675 0.037574,-0.00341 0.053591,-8.455e-4 0.082617,0.013204 0.1052838,0.050967 0.1650921,0.1910048 0.1651463,0.3866817 3.68e-5,0.1322513 -0.012456,0.1956923 -0.073678,0.3741623 -0.0447,0.1303069 -0.049489,0.1506761 -0.052838,0.2247125 -0.00302,0.06669 -0.00132,0.085049 0.00948,0.1015015 0.025662,0.039165 0.061515,0.020829 0.1122997,-0.057434 0.03028,-0.046664 0.089483,-0.074975 0.1672151,-0.079964 0.032179,-0.00206 0.067661,-0.00145 0.078848,0.00135 0.032708,0.00821 0.072957,0.049293 0.092267,0.09418 0.028752,0.066833 0.028661,0.1396336 -4.791e-4,0.4002898 -0.018833,0.1683941 -0.026027,0.2696417 -0.02659,0.3741622 -7.186e-4,0.1357067 7.185e-4,0.1500423 0.027093,0.2706705 0.025821,0.1180287 0.027853,0.1373042 0.027715,0.2627097 l -1.492e-4,0.1353353 -0.037665,0.1106811 c -0.045046,0.1323696 -0.046468,0.1533902 -0.012958,0.191556 0.027189,0.030965 0.062001,0.040359 0.047221,0.012741 -0.016988,-0.03174 -0.00401,-0.1152076 0.023602,-0.1517804 0.012854,-0.017026 0.020698,-0.019666 0.05427,-0.018268 l 0.039245,0.00163 0.00386,-0.085224 c 0.00408,-0.09019 0.016982,-0.1359889 0.051464,-0.1826831 0.010482,-0.014196 0.027994,-0.028054 0.038913,-0.030794 0.031206,-0.00783 0.1150677,0.038135 0.1761049,0.096529 l 0.052949,0.050656 0.023075,-0.019417 c 0.037182,-0.031287 0.071667,-0.025308 0.1356268,0.023513 0.020692,0.015795 0.03922,0.028718 0.041173,0.028718 0.00194,0 0.00572,-0.011643 0.00837,-0.025873 0.00319,-0.017106 -0.00475,-0.063506 -0.02344,-0.1369469 -0.05154,-0.2025522 -0.055577,-0.3110805 -0.017493,-0.470064 0.067074,-0.2800022 0.062872,-0.2520964 0.058127,-0.3861036 -0.0044,-0.1243355 -0.00986,-0.1574664 -0.065579,-0.3980449 -0.018581,-0.080225 -0.020686,-0.1028762 -0.017021,-0.1831007 0.01097,-0.2402098 0.087609,-0.3741622 0.2140736,-0.3741622 0.051935,0 0.091144,0.016187 0.1737436,0.071726 0.039979,0.026882 0.084994,0.050873 0.1000323,0.053314 0.023773,0.00386 0.030814,7.574e-4 0.05391,-0.023732 0.04056,-0.043006 0.057914,-0.111574 0.085075,-0.336155 0.039704,-0.3282778 0.07039,-0.4868695 0.124766,-0.6448327 0.052991,-0.1539393 0.1353075,-0.2770411 0.2255464,-0.3373005 0.080819,-0.053969 0.1381252,-0.060276 0.2120823,-0.023339 0.049433,0.024688 0.085615,0.06553 0.1697013,0.1915608 0.1059724,0.1588324 0.1399416,0.1727883 0.2144747,0.088114 0.032922,-0.037404 0.074655,-0.1050276 0.1244377,-0.2016468 0.046594,-0.090425 0.1518766,-0.1930823 0.2456136,-0.2394823 0.06981,-0.034556 0.072448,-0.035169 0.1512569,-0.035169 0.067578,0 0.085402,0.00278 0.1131879,0.017637 0.048674,0.02603 0.086414,0.075117 0.1110472,0.1444234 0.051743,0.1455792 0.062607,0.1603555 0.1179419,0.1603555 0.04232,0 0.086,-0.022408 0.15111,-0.077523 0.135862,-0.1150106 0.176631,-0.1451661 0.230158,-0.1702375 0.05124,-0.023999 0.06464,-0.026852 0.126218,-0.02687 0.06509,-1.95e-5 0.07058,0.00134 0.09951,0.024574 0.01684,0.013527 0.03922,0.039996 0.04973,0.058821 0.01789,0.032021 0.01902,0.041392 0.01765,0.145442 -0.002,0.15445 0.0047,0.1599514 0.11049,0.089586 0.07604,-0.050603 0.11352,-0.064087 0.155987,-0.056121 0.03842,0.00721 0.06278,0.034348 0.08966,0.099898 l 0.02122,0.051746 0.07157,0.035824 c 0.08248,0.041287 0.107062,0.072319 0.107215,0.1353353 1.86e-4,0.0772 -0.02148,0.1116389 -0.121821,0.1936071 -0.05356,0.043759 -0.05116,0.059234 0.01933,0.1243404 0.03111,0.028729 0.06155,0.061908 0.06767,0.073732 0.02541,0.049129 0.0016,0.1319851 -0.05628,0.1960833 -0.04418,0.048894 -0.0811,0.062817 -0.193552,0.072985 -0.140616,0.012714 -0.192818,0.034417 -0.192818,0.080165 0,0.017464 0.01042,0.03026 0.0509,0.062465 0.08254,0.065684 0.137873,0.1303787 0.151903,0.1776209 0.01991,0.067039 0.0046,0.1176824 -0.05067,0.167615 -0.04146,0.037459 -0.0816,0.057522 -0.153539,0.076765 -0.09875,0.026412 -0.169958,0.032864 -0.388742,0.035229 -0.191411,0.00207 -0.215744,0.00388 -0.263337,0.019568 -0.07435,0.024514 -0.106184,0.047656 -0.109278,0.079449 -0.0036,0.037458 0.01924,0.063752 0.09425,0.1083384 0.08596,0.051085 0.117034,0.079276 0.128097,0.1162009 0.02663,0.088877 -0.03694,0.1926982 -0.163255,0.266633 -0.05093,0.029813 -0.1840839,0.08023 -0.2882532,0.1091476 -0.093806,0.02604 -0.096381,0.026293 -0.2619159,0.025747 -0.1199855,-3.952e-4 -0.1879671,-0.00433 -0.2408207,-0.013932 -0.1366057,-0.02482 -0.2238436,-0.014836 -0.2524991,0.028897 -0.02927,0.04467 0.010628,0.089607 0.1362346,0.1534476 0.1310281,0.066595 0.185385,0.1296144 0.185751,0.2153522 C 9.3577641,6.3091339 9.2333222,6.3953612 8.9959079,6.451436 8.833954,6.4896875 8.7447167,6.5189915 8.6580281,6.562389 8.5496508,6.6166444 8.467615,6.679324 8.3285404,6.8141335 8.1484799,6.9886721 8.0630895,7.0411699 7.9563695,7.0429433 c -0.028461,4.73e-4 -0.063504,-0.0041 -0.077874,-0.010162 -0.014371,-0.00606 -0.027258,-0.00965 -0.028638,-0.00796 -0.057101,0.069688 -0.1945084,0.2615292 -0.210033,0.2932391 -0.038989,0.079636 -0.033765,0.1712514 0.022866,0.4010072 0.058005,0.2353366 0.1649501,0.5278237 0.2381779,0.6514004 0.041103,0.069363 0.073981,0.097428 0.1065144,0.090921 C 8.0460678,8.453649 8.0941458,8.427493 8.1732179,8.37116 8.2137662,8.3422694 8.3150072,8.2721653 8.3981988,8.2153714 8.899502,7.8731366 8.9556121,7.8374288 9.3288914,7.6230819 9.5823239,7.4775552 9.5977114,7.4681822 9.6420892,7.4323066 c 0.028907,-0.023365 0.033836,-0.031692 0.033836,-0.05714 0,-0.030546 -0.03343,-0.095153 -0.078772,-0.1522461 -0.028425,-0.03579 -0.080446,-0.1509771 -0.080446,-0.1781319 0,-0.01149 -0.00355,-0.020891 -0.00795,-0.020891 -0.0044,0 -0.00795,-0.018148 -0.00795,-0.040328 0,-0.02218 -0.00397,-0.047785 -0.00887,-0.0569 -0.00659,-0.012276 -0.00643,-0.024721 5.394e-4,-0.048001 0.00795,-0.026484 0.00744,-0.0336 -0.00304,-0.045228 -0.015962,-0.017639 -0.015717,-0.028496 0.00127,-0.057256 0.01127,-0.01907 0.01198,-0.026116 0.00397,-0.038935 -0.012826,-0.020543 -0.012403,-0.048308 0.00101,-0.067831 0.00592,-0.00864 0.01324,-0.028944 0.016199,-0.045126 0.00634,-0.034378 0.063241,-0.089798 0.1007215,-0.09803 0.01844,-0.00405 0.031257,-0.018471 0.062776,-0.070663 0.091048,-0.1507209 0.2572101,-0.3489272 0.3768189,-0.4494788 0.174114,-0.1463714 0.364352,-0.2405834 0.535881,-0.2653839 0.08014,-0.011588 0.179749,-0.00174 0.254127,0.025126 0.106507,0.03847 0.10126,0.038265 0.148561,0.00578 0.06121,-0.042032 0.08747,-0.045418 0.11771,-0.015179 0.02375,0.02375 0.02393,0.02457 0.01268,0.056455 -0.0063,0.017795 -0.02056,0.045816 -0.03174,0.062269 -0.02576,0.037908 -0.0255,0.044631 0.0036,0.08985 0.04226,0.065846 0.05703,0.1213088 0.06154,0.2309204 0.0063,0.1529142 -0.02642,0.2859934 -0.116441,0.4736734 -0.105477,0.2199141 -0.22837,0.378829 -0.407955,0.5275341 -0.03785,0.031343 -0.07695,0.070558 -0.08687,0.087143 -0.02553,0.042654 -0.04794,0.065979 -0.06339,0.065979 -0.0073,0 -0.01978,0.00716 -0.02771,0.015922 -0.0089,0.00988 -0.02452,0.015922 -0.04104,0.015922 -0.01601,0 -0.03297,0.00635 -0.04255,0.015922 -0.0088,0.00876 -0.02229,0.015922 -0.03007,0.015922 -0.0078,0 -0.02236,0.00575 -0.03239,0.012776 -0.01004,0.00703 -0.02784,0.015674 -0.03959,0.019218 -0.0448,0.013521 0.104686,0.0076 0.196298,-0.00777 0.135425,-0.022722 0.306069,-0.016815 0.399327,0.013829 0.01533,0.00504 0.03744,0.011069 0.04914,0.01341 0.0117,0.00233 0.03192,0.013213 0.04494,0.024158 0.01301,0.010946 0.02858,0.019904 0.03459,0.019904 0.01943,0 0.07036,0.03992 0.07036,0.055151 0,0.00937 0.0078,0.016724 0.02129,0.020114 0.02623,0.00659 0.058,0.035645 0.05818,0.053236 7.7e-5,0.00728 0.0091,0.015309 0.02029,0.018126 0.02259,0.00567 0.05142,0.04713 0.05147,0.074008 1.6e-5,0.0097 0.0075,0.021625 0.01662,0.026512 0.04302,0.023024 0.0502,0.136938 0.01266,0.2009918 -0.09141,0.1559776 -0.397688,0.2626826 -0.785538,0.2736766 -0.182596,0.00517 -0.22616,-2.799e-4 -0.301045,-0.0377 -0.07291,-0.036432 -0.0816,-0.051483 -0.09788,-0.1693732 -0.0061,-0.044202 -0.0052,-0.059091 0.0047,-0.079023 0.0068,-0.013509 0.01037,-0.030496 0.008,-0.03775 -0.0054,-0.017009 0.01498,-0.074713 0.03568,-0.1010254 0.0089,-0.011251 0.01609,-0.030799 0.01609,-0.043438 0,-0.016228 0.0053,-0.025422 0.01824,-0.03129 0.01003,-0.00457 0.02167,-0.016137 0.02587,-0.025704 0.0042,-0.00957 0.01569,-0.020928 0.02555,-0.025252 0.0099,-0.00432 0.01792,-0.01374 0.01792,-0.020925 0,-0.012365 0.0699,-0.071654 0.09553,-0.081026 0.02514,-0.00919 -0.06294,-0.00503 -0.131355,0.00621 -0.03941,0.00648 -0.09722,0.011836 -0.128485,0.01191 C 9.8950381,7.5972885 9.6997096,7.656796 9.435056,7.7827312 8.8727382,8.050313 8.2529608,8.5383688 8.0417742,8.8798943 7.9985606,8.9497774 7.9900256,8.9776263 7.9126149,9.3013009 7.8434742,9.5903954 7.7937052,9.7761966 7.6945074,10.115552 c -0.039049,0.133586 -0.073389,0.25477 -0.076311,0.269296 l -0.00532,0.02641 0.038397,-0.04094 c 0.065413,-0.06974 0.1096146,-0.0904 0.1587501,-0.07418 0.032419,0.0107 0.049745,0.04013 0.056321,0.09565 0.00865,0.07301 0.021279,0.04563 0.029279,-0.06348 0.00827,-0.112806 0.098674,-0.237276 0.2833594,-0.3901351 0.128122,-0.106042 0.1809308,-0.1957789 0.279099,-0.4742631 0.052524,-0.1489993 0.085186,-0.2214016 0.1309013,-0.2901673 0.1456663,-0.2191132 0.3420456,-0.2105159 0.4529186,0.01983 0.037877,0.078682 0.058117,0.1071407 0.076202,0.1071407 0.032635,0 0.097291,-0.085649 0.2313777,-0.3064945 0.2108936,-0.3473492 0.344426,-0.5046017 0.4855127,-0.5717567 0.041918,-0.019952 0.06434,-0.02517 0.1194141,-0.027791 0.08015,-0.00381 0.1209917,0.00566 0.1664767,0.038609 0.04745,0.03437 0.08654,0.1000322 0.130592,0.2193496 0.04421,0.1197521 0.0637,0.1491986 0.09873,0.1491986 0.0418,0 0.0771,-0.030307 0.137977,-0.118465 0.111184,-0.161 0.297051,-0.3065613 0.437341,-0.3425018 0.06861,-0.017578 0.124111,-0.0064 0.163424,0.032913 0.03608,0.036079 0.04427,0.067416 0.0505,0.1931976 0.0046,0.092296 0.0073,0.107608 0.0207,0.1174233 0.03326,0.024294 0.05011,0.01488 0.154516,-0.086336 0.113275,-0.109812 0.172658,-0.1474714 0.244183,-0.1548534 0.08016,-0.00827 0.144309,0.031758 0.163177,0.1018257 0.0061,0.022701 0.0061,0.054398 -2.26e-4,0.1114111 -0.0048,0.043826 -0.0067,0.08632 -0.0041,0.09443 0.0069,0.02185 0.04543,0.034875 0.08387,0.02838 0.01808,-0.00305 0.05388,-0.00555 0.07956,-0.00555 0.114397,0 0.173274,0.094149 0.140029,0.2239189 -0.0169,0.065961 -0.04169,0.1104221 -0.108941,0.1953717 -0.07627,0.096347 -0.07459,0.1179686 0.01601,0.2069826 0.04819,0.04734 0.04837,0.047689 0.04837,0.093796 0,0.055102 -0.01549,0.095877 -0.05016,0.1320459 -0.03717,0.038777 -0.0751,0.055415 -0.177855,0.078007 -0.05043,0.01109 -0.103189,0.024964 -0.11724,0.030834 -0.0587,0.024527 -0.08773,0.080161 -0.06934,0.1329068 0.005,0.014255 0.02885,0.058659 0.05307,0.098692 0.05158,0.085256 0.06704,0.1309504 0.0668,0.1974884 -2.2e-4,0.06117 -0.01857,0.102361 -0.0643,0.144339 -0.05956,0.05468 -0.132654,0.08188 -0.268984,0.10009 -0.06579,0.0088 -0.225271,0.0066 -0.427986,-0.0059 -0.202502,-0.0125 -0.232512,0.02725 -0.118142,0.156443 0.09499,0.107301 0.129519,0.196256 0.107675,0.277379 -0.03449,0.128116 -0.247711,0.194541 -0.5627,0.175306 -0.171691,-0.01048 -0.315359,-0.04508 -0.5237594,-0.126112 -0.1401186,-0.05448 -0.1899099,-0.06995 -0.2552173,-0.0793 -0.091748,-0.01313 -0.1711329,0.01419 -0.1711329,0.05891 0,0.0093 0.023293,0.05061 0.05176,0.09172 0.067054,0.09685 0.085928,0.146451 0.082103,0.215805 -0.00237,0.0426 -0.0071,0.05815 -0.02506,0.08167 -0.032331,0.04238 -0.07758,0.06273 -0.148608,0.06682 -0.1182531,0.0068 -0.2115032,-0.02908 -0.434759,-0.167272 -0.1576785,-0.09761 -0.2564761,-0.148877 -0.3425796,-0.17778 -0.1449675,-0.04866 -0.2882379,-0.05661 -0.4167961,-0.02312 -0.1831066,0.04769 -0.3436875,0.02809 -0.3896355,-0.04757 -0.00807,-0.0133 -0.017171,-0.03941 -0.020209,-0.05803 -0.00304,-0.01861 -0.00811,-0.03384 -0.011261,-0.03384 -0.00315,0 -0.027024,0.01274 -0.053036,0.02831 -0.06924,0.04145 -0.1429084,0.117457 -0.1730672,0.178554 -0.024754,0.05015 -0.025482,0.05461 -0.02536,0.155238 1.156e-4,0.09462 0.00192,0.107437 0.020737,0.14782 0.013413,0.02877 0.033988,0.05518 0.058917,0.07563 0.062983,0.05165 0.098002,0.08945 0.1007386,0.108745 0.0014,0.01001 -5.988e-4,0.05999 -0.00447,0.111067 -0.00612,0.08055 -0.00472,0.106866 0.010548,0.19836 0.00968,0.05802 0.026724,0.139822 0.037874,0.181782 0.028865,0.108644 0.028614,0.111982 -0.00952,0.125834 -0.038185,0.01387 -0.2169077,0.02031 -0.2865923,0.01031 z"
       id="path1"
       sodipodi:nodetypes="cscssscssssscssssscssssccccsscssssccssscssscsssscssscsssssssssscssssssccsssssscssscssssssscsssssscsscsscsssssssscssscsssssscsssssssscsssssssssssssssssssssscsssssssssssscsssssssssssssssssssssscsssssssscssssssssscssssssscsssscccscssssscsssscsssccssscssssssssssssssssssssscssscssssscssssssssssssssssscssssscsssssssssssssscscscssssssssssssssssssssscsscssssssscsssssssssssssssssssscssssssssssssssssssssssssssssssssssssssssssssssscsssssscssssssccssscc" /></g></svg>
