<?xml version="1.0" encoding="UTF-8" standalone="no"?>
<!-- Created with Inkscape (http://www.inkscape.org/) -->

<svg
   width="15mm"
   height="15mm"
   viewBox="0 0 15 15"
   version="1.1"
   id="svg1"
   inkscape:export-filename="fort.png"
   inkscape:export-xdpi="96"
   inkscape:export-ydpi="96"
   inkscape:version="1.3.2 (091e20e, 2023-11-25)"
   sodipodi:docname="neoearthworks.svg"
   xmlns:inkscape="http://www.inkscape.org/namespaces/inkscape"
   xmlns:sodipodi="http://sodipodi.sourceforge.net/DTD/sodipodi-0.dtd"
   xmlns="http://www.w3.org/2000/svg"
   xmlns:svg="http://www.w3.org/2000/svg">
  <sodipodi:namedview
     id="namedview1"
     pagecolor="#ffffff"
     bordercolor="#000000"
     borderopacity="0.25"
     inkscape:showpageshadow="2"
     inkscape:pageopacity="0.0"
     inkscape:pagecheckerboard="0"
     inkscape:deskcolor="#d1d1d1"
     inkscape:document-units="mm"
     showguides="false"
     inkscape:zoom="15.297866"
     inkscape:cx="27.585548"
     inkscape:cy="33.207247"
     inkscape:window-width="1792"
     inkscape:window-height="993"
     inkscape:window-x="992"
     inkscape:window-y="128"
     inkscape:window-maximized="0"
     inkscape:current-layer="layer1" />
  <defs
     id="defs1">
    <inkscape:perspective
       sodipodi:type="inkscape:persp3d"
       inkscape:vp_x="-0.86087388 : 12.46959 : 1"
       inkscape:vp_y="0 : 1000 : 0"
       inkscape:vp_z="15.743482 : 12.195676 : 1"
       inkscape:persp3d-origin="7.5 : 5 : 1"
       id="perspective1" />
  </defs>
  <g
     inkscape:label="Layer 1"
     inkscape:groupmode="layer"
     id="layer1">
    <g
       id="g7"
       transform="matrix(1.0061992,0,0,0.55017468,0.28092096,7.53123)"
       style="stroke:#87e477;stroke-opacity:1">
      <path
         sodipodi:type="spiral"
         style="fill:none;fill-rule:evenodd;stroke:#87e477;stroke-width:0.264583;stroke-opacity:1"
         id="path6"
         sodipodi:cx="5.9205756"
         sodipodi:cy="7.6121688"
         sodipodi:expansion="1"
         sodipodi:revolution="3"
         sodipodi:radius="6.0664616"
         sodipodi:argument="-18.543552"
         sodipodi:t0="0"
         d="M 5.9205756,7.6121688 C 6.2106085,7.7037979 5.9401534,8.0483339 5.768282,8.0942225 5.3025212,8.2185779 4.9573583,7.7186241 4.9564681,7.3075816 4.9548759,6.5723231 5.6977111,6.0999341 6.3774564,6.1660076 7.3750098,6.2629731 7.9898244,7.2764961 7.8487906,8.2213431 7.6608146,9.4806756 6.3679565,10.241613 5.1591077,10.022437 3.6378949,9.7466272 2.7293358,8.1707769 3.0282532,6.6984073 3.3902823,4.9151704 5.2510023,3.8582155 6.9866307,4.2377926 9.0320086,4.6851111 10.237817,6.8317923 9.7770055,8.8305174 9.2449801,11.138125 6.811647,12.493082 4.5499334,11.950652 1.9800306,11.334309 0.47572118,8.6138588 1.1000383,6.089233 1.8004277,3.2569844 4.8083231,1.6031782 7.595805,2.3095777 c 3.094633,0.7842373 4.898044,4.0798186 4.109415,7.130114"
         transform="translate(1.2686948,0.48331232)" />
      <path
         style="fill:none;fill-opacity:0.462151;stroke:#87e477;stroke-width:0.265;stroke-dasharray:none;stroke-opacity:1"
         d="m 7.2043741,8.0803778 c 0,0 -0.3171735,-0.090621 -0.1510351,-0.5286214 C 7.2194775,7.1137542 8.1974266,7.480036 8.1256881,8.1256894 8.2314138,9.0167963 7.6577226,9.514636 7.1892707,9.5152121 6.8124212,9.5156755 5.8299549,9.5001088 5.3768495,8.2616208 5.210711,7.5517559 5.2467078,6.9522824 5.8601618,6.283061 6.0263005,6.1018191 6.84948,5.4473384 7.8991357,5.6789208 c 1.1458539,0.2528063 2.3854073,1.7416026 2.2353193,2.5827 -0.07574,0.424435 0.135242,1.3842055 -0.9666246,2.2806302 -0.816153,0.663982 -2.385472,1.599787 -3.9269124,0.453105 C 4.0024301,10.074042 3.14153,8.8959682 3.2774618,7.5215488 3.4133933,6.1471295 3.8226764,5.4027476 4.4102249,4.8935384 4.6367776,4.6971925 5.5162284,3.992034 6.5549233,3.7607751 7.2598145,3.6038355 9.3943832,3.851396 9.9834199,4.3347084 c 1.1050451,0.9067037 1.8808981,2.2816699 1.9936631,3.0207018 0.13537,0.887175 0.196346,1.4197301 0.0151,2.2655265"
         id="path7"
         sodipodi:nodetypes="cscscssssssssssc" />
    </g>
    <g
       id="g4"
       transform="matrix(1.0061992,0,0,0.55017468,-0.0822833,7.5139346)"
       style="stroke:#5fa154;stroke-opacity:1">
      <path
         sodipodi:type="spiral"
         style="fill:none;fill-rule:evenodd;stroke:#5fa154;stroke-width:0.264583;stroke-opacity:1"
         id="path3"
         sodipodi:cx="5.9205756"
         sodipodi:cy="7.6121688"
         sodipodi:expansion="1"
         sodipodi:revolution="3"
         sodipodi:radius="6.0664616"
         sodipodi:argument="-18.543552"
         sodipodi:t0="0"
         d="M 5.9205756,7.6121688 C 6.2106085,7.7037979 5.9401534,8.0483339 5.768282,8.0942225 5.3025212,8.2185779 4.9573583,7.7186241 4.9564681,7.3075816 4.9548759,6.5723231 5.6977111,6.0999341 6.3774564,6.1660076 7.3750098,6.2629731 7.9898244,7.2764961 7.8487906,8.2213431 7.6608146,9.4806756 6.3679565,10.241613 5.1591077,10.022437 3.6378949,9.7466272 2.7293358,8.1707769 3.0282532,6.6984073 3.3902823,4.9151704 5.2510023,3.8582155 6.9866307,4.2377926 9.0320086,4.6851111 10.237817,6.8317923 9.7770055,8.8305174 9.2449801,11.138125 6.811647,12.493082 4.5499334,11.950652 1.9800306,11.334309 0.47572118,8.6138588 1.1000383,6.089233 1.8004277,3.2569844 4.8083231,1.6031782 7.595805,2.3095777 c 3.094633,0.7842373 4.898044,4.0798186 4.109415,7.130114"
         transform="translate(1.2686948,0.48331232)" />
      <path
         style="fill:none;fill-opacity:0.462151;stroke:#5fa154;stroke-width:0.265;stroke-dasharray:none;stroke-opacity:1"
         d="m 7.2043741,8.0803778 c 0,0 -0.3171735,-0.090621 -0.1510351,-0.5286214 C 7.2194775,7.1137542 8.1974266,7.480036 8.1256881,8.1256894 8.2314138,9.0167963 7.6577226,9.514636 7.1892707,9.5152121 6.8124212,9.5156755 5.8299549,9.5001088 5.3768495,8.2616208 5.210711,7.5517559 5.2467078,6.9522824 5.8601618,6.283061 6.0263005,6.1018191 6.84948,5.4473384 7.8991357,5.6789208 c 1.1458539,0.2528063 2.3854073,1.7416026 2.2353193,2.5827 -0.07574,0.424435 0.135242,1.3842055 -0.9666246,2.2806302 -0.816153,0.663982 -2.385472,1.599787 -3.9269124,0.453105 C 4.0024301,10.074042 3.14153,8.8959682 3.2774618,7.5215488 3.4133933,6.1471295 3.8226764,5.4027476 4.4102249,4.8935384 4.6367776,4.6971925 5.5162284,3.992034 6.5549233,3.7607751 7.2598145,3.6038355 9.3943832,3.851396 9.9834199,4.3347084 c 1.1050451,0.9067037 1.8808981,2.2816699 1.9936631,3.0207018 0.13537,0.887175 0.196346,1.4197301 0.0151,2.2655265"
         id="path4"
         sodipodi:nodetypes="cscscssssssssssc" />
    </g>
    <ellipse
       style="fill:#000000;fill-opacity:0.143426;stroke:#c00707;stroke-width:0.165;stroke-dasharray:none;stroke-opacity:0.27528089"
       id="path5"
       cx="7.4724536"
       cy="11.982809"
       rx="0.24757871"
       ry="0.26408395" />
    <g
       id="g2"
       transform="matrix(1.0061992,0,0,0.55017468,0.09067111,7.410162)">
      <path
         sodipodi:type="spiral"
         style="fill:none;fill-rule:evenodd;stroke:#000000;stroke-width:0.264583"
         id="path1"
         sodipodi:cx="5.9205756"
         sodipodi:cy="7.6121688"
         sodipodi:expansion="1"
         sodipodi:revolution="3"
         sodipodi:radius="6.0664616"
         sodipodi:argument="-18.543552"
         sodipodi:t0="0"
         d="M 5.9205756,7.6121688 C 6.2106085,7.7037979 5.9401534,8.0483339 5.768282,8.0942225 5.3025212,8.2185779 4.9573583,7.7186241 4.9564681,7.3075816 4.9548759,6.5723231 5.6977111,6.0999341 6.3774564,6.1660076 7.3750098,6.2629731 7.9898244,7.2764961 7.8487906,8.2213431 7.6608146,9.4806756 6.3679565,10.241613 5.1591077,10.022437 3.6378949,9.7466272 2.7293358,8.1707769 3.0282532,6.6984073 3.3902823,4.9151704 5.2510023,3.8582155 6.9866307,4.2377926 9.0320086,4.6851111 10.237817,6.8317923 9.7770055,8.8305174 9.2449801,11.138125 6.811647,12.493082 4.5499334,11.950652 1.9800306,11.334309 0.47572118,8.6138588 1.1000383,6.089233 1.8004277,3.2569844 4.8083231,1.6031782 7.595805,2.3095777 c 3.094633,0.7842373 4.898044,4.0798186 4.109415,7.130114"
         transform="translate(1.2686948,0.48331232)" />
      <path
         style="fill:none;fill-opacity:0.462151;stroke:#000000;stroke-width:0.265;stroke-dasharray:none;stroke-opacity:1"
         d="m 7.2043741,8.0803778 c 0,0 -0.3171735,-0.090621 -0.1510351,-0.5286214 C 7.2194775,7.1137542 8.1974266,7.480036 8.1256881,8.1256894 8.2314138,9.0167963 7.6577226,9.514636 7.1892707,9.5152121 6.8124212,9.5156755 5.8299549,9.5001088 5.3768495,8.2616208 5.210711,7.5517559 5.2467078,6.9522824 5.8601618,6.283061 6.0263005,6.1018191 6.84948,5.4473384 7.8991357,5.6789208 c 1.1458539,0.2528063 2.3854073,1.7416026 2.2353193,2.5827 -0.07574,0.424435 0.135242,1.3842055 -0.9666246,2.2806302 -0.816153,0.663982 -2.385472,1.599787 -3.9269124,0.453105 C 4.0024301,10.074042 3.14153,8.8959682 3.2774618,7.5215488 3.4133933,6.1471295 3.8226764,5.4027476 4.4102249,4.8935384 4.6367776,4.6971925 5.5162284,3.992034 6.5549233,3.7607751 7.2598145,3.6038355 9.3943832,3.851396 9.9834199,4.3347084 c 1.1050451,0.9067037 1.8808981,2.2816699 1.9936631,3.0207018 0.13537,0.887175 0.196346,1.4197301 0.0151,2.2655265"
         id="path2"
         sodipodi:nodetypes="cscscssssssssssc" />
    </g>
  </g>
</svg>
