<?xml version="1.0" encoding="UTF-8" standalone="no"?>
<!-- Created with Inkscape (http://www.inkscape.org/) -->

<svg
   width="15mm"
   height="15mm"
   viewBox="0 0 15 15"
   version="1.1"
   id="svg1"
   inkscape:export-filename="nuraghe.png"
   inkscape:export-xdpi="96"
   inkscape:export-ydpi="96"
   inkscape:version="1.3.2 (091e20e, 2023-11-25)"
   sodipodi:docname="nuraghe.svg"
   xml:space="preserve"
   xmlns:inkscape="http://www.inkscape.org/namespaces/inkscape"
   xmlns:sodipodi="http://sodipodi.sourceforge.net/DTD/sodipodi-0.dtd"
   xmlns:xlink="http://www.w3.org/1999/xlink"
   xmlns="http://www.w3.org/2000/svg"
   xmlns:svg="http://www.w3.org/2000/svg"><sodipodi:namedview
     id="namedview1"
     pagecolor="#ffffff"
     bordercolor="#000000"
     borderopacity="0.25"
     inkscape:showpageshadow="2"
     inkscape:pageopacity="0.0"
     inkscape:pagecheckerboard="0"
     inkscape:deskcolor="#d1d1d1"
     inkscape:document-units="mm"
     showguides="false"
     inkscape:zoom="7.8318961"
     inkscape:cx="48.711065"
     inkscape:cy="37.538802"
     inkscape:window-width="1728"
     inkscape:window-height="993"
     inkscape:window-x="3440"
     inkscape:window-y="463"
     inkscape:window-maximized="0"
     inkscape:current-layer="layer1" /><defs
     id="defs1"><linearGradient
       id="linearGradient4"
       inkscape:collect="always"><stop
         style="stop-color:#cd6d29;stop-opacity:0.67394696;"
         offset="0"
         id="stop4" /><stop
         style="stop-color:#472409;stop-opacity:1;"
         offset="1"
         id="stop5" /></linearGradient><linearGradient
       id="linearGradient2"
       inkscape:collect="always"><stop
         style="stop-color:#f8bc89;stop-opacity:1;"
         offset="0"
         id="stop2" /><stop
         style="stop-color:#773313;stop-opacity:1;"
         offset="1"
         id="stop3" /></linearGradient><linearGradient
       inkscape:collect="always"
       xlink:href="#linearGradient2"
       id="linearGradient3"
       x1="13.573498"
       y1="9.1579974"
       x2="26.344378"
       y2="9.1579974"
       gradientUnits="userSpaceOnUse"
       gradientTransform="matrix(0.89947864,0,0,0.8577536,-10.527118,-0.30199049)" /><linearGradient
       inkscape:collect="always"
       xlink:href="#linearGradient4"
       id="linearGradient5"
       x1="14.263139"
       y1="9.4309168"
       x2="25.759874"
       y2="9.4309168"
       gradientUnits="userSpaceOnUse"
       gradientTransform="matrix(0.89947864,0,0,0.8577536,-10.527118,-0.30199049)" /><filter
       inkscape:collect="always"
       style="color-interpolation-filters:sRGB"
       id="filter6"
       x="-0.067289457"
       y="-0.19244586"
       width="1.1345789"
       height="1.3848917"><feGaussianBlur
         inkscape:collect="always"
         stdDeviation="0.32905721"
         id="feGaussianBlur6" /></filter></defs><g
     inkscape:label="Layer 1"
     inkscape:groupmode="layer"
     id="layer1"><path
       style="fill:#000000;fill-opacity:0.553822;stroke-width:0.544435;filter:url(#filter6)"
       d="m 2.8960238,12.51492 c -0.046824,-0.01608 -0.07594,-0.05231 -0.063813,-0.0794 0.018934,-0.0423 0.1547581,-0.09904 0.2685538,-0.112188 0.051804,-0.006 0.3032706,-0.02243 0.4512492,-0.02952 l 0.074239,-0.0036 0.1065876,-0.06836 c 0.058641,-0.03762 0.2593432,-0.16753 0.4460285,-0.288711 C 4.7838981,11.540451 5.5317427,11.058573 6.0719036,10.7134 6.239547,10.606269 6.5211655,10.425214 6.6977081,10.311058 6.8742544,10.196901 7.1557458,10.015847 7.3232519,9.9087151 7.4907552,9.8015833 7.7631409,9.6262769 7.9285471,9.5191452 8.5889827,9.0913861 9.291716,8.6494984 9.342993,8.629722 9.4563713,8.5859926 9.7085428,8.548211 10.076387,8.5198389 c 0.264919,-0.020433 0.286849,-0.020334 0.315104,0.00143 0.04064,0.031316 0.0305,0.05769 -0.05556,0.1450852 -0.07407,0.075182 -0.07699,0.080035 -0.04907,0.080035 0.01638,0 0.141437,-0.00699 0.277902,-0.015534 0.136469,-0.00854 0.288371,-0.017443 0.337559,-0.019775 l 0.08943,-0.00424 0.102288,-0.09359 c 0.118037,-0.1080239 0.157842,-0.1343676 0.245622,-0.1625686 l 0.06356,-0.020415 0.221929,-0.00376 c 0.122066,-0.00207 0.43968,-0.00351 0.705808,-0.0032 l 0.483874,5.632e-4 0.03229,0.026084 c 0.0411,0.0332 0.02579,0.067228 -0.07725,0.1718159 l -0.07797,0.079128 0.06141,0.00334 c 0.03378,0.00183 0.111123,0.00502 0.171882,0.00709 0.10819,0.00369 0.350013,0.01922 0.411333,0.026423 l 0.03097,0.00364 0.0904,-0.091698 c 0.09868,-0.100086 0.131928,-0.1199653 0.239587,-0.1432531 0.04741,-0.010256 0.06036,-0.00968 0.288701,0.01287 0.406513,0.040142 0.515425,0.059913 0.562076,0.1020331 0.02945,0.026595 0.03422,0.00984 -0.08454,0.2974832 -0.05148,0.1246942 -0.119224,0.294253 -0.150538,0.376797 -0.03132,0.082544 -0.06618,0.1701974 -0.07749,0.194785 -0.01131,0.024588 -0.05364,0.1237363 -0.09408,0.2203305 -0.07457,0.1781081 -0.110536,0.2662814 -0.385554,0.9451857 -0.08466,0.208994 -0.175979,0.430283 -0.202924,0.491752 -0.146957,0.335238 -0.304247,0.734495 -0.332107,0.843003 -0.01308,0.05093 -0.04366,0.138585 -0.06796,0.194785 l -0.0442,0.102183 0.144346,0.0077 c 0.179492,0.0096 0.240724,0.01762 0.293034,0.03841 0.08882,0.03532 0.06629,0.08596 -0.06094,0.136917 -0.04794,0.0192 -0.09964,0.03364 -0.15226,0.04252 l -0.07968,0.01345 -5.1608499,2.56e-4 c -5.0602969,2.51e-4 -5.1615466,1.7e-5 -5.1965058,-0.01198 z m 1.7885777,-0.25273 c 0.2229861,-0.0053 0.5968426,-0.01401 0.8308479,-0.01924 0.2340066,-0.0052 0.4321706,-0.01089 0.4403686,-0.01258 0.019583,-0.0041 0.1735838,-0.126828 0.2411522,-0.192304 0.059621,-0.05776 0.062111,-0.07771 0.011777,-0.09421 -0.043233,-0.01417 -0.1092596,-0.01356 -0.5687408,0.0053 -0.6350729,0.02604 -0.8542148,0.04195 -1.0385608,0.07539 -0.1749331,0.03174 -0.2410538,0.06089 -0.40678,0.179333 -0.1138774,0.08139 -0.1134097,0.0765 -0.00685,0.07196 0.050274,-0.0022 0.2737981,-0.0083 0.4967533,-0.01363 z m 7.9676235,-0.03842 c 0.04309,-0.0755 0.05337,-0.123075 0.03262,-0.151055 -0.03275,-0.04415 -0.239321,-0.08399 -0.540776,-0.104285 -0.201089,-0.01353 -0.286008,-0.01273 -0.342676,0.0033 -0.08076,0.02279 -0.08643,0.02801 -0.20025,0.184669 -0.06544,0.09006 -0.07066,0.08754 0.193245,0.09286 0.121475,0.0024 0.337145,0.0081 0.479256,0.01258 0.142124,0.0044 0.279288,0.0085 0.304812,0.009 l 0.04645,8.24e-4 z m -1.542516,-3.88e-4 c 0.02428,-0.0082 0.04499,-0.0292 0.114948,-0.116552 0.04692,-0.05861 0.08527,-0.115179 0.08525,-0.125716 -2e-5,-0.02267 -0.03831,-0.0518 -0.08499,-0.06468 -0.03256,-0.009 -0.344372,-0.02166 -0.774018,-0.03147 l -0.188052,-0.0043 0.188988,-0.202044 c 0.265021,-0.283341 0.321051,-0.368992 0.320207,-0.489451 -8.5e-4,-0.121041 -0.168087,-0.243482 -0.425477,-0.311523 -0.12712,-0.0336 -0.218484,-0.04632 -0.4046004,-0.05632 -0.3794366,-0.02038 -0.9199098,0.0529 -1.3654317,0.185132 -0.27976,0.08303 -0.4619586,0.164723 -0.6639657,0.297693 l -0.097011,0.06386 -0.068328,0.0014 c -0.3724821,0.0077 -0.9583453,0.03323 -1.073491,0.04688 -0.061135,0.0073 -0.1449066,0.03188 -0.2107822,0.06198 -0.055661,0.02544 -0.2819875,0.194967 -0.2970999,0.222549 -0.021367,0.03897 0.00389,0.04345 0.1976931,0.03508 0.2472552,-0.0107 0.9287135,-0.0326 1.0140453,-0.0326 h 0.072657 l -0.049981,0.0495 c -0.027459,0.02722 -0.1530808,0.142553 -0.2791726,0.256292 l -0.2292474,0.206797 0.3038652,-0.003 c 0.1671179,-0.0017 0.3079755,-0.0043 0.3131009,-0.0058 0.00516,-0.0015 0.1838854,-0.162181 0.3972906,-0.357034 0.4101338,-0.37448 0.4470636,-0.405046 0.5860008,-0.484973 0.2764026,-0.159009 0.8197559,-0.264625 1.1796838,-0.229304 0.2743251,0.02692 0.4327722,0.139258 0.3793052,0.268927 -0.01762,0.04271 -0.1295851,0.172407 -0.4865154,0.563539 -0.1185355,0.129894 -0.2146607,0.237936 -0.2135999,0.240092 0.00105,0.0022 0.2380575,0.0062 0.5266082,0.0089 0.2885931,0.0027 0.6356951,0.007 0.7713741,0.0095 0.418867,0.0077 0.428222,0.0077 0.460795,-0.0034 z M 5.0519447,11.812275 c 0.073721,-0.0068 0.2036001,-0.0169 0.2886413,-0.02257 0.221147,-0.01474 0.2593066,-0.02025 0.3295785,-0.04768 0.060969,-0.02379 0.066185,-0.02743 0.2960141,-0.206169 0.080298,-0.06245 0.036099,-0.09261 -0.1250289,-0.0853 -0.1185726,0.0053 -0.3546579,0.03001 -0.4486444,0.04681 -0.093303,0.01667 -0.2001381,0.04918 -0.2584151,0.07862 -0.04916,0.02483 -0.2981884,0.185009 -0.3164391,0.203532 -0.019161,0.01944 0.014715,0.04511 0.059464,0.04506 0.022443,-2.6e-5 0.1011166,-0.0056 0.1748353,-0.01231 z m 7.7385053,-0.01319 c 0.05617,-0.01667 0.06159,-0.023 0.111022,-0.129747 0.07039,-0.151964 0.05748,-0.163908 -0.214143,-0.198208 -0.231441,-0.02923 -0.814438,-0.07439 -0.960277,-0.07439 -0.139817,0 -0.210357,0.03592 -0.306262,0.155937 -0.07868,0.09846 -0.08324,0.108563 -0.0595,0.131833 0.03706,0.03631 0.0806,0.04102 0.705625,0.07638 0.186366,0.01055 0.400663,0.02596 0.476204,0.03426 0.17426,0.01915 0.194907,0.01948 0.247325,0.0039 z M 6.1564149,11.262804 c 0.3714682,-0.02652 0.7102392,-0.0451 1.0540491,-0.05779 0.3374772,-0.01246 0.3921229,-0.02836 0.5544365,-0.161271 0.1242329,-0.101725 0.1400737,-0.141113 0.065097,-0.161802 -0.043359,-0.01196 -0.1155309,-0.01057 -0.5475783,0.01057 -0.4129543,0.02021 -0.6012641,0.03202 -0.7629571,0.04787 -0.2734564,0.02681 -0.3939641,0.05061 -0.4999124,0.09873 -0.067948,0.03086 -0.3139801,0.191153 -0.3339726,0.217587 -0.017901,0.02376 0.017273,0.03956 0.077208,0.0346 0.018372,-0.0015 0.1954915,-0.01434 0.3936298,-0.02849 z m 6.8721201,0.007 c 0.033,-0.0105 0.04083,-0.01731 0.06423,-0.05588 0.04428,-0.07299 0.07873,-0.153779 0.0739,-0.173328 -0.01151,-0.04666 -0.137744,-0.08632 -0.301722,-0.09482 -0.07321,-0.0037 -0.07941,-0.003 -0.137646,0.01642 -0.07152,0.02391 -0.06995,0.02252 -0.142365,0.126934 -0.06041,0.08711 -0.06436,0.117371 -0.01797,0.137758 0.02606,0.01145 0.336523,0.05382 0.400006,0.05458 0.01319,1.6e-4 0.04091,-0.0051 0.06158,-0.01167 z m -0.917505,-0.07585 c 0.0554,-0.01818 0.07293,-0.03371 0.144775,-0.128252 0.07346,-0.09666 0.07982,-0.129081 0.03015,-0.15337 -0.0335,-0.01638 -0.108376,-0.02331 -0.422822,-0.03913 -0.227754,-0.01147 -0.256664,-0.01174 -0.306058,-0.0029 -0.121632,0.02174 -0.201453,0.07055 -0.265149,0.162143 -0.04675,0.06721 -0.0453,0.100842 0.0054,0.124518 0.03145,0.0147 0.0625,0.01778 0.294851,0.02921 0.14284,0.007 0.268936,0.01384 0.280218,0.01514 0.01125,0.0013 0.06199,0.0027 0.11252,0.0031 0.07042,5.63e-4 0.100043,-0.0019 0.126115,-0.01044 z M 6.7976658,10.751035 c 0.3604078,-0.0291 0.4101403,-0.03493 0.4964029,-0.05819 0.076491,-0.02063 0.07957,-0.02231 0.2007025,-0.109822 0.137608,-0.09941 0.1564659,-0.124241 0.108161,-0.14245 -0.036606,-0.0138 -0.1203118,-0.01244 -0.315945,0.0051 -0.1817354,0.01632 -0.3523667,0.04037 -0.4194778,0.05913 -0.075931,0.02123 -0.145129,0.05543 -0.2570296,0.127031 -0.1238194,0.07923 -0.1704534,0.122788 -0.1414444,0.132122 0.030692,0.0099 0.060403,0.0087 0.3286324,-0.01295 z m 6.4149482,0.0093 c 0.0386,-0.01146 0.04883,-0.02338 0.114268,-0.133186 0.04558,-0.07647 0.04764,-0.09189 0.01573,-0.117395 -0.04694,-0.03754 -0.21454,-0.06612 -0.526976,-0.08989 -0.259713,-0.01975 -0.301411,-0.01757 -0.385106,0.02017 -0.03943,0.01778 -0.05032,0.0281 -0.09574,0.09082 -0.09593,0.132609 -0.07381,0.148515 0.240613,0.173112 0.189226,0.0148 0.531504,0.05502 0.543942,0.06392 0.0091,0.0065 0.05973,0.0024 0.0932,-0.0075 z m -4.9632514,-0.0983 c 0.1679539,-0.0072 0.4676978,-0.01672 0.6660999,-0.02125 0.3326696,-0.0076 0.3671568,-0.0095 0.4433697,-0.02382 0.1137833,-0.02144 0.1455111,-0.03826 0.2317021,-0.122808 0.064116,-0.0629 0.072056,-0.07493 0.0671,-0.101326 -0.00433,-0.02277 -0.018586,-0.03322 -0.059383,-0.04359 -0.02955,-0.0075 -0.060365,-0.01232 -0.068459,-0.0107 -0.01308,0.0026 -0.2234613,0.0097 -0.8863219,0.03005 -0.4467295,0.01369 -0.5369417,0.03781 -0.7240071,0.19365 -0.097567,0.08128 -0.098252,0.08212 -0.079091,0.09739 0.023517,0.01875 0.025031,0.01876 0.4089948,0.0024 z m 3.5973634,-0.025 c 0.03492,-0.01037 0.07478,-0.02668 0.08858,-0.03626 0.04709,-0.03268 0.122527,-0.140899 0.116478,-0.167099 -0.0057,-0.02467 -0.06179,-0.06518 -0.09026,-0.06518 -0.0081,0 -0.106827,-0.0056 -0.219288,-0.01252 -0.211661,-0.01296 -0.54683,-0.0258 -0.673428,-0.0258 -0.05969,0 -0.08575,0.0036 -0.147103,0.02015 -0.122322,0.03306 -0.172896,0.05997 -0.239268,0.127337 -0.07106,0.07213 -0.08069,0.10314 -0.03942,0.127002 0.03804,0.02199 0.05389,0.0231 0.468163,0.03269 0.171901,0.004 0.348125,0.0094 0.391603,0.01198 0.04347,0.0026 0.124363,0.0052 0.179747,0.0056 0.09275,8.31e-4 0.105709,-5.88e-4 0.164192,-0.01795 z m 1.607343,-0.367592 c 0.03413,-0.02155 0.142983,-0.211471 0.136894,-0.238849 -0.0054,-0.02429 -0.08982,-0.054603 -0.170627,-0.061264 -0.03827,-0.00315 -0.06162,-0.00115 -0.09978,0.00857 -0.04351,0.011081 -0.05382,0.017212 -0.08145,0.048481 -0.0617,0.06988 -0.125253,0.174821 -0.115746,0.191311 0.01239,0.02146 0.07026,0.04115 0.163262,0.05553 0.1055,0.01631 0.136759,0.01561 0.167448,-0.0038 z m -5.9439605,-0.0098 c 0.2069127,-0.01764 0.6695759,-0.04803 0.8707676,-0.05718 0.3146966,-0.01432 0.3719755,-0.03173 0.5212191,-0.15844 0.1144209,-0.097151 0.1208182,-0.1153206 0.04722,-0.1336658 -0.037958,-0.00946 -0.059884,-0.00972 -0.2061941,-0.00247 -0.2375382,0.01177 -0.7852592,0.050204 -0.8937763,0.062718 -0.098469,0.011354 -0.2239759,0.039197 -0.2964902,0.065773 -0.024877,0.0091 -0.1054907,0.05771 -0.1878953,0.113251 -0.1401311,0.09445 -0.1438922,0.09766 -0.1292434,0.110165 0.019238,0.01642 0.080463,0.01639 0.2743945,-1.52e-4 z m 5.2744755,-0.05123 c 0.06475,-0.0089 0.08164,-0.01634 0.115431,-0.05069 0.0416,-0.04228 0.118072,-0.1746972 0.110324,-0.1910112 -0.01545,-0.032519 -0.10382,-0.047743 -0.432345,-0.074488 -0.244195,-0.019879 -0.299974,-0.017295 -0.385025,0.017836 -0.04249,0.01755 -0.05981,0.03078 -0.106899,0.081616 -0.07578,0.081846 -0.08939,0.1177012 -0.05416,0.1428992 0.03583,0.02562 0.08756,0.03302 0.342739,0.04903 0.112293,0.007 0.234956,0.01677 0.272581,0.02162 0.08755,0.01128 0.07995,0.0111 0.137353,0.0032 z m -1.367527,-0.07465 c 0.105757,-0.01837 0.153952,-0.04469 0.220354,-0.120337 0.06764,-0.07709 0.07106,-0.1134931 0.01311,-0.1405908 l -0.03949,-0.018466 -0.608247,-0.00191 c -0.334534,-0.00105 -0.631973,-2.163e-4 -0.660976,0.00185 -0.13185,0.0094 -0.261423,0.061647 -0.3643954,0.1469438 -0.08326,0.06897 -0.0911,0.09056 -0.04277,0.118477 l 0.03481,0.02013 0.1802164,-0.0037 c 0.14233,-0.0029 0.867769,0.0019 1.150879,0.0077 0.02874,5.84e-4 0.08116,-0.004 0.116518,-0.0101 z M 8.26551,9.7528152 C 8.5220087,9.7312652 8.5511802,9.7218902 8.6945375,9.614941 8.7392645,9.581572 8.7873735,9.546555 8.8014407,9.537124 8.8199727,9.524661 8.8216617,9.516141 8.8073807,9.505934 8.7898827,9.493418 8.7763947,9.492276 8.6835155,9.495433 8.5409788,9.500283 8.3951807,9.521006 8.3107929,9.54842 c -0.037688,0.012243 -0.069132,0.022884 -0.069884,0.023646 -7.39e-4,7.612e-4 -0.044786,0.031551 -0.097859,0.068419 -0.1298142,0.090182 -0.152266,0.1137182 -0.1156261,0.1211424 0.039459,0.00798 0.037053,0.00807 0.2380106,-0.00881 z m 4.606357,-0.052175 c 0.08795,-0.014637 0.121859,-0.035964 0.175593,-0.1104316 0.05245,-0.072671 0.05386,-0.1052266 0.0058,-0.1330162 -0.04062,-0.023485 -0.04448,-0.023865 -0.377377,-0.037054 -0.136995,-0.00542 -0.332005,-0.01321 -0.433369,-0.017296 -0.173181,-0.00698 -0.188066,-0.00668 -0.246849,0.00494 -0.124555,0.024635 -0.153697,0.039849 -0.235647,0.1230225 -0.07958,0.080768 -0.08613,0.1021158 -0.0379,0.1234471 0.02158,0.00954 0.0735,0.012925 0.278937,0.01818 0.249274,0.00638 0.539652,0.020055 0.661923,0.031182 0.09589,0.00873 0.14257,0.00806 0.20889,-0.00298 z M 9.3816802,9.6889154 c 0.089019,-0.00536 0.3189801,-0.012804 0.5110434,-0.016539 0.2960554,-0.00576 0.3567444,-0.00856 0.3987164,-0.018411 0.09175,-0.021537 0.13351,-0.044404 0.217488,-0.1191109 0.07498,-0.066715 0.07794,-0.071036 0.06426,-0.092253 -0.02367,-0.036598 -0.0455,-0.0391 -0.305354,-0.035062 -0.4579294,0.00711 -0.8588818,0.028281 -0.9652044,0.050952 -0.08427,0.017967 -0.230355,0.1021349 -0.3010375,0.1734376 -0.033858,0.034153 -0.027963,0.052029 0.020955,0.063502 0.043055,0.010102 0.1006199,0.00906 0.3591564,-0.00652 z M 8.940937,9.3019227 c 0.1441715,-0.013641 0.6791017,-0.051006 0.7302167,-0.051006 0.0509,0 0.1521159,-0.019473 0.2064079,-0.039712 0.06124,-0.022826 0.2157274,-0.137685 0.2176364,-0.1617981 0.0016,-0.020748 -0.05663,-0.034808 -0.1436484,-0.03467 -0.176551,2.823e-4 -0.6945197,0.038585 -0.848525,0.062747 -0.09305,0.014598 -0.1467058,0.033979 -0.2191569,0.079159 -0.075343,0.046981 -0.1909604,0.1362125 -0.1917955,0.1480147 -9.758e-4,0.013892 0.082879,0.01297 0.248868,-0.00273 z m 4.966108,-0.016341 c 0.02769,-0.014576 0.101097,-0.1418863 0.0995,-0.172561 -0.0025,-0.048509 -0.07137,-0.064866 -0.415772,-0.098788 -0.277537,-0.027336 -0.316966,-0.026845 -0.418592,0.00522 -0.04896,0.015448 -0.05401,0.019299 -0.101919,0.077557 -0.02771,0.033717 -0.05272,0.070548 -0.05554,0.081849 -0.0072,0.028825 0.04023,0.05081 0.126435,0.058577 0.04045,0.00365 0.196009,0.017934 0.345661,0.03175 0.306599,0.028306 0.391316,0.031612 0.420233,0.016393 z m -2.311271,-0.091207 c 0.109365,-0.018352 0.152756,-0.038781 0.223392,-0.1051671 0.07581,-0.071253 0.07501,-0.095135 -0.004,-0.1181566 l -0.05197,-0.015149 -0.400038,0.0043 c -0.495321,0.00533 -0.7126,0.012535 -0.773288,0.025662 -0.0252,0.00545 -0.07546,0.021478 -0.111698,0.03562 -0.05799,0.02263 -0.07458,0.033654 -0.138156,0.091924 -0.06982,0.063936 -0.07147,0.066758 -0.04998,0.082137 l 0.02226,0.015926 0.610387,-0.00329 c 0.524202,-0.00283 0.619238,-0.00478 0.673052,-0.013809 z"
       id="path1-6"
       transform="matrix(1,0,0,1.2496634,0,-3.3246899)" /><path
       style="fill:url(#linearGradient5);stroke:none;stroke-width:1.40539;stroke-linecap:round;stroke-linejoin:round;stroke-opacity:0.897036"
       d="m 2.3022718,12.055534 c 0.2262108,0 10.3410682,0.123267 10.3410682,0.123267 L 10.122705,3.3960221 4.5966961,3.7658235 Z"
       id="path2" /><ellipse
       style="fill:#000000;fill-opacity:0.143426;stroke:#c00707;stroke-width:0.165;stroke-dasharray:none;stroke-opacity:0.421348"
       id="path5"
       cx="7.4724536"
       cy="11.982809"
       rx="0.24757871"
       ry="0.26408395" /><path
       style="fill:url(#linearGradient3);stroke-width:0.878368"
       d="m 1.8381301,12.514978 c -0.067056,-0.03911 -0.1364204,-0.127251 -0.1520038,-0.193142 -0.02434,-0.102903 0.061182,-0.24091 0.1690939,-0.272885 0.049111,-0.01456 0.3008765,-0.05457 0.4517541,-0.07181 l 0.0757,-0.0086 0.041979,-0.166283 c 0.023089,-0.0915 0.1008862,-0.407501 0.1728895,-0.702266 C 2.8309026,10.144662 3.1230974,8.9725321 3.3371877,8.1329264 3.4036322,7.8723372 3.5140917,7.4319376 3.5826482,7.1542605 3.6512065,6.8765835 3.7615356,6.4361838 3.827829,6.1755946 3.8941206,5.9150055 4.0007628,5.4885867 4.0648083,5.2279976 4.3205301,4.1875084 4.6066156,3.1126522 4.6406357,3.0645478 4.7158591,2.9581802 4.9458674,2.866279 5.3095815,2.7972659 c 0.2619444,-0.049702 0.285517,-0.049461 0.338696,0.00348 0.07651,0.076172 0.093507,0.1403256 0.093507,0.3529082 0,0.1828733 0.00198,0.1946786 0.031868,0.1946786 0.017531,0 0.1439796,-0.017003 0.2810035,-0.037785 0.1370247,-0.020782 0.2901907,-0.042429 0.340369,-0.048103 L 6.486259,3.2521287 6.497035,3.0244794 C 6.509466,2.7617201 6.524289,2.6976411 6.588484,2.6290445 l 0.046476,-0.049659 0.2335245,-0.00914 c 0.1284392,-0.00503 0.4667979,-0.00853 0.7519101,-0.00777 l 0.5183849,0.00137 0.062055,0.063448 c 0.078983,0.080757 0.098493,0.1635266 0.098493,0.4179283 v 0.1924714 l 0.069233,0.00811 c 0.038075,0.00446 0.1242117,0.012222 0.1914081,0.017256 0.1196568,0.00896 0.3948127,0.046749 0.4680249,0.064271 l 0.036968,0.00885 6.12e-5,-0.2230489 c 6.66e-5,-0.243451 0.014689,-0.2918058 0.1053424,-0.3484515 0.039928,-0.024947 0.054383,-0.023544 0.3225063,0.031304 0.477329,0.097642 0.6147206,0.1457325 0.7090526,0.2481871 0.05956,0.06469 0.04699,0.023935 0.223186,0.7236037 0.07638,0.3033088 0.182664,0.7157466 0.236185,0.9165284 0.05352,0.2007818 0.108625,0.4139912 0.122454,0.4737985 0.01382,0.059808 0.07306,0.3009786 0.13163,0.5359361 0.107993,0.4332337 0.16247,0.6477079 0.583977,2.299088 0.129757,0.5083623 0.265356,1.0466292 0.301331,1.1961468 0.1962,0.8154416 0.448841,1.7866006 0.533434,2.0505376 0.0397,0.123887 0.09939,0.337096 0.132642,0.473799 l 0.06044,0.24855 0.162592,0.01874 c 0.202173,0.0233 0.276167,0.04284 0.35407,0.09343 0.132305,0.08593 0.161579,0.209102 0.07915,0.333042 -0.03106,0.0467 -0.07116,0.08181 -0.118103,0.103428 l -0.07108,0.03272 -5.522323,6.22e-4 c -5.4147265,6.11e-4 -5.5233197,4.2e-5 -5.5733801,-0.02915 z m 1.6474796,-0.614745 c 0.2329479,-0.01302 0.6239081,-0.03408 0.868802,-0.04679 0.2448938,-0.0127 0.4509806,-0.02648 0.4579713,-0.0306 0.016712,-0.0099 0.052026,-0.308498 0.0553,-0.467764 0.00288,-0.1405 -0.015471,-0.189023 -0.086728,-0.229162 -0.06121,-0.03448 -0.1312177,-0.03299 -0.603014,0.01282 -0.652132,0.06334 -0.8698625,0.10203 -1.0318649,0.183392 -0.153728,0.07721 -0.1937486,0.148111 -0.2462142,0.436211 -0.036051,0.197965 -0.040701,0.186083 0.06854,0.175034 0.051522,-0.0052 0.2842614,-0.02013 0.5172083,-0.03315 z m 8.4855973,-0.09345 c -0.03349,-0.183647 -0.07265,-0.29937 -0.124353,-0.367427 -0.08159,-0.107407 -0.344653,-0.204309 -0.688634,-0.253667 -0.229456,-0.03292 -0.319475,-0.03096 -0.363258,0.008 -0.0624,0.05544 -0.06295,0.06813 -0.01958,0.449191 0.02493,0.219054 0.01669,0.212945 0.304699,0.22588 0.132571,0.0059 0.369322,0.01972 0.526112,0.0306 0.156792,0.01088 0.307843,0.02072 0.33567,0.0219 l 0.0506,0.0021 z m -1.651046,-9.44e-4 c 0.01734,-0.01993 0.01736,-0.07102 7.1e-5,-0.283503 -0.01159,-0.142555 -0.03019,-0.280163 -0.04132,-0.305795 -0.02393,-0.05514 -0.09561,-0.126002 -0.159143,-0.157331 -0.04432,-0.02186 -0.3913482,-0.05268 -0.8614526,-0.07654 L 9.0525775,10.972231 9.0417838,10.480775 C 9.0266455,9.7915065 8.9962971,9.5831677 8.8683868,9.2901608 8.7398576,8.9957412 8.4318095,8.6979128 8.0846333,8.5324075 7.9131728,8.4506722 7.8019964,8.4197365 7.5922973,8.3954217 7.1647778,8.3458521 6.6636855,8.5240993 6.3263522,8.8457406 6.1145277,9.0477116 6.0056881,9.2464154 5.929719,9.5698562 l -0.036483,0.1553443 -0.071652,0.0034 c -0.3905231,0.01861 -0.9904825,0.08084 -1.0993113,0.114022 -0.057783,0.01762 -0.1214495,0.07754 -0.1602008,0.150767 -0.032741,0.061879 -0.096185,0.4742425 -0.083283,0.5413345 0.018232,0.0948 0.049984,0.105698 0.2485322,0.08531 0.2533112,-0.02601 0.9594334,-0.0793 1.0507458,-0.0793 h 0.077751 l -0.00126,0.120392 c -6.81e-4,0.06622 -0.01351,0.346749 -0.028523,0.623409 l -0.027281,0.503018 0.3219252,-0.0074 c 0.1770588,-0.004 0.3250869,-0.0104 0.3289519,-0.01408 0.00387,-0.0037 0.025779,-0.394491 0.048698,-0.868455 C 6.542377,9.9867255 6.549671,9.9123745 6.6140739,9.7179585 6.7422002,9.331183 7.212283,9.0742815 7.63468,9.160195 c 0.3219378,0.065481 0.6099328,0.3387346 0.6894341,0.6541445 0.026184,0.103883 0.043112,0.4193675 0.07355,1.3707635 0.01011,0.315957 0.021165,0.57876 0.024565,0.584006 0.00342,0.0052 0.2611897,0.01495 0.5728653,0.02156 0.3116766,0.0066 0.687638,0.01703 0.83547,0.02313 0.4563976,0.01884 0.4663346,0.01868 0.4895786,-0.0081 z M 3.4043347,10.805853 c 0.071769,-0.01641 0.2000566,-0.04111 0.2850753,-0.0549 0.2211072,-0.03585 0.2561266,-0.04927 0.3024101,-0.115966 0.040162,-0.05787 0.041907,-0.0667 0.099389,-0.50149 C 4.1112941,9.9815865 4.0322031,9.9082385 3.86748,9.9260105 c -0.1212164,0.01308 -0.3478788,0.07299 -0.4307405,0.1138525 -0.082257,0.04056 -0.1623109,0.119633 -0.1936308,0.191248 -0.026418,0.06041 -0.1240246,0.450021 -0.1240246,0.495076 0,0.0473 0.063296,0.109727 0.1111396,0.109608 0.023989,-6e-5 0.1023382,-0.01354 0.1741112,-0.02994 z m 8.2670213,-0.03208 c 0.04253,-0.04055 0.04166,-0.05596 -0.01799,-0.315599 -0.0849,-0.369639 -0.111306,-0.398695 -0.438135,-0.4821255 -0.27848,-0.07109 -0.949955,-0.180941 -1.106016,-0.180941 -0.1496167,0 -0.187232,0.08736 -0.1633167,0.3793025 0.019618,0.239504 0.025392,0.264072 0.075331,0.320674 0.07793,0.08832 0.129502,0.09979 0.835618,0.185795 0.210548,0.02565 0.456121,0.06315 0.545716,0.08335 0.206668,0.04658 0.229106,0.04738 0.268786,0.0095 z M 4.0068909,9.4693129 C 4.3764273,9.4047927 4.7193598,9.3596122 5.0738884,9.3287288 5.4218787,9.2984158 5.4635984,9.2597483 5.4971516,8.9364532 5.5228316,8.6890025 5.4982316,8.5931965 5.3962103,8.5428713 5.3372043,8.5137763 5.2614378,8.5171644 4.8213931,8.5685782 4.400796,8.6177189 4.2117436,8.6464622 4.0554313,8.6850251 3.7910772,8.7502401 3.6872126,8.8081324 3.6245738,8.9251772 3.5844028,9.0002478 3.4901278,9.3901405 3.496605,9.4544403 c 0.00585,0.057795 0.060184,0.096205 0.1190954,0.084154 0.018044,-0.00369 0.1940815,-0.034868 0.3911905,-0.069281 z m 7.3612181,0.017086 c 0.02424,-0.025544 0.02544,-0.042099 0.0098,-0.1359257 -0.02957,-0.1775412 -0.07789,-0.3740577 -0.103674,-0.4216064 -0.06154,-0.1134937 -0.238414,-0.2099653 -0.422842,-0.2306363 -0.08231,-0.00922 -0.08821,-0.00738 -0.129984,0.039929 -0.05132,0.058156 -0.05111,0.054776 -0.01851,0.3087604 0.0272,0.2118891 0.05488,0.2854964 0.126013,0.3350849 0.03996,0.02786 0.416855,0.1309129 0.485594,0.1327759 0.01429,3.877e-4 0.03841,-0.012386 0.05359,-0.028383 z M 10.306316,9.3018897 c 0.04012,-0.044226 0.04251,-0.081984 0.0197,-0.3119615 -0.02331,-0.2351154 -0.05068,-0.313979 -0.129443,-0.3730611 -0.05311,-0.039834 -0.140553,-0.056698 -0.4937214,-0.095192 -0.2558072,-0.027886 -0.287029,-0.028555 -0.3305935,-0.00703 -0.1072322,0.052881 -0.1411849,0.171616 -0.1127793,0.3943994 0.020841,0.1634827 0.057854,0.2452918 0.1370329,0.3028814 0.049148,0.035743 0.085621,0.043231 0.3463136,0.071039 0.1602601,0.017095 0.3023777,0.033667 0.3158167,0.036815 0.01344,0.00317 0.06912,0.00652 0.123723,0.00755 0.07595,0.00137 0.105085,-0.00455 0.123951,-0.025381 z M 4.1535014,8.2244694 c 0.3549928,-0.070775 0.4020643,-0.084956 0.4698427,-0.14155 0.060103,-0.050186 0.061623,-0.054278 0.09898,-0.2671323 0.042438,-0.2418088 0.036438,-0.3022068 -0.03445,-0.3464981 -0.053717,-0.033563 -0.1418622,-0.030261 -0.3326884,0.012462 -0.177271,0.039687 -0.3345017,0.098196 -0.3865338,0.1438364 -0.058871,0.051641 -0.096863,0.1348278 -0.1411111,0.3089919 -0.048959,0.1927268 -0.052943,0.2986723 -0.012062,0.3213779 0.043265,0.024032 0.07382,0.021186 0.3380187,-0.031488 z m 6.8744366,0.022708 c 0.02923,-0.027873 0.02761,-0.056861 -0.01815,-0.323965 -0.03186,-0.1860087 -0.0459,-0.2235048 -0.106933,-0.285553 -0.08981,-0.091308 -0.299297,-0.1608463 -0.65869,-0.218651 -0.2987442,-0.04805 -0.3410638,-0.042739 -0.3908382,0.04905 -0.023449,0.04325 -0.024205,0.068342 -0.00666,0.2209044 0.037166,0.3225605 0.077598,0.3612509 0.4400002,0.4210816 0.218096,0.036006 0.626772,0.1338363 0.649457,0.1554693 0.01656,0.015793 0.06644,0.00582 0.09178,-0.018335 z M 5.6131583,8.0080801 C 5.785341,7.9906781 6.0960119,7.9674151 6.3035387,7.9563841 6.6515092,7.9378881 6.6864612,7.9333821 6.7528724,7.8984461 6.8520254,7.8462881 6.8682449,7.8053861 6.8713319,7.5997244 6.8736719,7.446726 6.8694419,7.417461 6.8363059,7.3532571 6.8077029,7.2978731 6.7814379,7.2724451 6.7267944,7.2472202 c -0.039532,-0.01825 -0.07758,-0.029961 -0.084542,-0.026023 -0.011243,0.00636 -0.2288481,0.023709 -0.9167612,0.073102 -0.463612,0.033289 -0.5347068,0.091981 -0.5705789,0.4710398 -0.018709,0.1977021 -0.018556,0.1997414 0.018053,0.2368993 0.044929,0.045602 0.046557,0.045624 0.4401941,0.00584 z m 3.8231575,-0.060804 c 0.026436,-0.025213 0.051891,-0.064901 0.056559,-0.088197 0.015939,-0.079487 -0.017441,-0.3427237 -0.05154,-0.4064545 -0.032102,-0.060013 -0.1348463,-0.1585545 -0.1653107,-0.1585545 -0.00872,0 -0.1202531,-0.013703 -0.2478567,-0.030451 -0.240159,-0.031522 -0.6123615,-0.062755 -0.747832,-0.062755 -0.063872,0 -0.087996,0.00868 -0.1361694,0.049016 -0.096043,0.080414 -0.1217822,0.1458806 -0.1217822,0.3097372 0,0.1754414 0.022397,0.2508778 0.091721,0.3089209 0.06389,0.053489 0.082023,0.056183 0.5354461,0.079517 0.1881494,0.00968 0.3824089,0.022798 0.4316859,0.029146 0.049273,0.00635 0.1385125,0.012526 0.1983,0.013729 0.1001254,0.00202 0.1124987,-0.00143 0.1567764,-0.043655 z M 10.768753,7.0531376 c 0.0138,-0.052421 -0.06996,-0.514385 -0.105341,-0.5809797 -0.03139,-0.059089 -0.153684,-0.1328184 -0.247179,-0.1490198 -0.04428,-0.00768 -0.06715,-0.0028 -0.09774,0.020838 -0.03488,0.026952 -0.03944,0.041867 -0.03605,0.1179251 0.0076,0.1699856 0.05029,0.4252395 0.07785,0.4653493 0.03587,0.052205 0.118559,0.1000866 0.233252,0.1350649 0.130095,0.039675 0.162798,0.037962 0.175206,-0.00918 z M 4.397852,7.0293555 C 4.6006637,6.9864355 5.0637252,6.912537 5.2693694,6.8902736 5.5910293,6.8554496 5.633965,6.8130976 5.6600706,6.5048807 c 0.020013,-0.2363126 0.00774,-0.280508 -0.0904,-0.3251313 -0.050587,-0.023004 -0.074333,-0.023643 -0.2232524,-0.00601 -0.2417781,0.02863 -0.7873685,0.1221183 -0.8902986,0.1525547 -0.093396,0.027618 -0.1983476,0.095343 -0.2479251,0.1599876 -0.017009,0.022173 -0.052044,0.1403703 -0.081664,0.2754737 -0.050371,0.2297419 -0.05101,0.2375508 -0.022145,0.267968 0.037904,0.039941 0.1033798,0.039859 0.2934684,-3.687e-4 z M 9.9880173,6.9047386 C 10.047896,6.883028 10.05815,6.8649852 10.058096,6.7814354 10.058027,6.6785835 10.000259,6.3564984 9.974759,6.3168158 9.9239384,6.2377147 9.813326,6.2006836 9.4335733,6.1356312 9.1513034,6.0872779 9.0943385,6.0935627 9.0403662,6.1790164 c -0.026966,0.04269 -0.031554,0.07487 -0.028343,0.1985249 0.00522,0.1990827 0.028442,0.2862988 0.092711,0.3475915 0.065347,0.062317 0.1285112,0.080318 0.418459,0.1192621 0.127592,0.017137 0.2691096,0.040804 0.3144838,0.052592 0.1055737,0.027429 0.097248,0.027 0.1503398,0.00775 z M 8.4459277,6.7231574 C 8.539729,6.6784719 8.5635526,6.6144513 8.554851,6.430447 8.5459462,6.2429309 8.5112353,6.1543835 8.4206443,6.0884706 L 8.3589133,6.0435526 7.7060231,6.0389122 C 7.3469332,6.0363561 7.0295243,6.038386 7.0006699,6.0434154 6.8694846,6.0662745 6.7859203,6.1933685 6.7656614,6.4008442 6.7492824,6.5685975 6.7636814,6.6211269 6.8448064,6.68903 l 0.058466,0.048955 0.188958,-0.00898 c 0.1492316,-0.00709 0.9306419,0.00472 1.2396659,0.018726 0.031356,0.00142 0.082671,-0.00964 0.1140305,-0.024576 z M 4.6717603,5.7963809 c 0.251756,-0.052419 0.273088,-0.075222 0.3137328,-0.3353677 0.012683,-0.081167 0.027236,-0.1663449 0.032354,-0.1892841 0.00675,-0.030316 -4.884e-4,-0.051037 -0.026526,-0.075867 -0.031922,-0.030442 -0.047555,-0.033222 -0.1436198,-0.025541 -0.1474182,0.011786 -0.2815826,0.062203 -0.3429802,0.1288876 -0.027416,0.02978 -0.049849,0.055664 -0.049849,0.057519 0,0.00185 -0.014661,0.076746 -0.032579,0.1664233 -0.043832,0.2193613 -0.04304,0.2766103 0.00405,0.2946691 0.050641,0.019413 0.048158,0.019629 0.2454002,-0.021439 z M 9.545982,5.6694706 C 9.624659,5.6338676 9.638461,5.5819906 9.617455,5.4008547 9.5969555,5.2240891 9.5641425,5.1448994 9.4834125,5.0773036 9.415187,5.020178 9.4106447,5.0192534 9.0405164,4.9871749 8.8882041,4.9739741 8.6713146,4.9550409 8.5585389,4.9451021 8.365857,4.9281203 8.3502439,4.9288451 8.2996015,4.9571227 8.1922883,5.0170445 8.1771437,5.0540518 8.1771437,5.2563648 c 0,0.1964612 0.015498,0.2483887 0.089597,0.3002752 0.033146,0.023208 0.092269,0.031439 0.3176563,0.044221 0.2734712,0.015508 0.5986237,0.048781 0.7411965,0.075848 0.1118124,0.021227 0.1610633,0.019609 0.220392,-0.00724 z M 5.7987954,5.6409494 c 0.089597,-0.013042 0.3278375,-0.031145 0.5294268,-0.040229 0.3107366,-0.014002 0.3727251,-0.020818 0.4072507,-0.044783 0.075475,-0.052387 0.096046,-0.1080094 0.1071494,-0.2897278 0.00991,-0.1622783 0.00855,-0.1727901 -0.028495,-0.2243977 -0.063962,-0.089022 -0.089903,-0.095106 -0.3637253,-0.085285 -0.4825253,0.017307 -0.8892651,0.06879 -0.9791383,0.1239355 -0.07123,0.043705 -0.1388156,0.2484347 -0.1392744,0.4218728 -2.194e-4,0.083074 0.024934,0.1265588 0.089345,0.154464 0.056721,0.024573 0.1172227,0.022033 0.3774611,-0.01585 z M 4.9191331,4.6996214 c 0.1398951,-0.03318 0.6729243,-0.1240677 0.7276216,-0.1240677 0.054472,0 0.1422471,-0.047367 0.1790061,-0.096595 0.041457,-0.055522 0.085684,-0.3349078 0.062298,-0.3935608 -0.020121,-0.050469 -0.097285,-0.08467 -0.1902704,-0.084332 -0.1886278,6.866e-4 -0.7025198,0.093855 -0.8418445,0.152626 -0.084182,0.03551 -0.1211634,0.08265 -0.1510576,0.1925482 -0.031086,0.1142766 -0.060733,0.331326 -0.049184,0.3600338 0.0136,0.03379 0.1023598,0.031549 0.2634267,-0.00666 z M 10.216102,4.6598731 C 10.230367,4.6244187 10.17469,4.3147463 10.140635,4.2401328 10.086775,4.1221385 9.9958626,4.0823507 9.5915631,3.9998391 9.2657521,3.933346 9.2240775,3.9345417 9.1491374,4.0125398 c -0.036105,0.037576 -0.037454,0.046943 -0.02729,0.1886517 0.00585,0.082012 0.017972,0.1716033 0.026858,0.1990915 0.022676,0.070114 0.096633,0.1235891 0.1970623,0.142484 0.047142,0.00887 0.2286573,0.043624 0.4033676,0.077232 C 10.10707,4.688853 10.20121,4.696891 10.216106,4.659873 Z M 7.6466645,4.4380192 C 7.7443389,4.39338 7.7692365,4.3436858 7.7748294,4.1822087 7.7808559,4.008892 7.754789,3.9508015 7.6459998,3.8948025 l -0.071589,-0.036849 -0.4235411,0.010461 c -0.5244231,0.012952 -0.7493314,0.030491 -0.8004326,0.062421 -0.02121,0.013254 -0.058097,0.052243 -0.08197,0.086643 -0.038201,0.055044 -0.044308,0.081862 -0.050919,0.2235977 -0.00729,0.1555185 -0.00612,0.1623831 0.03311,0.1997921 l 0.04062,0.03874 0.649706,-0.008 C 7.4989505,4.464727 7.5985912,4.4599845 7.646653,4.4380191 Z"
       id="path1" /><path
       style="fill:#000000;fill-opacity:1;stroke:none;stroke-width:1.40539;stroke-linecap:round;stroke-linejoin:round;stroke-opacity:0.897036"
       d="m 6.4248136,11.791094 c 0,0 1.2311722,-0.334558 2.1515916,0 C 8.3962774,9.9440255 8.4551006,9.2210627 7.4279797,9.1372276 6.0277397,9.0229388 6.3711975,11.782071 6.4248136,11.791094 Z"
       id="path6"
       sodipodi:nodetypes="ccsc" /></g></svg>
