<?xml version="1.0" encoding="UTF-8" standalone="no"?>
<!-- Created with Inkscape (http://www.inkscape.org/) -->

<svg
   width="15mm"
   height="15mm"
   viewBox="0 0 15 15"
   version="1.1"
   id="svg1"
   inkscape:export-filename="occult-shop.png"
   inkscape:export-xdpi="96"
   inkscape:export-ydpi="96"
   inkscape:version="1.3.2 (091e20e, 2023-11-25)"
   sodipodi:docname="occult-market.svg"
   xmlns:inkscape="http://www.inkscape.org/namespaces/inkscape"
   xmlns:sodipodi="http://sodipodi.sourceforge.net/DTD/sodipodi-0.dtd"
   xmlns="http://www.w3.org/2000/svg"
   xmlns:svg="http://www.w3.org/2000/svg">
  <sodipodi:namedview
     id="namedview1"
     pagecolor="#ffffff"
     bordercolor="#000000"
     borderopacity="0.25"
     inkscape:showpageshadow="2"
     inkscape:pageopacity="0.0"
     inkscape:pagecheckerboard="0"
     inkscape:deskcolor="#d1d1d1"
     inkscape:document-units="mm"
     showguides="false"
     inkscape:zoom="7.9306099"
     inkscape:cx="16.707416"
     inkscape:cy="48.672171"
     inkscape:window-width="1728"
     inkscape:window-height="993"
     inkscape:window-x="0"
     inkscape:window-y="38"
     inkscape:window-maximized="0"
     inkscape:current-layer="layer1" />
  <defs
     id="defs1">
    <filter
       inkscape:collect="always"
       style="color-interpolation-filters:sRGB"
       id="filter11"
       x="-0.1067261"
       y="-0.37953049"
       width="1.2134522"
       height="1.759061">
      <feGaussianBlur
         inkscape:collect="always"
         stdDeviation="0.17868448"
         id="feGaussianBlur11" />
    </filter>
    <filter
       inkscape:collect="always"
       style="color-interpolation-filters:sRGB"
       id="filter12"
       x="-0.1827724"
       y="-0.7197831"
       width="1.3655448"
       height="2.4395662">
      <feGaussianBlur
         inkscape:collect="always"
         stdDeviation="0.17868448"
         id="feGaussianBlur12" />
    </filter>
    <filter
       inkscape:collect="always"
       style="color-interpolation-filters:sRGB"
       id="filter13"
       x="-0.10879438"
       y="-0.28630213"
       width="1.2175888"
       height="1.5726043">
      <feGaussianBlur
         inkscape:collect="always"
         stdDeviation="0.17868448"
         id="feGaussianBlur13" />
    </filter>
    <filter
       inkscape:collect="always"
       style="color-interpolation-filters:sRGB"
       id="filter14"
       x="-0.094405665"
       y="-0.42282092"
       width="1.1888113"
       height="1.8456418">
      <feGaussianBlur
         inkscape:collect="always"
         stdDeviation="0.17868448"
         id="feGaussianBlur14" />
    </filter>
    <filter
       inkscape:collect="always"
       style="color-interpolation-filters:sRGB"
       id="filter15"
       x="-0.11472935"
       y="-0.78227038"
       width="1.2294587"
       height="2.5645408">
      <feGaussianBlur
         inkscape:collect="always"
         stdDeviation="0.17868448"
         id="feGaussianBlur15" />
    </filter>
    <filter
       inkscape:collect="always"
       style="color-interpolation-filters:sRGB"
       id="filter16"
       x="-0.087733198"
       y="-0.2354972"
       width="1.1754664"
       height="1.4709944">
      <feGaussianBlur
         inkscape:collect="always"
         stdDeviation="0.17868448"
         id="feGaussianBlur16" />
    </filter>
    <filter
       inkscape:collect="always"
       style="color-interpolation-filters:sRGB"
       id="filter17"
       x="-0.10759987"
       y="-1.228649"
       width="1.2151997"
       height="3.457298">
      <feGaussianBlur
         inkscape:collect="always"
         stdDeviation="0.17868448"
         id="feGaussianBlur17" />
    </filter>
    <filter
       inkscape:collect="always"
       style="color-interpolation-filters:sRGB"
       id="filter18"
       x="-0.076900613"
       y="-0.2149626"
       width="1.1538012"
       height="1.4299252">
      <feGaussianBlur
         inkscape:collect="always"
         stdDeviation="0.17868448"
         id="feGaussianBlur18" />
    </filter>
  </defs>
  <g
     inkscape:label="Layer 1"
     inkscape:groupmode="layer"
     id="layer1">
    <path
       d="m 7.1894122,10.539033 c -0.4469255,0.209804 -0.9175664,0.506144 -1.4217281,0.92156 -0.7123716,0.586975 -0.018655,1.071682 1.3188248,1.0734 1.3374978,0.0017 3.0940781,-0.485654 3.5245761,-1.067156 0.291911,-0.394304 0.431031,-0.674789 0.448622,-0.875876 L 9.9718526,11.371526 6.816623,11.235461 Z"
       style="fill:#0f0e09;fill-opacity:0.288612;stroke-width:0;stroke-linecap:round;filter:url(#filter18)"
       id="path11" />
    <path
       d="m 7.6450383,10.233709 c -0.1408939,0.04064 -0.2415587,0.08543 -0.28993,0.132449 -0.00851,0.0083 -0.014697,0.01646 -0.019715,0.02465 0.1174258,0.08046 0.2543368,0.144129 0.4084325,0.191937 -0.1287694,-0.0904 -0.1692488,-0.208625 -0.098787,-0.349036 z m 3.6679867,0.04766 c -0.229856,0.08896 -0.48266,0.171359 -0.746152,0.242222 0.233731,-0.03991 0.465258,-0.08356 0.692223,-0.128177 0.01164,-0.0081 0.02228,-0.01609 0.03075,-0.02432 0.03203,-0.03107 0.03845,-0.06105 0.02318,-0.08972 z"
       style="fill:#0f0e09;fill-opacity:0.288612;stroke-width:0.0797492;stroke-linecap:round;filter:url(#filter17)"
       id="path10" />
    <path
       d="M 12.465463,8.8878503 11.728069,9.5780342 8.6509184,9.8271577 8.7548397,9.2658082 c -0.3532193,0.2039906 -0.6950713,0.4761263 -1.021979,0.8420248 -0.1756895,0.196643 -0.15471,0.358607 0.010966,0.474911 0.7137856,0.221455 1.7806143,0.118822 2.8230523,-0.05916 0.898761,-0.24171 1.679921,-0.6133649 1.810746,-0.9465378 0.125798,-0.3203744 0.14942,-0.5403194 0.08784,-0.6891959 z"
       style="fill:#0f0e09;fill-opacity:0.288612;stroke-width:0;stroke-linecap:round;filter:url(#filter16)"
       id="path9" />
    <path
       d="m 12.412718,8.5798968 c -0.07987,0.084909 -0.175184,0.1787825 -0.288426,0.2829754 -0.0056,0.00511 -0.01188,0.010072 -0.01767,0.015118 0.153688,-0.044082 0.307913,-0.092764 0.463315,-0.1462533 0.01325,-0.010435 0.02343,-0.020607 0.03049,-0.030565 0.0394,-0.055821 -0.02897,-0.09737 -0.187703,-0.1212752 z M 9.0302014,9.0130694 c -0.067283,0.026706 -0.1204341,0.052891 -0.1567266,0.077892 0.082469,0.013695 0.1648858,0.026391 0.2475106,0.037138 -0.039331,-0.036047 -0.069727,-0.074514 -0.090784,-0.11503 z"
       style="fill:#0f0e09;fill-opacity:0.288612;stroke-width:0.0687708;stroke-linecap:round;filter:url(#filter15)"
       id="path8" />
    <path
       d="M 7.2867359,10.357284 6.816623,11.235461 9.9718526,11.371526 11.359176,10.376018 C 9.8493138,10.677111 8.0639328,10.951985 7.2867317,10.357288 Z"
       style="fill:#0f0e09;fill-opacity:0.288612;stroke-width:0;stroke-linecap:round;filter:url(#filter14)"
       id="path7" />
    <path
       d="m 10.607607,7.6875877 -0.11938,0.1334356 C 10.15802,7.9439395 9.7829895,8.1324419 9.3476736,8.4109662 8.9559089,8.6616256 8.9072507,8.9322038 9.1209847,9.1281 10.094025,9.2546662 11.081736,9.171964 12.10665,8.8779906 c 0.0058,-0.00504 0.01212,-0.010013 0.01767,-0.015118 0.306174,-0.2816533 0.484705,-0.4884555 0.565446,-0.6441719 L 12.93718,8.0783634 12.8945,8.0711334 c -0.183805,0.1269557 -0.827194,0.1488428 -1.44506,0.048312 -0.623082,-0.101367 -0.98384,-0.2887263 -0.805592,-0.4183829 0.0028,-0.00204 0.0061,-0.00392 0.0092,-0.00591 z"
       style="fill:#0f0e09;fill-opacity:0.288612;stroke-width:0;stroke-linecap:round;filter:url(#filter13)"
       id="path6" />
    <path
       d="m 11.362855,7.5870181 c -0.03333,-2.568e-4 -0.06622,-2.437e-4 -0.09852,3.287e-4 -0.302322,0.00525 -0.528167,0.046646 -0.620481,0.1137159 -0.178248,0.1296567 0.18251,0.3170158 0.805593,0.4183829 0.622769,0.1013285 1.271781,0.078374 1.449633,-0.051271 0.178248,-0.1296568 -0.18251,-0.3170159 -0.805592,-0.418383 -0.241302,-0.039208 -0.497286,-0.060977 -0.73063,-0.062774 z"
       style="fill:#0f0e09;fill-opacity:0.288612;stroke-width:0.055326;stroke-linecap:round;filter:url(#filter12)"
       id="path4" />
    <path
       d="M 12.66908,8.6972281 C 11.323097,9.1776696 10.046404,9.3025103 8.7900268,9.0771579 L 8.6509184,9.8271577 11.728069,9.5780342 Z"
       style="fill:#0f0e09;fill-opacity:0.288612;stroke-width:0;stroke-linecap:round;filter:url(#filter11)"
       id="path3" />
    <ellipse
       style="fill:#000000;fill-opacity:0.143426;stroke:#c00707;stroke-width:0.165;stroke-dasharray:none;stroke-opacity:0.421348"
       id="path5"
       cx="7.4724536"
       cy="11.982809"
       rx="0.24757871"
       ry="0.26408395" />
    <g
       id="g3"
       transform="translate(-7.0636828,0.24255863)">
      <path
         style="fill:#2d493d;fill-opacity:1;stroke:#28341e;stroke-width:0.2;stroke-linecap:round;stroke-dasharray:none;stroke-opacity:1"
         d="m 14.064991,12.33161 0.06457,-0.671274"
         id="path19"
         sodipodi:nodetypes="cc" />
      <path
         style="fill:#2d493d;fill-opacity:1;stroke:#28341e;stroke-width:0.159999;stroke-linecap:round;stroke-dasharray:none;stroke-opacity:1"
         d="M 16.422883,11.86363 16.035445,11.294753"
         id="path19-3"
         sodipodi:nodetypes="cc" />
      <path
         style="fill:#2d493d;fill-opacity:1;stroke:#28341e;stroke-width:0.14;stroke-linecap:round;stroke-dasharray:none;stroke-opacity:1"
         d="m 12.835977,11.767458 0.271198,-0.632131"
         id="path19-3-1"
         sodipodi:nodetypes="cc" />
      <path
         d="M 11.761199,10.068434"
         style="fill:#2d493d;fill-opacity:1;stroke:#28341e;stroke-width:0.159999;stroke-linecap:round;stroke-dasharray:none;stroke-opacity:1"
         id="path1" />
      <path
         id="path17"
         style="fill:#2d493d;stroke:#18170e;stroke-width:0;stroke-linecap:round"
         d="m 17.078673,10.447301 c 0.168575,0.914321 -1.085678,1.680669 -2.42493,1.678014 -1.339252,-0.0027 -2.532591,-0.7647 -2.42493,-1.687628 0.223027,-1.9119139 1.209951,-2.2261866 2.365978,-2.1886656 1.338628,0.043444 2.104461,0.140367 2.483882,2.1982796 z"
         sodipodi:nodetypes="sssss" />
      <ellipse
         style="fill:#000000;fill-opacity:1;stroke:#18170e;stroke-width:0.1;stroke-linecap:round;stroke-dasharray:none;stroke-opacity:1"
         id="path16"
         cx="14.658899"
         cy="8.6913271"
         rx="1.9697018"
         ry="0.53707051"
         transform="matrix(0.99999803,0.00198244,0,1,0,0)" />
      <path
         style="fill:#2d493d;fill-opacity:1;stroke:#28341e;stroke-width:0.172468;stroke-linecap:round;stroke-dasharray:none;stroke-opacity:1"
         d="M 14.680653,9.5912181 14.618547,9.0130074"
         id="path19-7"
         sodipodi:nodetypes="cc" />
      <path
         style="fill:#2d493d;fill-opacity:1;stroke:#28341e;stroke-width:0.137973;stroke-linecap:round;stroke-dasharray:none;stroke-opacity:1"
         d="M 16.590924,8.7862138 16.164822,8.3730366"
         id="path19-3-3"
         sodipodi:nodetypes="cc" />
      <path
         style="fill:#2d493d;fill-opacity:1;stroke:#28341e;stroke-width:0.120727;stroke-linecap:round;stroke-dasharray:none;stroke-opacity:1"
         d="M 13.544537,9.3282707 13.66376,8.747217"
         id="path19-3-1-7"
         sodipodi:nodetypes="cc" />
      <path
         d="M 12.341491,8.0799541"
         style="fill:#2d493d;fill-opacity:1;stroke:#28341e;stroke-width:0.137973;stroke-linecap:round;stroke-dasharray:none;stroke-opacity:1"
         id="path1-9" />
      <path
         id="path17-0"
         style="fill:#837131;fill-opacity:1;stroke:#18170e;stroke-width:0;stroke-linecap:round"
         d="M 16.898724,7.4759588 C 17.19999,8.2189458 16.273753,9.0841885 15.142094,9.3146647 14.010437,9.5451451 12.870065,9.1088452 12.800625,8.3105869 12.656776,6.6569368 13.43577,6.2199913 14.418726,6.0508032 15.556945,5.8548877 16.220647,5.8036766 16.898724,7.4759588 Z"
         sodipodi:nodetypes="sssss" />
      <ellipse
         style="fill:#000000;fill-opacity:1;stroke:#18170e;stroke-width:0.0862338;stroke-linecap:round;stroke-dasharray:none;stroke-opacity:1"
         id="path16-3"
         cx="12.958954"
         cy="9.2129536"
         rx="1.6985482"
         ry="0.4631362"
         transform="matrix(0.97988448,-0.19956554,0.20150771,0.97948693,0,0)" />
      <path
         style="fill:#2d493d;fill-opacity:1;stroke:#18170e;stroke-width:0;stroke-linecap:round;stroke-dasharray:none;stroke-opacity:1"
         d="m 12.611535,8.7025296 c 1.38987,0.9350741 2.891756,0.5032169 4.09143,0.029795 l -0.36171,1.5649664 -3.295296,-0.213822 z"
         id="path18"
         sodipodi:nodetypes="ccccc" />
      <g
         id="g2"
         transform="rotate(6.7646149,-3.4047275,42.911435)">
        <path
           style="fill:#2d493d;fill-opacity:1;stroke:#28341e;stroke-width:0.13875;stroke-linecap:round;stroke-dasharray:none;stroke-opacity:1"
           d="M 9.2893001,5.4547593 9.3783427,4.9890242"
           id="path19-9"
           sodipodi:nodetypes="cc" />
        <path
           style="fill:#2d493d;fill-opacity:1;stroke:#28341e;stroke-width:0.110999;stroke-linecap:round;stroke-dasharray:none;stroke-opacity:1"
           d="M 10.926919,5.2811271 10.701179,4.8575576"
           id="path19-3-8"
           sodipodi:nodetypes="cc" />
        <path
           style="fill:#2d493d;fill-opacity:1;stroke:#28341e;stroke-width:0.097125;stroke-linecap:round;stroke-dasharray:none;stroke-opacity:1"
           d="M 8.4899568,4.9795337 8.7171277,4.5546973"
           id="path19-3-1-6"
           sodipodi:nodetypes="cc" />
        <path
           d="M 7.8718544,3.7198684"
           style="fill:#2d493d;fill-opacity:1;stroke:#28341e;stroke-width:0.110999;stroke-linecap:round;stroke-dasharray:none;stroke-opacity:1"
           id="path1-5" />
        <path
           id="path17-7"
           style="fill:#5b9392;fill-opacity:1;stroke:#18170e;stroke-width:0;stroke-linecap:round"
           d="M 9.5642741,2.6060425 C 9.2729324,2.6063886 9.0030315,2.6675441 8.7736247,2.8427205 L 8.542631,2.8189494 8.5850057,3.0251383 C 8.4056115,3.241039 8.2611514,3.5566928 8.1653931,4.0090576 8.0301057,4.648159 8.7921918,5.2597011 9.7043172,5.3490275 10.616443,5.438354 11.522015,4.9836685 11.468551,4.3325521 11.432286,3.8908933 11.359985,3.5720481 11.252026,3.3382975 L 11.327991,3.1073039 11.094413,3.083016 C 10.83238,2.7661179 10.442658,2.6985454 9.9244588,2.6313639 9.8018071,2.6154625 9.6812275,2.6059035 9.5642741,2.6060425 Z" />
        <ellipse
           style="fill:#3d3d3d;fill-opacity:1;stroke:#18170e;stroke-width:0.069375;stroke-linecap:round;stroke-dasharray:none;stroke-opacity:1"
           id="path16-2"
           cx="10.17392"
           cy="1.9828038"
           rx="1.3479229"
           ry="0.37772205"
           transform="matrix(0.99523886,0.09746598,-0.09543808,0.99543537,0,0)" />
      </g>
      <path
         style="fill:#7f724d;fill-opacity:1;stroke:#18170e;stroke-width:0;stroke-linecap:round;stroke-dasharray:none;stroke-opacity:1"
         d="m 12.795799,6.6898933 c 1.48854,0.3543314 2.636552,0.1582178 3.487576,-0.5972014 l -0.03358,1.3846999 -2.820523,0.3920121 z"
         id="path18-2"
         sodipodi:nodetypes="ccccc" />
    </g>
  </g>
</svg>
