<?xml version="1.0" encoding="UTF-8" standalone="no"?>
<!-- Created with Inkscape (http://www.inkscape.org/) -->

<svg
   width="15mm"
   height="15mm"
   viewBox="0 0 15 15"
   version="1.1"
   id="svg1"
   inkscape:export-filename="plague-pit.png"
   inkscape:export-xdpi="96"
   inkscape:export-ydpi="96"
   inkscape:version="1.3.2 (091e20e, 2023-11-25)"
   sodipodi:docname="plague-pit.svg"
   xml:space="preserve"
   xmlns:inkscape="http://www.inkscape.org/namespaces/inkscape"
   xmlns:sodipodi="http://sodipodi.sourceforge.net/DTD/sodipodi-0.dtd"
   xmlns="http://www.w3.org/2000/svg"
   xmlns:svg="http://www.w3.org/2000/svg"><sodipodi:namedview
     id="namedview1"
     pagecolor="#ffffff"
     bordercolor="#000000"
     borderopacity="0.25"
     inkscape:showpageshadow="2"
     inkscape:pageopacity="0.0"
     inkscape:pagecheckerboard="0"
     inkscape:deskcolor="#d1d1d1"
     inkscape:document-units="mm"
     showguides="false"
     inkscape:zoom="13.5924"
     inkscape:cx="24.830052"
     inkscape:cy="27.956799"
     inkscape:window-width="1728"
     inkscape:window-height="1051"
     inkscape:window-x="3440"
     inkscape:window-y="463"
     inkscape:window-maximized="1"
     inkscape:current-layer="layer1" /><defs
     id="defs1"><filter
       inkscape:collect="always"
       style="color-interpolation-filters:sRGB"
       id="filter2"
       x="-0.039537709"
       y="-0.038521965"
       width="1.0790754"
       height="1.0770439"><feGaussianBlur
         inkscape:collect="always"
         stdDeviation="0.17505515"
         id="feGaussianBlur2" /></filter></defs><g
     inkscape:label="Layer 1"
     inkscape:groupmode="layer"
     id="layer1"><ellipse
       style="fill:#000000;fill-opacity:0.143426;stroke:#c00707;stroke-width:0.165;stroke-dasharray:none;stroke-opacity:0.421348"
       id="path5"
       cx="7.4724536"
       cy="11.982809"
       rx="0.24757871"
       ry="0.26408395" /><path
       style="mix-blend-mode:normal;fill:#ffffff;fill-opacity:1;stroke:none;stroke-width:0.2;stroke-linecap:round;stroke-linejoin:bevel;stroke-dasharray:none;filter:url(#filter2)"
       d="M 7.7663357,2.9624535 C 6.2412502,2.8326969 5.6050997,2.975539 4.5003848,3.1642527 L 4.1554235,4.3383241 C 3.4564846,4.6972386 2.2736011,4.7869379 2.1559344,5.8043784 L 3.7020576,6.4528804 3.5657988,6.8052261 C 2.3578939,7.6463426 0.96114793,8.6398368 1.452728,10.71378 2.4753176,10.343531 3.0289253,9.6989801 4.8601153,9.6141192 l -0.021192,0.5543848 -1.2713989,1.388432 c 0.1897712,0.974284 0.040355,0.583524 1.4554585,2.225932 0.7626883,0.194143 2.0540176,-0.428644 3.0673628,-1.136866 0.645546,-0.516204 1.2133701,-1.11013 2.1534883,-1.331762 L 11.919072,11.05577 10.32884,9.132418 10.215498,8.820729 C 9.7685743,8.4974776 9.5144169,8.050305 9.7904676,7.2622843 10.418781,7.2901273 11.142697,7.3765417 11.97771,6.9062461 11.871209,6.4441662 11.293494,5.5770702 10.073822,5.3921505 L 10.32884,3.9470471 C 9.5768622,3.621554 9.0781177,3.1013451 7.7663357,2.9624535 Z"
       id="path2"
       sodipodi:nodetypes="ccccccccccccccccccccc" /><path
       style="fill:#000000"
       d="m 5.1660698,13.333167 c -0.104634,-0.04061 -0.4275664,-0.360432 -0.6000573,-0.594274 -0.2630541,-0.356618 -0.47712,-0.805579 -0.4791412,-1.004906 -8.792e-4,-0.0867 0.00284,-0.09721 0.080454,-0.227333 0.1814782,-0.304257 0.4569453,-0.623708 0.7898351,-0.91595 0.1139551,-0.10004 0.2071911,-0.191473 0.2071911,-0.203185 0,-0.01171 -0.027356,-0.07506 -0.060792,-0.140768 C 5.0701248,10.18104 5.0385938,10.104125 5.0334928,10.075829 5.0148878,9.9726323 5.0928698,9.8630477 5.261653,9.7552069 5.311455,9.7233869 5.355329,9.6949459 5.359151,9.6920049 5.371712,9.6823349 5.275791,9.6054699 5.2511008,9.6054169 5.2098674,9.6053278 5.1439637,9.556449 5.0302804,9.4416415 4.9449332,9.3554502 4.9055257,9.3261722 4.8512673,9.308643 4.7158542,9.2648951 4.5388528,9.2436799 4.3102434,9.2437963 3.9792331,9.2439648 3.7202073,9.2773839 3.451408,9.3546019 2.9008793,9.5127523 2.420873,9.7450711 1.8825586,10.113911 1.6916357,10.244727 1.6311406,10.263654 1.6285827,10.193372 1.616891,9.8721216 1.6771317,9.5577096 1.8164214,9.2129912 2.0285791,8.687937 2.2399969,8.3680475 2.6381344,7.9696837 2.9927147,7.6149018 3.3398858,7.3430099 3.9955029,6.9066416 4.1141271,6.8276872 4.2108416,6.759235 4.2104239,6.7545256 4.2100062,6.7498162 4.1954517,6.7146545 4.1780806,6.6763886 4.116706,6.54119 4.1247706,6.4236418 4.2034589,6.3064777 4.2322323,6.2636352 4.2395366,6.2426661 4.2278558,6.2364396 4.218686,6.2315516 4.0984729,6.2009663 3.9607157,6.1684721 3.6755309,6.1012029 3.2231641,5.9554073 3.0520154,5.8756026 2.829798,5.7719852 2.657862,5.6469139 2.6097585,5.553892 2.5091399,5.3593171 2.7583614,5.1962259 3.298328,5.1032903 4.0172406,4.9795557 4.4614945,5.0030095 5.7835634,5.2344952 c 0.260208,0.045561 0.523199,0.089667 0.5844245,0.098013 0.096725,0.013186 0.4478787,0.072372 1.5028057,0.2532918 0.137757,0.023625 0.372571,0.066872 0.521808,0.096103 0.149237,0.029231 0.359003,0.069744 0.466148,0.090028 0.4852827,0.09187 1.0784147,0.2412319 1.5285234,0.3849117 0.167209,0.053375 0.307205,0.093856 0.311103,0.089958 C 10.709566,6.2356067 10.230156,6.0000295 9.9587093,5.8833394 9.4061833,5.64582 8.8851886,5.4885259 8.2563846,5.3693892 7.9598836,5.3132125 7.1175216,5.18156 6.7854336,5.1394948 6.0986646,5.0525025 5.14639,4.97257 4.7902133,4.9720191 l -0.1306284,-2.02e-4 0.00858,-0.073053 c 0.00472,-0.040179 0.01256,-0.1795019 0.017427,-0.3096059 0.00742,-0.1983544 0.00401,-0.2734082 -0.021123,-0.4647892 -0.032697,-0.2489841 -0.0276,-0.3260393 0.027568,-0.4167554 0.069301,-0.1139562 0.445302,-0.2110987 1.0289124,-0.2658267 0.559264,-0.052445 0.9799063,-0.050501 1.5345033,0.00709 0.564849,0.058658 1.482397,0.2879056 1.9998727,0.4996658 0.184416,0.075466 0.426494,0.1937185 0.463027,0.2261835 0.03549,0.031539 0.07895,0.1254542 0.07935,0.1714749 6.06e-4,0.070133 -0.04346,0.2038161 -0.110741,0.3359607 -0.03773,0.074113 -0.07804,0.1711688 -0.08958,0.2156804 -0.0299,0.1154129 -0.118239,0.6073014 -0.111128,0.6188078 0.0033,0.0053 0.03875,0.020384 0.07884,0.033525 0.275168,0.090201 0.8291197,0.327026 1.1860787,0.5070709 0.406787,0.2051776 0.627479,0.3540197 0.682407,0.4602377 0.05396,0.104357 0.0053,0.204711 -0.13277,0.273639 -0.173999,0.086882 -0.434772,0.1330016 -0.895278,0.1583369 -0.26157,0.014391 -0.7974117,0.00828 -0.9143887,-0.010422 l -0.05011,-0.00801 -0.02454,0.1857654 c -0.0135,0.102171 -0.05841,0.3552922 -0.09981,0.5624915 -0.0414,0.2071994 -0.07527,0.3984309 -0.07527,0.4249588 0,0.139117 0.103557,0.3769954 0.244577,0.561813 0.134601,0.1764059 0.152517,0.2222953 0.149458,0.3828182 -0.0014,0.072705 -0.0045,0.1506004 -0.0069,0.1731005 -0.004,0.036635 0.0036,0.045498 0.0721,0.084835 0.5366197,0.3079984 0.8665397,0.5443532 1.1739607,0.8410271 0.223784,0.21596 0.38749,0.444374 0.419853,0.585808 l 0.0082,0.03586 -0.101787,-0.01282 c -0.123364,-0.01554 -0.409994,-0.0036 -0.609329,0.02547 -0.331108,0.04822 -0.7937057,0.180958 -1.1098957,0.318484 -0.381871,0.166074 -0.8404867,0.42783 -1.2421117,0.708915 -0.989199,0.692307 -1.549996,1.027335 -2.1220174,1.267718 -0.3158601,0.132736 -0.4075436,0.164558 -0.6122542,0.212502 -0.2155974,0.05049 -0.2947966,0.06063 -0.3391962,0.04339 z m 1.6742118,-1.123303 c 0.167923,-0.111865 0.41526,-0.281119 0.549637,-0.376119 1.124324,-0.794865 1.6999987,-1.118736 2.3245947,-1.307801 0.265603,-0.0804 0.4554237,-0.124145 0.6233847,-0.143669 l 0.145262,-0.01689 -0.03297,-0.02726 c -0.05259,-0.04347 -0.24531,-0.127928 -0.37389,-0.163857 -0.1038947,-0.02903 -0.1478847,-0.03305 -0.3617867,-0.03303 -0.280618,2.8e-5 -0.370951,0.01547 -0.667914,0.114175 -0.2425947,0.08064 -0.3869977,0.140529 -0.5075227,0.210505 -0.05337,0.03099 -0.100331,0.05288 -0.104361,0.04864 -0.004,-0.0042 0.04277,-0.05459 0.103992,-0.111902 0.243731,-0.228163 0.5692547,-0.400756 0.9604177,-0.5092144 0.203859,-0.056525 0.215952,-0.061705 0.178754,-0.076579 -0.132536,-0.052996 -0.420785,-0.064283 -0.610229,-0.023894 -0.1872887,0.039929 -0.3947657,0.1166872 -0.5915597,0.2188526 -0.277585,0.144108 -0.722185,0.44093 -0.994913,0.664219 -0.134907,0.110452 -1.0519092,0.892857 -1.1688492,0.997287 l -0.083489,0.07456 0.1113189,-0.04684 C 6.6033716,11.590323 6.7332766,11.5283 7.0219866,11.37553 c 0.16837,-0.08909 0.368744,-0.195028 0.445276,-0.235411 0.200578,-0.105836 0.706432,-0.352793 0.711751,-0.347474 0.02227,0.02227 -0.890784,0.953858 -1.176093,1.199978 -0.192741,0.166266 -0.428253,0.350695 -0.5688371,0.445456 -0.063139,0.04256 -0.1147977,0.08067 -0.1147977,0.0847 0,0.01829 0.2420248,-0.127078 0.5209958,-0.312918 z m -1.9826845,-0.03936 c 9.04e-4,-0.02329 0.1958871,-0.514208 0.2726776,-0.686529 0.03581,-0.08036 0.089405,-0.20195 0.1191013,-0.270203 0.029696,-0.06825 0.063915,-0.139241 0.076043,-0.15775 0.012128,-0.01851 0.019194,-0.03651 0.015703,-0.04 -0.00913,-0.0091 -0.1342539,0.189298 -0.2164822,0.343297 -0.1297427,0.242984 -0.2700012,0.643518 -0.2994686,0.855186 l -0.00775,0.05566 0.019773,-0.04175 c 0.010875,-0.02296 0.020056,-0.04902 0.020401,-0.05792 z m 1.6151231,-1.674556 c 0.4899324,-0.09983 0.9648174,-0.336295 1.7737744,-0.8832363 0.198983,-0.1345335 0.495461,-0.3336531 0.658839,-0.442488 l 0.2970527,-0.1978816 -0.08616,-0.00418 c -0.2177967,-0.010558 -0.5854797,0.1789258 -1.4229537,0.733313 -0.393388,0.2604133 -0.538478,0.3487609 -0.728707,0.4437209 -0.371962,0.185679 -0.6579779,0.26157 -1.0418505,0.276444 -0.1792354,0.0069 -0.3278257,-0.0059 -0.5078927,-0.04374 -0.019133,-0.004 0.00577,0.01217 0.055341,0.03599 0.097328,0.04678 0.2520189,0.09011 0.3923871,0.109915 0.1393015,0.01966 0.4455875,0.0057 0.6101727,-0.02787 z M 6.7851926,9.6751906 c 0.231698,-0.141815 0.556095,-0.4086008 0.775257,-0.6375755 0.304926,-0.3185787 0.489053,-0.5752228 0.645549,-0.8997935 0.114721,-0.2379312 0.16431,-0.3785789 0.233846,-0.6632567 0.07095,-0.2904692 0.09273,-0.4583367 0.09904,-0.7633891 0.006,-0.291691 0.008,-0.2921677 -0.05657,0.013915 -0.08056,0.3820511 -0.242591,0.809008 -0.462056,1.2175511 -0.503841,0.9379199 -0.919431,1.4505836 -1.5201444,1.8752188 -0.054367,0.038431 0.1845324,-0.081125 0.2850834,-0.14267 z M 2.4370377,9.2170272 C 3.0698238,8.7371017 3.6237305,8.5073664 4.4338212,8.3888523 c 0.434465,-0.063561 0.8384788,-0.061678 1.3013275,0.00606 0.16182,0.023684 0.3427492,0.041703 0.418749,0.041703 0.1255968,0 0.1399156,-0.00305 0.2330367,-0.049637 C 6.5738746,8.2934606 6.8232206,8.0097429 6.9751626,7.7176665 7.1161006,7.4467457 7.1607316,7.2543296 7.1602076,6.9198989 7.1597776,6.6461638 7.1298006,6.4900287 7.0472436,6.3315344 6.9403846,6.1263864 6.7989686,6.0273874 6.4541713,5.916351 6.0927359,5.7999566 5.7624004,5.758344 5.2703361,5.7672224 4.8400172,5.7749868 4.8376586,5.77659 4.6288074,6.2032831 l -0.129406,0.2643825 0.1272309,0.00977 c 0.1077084,0.00827 0.1948358,0.025883 0.3637836,0.073549 0.022232,0.00627 0.037391,-0.00748 0.075363,-0.068392 0.026143,-0.041938 0.089811,-0.1198882 0.1414843,-0.1732271 0.107435,-0.1108976 0.2315627,-0.1788957 0.4097644,-0.224472 0.4353707,-0.1113491 0.8715596,0.1497728 0.988058,0.5914951 0.03436,0.1302816 0.04123,0.3308154 0.01512,0.4415185 C 6.5363446,7.4734404 6.2583327,7.7653626 5.9465214,7.8252944 5.8175177,7.8500896 5.5679234,7.8354666 5.4672795,7.7972171 5.3567256,7.7552013 5.1992246,7.6385799 5.1186981,7.5391106 5.0019,7.3948373 4.9162692,7.1861502 4.8926874,6.9883102 l -0.00926,-0.077695 -0.093599,-0.030145 c -0.051479,-0.01658 -0.104376,-0.030145 -0.1175483,-0.030145 -0.032127,0 -0.3202108,0.1581188 -0.5440918,0.2986321 C 3.8381621,7.330984 3.5742909,7.5244529 3.3345467,7.73085 3.1728911,7.8700201 2.7897705,8.2638054 2.6710976,8.4127671 2.4185092,8.7298236 2.1920438,9.1145679 2.0919154,9.3967457 c -0.023083,0.065052 -0.046869,0.1307997 -0.052857,0.1461061 -0.00599,0.015306 0.045103,-0.024435 0.1135354,-0.088315 0.068433,-0.06388 0.1964323,-0.1707589 0.2844438,-0.2375097 z M 3.9894208,7.7394151 c 0.102257,-0.1081029 0.3662031,-0.2492767 0.5315897,-0.2843252 0.1056649,-0.022392 0.253725,-0.026864 0.253725,-0.00766 0,0.022315 -0.088161,0.088093 -0.1619793,0.1208562 -0.039343,0.017462 -0.1570968,0.054451 -0.2616752,0.082199 -0.1045784,0.027748 -0.2351927,0.068809 -0.2902539,0.091247 -0.055061,0.022438 -0.1028483,0.040818 -0.1061934,0.040844 -0.00335,2.62e-5 0.012309,-0.019395 0.034787,-0.043158 z M 6.2917769,9.4098163 C 6.9297306,9.082122 7.3443066,8.5560111 7.5630456,7.7965357 c 0.100705,-0.3496517 0.146757,-0.778332 0.120569,-1.1223219 -0.01393,-0.1830096 -0.03788,-0.3666713 -0.0493,-0.3780909 -0.0029,-0.0029 -0.0055,0.059822 -0.0059,0.1393771 -9.8e-4,0.2383055 -0.0624,0.6324204 -0.148947,0.9557188 -0.09634,0.3599009 -0.305398,0.8482715 -0.509801,1.1909343 -0.2278,0.3818885 -0.5383865,0.7262869 -0.779098,0.8639154 -0.1034696,0.05916 -0.040993,0.036772 0.1011713,-0.036252 z m -3.12944,-0.2551816 c 0.076882,-0.042156 0.4385557,-0.175572 0.6035707,-0.2226476 0.2801149,-0.079911 0.8191258,-0.1649906 1.1977509,-0.1890566 0.2094703,-0.013314 0.4708108,-0.00375 0.6181393,0.022621 0.026786,0.00479 0.045571,0.00528 0.041745,0.00109 C 5.6062319,8.7476537 5.2256689,8.6851359 5.0369261,8.6702706 4.7779808,8.6498761 4.4439516,8.6704078 4.1972685,8.7218815 3.8387633,8.7966884 3.4443379,8.9484362 3.2023554,9.1046557 3.0678522,9.1914885 3.0465062,9.2181476 3.1623369,9.1546347 Z M 8.4130516,8.5928002 c 0.306465,-0.380521 0.517783,-0.8358158 0.6182197,-1.331987 0.05618,-0.2775417 0.07921,-0.5437438 0.0626,-0.7235732 l -0.01285,-0.1391487 -0.018,0.1873669 c -0.02038,0.2121283 -0.07063,0.4795958 -0.1229507,0.6544827 -0.120603,0.403111 -0.537335,1.2932359 -0.715929,1.5291998 -0.0298,0.039366 -0.05417,0.075882 -0.05417,0.081147 0,0.020126 0.132748,-0.1204857 0.243088,-0.2574876 z M 5.9654566,7.5786693 C 6.1725452,7.5090355 6.3410037,7.3157753 6.395264,7.0855823 6.5111647,6.5938875 6.0669808,6.1363972 5.6113655,6.2782007 5.4945884,6.3145458 5.4198502,6.3614552 5.3338609,6.4523761 5.1176317,6.6810067 5.090674,7.0775502 5.273535,7.3397628 5.341827,7.4376898 5.4762816,7.538075 5.5855029,7.572681 5.6962239,7.607762 5.8707551,7.610513 5.9654566,7.578671 Z M 5.6522278,7.4352146 C 5.5032339,7.3799516 5.4282796,7.3059292 5.3518971,7.1386178 5.2093925,6.82647 5.4177704,6.4285839 5.7412346,6.3951994 6.044732,6.3638757 6.3020451,6.679472 6.2489047,7.0178603 6.1989323,7.3360758 5.9168663,7.5333709 5.6522278,7.4352146 Z M 9.1781813,5.1074871 c 0.02715,-0.1366634 0.08496,-0.3080067 0.165465,-0.4904992 0.08323,-0.1886682 0.08995,-0.1695455 -0.09111,-0.2594691 C 8.7658696,4.1158062 8.0969426,3.9263969 7.4463876,3.8461007 7.3201096,3.8305147 7.1604366,3.8108427 7.0915576,3.8023857 6.8866676,3.7772287 6.2640471,3.7692017 6.002943,3.7883517 c -0.369647,0.02711 -0.3769579,0.03595 -0.038489,0.04654 0.3252325,0.010176 0.6380666,0.037014 0.8381946,0.071909 0.518011,0.090322 1.005525,0.2966694 1.005525,0.4256034 0,0.031624 -0.05214,0.076469 -0.125233,0.1077035 -0.05829,0.024911 -0.465986,0.1282916 -0.591382,0.1499593 -0.03061,0.00529 -0.06427,0.0142 -0.0748,0.019801 -0.02321,0.012348 -0.03481,0.00936 0.323866,0.083603 0.152292,0.031525 0.371451,0.082752 0.48702,0.1138374 0.115569,0.031085 0.275874,0.074136 0.356232,0.095669 0.158104,0.042365 0.679792,0.2200731 0.8488067,0.2891376 0.0574,0.023455 0.107863,0.042969 0.112142,0.043365 0.0043,3.961e-4 0.01929,-0.0572 0.03335,-0.1279928 z"
       id="path1" /></g></svg>
