<?xml version="1.0" encoding="UTF-8" standalone="no"?>
<!-- Created with Inkscape (http://www.inkscape.org/) -->

<svg
   width="15mm"
   height="15mm"
   viewBox="0 0 15 15"
   version="1.1"
   id="svg1"
   inkscape:export-filename="podcast-episode.png"
   inkscape:export-xdpi="96"
   inkscape:export-ydpi="96"
   inkscape:version="1.3.2 (091e20e, 2023-11-25)"
   sodipodi:docname="podcast-episode.svg"
   xmlns:inkscape="http://www.inkscape.org/namespaces/inkscape"
   xmlns:sodipodi="http://sodipodi.sourceforge.net/DTD/sodipodi-0.dtd"
   xmlns:xlink="http://www.w3.org/1999/xlink"
   xmlns="http://www.w3.org/2000/svg"
   xmlns:svg="http://www.w3.org/2000/svg">
  <sodipodi:namedview
     id="namedview1"
     pagecolor="#ffffff"
     bordercolor="#000000"
     borderopacity="0.25"
     inkscape:showpageshadow="2"
     inkscape:pageopacity="0.0"
     inkscape:pagecheckerboard="0"
     inkscape:deskcolor="#d1d1d1"
     inkscape:document-units="mm"
     showguides="false"
     inkscape:zoom="8.3972233"
     inkscape:cx="11.432351"
     inkscape:cy="36.916965"
     inkscape:window-width="1792"
     inkscape:window-height="993"
     inkscape:window-x="0"
     inkscape:window-y="37"
     inkscape:window-maximized="0"
     inkscape:current-layer="layer1" />
  <defs
     id="defs1">
    <linearGradient
       id="linearGradient6"
       inkscape:collect="always">
      <stop
         style="stop-color:#9b9b9b;stop-opacity:1;"
         offset="0"
         id="stop7" />
      <stop
         style="stop-color:#c9c9c9;stop-opacity:1;"
         offset="1"
         id="stop8" />
    </linearGradient>
    <linearGradient
       id="linearGradient1"
       inkscape:collect="always">
      <stop
         style="stop-color:#cfcfcf;stop-opacity:1;"
         offset="0"
         id="stop2" />
      <stop
         style="stop-color:#696969;stop-opacity:1;"
         offset="0.81184667"
         id="stop1" />
    </linearGradient>
    <radialGradient
       inkscape:collect="always"
       xlink:href="#linearGradient1"
       id="radialGradient2"
       cx="6.5222454"
       cy="8.5860472"
       fx="6.5222454"
       fy="8.5860472"
       r="3.1248095"
       gradientTransform="matrix(0.84895833,0,0,0.28227338,0.87485132,6.2412057)"
       gradientUnits="userSpaceOnUse" />
    <linearGradient
       inkscape:collect="always"
       xlink:href="#linearGradient6"
       id="linearGradient8"
       x1="9.4843817"
       y1="2.6155097"
       x2="8.0736885"
       y2="2.6064491"
       gradientUnits="userSpaceOnUse"
       spreadMethod="reflect"
       gradientTransform="translate(-0.09082026,0.02011667)" />
  </defs>
  <g
     inkscape:label="Layer 1"
     inkscape:groupmode="layer"
     id="layer1">
    <path
       id="rect2-7"
       style="fill:#000000;fill-opacity:0.321285;stroke:none;stroke-width:0.1;stroke-linecap:round;stroke-linejoin:round"
       d="M 11.06931,7.9407099 C 10.625581,7.9366205 10.083368,8.0918883 9.7768621,8.3228128 L 7.6323427,9.9387501 C 7.2820502,10.202663 7.3762426,10.462373 7.8434222,10.521067 l 0.3755851,0.04705 -1.0014731,1.317531 c -0.084272,0.110868 0.016618,0.200214 0.226086,0.200214 h 0.6092651 c 0.2094678,0 0.4461845,-0.08934 0.530457,-0.200214 L 9.5313839,10.63841 C 9.8690344,10.58114 10.20829,10.454896 10.427223,10.28995 L 12.571742,8.6740083 C 12.922035,8.4100945 12.827843,8.150385 12.360663,8.0916911 l -1.108056,-0.13922 c -0.0584,-0.00733 -0.119907,-0.011177 -0.183297,-0.011761 z" />
    <ellipse
       style="fill:#000000;fill-opacity:0.143426;stroke:#c00707;stroke-width:0.165;stroke-dasharray:none;stroke-opacity:0.421348"
       id="path5"
       cx="7.4724536"
       cy="11.982809"
       rx="0.24757871"
       ry="0.26408395" />
    <g
       id="g11"
       transform="matrix(1.2748936,0,0,1.2722338,-1.02216,1.0156621)"
       style="stroke-width:0.785199">
      <ellipse
         style="fill:url(#radialGradient2);stroke:#000000;stroke-width:0.15704;stroke-linecap:round;stroke-linejoin:round;stroke-dasharray:none;stroke-opacity:1"
         id="path1"
         cx="6.4119658"
         cy="8.6648188"
         rx="2.5679371"
         ry="0.78771079" />
      <rect
         style="fill:#9b9b9b;fill-opacity:1;stroke:#000000;stroke-width:0.0785199;stroke-linecap:round;stroke-linejoin:round;stroke-dasharray:none;stroke-opacity:1"
         id="rect2"
         width="1.0712866"
         height="3.1193347"
         x="5.9866023"
         y="5.4509587"
         ry="0.29719472"
         rx="0.29657468" />
      <g
         id="g10"
         transform="translate(-0.25206745,0.25206745)"
         style="stroke-width:0.785199">
        <rect
           style="fill:url(#linearGradient8);stroke:#000000;stroke-width:0.0786369;stroke-linecap:round;stroke-linejoin:round;stroke-dasharray:none;stroke-opacity:1"
           id="rect3"
           width="2.4576576"
           height="3.981941"
           x="6.6678061"
           y="0.63455474"
           ry="0.73851132"
           rx="0.74150634"
           transform="matrix(0.97722995,0.21218301,-0.28697672,0.95793756,0,0)" />
        <g
           id="path8"
           style="fill:#8b8b8b;fill-opacity:1;stroke:#000000;stroke-width:0.0611041;stroke-dasharray:none;stroke-opacity:1"
           transform="matrix(1.4615819,0,0,1.1297834,2.7616743,-1.6505907)">
          <path
             style="color:#000000;fill:#8b8b8b;fill-opacity:1;stroke:#000000;stroke-width:0.0611041;stroke-linecap:round;stroke-linejoin:round;stroke-dasharray:none;stroke-opacity:1"
             d="m 2.048048,5.198891 c 0.3150843,0 1.4808962,0.4726265 1.4808962,0.4726265"
             id="path9" />
          <path
             style="color:#000000;fill:#8b8b8b;fill-opacity:1;stroke:#000000;stroke-width:0.0611041;stroke-linecap:round;stroke-linejoin:round;stroke-dasharray:none;stroke-opacity:1"
             d="m 2.0488281,4.9492187 a 0.25,0.25 0 0 0 -0.25,0.25 0.25,0.25 0 0 0 0.25,0.25 c 0.016271,0 0.1495194,0.02251 0.2949219,0.064453 0.1454025,0.041943 0.3160558,0.098229 0.4785156,0.15625 0.3249198,0.1160428 0.6132813,0.2324219 0.6132813,0.2324218 A 0.25,0.25 0 0 0 3.7597656,5.765625 0.25,0.25 0 0 0 3.6230469,5.4394531 c 0,0 -0.2960559,-0.1199641 -0.6328125,-0.2402344 C 2.8218561,5.1390836 2.6442263,5.0798775 2.4824219,5.0332031 2.3206175,4.9865288 2.1900991,4.9492187 2.0488281,4.9492187 Z"
             id="path10" />
        </g>
        <g
           id="path8-4-0"
           style="fill:#8b8b8b;fill-opacity:1;stroke:#000000;stroke-width:0.0843233;stroke-dasharray:none;stroke-opacity:1"
           transform="matrix(-0.55299753,1.0299184,0.65431979,0.34934656,5.8791785,-1.3201247)">
          <path
             style="color:#000000;fill:#8b8b8b;fill-opacity:1;stroke:#000000;stroke-width:0.0843233;stroke-linecap:round;stroke-linejoin:round;stroke-dasharray:none;stroke-opacity:1"
             d="m 2.048048,5.198891 c 0.3150843,0 1.4808962,0.4726265 1.4808962,0.4726265"
             id="path9-1-6" />
          <path
             style="color:#000000;fill:#8b8b8b;fill-opacity:1;stroke:#000000;stroke-width:0.0843233;stroke-linecap:round;stroke-linejoin:round;stroke-dasharray:none;stroke-opacity:1"
             d="m 2.0488281,4.9492187 a 0.25,0.25 0 0 0 -0.25,0.25 0.25,0.25 0 0 0 0.25,0.25 c 0.016271,0 0.1495194,0.02251 0.2949219,0.064453 0.1454025,0.041943 0.3160558,0.098229 0.4785156,0.15625 0.3249198,0.1160428 0.6132813,0.2324219 0.6132813,0.2324218 A 0.25,0.25 0 0 0 3.7597656,5.765625 0.25,0.25 0 0 0 3.6230469,5.4394531 c 0,0 -0.2960559,-0.1199641 -0.6328125,-0.2402344 C 2.8218561,5.1390836 2.6442263,5.0798775 2.4824219,5.0332031 2.3206175,4.9865288 2.1900991,4.9492187 2.0488281,4.9492187 Z"
             id="path10-8-0" />
        </g>
        <g
           id="path8-4-0-7"
           style="fill:#8b8b8b;fill-opacity:1;stroke:#000000;stroke-width:0.0843233;stroke-dasharray:none;stroke-opacity:1"
           transform="matrix(-0.55299753,1.0299184,0.65431979,0.34934656,5.2539269,-1.5425805)">
          <path
             style="color:#000000;fill:#8b8b8b;fill-opacity:1;stroke:#000000;stroke-width:0.0843233;stroke-linecap:round;stroke-linejoin:round;stroke-dasharray:none;stroke-opacity:1"
             d="m 2.048048,5.198891 c 0.3150843,0 1.4808962,0.4726265 1.4808962,0.4726265"
             id="path9-1-6-6" />
          <path
             style="color:#000000;fill:#8b8b8b;fill-opacity:1;stroke:#000000;stroke-width:0.0843233;stroke-linecap:round;stroke-linejoin:round;stroke-dasharray:none;stroke-opacity:1"
             d="m 2.0488281,4.9492187 a 0.25,0.25 0 0 0 -0.25,0.25 0.25,0.25 0 0 0 0.25,0.25 c 0.016271,0 0.1495194,0.02251 0.2949219,0.064453 0.1454025,0.041943 0.3160558,0.098229 0.4785156,0.15625 0.3249198,0.1160428 0.6132813,0.2324219 0.6132813,0.2324218 A 0.25,0.25 0 0 0 3.7597656,5.765625 0.25,0.25 0 0 0 3.6230469,5.4394531 c 0,0 -0.2960559,-0.1199641 -0.6328125,-0.2402344 C 2.8218561,5.1390836 2.6442263,5.0798775 2.4824219,5.0332031 2.3206175,4.9865288 2.1900991,4.9492187 2.0488281,4.9492187 Z"
             id="path10-8-0-8" />
        </g>
        <g
           id="path8-4-0-8"
           style="fill:#8b8b8b;fill-opacity:1;stroke:#000000;stroke-width:0.0843233;stroke-dasharray:none;stroke-opacity:1"
           transform="matrix(-0.55299753,1.0299184,0.65431979,0.34934656,4.5862106,-1.6496217)">
          <path
             style="color:#000000;fill:#8b8b8b;fill-opacity:1;stroke:#000000;stroke-width:0.0843233;stroke-linecap:round;stroke-linejoin:round;stroke-dasharray:none;stroke-opacity:1"
             d="m 2.048048,5.198891 c 0.3150843,0 1.4808962,0.4726265 1.4808962,0.4726265"
             id="path9-1-6-4" />
          <path
             style="color:#000000;fill:#8b8b8b;fill-opacity:1;stroke:#000000;stroke-width:0.0843233;stroke-linecap:round;stroke-linejoin:round;stroke-dasharray:none;stroke-opacity:1"
             d="m 2.0488281,4.9492187 a 0.25,0.25 0 0 0 -0.25,0.25 0.25,0.25 0 0 0 0.25,0.25 c 0.016271,0 0.1495194,0.02251 0.2949219,0.064453 0.1454025,0.041943 0.3160558,0.098229 0.4785156,0.15625 0.3249198,0.1160428 0.6132813,0.2324219 0.6132813,0.2324218 A 0.25,0.25 0 0 0 3.7597656,5.765625 0.25,0.25 0 0 0 3.6230469,5.4394531 c 0,0 -0.2960559,-0.1199641 -0.6328125,-0.2402344 C 2.8218561,5.1390836 2.6442263,5.0798775 2.4824219,5.0332031 2.3206175,4.9865288 2.1900991,4.9492187 2.0488281,4.9492187 Z"
             id="path10-8-0-9" />
        </g>
      </g>
    </g>
  </g>
</svg>
