<?xml version="1.0" encoding="UTF-8" standalone="no"?>
<!-- Created with Inkscape (http://www.inkscape.org/) -->

<svg
   width="15mm"
   height="15mm"
   viewBox="0 0 15 15"
   version="1.1"
   id="svg1"
   inkscape:export-filename="revenant.png"
   inkscape:export-xdpi="96"
   inkscape:export-ydpi="96"
   inkscape:version="1.3.2 (091e20e, 2023-11-25)"
   sodipodi:docname="revenant.svg"
   xml:space="preserve"
   xmlns:inkscape="http://www.inkscape.org/namespaces/inkscape"
   xmlns:sodipodi="http://sodipodi.sourceforge.net/DTD/sodipodi-0.dtd"
   xmlns:xlink="http://www.w3.org/1999/xlink"
   xmlns="http://www.w3.org/2000/svg"
   xmlns:svg="http://www.w3.org/2000/svg"><sodipodi:namedview
     id="namedview1"
     pagecolor="#ffffff"
     bordercolor="#000000"
     borderopacity="0.25"
     inkscape:showpageshadow="2"
     inkscape:pageopacity="0.0"
     inkscape:pagecheckerboard="0"
     inkscape:deskcolor="#d1d1d1"
     inkscape:document-units="mm"
     showguides="false"
     inkscape:zoom="3.1022264"
     inkscape:cx="-14.344537"
     inkscape:cy="62.213384"
     inkscape:window-width="1728"
     inkscape:window-height="993"
     inkscape:window-x="0"
     inkscape:window-y="53"
     inkscape:window-maximized="0"
     inkscape:current-layer="layer1" /><defs
     id="defs1"><linearGradient
       id="linearGradient4"
       inkscape:collect="always"><stop
         style="stop-color:#894a25;stop-opacity:1;"
         offset="0"
         id="stop4" /><stop
         style="stop-color:#2a1304;stop-opacity:1;"
         offset="1"
         id="stop5" /></linearGradient><linearGradient
       id="linearGradient1"
       inkscape:collect="always"><stop
         style="stop-color:#996843;stop-opacity:1;"
         offset="0"
         id="stop1" /><stop
         style="stop-color:#43342d;stop-opacity:1;"
         offset="1"
         id="stop2" /></linearGradient><linearGradient
       inkscape:collect="always"
       xlink:href="#linearGradient9"
       id="linearGradient10"
       x1="20.271824"
       y1="115.7833"
       x2="21.441351"
       y2="88.104462"
       gradientUnits="userSpaceOnUse"
       gradientTransform="matrix(0.09849952,0.01347165,0,0.06504877,0.94583618,4.426493)" /><linearGradient
       id="linearGradient9"
       inkscape:collect="always"><stop
         style="stop-color:#1b391a;stop-opacity:1;"
         offset="0"
         id="stop9" /><stop
         style="stop-color:#8eca8d;stop-opacity:1;"
         offset="1"
         id="stop10" /></linearGradient><linearGradient
       inkscape:collect="always"
       xlink:href="#linearGradient9"
       id="linearGradient14"
       gradientUnits="userSpaceOnUse"
       gradientTransform="matrix(0.0617365,-0.00852479,0,0.0789636,11.492913,3.457479)"
       x1="20.271824"
       y1="115.7833"
       x2="21.441351"
       y2="88.104462" /><linearGradient
       inkscape:collect="always"
       xlink:href="#linearGradient1"
       id="linearGradient2"
       x1="6.0850506"
       y1="9.8129807"
       x2="6.1184802"
       y2="11.484697"
       gradientUnits="userSpaceOnUse" /><linearGradient
       inkscape:collect="always"
       xlink:href="#linearGradient4"
       id="linearGradient5"
       x1="11.638043"
       y1="10.380466"
       x2="11.103088"
       y2="12.319659"
       gradientUnits="userSpaceOnUse" /></defs><g
     inkscape:label="Layer 1"
     inkscape:groupmode="layer"
     id="layer1"><path
       style="font-variation-settings:'opsz' 27.6, 'wght' 977;fill:url(#linearGradient2);fill-opacity:0.33541301;stroke:none;stroke-width:0.221;stroke-linecap:square;stroke-linejoin:round;stroke-dasharray:none;stroke-opacity:1"
       d="m 10.498384,9.7628285 0.03343,1.9057575 H 3.3100002 L 1.6048485,9.6290912 Z"
       id="path1" /><path
       style="font-variation-settings:'opsz' 27.6, 'wght' 977;opacity:1;fill:url(#linearGradient5);stroke:none;stroke-width:0.221;stroke-linecap:square;stroke-linejoin:round;stroke-dasharray:none;stroke-opacity:1"
       d="m 10.53471,9.7619317 2.373834,1.9391913 -2.474137,0.03343 0,-1.8054535 z"
       id="path1-1"
       sodipodi:nodetypes="ccccc" /><ellipse
       style="fill:#000000;fill-opacity:0.143426;stroke:#c00707;stroke-width:0.165;stroke-dasharray:none;stroke-opacity:0.421348"
       id="path5"
       cx="7.4724536"
       cy="11.982809"
       rx="0.24757871"
       ry="0.26408395" /><path
       id="rect1"
       style="font-variation-settings:'opsz' 27.6, 'wght' 977;fill:none;fill-opacity:0.335413;stroke:#000000;stroke-width:0.215534;stroke-linecap:square;stroke-linejoin:round"
       transform="matrix(1,0,0.78407889,0.62066118,0,0)"
       d="m -10.656867,15.698468 h 8.7834508 c 0.051786,0 0.093476,0.04169 0.093476,0.09348 v 2.946087 c 0,0.05178 -0.04169,0.09348 -0.093476,0.09348 h -8.7834508 c -0.05179,0 -0.819228,0.02299 -0.804394,-0.03961 l 0.710924,-2.999956 c 0.01483,-0.0626 0.04169,-0.09348 0.09347,-0.09348 z"
       sodipodi:nodetypes="sssssssss" /><path
       style="fill:url(#linearGradient10);stroke:none;stroke-width:1.27186;stroke-linecap:round;stroke-linejoin:round;stroke-dasharray:none;stroke-opacity:1"
       d="m 2.5202086,11.919789 -0.5759899,-1.727097 0.6527885,0.824686 0.115198,-0.466062 0.4223925,0.767815 0.2303959,-0.805328 0.2303958,0.66548 0.345594,-0.307757 -0.0768,1.358872 -0.8782192,0.09315 z"
       id="path9"
       sodipodi:nodetypes="ccccccccccc" /><path
       style="fill:url(#linearGradient14);stroke:none;stroke-width:1.09574;stroke-linecap:round;stroke-linejoin:round;stroke-dasharray:none;stroke-opacity:1"
       d="m 12.479682,12.156053 -0.361013,-1.951069 0.409148,0.836221 0.0722,-0.594854 0.264743,0.825378 0.144405,-1.035791 0.144405,0.749645 0.216609,-0.460878 -0.119623,1.230273 -0.313928,0.51199 z"
       id="path9-5"
       sodipodi:nodetypes="ccccccccccc" /><path
       style="fill:#b40505;fill-opacity:1;stroke-width:0.14934"
       d="m 6.6941864,11.626358 c 0.015332,0.01667 0.025967,0.03534 0.02363,0.04151 -0.00233,0.0062 -0.070433,-0.01021 -0.1513243,-0.03639 -0.080892,-0.02618 -0.1517404,-0.04601 -0.1574414,-0.04407 -0.0057,0.0019 -0.0032,0.03111 0.00556,0.0648 l 0.015924,0.06129 -0.1153678,-0.04524 c -0.063459,-0.0249 -0.1369908,-0.04681 -0.1634099,-0.04872 l -0.048027,-0.0034 0.054582,0.129146 0.054583,0.129144 -0.13582,-0.07923 C 6.002373,11.751608 5.9133837,11.704978 5.879318,11.691567 l -0.061938,-0.02439 0.032659,0.06398 c 0.017976,0.0352 0.045617,0.08944 0.061453,0.120547 l 0.028789,0.05656 -0.052111,-0.01835 c -0.028662,-0.0101 -0.080396,-0.02831 -0.1149627,-0.04047 -0.034565,-0.01216 -0.083239,-0.02129 -0.1081554,-0.02028 -0.042318,0.0017 -0.043669,0.0044 -0.02088,0.03946 0.07463,0.114949 0.07651,0.111847 -0.049476,0.08161 -0.063309,-0.0152 -0.1263365,-0.02381 -0.1400669,-0.01914 -0.013733,0.0047 -0.051648,0.05307 -0.084264,0.107547 l -0.059299,0.09906 -0.1069314,0.0126 c -0.1296534,0.0153 -0.1346224,-0.236858 -0.2933254,-0.477531 -0.013801,-0.0086 -0.031125,-0.03343 -0.038506,-0.05514 -0.00739,-0.02173 -0.018819,-0.03765 -0.025418,-0.0354 -0.062296,0.02118 -0.052065,-0.142362 -0.080495,-0.243384 l 0.00164,-0.194007 c 0.00206,-0.0055 -0.03977,-0.07676 -0.092934,-0.158533 -0.053169,-0.08177 -0.1402473,-0.220393 -0.193505,-0.308047 -0.1202461,-0.197903 -0.1340724,-0.212743 -0.1465439,-0.15728 -0.00833,0.03703 -0.012533,0.03941 -0.040015,0.02279 -0.016893,-0.01024 -0.050088,-0.05554 -0.073757,-0.100682 C 4.1975986,10.397837 4.1021105,10.262373 4.0090706,10.141943 3.8461719,9.9310857 3.5935462,9.5226022 3.4958544,9.3120982 l -0.038379,-0.082722 0.096612,0.067851 c 0.053137,0.03732 0.1003525,0.062385 0.104925,0.055706 0.00457,-0.00668 -0.017559,-0.057397 -0.04918,-0.112707 C 3.5448594,9.1265953 3.4772806,8.9040627 3.4713585,8.7842426 c -0.00307,-0.062212 0.00416,-0.078338 0.051776,-0.1154407 0.03044,-0.023722 0.1267517,-0.079417 0.2140181,-0.1237791 0.1360983,-0.069178 0.1638779,-0.078597 0.1952787,-0.0662 0.034273,0.013529 0.3701279,0.2826346 0.4630882,0.3710532 0.088776,0.084439 0.045184,0.010205 -0.082281,-0.1401251 C 4.2400144,8.6233947 4.1848944,8.551109 4.1907493,8.5491185 c 0.00586,-0.00199 0.078658,0.034656 0.161782,0.081438 0.083125,0.046782 0.1531076,0.079859 0.1555162,0.073505 0.00244,-0.00633 -0.030859,-0.041711 -0.073931,-0.07857 -0.079831,-0.068319 -0.2349101,-0.2434788 -0.2470073,-0.2789934 -0.010567,-0.031024 -0.04301,-0.027043 -0.11403,0.013979 -0.036241,0.02095 -0.091029,0.047129 -0.1217368,0.058196 -0.048247,0.017416 -0.054117,0.015927 -0.043245,-0.010941 C 3.9259194,8.3637611 4.1325045,8.118714 4.226041,8.0305969 4.316793,7.9451059 4.4579497,7.8451091 4.5134188,7.8270175 c 0.021042,-0.00686 0.1383384,3.162e-4 0.2606668,0.015957 0.122327,0.015638 0.2243408,0.023345 0.2266978,0.017127 0.00237,-0.00624 -0.00431,-0.01438 -0.014769,-0.018153 -0.010481,-0.00377 -0.091361,-0.037988 -0.1797445,-0.076049 -0.1838104,-0.079158 -0.1820787,-0.064817 -0.025638,-0.2121818 0.045499,-0.042857 0.098369,-0.099721 0.1174908,-0.1263624 l 0.034769,-0.048436 0.024222,0.04369 c 0.064675,0.1166413 0.07479,0.1083517 0.092856,-0.076101 C 5.0665167,7.1775543 5.0666057,7.177411 5.2874473,6.9599095 5.442414,6.8072869 5.5559392,6.7419899 5.657058,6.7473194 c 0.065926,0.00348 0.1905552,0.057794 0.3597189,0.1567833 0.062317,0.036466 0.1181116,0.064669 0.1239873,0.062671 0.02137,-0.00727 -4.129e-4,-0.032894 -0.072359,-0.085132 -0.1111761,-0.08072 -0.1117239,-0.079246 0.063379,-0.1705102 0.0571,-0.029763 0.070592,-0.029249 0.1487513,0.00552 0.047277,0.021036 0.1120513,0.037367 0.1439428,0.036295 0.1626711,-0.00547 0.165176,-0.00763 0.1417964,-0.1223714 -0.027363,-0.1342881 -0.012006,-0.4219483 0.029756,-0.5574374 0.017527,-0.056871 0.024598,-0.093393 0.01572,-0.081169 -0.066799,0.091916 -0.1027289,0.1724556 -0.1172539,0.2628272 -0.018115,0.1126969 -0.039412,0.1154048 -0.038927,0.00495 1.629e-4,-0.03705 -0.0042,-0.070132 -0.00968,-0.073522 -0.00548,-0.00339 -0.040484,0.020734 -0.077762,0.053604 -0.096965,0.085497 -0.1008126,0.081559 -0.038831,-0.039765 0.0305,-0.059699 0.088932,-0.1774735 0.1298519,-0.2617229 0.04092,-0.084247 0.094978,-0.1835584 0.1201307,-0.2206885 0.025157,-0.037131 0.041588,-0.070075 0.036511,-0.073202 C 6.6107104,5.6413195 6.5531484,5.6871735 6.487859,5.74636 6.422573,5.805539 6.3656631,5.8518097 6.3613988,5.849174 6.3461718,5.839774 6.4598108,5.6541747 6.5546994,5.5334872 6.6078104,5.4659302 6.6498564,5.40649 6.6481254,5.4013964 c -0.00174,-0.0051 -0.029948,0.00412 -0.0627,0.020494 -0.075071,0.037512 -0.1202667,0.027081 -0.059638,-0.013777 0.023934,-0.016122 0.1302874,-0.077524 0.2363364,-0.136443 l 0.1928161,-0.107118 -0.073078,-0.017301 c -0.070977,-0.016807 -0.1071968,-0.040393 -0.053066,-0.034554 0.014784,0.00161 0.1321486,-0.024594 0.2608331,-0.0582 0.1286865,-0.0336 0.2499836,-0.061086 0.2695506,-0.061081 0.057741,2.45e-5 0.029599,-0.035343 -0.051548,-0.064791 -0.040844,-0.014819 -0.068783,-0.031664 -0.062096,-0.037439 0.020926,-0.018043 0.1907341,0.020586 0.2433451,0.055359 0.04707,0.031112 0.055753,0.030589 0.1394242,-0.00842 0.049079,-0.022875 0.120158,-0.04478 0.1579716,-0.048647 l 0.068747,-0.00706 -0.096801,0.06078 -0.096801,0.06078 0.126916,0.027801 c 0.1241656,0.027198 0.4912869,0.1909537 0.5950325,0.2654164 0.064476,0.046273 0.1507401,0.1189061 0.2083967,0.175456 0.030405,0.029816 0.00561,0.020551 -0.082202,-0.03078 C 8.3350435,5.3399074 8.1506768,5.2652132 8.2566419,5.3394161 c 0.2266696,0.1587298 0.4697516,0.4544814 0.6017516,0.7321357 0.027424,0.057676 0.027577,0.06123 0.00137,0.028265 C 8.7524334,5.9650504 8.6158389,5.8185933 8.561367,5.7798777 8.520631,5.7509287 8.505307,5.7457467 8.518972,5.7655597 8.635832,5.9349096 8.8277493,6.4397326 8.8574917,6.6560526 8.8767827,6.7963362 8.8618017,6.7772893 8.7683437,6.5427073 8.7130577,6.4040122 8.6210033,6.2310753 8.593292,6.2139681 8.587032,6.2101481 8.607443,6.2816881 8.638478,6.3729729 8.69623,6.5428451 8.695014,6.5993216 8.636128,6.4823106 8.574418,6.3597004 8.572785,6.3957816 8.624137,6.7473363 c 0.013376,0.091569 0.026913,0.1741341 0.030089,0.1834765 0.00559,0.016446 0.038175,0.018992 0.2923452,0.022867 0.122389,0.00187 0.1693261,0.022075 0.300137,0.1292296 0.038996,0.03194 0.084864,0.050197 0.1340164,0.053336 0.060471,0.00386 0.4952085,0.1248747 0.6231464,0.1734577 0.02766,0.010504 0.02398,0.026552 -0.03196,0.1396587 -0.03477,0.070286 -0.101069,0.1728539 -0.147343,0.227927 -0.2045623,0.243463 -0.3278395,0.5024824 -0.3373392,0.7087906 -0.00448,0.0973 0.00638,0.1608994 0.026217,0.1536029 0.022542,-0.00829 0.033805,-0.043042 0.039139,-0.1207388 0.00757,-0.110124 0.04674,-0.1843349 0.1395005,-0.2642193 0.05913,-0.050921 0.08332,-0.086762 0.09921,-0.1469792 0.01394,-0.052848 0.05906,-0.12709 0.134151,-0.2207179 C 10.0281,7.65902 10.053024,7.6101632 10.194375,7.2598375 c 0.164973,-0.4088718 0.224145,-0.521832 0.283576,-0.5413557 0.06711,-0.022057 0.176151,0.00942 0.222567,0.064229 0.04012,0.047376 0.04468,0.061004 0.06365,0.1900689 0.01125,0.076463 0.01583,0.1405968 0.01018,0.1425152 -0.0056,0.0019 -0.0247,-0.018914 -0.04233,-0.046296 -0.01765,-0.027381 -0.05546,-0.05972 -0.08406,-0.071859 l -0.05206,-0.022048 -0.04459,0.1249109 c -0.04962,0.1390035 -0.03993,0.205433 0.02807,0.1924723 0.03743,-0.00716 0.180967,-0.1198272 0.379091,-0.2976419 0.06328,-0.056792 0.122312,-0.097013 0.143398,-0.097696 0.0218,-7.056e-4 0.09792,0.05075 0.194278,0.1313301 0.188283,0.1574559 0.192544,0.1682856 0.162345,0.4126843 -0.0222,0.1795811 -0.03819,0.183819 -0.09273,0.024565 -0.03082,-0.089968 -0.03987,-0.1020636 -0.111617,-0.1488034 -0.07438,-0.048468 -0.139139,-0.052863 -0.15459,-0.010499 -0.0033,0.00901 -0.04017,0.045261 -0.08197,0.080538 -0.06589,0.055619 -0.07408,0.069755 -0.06162,0.1064079 0.01703,0.050083 0.05293,0.060624 0.213196,0.062591 0.06233,7.665e-4 0.129845,0.012716 0.150016,0.026561 0.02017,0.013843 0.07802,0.040429 0.128549,0.059076 0.05053,0.018645 0.124902,0.052584 0.165271,0.075414 0.06368,0.036018 0.07684,0.051643 0.09942,0.1180606 0.03216,0.094583 0.04115,0.2513596 0.02367,0.4130253 -0.01507,0.139453 -0.0078,0.1450958 -0.12251,-0.095067 -0.06209,-0.1299791 -0.07168,-0.142144 -0.150174,-0.1906018 -0.09267,-0.057204 -0.220215,-0.07438 -0.293554,-0.039523 -0.07845,0.037274 -0.04834,0.083768 0.121802,0.1880501 l 0.150732,0.092387 0.03736,0.1102453 c 0.03498,0.1032208 0.08054,0.3010126 0.08683,0.3770172 0.0015,0.01849 -0.02908,0.089842 -0.06803,0.1585204 -0.100626,0.1774444 -0.09763,0.1753004 -0.09944,0.070997 -0.0017,-0.098876 -0.01741,-0.138306 -0.0447,-0.1122295 -0.02259,0.021601 -0.02666,0.006 -0.02945,-0.1130292 -0.0029,-0.1217763 -0.0178,-0.168636 -0.0752,-0.2364231 -0.04059,-0.047926 -0.179912,-0.1135486 -0.256777,-0.1209446 -0.0314,-0.00302 -0.09089,0.05854 -0.09792,0.1013526 -0.0023,0.014029 0.02546,0.1231639 0.06169,0.2425299 l 0.06586,0.2170311 -0.109078,-0.1400896 c -0.05999,-0.07705 -0.117201,-0.1373287 -0.127132,-0.1339522 -0.04688,0.01594 -0.07069,0.21701 -0.05256,0.4440447 0.0047,0.058972 0.0041,0.1087614 -0.0015,0.1106348 -0.01618,0.0055 -0.108918,-0.1758755 -0.146592,-0.2866904 -0.0294,-0.086488 -0.04068,-0.1041336 -0.07371,-0.1150714 -0.03482,-0.011537 -0.04034,-0.00787 -0.05161,0.034211 -0.0069,0.025922 -0.0091,0.057495 -0.0048,0.070134 0.0043,0.012649 0.01417,0.06653 0.02191,0.1197176 0.01336,0.09171 0.01267,0.094225 -0.01325,0.048548 -0.01503,-0.026493 -0.04857,-0.1081747 -0.07453,-0.1815163 -0.05577,-0.15753 -0.09268,-0.2039081 -0.193412,-0.2430662 -0.05161,-0.020067 -0.08859,-0.04973 -0.124666,-0.1000107 -0.02822,-0.03932 -0.05831,-0.076525 -0.06687,-0.082675 -0.0086,-0.00615 -0.04295,0.012384 -0.07641,0.041146 -0.05186,0.044607 -0.05947,0.060566 -0.05158,0.1082318 0.01562,0.094375 0.04584,0.1673694 0.118804,0.2870658 L 10.065628,8.9938788 9.8141764,8.8336029 C 9.6759288,8.745456 9.5582936,8.6604697 9.5528163,8.6447501 c -0.00548,-0.015723 -0.018459,-0.036586 -0.028697,-0.046413 -0.011048,-0.010439 0.00129,0.084363 0.029716,0.2293215 0.026653,0.1359333 0.045788,0.2544452 0.042524,0.2633613 -0.0032,0.00891 -0.058287,-0.1016682 -0.1222667,-0.2457409 L 9.3577642,8.5833259 9.2852364,8.5436286 c -0.1648415,-0.090224 -0.1919709,-0.080769 -0.1516647,0.05283 0.038439,0.127356 0.039143,0.1359508 0.012189,0.1451148 -0.014382,0.00489 -0.031758,0.026165 -0.038621,0.047299 -0.015362,0.047334 -0.020128,0.2286031 -0.0081,0.3083461 C 9.1208767,9.242038 9.0646967,9.1704295 8.941998,8.8970399 8.900994,8.8056339 8.858551,8.7252503 8.84771,8.7184024 8.816345,8.6985624 8.6637917,9.1736403 8.567026,9.5925615 8.522684,9.7845258 8.518096,9.8360432 8.546195,9.8264904 8.560804,9.8215204 8.572481,11.491974 8.7013486,11.638934 l -1.8903288,-0.02982 c -0.058607,0.02721 -0.078661,-0.08114 -0.05729,-0.01829 l -0.05628,0.01384 c -0.043401,-0.05197 -0.02073,0.0027 -0.00326,0.02169 z m -1.3901853,0.09842 c -0.00145,-0.0043 -0.023815,-0.02903 -0.049758,-0.0552 -0.025944,-0.02618 -0.067644,-0.08481 -0.092666,-0.130296 -0.037534,-0.06823 -0.045434,-0.09554 -0.04517,-0.156039 4.017e-4,-0.09046 0.017965,-0.147778 0.048486,-0.158155 0.033005,-0.01122 0.17256,0.08354 0.2766264,0.18784 0.076299,0.07647 0.2413072,0.184509 0.2493567,0.16327 0.00148,-0.0038 -0.078207,-0.09883 -0.177065,-0.211005 -0.1923719,-0.21829 -0.2026384,-0.238326 -0.1848777,-0.360813 0.00883,-0.06096 0.016308,-0.07155 0.051312,-0.07274 0.053354,-0.0018 0.092369,0.02051 0.1516722,0.08681 0.077019,0.0861 0.3853655,0.376843 0.4330504,0.408324 0.023902,0.01578 0.059284,0.02332 0.078618,0.01675 0.032471,-0.01104 0.032691,-0.01365 0.00279,-0.03446 -0.068981,-0.04799 -0.4694752,-0.506444 -0.4741094,-0.542723 -0.00258,-0.02018 0.00476,-0.06998 0.016309,-0.110616 0.019031,-0.06698 0.02536,-0.07359 0.067522,-0.07059 0.036065,0.0026 0.0806,0.03858 0.1981617,0.160258 0.083403,0.08633 0.1967959,0.198504 0.2519871,0.249286 0.055186,0.05077 0.1246497,0.116498 0.1543542,0.146039 0.056303,0.05599 0.1011367,0.07551 0.1417486,0.06171 0.01841,-0.0063 0.018453,-0.01229 2.95e-4,-0.02582 -0.012987,-0.0097 -0.059953,-0.06486 -0.1043605,-0.122538 C 6.2538748,11.0964 6.1467342,10.979872 6.0601852,10.89512 l -0.1573597,-0.154093 0.016967,-0.07112 c 0.00933,-0.03912 0.019204,-0.07188 0.021949,-0.07281 0.00272,-9.24e-4 0.045115,0.0055 0.094168,0.01439 0.049051,0.0088 0.1086683,0.01544 0.1324825,0.01467 0.026298,-9.14e-4 0.05948,0.01663 0.084543,0.04457 0.022687,0.02529 0.05877,0.06157 0.080191,0.08062 0.021427,0.01907 0.1103358,0.100874 0.1975907,0.181825 0.1237947,0.114849 0.1567996,0.138459 0.1502498,0.107481 -0.013306,-0.06294 -0.1511806,-0.317003 -0.204754,-0.377321 -0.069861,-0.07866 -0.1998606,-0.141684 -0.2541522,-0.123226 -0.025944,0.0088 -0.1002738,-0.0011 -0.1820204,-0.02431 -0.075996,-0.02158 -0.1483554,-0.03575 -0.1608053,-0.03152 -0.01245,0.0042 -0.03953,0.03499 -0.060178,0.06835 -0.044029,0.07112 -0.076907,0.08563 -0.1579012,0.06972 -0.085755,-0.01685 -0.1530149,0.03494 -0.3801337,0.292742 -0.029645,0.03365 -0.05519,0.08554 -0.05972,0.121278 -0.00673,0.05316 -0.011269,0.05894 -0.030403,0.03883 -0.01237,-0.01299 -0.031306,-0.02064 -0.042075,-0.01698 -0.02402,0.0082 -0.1946368,0.358912 -0.1938072,0.398424 6.037e-4,0.02859 0.237899,0.243679 0.2979479,0.270076 0.030628,0.01347 0.055951,0.01252 0.051048,-0.0019 z m 0.1966891,-1.312444 0.061424,-0.0874 0.043916,0.02527 c 0.053901,0.03102 0.082456,0.0074 0.07341,-0.0606 -0.010799,-0.08121 -0.00138,-0.158371 0.020221,-0.165715 0.010918,-0.0037 0.040142,0.0092 0.064921,0.02874 0.024778,0.01952 0.046646,0.0313 0.048586,0.02617 0.00194,-0.0052 -0.018675,-0.148114 -0.045817,-0.3177524 C 5.7402069,9.6914035 5.7034492,9.4564245 5.6856642,9.3388675 5.6489558,9.0962454 5.640821,9.0648957 5.6193339,9.0832608 c -0.00841,0.00723 -0.00434,0.069019 0.00906,0.1373828 0.013399,0.068366 0.01951,0.1130206 0.01357,0.099238 -0.016074,-0.037298 -0.1681717,-0.177413 -0.1710486,-0.1575701 -0.00134,0.0094 0.00712,0.091038 0.018848,0.1814071 0.011727,0.090372 0.020232,0.1761846 0.018894,0.1906987 -0.00141,0.015294 -0.033318,-0.029585 -0.075887,-0.1067388 C 5.3761144,9.3249935 5.3417179,9.2388598 5.2823738,9.0510153 l -0.076935,-0.243538 -0.081354,0.021965 -0.081354,0.021966 0.033202,0.1039673 c 0.018286,0.057173 0.047923,0.1875572 0.065925,0.289719 0.018002,0.1021621 0.039947,0.221374 0.048769,0.2649164 0.019933,0.09833 -0.00159,0.079017 -0.087088,-0.078179 C 5.0040222,9.2488623 4.9209333,9.1729767 4.7472048,9.1063856 l -0.062042,-0.023782 0.065051,0.1585836 c 0.1381386,0.3367659 0.1814344,0.4260148 0.2367806,0.4880674 0.030641,0.034355 0.049586,0.064546 0.042099,0.067092 -0.00749,0.00255 -0.068652,-0.019995 -0.1359229,-0.050092 -0.1144467,-0.051202 -0.1290891,-0.048973 -0.099173,0.015092 0.011502,0.024605 0.6336945,0.7422564 0.6412979,0.7396714 0.00221,-7.5e-4 0.031607,-0.04068 0.06539,-0.08875 z m -0.09479,-0.36416 c -0.019285,-0.0056 -0.056736,-0.02324 -0.08322,-0.03924 L 5.2745262,9.979835 5.3062632,9.893082 C 5.3432172,9.792046 5.3844442,9.7697344 5.464306,9.807545 l 0.054057,0.0256 -0.038699,0.1125886 C 5.445667,10.04465 5.436708,10.057096 5.4059,10.048189 Z M 4.0914028,9.9672432 c -0.023211,-0.023669 -0.024188,-0.023026 -0.013571,0.00892 0.00629,0.018928 0.022662,0.052149 0.036364,0.07383 l 0.024934,0.03941 -0.011358,-0.04832 c -0.00625,-0.02657 -0.022612,-0.059801 -0.036364,-0.07383 z M 4.480621,9.382312 C 4.4344775,9.3138489 4.3294371,9.2298075 4.3017664,9.2392148 c -0.00824,0.0028 -0.00674,0.029283 0.00331,0.058855 0.013801,0.040593 0.039698,0.066989 0.105686,0.107724 0.1112015,0.068644 0.1281193,0.062958 0.069858,-0.02349 z M 8.3957178,6.4983565 C 8.4259184,6.3402652 8.3881029,6.2979114 8.2577995,6.3438953 8.2108257,6.3604734 8.1494717,6.3878008 8.1214472,6.4046174 l -0.050956,0.030588 0.072404,0.055766 c 0.039822,0.030671 0.090566,0.071599 0.1127669,0.090951 0.066344,0.057827 0.1190428,0.026383 0.1400451,-0.083562 z M 7.7618985,6.4337634 c 0.025885,-0.019767 0.044796,-0.042618 0.042025,-0.05077 -0.00277,-0.00815 -0.043662,-0.045104 -0.090857,-0.082116 -0.1041809,-0.081696 -0.2199459,-0.1195014 -0.29146,-0.095188 -0.056097,0.019071 -0.1288429,0.084121 -0.1340226,0.1198299 -0.00447,0.030787 0.041653,0.07663 0.1480091,0.1471721 l 0.091873,0.060934 0.093689,-0.031959 C 7.67268,6.4840904 7.7360195,6.4535324 7.7619041,6.4337614 Z"
       id="path6"
       sodipodi:nodetypes="ssssscsscccssccscssscssscscsscccsssssccsccssssssssssssssscsscssscsssssssssssssssssssssssssssscssssssssscccssssssssssssssssssssssssssssscscssscsssssscsssssssssssssscsssssssssscssssssssssssssssscsssssscsssssssssccccscssssscssssssssssssssssscsssssssssssssssscsssccscccsssssssssssscscccccscsscssssssscsscsscsccsccccccssscsssscsssssssssscss"
       inkscape:export-filename="revenant.png"
       inkscape:export-xdpi="96"
       inkscape:export-ydpi="96" /></g></svg>
