<?xml version="1.0" encoding="UTF-8" standalone="no"?>
<!-- Created with Inkscape (http://www.inkscape.org/) -->

<svg
   width="15mm"
   height="15mm"
   viewBox="0 0 15 15"
   version="1.1"
   id="svg1"
   inkscape:export-filename="spiritborne.png"
   inkscape:export-xdpi="96"
   inkscape:export-ydpi="96"
   inkscape:version="1.3.2 (091e20e, 2023-11-25)"
   sodipodi:docname="spiritborne.svg"
   xmlns:inkscape="http://www.inkscape.org/namespaces/inkscape"
   xmlns:sodipodi="http://sodipodi.sourceforge.net/DTD/sodipodi-0.dtd"
   xmlns:xlink="http://www.w3.org/1999/xlink"
   xmlns="http://www.w3.org/2000/svg"
   xmlns:svg="http://www.w3.org/2000/svg">
  <sodipodi:namedview
     id="namedview1"
     pagecolor="#ffffff"
     bordercolor="#000000"
     borderopacity="0.25"
     inkscape:showpageshadow="2"
     inkscape:pageopacity="0.0"
     inkscape:pagecheckerboard="0"
     inkscape:deskcolor="#d1d1d1"
     inkscape:document-units="mm"
     showguides="false"
     inkscape:zoom="9.4103913"
     inkscape:cx="42.718734"
     inkscape:cy="22.740818"
     inkscape:window-width="1792"
     inkscape:window-height="993"
     inkscape:window-x="0"
     inkscape:window-y="25"
     inkscape:window-maximized="0"
     inkscape:current-layer="layer1" />
  <defs
     id="defs1">
    <linearGradient
       id="linearGradient1"
       inkscape:collect="always">
      <stop
         style="stop-color:#959b93;stop-opacity:1;"
         offset="0"
         id="stop1" />
      <stop
         style="stop-color:#f3fbed;stop-opacity:0.90467626;"
         offset="1"
         id="stop2" />
    </linearGradient>
    <linearGradient
       id="linearGradient9">
      <stop
         style="stop-color:#17360a;stop-opacity:1;"
         offset="0"
         id="stop10" />
      <stop
         style="stop-color:#4cab1c;stop-opacity:1;"
         offset="1"
         id="stop11" />
    </linearGradient>
    <linearGradient
       id="linearGradient9-1">
      <stop
         style="stop-color:#17360a;stop-opacity:1;"
         offset="0"
         id="stop9" />
      <stop
         style="stop-color:#4cab1c;stop-opacity:1;"
         offset="1"
         id="stop8" />
    </linearGradient>
    <filter
       inkscape:collect="always"
       style="color-interpolation-filters:sRGB"
       id="filter1"
       x="-0.041453233"
       y="-0.13545699"
       width="1.0829065"
       height="1.270914">
      <feGaussianBlur
         inkscape:collect="always"
         stdDeviation="0.14356502"
         id="feGaussianBlur1" />
    </filter>
    <filter
       inkscape:collect="always"
       style="color-interpolation-filters:sRGB"
       id="filter2"
       x="-0.12789302"
       y="-0.10908901"
       width="1.2551927"
       height="1.2180163">
      <feGaussianBlur
         inkscape:collect="always"
         stdDeviation="0.061090506"
         id="feGaussianBlur2" />
    </filter>
    <filter
       inkscape:collect="always"
       style="color-interpolation-filters:sRGB"
       id="filter2-8"
       x="-0.21206754"
       y="-0.13547408"
       width="1.4247627"
       height="1.270747">
      <feGaussianBlur
         inkscape:collect="always"
         stdDeviation="0.001 0.061"
         id="feGaussianBlur2-3" />
    </filter>
    <filter
       inkscape:collect="always"
       style="color-interpolation-filters:sRGB"
       id="filter3"
       x="-0.1885491"
       y="-0.61053998"
       width="1.3770982"
       height="2.22108">
      <feGaussianBlur
         inkscape:collect="always"
         stdDeviation="0.10184926"
         id="feGaussianBlur3" />
    </filter>
    <linearGradient
       inkscape:collect="always"
       xlink:href="#linearGradient1"
       id="linearGradient2"
       x1="5.9833036"
       y1="8.8691739"
       x2="14.721234"
       y2="8.8691739"
       gradientUnits="userSpaceOnUse" />
  </defs>
  <g
     inkscape:label="Layer 1"
     inkscape:groupmode="layer"
     id="layer1">
    <path
       id="path1-7"
       style="fill:#000000;fill-opacity:0.297189;stroke:none;stroke-width:0.54;stroke-linecap:round;stroke-linejoin:round;stroke-dasharray:none;stroke-opacity:1;filter:url(#filter1)"
       d="m 14.846924,10.785841 c -0.37692,0.663301 -2.517644,1.201012 -4.78144,1.201012 -0.5659486,0 -1.0860124,-0.0336 -1.5418696,-0.09438 -0.2279278,-0.03039 -0.1212085,-0.298903 -1.1579933,0.236012 0.4328164,-0.541512 0.1559153,-0.439064 0.00135,-0.4934 C 6.7500706,11.418224 6.4605935,11.117386 6.6489931,10.785841 7.0259129,10.12254 9.1666359,9.5848286 11.430432,9.5848286 c 2.263796,0 3.793412,0.5377114 3.416492,1.2010124 z"
       sodipodi:nodetypes="ssscssss" />
    <ellipse
       style="fill:#000000;fill-opacity:0.19829424;stroke:#c00707;stroke-width:0.165;stroke-dasharray:none;stroke-opacity:0.21321961"
       id="path5"
       cx="7.4724536"
       cy="11.982809"
       rx="0.24757871"
       ry="0.26408395" />
    <path
       id="path1"
       style="fill:url(#linearGradient2);fill-opacity:1;stroke:#82d5de;stroke-width:0.54;stroke-linecap:round;stroke-linejoin:round;stroke-dasharray:none;stroke-opacity:1"
       d="m 14.451234,8.1502667 c 0,1.2687785 -1.83517,2.2973263 -4.098966,2.2973263 -0.5659485,0 -1.1051082,-0.06428 -1.5955016,-0.180535 -0.2451967,-0.05813 -0.4782018,0.595225 -1.2110218,1.618424 0.1251028,-1.035818 0.09356,-2.0068266 -0.091882,-2.1107601 -0.7401307,-0.4148175 -1.200559,-0.990269 -1.200559,-1.6244552 -1e-7,-1.2687784 1.835169,-2.2973266 4.0989643,-2.2973266 2.263796,-2e-7 4.098966,1.028548 4.098966,2.2973266 z"
       sodipodi:nodetypes="ssscssss" />
    <path
       style="mix-blend-mode:normal;fill:none;stroke:#464646;stroke-width:0.71125212;stroke-linecap:round;stroke-linejoin:round;stroke-dasharray:none;stroke-opacity:1;filter:url(#filter2)"
       d="M 5.8840436,1.3417298 5.0903414,2.344989 3.9273798,2.4593787 3.4793219,3.1620071 3.9083149,2.4975086 5.1284714,2.3831189 6.3891957,3.2119399 7.3892113,2.9517527 6.4455595,3.195353 4.9950174,2.4021838 5.0712764,4.3086789 5.5842781,5.1741206 5.6014955,5.9457066 5.6619177,5.0406659 5.0522114,4.327744 6.7727852,4.6121227 7.3082823,5.5491196"
       id="path2"
       sodipodi:nodetypes="ccccccccccccccccc"
       transform="matrix(-0.49688813,-0.50943304,-0.71586603,0.69823766,15.692302,7.3407209)" />
    <path
       style="mix-blend-mode:normal;fill:none;stroke:#5d5d5d;stroke-width:0.948336;stroke-linecap:round;stroke-linejoin:round;stroke-dasharray:none;stroke-opacity:1;filter:url(#filter2-8)"
       d="M 5.4668418,1.3649927 5.0903414,2.344989 3.9273798,2.4593787 3.4793219,3.1620071 3.9092594,2.443589 5.1284714,2.383119 c 0,0 0.1239953,0.025455 -0.133454,0.019065 l 0.076259,1.906495 c 0,0 0.510998,0.7470945 0.5527753,0.7579385 L 5.6014951,5.9457067 5.7199251,4.9737705 5.0522114,4.327744"
       id="path2-6"
       sodipodi:nodetypes="cccccccccccc"
       transform="matrix(-0.49688813,-0.50943304,-0.71586603,0.69823766,15.763891,7.2771238)" />
    <ellipse
       style="mix-blend-mode:normal;fill:#000000;stroke:none;stroke-width:0.452361;stroke-linecap:round;stroke-linejoin:round;stroke-dasharray:none;stroke-dashoffset:2.41134;stroke-opacity:1;filter:url(#filter3)"
       id="path3"
       cx="10.371333"
       cy="9.4657478"
       rx="0.64820838"
       ry="0.20018199"
       transform="matrix(2.6696868,0,0,1.1715167,-17.300414,-1.2832529)" />
  </g>
</svg>
