<?xml version="1.0" encoding="UTF-8" standalone="no"?>
<!-- Created with Inkscape (http://www.inkscape.org/) -->

<svg
   width="15mm"
   height="15mm"
   viewBox="0 0 15 15"
   version="1.1"
   id="svg1"
   inkscape:export-filename="statue.png"
   inkscape:export-xdpi="96"
   inkscape:export-ydpi="96"
   inkscape:version="1.3.2 (091e20e, 2023-11-25)"
   sodipodi:docname="statue.svg"
   xmlns:inkscape="http://www.inkscape.org/namespaces/inkscape"
   xmlns:sodipodi="http://sodipodi.sourceforge.net/DTD/sodipodi-0.dtd"
   xmlns="http://www.w3.org/2000/svg"
   xmlns:svg="http://www.w3.org/2000/svg">
  <sodipodi:namedview
     id="namedview1"
     pagecolor="#ffffff"
     bordercolor="#000000"
     borderopacity="0.25"
     inkscape:showpageshadow="2"
     inkscape:pageopacity="0.0"
     inkscape:pagecheckerboard="0"
     inkscape:deskcolor="#d1d1d1"
     inkscape:document-units="mm"
     showguides="false"
     inkscape:zoom="8.4143405"
     inkscape:cx="27.215442"
     inkscape:cy="47.419046"
     inkscape:window-width="1792"
     inkscape:window-height="993"
     inkscape:window-x="19"
     inkscape:window-y="45"
     inkscape:window-maximized="0"
     inkscape:current-layer="layer1"
     showgrid="false" />
  <defs
     id="defs1">
    <filter
       inkscape:collect="always"
       style="color-interpolation-filters:sRGB"
       id="filter4"
       x="-0.11248987"
       y="-0.16025743"
       width="1.2249797"
       height="1.3205149">
      <feGaussianBlur
         inkscape:collect="always"
         stdDeviation="1.9793015"
         id="feGaussianBlur4" />
    </filter>
  </defs>
  <g
     inkscape:label="Layer 1"
     inkscape:groupmode="layer"
     id="layer1">
    <ellipse
       style="fill:#000000;fill-opacity:0.143426;stroke:#c00707;stroke-width:0.165;stroke-dasharray:none;stroke-opacity:0.421348"
       id="path5"
       cx="7.4724536"
       cy="11.982809"
       rx="0.24757871"
       ry="0.26408395" />
    <path
       style="mix-blend-mode:normal;fill:#000000;fill-opacity:0.26506;stroke:none;stroke-width:4.28553;stroke-linecap:round;stroke-linejoin:round;stroke-dasharray:none;stroke-opacity:0.238956;filter:url(#filter4)"
       d="m 127.43195,130.61261 20.0791,9.54933 9.85002,7.14091 0.87181,3.92313 5.66822,1.54792 2.56023,2.13257 c -0.2738,5.01878 -1.50184,4.09496 -2.52507,5.34797 l -7.52659,-0.40923 -3.29865,-4.15122 -4.29102,1.23621 -9.00403,-1.99904 -15.58354,-4.79494 z"
       id="path5-7"
       sodipodi:nodetypes="ccccccccccccc"
       transform="matrix(0.05772837,-0.09818806,0.1199101,0.0813653,-15.051391,12.211323)" />
    <path
       style="fill:#dbc277;fill-opacity:1;stroke:none;stroke-width:0.549999;stroke-linecap:round;stroke-linejoin:round;stroke-dasharray:none;stroke-opacity:1"
       d="m 6.1323653,9.7346994 -2.03338,1.2688296 -0.016267,0.910954 3.2208732,1.886976 3.2208735,-2.244851 0.0488,-0.390409 L 10.150324,10.905926 7.9542727,9.7997679 7.9380064,5.619139 8.3284151,5.4564687 8.3772162,4.4316453 8.1820118,4.1063044 7.8404042,3.9436339 7.7916032,3.0652141 8.1332107,2.2681292 7.8078695,2.1217258 H 7.4825293 L 6.8481152,2.4145325 6.6203761,2.7073392 6.6854446,3.0164129 6.8155804,3.6020263 6.8318478,3.6833615 6.6691772,3.7972306 6.5065066,4.0249692 6.4739729,4.4316453 6.3601033,4.6431167 V 4.8383213 L 6.5553077,5.1473949 6.6203761,5.6842071 6.5065066,6.1396845 6.343837,6.5138258 V 8.726143 L 6.295035,9.6858983 Z"
       id="path6"
       sodipodi:nodetypes="cccccccccccccccccccccccccccccccccc" />
    <path
       style="fill:#000000;stroke-width:1"
       d="m 7.2141082,13.786119 c -0.99402,-0.547161 -1.9717428,-1.126292 -2.9566101,-1.688488 -0.065568,-0.199743 0.4687143,0.20855 0.6242584,0.265711 0.8252194,0.470833 1.6400228,0.959698 2.4714726,1.419059 0.017596,-0.269433 0.00754,-0.540032 0.010197,-0.809996 1.0611927,-0.571577 2.0942318,-1.194581 3.1500259,-1.776056 -0.239168,-0.33801 -0.9136245,0.09263 -1.2840321,0.185369 -0.5373254,0.220853 -1.0188874,0.586588 -1.5818732,0.735261 -0.47406,0.125307 -0.2504678,-0.186085 -0.2841655,-0.496892 0.2315774,-0.202786 0.6146096,-0.330323 0.8867989,-0.520143 0.1686436,-0.107732 0.6904118,-0.366403 0.6147393,-0.382528 -0.5716904,0.196845 -1.1898528,0.349968 -1.7929025,0.229312 0.2453975,-0.242427 0.041572,-0.805666 0.1150692,-1.1647042 0.00931,-0.8130582 0.00189,-1.626654 0.029546,-2.4392949 0.093197,0.292614 0.02138,0.8153685 0.052109,1.1874212 0.00747,0.8083602 0.010124,1.6167629 0.018775,2.4251119 C 7.625227,10.793602 7.4282249,10.113611 7.5067034,9.7379824 7.5089206,8.8510485 7.4844976,7.9594637 7.6404444,7.0821517 7.7604291,6.5907398 7.4983752,6.1694164 7.3278522,5.7350041 7.270405,5.5518273 6.8156913,5.2127845 7.2459139,5.3457552 7.586072,5.1778175 7.9260083,4.6654902 7.8461272,5.35054 7.7430018,5.5277899 8.0550627,5.7468341 8.1132337,5.6063345 8.0894329,5.2677616 8.0873705,4.9185815 8.2828917,4.6228281 8.4999745,3.8373778 7.3996613,4.5583701 7.1931522,3.9963076 7.1307392,3.7629247 6.774227,3.8270062 7.0909608,3.6736611 7.4016254,3.4550381 7.0794144,2.9045197 6.8890095,2.9088604 6.4849272,2.9026166 6.9783222,3.8133881 6.8231002,3.6693041 6.6992291,3.474103 6.6681481,2.7391071 6.6658618,2.7469803 6.7171635,3.0312966 7.0337917,2.5594934 7.0286732,2.9461716 7.281533,3.436288 7.8712583,2.7716427 7.8240354,2.4294316 7.6383223,2.1817513 8.1655426,2.7722831 8.1252413,2.3164038 8.4030176,2.3838939 8.1269774,2.9217535 8.028024,3.1526575 7.7666635,3.4136774 7.6225067,3.8678424 8.0657901,4.07053 8.5684744,4.3453155 8.5252583,4.9588524 8.5199777,5.4463678 8.4637144,5.8078485 7.7390265,5.5180418 8.0474404,6.0116331 8.441267,6.7535756 8.28837,7.6169912 8.3166564,8.4220203 c -0.00135,0.5745613 0.00319,1.1491101 0.00601,1.7236597 0.042292,-0.1566483 0.9800703,0.304387 1.3696914,0.598181 0.4251872,0.165966 0.9609862,0.263851 1.0413582,0.648021 -0.01071,0.287143 0.0017,0.630036 -0.03974,1.030427 -0.344805,0.151755 -0.8724884,0.642993 -1.2459906,0.766638 -0.39591,0.270079 -0.8183901,0.48326 -1.2656352,0.637012 -0.2679672,0.03411 -0.5524455,0.05623 -0.8188816,0.03602 -0.049788,-0.02529 -0.099576,-0.05057 -0.149364,-0.07586 z M 7.1594973,11.996578 C 6.6351709,11.70247 6.085794,11.425142 5.5804737,11.113261 c 0.5591833,0.276021 1.1058212,0.589546 1.6442468,0.906867 0.1138957,0.07497 -0.078427,-0.0233 -0.065223,-0.02355 z M 4.163504,11.901991 c 0.02362,-0.119583 0.04765,0.07892 0,0 z m 0.8467288,-0.251339 c -0.090733,-0.08124 0.1343077,0.08445 0,0 z M 4.3010749,11.25504 c -0.057622,-0.06894 0.1371474,0.06089 0,0 z M 4.17194,11.170936 c 0.025474,-0.1127 0.044643,0.149639 0,0 z m 0.036896,-0.052 c 0.1248176,-0.145517 0.027411,0.01959 0,0 z m 0.1372728,-0.09348 c 0.1934919,-0.09572 -0.1040877,0.08071 0,0 z M 6.9064295,10.9073 c -0.096198,-0.09522 -0.015044,-0.324098 -0.041751,-0.471687 0.00541,-1.0596711 -0.013328,-2.119889 0.019131,-3.1790883 0.065363,-0.086566 0.032445,0.5381276 0.047765,0.7203318 0.021917,0.9805921 -0.018626,1.964439 0.034701,2.9430175 L 6.9064619,10.9073 Z M 4.6515849,10.84193 c 0.091311,-0.07992 0.037749,0.04027 0,0 z M 5.8124391,10.75997 C 5.4491536,10.570713 5.7753301,10.66265 5.929136,10.80842 L 5.893217,10.79668 Z m 0.7449195,-0.04923 c 0.00972,-0.356018 0.034504,-0.8225138 0.030441,-1.2190669 0.00792,-0.3139957 -0.00908,-0.8688948 0.024546,-1.0321982 0.012299,0.7652664 0.028654,1.5336463 0.012939,2.2974681 l -0.067929,-0.0462 z M 5.2603649,10.50987 c 0.091312,-0.07992 0.037749,0.04027 0,0 z m 1.111154,-1.7637466 c 0.014843,-0.115454 0.014843,0.115454 0,0 z m 0.00319,-0.6917965 c 0.011354,-0.5214806 0.00683,0.5369552 0,0 z m 0.238408,0.018448 c 0.015001,-0.2165368 0.011826,0.2429742 0,0 z M 6.3750226,7.2702954 c 0.00123,-0.5594883 0.017041,0.3529709 5.229e-4,0.1319212 L 6.3752317,7.3424047 Z M 6.389969,6.7353075 c 0.014843,-0.115454 0.014843,0.115454 0,0 z M 6.441032,6.3506971 C 6.484456,6.0934636 6.5801351,5.9818082 6.466499,6.3130901 6.477056,6.2923961 6.43704,6.4104301 6.441032,6.3506971 Z M 6.5449065,5.9882099 c 0.06041,-0.1783806 0.093983,-0.6006469 0.064505,-0.1208538 0.0038,0.00255 -0.079447,0.2523807 -0.064505,0.1208538 z M 6.5915845,5.31482 C 6.5699309,5.1179258 6.1991427,4.6822918 6.5456616,5.0557187 6.767023,5.0104009 6.8675118,5.2142798 6.6143624,5.221396 6.5946217,5.3010977 6.5980323,5.5709062 6.5915845,5.31482 Z M 6.3734893,4.779831 c 0.036497,-0.3379825 0.029333,0.1245633 0,0 z M 6.4041374,4.5830537 C 6.5937568,4.3402215 6.3639343,4.1336177 6.5575061,3.963205 6.6654497,3.7463695 6.4589563,4.3379299 6.5226369,4.4549311 6.532991,4.4686239 6.419019,4.6905705 6.4041374,4.5830537 Z m 0.4335244,-2.164552 c 0.084823,-0.065605 0.0012,0.063014 0,0 z M 7.5110103,2.216224 c 0.094408,-0.1639474 0.05654,0.052545 0,0 z"
       id="path7"
       sodipodi:nodetypes="sccccccccccccccccccccccccccccccccccccccccccsscccccccccccccccccccccccccscccssccccscccccccccccccccccccccccccccccccccc" />
  </g>
</svg>
