<?xml version="1.0" encoding="UTF-8" standalone="no"?>
<!-- Created with Inkscape (http://www.inkscape.org/) -->

<svg
   width="15mm"
   height="15mm"
   viewBox="0 0 15 15"
   version="1.1"
   id="svg1"
   inkscape:export-filename="the-drop.png"
   inkscape:export-xdpi="96"
   inkscape:export-ydpi="96"
   inkscape:version="1.3.2 (091e20e, 2023-11-25)"
   sodipodi:docname="the-drop.svg"
   xmlns:inkscape="http://www.inkscape.org/namespaces/inkscape"
   xmlns:sodipodi="http://sodipodi.sourceforge.net/DTD/sodipodi-0.dtd"
   xmlns="http://www.w3.org/2000/svg"
   xmlns:svg="http://www.w3.org/2000/svg">
  <sodipodi:namedview
     id="namedview1"
     pagecolor="#ffffff"
     bordercolor="#000000"
     borderopacity="0.25"
     inkscape:showpageshadow="2"
     inkscape:pageopacity="0.0"
     inkscape:pagecheckerboard="0"
     inkscape:deskcolor="#d1d1d1"
     inkscape:document-units="mm"
     showguides="false"
     inkscape:zoom="7.4562711"
     inkscape:cx="29.572423"
     inkscape:cy="33.662939"
     inkscape:window-width="1312"
     inkscape:window-height="885"
     inkscape:window-x="0"
     inkscape:window-y="25"
     inkscape:window-maximized="0"
     inkscape:current-layer="layer1" />
  <defs
     id="defs1">
    <inkscape:perspective
       sodipodi:type="inkscape:persp3d"
       inkscape:vp_x="0 : 7.5 : 1"
       inkscape:vp_y="0 : 1000 : 0"
       inkscape:vp_z="15 : 7.5 : 1"
       inkscape:persp3d-origin="7.5 : 5 : 1"
       id="perspective1" />
  </defs>
  <g
     inkscape:label="Layer 1"
     inkscape:groupmode="layer"
     id="layer1">
    <g
       id="g32"
       transform="matrix(0.98462329,0.10229811,-0.85880692,0.64044281,14.106922,6.5840051)"
       style="stroke-width:1.17978">
      <path
         d="m -1.1833853,5.4228926 c -0.8216154,-0.00126 -1.4895014,0.380412 -1.4918986,0.8525622 -0.00129,0.2495728 0.1846386,0.4736032 0.4805909,0.6304239 0.1082432,-0.00436 0.2183559,-0.0058 0.3312459,-0.00232 l 4.8503499,0.1486082 c 0.023058,7.133e-4 0.045363,0.00244 0.068213,0.00348 C 3.5579981,6.919143 3.9075965,6.6263858 3.9093271,6.2855168 3.9117656,5.8133728 3.2478169,5.4294522 2.4262135,5.4279236 Z"
         style="fill-opacity:0.298077;stroke-width:0.969415;stroke-linecap:round;stroke-linejoin:round"
         id="path29" />
      <g
         id="g31"
         style="stroke-width:1.17978">
        <g
           id="path1-0-5-4-2"
           style="stroke-width:1.17978">
          <path
             style="color:#000000;fill:#000000;fill-opacity:0.307692;stroke-width:1.17978;stroke-linecap:round;stroke-linejoin:round;-inkscape-stroke:none"
             d="M -0.63450229,-0.91625166 -0.18367385,1.642369"
             id="path14" />
          <path
             d="m 0.29456075,2.4135761 c -0.0525284,9.811e-4 -0.10476427,0.00487 -0.15657959,0.01161 -0.58247092,0.076765 -0.97160212,0.4925804 -0.86919762,0.9288013 l 0.1462443,0.6211359 c 0.00622,-5.13e-5 0.012361,-4.163e-4 0.018603,-3.87e-4 0.035067,1.429e-4 0.070066,0.00154 0.1049032,0.00425 0.034837,0.00271 0.069514,0.00673 0.1038696,0.011997 L 1.66657,4.3017519 1.3782155,3.0761211 C 1.2894938,2.6994264 0.8579123,2.4220671 0.34727071,2.4135761 c -0.0175255,-3.183e-4 -0.0352005,-3.264e-4 -0.05271,0 z"
             style="fill-opacity:0.298077;stroke-width:1.17978;stroke-linecap:round;stroke-linejoin:round"
             id="path31" />
        </g>
        <path
           d="m -0.56636866,3.9747364 c -0.51084944,-0.0024 -0.95284584,0.2657494 -1.05574954,0.640486 -0.086984,0.3172135 0.089637,0.6288009 0.4170288,0.8084441 1.095e-4,6.01e-5 4.073e-4,-6e-5 5.168e-4,0 0.00714,-4.7e-5 0.014023,-7.863e-4 0.021187,-7.713e-4 l 3.6095988,0.00503 c 0.049009,9.12e-5 0.097498,0.00142 0.1452108,0.00425 0.043178,0.00249 0.085635,0.00666 0.1276408,0.011223 0.043772,0.00476 0.086869,0.01051 0.1291911,0.017415 5.204e-4,8.59e-5 0.00103,3.007e-4 0.00155,3.87e-4 1.64e-4,2.69e-5 3.528e-4,-2.69e-5 5.167e-4,0 0.042585,0.00699 0.084129,0.015323 0.125057,0.024381 C 2.9838246,5.4361192 3.0059656,5.383671 3.0210086,5.328846 3.1399838,4.8949728 2.7668094,4.4710118 2.1874684,4.381861 L -0.35759586,3.9909904 c -0.068712,-0.010524 -0.1386392,-0.015969 -0.2087728,-0.016254 z"
           style="fill-opacity:0.298077;stroke-width:1.17978;stroke-linecap:round;stroke-linejoin:round"
           id="path30" />
        <path
           d="m -1.8634471,6.9035567 c -1.1038516,-0.034018 -2.0215069,0.3205951 -2.0500041,0.7921902 -0.028231,0.4717569 0.843999,0.8818729 1.9482015,0.9160303 l 4.85035,0.1489953 C 3.9892962,8.7947952 4.9070975,8.4399528 4.9351043,7.9681953 4.9633348,7.4964384 3.0091093,5.7631754 1.9049068,5.729018 Z"
           style="fill-opacity:0.298077;stroke-width:0.835928;stroke-linecap:round;stroke-linejoin:round"
           id="path28"
           sodipodi:nodetypes="ccccccc" />
      </g>
    </g>
    <ellipse
       style="fill:#000000;fill-opacity:0.143426;stroke:#c00707;stroke-width:0.165;stroke-dasharray:none;stroke-opacity:0.421348"
       id="path5"
       cx="7.4724536"
       cy="11.982809"
       rx="0.24757871"
       ry="0.26408395" />
    <path
       style="fill:none;stroke:#9c813f;stroke-width:2.142;stroke-linecap:round;stroke-linejoin:round;stroke-dasharray:none;stroke-opacity:1"
       d="M 7.3602258,5.1059483 7.933837,7.8218925"
       id="path1-0-5-0"
       sodipodi:nodetypes="cc" />
    <path
       style="fill:none;stroke:#675529;stroke-width:2.142;stroke-linecap:round;stroke-linejoin:round;stroke-dasharray:none;stroke-opacity:1"
       d="M 7.7389796,5.2705298 8.0250197,7.9219022"
       id="path1-3-3-7-3"
       sodipodi:nodetypes="cc" />
    <path
       style="fill:none;stroke:#9c813f;stroke-width:2.142;stroke-linecap:round;stroke-linejoin:round;stroke-dasharray:none;stroke-opacity:1"
       d="M 6.1636821,7.1472579 8.7280483,7.5641644"
       id="path1-0-5"
       sodipodi:nodetypes="cc" />
    <path
       style="fill:none;stroke:#675529;stroke-width:2.142;stroke-linecap:round;stroke-linejoin:round;stroke-dasharray:none;stroke-opacity:1"
       d="M 6.3062308,7.4792157 8.7745822,7.6203398"
       id="path1-3-3-7"
       sodipodi:nodetypes="cc" />
    <path
       style="fill:none;stroke:#9c813f;stroke-width:2.142;stroke-linecap:round;stroke-linejoin:round;stroke-dasharray:none;stroke-opacity:1"
       d="m 4.9387414,9.0782525 4.9128845,0.037174"
       id="path1-0"
       sodipodi:nodetypes="cc" />
    <path
       style="fill:none;stroke:#675529;stroke-width:2.142;stroke-linecap:round;stroke-linejoin:round;stroke-dasharray:none;stroke-opacity:1"
       d="M 5.1013065,9.3994294 10.005617,9.3592511"
       id="path1-3-3"
       sodipodi:nodetypes="cc" />
    <path
       style="fill:none;stroke:#9c813f;stroke-width:2.142;stroke-linecap:round;stroke-linejoin:round;stroke-dasharray:none;stroke-opacity:1"
       d="M 3.6969624,10.725866 10.870724,11.47814"
       id="path1" />
    <path
       style="fill:none;stroke:#675529;stroke-width:2.142;stroke-linecap:round;stroke-linejoin:round;stroke-dasharray:none;stroke-opacity:1"
       d="m 3.7634726,11.147032 7.1297784,0.450946"
       id="path1-3"
       sodipodi:nodetypes="cc" />
    <g
       id="g4"
       transform="matrix(0.93716088,0.0843983,-0.07741289,0.85959469,0.48426917,6.0271561)"
       style="stroke-width:1.10967">
      <path
         style="fill:#000000;fill-opacity:1;stroke:none;stroke-width:2.3769;stroke-linecap:round;stroke-linejoin:round;stroke-dasharray:none;stroke-opacity:1"
         d="m 2.9133758,0.42486731 c 0.9131783,-0.718345 1.7416829,-0.7596736 2.4278133,-0.7283441 1.1875266,-0.1134554 1.4074993,0.5389239 2.3974655,0.7586917 0.8023212,-0.323863 0.9446372,-0.004692 1.7601648,-0.2124337 C 10.720287,2.3402025 9.0044456,1.6819151 8.1635221,2.0029458 6.9394995,1.6261202 7.5666846,2.9926173 5.1591031,2.9740711 3.6145229,2.6030219 2.9460896,1.4690831 2.9133758,0.42486731 Z"
         id="path4"
         sodipodi:nodetypes="ccccccc" />
      <path
         style="fill:#000000;fill-opacity:1;stroke:none;stroke-width:2.3769;stroke-linecap:round;stroke-linejoin:round;stroke-dasharray:none;stroke-opacity:1"
         d="m 12.164703,0.39070731 c -0.854425,-0.718345 -1.629624,-0.7596736 -2.2716096,-0.7283441 C 8.7819719,-0.45109219 8.5761521,0.23163481 7.6498798,0.45140261 6.8991795,0.12753961 6.76602,0.41636251 6.0029629,0.20862121 4.8600839,2.3060425 6.6094572,1.6174074 7.3962762,1.9384381 c 1.1452697,-0.3768256 0.4145091,1.0200192 2.6671878,1.001473 1.445203,-0.3710492 2.07063,-1.504988 2.101239,-2.54920379 z"
         id="path4-1"
         sodipodi:nodetypes="ccccccc" />
    </g>
    <path
       style="fill:#ffffff;fill-opacity:1;stroke:none;stroke-width:2.142;stroke-linecap:round;stroke-linejoin:round;stroke-dasharray:none;stroke-opacity:1"
       d="M 4.1811189,7.1856813 C 4.6415268,6.8936287 5.0103179,6.8084467 5.637807,6.9125525 6.0844383,7.0355275 6.3886546,7.3246533 6.6696275,7.6408964 6.1278521,8.1012297 5.6741621,8.1651788 5.2432874,8.126459 4.9560184,8.070474 4.6287367,7.6879293 4.1811189,7.1856813 Z"
       id="path6"
       sodipodi:nodetypes="ccccc" />
    <path
       style="fill:#ffffff;fill-opacity:1;stroke:none;stroke-width:2.142;stroke-linecap:round;stroke-linejoin:round;stroke-dasharray:none;stroke-opacity:1"
       d="M 11.054424,7.8632381 C 10.657679,7.4873191 10.311101,7.3321482 9.6732235,7.3124641 9.2097411,7.3464049 8.8543128,7.5710058 8.5165198,7.8267241 8.9608078,8.3835409 9.3950726,8.5343624 9.8267415,8.5800257 10.120377,8.5808699 10.516588,8.2690936 11.054424,7.8632381 Z"
       id="path6-4"
       sodipodi:nodetypes="ccccc" />
  </g>
</svg>
