<?xml version="1.0" encoding="UTF-8" standalone="no"?>
<!-- Created with Inkscape (http://www.inkscape.org/) -->

<svg
   width="15mm"
   height="15mm"
   viewBox="0 0 15 15"
   version="1.1"
   id="svg1"
   inkscape:export-filename="troll.png"
   inkscape:export-xdpi="96"
   inkscape:export-ydpi="96"
   inkscape:version="1.3.2 (091e20e, 2023-11-25)"
   sodipodi:docname="troll.svg"
   xmlns:inkscape="http://www.inkscape.org/namespaces/inkscape"
   xmlns:sodipodi="http://sodipodi.sourceforge.net/DTD/sodipodi-0.dtd"
   xmlns="http://www.w3.org/2000/svg"
   xmlns:svg="http://www.w3.org/2000/svg">
  <sodipodi:namedview
     id="namedview1"
     pagecolor="#ffffff"
     bordercolor="#000000"
     borderopacity="0.25"
     inkscape:showpageshadow="2"
     inkscape:pageopacity="0.0"
     inkscape:pagecheckerboard="0"
     inkscape:deskcolor="#d1d1d1"
     inkscape:document-units="mm"
     showguides="false"
     inkscape:zoom="17.711794"
     inkscape:cx="26.987666"
     inkscape:cy="23.261336"
     inkscape:window-width="1792"
     inkscape:window-height="993"
     inkscape:window-x="17"
     inkscape:window-y="86"
     inkscape:window-maximized="0"
     inkscape:current-layer="layer1" />
  <defs
     id="defs1">
    <linearGradient
       id="linearGradient9">
      <stop
         style="stop-color:#17360a;stop-opacity:1;"
         offset="0"
         id="stop10" />
      <stop
         style="stop-color:#4cab1c;stop-opacity:1;"
         offset="1"
         id="stop11" />
    </linearGradient>
    <linearGradient
       id="linearGradient9-1">
      <stop
         style="stop-color:#17360a;stop-opacity:1;"
         offset="0"
         id="stop9" />
      <stop
         style="stop-color:#4cab1c;stop-opacity:1;"
         offset="1"
         id="stop8" />
    </linearGradient>
    <filter
       inkscape:collect="always"
       style="color-interpolation-filters:sRGB"
       id="filter1"
       x="-0.041453233"
       y="-0.13545699"
       width="1.0829065"
       height="1.270914">
      <feGaussianBlur
         inkscape:collect="always"
         stdDeviation="0.14356502"
         id="feGaussianBlur1" />
    </filter>
  </defs>
  <g
     inkscape:label="Layer 1"
     inkscape:groupmode="layer"
     id="layer1">
    <path
       id="path1-7"
       style="fill:#000000;fill-opacity:0.297189;stroke:none;stroke-width:0.54;stroke-linecap:round;stroke-linejoin:round;stroke-dasharray:none;stroke-opacity:1;filter:url(#filter1)"
       d="m 14.846924,10.785841 c -0.37692,0.663301 -2.517644,1.201012 -4.78144,1.201012 -0.5659486,0 -1.0860124,-0.0336 -1.5418696,-0.09438 -0.2279278,-0.03039 -0.1212085,-0.298903 -1.1579933,0.236012 0.4328164,-0.541512 0.1559153,-0.439064 0.00135,-0.4934 C 6.7500706,11.418224 6.4605935,11.117386 6.6489931,10.785841 7.0259129,10.12254 9.1666359,9.5848286 11.430432,9.5848286 c 2.263796,0 3.793412,0.5377114 3.416492,1.2010124 z"
       sodipodi:nodetypes="ssscssss" />
    <ellipse
       style="fill:#000000;fill-opacity:0.19829424;stroke:#c00707;stroke-width:0.165;stroke-dasharray:none;stroke-opacity:0.21321961"
       id="path5"
       cx="7.4724536"
       cy="11.982809"
       rx="0.24757871"
       ry="0.26408395" />
    <path
       id="path1"
       style="fill:#959b93;fill-opacity:1;stroke:#39613e;stroke-width:0.54;stroke-linecap:round;stroke-linejoin:round;stroke-dasharray:none;stroke-opacity:1"
       d="m 14.451234,8.1502667 c 0,1.2687785 -1.83517,2.2973263 -4.098966,2.2973263 -0.5659485,0 -1.1051082,-0.06428 -1.5955016,-0.180535 -0.2451967,-0.05813 -0.4782018,0.595225 -1.2110218,1.618424 0.1251028,-1.035818 0.09356,-2.0068266 -0.091882,-2.1107601 -0.7401307,-0.4148175 -1.200559,-0.990269 -1.200559,-1.6244552 -1e-7,-1.2687784 1.835169,-2.2973266 4.0989643,-2.2973266 2.263796,-2e-7 4.098966,1.028548 4.098966,2.2973266 z"
       sodipodi:nodetypes="ssscssss" />
    <path
       id="path1-77-6"
       style="fill:#000000;stroke:#edece4;stroke-width:0.2;stroke-dasharray:none;stroke-opacity:1;fill-opacity:0"
       d="m 10.674135,4.2578178 0.03015,0.01234 c 0.01659,0.0068 0.06545,0.01658 0.108587,0.02177 0.137411,0.01657 0.154542,0.01098 0.0362,-0.01181 -0.06304,-0.01214 -0.128193,-0.0221 -0.144782,-0.02216 z m 0.303139,0.01142 c -0.04014,0.0024 -0.0042,0.03126 0.110354,0.08292 0.224648,0.101293 0.363971,0.199837 0.502285,0.355347 0.126427,0.142143 0.142501,0.201858 0.02319,0.08614 -0.08195,-0.07948 -0.234983,-0.1859689 -0.371889,-0.2587419 -0.05309,-0.02822 -0.107455,-0.06145 -0.120817,-0.07388 -0.01336,-0.01242 -0.0451,-0.0313 -0.07052,-0.04192 -0.04494,-0.01878 -0.04577,-0.01868 -0.03001,0.0037 0.0089,0.01268 0.03251,0.03677 0.05242,0.05352 0.01991,0.01675 0.05344,0.0545 0.07451,0.08388 l 0.03832,0.05341 -0.111662,-0.05758 c -0.231671,-0.119455 -0.459178,-0.183377 -0.723029,-0.203212 -0.117144,-0.0088 -0.197734,-0.0087 -0.270584,3.22e-4 -0.1420999,0.01766 -0.1609299,0.03142 -0.05659,0.04139 0.322224,0.0308 0.701919,0.177207 0.930271,0.3586699 0.120953,0.09612 0.115258,0.116707 -0.01375,0.04973 -0.207736,-0.107843 -0.518212,-0.203332 -0.759473,-0.233575 -0.1965799,-0.02464 -0.4857159,-0.009 -0.6684179,0.03627 -0.170382,0.04217 -0.305534,0.09512 -0.357962,0.140222 -0.02587,0.02226 -0.0293,0.02882 -0.01205,0.02298 0.129175,-0.04376 0.511356,-0.0672 0.697509,-0.04277 0.2173839,0.02853 0.5255379,0.124404 0.6313739,0.19646 0.07056,0.04804 0.0512,0.05893 -0.04047,0.0228 -0.08759,-0.03452 -0.375651,-0.0883 -0.5586639,-0.10431 -0.09591,-0.0084 -0.295811,0.0075 -0.465242,0.03708 -0.281286,0.04905 -0.671965,0.223939 -0.795385,0.356053 -0.01991,0.02131 -0.03078,0.03639 -0.02414,0.03351 0.0066,-0.0029 0.048,-0.02231 0.0919,-0.0432 0.123191,-0.0586 0.41395,-0.144146 0.566688,-0.166733 0.165454,-0.02447 0.376075,-0.01789 0.596203,0.01859 0.07963,0.0132 0.148852,0.02411 0.153832,0.02425 0.005,1.37e-4 0.009,0.0048 0.009,0.01046 0,0.0056 -0.09907,0.01358 -0.2201789,0.01771 -0.517556,0.01761 -0.864008,0.119153 -1.216902,0.3566889 -0.20978,0.141205 -0.377634,0.304023 -0.479734,0.465348 -0.05546,0.08763 -0.0464,0.09267 0.03164,0.01764 0.220016,-0.211567 0.572391,-0.417354 0.841549,-0.491434 0.123016,-0.03386 0.342766,-0.07455 0.402606,-0.07455 0.04401,0 0.02818,0.02255 -0.02559,0.03648 -0.107924,0.02795 -0.273168,0.08965 -0.389104,0.145277 -0.157965,0.07579 -0.281971,0.159779 -0.392709,0.265954 -0.04944,0.0474 -0.07902,0.07803 -0.06574,0.06804 0.03617,-0.02721 0.103973,-0.05986 0.110601,-0.05323 0.0032,0.0032 -0.05652,0.07126 -0.132729,0.151216 -0.0762,0.07996 -0.172111,0.195559 -0.213144,0.256904 -0.186263,0.278467 -0.303466,0.603894 -0.300771,0.835151 l 8.49e-4,0.07384 0.02096,-0.07239 c 0.07186,-0.247979 0.199342,-0.457902 0.399354,-0.657637 0.116747,-0.116585 0.293579,-0.258306 0.313389,-0.251178 0.006,0.0022 -0.03829,0.06093 -0.09837,0.130608 -0.128677,0.149218 -0.189385,0.239212 -0.287904,0.426784 -0.128315,0.244302 -0.196389,0.471137 -0.216643,0.721898 -0.01409,0.174404 -9.13e-4,0.3613 0.03308,0.469837 l 0.02022,0.06458 0.0091,-0.119544 c 0.02086,-0.273479 0.06431,-0.461324 0.130997,-0.566476 0.04281,-0.0675 0.07664,-0.07709 0.05924,-0.01679 -0.05819,0.201622 -0.06729,0.569292 -0.01962,0.793301 0.01624,0.07631 0.04647,0.182184 0.06716,0.235271 0.06448,0.165433 0.117612,0.228153 0.08575,0.101235 -0.0073,-0.02913 -0.01636,-0.150714 -0.02008,-0.27016 -0.0054,-0.173507 -0.0028,-0.236163 0.0128,-0.311621 0.02597,-0.125519 0.04293,-0.154572 0.04348,-0.07444 0.0013,0.190122 0.06619,0.45324 0.146444,0.593517 0.02015,0.03522 0.03876,0.06401 0.04132,0.06401 0.0026,0 0.0016,-0.08006 -0.0022,-0.177939 -0.0038,-0.09871 -0.0019,-0.190746 0.0043,-0.20664 0.01,-0.02569 0.01395,-0.0201 0.03825,0.05391 0.03884,0.11831 0.165768,0.315133 0.188543,0.292357 0.0033,-0.0033 0.01373,-0.119544 0.02319,-0.258318 l 0.01721,-0.252309 -0.03485,-0.05458 c -0.05122,-0.08022 -0.126582,-0.246019 -0.160795,-0.353756 -0.01648,-0.05189 -0.03911,-0.101041 -0.0503,-0.109223 -0.01815,-0.01327 -0.01888,-0.02457 -0.0067,-0.104593 0.01343,-0.08831 0.06667,-0.217732 0.09272,-0.225375 0.0085,-0.0025 0.01625,0.03116 0.02138,0.09275 0.01509,0.180893 0.07013,0.362142 0.171965,0.566265 l 0.09257,0.185537 -0.0141,0.158321 c -0.04563,0.513135 -0.05326,0.532366 -0.211695,0.532366 h -0.08547 l -0.01113,0.045 c -0.0093,0.03748 -0.0073,0.04932 0.01202,0.07062 0.03752,0.04145 0.08408,0.05931 0.154574,0.05931 0.128094,0 0.202928,-0.05375 0.271786,-0.195259 0.03772,-0.07751 0.04852,-0.09168 0.05482,-0.07183 0.01116,0.03516 -0.0038,0.106071 -0.03779,0.178999 -0.03742,0.08033 -0.102659,0.128743 -0.211165,0.156695 -0.0763,0.01966 -0.08306,0.02396 -0.07981,0.05065 0.0059,0.04846 0.06143,0.07987 0.140188,0.07932 0.133194,-9.37e-4 0.270665,-0.111012 0.346509,-0.277442 0.05966,-0.130915 0.08464,-0.119186 0.04776,0.02241 -0.03486,0.133844 -0.100179,0.228593 -0.18925,0.274508 -0.0542,0.02794 -0.06466,0.04306 -0.04563,0.06599 0.0099,0.01191 0.03856,0.01757 0.08915,0.01757 0.06116,0 0.08431,-0.0061 0.128487,-0.03415 0.02963,-0.01879 0.06957,-0.05275 0.08876,-0.07543 0.04574,-0.05409 0.106378,-0.188278 0.134497,-0.297625 0.01237,-0.04811 0.02672,-0.08745 0.03188,-0.08745 0.01498,0 0.01089,0.110682 -0.0077,0.2077 -0.0094,0.04904 -0.03217,0.119921 -0.05062,0.157543 -0.01845,0.03762 -0.02987,0.07207 -0.02541,0.07653 0.0157,0.0157 0.117919,-0.03415 0.1644,-0.08017 0.074,-0.07326 0.07951,-0.102045 0.0795,-0.415896 -1.4e-5,-0.291074 -0.0096,-0.366302 -0.06797,-0.535335 -0.01291,-0.03737 -0.03662,-0.141234 -0.05267,-0.230818 -0.05537,-0.309131 -0.139666,-0.659419 -0.192466,-0.799698 l -0.02941,-0.07808 0.02648,-0.02386 c 0.01457,-0.0131 0.142928,-0.09318 0.285217,-0.177973 0.2573329,-0.153352 0.3867799,-0.235098 0.4501129,-0.284193 0.07258,-0.05626 0.02197,0.05654 -0.06988,0.15574 -0.06962,0.0752 -0.3592669,0.280103 -0.4885699,0.345627 -0.03294,0.01669 -0.05988,0.03252 -0.05988,0.03517 0,0.0027 0.01031,0.0289 0.0229,0.05829 0.05201,0.121338 0.136489,0.464838 0.181721,0.73883 0.0098,0.05937 0.02279,0.123885 0.03478,0.178751 0.0087,0.04248 0.01725,0.08072 0.02365,0.104522 0.09771,0.36348 0.1102089,0.739743 0.03058,0.919808 -0.07185,0.162474 -0.272993,0.295202 -0.376131,0.248209 -0.02543,-0.01159 -0.04042,-0.0084 -0.09777,0.02061 -0.117556,0.05948 -0.233159,0.0463 -0.33428,-0.0381 -0.01876,-0.01566 -0.04413,-0.02846 -0.05638,-0.02846 -0.01374,0 -0.05585,0.04276 -0.109894,0.111592 -0.04819,0.06138 -0.122685,0.152036 -0.165532,0.201444 -0.08698,0.1003 -0.118842,0.162083 -0.135097,0.261959 -0.0061,0.03727 -0.01395,0.0703 -0.01711,0.07384 0.264589,0.1301952 0.421207,0.2941313 0.889338,0.3607193 -0.0022,-0.01413 -0.01193,-0.03666 -0.02174,-0.05009 -0.05536,-0.07576 -0.05741,-0.08003 -0.0444,-0.09303 0.01298,-0.01298 0.06936,0.02329 0.148989,0.09583 0.03211,0.02925 0.0948,0.03471 0.102826,0.009 0.0021,-0.0066 -0.01788,-0.03606 -0.04433,-0.06539 -0.02644,-0.02933 -0.04807,-0.06021 -0.04807,-0.06864 0,-0.02528 0.02029,-0.02993 0.03786,-0.0087 0.0378,0.04578 0.181523,0.1607551 0.200737,0.1606181 0.01144,-6.8e-5 0.02896,-0.0054 0.03892,-0.01166 0.01476,-0.0094 0.0053,-0.02437 -0.05129,-0.08158 -0.06767,-0.06842 -0.08482,-0.09981 -0.05429,-0.0994 0.0083,1.37e-4 0.04457,0.02765 0.08063,0.06119 0.1109549,0.1032111 0.1186089,0.1074911 0.1905579,0.1074911 h 0.06578 l -0.05836,-0.04638 c -0.08302,-0.06594 -0.1368299,-0.1181151 -0.1368299,-0.1326941 0,-0.0276 0.02349,-0.02389 0.06681,0.01053 0.02506,0.01991 0.06348,0.04727 0.08536,0.0608 0.02291,0.01416 0.04617,0.04223 0.05482,0.06617 0.01746,0.04828 0.03096,0.05114 0.07557,0.01605 0.02498,-0.01965 0.0316,-0.03415 0.02877,-0.06299 -0.0031,-0.03157 -0.0133,-0.04226 -0.06472,-0.06797 -0.03357,-0.01678 -0.109554,-0.06661 -0.168889,-0.1107442 -0.05933,-0.04413 -0.1757589,-0.1147 -0.2587069,-0.156835 -0.08866,-0.04503 -0.150827,-0.08386 -0.150827,-0.09417 0,-0.01974 0.03119,-0.04161 0.251814,-0.176842 0.1987429,-0.121817 0.3175989,-0.230287 0.3628399,-0.331098 0.01832,-0.04082 0.04177,-0.118459 0.05214,-0.172531 0.01037,-0.05407 0.02042,-0.100284 0.0223,-0.102719 0.0019,-0.0024 0.03224,0.0066 0.06741,0.02015 0.0049,0.0019 0.01779,0.0065 0.02425,0.009 v -0.01849 c 0.03915,0.01481 0.09931,0.03714 0.151888,0.05613 0.05972,0.02158 0.11312,0.04312 0.118661,0.04786 0.0055,0.0047 0.0019,0.0244 -0.0081,0.04369 -0.0227,0.04389 -0.03919,0.133993 -0.07373,0.402535 -0.02605,0.202471 -0.02905,0.214225 -0.06932,0.271468 -0.05866,0.08339 -0.0994,0.192143 -0.0994,0.2653522 0,0.08329 0.03274,0.1369101 0.105831,0.1732731 0.05221,0.02598 0.07035,0.02839 0.180766,0.02435 0.223361,-0.0082 0.576225,0.04447 0.658557,0.01722 0.06586,0.0096 0.10687,-0.0022 0.101517,-0.05362 -0.02768,-0.04182 -0.08976,-0.08693 -0.07554,-0.09572 0.01202,-0.0074 0.02817,-2.73e-4 0.05348,0.02351 0.05213,0.04905 0.165109,0.1217361 0.189214,0.1217361 0.04216,0 0.03459,-0.02727 -0.02513,-0.09042 -0.05789,-0.06122 -0.07752,-0.1026141 -0.04864,-0.1026141 0.0071,0 0.05534,0.03743 0.107279,0.08321 0.106772,0.09409 0.132364,0.1060651 0.182429,0.08533 0.04646,-0.01925 0.04455,-0.03058 -0.0099,-0.05871 -0.08145,-0.04206 -0.165746,-0.1339671 -0.122867,-0.1339671 0.01819,0 0.09293,0.05774 0.148423,0.114632 0.03185,0.03262 0.04895,0.04301 0.05285,0.03206 0.0032,-0.0089 -0.01384,-0.03627 -0.03782,-0.06083 -0.02398,-0.02456 -0.04362,-0.0485 -0.04362,-0.0532 0,-0.03264 0.126495,0.03724 0.139056,0.07681 0.0039,0.01228 0.0011,0.0335 -0.0062,0.04712 -0.0106,0.01981 -0.0094,0.02624 0.006,0.03217 0.05021,0.01927 0.152007,-0.0519 0.135557,-0.09477 -0.0081,-0.0211 -0.339901,-0.2163142 -0.497655,-0.2927822 -0.06636,-0.03217 -0.155943,-0.07046 -0.199076,-0.08512 -0.06249,-0.02123 -0.07927,-0.03226 -0.08254,-0.05419 -0.0044,-0.02953 0.01536,-0.108787 0.07122,-0.285889 0.109476,-0.347031 0.105258,-0.58148 -0.01407,-0.783685 -0.0035,-0.006 -0.0081,-0.01254 -0.01237,-0.01895 l 5.47e-4,2.05e-4 c -0.0014,-0.0024 -0.0041,-0.0055 -0.0057,-0.008 -0.0016,-0.0023 -0.0032,-0.0046 -0.0049,-0.007 -0.100919,-0.155241 -0.429836,-0.444648 -0.627062,-0.548909 l -0.06628,-0.03503 -0.002,-0.08798 -0.01149,-0.0026 -3.56e-4,-0.01619 c -0.0029,-0.127501 -0.02727,-0.221514 -0.103108,-0.398082 -0.07838,-0.182492 -0.0771,-0.206095 0.01372,-0.254465 0.225425,-0.12006 0.292791,-0.18588 0.392143,-0.383165 0.04608,-0.0915 0.133967,-0.205074 0.158709,-0.205085 0.0077,-2e-6 0.04169,0.03742 0.07561,0.08317 0.265577,0.358244 0.711835,0.555854 0.979015,0.433535 0.06618,-0.0303 0.156058,-0.0992 0.156058,-0.119651 0,-0.0059 -0.02036,-0.02359 -0.04524,-0.03938 -0.02489,-0.01579 -0.09411,-0.06798 -0.153832,-0.115974 -0.131555,-0.105719 -0.234038,-0.157248 -0.330074,-0.165956 -0.08257,-0.0075 -0.128766,0.0056 -0.225339,0.06373 -0.07847,0.04724 -0.103243,0.04209 -0.079,-0.01644 0.02021,-0.04879 0.09414,-0.117968 0.151782,-0.14199 0.103695,-0.04321 0.307712,-0.0095 0.417275,0.06886 0.0293,0.02097 0.08584,0.0717 0.12566,0.112757 0.0819,0.08446 0.169168,0.151004 0.19798,0.151004 0.01067,0 0.05209,0.0285 0.09208,0.06334 0.233484,0.203417 0.379502,0.27041 0.52056,0.238842 0.112986,-0.02529 0.178583,-0.106728 0.192395,-0.238877 0.02253,-0.21557 -0.165853,-0.536837 -0.41063,-0.700266 l -0.07126,-0.04758 -0.002,-0.06773 c -0.0015,-0.05181 -0.01269,-0.08878 -0.04744,-0.157224 l -0.04542,-0.0895 0.06886,-0.0843 c 0.154619,-0.189264 0.277222,-0.233383 0.424874,-0.152877 0.0282,0.01538 0.05129,0.0221 0.05129,0.01492 0,-0.0072 -0.0407,-0.05293 -0.09042,-0.101694 -0.08683,-0.08516 -0.09265,-0.08868 -0.147787,-0.08854 -0.07678,1.57e-4 -0.161556,0.04128 -0.247856,0.120216 -0.03839,0.03511 -0.07306,0.06055 -0.07706,0.05656 -0.004,-0.004 0.0054,-0.0359 0.02078,-0.07094 0.02407,-0.05472 0.02812,-0.08417 0.0286,-0.208514 6.84e-4,-0.1613509 -0.02287,-0.2611699 -0.08809,-0.3741869 -0.04033,-0.06989 -0.131604,-0.174776 -0.185538,-0.213179 l -0.03715,-0.02648 0.03316,0.05355 c 0.05023,0.0811 0.115046,0.225114 0.135132,0.300204 0.0099,0.03687 0.01803,0.112311 0.0181,0.167653 1.37e-4,0.08128 -0.0052,0.111325 -0.02775,0.156306 -0.04321,0.08623 -0.05804,0.08006 -0.05804,-0.02414 0,-0.140646 -0.0527,-0.307524 -0.149661,-0.474078 -0.06863,-0.117889 -0.261974,-0.3086119 -0.389422,-0.3841549 -0.09603,-0.05692 -0.189658,-0.09694 -0.210316,-0.08989 -0.0056,0.0019 0.03053,0.03608 0.08038,0.07589 0.152927,0.122148 0.285884,0.2846779 0.357962,0.4376349 0.05353,0.113588 0.08879,0.257909 0.07084,0.289884 -0.01054,0.01879 -0.0123,0.01846 -0.02036,-0.0036 -0.05123,-0.140146 -0.15612,-0.309531 -0.263337,-0.425264 -0.188125,-0.2030619 -0.541858,-0.4120969 -0.798745,-0.4720279 -0.07828,-0.01826 -0.129746,-0.02628 -0.153832,-0.02481 z m 0.05412,1.0628229 c 0.199039,0.01063 0.343216,0.155857 0.357856,0.360472 0.0054,0.07565 0.0042,0.08026 -0.02693,0.100634 -0.01793,0.01175 -0.03985,0.01858 -0.04874,0.01516 -0.0089,-0.0034 -0.03005,-0.05171 -0.04701,-0.107315 -0.0519,-0.170156 -0.133435,-0.250258 -0.254712,-0.250258 -0.09041,0 -0.145978,0.04017 -0.200278,0.144782 -0.03904,0.07521 -0.0408,0.256216 -0.0033,0.337815 0.04815,0.10472 0.172884,0.198481 0.312506,0.234847 0.08279,0.02157 0.0937,0.02998 0.08826,0.0684 -0.0036,0.02534 -0.01079,0.02876 -0.06437,0.0305 -0.125929,0.0041 -0.244064,-0.04246 -0.343399,-0.13538 -0.201858,-0.188815 -0.207815,-0.539373 -0.01227,-0.722287 0.07,-0.06548 0.126651,-0.08356 0.242377,-0.07738 z m 0.08639,0.410595 c 0.05006,0.005 0.0525,0.02242 0.0094,0.06748 -0.05163,0.05402 -0.05918,0.09371 -0.03089,0.162421 0.01258,0.03056 -0.03042,0.02779 -0.06472,-0.0042 -0.06322,-0.0589 -0.06072,-0.133016 0.0065,-0.192042 0.03162,-0.02776 0.05212,-0.03643 0.07967,-0.03369 z m -1.4184869,0.02626 c 0.01115,0.01115 -0.14246,0.170316 -0.243756,0.252557 -0.136723,0.111004 -0.242663,0.224506 -0.342515,0.367011 -0.06648,0.09487 -0.09956,0.130737 -0.143404,0.155387 -0.101513,0.05708 -0.183081,0.115557 -0.27023,0.193703 -0.07394,0.0663 -0.09167,0.07653 -0.132376,0.07653 -0.04515,0 -0.04669,-0.0013 -0.03902,-0.03316 0.02656,-0.110529 0.105773,-0.18316 0.347995,-0.319115 0.05992,-0.03363 0.07905,-0.05297 0.114596,-0.115798 0.0678,-0.119854 0.174523,-0.249263 0.281541,-0.341385 0.0751,-0.06464 0.137752,-0.10413 0.259803,-0.163728 0.08847,-0.0432 0.163785,-0.07559 0.16737,-0.072 z m 2.2593289,0.0083 c 0.02797,4.1e-4 0.06329,0.0045 0.09699,0.01223 0.02986,0.0068 0.119446,0.04595 0.199077,0.08692 l 0.144783,0.07451 0.108587,2.74e-4 c 0.108471,2.74e-4 0.108562,2.74e-4 0.112262,0.03231 0.0028,0.02452 -0.0057,0.03904 -0.03619,0.06189 -0.06678,0.04997 -0.19309,0.0508 -0.289318,0.0019 -0.02207,-0.01122 -0.08084,-0.04863 -0.130609,-0.08314 -0.04977,-0.03451 -0.129813,-0.086 -0.177867,-0.114419 -0.04805,-0.02842 -0.08439,-0.05651 -0.08073,-0.06242 0.0044,-0.0071 0.02505,-0.01042 0.05302,-0.01 z m 0.02577,0.23817 c 0.01016,3.42e-4 0.02224,0.01387 0.03298,0.04358 0.02028,0.05609 0.09859,0.124363 0.15468,0.134886 0.02546,0.0048 0.06797,0.0025 0.09653,-0.0051 0.0804,-0.0215 0.08261,-0.02143 0.08261,0.0027 0,0.01254 -0.02043,0.03934 -0.04542,0.05956 -0.05887,0.04765 -0.163373,0.05852 -0.220001,0.02287 -0.0642,-0.04041 -0.112362,-0.105917 -0.121206,-0.164895 -0.0087,-0.0582 0.0029,-0.09412 0.01983,-0.09353 z m 0.670079,0.183771 c 0.04179,-6.84e-4 0.16498,0.08991 0.260757,0.191724 0.117133,0.124513 0.18967,0.263046 0.199076,0.380231 0.005,0.06216 0.0025,0.08414 -0.01029,0.09226 -0.02075,0.01314 -0.04376,0.01403 -0.05108,0.002 -0.003,-0.005 -0.0149,-0.04704 -0.0264,-0.09349 -0.02571,-0.103849 -0.05873,-0.170907 -0.132411,-0.268923 -0.0591,-0.07861 -0.198585,-0.196787 -0.271467,-0.22997 -0.02323,-0.01057 -0.04434,-0.02058 -0.04694,-0.02227 -0.0114,-0.0074 0.05548,-0.05119 0.07875,-0.05154 z m -1.519087,0.501543 c -0.0056,-6.16e-4 -0.01035,0.0011 -0.01481,0.0048 -0.0094,0.0078 -0.04309,0.06105 -0.0749,0.118379 -0.06858,0.123594 -0.194306,0.257239 -0.29614,0.314768 -0.03816,0.02156 -0.06935,0.04186 -0.06935,0.04514 0,0.0033 0.01302,0.02324 0.02895,0.04436 0.07339,0.09733 0.200368,0.328239 0.246724,0.448628 0.08362,0.217173 0.123723,0.305064 0.149626,0.328094 0.02444,0.02173 0.02448,0.02162 0.01792,-0.08667 l -0.0066,-0.108445 0.02598,0.03248 c 0.0143,0.01787 0.05244,0.06806 0.08473,0.111556 0.07945,0.107018 0.184201,0.182626 0.402005,0.290237 0.110741,0.05472 0.193377,0.103474 0.208937,0.123256 0.0296,0.03762 0.02777,0.05745 -0.02029,0.220391 -0.02704,0.09166 -0.02953,0.116989 -0.02354,0.238276 0.0037,0.07463 0.01244,0.146418 0.01948,0.159558 0.03182,0.05947 0.11331,0.06052 0.17709,0.0023 0.03287,-0.03002 0.03846,-0.04477 0.04616,-0.121488 0.0073,-0.07308 0.0129,-0.08881 0.03397,-0.0966 0.09712,-0.03593 0.285889,0.134071 0.285889,0.25747 0,0.06014 -0.02885,0.07223 -0.151816,0.06355 -0.08735,-0.0062 -0.101495,-0.0043 -0.119827,0.01598 -0.04736,0.05233 0.02287,0.12087 0.127851,0.124776 0.03913,0.0015 0.04363,0.0043 0.02966,0.01835 -0.0097,0.0097 -0.05311,0.01905 -0.105017,0.02252 -0.0737,0.0049 -0.09408,0.01113 -0.121701,0.03694 -0.04028,0.03763 -0.04184,0.06263 -0.006,0.09526 0.04008,0.03651 0.07966,0.055 0.15383,0.07186 0.0365,0.0083 0.09078,0.01233 0.120641,0.0089 0.127615,-0.01446 0.278542,-0.1287 0.341137,-0.258177 0.08994,-0.186051 0.06297,-0.548339 -0.06458,-0.866964 -0.08568,-0.214029 -0.28498,-0.506214 -0.474926,-0.696235 -0.142286,-0.142345 -0.2215,-0.204247 -0.377191,-0.294832 -0.126731,-0.07374 -0.121076,-0.06518 -0.189604,-0.287516 -0.0251,-0.08145 -0.03146,-0.09079 -0.08048,-0.118555 -0.05912,-0.03348 -0.184867,-0.138314 -0.222017,-0.185078 -0.04161,-0.05238 -0.06511,-0.0753 -0.08179,-0.07723 z m -2.2691559,0.09151 c 0.02974,0.0057 0.01466,0.03283 -0.04549,0.107809 -0.03395,0.04232 -0.08267,0.107615 -0.108234,0.145101 -0.02557,0.03749 -0.06493,0.07955 -0.08748,0.09349 -0.0758,0.04685 -0.09072,0.02968 -0.05564,-0.06408 0.02884,-0.07708 0.101447,-0.190218 0.154715,-0.241068 0.02748,-0.02623 0.05168,-0.03636 0.09745,-0.04076 0.01987,-0.0019 0.03477,-0.0024 0.04468,-4.78e-4 z m 1.4142109,0.07013 c 0.0169,0 0.01782,0.07183 0.0015,0.114808 -0.01188,0.03124 -0.01126,0.03172 0.02718,0.02379 0.05689,-0.01174 0.167508,-0.06348 0.199041,-0.09311 0.01492,-0.01402 0.03021,-0.02242 0.03397,-0.01866 0.01329,0.01329 -0.0663,0.08956 -0.129124,0.123751 -0.05122,0.02788 -0.08152,0.03536 -0.154644,0.03818 -0.102039,0.0039 -0.155211,-0.0083 -0.186634,-0.04305 -0.02901,-0.03206 -0.01647,-0.04628 0.04949,-0.05617 0.03882,-0.0058 0.06944,-0.02071 0.100704,-0.04896 0.02471,-0.02233 0.05104,-0.04058 0.05854,-0.04058 z" />
    <path
       id="path1-77"
       style="fill:#000000;stroke-width:0.999999"
       d="m 10.685432,4.2507505 0.03015,0.01234 c 0.01659,0.0068 0.06545,0.01658 0.108587,0.02177 0.137411,0.01657 0.154542,0.01098 0.0362,-0.01181 -0.06304,-0.01214 -0.128193,-0.0221 -0.144782,-0.02216 z m 0.303139,0.01142 c -0.04014,0.0024 -0.0042,0.03126 0.110354,0.08292 0.224648,0.101293 0.363971,0.199837 0.502285,0.355347 0.126427,0.142143 0.142501,0.201858 0.02319,0.08614 -0.08195,-0.07948 -0.234983,-0.1859689 -0.371889,-0.2587419 -0.05309,-0.02822 -0.107455,-0.06145 -0.120817,-0.07388 -0.01336,-0.01242 -0.0451,-0.0313 -0.07052,-0.04192 -0.04494,-0.01878 -0.04577,-0.01868 -0.03001,0.0037 0.0089,0.01268 0.03251,0.03677 0.05242,0.05352 0.01991,0.01675 0.05344,0.0545 0.07451,0.08388 l 0.03832,0.05341 -0.111662,-0.05758 c -0.231671,-0.119455 -0.459178,-0.183377 -0.723029,-0.203212 -0.117144,-0.0088 -0.197734,-0.0087 -0.270584,3.22e-4 -0.1421001,0.01766 -0.1609301,0.03142 -0.05659,0.04139 0.322224,0.0308 0.701919,0.177207 0.930271,0.3586699 0.120953,0.09612 0.115258,0.116707 -0.01375,0.04973 -0.207736,-0.107843 -0.518212,-0.203332 -0.759473,-0.233575 -0.1965801,-0.02464 -0.4857161,-0.009 -0.6684181,0.03627 -0.170382,0.04217 -0.305534,0.09512 -0.357962,0.140222 -0.02587,0.02226 -0.0293,0.02882 -0.01205,0.02298 0.129175,-0.04376 0.511356,-0.0672 0.697509,-0.04277 0.2173841,0.02853 0.5255381,0.124404 0.6313741,0.19646 0.07056,0.04804 0.0512,0.05893 -0.04047,0.0228 -0.08759,-0.03452 -0.375651,-0.0883 -0.5586641,-0.10431 -0.09591,-0.0084 -0.295811,0.0075 -0.465242,0.03708 -0.281286,0.04905 -0.671965,0.223939 -0.795385,0.356053 -0.01991,0.02131 -0.03078,0.03639 -0.02414,0.03351 0.0066,-0.0029 0.048,-0.02231 0.0919,-0.0432 0.123191,-0.0586 0.41395,-0.144146 0.566688,-0.166733 0.165454,-0.02447 0.376075,-0.01789 0.596203,0.01859 0.07963,0.0132 0.1488521,0.02411 0.1538321,0.02425 0.005,1.37e-4 0.009,0.0048 0.009,0.01046 0,0.0056 -0.09907,0.01358 -0.2201791,0.01771 -0.517556,0.01761 -0.864008,0.119153 -1.216902,0.356689 -0.20978,0.141205 -0.377634,0.304023 -0.479734,0.465348 -0.05546,0.08763 -0.0464,0.09267 0.03164,0.01764 0.220016,-0.211567 0.572391,-0.417354 0.841549,-0.491434 0.123016,-0.03386 0.342766,-0.07455 0.402606,-0.07455 0.04401,0 0.02818,0.02255 -0.02559,0.03648 -0.107924,0.02795 -0.273168,0.08965 -0.389104,0.145277 -0.157965,0.07579 -0.281971,0.159779 -0.392709,0.265954 -0.04944,0.0474 -0.07902,0.07803 -0.06574,0.06804 0.03617,-0.02721 0.103973,-0.05986 0.110601,-0.05323 0.0032,0.0032 -0.05652,0.07126 -0.132729,0.151216 -0.0762,0.07996 -0.172111,0.195559 -0.213144,0.256904 -0.186263,0.278467 -0.303466,0.603894 -0.300771,0.835151 l 8.49e-4,0.07384 0.02096,-0.07239 c 0.07186,-0.247979 0.199342,-0.457902 0.399354,-0.657637 0.116747,-0.116585 0.293579,-0.258306 0.313389,-0.251178 0.006,0.0022 -0.03829,0.06093 -0.09837,0.130608 -0.128677,0.149218 -0.189385,0.239212 -0.287904,0.426784 -0.128315,0.244302 -0.196389,0.471137 -0.216643,0.721898 -0.01409,0.174404 -9.13e-4,0.3613 0.03308,0.469837 l 0.02022,0.06458 0.0091,-0.119544 c 0.02086,-0.273479 0.06431,-0.461324 0.130997,-0.566476 0.04281,-0.0675 0.07664,-0.07709 0.05924,-0.01679 -0.05819,0.201622 -0.06729,0.569292 -0.01962,0.793301 0.01624,0.07631 0.04647,0.182184 0.06716,0.235271 0.06448,0.165433 0.117612,0.228153 0.08575,0.101235 -0.0073,-0.02913 -0.01636,-0.150714 -0.02008,-0.27016 -0.0054,-0.173507 -0.0028,-0.236163 0.0128,-0.311621 0.02597,-0.125519 0.04293,-0.154572 0.04348,-0.07444 0.0013,0.190122 0.06619,0.45324 0.146444,0.593517 0.02015,0.03522 0.03876,0.06401 0.04132,0.06401 0.0026,0 0.0016,-0.08006 -0.0022,-0.177939 -0.0038,-0.09871 -0.0019,-0.190746 0.0043,-0.20664 0.01,-0.02569 0.01395,-0.0201 0.03825,0.05391 0.03884,0.11831 0.165768,0.315133 0.188543,0.292357 0.0033,-0.0033 0.01373,-0.119544 0.02319,-0.258318 l 0.01721,-0.252309 -0.03485,-0.05458 c -0.05122,-0.08022 -0.126582,-0.246019 -0.160795,-0.353756 -0.01648,-0.05189 -0.03911,-0.101041 -0.0503,-0.109223 -0.01815,-0.01327 -0.01888,-0.02457 -0.0067,-0.104593 0.01343,-0.08831 0.06667,-0.217732 0.09272,-0.225375 0.0085,-0.0025 0.01625,0.03116 0.02138,0.09275 0.01509,0.180893 0.07013,0.362142 0.171965,0.566265 l 0.09257,0.185537 -0.0141,0.158321 c -0.04563,0.513135 -0.05326,0.532366 -0.211695,0.532366 h -0.08547 l -0.01113,0.045 c -0.0093,0.03748 -0.0073,0.04932 0.01202,0.07062 0.03752,0.04145 0.08408,0.05931 0.154574,0.05931 0.128094,0 0.202928,-0.05375 0.271786,-0.195259 0.03772,-0.07751 0.04852,-0.09168 0.05482,-0.07183 0.01116,0.03516 -0.0038,0.106071 -0.03779,0.178999 -0.03742,0.08033 -0.102659,0.128743 -0.211165,0.156695 -0.0763,0.01966 -0.08306,0.02396 -0.07981,0.05065 0.0059,0.04846 0.06143,0.07987 0.140188,0.07932 0.133194,-9.37e-4 0.270665,-0.111012 0.346509,-0.277442 0.05966,-0.130915 0.08464,-0.119186 0.04776,0.02241 -0.03486,0.133844 -0.100179,0.228593 -0.18925,0.274508 -0.0542,0.02794 -0.06466,0.04306 -0.04563,0.06599 0.0099,0.01191 0.03856,0.01757 0.08915,0.01757 0.06116,0 0.08431,-0.0061 0.128487,-0.03415 0.02963,-0.01879 0.06957,-0.05275 0.08876,-0.07543 0.04574,-0.05409 0.106378,-0.188278 0.134497,-0.297625 0.01237,-0.04811 0.02672,-0.08745 0.03188,-0.08745 0.01498,0 0.01089,0.110682 -0.0077,0.2077 -0.0094,0.04904 -0.03217,0.119921 -0.05062,0.157543 -0.01845,0.03762 -0.02987,0.07207 -0.02541,0.07653 0.0157,0.0157 0.117919,-0.03415 0.1644,-0.08017 0.074,-0.07326 0.07951,-0.102045 0.0795,-0.415896 -1.4e-5,-0.291074 -0.0096,-0.366302 -0.06797,-0.535335 -0.01291,-0.03737 -0.03662,-0.141234 -0.05267,-0.230818 -0.05537,-0.309131 -0.139666,-0.659419 -0.192466,-0.799698 l -0.02941,-0.07808 0.02648,-0.02386 c 0.01457,-0.0131 0.142928,-0.09318 0.285217,-0.177973 0.2573331,-0.153352 0.3867801,-0.235098 0.4501131,-0.284193 0.07258,-0.05626 0.02197,0.05654 -0.06988,0.15574 -0.06962,0.0752 -0.3592671,0.280103 -0.4885701,0.345627 -0.03294,0.01669 -0.05988,0.03252 -0.05988,0.03517 0,0.0027 0.01031,0.0289 0.0229,0.05829 0.05201,0.121338 0.136489,0.464838 0.181721,0.73883 0.0098,0.05937 0.02279,0.123885 0.03478,0.178751 0.0087,0.04248 0.01725,0.08072 0.02365,0.104522 0.09771,0.36348 0.1102091,0.739743 0.03058,0.919808 -0.07185,0.162474 -0.272993,0.295202 -0.376131,0.248209 -0.02543,-0.01159 -0.04042,-0.0084 -0.09777,0.02061 -0.117556,0.05948 -0.233159,0.0463 -0.33428,-0.0381 -0.01876,-0.01566 -0.04413,-0.02846 -0.05638,-0.02846 -0.01374,0 -0.05585,0.04276 -0.109894,0.111592 -0.04819,0.06138 -0.122685,0.152036 -0.165532,0.201444 -0.08698,0.1003 -0.118842,0.162083 -0.135097,0.261959 -0.0061,0.03727 -0.01395,0.0703 -0.01711,0.07384 0.264589,0.130195 0.421207,0.2941315 0.889338,0.3607195 -0.0022,-0.01413 -0.01193,-0.03666 -0.02174,-0.05009 -0.05536,-0.07576 -0.05741,-0.08003 -0.0444,-0.09303 0.01298,-0.01298 0.06936,0.02329 0.148989,0.09583 0.03211,0.02925 0.0948,0.03471 0.102826,0.009 0.0021,-0.0066 -0.01788,-0.03606 -0.04433,-0.06539 -0.02644,-0.029331 -0.04807,-0.060211 -0.04807,-0.068641 0,-0.02528 0.02029,-0.02993 0.03786,-0.0087 0.0378,0.04578 0.181523,0.1607555 0.200737,0.1606185 0.01144,-6.8e-5 0.02896,-0.0054 0.03892,-0.01166 0.01476,-0.0094 0.0053,-0.02437 -0.05129,-0.08158 -0.06767,-0.068421 -0.08482,-0.099811 -0.05429,-0.0994 0.0083,1.37e-4 0.04457,0.02765 0.08063,0.06119 0.1109551,0.1032115 0.1186091,0.1074915 0.1905581,0.1074915 h 0.06578 l -0.05836,-0.04638 c -0.08302,-0.06594 -0.1368301,-0.1181155 -0.1368301,-0.1326945 0,-0.0276 0.02349,-0.02389 0.06681,0.01053 0.02506,0.01991 0.06348,0.04727 0.08536,0.0608 0.02291,0.01416 0.04617,0.042231 0.05482,0.066171 0.01746,0.04828 0.03096,0.05114 0.07557,0.01605 0.02498,-0.01965 0.0316,-0.03415 0.02877,-0.06299 -0.0031,-0.03157 -0.0133,-0.04226 -0.06472,-0.06797 -0.03357,-0.01678 -0.109554,-0.06661 -0.168889,-0.110744 -0.05933,-0.04413 -0.1757591,-0.1147 -0.2587071,-0.156835 -0.08866,-0.04503 -0.150827,-0.08386 -0.150827,-0.09417 0,-0.01974 0.03119,-0.04161 0.251814,-0.176842 0.1987431,-0.121817 0.3175991,-0.230287 0.3628401,-0.331098 0.01832,-0.04082 0.04177,-0.118459 0.05214,-0.172531 0.01037,-0.05407 0.02042,-0.100284 0.0223,-0.102719 0.0019,-0.0024 0.03224,0.0066 0.06741,0.02015 0.0049,0.0019 0.01779,0.0065 0.02425,0.009 v -0.01849 c 0.03915,0.01481 0.09931,0.03714 0.151888,0.05613 0.05972,0.02158 0.11312,0.04312 0.118661,0.04786 0.0055,0.0047 0.0019,0.0244 -0.0081,0.04369 -0.0227,0.04389 -0.03919,0.133993 -0.07373,0.402535 -0.02605,0.202471 -0.02905,0.214225 -0.06932,0.271468 -0.05866,0.08339 -0.0994,0.192143 -0.0994,0.265352 0,0.08329 0.03274,0.1369105 0.10583,0.1732735 0.05221,0.02598 0.07035,0.02839 0.180766,0.02435 0.223361,-0.0082 0.576225,0.04447 0.658557,0.01722 0.06586,0.0096 0.10687,-0.0022 0.101517,-0.05362 -0.02768,-0.041821 -0.08976,-0.08693 -0.07554,-0.095721 0.01202,-0.0074 0.02817,-2.73e-4 0.05348,0.02351 0.05213,0.04905 0.165109,0.1217365 0.189214,0.1217365 0.04216,0 0.03459,-0.02727 -0.02513,-0.090421 -0.05789,-0.06122 -0.07752,-0.102614 -0.04864,-0.102614 0.0071,0 0.05534,0.03743 0.107279,0.08321 0.106772,0.094091 0.132364,0.1060655 0.182429,0.08533 0.04646,-0.01925 0.04455,-0.03058 -0.0099,-0.05871 -0.08145,-0.04206 -0.165746,-0.1339675 -0.122867,-0.1339675 0.01819,0 0.09293,0.05774 0.148423,0.114632 0.03185,0.032621 0.04895,0.043011 0.05285,0.032061 0.0032,-0.0089 -0.01384,-0.03627 -0.03782,-0.06083 -0.02398,-0.02456 -0.04362,-0.0485 -0.04362,-0.0532 0,-0.03264 0.126495,0.03724 0.139056,0.07681 0.0039,0.01228 0.0011,0.033501 -0.0062,0.047121 -0.0106,0.01981 -0.0094,0.02624 0.006,0.03217 0.05021,0.01927 0.152007,-0.0519 0.135557,-0.094771 -0.0081,-0.0211 -0.339901,-0.216314 -0.497655,-0.292782 -0.06636,-0.03217 -0.155943,-0.07046 -0.199076,-0.08512 -0.06249,-0.02123 -0.07927,-0.03226 -0.08254,-0.05419 -0.0044,-0.02953 0.01536,-0.108787 0.07122,-0.285889 0.109476,-0.347031 0.105258,-0.58148 -0.01407,-0.783685 -0.0035,-0.006 -0.0081,-0.01254 -0.01237,-0.01895 l 5.47e-4,2.05e-4 c -0.0014,-0.0024 -0.0041,-0.0055 -0.0057,-0.008 -0.0016,-0.0023 -0.0032,-0.0046 -0.0049,-0.007 -0.100919,-0.155241 -0.429836,-0.444648 -0.627062,-0.548909 l -0.06628,-0.03503 -0.002,-0.08798 -0.01149,-0.0026 -3.56e-4,-0.01619 c -0.0029,-0.127501 -0.02727,-0.221514 -0.103108,-0.398082 -0.07838,-0.182492 -0.0771,-0.206095 0.01372,-0.254465 0.225425,-0.12006 0.292791,-0.18588 0.392143,-0.383165 0.04608,-0.0915 0.133967,-0.205074 0.158709,-0.205085 0.0077,-2e-6 0.04169,0.03742 0.07561,0.08317 0.265577,0.358244 0.711835,0.555854 0.979015,0.433535 0.06618,-0.0303 0.156058,-0.0992 0.156058,-0.119651 0,-0.0059 -0.02036,-0.02359 -0.04524,-0.03938 -0.02489,-0.01579 -0.09411,-0.06798 -0.153832,-0.115974 -0.131555,-0.105719 -0.234038,-0.157248 -0.330074,-0.165956 -0.08257,-0.0075 -0.128766,0.0056 -0.225339,0.06373 -0.07847,0.04724 -0.103243,0.04209 -0.079,-0.01644 0.02021,-0.04879 0.09414,-0.117968 0.151782,-0.14199 0.103695,-0.04321 0.307712,-0.0095 0.417275,0.06886 0.0293,0.02097 0.08584,0.0717 0.12566,0.112757 0.0819,0.08446 0.169168,0.151004 0.19798,0.151004 0.01067,0 0.05209,0.0285 0.09208,0.06334 0.233484,0.203417 0.379502,0.27041 0.52056,0.238842 0.112986,-0.02529 0.178583,-0.106728 0.192395,-0.238877 0.02253,-0.21557 -0.165853,-0.536837 -0.41063,-0.700266 l -0.07126,-0.04758 -0.002,-0.06773 c -0.0015,-0.05181 -0.01269,-0.08878 -0.04744,-0.157224 l -0.04542,-0.0895 0.06886,-0.0843 c 0.154619,-0.189264 0.277222,-0.233383 0.424874,-0.152877 0.0282,0.01538 0.05129,0.0221 0.05129,0.01492 0,-0.0072 -0.0407,-0.05293 -0.09042,-0.101694 -0.08683,-0.08516 -0.09265,-0.08868 -0.147787,-0.08854 -0.07678,1.57e-4 -0.161556,0.04128 -0.247856,0.120216 -0.03839,0.03511 -0.07306,0.06055 -0.07706,0.05656 -0.004,-0.004 0.0054,-0.0359 0.02078,-0.07094 0.02407,-0.05472 0.02812,-0.08417 0.0286,-0.208514 6.84e-4,-0.161351 -0.02287,-0.26117 -0.08809,-0.374187 -0.04033,-0.06989 -0.131604,-0.174776 -0.185538,-0.213179 l -0.03715,-0.02648 0.03316,0.05355 c 0.05023,0.0811 0.115046,0.225114 0.135132,0.300204 0.0099,0.03687 0.01803,0.112311 0.0181,0.167653 1.37e-4,0.08128 -0.0052,0.1113251 -0.02775,0.1563061 -0.04321,0.08623 -0.05804,0.08006 -0.05804,-0.02414 0,-0.1406461 -0.0527,-0.3075241 -0.149661,-0.4740781 -0.06863,-0.117889 -0.261974,-0.3086119 -0.389422,-0.3841549 -0.09603,-0.05692 -0.189658,-0.09694 -0.210316,-0.08989 -0.0056,0.0019 0.03053,0.03608 0.08038,0.07589 0.152927,0.122148 0.285884,0.2846779 0.357962,0.4376349 0.05353,0.113588 0.08879,0.257909 0.07084,0.289884 -0.01054,0.01879 -0.0123,0.01846 -0.02036,-0.0036 -0.05123,-0.140146 -0.15612,-0.309531 -0.263337,-0.425264 -0.188124,-0.2030619 -0.541857,-0.4120969 -0.798744,-0.4720279 -0.07828,-0.01826 -0.129746,-0.02628 -0.153832,-0.02481 z m 0.05412,1.062823 c 0.199039,0.01063 0.343216,0.155857 0.357856,0.360472 0.0054,0.07565 0.0042,0.08026 -0.02693,0.100634 -0.01793,0.01175 -0.03985,0.01858 -0.04874,0.01516 -0.0089,-0.0034 -0.03005,-0.05171 -0.04701,-0.107315 -0.0519,-0.170156 -0.133435,-0.250258 -0.254712,-0.250258 -0.09041,0 -0.145978,0.04017 -0.200278,0.144782 -0.03904,0.07521 -0.0408,0.256216 -0.0033,0.337815 0.04815,0.10472 0.172884,0.198481 0.312506,0.234847 0.08279,0.02157 0.0937,0.02998 0.08826,0.0684 -0.0036,0.02534 -0.01079,0.02876 -0.06437,0.0305 -0.125929,0.0041 -0.244064,-0.04246 -0.343399,-0.13538 -0.201858,-0.188815 -0.207815,-0.539373 -0.01227,-0.722287 0.07,-0.06548 0.126651,-0.08356 0.242377,-0.07738 z m 0.08639,0.410595 c 0.05006,0.005 0.0525,0.02242 0.0094,0.06748 -0.05163,0.05402 -0.05918,0.09371 -0.03089,0.162421 0.01258,0.03056 -0.03042,0.02779 -0.06472,-0.0042 -0.06322,-0.0589 -0.06072,-0.133016 0.0065,-0.192042 0.03162,-0.02776 0.05212,-0.03643 0.07967,-0.03369 z m -1.4184871,0.02626 c 0.01115,0.01115 -0.14246,0.170316 -0.243756,0.252557 -0.136723,0.111004 -0.242663,0.224506 -0.342515,0.367011 -0.06648,0.09487 -0.09956,0.130737 -0.143404,0.155387 -0.101513,0.05708 -0.183081,0.115557 -0.27023,0.193703 -0.07394,0.0663 -0.09167,0.07653 -0.132376,0.07653 -0.04515,0 -0.04669,-0.0013 -0.03902,-0.03316 0.02656,-0.110529 0.105773,-0.18316 0.347995,-0.319115 0.05992,-0.03363 0.07905,-0.05297 0.114596,-0.115798 0.0678,-0.119854 0.174523,-0.249263 0.281541,-0.341385 0.0751,-0.06464 0.137752,-0.10413 0.259803,-0.163728 0.08847,-0.0432 0.163785,-0.07559 0.16737,-0.072 z m 2.2593291,0.0083 c 0.02797,4.1e-4 0.06329,0.0045 0.09699,0.01223 0.02986,0.0068 0.119446,0.04595 0.199077,0.08692 l 0.144783,0.07451 0.108587,2.74e-4 c 0.108471,2.74e-4 0.108562,2.74e-4 0.112262,0.03231 0.0028,0.02452 -0.0057,0.03904 -0.03619,0.06189 -0.06678,0.04997 -0.19309,0.0508 -0.289318,0.0019 -0.02207,-0.01122 -0.08084,-0.04863 -0.130609,-0.08314 -0.04977,-0.03451 -0.129813,-0.086 -0.177867,-0.114419 -0.04805,-0.02842 -0.08439,-0.05651 -0.08073,-0.06242 0.0044,-0.0071 0.02505,-0.01042 0.05302,-0.01 z m 0.02577,0.23817 c 0.01016,3.42e-4 0.02224,0.01387 0.03298,0.04358 0.02028,0.05609 0.09859,0.124363 0.15468,0.134886 0.02546,0.0048 0.06797,0.0025 0.09653,-0.0051 0.0804,-0.0215 0.08261,-0.02143 0.08261,0.0027 0,0.01254 -0.02043,0.03934 -0.04542,0.05956 -0.05887,0.04765 -0.163373,0.05852 -0.220001,0.02287 -0.0642,-0.04041 -0.112362,-0.105917 -0.121206,-0.164895 -0.0087,-0.0582 0.0029,-0.09412 0.01983,-0.09353 z m 0.670079,0.183771 c 0.04179,-6.84e-4 0.16498,0.08991 0.260757,0.191724 0.117133,0.124513 0.18967,0.263046 0.199076,0.380231 0.005,0.06216 0.0025,0.08414 -0.01029,0.09226 -0.02075,0.01314 -0.04376,0.01403 -0.05108,0.002 -0.003,-0.005 -0.0149,-0.04704 -0.0264,-0.09349 -0.02571,-0.103849 -0.05873,-0.170907 -0.132411,-0.268923 -0.0591,-0.07861 -0.198585,-0.196787 -0.271467,-0.22997 -0.02323,-0.01057 -0.04434,-0.02058 -0.04694,-0.02227 -0.0114,-0.0074 0.05548,-0.05119 0.07875,-0.05154 z m -1.519087,0.501543 c -0.0056,-6.16e-4 -0.01035,0.0011 -0.01481,0.0048 -0.0094,0.0078 -0.04309,0.06105 -0.0749,0.118379 -0.06858,0.123594 -0.194306,0.257239 -0.29614,0.314768 -0.03816,0.02156 -0.06935,0.04186 -0.06935,0.04514 0,0.0033 0.01302,0.02324 0.02895,0.04436 0.07339,0.09733 0.200368,0.328239 0.246724,0.448628 0.08362,0.217173 0.123723,0.305064 0.149626,0.328094 0.02444,0.02173 0.02448,0.02162 0.01792,-0.08667 l -0.0066,-0.108445 0.02598,0.03248 c 0.0143,0.01787 0.05244,0.06806 0.08473,0.111556 0.07945,0.107018 0.184201,0.182626 0.402005,0.290237 0.110741,0.05472 0.193377,0.103474 0.208937,0.123256 0.0296,0.03762 0.02777,0.05745 -0.02029,0.220391 -0.02704,0.09166 -0.02953,0.116989 -0.02354,0.238276 0.0037,0.07463 0.01244,0.146418 0.01948,0.159558 0.03182,0.05947 0.11331,0.06052 0.17709,0.0023 0.03287,-0.03002 0.03846,-0.04477 0.04616,-0.121488 0.0073,-0.07308 0.0129,-0.08881 0.03397,-0.0966 0.09712,-0.03593 0.285889,0.134071 0.285889,0.25747 0,0.06014 -0.02885,0.07223 -0.151816,0.06355 -0.08735,-0.0062 -0.101495,-0.0043 -0.119827,0.01598 -0.04736,0.05233 0.02287,0.12087 0.127851,0.124776 0.03913,0.0015 0.04363,0.0043 0.02966,0.01835 -0.0097,0.0097 -0.05311,0.01905 -0.105017,0.02252 -0.0737,0.0049 -0.09408,0.01113 -0.121701,0.03694 -0.04028,0.03763 -0.04184,0.06263 -0.006,0.09526 0.04008,0.03651 0.07966,0.055 0.15383,0.07186 0.0365,0.0083 0.09078,0.01233 0.120641,0.0089 0.127615,-0.01446 0.278542,-0.1287 0.341137,-0.258177 0.08994,-0.186051 0.06297,-0.548339 -0.06458,-0.866964 -0.08568,-0.214029 -0.28498,-0.506214 -0.474926,-0.696235 -0.142286,-0.142345 -0.2215,-0.204247 -0.377191,-0.294832 -0.126731,-0.07374 -0.121076,-0.06518 -0.189604,-0.287516 -0.0251,-0.08145 -0.03146,-0.09079 -0.08048,-0.118555 -0.05912,-0.03348 -0.184867,-0.138314 -0.222017,-0.185078 -0.04161,-0.05238 -0.06511,-0.0753 -0.08179,-0.07723 z m -2.2691561,0.09151 c 0.02974,0.0057 0.01466,0.03283 -0.04549,0.107809 -0.03395,0.04232 -0.08267,0.107615 -0.108234,0.145101 -0.02557,0.03749 -0.06493,0.07955 -0.08748,0.09349 -0.0758,0.04685 -0.09072,0.02968 -0.05564,-0.06408 0.02884,-0.07708 0.101447,-0.190218 0.154715,-0.241068 0.02748,-0.02623 0.05168,-0.03636 0.09745,-0.04076 0.01987,-0.0019 0.03477,-0.0024 0.04468,-4.78e-4 z m 1.4142111,0.07013 c 0.0169,0 0.01782,0.07183 0.0015,0.114808 -0.01188,0.03124 -0.01126,0.03172 0.02718,0.02379 0.05689,-0.01174 0.167508,-0.06348 0.199041,-0.09311 0.01492,-0.01402 0.03021,-0.02242 0.03397,-0.01866 0.01329,0.01329 -0.0663,0.08956 -0.129124,0.123751 -0.05122,0.02788 -0.08152,0.03536 -0.154644,0.03818 -0.102039,0.0039 -0.155211,-0.0083 -0.186634,-0.04305 -0.02901,-0.03206 -0.01647,-0.04628 0.04949,-0.05617 0.03882,-0.0058 0.06944,-0.02071 0.100704,-0.04896 0.02471,-0.02233 0.05104,-0.04058 0.05854,-0.04058 z" />
  </g>
</svg>
