<?xml version="1.0" encoding="UTF-8" standalone="no"?>
<!-- Created with Inkscape (http://www.inkscape.org/) -->

<svg
   width="15mm"
   height="15mm"
   viewBox="0 0 15 15"
   version="1.1"
   id="svg1"
   inkscape:export-filename="accused.png"
   inkscape:export-xdpi="96"
   inkscape:export-ydpi="96"
   inkscape:version="1.3.2 (091e20e, 2023-11-25)"
   sodipodi:docname="wisefolk.svg"
   xml:space="preserve"
   xmlns:inkscape="http://www.inkscape.org/namespaces/inkscape"
   xmlns:sodipodi="http://sodipodi.sourceforge.net/DTD/sodipodi-0.dtd"
   xmlns="http://www.w3.org/2000/svg"
   xmlns:svg="http://www.w3.org/2000/svg"><sodipodi:namedview
     id="namedview1"
     pagecolor="#ffffff"
     bordercolor="#000000"
     borderopacity="0.25"
     inkscape:showpageshadow="2"
     inkscape:pageopacity="0.0"
     inkscape:pagecheckerboard="0"
     inkscape:deskcolor="#d1d1d1"
     inkscape:document-units="mm"
     showguides="false"
     inkscape:zoom="12.897108"
     inkscape:cx="-36.248436"
     inkscape:cy="30.588252"
     inkscape:window-width="1792"
     inkscape:window-height="992"
     inkscape:window-x="581"
     inkscape:window-y="190"
     inkscape:window-maximized="0"
     inkscape:current-layer="layer1" /><defs
     id="defs1"><linearGradient
       id="linearGradient9"><stop
         style="stop-color:#17360a;stop-opacity:1;"
         offset="0"
         id="stop10" /><stop
         style="stop-color:#4cab1c;stop-opacity:1;"
         offset="1"
         id="stop11" /></linearGradient><linearGradient
       id="linearGradient9-1"><stop
         style="stop-color:#17360a;stop-opacity:1;"
         offset="0"
         id="stop9" /><stop
         style="stop-color:#4cab1c;stop-opacity:1;"
         offset="1"
         id="stop8" /></linearGradient></defs><g
     inkscape:label="Layer 1"
     inkscape:groupmode="layer"
     id="layer1"><ellipse
       style="fill:#000000;fill-opacity:0.19829424;stroke:#c00707;stroke-width:0.165;stroke-dasharray:none;stroke-opacity:0.21321961"
       id="path5"
       cx="7.4724536"
       cy="11.982809"
       rx="0.24757871"
       ry="0.26408395" /><path
       style="fill:#000000"
       d="m -8.594529,12.493702 c -0.3851598,-0.09078 -0.7441117,-0.379321 -0.7748255,-0.797515 -0.073986,-0.574998 -0.070012,-1.305917 -0.2409743,-1.686962 0.1335298,-0.4005895 -1.6382222,-0.6400842 -1.9494312,-0.1314194 -0.338842,0.021242 -0.719986,-0.1220746 -0.816826,-0.479254 -0.184758,-0.4996699 -0.18627,-1.04462 -0.2034,-1.5712339 -0.255747,-0.2548188 -0.692243,-0.2692373 -0.877943,-0.621074 -0.268866,-0.2949469 -0.196503,-0.6123868 -0.08496,-0.8834958 0.06672,-0.3097944 0.565228,-0.2748321 0.687586,0.074901 0.166401,0.2277903 0.201978,0.2048413 0.240871,-0.051259 0.312735,-0.1014059 0.482801,0.5102633 0.522628,0.7731884 0.07116,0.2262013 0.515252,0.2955045 0.573106,0.6179993 0.224867,0.3886093 0.313486,0.8684531 0.647485,1.1853087 -0.241123,-0.4715164 -0.369754,-0.997782 -0.660075,-1.4448644 0.412627,0.1381596 0.805,0.3647614 1.021956,0.7571935 0.304598,0.4514436 0.6468319,0.9503439 1.1787971,1.1406535 -0.5506716,-0.3407249 -0.8434941,-0.9329086 -1.2106191,-1.4400762 0.382342,0.104883 0.7789709,0.1670395 1.1336785,0.3500809 -0.3597067,-0.1212323 -0.7907685,-0.5151914 -0.4964345,-0.95776 0.2145857,-0.4516187 0.5398999,-0.8416011 0.7276088,-1.3089618 0.1857426,-0.420102 0.6202828,-0.7955338 1.1062379,-0.6547872 0.6401848,0.2178759 0.7504383,0.9722547 1.1096126,1.4618992 0.2075033,0.3262033 0.5552177,0.7962676 0.2591205,1.1664053 C -6.827435,8.1378475 -7.4743155,8.3966485 -6.943447,8.1879039 -6.7095733,8.1073559 -6.1220838,7.9194836 -6.0732294,7.9913119 -6.4191033,8.4811983 -6.7063453,9.0401125 -7.2299283,9.3707565 -6.8913148,9.2615273 -6.582468,8.938615 -6.3549154,8.6469459 -6.054676,8.2441376 -5.8125417,7.7370455 -5.2923049,7.5818538 -5.02996,7.4209346 -5.0234036,7.5070848 -5.1883262,7.722687 -5.3740678,8.1156486 -5.5121913,8.5489309 -5.7043286,8.9260273 -5.2409181,8.4796565 -5.2325632,7.7159019 -4.7115087,7.3152077 -4.3559018,7.1938833 -4.4813415,6.6876628 -4.205238,6.4253373 c 0.099959,-0.2863115 0.3736949,-0.00323 0.2966961,0.1655529 0.2292666,-0.2150234 0.4023815,-0.6056409 0.7131996,-0.4572902 0.251064,0.080419 0.1612259,0.4141893 0.3024069,0.5951414 -0.1113126,0.4646903 -0.4793401,0.8497099 -0.9468699,0.9587072 -0.311107,0.1696245 -0.098634,0.5794999 -0.1894804,0.8614471 -0.05762,0.4324165 -0.06584,0.9921646 -0.4860884,1.2433693 -0.5331091,0.354249 -0.7390069,-0.3038927 -1.1870726,-0.4209225 -0.8345725,-0.1265693 -1.2172126,0.9104915 -1.2880912,1.5563975 1.022e-4,2.044015 -0.9491762,1.385947 -1.6039928,1.565962 z m 0.1586796,-1.258377 c 0.5158538,-0.228701 -0.1430848,-0.677084 0.1129684,-1.017818 0.1969339,-0.205928 -0.102776,-0.7736625 -0.00903,-0.6955284 0.3575122,0.3117021 -0.049793,0.8918344 0.4324043,1.1325224 -0.2368341,-0.339556 0.1646855,-0.8030589 -0.035762,-1.1913074 -0.2902252,-0.3767887 0.1427581,-0.6951222 0.155043,-1.0606906 0.087019,0.38704 -0.3572288,0.7708952 0.00863,1.141259 0.053022,0.3128209 -0.00577,0.954409 0.3950012,0.921686 -0.2822365,-0.40177 0.010384,-0.8219891 -0.024062,-1.235437 -0.1740839,-0.1322695 -0.1983837,-0.7252155 -0.065619,-0.6438956 0.00962,0.6103452 0.3833704,-0.3241564 0.073696,-0.4870821 -0.2243454,-0.1965209 -0.016119,-0.8268156 -0.1309559,-0.8340212 -0.082632,0.2677936 -0.1627706,0.7331051 -0.081453,0.877738 -0.1516614,-0.3871857 -0.4137073,-0.6825988 -0.8426473,-0.607226 -0.3346532,-0.01452 -0.4164136,0.5668542 -0.5465163,0.5977477 0.168014,-0.2353915 -0.039867,-0.8233441 -0.09034,-0.8722621 0.1271868,0.4685555 -0.1602317,0.8475311 -0.2177238,1.2810786 0.082403,0.4722546 0.214114,0.078297 0.2497227,-0.00338 0.1582624,0.3865357 -0.3987963,0.7582748 0.019647,1.0980478 0.095397,0.2561364 -0.1900454,0.7323699 0.2463852,0.7820009 -0.2267705,-0.319381 0.1817035,-0.6972905 -0.1420844,-1.0172244 -0.066576,-0.2964509 0.4121464,-0.5205268 0.038066,-0.7841341 -0.095139,-0.149159 0.1575035,-0.5471111 0.046753,-0.1635112 0.1080427,0.2582298 0.3027337,0.5147135 0.014902,0.7525096 -0.00393,0.4106128 0.4962384,0.7603981 0.2024912,1.2057031 -0.083007,0.330972 0.4059771,0.498523 0.190478,0.82323 z m 0.8252308,-1.5879214 c 0.076277,-0.1750396 -0.1841788,-0.6717672 0.059706,-0.252074 0.06171,-0.00589 -0.060109,0.4425338 -0.059706,0.252074 z M -7.9017261,8.2812235 c 0.079994,-0.1902918 -0.2751812,-0.5393276 -0.2790325,-0.2743825 -0.226037,0.00258 -0.1727311,-0.071019 -0.3271643,-0.090857 -0.2085777,0.06521 -0.1993684,0.6164097 -0.221196,0.1296777 0.1145645,-0.3392645 0.5153665,-0.4727181 0.7612057,-0.1933625 0.1049116,0.095347 0.1557815,0.3278238 0.066187,0.4289243 z M -8.2489838,7.8994538 c 0.3359062,-0.1635518 -0.5173506,-0.029377 0,0 z m -3.6382752,1.5513528 c 0.394821,-0.3089454 0.347104,-0.8966745 0.274442,-1.3430406 -0.02638,-0.235579 -0.275299,-0.7242534 -0.392621,-0.690063 0.190279,0.5796926 0.258834,1.2415356 0.0428,1.822429 -0.317537,0.1378671 -0.312054,-0.5453199 -0.373163,-0.7666698 -0.02055,-0.2297431 -0.07249,-0.6891206 -0.06245,-0.1824088 0.03538,0.3870829 -0.01518,0.8903977 0.32114,1.1556584 0.05766,0.033653 0.130145,0.028556 0.189852,0.00409 z m 7.3887458,0.0018 c 0.3466542,-0.2750126 0.2843469,-0.7902863 0.319122,-1.1889638 0.0209,-0.274098 -0.028006,-0.3075798 -0.037674,-0.010787 -0.062131,0.3506167 -0.020705,0.8229804 -0.3187867,1.054443 C -4.826396,8.9685553 -4.7212916,8.4385817 -4.7120849,8.0188752 -4.7308401,7.808301 -4.3973818,7.1012169 -4.740523,7.5593981 c -0.2990967,0.4992677 -0.3700961,1.1663548 -0.1266616,1.7017208 0.065587,0.1367173 0.2105524,0.2610373 0.3686714,0.1914877 z m -5.2005,-0.8699017 c -0.095305,-0.095853 -0.4585328,-0.3886242 -0.185559,-0.066256 0.047305,0.048073 0.1144656,0.084957 0.185559,0.066256 z m 2.9451258,-0.021948 c 0.2117224,-0.1603485 0.2127245,-0.322731 -0.016853,-0.068624 -0.1039606,0.060763 -0.171045,0.1376652 0.016853,0.068624 z M -12.03069,8.0702161 c 0.0069,-0.2863965 -0.142223,-0.7008683 -0.2186,-0.7833304 0.162072,-0.2555588 -0.129268,-0.8530083 -0.313608,-0.8192767 0.109904,0.2432446 0.0066,0.602031 -0.0096,0.7613782 -0.04342,-0.2832285 -0.563943,0.109947 -0.201794,-0.1853225 0.458856,-0.2646401 -0.278584,-0.5618325 -0.389543,-0.849094 -0.239039,0.1413759 0.459982,0.506626 0.159435,0.6368764 -0.138372,0.3335706 -0.335534,0.2372155 -0.461849,-0.062965 -0.279212,-0.1587683 0.165984,0.596964 0.378948,0.652611 0.188952,0.218614 0.701259,0.038879 0.516418,0.2648225 0.159502,0.122126 0.383628,0.3508409 0.540182,0.3843004 z m 7.5504432,-0.014306 c 0.1969111,-0.1260486 0.6068811,-0.420562 0.4539978,-0.4926645 0.4989011,0.053531 0.9063969,-0.3891888 1.0332351,-0.8349037 -0.1722238,-0.089114 -0.3381435,0.6301698 -0.5067184,0.1999424 -0.3445303,-0.2150281 0.065908,-0.388403 0.149186,-0.6939862 -0.2171128,-0.04612 -0.3910006,0.4543011 -0.6363747,0.5726474 -0.030922,0.1828988 0.5933748,0.4888874 0.1348092,0.3060169 -0.1979036,0.091353 -0.1792992,0.1914001 -0.1667066,-0.1040018 -0.1554149,-0.1199424 0.1325714,-0.8497241 -0.1386311,-0.4482165 -0.2413654,0.1922167 -0.207146,0.6492082 -0.1956677,0.7780715 -0.096147,-0.053545 -0.275883,0.8524573 -0.1271296,0.7170945 z m -2.5279969,-0.00619 C -6.6343286,7.7992622 -6.7917372,7.273799 -7.0693851,7.0133907 -7.3424288,6.7198734 -7.4977467,6.2867814 -7.9173767,6.1661036 c -0.4754782,-0.2249424 -1.0898701,0.037596 -1.3181292,0.4979936 -0.217126,0.3450434 -0.6701334,0.6487632 -0.534346,1.1168135 0.039082,0.1871249 0.4093932,0.4451546 0.1428799,0.096213 -0.2199904,-0.5367244 0.4036777,-0.8536747 0.6608464,-1.2324272 0.3411188,-0.3899326 0.9830641,-0.3922024 1.3334681,-0.014486 0.2391625,0.3387112 0.6975926,0.5800182 0.7299327,1.0263898 0.074747,0.1128654 -0.2296265,0.4513428 -0.1055189,0.3931198 z m -0.2512307,-0.06713 c 0.1506084,-0.2495134 -0.1608477,-0.9699184 -0.131768,-0.3670516 -0.035177,0.065478 0.052014,0.5017595 0.131768,0.3670516 z m -1.9884242,-0.013619 c 0.1011145,-0.1576711 0.089868,-0.9621326 -0.059023,-0.4620416 -0.058262,0.074154 -0.074817,0.6111631 0.059023,0.4620416 z m -1.7090004,-0.019251 c -0.09927,-0.2005036 -0.333208,-0.2728175 -0.08991,-0.029379 0.01789,0.027254 0.0589,0.048612 0.08991,0.029379 z m 5.4194845,-0.022659 c 0.2336955,-0.2223042 0.066565,-0.197898 -0.072481,-0.010623 -0.030125,0.051505 0.069121,0.050718 0.072481,0.010623 z m -3.2016498,-0.35254 c 0.2321083,-0.1279901 0.2063519,-0.2622022 0.3765175,-0.1045128 0.2860533,0.099588 0.2169929,-0.247588 0.4035783,0.026304 0.3447282,0.2799756 0.4584375,-0.7119398 0.063954,-0.7474194 -0.052452,-0.1898792 -0.7792987,-0.1554589 -0.7712537,-0.00731 0.2853036,0.028659 -0.4013767,0.064825 -0.2667631,0.3195288 -0.074101,0.1677947 0.1142376,0.4774464 0.1939674,0.5134114 z m 0.075976,-0.3912517 c 0.1295699,-0.024153 -0.3795441,-0.1706347 -0.022571,-0.1142563 0.4305561,-0.091333 -0.4352336,-0.094521 -0.040731,-0.1733027 0.2494224,-0.026102 0.4670614,0.075153 0.3138026,0.2696983 -0.093163,-0.1992259 -0.1283291,0.079908 -0.2505006,0.017861 z m 0.6173223,-0.014994 c -0.1076743,-0.075843 0.2817445,0.07662 0,0 z m -0.151941,0.00784 c -0.1595397,-0.326382 0.2629155,-0.3179019 0.4523771,-0.2205668 -0.3508765,-0.00689 -0.3016308,0.1290367 -0.010418,0.1131399 -0.1258,0.1770106 -0.3529435,-0.053602 -0.4419591,0.1074269 z M -13.174703,6.946465 c -0.03377,-0.1493998 -0.48974,-0.8155136 -0.270169,-0.3159621 0.07867,0.083677 0.154165,0.3222783 0.270169,0.3159621 z m 9.8397833,-0.020698 c 0.1722863,-0.1075857 0.4136604,-0.8038726 0.1204973,-0.3165054 -0.01633,0.057794 -0.3345516,0.4372806 -0.1204973,0.3165054 z M -13.031889,6.8078754 c -0.0064,-0.1767154 -0.58765,-0.9119428 -0.31313,-0.3351136 0.0713,0.095011 0.175667,0.4061791 0.31313,0.3351136 z m 9.5819618,-0.0089 c 0.171965,-0.1201532 0.4650494,-0.8516907 0.1461691,-0.405389 -0.010979,0.088493 -0.4498998,0.4986981 -0.1461691,0.405389 z M -9.0144214,6.2448903 c 0.2989168,-0.2177948 -0.1991803,0.021901 0,0 z m 4.5340022,5.0853287 c -0.075967,-0.204644 -0.283957,-0.147467 -0.021506,-0.28703 -0.02943,-0.208764 0.2693229,0.15079 0.185975,0.12577 -0.1130176,-0.01986 -0.1118882,0.176807 -0.164469,0.16126 z m -7.7061138,-0.002 c -0.02722,-0.204993 -0.327599,-0.165327 -0.02918,-0.300913 0.102896,-0.202086 0.243849,0.163609 0.05321,0.259836 l -0.01338,0.039 -0.01064,0.0021 z m 8.1951468,-0.608038 c 0.058714,-0.277906 -0.5616242,-0.299303 -0.1155799,-0.400839 0.1316333,-0.220094 0.109965,-0.316665 0.2230166,-0.01806 0.5218805,0.187763 -0.1273805,0.05441 -0.1074367,0.418902 z m -8.5982488,-0.06077 c 0.02279,-0.308032 -0.559149,-0.28479 -0.08895,-0.427647 0.126194,-0.4526699 0.10985,0.114991 0.415871,0.107049 -0.178603,0.04475 -0.290301,0.147325 -0.326922,0.320598 z m -0.302517,-1.1418024 c -0.25477,-0.1470192 0.09044,-0.3540099 0.120638,-0.119682 -0.07417,-0.019808 -0.09258,0.1438512 -0.120638,0.119682 z m 9.1845413,-0.02753 c -0.2516194,-0.1584126 0.1364528,-0.2870667 0.119185,-0.08962 -0.079213,-0.045759 -0.08711,0.1990557 -0.119185,0.08962 z m -9.4601413,-0.686701 c -0.07678,-0.1857891 -0.240997,-0.1355548 -0.01075,-0.282606 -0.02108,-0.1809895 0.293874,0.2062188 0.119801,0.1517253 -0.06662,-0.01191 -0.06984,0.2043383 -0.109054,0.1308807 z m 9.731597,-0.00137 C -3.522573,8.6262851 -3.6742087,8.6608369 -3.456624,8.5287506 -3.488416,8.3367127 -3.18327,8.6999424 -3.2936189,8.6585257 -3.3755559,8.6301847 -3.4144765,8.8754924 -3.436155,8.8020076 Z m -7.211963,-1.3498891 c -0.05642,-0.2365151 -0.292164,-0.1775279 -0.02705,-0.3475703 -0.02642,-0.2016192 0.245319,0.197864 0.197375,0.1481227 -0.118955,0.00763 -0.126881,0.127095 -0.170327,0.1994476 z m 4.6868489,-0.013606 C -5.9990222,7.2395529 -6.3083107,7.2705987 -5.9943808,7.138701 -6.0075833,6.8874228 -5.750583,7.2821106 -5.7860254,7.2638578 -5.9070973,7.2222823 -5.9137008,7.4862159 -5.9612691,7.4385125 Z m 0.5147072,-0.6915674 c 0.010453,-0.3161196 -0.5729448,-0.2819021 -0.078529,-0.4403225 0.090258,-0.2781421 0.1082642,-0.2508538 0.200146,0.00776 0.2475005,0.1063322 0.2714527,0.1163314 0.00615,0.2154039 -0.074643,0.015638 -0.067354,0.2942671 -0.1277623,0.2171579 z m -5.7640301,0 c 0.09437,-0.2909894 -0.579175,-0.305753 -0.137278,-0.4034689 0.139388,-0.1249477 0.146005,-0.4579134 0.223763,-0.083125 0.130214,0.1478035 0.398596,0.152895 0.06617,0.2367422 -0.09782,0.016993 -0.08759,0.2775078 -0.152651,0.2498517 z m 4.9072035,-0.1328434 c -0.2294412,-0.093 -0.026059,-0.2004171 0.030606,-0.242679 0.152169,0.2459563 0.2021702,0.039909 -0.030606,0.242679 z m -3.9636305,-0.00664 c -0.178041,-0.1388498 -0.08784,-0.1382207 0.02139,-0.270286 0.106146,0.2701158 0.233591,0.027856 -0.02139,0.270286 z M -6.6807175,6.1564264 C -6.6460686,5.8684866 -7.2615069,5.8594 -6.7807939,5.7393943 c 0.1124634,-0.3002298 0.1064014,-0.2248886 0.2347366,0.01312 0.4441423,0.108336 -0.1636678,0.1058204 -0.1088554,0.3824947 l -0.0093,0.018498 z M -9.966785,6.0531277 c -0.00366,-0.221098 -0.419638,-0.1998793 -0.049116,-0.3200878 0.067436,-0.3591971 0.1276677,0.1280534 0.3014518,0.10443 -0.1547552,-0.012367 -0.2155702,0.2260483 -0.2523358,0.2156578 z"
       id="path20"
       sodipodi:nodetypes="sccccccccccccccccccccccccccccccccccccccccsscccccccccccccccccccccccccsccccccccccccccccccccccccccccccccccccccccccccsccccccccccccccccccccccccccccccccccsccccccscccccccccccccccccccccccccccccccccccscccssccsscccccccccccccccscccsccccccccccccccsccccccccccccccccc" /></g></svg>
