<?xml version="1.0" encoding="UTF-8" standalone="no"?>
<!-- Created with Inkscape (http://www.inkscape.org/) -->

<svg
   width="15mm"
   height="15mm"
   viewBox="0 0 15 15"
   version="1.1"
   id="svg1"
   inkscape:export-filename="wise-woman.png"
   inkscape:export-xdpi="96"
   inkscape:export-ydpi="96"
   inkscape:version="1.3.2 (091e20e, 2023-11-25)"
   sodipodi:docname="wise-woman.svg"
   xml:space="preserve"
   xmlns:inkscape="http://www.inkscape.org/namespaces/inkscape"
   xmlns:sodipodi="http://sodipodi.sourceforge.net/DTD/sodipodi-0.dtd"
   xmlns:xlink="http://www.w3.org/1999/xlink"
   xmlns="http://www.w3.org/2000/svg"
   xmlns:svg="http://www.w3.org/2000/svg"><sodipodi:namedview
     id="namedview1"
     pagecolor="#ffffff"
     bordercolor="#000000"
     borderopacity="0.25"
     inkscape:showpageshadow="2"
     inkscape:pageopacity="0.0"
     inkscape:pagecheckerboard="0"
     inkscape:deskcolor="#d1d1d1"
     inkscape:document-units="mm"
     showguides="false"
     inkscape:zoom="7.3073324"
     inkscape:cx="-2.6685525"
     inkscape:cy="37.975554"
     inkscape:window-width="1792"
     inkscape:window-height="992"
     inkscape:window-x="581"
     inkscape:window-y="190"
     inkscape:window-maximized="0"
     inkscape:current-layer="layer1" /><defs
     id="defs1"><linearGradient
       id="linearGradient20"
       inkscape:collect="always"><stop
         style="stop-color:#4f1d8d;stop-opacity:1;"
         offset="0"
         id="stop20" /><stop
         style="stop-color:#a82bb7;stop-opacity:1;"
         offset="1"
         id="stop21" /></linearGradient><linearGradient
       id="linearGradient9"><stop
         style="stop-color:#17360a;stop-opacity:1;"
         offset="0"
         id="stop10" /><stop
         style="stop-color:#4cab1c;stop-opacity:1;"
         offset="1"
         id="stop11" /></linearGradient><linearGradient
       id="linearGradient9-1"><stop
         style="stop-color:#17360a;stop-opacity:1;"
         offset="0"
         id="stop9" /><stop
         style="stop-color:#4cab1c;stop-opacity:1;"
         offset="1"
         id="stop8" /></linearGradient><radialGradient
       inkscape:collect="always"
       xlink:href="#linearGradient20"
       id="radialGradient21"
       cx="-10.196422"
       cy="12.955422"
       fx="-10.196422"
       fy="12.955422"
       r="5.3750832"
       gradientTransform="matrix(1.0805221,0,0,0.71961105,3.6701151,-4.4138952)"
       gradientUnits="userSpaceOnUse" /></defs><g
     inkscape:label="Layer 1"
     inkscape:groupmode="layer"
     id="layer1"><ellipse
       style="fill:#000000;fill-opacity:0.19829424;stroke:#c00707;stroke-width:0.165;stroke-dasharray:none;stroke-opacity:0.21321961"
       id="path5"
       cx="7.4724536"
       cy="11.982809"
       rx="0.24757871"
       ry="0.26408395" /><g
       id="g25"
       transform="translate(14.55367,3.5508954)"><path
         style="fill:#f193e6;fill-opacity:1;stroke:none;stroke-width:0.648314;stroke-linecap:round;stroke-linejoin:round;stroke-opacity:1"
         d="m -11.539975,2.8739588 0.102595,0.3288904 0.09938,0.8809777 -0.672705,-0.4225738 -0.45345,-0.2425005 c -0.390256,-0.2128585 -0.477759,-0.4955836 -0.669154,-0.7543341 0.08241,-0.348759 0.196544,-0.6531237 0.4453,-0.7690086 0.287917,0.2166522 0.665137,0.7681874 0.768471,0.2926496 0.25273,0.2181142 0.324978,0.4512693 0.379519,0.6858993 z"
         id="path21-7"
         sodipodi:nodetypes="cccccccccc" /><path
         style="fill:#f193e6;fill-opacity:1;stroke:none;stroke-width:0.656538;stroke-linecap:round;stroke-linejoin:round;stroke-opacity:1"
         d="M -3.1564097,2.824768 -3.2616245,3.1536584 -3.3579065,4.0796777 -2.6736574,3.6120623 -2.208631,3.3695618 C -1.8084112,3.1567033 -1.7524556,2.8683476 -1.5561742,2.6095971 -1.6406894,2.2608381 -1.7239545,1.962104 -1.979062,1.8462191 -2.2743296,2.0628713 -2.6611802,2.6144066 -2.7671518,2.1388688 -3.0263338,2.356983 -3.1004264,2.590138 -3.1563604,2.824768 Z"
         id="path21-7-9"
         sodipodi:nodetypes="cccccccccc" /><path
         style="fill:#f193e6;fill-opacity:1;stroke:none;stroke-width:0.648314;stroke-linecap:round;stroke-linejoin:round;stroke-opacity:1"
         d="m -6.8369672,2.3262724 0.1659698,0.6970945 -0.077302,0.5442492 -0.3768363,-0.1330014 -0.5541715,-0.022172 -0.3103357,0.1773352 -0.1948854,-0.7227302 0.527388,-0.4964466 z"
         id="path21"
         sodipodi:nodetypes="ccccccccc" /><path
         style="fill:url(#radialGradient21);stroke-width:1.08052"
         d="M -7.7001466,8.7769385 C -8.1163205,8.6788487 -8.504176,8.3670738 -8.5373621,7.9152059 -8.6173099,7.2939079 -8.6130095,6.5041338 -8.7977409,6.0924062 -8.6534588,5.6595609 -10.567876,5.4007813 -10.904144,5.9504051 c -0.366126,0.02295 -0.777961,-0.1319048 -0.882599,-0.5178446 -0.199635,-0.5399044 -0.201269,-1.128735 -0.219778,-1.697753 -0.27634,-0.2753376 -0.747984,-0.2909176 -0.948637,-0.6710842 -0.290515,-0.3186968 -0.212326,-0.6616977 -0.0918,-0.954637 0.07209,-0.3347392 0.610741,-0.296962 0.742952,0.080931 0.1798,0.2461322 0.218242,0.2213353 0.260266,-0.055387 0.337917,-0.1095714 0.521678,0.5513504 0.564712,0.8354467 0.07689,0.2444163 0.556741,0.3192997 0.619253,0.6677627 0.242974,0.4199006 0.338729,0.9383826 0.699622,1.2807515 -0.260539,-0.5094835 -0.399527,-1.0781255 -0.713226,-1.5612075 0.445853,0.1492849 0.869821,0.3941323 1.1042465,0.8181637 0.3291248,0.4877953 0.6989162,1.0268677 1.2737162,1.2325019 C -9.0904295,5.039888 -9.4068312,4.4000201 -9.8035179,3.852015 c 0.413129,0.1133284 0.8416954,0.1804893 1.2249652,0.3782702 -0.3886713,-0.1309949 -0.8544434,-0.5566763 -0.536409,-1.0348808 0.2318649,-0.4879843 0.5833739,-0.9093685 0.7861976,-1.4143624 0.2006984,-0.4539294 0.6702295,-0.85959197 1.1953144,-0.7075117 0.6917338,0.2354198 0.8108652,1.0505418 1.198961,1.579614 0.2242119,0.3524696 0.599925,0.8603841 0.2799854,1.2603264 -0.136259,0.1568691 -0.8352277,0.4365093 -0.2616126,0.2109558 0.2527057,-0.087036 0.8875011,-0.2900338 0.9402894,-0.212422 -0.3737244,0.5293326 -0.6840957,1.1332526 -1.2498387,1.4905208 0.3658793,-0.1180255 0.6995951,-0.466939 0.9454707,-0.7820938 0.3244153,-0.435243 0.5860468,-0.9831671 1.1481742,-1.1508555 0.2834694,-0.1738765 0.2905538,-0.080791 0.1123512,0.1521732 -0.2006979,0.4246041 -0.3499434,0.8927749 -0.5575519,1.3002355 0.5007252,-0.4823127 0.5097529,-1.3075668 1.0727638,-1.7405256 0.3842411,-0.1310943 0.2487007,-0.6780762 0.5470367,-0.9615252 0.1080079,-0.3093654 0.4037856,-0.00346 0.3205867,0.1788836 0.2477276,-0.2323371 0.4347821,-0.6544084 0.7706279,-0.4941119 0.2712802,0.086896 0.1742081,0.4475404 0.3267573,0.643063 -0.1202757,0.5021089 -0.5179375,0.9181304 -1.0231138,1.0359052 -0.336158,0.1832825 -0.1065762,0.6261625 -0.2047378,0.9308125 -0.06226,0.467235 -0.071142,1.0720551 -0.5252292,1.3434877 -0.5760362,0.3827739 -0.7985133,-0.3283631 -1.2826582,-0.4548155 -0.901774,-0.1367617 -1.3152251,0.9838056 -1.391811,1.6817213 1.104e-4,2.2086034 -1.0256059,1.4975464 -1.7331501,1.6920566 z M -11.258014,5.4890232 c 0.426613,-0.333823 0.375053,-0.9688771 0.296541,-1.4511855 -0.02851,-0.2545483 -0.297467,-0.7825713 -0.424236,-0.7456283 0.205601,0.6263711 0.279676,1.3415071 0.04625,1.9691748 -0.343106,0.1489684 -0.337181,-0.5892303 -0.403211,-0.8284038 -0.0222,-0.2482424 -0.07833,-0.7446094 -0.06748,-0.197097 0.03823,0.4182517 -0.0164,0.9620947 0.346999,1.2487151 0.0623,0.03636 0.140624,0.03086 0.205139,0.00443 z m 7.9837031,0.00195 c 0.3745676,-0.2971577 0.3072431,-0.8539226 0.3448184,-1.2847019 0.022583,-0.296169 -0.030261,-0.332347 -0.040708,-0.011659 -0.067134,0.3788494 -0.022372,0.889248 -0.3444561,1.1393489 -0.3139393,-0.3660204 -0.2003716,-0.9386679 -0.1904236,-1.3921706 -0.020265,-0.2275299 0.3400437,-0.9915497 -0.030728,-0.496475 -0.3231806,0.5394701 -0.399897,1.2602723 -0.1368606,1.8387471 0.070868,0.1477257 0.2275065,0.2820563 0.3983575,0.206907 z M -8.8935659,4.5510198 C -8.9965397,4.4474518 -9.389021,4.131103 -9.0940665,4.4794244 c 0.05112,0.051941 0.1236819,0.091801 0.2005006,0.071595 z m 3.1822734,-0.023717 c 0.2287707,-0.1732607 0.2298535,-0.348718 -0.01821,-0.074146 -0.1123317,0.065653 -0.1848179,0.1487501 0.01821,0.074146 z M -11.412994,3.9972641 c 0.0075,-0.3094572 -0.153676,-0.7573033 -0.236203,-0.8464053 0.175123,-0.2761372 -0.139677,-0.9216951 -0.33886,-0.8852469 0.118754,0.2628316 0.0071,0.6505078 -0.01037,0.8226857 -0.04692,-0.3060341 -0.609353,0.1188002 -0.218043,-0.2002445 0.495804,-0.2859494 -0.301016,-0.607073 -0.42091,-0.9174648 -0.258287,0.1527599 0.497021,0.5474206 0.172273,0.6881586 -0.149514,0.3604308 -0.362552,0.2563171 -0.499038,-0.06804 -0.301694,-0.1715524 0.17935,0.6450328 0.409462,0.7051606 0.204167,0.2362172 0.757726,0.042011 0.558001,0.2861471 0.172345,0.1319598 0.414519,0.3790914 0.583679,0.4152446 z m 8.1584204,-0.015462 C -3.0418068,3.8456042 -2.5988252,3.5273753 -2.764019,3.4494675 -2.2249453,3.5073079 -1.7846371,3.0289402 -1.6475856,2.5473353 -1.8336772,2.45105 -2.0129571,3.2282479 -2.195106,2.7633771 -2.5673786,2.5310345 -2.123891,2.343699 -2.0339073,2.0135098 -2.2685024,1.9636762 -2.456392,2.5043921 -2.7215242,2.6322687 -2.7549361,2.829894 -2.0803696,3.1605219 -2.5758599,2.9629257 -2.7896991,3.0616314 -2.7695966,3.1697387 -2.75599,2.8505503 -2.9239193,2.7209493 -2.6127437,1.9324048 -2.905784,2.366242 -3.1665846,2.5739367 -3.1296098,3.0677256 -3.1172073,3.206966 -3.2210962,3.1491148 -3.4153049,4.1280646 -3.2545736,3.9818021 Z m -2.7315565,-0.0067 C -5.5821066,3.7044772 -5.7521901,3.1367028 -6.0521943,2.8553262 -6.3472241,2.5381736 -6.5150485,2.0702081 -6.968468,1.9398139 -7.4822323,1.6967581 -8.1460964,1.9804415 -8.3927353,2.4779064 -8.6273447,2.850734 -9.1168299,3.1789091 -8.970108,3.6846486 c 0.042227,0.2021927 0.4423582,0.4809987 0.154384,0.103957 -0.2377041,-0.5799432 0.436183,-0.9224147 0.7140597,-1.3316646 0.3685867,-0.4213312 1.0622224,-0.423784 1.4408417,-0.015657 0.2584204,0.3659847 0.7537642,0.6267223 0.7887084,1.109036 0.080766,0.1219542 -0.2481165,0.4876861 -0.1140155,0.4247749 z m -0.468981,0.2334553 c 0.1426707,-0.7662115 -0.2015937,-1.7457782 -0.1701725,-1.094367 -0.03801,0.070752 0.083997,1.239922 0.1701725,1.094367 z m -1.7450274,0.01538 c 0.109257,-0.170367 0.1653774,-1.8457978 -0.1209061,-1.1700001 -0.062951,0.080121 -0.023711,1.3311297 0.1209061,1.1700001 z M -10.25274,3.8670501 c -0.107263,-0.2166479 -0.360038,-0.2947848 -0.09715,-0.031746 0.01933,0.029444 0.06364,0.052524 0.09715,0.031746 z m 5.8558733,-0.024485 c 0.2525132,-0.2402044 0.071925,-0.2138332 -0.078317,-0.011475 -0.032551,0.055658 0.074687,0.054804 0.078317,0.011475 z M -7.6714171,3.7034344 c 0.2507978,-0.138296 0.038065,-0.5251109 0.2219322,-0.3547245 0.3090877,0.1076092 0.092233,-0.1110682 0.2938428,0.1848741 0.3724864,0.3025202 0.6375847,-0.925722 0.2113368,-0.9640589 -0.056675,-0.2051685 -0.8420493,-0.1679769 -0.8333565,-0.00789 0.3082762,0.030968 -0.4336968,0.070039 -0.2882434,0.3452581 -0.080067,0.1813052 0.1732171,0.615454 0.2593672,0.654315 z M -7.7742219,3.0388821 c 0.1400033,-0.026095 -0.4101056,-0.1843738 -0.024387,-0.1234561 0.4652252,-0.098684 -0.47028,-0.102131 -0.04401,-0.1872578 0.269506,-0.028202 0.5046697,0.081201 0.33907,0.2914158 -0.1006614,-0.2152681 -0.1386623,0.086345 -0.2706708,0.019298 z m 0.6670302,-0.016197 c -0.1163442,-0.081947 0.3044312,0.08279 0,0 z m -0.1641757,0.00843 C -7.4437538,2.6784502 -6.9872812,2.6876141 -6.7825637,2.7927867 -7.1616932,2.7853311 -7.1084825,2.932213 -6.7938206,2.915037 -6.9297503,3.1063002 -7.1751835,2.857121 -7.2713673,3.0311131 Z M -12.649121,2.7829712 c -0.03649,-0.16143 -0.529175,-0.8811809 -0.291924,-0.3414039 0.08501,0.090418 0.166579,0.3482285 0.291924,0.3414039 z m 10.632103,-0.022367 c 0.1861591,-0.116249 0.4469692,-0.8686025 0.1301999,-0.3419906 -0.017645,0.062443 -0.3614903,0.4724907 -0.1301999,0.3419906 z m -10.47779,-0.1273849 c -0.0069,-0.1909444 -0.634969,-0.9853734 -0.338344,-0.362097 0.07704,0.1026604 0.189812,0.4388854 0.338344,0.362097 z m 10.3535218,-0.00962 c 0.185812,-0.129828 0.5024962,-0.9202698 0.157939,-0.4380318 -0.011863,0.095615 -0.4861267,0.5388553 -0.157939,0.4380318 z M -8.1538448,2.0249018 c 0.3229853,-0.2353312 -0.2152195,0.023663 0,0 z"
         id="path20"
         sodipodi:nodetypes="sccccccccccccccccccccccccccccccccccccccccsccccccccccccccccccccccccccccccccscccccccccccccccccccccccccccccccccccccccccscccccccccccccccccccccccccccccc" /><path
         style="fill:#c0a247;fill-opacity:1;stroke-width:1.08052"
         d="m -3.3667496,7.2550054 c -0.082084,-0.2211224 -0.3068218,-0.1593413 -0.023238,-0.3101423 -0.0318,-0.2255741 0.2910093,0.162932 0.2009501,0.1358973 -0.122118,-0.021459 -0.1208977,0.1910439 -0.1777121,0.174245 z m -8.3266264,-0.00216 c -0.02941,-0.2214995 -0.353978,-0.1786395 -0.03153,-0.3251432 0.111181,-0.2183584 0.263484,0.1767832 0.05749,0.2807586 l -0.01446,0.04214 -0.0115,0.00227 z m 8.8550374,-0.6569985 c 0.063442,-0.3002836 -0.6068474,-0.3234035 -0.1248867,-0.4331154 0.1422327,-0.2378165 0.1188196,-0.3421636 0.2409744,-0.019514 0.5639034,0.2028821 -0.1376375,0.058791 -0.1160877,0.4526329 z m -9.2905974,-0.065663 c 0.02463,-0.3328353 -0.604173,-0.3077219 -0.09611,-0.462082 0.136356,-0.4891198 0.118696,0.1242503 0.449358,0.1156688 -0.192984,0.048353 -0.313677,0.1591879 -0.353246,0.3464132 z m -0.326877,-1.2337427 c -0.275284,-0.1588575 0.09772,-0.3825155 0.130352,-0.129319 -0.08014,-0.021403 -0.100034,0.1554344 -0.130352,0.129319 z m 9.9241001,-0.029747 c -0.2718804,-0.1711683 0.1474402,-0.3101819 0.128782,-0.096836 -0.085591,-0.049444 -0.094124,0.2150841 -0.128782,0.096836 z M -12.753604,4.5246974 c -0.08296,-0.2007492 -0.260403,-0.1464699 -0.01162,-0.305362 -0.02278,-0.1955632 0.317537,0.222824 0.129448,0.1639425 -0.07199,-0.012869 -0.07546,0.2207921 -0.117836,0.1414195 z m 10.5152049,-0.00148 c -0.093376,-0.189872 -0.2572222,-0.152538 -0.022117,-0.2952602 -0.034352,-0.2075012 0.2953651,0.1849765 0.1761307,0.1402249 -0.088535,-0.030623 -0.1305894,0.2344373 -0.1540137,0.1550353 z m -7.7926849,-1.458585 c -0.06096,-0.2555598 -0.31569,-0.1918228 -0.02923,-0.3755574 -0.02855,-0.217854 0.265073,0.2137964 0.2132685,0.1600499 -0.1285335,0.00824 -0.1370978,0.1373289 -0.1840425,0.2155075 z m 5.0642434,-0.014702 C -5.0076337,2.8349503 -5.3418268,2.868496 -5.0026186,2.7259776 -5.0168842,2.4544659 -4.7391897,2.8809348 -4.777486,2.8612123 -4.9083068,2.816289 -4.915442,3.1014751 -4.9668406,3.0499304 Z m 0.5561525,-0.7472538 c 0.011295,-0.3415742 -0.6190796,-0.3046015 -0.084852,-0.4757782 0.097526,-0.3005387 0.1169819,-0.2710531 0.2162622,0.00838 0.2674298,0.1148943 0.2933107,0.1256987 0.00665,0.2327487 -0.080653,0.016897 -0.072777,0.3179621 -0.13805,0.2346439 z m -6.2281619,0 c 0.101969,-0.3144205 -0.625811,-0.3303729 -0.148332,-0.4359571 0.150612,-0.1350087 0.157762,-0.4947855 0.241781,-0.089818 0.140699,0.159705 0.430692,0.1652064 0.0715,0.2558052 -0.105697,0.018361 -0.09464,0.2998533 -0.164943,0.2699703 z m 5.3023418,-0.1435403 c -0.2479163,-0.1004885 -0.028157,-0.2165551 0.03307,-0.26222 0.164422,0.2657612 0.2184494,0.043123 -0.03307,0.26222 z m -4.2827904,-0.00717 c -0.1923772,-0.1500303 -0.094913,-0.1493506 0.023112,-0.29205 0.1146931,0.2918661 0.2524002,0.030099 -0.023112,0.29205 z m 3.8750781,-0.4873536 c 0.037439,-0.3111254 -0.6275558,-0.3209436 -0.1081348,-0.4506124 0.1215192,-0.32440497 0.1149691,-0.24299714 0.2536381,0.014176 0.4799056,0.1170595 -0.1768467,0.1143413 -0.1176207,0.413294 l -0.010049,0.019988 z M -9.2948891,1.5529916 c -0.004,-0.2389012 -0.4534281,-0.215974 -0.053075,-0.3458619 0.07287,-0.38812041 0.137947,0.1383645 0.3257255,0.1128389 -0.1672173,-0.013363 -0.2329292,0.2442502 -0.2726546,0.233023 z"
         id="path20-6"
         sodipodi:nodetypes="ccccsccccssccssccssccccccccccccsccscccsccccccccccccccsccccccccccccccccccc" /><path
         id="path23"
         style="fill:#e68dea;fill-opacity:1;stroke-width:0.600001;stroke-linecap:round;stroke-linejoin:round"
         d="m -6.8619806,3.4559012 c -0.057343,-0.014336 -0.2672222,0.6623569 -0.4993103,0.5052763 -0.1526709,0.135976 -0.3495127,-0.2409073 -0.5023133,-0.5112823 0.1448535,-0.067528 0.1891608,-0.3107634 0.4982047,-0.073869 0.2650796,-0.1972144 0.5034189,0.079876 0.5034189,0.079875 z"
         sodipodi:nodetypes="ccccc" /><path
         style="fill:none;fill-opacity:1;stroke:#a235ca;stroke-width:0.03;stroke-linecap:round;stroke-linejoin:round;stroke-dasharray:none;stroke-opacity:1"
         d="M -7.554711,3.2844864 -7.339776,3.3920588 -7.15562,3.2876273"
         id="path24"
         sodipodi:nodetypes="ccc" /><path
         id="path25"
         style="fill:#7e2718;fill-opacity:1;stroke-width:0.0197392;stroke-linecap:round;stroke-linejoin:round"
         d="m -7.0814458,3.6041226 c 5e-7,0.04315 -0.122775,0.078131 -0.2742263,0.078131 -0.1514513,0 -0.2742267,-0.034981 -0.2742262,-0.078131 -5e-7,-0.04315 0.1968445,-0.1161154 0.2742262,-0.043945 0.088777,-0.064574 0.2742268,7.945e-4 0.2742263,0.043945 z"
         sodipodi:nodetypes="ssscs" /></g></g></svg>
