<?xml version="1.0" encoding="UTF-8" standalone="no"?>
<!-- Created with Inkscape (http://www.inkscape.org/) -->

<svg
   width="15mm"
   height="15mm"
   viewBox="0 0 15 15"
   version="1.1"
   id="svg1"
   inkscape:export-filename="witch.png"
   inkscape:export-xdpi="96"
   inkscape:export-ydpi="96"
   inkscape:version="1.3.2 (091e20e, 2023-11-25)"
   sodipodi:docname="witch.svg"
   xml:space="preserve"
   xmlns:inkscape="http://www.inkscape.org/namespaces/inkscape"
   xmlns:sodipodi="http://sodipodi.sourceforge.net/DTD/sodipodi-0.dtd"
   xmlns="http://www.w3.org/2000/svg"
   xmlns:svg="http://www.w3.org/2000/svg"><sodipodi:namedview
     id="namedview1"
     pagecolor="#ffffff"
     bordercolor="#000000"
     borderopacity="0.25"
     inkscape:showpageshadow="2"
     inkscape:pageopacity="0.0"
     inkscape:pagecheckerboard="0"
     inkscape:deskcolor="#d1d1d1"
     inkscape:document-units="mm"
     showguides="false"
     inkscape:zoom="7.0910441"
     inkscape:cx="83.767635"
     inkscape:cy="56.832251"
     inkscape:window-width="1792"
     inkscape:window-height="993"
     inkscape:window-x="0"
     inkscape:window-y="25"
     inkscape:window-maximized="0"
     inkscape:current-layer="layer1" /><defs
     id="defs1"><linearGradient
       id="linearGradient9"><stop
         style="stop-color:#17360a;stop-opacity:1;"
         offset="0"
         id="stop10" /><stop
         style="stop-color:#4cab1c;stop-opacity:1;"
         offset="1"
         id="stop11" /></linearGradient><linearGradient
       id="linearGradient9-1"><stop
         style="stop-color:#17360a;stop-opacity:1;"
         offset="0"
         id="stop9" /><stop
         style="stop-color:#4cab1c;stop-opacity:1;"
         offset="1"
         id="stop8" /></linearGradient><filter
       inkscape:collect="always"
       style="color-interpolation-filters:sRGB"
       id="filter1"
       x="-0.041453233"
       y="-0.13545699"
       width="1.0829065"
       height="1.270914"><feGaussianBlur
         inkscape:collect="always"
         stdDeviation="0.14356502"
         id="feGaussianBlur1" /></filter></defs><g
     inkscape:label="Layer 1"
     inkscape:groupmode="layer"
     id="layer1"><path
       id="path1-7"
       style="fill:#000000;fill-opacity:0.297189;stroke:none;stroke-width:0.54;stroke-linecap:round;stroke-linejoin:round;stroke-dasharray:none;stroke-opacity:1;filter:url(#filter1)"
       d="m 14.846924,10.785841 c -0.37692,0.663301 -2.517644,1.201012 -4.78144,1.201012 -0.5659486,0 -1.0860124,-0.0336 -1.5418696,-0.09438 -0.2279278,-0.03039 -0.1212085,-0.298903 -1.1579933,0.236012 0.4328164,-0.541512 0.1559153,-0.439064 0.00135,-0.4934 C 6.7500706,11.418224 6.4605935,11.117386 6.6489931,10.785841 7.0259129,10.12254 9.1666359,9.5848286 11.430432,9.5848286 c 2.263796,0 3.793412,0.5377114 3.416492,1.2010124 z"
       sodipodi:nodetypes="ssscssss" /><ellipse
       style="fill:#000000;fill-opacity:0.19829424;stroke:#c00707;stroke-width:0.165;stroke-dasharray:none;stroke-opacity:0.21321961"
       id="path5"
       cx="7.4724536"
       cy="11.982809"
       rx="0.24757871"
       ry="0.26408395" /><path
       id="path1"
       style="fill:#959b93;fill-opacity:1;stroke:#39613e;stroke-width:0.54;stroke-linecap:round;stroke-linejoin:round;stroke-dasharray:none;stroke-opacity:1"
       d="m 14.451234,8.1502667 c 0,1.2687785 -1.83517,2.2973263 -4.098966,2.2973263 -0.5659485,0 -1.1051082,-0.06428 -1.5955016,-0.180535 -0.2451967,-0.05813 -0.4782018,0.595225 -1.2110218,1.618424 0.1251028,-1.035818 0.09356,-2.0068266 -0.091882,-2.1107601 -0.7401307,-0.4148175 -1.200559,-0.990269 -1.200559,-1.6244552 -1e-7,-1.2687784 1.835169,-2.2973266 4.0989643,-2.2973266 2.263796,-2e-7 4.098966,1.028548 4.098966,2.2973266 z"
       sodipodi:nodetypes="ssscssss" /><path
       style="fill:#000000;stroke-width:1"
       d="m 14.21814,11.921266 c -0.460454,-0.05347 -1.066388,-0.600631 -1.239632,-0.725137 0.214871,0.255649 0.496954,0.440805 0.774249,0.621364 -0.513054,-0.154966 -0.892134,-0.571772 -1.175985,-1.007633 0.129153,0.421519 0.743767,0.86994 0.896366,1.01178 -0.267243,-0.08578 -0.622317,-0.567169 -0.702174,-0.586202 0.102611,0.193467 0.627363,0.609835 0.521135,0.593176 -0.389638,-0.184403 -0.685472,-0.83833 -0.82171,-1.005975 -0.055,0.238117 0.470663,0.811144 0.331034,0.772362 -0.289007,-0.267967 -0.358796,-0.812064 -0.441168,-1.078308 0.01104,0.143222 0.172134,0.675954 0.01681,0.274887 C 12.272561,10.478863 12.301948,10.068975 12.094261,9.9804408 11.954281,10.098 11.509499,9.9226018 11.902385,9.9397387 11.793182,9.9609894 11.526912,9.8035837 11.782266,9.7918923 11.404148,9.8957052 11.936269,9.5294048 11.606712,9.6670166 11.43095,9.659328 11.168374,9.6477475 11.486203,9.537649 11.351873,9.5811015 11.176507,9.4916917 11.391279,9.4067482 10.86043,9.2754189 10.447011,8.7720302 9.8859768,8.7916853 c -0.237735,0.1657128 0.5454292,0.3670882 0.7357672,0.4847093 0.157036,0.068991 0.437622,0.2257529 0.11569,0.1170967 -0.24642,-0.065654 -0.357924,-0.033283 -0.07922,0.091521 0.231638,0.2014384 0.76197,0.4049099 0.791654,0.6311857 -0.122524,-0.1190261 -0.76615,-0.3683272 -0.628594,-0.1284783 0.144588,0.1018443 0.810991,0.4281443 0.29621,0.2457823 -0.341047,-0.173379 -0.236776,0.0639 0.01743,0.160237 0.176153,0.09809 -0.212648,-0.03226 0.05752,0.09383 0.170565,0.05894 0.833725,0.357015 0.283131,0.254647 -0.532946,-0.09227 -0.931577,-0.48226 -1.422125,-0.679609 -0.381889,-0.1613816 0.266801,0.246296 0.411463,0.289184 0.249027,0.05628 0.537693,0.627529 0.167168,0.428572 0.183282,0.344303 0.154117,1.065898 -0.394621,0.860372 -0.3091327,-0.11427 -0.166601,-0.677664 0.07577,-0.452874 -0.4365042,0.261973 0.395119,0.310883 0.136518,-0.08508 -0.171312,-0.47235 -0.5176801,-0.755503 -1.0019359,-0.843416 0.00881,0.243797 0.8205609,0.739544 0.2509533,0.51804 C 9.1477765,10.527182 8.7951658,10.013934 8.3749373,9.6020582 8.1627959,9.1866111 7.6775424,8.6579678 7.9786799,8.1910873 8.1243584,8.0221981 8.4581328,7.9182222 8.4869524,7.959296 8.8533511,7.7069282 9.3139257,7.7421987 9.7386805,7.7096642 9.2510155,7.5954807 9.8834118,7.6418039 10.022446,7.6882082 9.8332076,7.6499937 9.5026074,7.5044795 9.8921998,7.4520376 10.024373,7.5211706 9.715965,7.3236879 9.766862,7.2008347 9.5964935,6.9569722 8.7958609,6.72655 9.3488518,6.4297398 9.5584964,6.3651405 9.7237289,6.177886 9.4042336,6.3597244 9.114897,6.4656187 8.4264185,6.9100891 9.0313416,7.0908362 9.0516253,7.1521746 8.6590782,7.1030833 9.0085056,7.2017139 9.223522,7.2313745 9.3753292,7.3262176 9.0509912,7.3457416 8.4658103,7.5043975 8.2882264,6.6936613 7.7931672,6.7812301 7.3477011,6.8296755 8.120373,7.1049095 8.2242025,7.2223165 8.4003089,7.3653934 8.9755683,7.5568067 8.8857289,7.6786293 8.3869648,7.720816 8.0354773,7.2690219 7.616043,7.0693873 7.385013,6.8566869 6.7879053,7.1545617 6.8253774,6.692474 6.9633126,6.4658888 5.9761158,6.3876809 6.2455841,6.0663702 6.5189158,6.2856279 6.1718527,5.9387447 6.4093911,6.1008136 6.7356164,6.3838381 7.0719432,6.5452698 7.4803288,6.5663853 7.709764,6.5804784 8.0124899,6.4123886 8.1451065,6.6491313 8.0722391,6.4926232 7.9938074,6.4206013 8.1443139,6.5040384 8.1050148,6.2122297 8.4811741,6.7833301 8.3256097,6.3967816 c 0.06869,-0.1043199 0.3641056,0.3273515 0.168677,-0.00919 0.2330798,-0.1813211 0.7132017,-0.6703101 1.1407292,-0.4692553 0.7587571,0.3618618 1.4140501,0.913371 2.2054081,1.2127537 0.289059,0.1616529 0.958338,0.2868511 0.997375,0.3985703 -0.54094,0.1058407 -1.056725,-0.1895459 -1.535669,-0.4003243 -0.283908,-0.09623 -0.763982,-0.5646672 -0.880873,-0.4916225 0.107963,0.3889613 0.502813,0.6160699 0.604101,1.0082375 -0.232248,-0.3649208 0.116663,0.5358788 0.02291,0.474246 0.0031,-0.2400919 0.06974,-0.3718534 0.09143,-0.056487 0.07929,0.4373012 -0.9609,0.684866 -0.237469,0.9081142 0.227236,0.084781 0.657783,0.409236 0.647579,0.1505941 0.114594,0.1344099 0.165662,0.2327107 0.07827,-0.00839 0.146635,0.091415 0.264027,0.4767922 0.300375,0.229448 0.169552,-0.019649 0.199893,0.2281869 0.09601,-0.051712 0.134698,0.084908 0.219555,0.2398086 0.120779,-0.010201 0.228304,0.061556 0.133408,0.5297024 0.308989,0.3472938 -0.160081,0.3518886 0.205241,-0.1551942 0.391862,-0.018056 0.460819,-0.054137 0.939214,-0.1444182 1.39466,-0.00785 -0.448394,-0.030001 -0.905363,-0.036668 -1.346634,0.051712 0.498431,-0.039632 1.015457,-0.044578 1.496409,0.1095548 0.09976,0.094237 -0.442182,-0.084273 -0.606577,-0.070022 -0.197735,-0.030707 -0.780006,-0.00412 -0.287013,0.00982 0.185719,-0.020593 0.956693,0.2214121 0.437592,0.1064896 -0.158269,-0.048961 -0.887831,-0.081191 -0.370194,-0.026419 0.252228,0.020133 0.875003,0.2143536 0.847029,0.2631444 -0.32453,-0.1140377 -0.932425,-0.2342963 -1.108862,-0.2103704 0.521972,0.063522 1.060263,0.1685934 1.502424,0.4698584 -0.333266,-0.151257 -0.684477,-0.28448 -1.050387,-0.3240644 0.338676,0.052401 1.090431,0.3862374 1.085399,0.4577294 -0.164724,-0.06351 -0.887355,-0.313237 -0.452027,-0.105207 0.21887,0.09561 0.503407,0.320951 0.09394,0.118131 -0.179187,-0.08835 -0.413122,-0.143261 -0.09969,-0.01262 0.211776,0.121544 0.521161,0.22231 0.660426,0.384566 -0.174721,-0.06493 -0.690367,-0.30013 -0.623909,-0.228432 0.185443,0.07112 0.780757,0.460995 0.281167,0.263332 -0.637249,-0.245858 0.780941,0.445006 0.148377,0.177271 -0.207479,-0.105655 -0.660423,-0.300641 -0.213922,-0.04971 0.14792,0.07066 0.526157,0.281508 0.139298,0.157751 -0.147718,-0.03694 -0.607451,-0.237429 -0.245447,-0.04864 0.16659,0.116249 0.937944,0.34353 0.364538,0.266666 -0.198965,-0.01672 -0.635686,-0.201952 -0.660353,-0.192236 0.177368,0.144519 0.768614,0.24644 0.701464,0.320588 -0.365096,0.04268 -0.956234,-0.236664 -1.108962,-0.310553 0.155812,0.146584 0.758409,0.319953 0.639184,0.344617 -0.175133,-0.04485 -0.510021,-0.121004 -0.142142,0.01748 0.164639,0.03404 0.594366,0.201617 0.170595,0.126925 -0.184189,-0.01332 -0.764476,-0.281148 -0.331161,-0.04669 0.164244,0.06697 0.37964,0.196772 0.05126,0.10061 -0.221522,-0.0092 -0.744814,-0.397556 -0.754475,-0.336311 0.174126,0.177452 0.813013,0.378242 0.737692,0.410246 -0.17759,-0.04961 -0.579656,-0.199634 -0.198581,-0.01582 0.04784,0.03119 0.586955,0.211075 0.220924,0.138902 z M 12.703795,9.6753734 c 0.09809,-0.040766 -0.275548,0.039917 0,0 z M 8.9809352,10.449437 C 8.7818906,10.380945 8.3416218,9.5957789 8.7091564,10.091356 c 0.075673,0.108155 0.2668787,0.268031 0.2717788,0.358081 z M 13.534664,7.5157857 C 12.226292,7.3167852 11.020808,6.7034386 9.9257253,5.9869184 9.6316773,5.9466007 8.8779951,5.7462349 9.4336675,5.4400967 9.7650279,5.1762632 9.1594624,5.7246605 9.1293302,5.3795382 9.0475923,4.9341122 8.3983899,5.6173126 8.5736094,5.1202191 8.9348163,4.841324 8.405725,4.8490555 8.327501,4.7663069 8.4419471,4.5788579 9.0220217,4.4129057 8.503685,4.3067688 8.2190749,4.2045661 7.6995358,3.8023601 7.7763379,3.6184913 8.2882574,3.7167902 8.8059441,3.91211 9.2792763,4.0788935 9.1231515,3.9775614 8.9738808,3.8490039 9.2617193,3.9480191 8.9628298,3.6996273 9.7296301,4.0418956 9.3232519,3.7637127 c 0.0994,-0.04273 0.4220733,0.053254 0.1683624,-0.082712 0.3949879,-0.025988 0.7766547,-0.3659607 1.1506587,-0.1124092 0.09544,0.1794769 0.725145,0.1867651 0.652443,-0.025329 -0.340452,-0.1297514 0.452961,-0.1193895 0.105779,0.1670567 -0.270273,0.3729078 -0.863827,0.077727 -1.08658,0.1591452 -0.4373508,0.2077652 -0.367795,0.7342253 0.109588,0.806353 0.381726,0.018853 0.706487,-0.3025126 1.123013,-0.138543 0.193871,0.0012 0.469501,-0.1526389 0.574433,0.076677 -0.454031,-0.050734 -0.992869,-0.021449 -1.448966,0.1267851 -0.0191,0.1738488 0.479896,0.062685 0.559154,-0.011676 -0.155764,0.1826644 -0.6594,0.261586 -0.700942,0.2842229 0.408803,0.1384928 0.673924,-0.2564228 1.058943,-0.2791416 0.243416,-0.052035 0.654584,0.2017713 0.16048,0.065322 0.290345,0.2923205 1.15709,-0.2169001 0.675334,-0.389764 0.522582,-0.023367 0.02144,0.4688208 -0.06533,0.6166866 0.194234,-0.031006 0.507849,-0.1679423 0.139903,0.021692 -0.242857,0.2575001 -0.89459,-0.0051 -0.975934,0.1015118 0.318339,0.1815079 0.775409,0.049086 1.01947,0.214388 -0.179437,0.2832194 0.03794,-0.03609 -0.230386,-0.031649 -0.43395,0.077876 -0.825051,-0.067867 -1.224921,0.1436188 -0.209583,0.1352314 -0.88562,-0.2057694 -0.401385,0.049993 0.358909,0.078379 0.953724,-0.1603092 1.172346,0.04807 -0.493502,-0.139022 -1.05066,0.3143558 -1.486789,-0.060166 -0.269199,-0.1684964 -1.0275058,0.021338 -0.9656173,0.082441 0.5082515,-0.3004202 1.0226203,0.09006 1.4761253,0.2960162 0.750135,0.2863345 1.587897,0.1532179 2.303368,-0.1682094 0.551745,-0.1295608 1.129499,-0.2260018 1.695916,-0.2017817 0.227491,0.0093 0.50168,0.1184838 0.09059,0.08785 -0.464991,-0.036874 -0.92216,0.3272547 -0.767369,0.8033868 -0.143168,0.1538942 -0.900901,0.2533674 -0.348936,0.168962 0.163755,-0.09733 0.500689,-0.091877 0.249168,0.1498857 -0.04909,0.4857246 -0.701359,0.3189545 -1.048227,0.3648982 -0.249417,-0.019682 -0.351841,0.03084 -0.03391,0.030402 0.441137,-0.00579 0.921006,-0.1380956 1.254868,0.165958 0.236776,0.054958 0.945875,-0.3457163 0.454668,0.012387 -0.354692,0.2216271 -0.792362,0.2416231 -1.19791,0.2097451 z M 12.350439,6.2745538 c 0.629207,-0.118729 1.20574,-0.4085669 1.789785,-0.6583303 -0.851074,0.1408672 -1.614573,0.7232567 -2.50867,0.6033576 -0.195298,-0.024397 -0.663135,-0.074901 -0.221265,0.023594 0.307432,0.071753 0.628482,0.078188 0.94015,0.031379 z M 11.049786,5.4265895 c 0.173163,-0.1405649 0.713416,-0.1521426 0.676587,-0.1936835 -0.355154,-0.1599729 -0.663167,0.2432795 -1.022176,0.1621929 0.108736,0.041152 0.23135,0.070042 0.345589,0.031491 z m 0.228587,-0.4158708 c 0.242238,-0.2999978 0.976638,0.1657406 1.002331,-0.073211 -0.376068,0.010092 -0.81062,-0.2286362 -1.108662,0.1303983 l 0.035,-0.016994 0.07133,-0.040193 z m -0.06759,-0.06844 c 0.222341,-0.1741724 -0.281366,0.1747063 0,0 z M 10.32432,4.8933454 C 9.5336836,4.6192881 8.7913516,4.22384 8.1048832,3.7479505 8.3337398,3.9422288 8.7746467,4.2124001 9.1018454,4.3964326 9.488022,4.6086855 9.8957295,4.7868237 10.32432,4.8933454 Z M 8.0668064,6.5487009 c -0.01116,-0.05519 0.042113,0.065529 0,0 z M 10.916192,4.764153 c 0.269919,-0.121329 -0.184113,0.1211123 0,0 z M 10.3876,4.5896522 c 0.211499,-0.098766 0.731839,-0.2721413 0.255435,-0.072776 -0.06976,0.05512 -0.163019,0.1180027 -0.255435,0.072776 z m 0.957338,-0.148641 c -0.254101,-0.013315 -0.294683,-0.073213 -0.01914,-0.032202 0.117482,0.015425 0.151803,0.06475 0.01914,0.032202 z M 9.7899183,3.5811048 c 0.2074768,-0.1316351 0.2674747,0.024895 0,0 z"
       id="path2"
       inkscape:export-filename="./witch.png"
       inkscape:export-xdpi="96"
       inkscape:export-ydpi="96" /></g></svg>
