<?xml version="1.0" encoding="UTF-8" standalone="no"?>
<!-- Created with Inkscape (http://www.inkscape.org/) -->

<svg
   width="15mm"
   height="15mm"
   viewBox="0 0 15 15"
   version="1.1"
   id="svg1"
   inkscape:export-filename="wizard.png"
   inkscape:export-xdpi="96"
   inkscape:export-ydpi="96"
   inkscape:version="1.3.2 (091e20e, 2023-11-25)"
   sodipodi:docname="wizard.svg"
   xml:space="preserve"
   xmlns:inkscape="http://www.inkscape.org/namespaces/inkscape"
   xmlns:sodipodi="http://sodipodi.sourceforge.net/DTD/sodipodi-0.dtd"
   xmlns="http://www.w3.org/2000/svg"
   xmlns:svg="http://www.w3.org/2000/svg"><sodipodi:namedview
     id="namedview1"
     pagecolor="#ffffff"
     bordercolor="#000000"
     borderopacity="0.25"
     inkscape:showpageshadow="2"
     inkscape:pageopacity="0.0"
     inkscape:pagecheckerboard="0"
     inkscape:deskcolor="#d1d1d1"
     inkscape:document-units="mm"
     showguides="false"
     inkscape:zoom="4.6630951"
     inkscape:cx="93.50013"
     inkscape:cy="48.465664"
     inkscape:window-width="1792"
     inkscape:window-height="993"
     inkscape:window-x="0"
     inkscape:window-y="25"
     inkscape:window-maximized="0"
     inkscape:current-layer="layer1" /><defs
     id="defs1"><linearGradient
       id="linearGradient9"><stop
         style="stop-color:#17360a;stop-opacity:1;"
         offset="0"
         id="stop10" /><stop
         style="stop-color:#4cab1c;stop-opacity:1;"
         offset="1"
         id="stop11" /></linearGradient><linearGradient
       id="linearGradient9-1"><stop
         style="stop-color:#17360a;stop-opacity:1;"
         offset="0"
         id="stop9" /><stop
         style="stop-color:#4cab1c;stop-opacity:1;"
         offset="1"
         id="stop8" /></linearGradient><filter
       inkscape:collect="always"
       style="color-interpolation-filters:sRGB"
       id="filter1"
       x="-0.041453233"
       y="-0.13545699"
       width="1.0829065"
       height="1.270914"><feGaussianBlur
         inkscape:collect="always"
         stdDeviation="0.14356502"
         id="feGaussianBlur1" /></filter></defs><g
     inkscape:label="Layer 1"
     inkscape:groupmode="layer"
     id="layer1"><path
       id="path1-7"
       style="fill:#000000;fill-opacity:0.297189;stroke:none;stroke-width:0.54;stroke-linecap:round;stroke-linejoin:round;stroke-dasharray:none;stroke-opacity:1;filter:url(#filter1)"
       d="m 14.846924,10.785841 c -0.37692,0.663301 -2.517644,1.201012 -4.78144,1.201012 -0.5659486,0 -1.0860124,-0.0336 -1.5418696,-0.09438 -0.2279278,-0.03039 -0.1212085,-0.298903 -1.1579933,0.236012 0.4328164,-0.541512 0.1559153,-0.439064 0.00135,-0.4934 C 6.7500706,11.418224 6.4605935,11.117386 6.6489931,10.785841 7.0259129,10.12254 9.1666359,9.5848286 11.430432,9.5848286 c 2.263796,0 3.793412,0.5377114 3.416492,1.2010124 z"
       sodipodi:nodetypes="ssscssss" /><ellipse
       style="fill:#000000;fill-opacity:0.19829424;stroke:#c00707;stroke-width:0.165;stroke-dasharray:none;stroke-opacity:0.21321961"
       id="path5"
       cx="7.4724536"
       cy="11.982809"
       rx="0.24757871"
       ry="0.26408395" /><path
       id="path1"
       style="fill:#959b93;fill-opacity:1;stroke:#39613e;stroke-width:0.54;stroke-linecap:round;stroke-linejoin:round;stroke-dasharray:none;stroke-opacity:1"
       d="m 14.451234,8.1502667 c 0,1.2687785 -1.83517,2.2973263 -4.098966,2.2973263 -0.5659485,0 -1.1051082,-0.06428 -1.5955016,-0.180535 -0.2451967,-0.05813 -0.4782018,0.595225 -1.2110218,1.618424 0.1251028,-1.035818 0.09356,-2.0068266 -0.091882,-2.1107601 -0.7401307,-0.4148175 -1.200559,-0.990269 -1.200559,-1.6244552 -1e-7,-1.2687784 1.835169,-2.2973266 4.0989643,-2.2973266 2.263796,-2e-7 4.098966,1.028548 4.098966,2.2973266 z"
       sodipodi:nodetypes="ssscssss" /><path
       style="fill:#000000;stroke-width:0.3;stroke:#39523e;stroke-opacity:1;stroke-dasharray:none"
       d="m 10.621408,11.230042 c -0.06241,-0.0038 -0.157581,-0.01189 -0.211499,-0.01805 -0.06261,-0.0071 -0.164212,-0.0087 -0.281197,-0.0045 -0.1894009,0.0069 -0.3540223,-0.0029 -0.5136949,-0.03078 -0.1741366,-0.03038 -0.2304205,-0.03442 -0.5475946,-0.03928 -0.3244814,-0.005 -0.462734,-0.01403 -0.4801708,-0.03146 -0.011262,-0.01127 0.049478,-0.08987 0.1391984,-0.180155 0.1059125,-0.106575 0.111568,-0.118681 0.1589257,-0.340144 0.041811,-0.195525 0.048387,-0.224872 0.1061245,-0.473596 0.016381,-0.07055 0.043754,-0.2104051 0.060836,-0.3107975 0.035046,-0.2059107 0.071432,-0.3771358 0.163572,-0.7695931 0.035036,-0.1492319 0.072863,-0.3179504 0.084058,-0.3749298 0.022268,-0.1133453 0.047784,-0.2204437 0.1010685,-0.4242629 0.050301,-0.1924199 0.094624,-0.4180359 0.1040311,-0.529655 0.00447,-0.05328 0.00639,-0.098935 0.00436,-0.1014562 -0.00213,-0.00252 -0.022227,0.017459 -0.044698,0.0444 C 9.4099145,7.7115586 9.2543981,7.866004 9.2064408,7.9023416 9.0195078,8.0439515 8.9679833,8.0852105 8.8957454,8.1511024 8.7473829,8.2864318 8.7396912,8.2917353 8.6917863,8.2917353 c -0.073975,0 -0.074028,-1.621e-4 -0.1760877,-0.5475949 C 8.479874,7.5519827 8.4461199,7.3218945 8.4365114,7.2043565 8.4335376,7.1679534 8.4237302,7.1227111 8.4147205,7.1038188 8.3998921,7.0727239 8.3898391,7.0667123 8.3086183,7.0403684 8.2592715,7.0243626 8.217541,7.0124999 8.2158856,7.0140071 c -0.00284,0.00259 0.022657,0.9388229 0.032697,1.2004491 0.01774,0.4622751 0.035628,0.984834 0.044525,1.3007347 0.00573,0.2034981 0.016888,0.5364951 0.024792,0.7399931 0.00791,0.203498 0.017281,0.452289 0.020836,0.552868 l 0.00647,0.182873 -0.031841,0.02679 c -0.038836,0.03268 -0.070197,0.03399 -0.1046315,0.0044 -0.024349,-0.02095 -0.026642,-0.03024 -0.034715,-0.140598 -0.00476,-0.065 -0.015519,-0.351271 -0.023918,-0.636167 C 8.1416949,9.9604201 8.1326117,9.6740427 8.1299095,9.6089233 8.1272073,9.543804 8.1184244,9.2862863 8.1103921,9.0366619 8.1023597,8.7870375 8.0912941,8.4673604 8.0858017,8.3262684 8.0803093,8.1851763 8.0712722,7.9431985 8.0657194,7.78854 8.0545236,7.476712 8.0414468,7.2347503 8.0257487,7.0489617 L 8.0153629,6.9260446 7.9776402,6.8851202 c -0.051062,-0.055396 -0.059604,-0.073689 -0.07518,-0.1610186 -0.017986,-0.100835 -0.017388,-0.1791798 0.00188,-0.2454373 0.012577,-0.043265 0.028482,-0.067596 0.074924,-0.1146176 l 0.058957,-0.059693 -0.00582,-0.059566 C 8.029203,6.2120259 8.0221823,6.0387026 8.0167991,5.8596241 8.0114157,5.6805458 8.0041692,5.4790709 8.0006956,5.4119021 l -0.00631,-0.1221249 -0.05571,-0.05571 c -0.063099,-0.063099 -0.079903,-0.10439 -0.079903,-0.1963377 0,-0.07941 0.01087,-0.1043542 0.074588,-0.1711561 l 0.053676,-0.056275 V 4.6954519 c 0,-0.064475 -0.00479,-0.1242991 -0.010931,-0.1363979 C 7.9700889,4.5472009 7.9084781,4.4820034 7.839188,4.4141707 7.7428148,4.3198244 7.7074168,4.2780846 7.6885729,4.2365722 7.6512603,4.154374 7.6371441,4.0829607 7.6388398,3.9849746 c 0.00435,-0.2514697 0.1346049,-0.410959 0.3683631,-0.451044 0.1293982,-0.02219 0.2858918,0.018062 0.3723113,0.09576 0.063321,0.05693 0.1056293,0.1383646 0.1214925,0.2338432 0.020252,0.1218986 -0.012221,0.224924 -0.097904,0.3106068 C 8.3105064,4.266737 8.1961489,4.283981 8.149259,4.2124181 8.1210807,4.1694125 8.1360108,4.1452099 8.2027314,4.1257369 8.3420319,4.085081 8.4025237,3.9247587 8.3271145,3.7960828 8.2204373,3.6140519 7.9184991,3.6440786 7.8273466,3.8457828 c -0.018651,0.041271 -0.02278,0.067398 -0.02281,0.1443395 -3.36e-5,0.086182 0.00263,0.099355 0.032181,0.159382 0.025262,0.051309 0.051638,0.083213 0.1221705,0.1477842 0.172176,0.1576209 0.2059109,0.194399 0.2352841,0.2565084 0.040165,0.084931 0.046771,0.1506592 0.021837,0.2173028 l -0.019748,0.05278 0.047137,0.046002 c 0.048761,0.047586 0.079098,0.1125796 0.079098,0.1694596 0,0.040683 -0.032303,0.1039056 -0.081861,0.1602149 l -0.041472,0.047121 0.00209,0.1190086 c 0.00115,0.065455 0.00731,0.3077068 0.013683,0.538338 l 0.011591,0.4193295 0.035651,0.029102 c 0.088267,0.072052 0.1112088,0.1040431 0.1630973,0.2274294 0.032774,0.077932 0.041929,0.088516 0.081549,0.094273 0.020718,0.00301 0.047318,0.010754 0.059111,0.017209 0.011794,0.00645 0.043781,0.016525 0.071084,0.022381 0.027303,0.00586 0.065186,0.023 0.084186,0.038098 0.022934,0.018225 0.051093,0.029412 0.083785,0.033284 0.027082,0.00321 0.062579,0.012729 0.078881,0.02116 0.018848,0.00974 0.055866,0.015333 0.1016635,0.015343 0.087773,1.87e-5 0.1312144,0.019138 0.1657551,0.07294 0.022309,0.034746 0.024978,0.03629 0.027962,0.016146 0.00223,-0.015352 0.015305,-0.026995 0.041927,-0.037453 0.023171,-0.0091 0.038629,-0.021685 0.038629,-0.031439 0,-0.02282 0.01972,-0.039943 0.045987,-0.039943 0.029971,0 0.052767,-0.026475 0.095882,-0.1113402 0.046099,-0.090742 0.090523,-0.1631218 0.1194065,-0.1945237 0.031311,-0.034046 0.059821,-0.093635 0.077877,-0.1628045 0.017244,-0.066049 0.015021,-0.076931 -0.00842,-0.041153 -0.017112,0.026115 -0.064967,0.048946 -0.1256242,0.059941 -0.029778,0.0054 -0.040567,0.0027 -0.05772,-0.014459 -0.011601,-0.011603 -0.017325,-0.024204 -0.012707,-0.028003 0.00457,-0.0038 0.02922,-0.023423 0.054685,-0.043609 0.04619,-0.036617 0.1002362,-0.1070119 0.1179745,-0.1536562 0.00944,-0.024918 0.025242,-0.1303664 0.033767,-0.2258684 0.00254,-0.028683 0.011956,-0.070863 0.020877,-0.093732 0.01492,-0.038261 0.027779,-0.060558 0.1053354,-0.1826797 0.014818,-0.023338 0.035614,-0.049854 0.046211,-0.058926 0.022978,-0.019678 0.024886,-0.040169 0.00447,-0.048006 -0.020675,-0.00794 -0.018624,-0.03257 0.010708,-0.1287425 0.014026,-0.045995 0.022887,-0.086245 0.01969,-0.089443 -0.00315,-0.0032 -0.016666,0.00438 -0.029941,0.016851 -0.014899,0.014001 -0.030387,0.020262 -0.040506,0.016379 -0.030164,-0.011575 0.00244,-0.1131191 0.05773,-0.1798916 0.062512,-0.075483 0.1295121,-0.199243 0.117287,-0.2166652 C 9.9048607,4.9102716 9.861218,4.8809152 9.8112105,4.8532335 9.708104,4.796159 9.4387907,4.6235169 9.3924949,4.5848186 9.339332,4.5403811 9.3112484,4.4942071 9.3301061,4.48226 c 0.00741,-0.00472 0.020218,-0.00863 0.028358,-0.00869 0.012687,-8.22e-5 0.2160286,0.025951 0.3403972,0.043581 0.02171,0.00308 0.1136061,0.014658 0.2042206,0.025735 l 0.1647541,0.020141 0.0376,-0.027565 c 0.03927,-0.028783 0.178001,-0.1581579 0.314851,-0.2936098 0.117355,-0.1161557 0.264984,-0.2502819 0.307262,-0.2791603 0.06372,-0.043526 0.132817,-0.069568 0.214496,-0.080844 0.117987,-0.01629 0.267588,-0.049163 0.345007,-0.075813 0.03781,-0.013015 0.09115,-0.026296 0.118534,-0.029515 0.04876,-0.00573 0.05115,-0.00475 0.115398,0.047032 0.03608,0.029086 0.11372,0.094685 0.172528,0.1457754 0.122321,0.1062667 0.188541,0.1511845 0.27959,0.1896493 0.03527,0.014901 0.06414,0.032906 0.06414,0.040008 0,0.02015 -0.06208,0.036413 -0.141326,0.037024 -0.08783,6.769e-4 -0.179913,-0.027932 -0.317731,-0.098725 -0.05216,-0.026795 -0.09898,-0.048716 -0.104023,-0.048716 -0.0051,10e-8 -0.02115,0.015003 -0.03578,0.033339 -0.01462,0.018336 -0.06229,0.058347 -0.105915,0.088914 -0.04362,0.030567 -0.08565,0.065514 -0.09339,0.077661 -0.0077,0.012146 -0.01912,0.055346 -0.02527,0.095999 -0.0086,0.056856 -0.02115,0.091013 -0.05433,0.1479986 -0.04929,0.084651 -0.06024,0.1213909 -0.06911,0.2319486 -0.0035,0.043413 -0.01076,0.1046705 -0.01617,0.136128 -0.0054,0.031457 -0.0073,0.065322 -0.0041,0.075255 0.0031,0.00994 0.02892,0.033982 0.05725,0.053444 0.02834,0.019462 0.08038,0.057918 0.115652,0.085459 0.03527,0.027541 0.09836,0.07429 0.140181,0.103887 0.09795,0.069314 0.234749,0.1900462 0.234749,0.2071828 0,0.035197 -0.220043,0.017967 -0.439062,-0.034381 -0.152612,-0.036475 -0.146799,-0.036309 -0.140227,-0.00402 0.01324,0.065096 0.04162,0.1071872 0.133899,0.1986613 0.09357,0.092755 0.126854,0.1425243 0.168331,0.2517233 0.01532,0.040322 -0.0095,0.045045 -0.07083,0.013462 -0.02766,-0.014252 -0.05251,-0.023687 -0.05523,-0.020966 -0.0027,0.00272 0.05529,0.063747 0.128932,0.1356136 0.144364,0.1409003 0.154961,0.1585359 0.171875,0.2860414 0.005,0.037474 0.01645,0.061868 0.04705,0.099968 0.0686,0.085417 0.09868,0.126402 0.124341,0.1693719 0.05479,0.091766 0.13124,0.1814001 0.163934,0.1921903 0.0395,0.013038 0.04951,0.039336 0.02991,0.078629 -0.01786,0.035797 -0.0091,0.037212 0.05282,0.00855 0.06903,-0.031948 0.170506,-0.067801 0.192356,-0.067962 0.02405,-1.77e-4 0.04331,-0.010695 0.132681,-0.072481 0.06004,-0.041513 0.07437,-0.04733 0.106499,-0.043269 0.02785,0.00352 0.04698,-0.00136 0.0766,-0.019522 0.02171,-0.013317 0.108286,-0.064187 0.192399,-0.1130442 0.0881,-0.051174 0.171069,-0.1072645 0.195718,-0.1323156 0.04837,-0.049157 0.06299,-0.052868 0.08492,-0.021556 0.03585,0.05118 0.01005,0.1281617 -0.06655,0.1987808 -0.02279,0.020997 -0.0333,0.035433 -0.02338,0.032078 0.0099,-0.00336 0.05432,-0.015249 0.09866,-0.026432 0.04434,-0.011183 0.121747,-0.033389 0.172009,-0.049345 0.05235,-0.01662 0.113227,-0.029012 0.142527,-0.029012 h 0.05114 l -0.03893,0.03603 c -0.02141,0.019817 -0.05891,0.04924 -0.08333,0.065387 -0.02442,0.016146 -0.03709,0.026886 -0.02814,0.023867 0.03377,-0.011403 0.151986,-0.017293 0.165381,-0.00824 0.01157,0.00783 0.0118,0.014478 0.0014,0.039637 -0.01788,0.043175 -0.153609,0.1693361 -0.222915,0.2072056 -0.115561,0.063145 -0.272757,0.118879 -0.395658,0.1402812 -0.03402,0.00593 -0.06696,0.016925 -0.0732,0.024447 -0.0064,0.00774 -0.0094,0.031942 -0.007,0.055795 0.0054,0.052008 -0.01583,0.2348631 -0.03617,0.3111478 -0.03279,0.1229917 -0.05336,0.227925 -0.05942,0.3032322 -0.0035,0.043413 -0.0081,0.098913 -0.01015,0.1233322 -0.0021,0.02442 -0.0067,0.082139 -0.01015,0.1282655 -0.0087,0.1159053 -0.0418,0.2984657 -0.06548,0.3617992 -0.0222,0.059317 -0.07523,0.1217236 -0.103292,0.1215448 -0.01867,-1.106e-4 -0.250259,-0.1709012 -0.439301,-0.3239786 l -0.101728,-0.082374 -0.04672,0.0062 c -0.06501,0.00863 -0.100896,-0.00937 -0.168219,-0.084301 -0.03114,-0.034659 -0.06826,-0.075987 -0.08249,-0.091843 -0.03897,-0.04342 -0.132037,-0.1681121 -0.194799,-0.261017 -0.06394,-0.09465 -0.0644,-0.093632 -0.03642,0.080342 0.033,0.2050659 0.202066,0.835061 0.330281,1.2306923 0.134353,0.4145723 0.154078,0.4742496 0.210366,0.6364546 0.06377,0.1837515 0.136505,0.3545851 0.186928,0.4390022 0.01782,0.029847 0.03243,0.057476 0.03244,0.0614 1.3e-5,0.004 0.01943,0.03944 0.04313,0.07893 0.02371,0.03949 0.07893,0.133958 0.122717,0.209931 0.148152,0.257062 0.195222,0.324721 0.32257,0.463663 0.08621,0.09406 0.09936,0.114232 0.09014,0.138259 -0.01254,0.0327 -0.143584,0.0816 -0.263245,0.09825 -0.06216,0.0086 -0.14003,0.02004 -0.173034,0.0253 -0.03301,0.0053 -0.0739,0.0095 -0.09089,0.0095 -0.02749,0 -0.032,0.0042 -0.04115,0.03812 -0.0094,0.03497 -0.01454,0.03936 -0.06204,0.05308 -0.0956,0.02762 -0.297123,0.05685 -0.461244,0.06691 -0.290353,0.01779 -0.320097,0.0204 -0.360131,0.03151 -0.05233,0.01452 -0.375283,0.02429 -0.517995,0.01565 z"
       id="path2" /><path
       style="fill:#000000;stroke:none;stroke-width:0.3;stroke-dasharray:none;stroke-opacity:1"
       d="m 10.637805,11.209775 c -0.06241,-0.0038 -0.157581,-0.01189 -0.211499,-0.01805 -0.06261,-0.0071 -0.164212,-0.0087 -0.281197,-0.0045 -0.1894005,0.0069 -0.3540219,-0.0029 -0.5136945,-0.03078 -0.1741366,-0.03038 -0.2304205,-0.03442 -0.5475946,-0.03928 -0.3244814,-0.005 -0.462734,-0.01403 -0.4801708,-0.03146 -0.011262,-0.01127 0.049478,-0.08987 0.1391984,-0.180155 0.1059125,-0.106575 0.111568,-0.118681 0.1589257,-0.340144 0.041811,-0.195525 0.048387,-0.224872 0.1061245,-0.473596 0.016381,-0.07055 0.043754,-0.2104055 0.060836,-0.3107979 0.035046,-0.2059107 0.071432,-0.3771358 0.163572,-0.7695931 0.035036,-0.1492319 0.072863,-0.3179504 0.084058,-0.3749298 0.022268,-0.1133453 0.047784,-0.2204437 0.1010685,-0.4242629 0.050301,-0.1924199 0.094624,-0.4180359 0.1040311,-0.529655 0.00447,-0.05328 0.00639,-0.098935 0.00436,-0.1014562 -0.00213,-0.00252 -0.022227,0.017459 -0.044698,0.0444 C 9.4263123,7.6912911 9.2707955,7.8457366 9.2228382,7.8820742 9.0359052,8.0236841 8.9843807,8.0649431 8.9121428,8.130835 8.7637803,8.2661644 8.7560886,8.2714679 8.7081837,8.2714679 8.6342087,8.2714679 8.6341557,8.2713058 8.532096,7.723873 8.496271,7.5317153 8.462517,7.3016271 8.452909,7.1840891 8.449939,7.1476861 8.440128,7.1024441 8.431118,7.0835514 8.41629,7.0524564 8.406237,7.0464444 8.3250158,7.0201014 c -0.049347,-0.016006 -0.091077,-0.027869 -0.092733,-0.026361 -0.00284,0.00259 0.022657,0.9388229 0.032697,1.2004491 0.01774,0.4622751 0.035628,0.984834 0.044525,1.3007347 0.00573,0.2034981 0.016888,0.5364948 0.024792,0.7399928 0.00791,0.203498 0.017281,0.452289 0.020836,0.552868 l 0.00647,0.182873 -0.031841,0.02679 c -0.038836,0.03268 -0.070197,0.03399 -0.1046315,0.0044 -0.024349,-0.02095 -0.026642,-0.03024 -0.034715,-0.140598 -0.00476,-0.065 -0.015519,-0.351271 -0.023918,-0.636167 C 8.1580873,9.9401534 8.1490093,9.653776 8.1463063,9.5886566 8.1436063,9.5235376 8.1348213,9.2660196 8.1267893,9.0163952 8.1187593,8.7667708 8.1076913,8.4470937 8.1021993,8.3060017 8.0967093,8.1649096 8.0876693,7.9229318 8.0821173,7.7682733 8.0709213,7.4564453 8.0578443,7.2144836 8.0421463,7.028695 L 8.0317603,6.9057779 7.9940373,6.8648539 C 7.9429753,6.8094579 7.9344333,6.7911649 7.9188573,6.7038353 7.9008713,6.6030003 7.9014693,6.5246555 7.9207373,6.458398 7.9333143,6.415133 7.9492193,6.390802 7.9956613,6.3437804 l 0.058957,-0.059693 -0.00582,-0.059566 c -0.0032,-0.032762 -0.010219,-0.2060851 -0.015602,-0.3851636 -0.00538,-0.1790783 -0.01263,-0.3805532 -0.016103,-0.447722 l -0.00631,-0.1221249 -0.05571,-0.05571 c -0.063099,-0.063099 -0.079903,-0.10439 -0.079903,-0.1963377 0,-0.07941 0.01087,-0.1043542 0.074588,-0.1711561 l 0.053676,-0.056275 V 4.6751856 c 0,-0.064475 -0.00479,-0.1242991 -0.010931,-0.1363979 -0.00602,-0.011853 -0.067627,-0.077051 -0.1369176,-0.144883 -0.096373,-0.09435 -0.1317712,-0.136086 -0.1506151,-0.177599 -0.037313,-0.0822 -0.051429,-0.153611 -0.049733,-0.251597 0.00435,-0.25147 0.1346049,-0.410959 0.3683631,-0.451044 0.1293982,-0.02219 0.2858918,0.01806 0.3723113,0.09576 0.063321,0.05693 0.1056293,0.138364 0.1214925,0.233843 0.020252,0.121898 -0.012221,0.224924 -0.097904,0.310607 -0.092596,0.0926 -0.2069538,0.10984 -0.2538437,0.03828 -0.028178,-0.04301 -0.013248,-0.06721 0.053472,-0.08668 0.1393005,-0.04066 0.1997923,-0.200978 0.1243831,-0.329654 -0.1066772,-0.182031 -0.4086154,-0.152004 -0.4997679,0.0497 -0.018651,0.04127 -0.02278,0.0674 -0.02281,0.144339 -3.36e-5,0.08618 0.00263,0.09936 0.032181,0.159382 0.025262,0.05131 0.051638,0.08321 0.1221705,0.147785 0.172176,0.15762 0.2059109,0.1943985 0.2352841,0.2565079 0.040165,0.084931 0.046771,0.1506592 0.021837,0.2173028 l -0.019748,0.05278 0.047137,0.046002 c 0.048761,0.047586 0.079098,0.1125796 0.079098,0.1694596 0,0.040683 -0.032303,0.1039056 -0.081861,0.1602149 l -0.041472,0.047121 0.00209,0.1190086 c 0.00115,0.065455 0.00731,0.3077068 0.013683,0.538338 l 0.011591,0.4193295 0.035651,0.029102 c 0.088267,0.072052 0.1112088,0.1040431 0.1630973,0.2274294 0.032774,0.077932 0.041929,0.088516 0.081549,0.094273 0.020718,0.00301 0.047318,0.010754 0.059111,0.017209 0.011794,0.00645 0.043781,0.016525 0.071084,0.022381 0.027303,0.00586 0.065186,0.023 0.084186,0.038098 0.022934,0.018225 0.051093,0.029412 0.083785,0.033284 0.027082,0.00321 0.062579,0.012729 0.078881,0.02116 0.018848,0.00974 0.055866,0.015333 0.1016635,0.015343 0.087773,1.87e-5 0.1312144,0.019138 0.1657551,0.07294 0.022309,0.034746 0.024978,0.03629 0.027962,0.016146 0.00223,-0.015352 0.015305,-0.026995 0.041927,-0.037453 0.023171,-0.0091 0.038629,-0.021685 0.038629,-0.031439 0,-0.02282 0.01972,-0.039943 0.045987,-0.039943 0.029971,0 0.052767,-0.026475 0.095882,-0.1113402 C 9.4641735,6.5795392 9.5085975,6.5071594 9.537481,6.4757575 9.568792,6.4417115 9.597302,6.3821225 9.615358,6.312953 9.632602,6.246904 9.630379,6.236022 9.606938,6.2718 9.589826,6.297915 9.541971,6.320746 9.4813138,6.331741 c -0.029778,0.0054 -0.040567,0.0027 -0.05772,-0.014459 -0.011601,-0.011603 -0.017325,-0.024204 -0.012707,-0.028003 0.00457,-0.0038 0.02922,-0.023423 0.054685,-0.043609 0.04619,-0.036617 0.1002362,-0.1070119 0.1179745,-0.1536562 0.00944,-0.024918 0.025242,-0.1303664 0.033767,-0.2258684 0.00254,-0.028683 0.011956,-0.070863 0.020877,-0.093732 0.01492,-0.038261 0.027779,-0.060558 0.1053354,-0.1826797 0.014818,-0.023338 0.035614,-0.049854 0.046211,-0.058926 0.022978,-0.019678 0.024886,-0.040169 0.00447,-0.048006 -0.020675,-0.00794 -0.018624,-0.03257 0.010708,-0.1287425 0.014026,-0.045995 0.022887,-0.086245 0.01969,-0.089443 -0.00315,-0.0032 -0.016666,0.00438 -0.029941,0.016851 -0.014899,0.014001 -0.030387,0.020262 -0.040506,0.016379 -0.030164,-0.011575 0.00244,-0.1131191 0.05773,-0.1798916 0.062512,-0.075483 0.1295121,-0.199243 0.117287,-0.2166652 -0.00792,-0.01128 -0.051559,-0.040636 -0.1015668,-0.068318 C 9.7245014,4.7758964 9.4551881,4.6032548 9.4088923,4.5645565 9.3557293,4.5201185 9.3276463,4.4739455 9.3465033,4.4619979 c 0.00741,-0.0047 0.020218,-0.0086 0.028358,-0.0087 0.012687,-8.2e-5 0.2160286,0.025951 0.3403972,0.043581 0.02171,0.00308 0.1136061,0.014658 0.2042206,0.025735 l 0.1647539,0.020141 0.0376,-0.027565 c 0.03927,-0.028783 0.178001,-0.158158 0.314851,-0.29361 0.117355,-0.116156 0.264984,-0.250282 0.307262,-0.27916 0.06372,-0.04353 0.132817,-0.06957 0.214496,-0.08084 0.117987,-0.01629 0.267588,-0.04916 0.345007,-0.07581 0.03781,-0.01301 0.09115,-0.0263 0.118534,-0.02951 0.04876,-0.0057 0.05115,-0.0047 0.115398,0.04703 0.03608,0.02909 0.11372,0.09469 0.172528,0.145775 0.122321,0.106267 0.188541,0.151185 0.27959,0.18965 0.03527,0.0149 0.06414,0.03291 0.06414,0.04001 0,0.02015 -0.06208,0.03641 -0.141326,0.03702 -0.08783,6.76e-4 -0.179913,-0.02793 -0.317731,-0.09872 -0.05216,-0.02679 -0.09898,-0.04872 -0.104023,-0.04872 -0.0051,0 -0.02115,0.015 -0.03578,0.03334 -0.01462,0.01834 -0.06229,0.05835 -0.105915,0.08891 -0.04362,0.03057 -0.08565,0.06551 -0.09339,0.07766 -0.0077,0.01215 -0.01912,0.05535 -0.02527,0.096 -0.0086,0.05686 -0.02115,0.09101 -0.05433,0.1479982 -0.04929,0.084651 -0.06024,0.1213909 -0.06911,0.2319486 -0.0035,0.043413 -0.01076,0.1046705 -0.01617,0.136128 -0.0054,0.031457 -0.0073,0.065322 -0.0041,0.075255 0.0031,0.00994 0.02892,0.033982 0.05725,0.053444 0.02834,0.019462 0.08038,0.057918 0.115652,0.085459 0.03527,0.027541 0.09836,0.07429 0.140181,0.103887 0.09795,0.069314 0.234749,0.1900462 0.234749,0.2071828 0,0.035197 -0.220043,0.017967 -0.439062,-0.034381 -0.152612,-0.036475 -0.146799,-0.036309 -0.140227,-0.00402 0.01324,0.065096 0.04162,0.1071872 0.133899,0.1986613 0.09357,0.092755 0.126854,0.1425243 0.168331,0.2517233 0.01532,0.040322 -0.0095,0.045045 -0.07083,0.013462 -0.02766,-0.014252 -0.05251,-0.023687 -0.05523,-0.020966 -0.0027,0.00272 0.05529,0.063747 0.128932,0.1356136 0.144364,0.1409003 0.154961,0.1585359 0.171875,0.2860414 0.005,0.037474 0.01645,0.061868 0.04705,0.099968 0.0686,0.085417 0.09868,0.126402 0.124341,0.1693719 0.05479,0.091766 0.13124,0.1814001 0.163934,0.1921903 0.0395,0.013038 0.04951,0.039336 0.02991,0.078629 -0.01786,0.035797 -0.0091,0.037212 0.05282,0.00855 0.06903,-0.031948 0.170506,-0.067801 0.192356,-0.067962 0.02405,-1.77e-4 0.04331,-0.010695 0.132681,-0.072481 0.06004,-0.041513 0.07437,-0.04733 0.106499,-0.043269 0.02785,0.00352 0.04698,-0.00136 0.0766,-0.019522 0.02171,-0.013317 0.108286,-0.064187 0.192399,-0.1130442 0.0881,-0.051174 0.171069,-0.1072645 0.195718,-0.1323156 0.04837,-0.049157 0.06299,-0.052868 0.08492,-0.021556 0.03585,0.05118 0.01005,0.1281617 -0.06655,0.1987808 -0.02279,0.020997 -0.0333,0.035433 -0.02338,0.032078 0.0099,-0.00336 0.05432,-0.015249 0.09866,-0.026432 0.04434,-0.011183 0.121747,-0.033389 0.172009,-0.049345 0.05235,-0.01662 0.113227,-0.029012 0.142527,-0.029012 h 0.05114 l -0.03893,0.03603 c -0.02141,0.019817 -0.05891,0.04924 -0.08333,0.065387 -0.02442,0.016146 -0.03709,0.026886 -0.02814,0.023867 0.03377,-0.011403 0.151986,-0.017293 0.165381,-0.00824 0.01157,0.00783 0.0118,0.014478 0.0014,0.039637 -0.01788,0.043175 -0.153609,0.1693361 -0.222915,0.2072056 -0.115561,0.063145 -0.272757,0.118879 -0.395658,0.1402812 -0.03402,0.00593 -0.06696,0.016925 -0.0732,0.024447 -0.0064,0.00774 -0.0094,0.031942 -0.007,0.055795 0.0054,0.052008 -0.01583,0.2348631 -0.03617,0.3111478 -0.03279,0.1229917 -0.05336,0.227925 -0.05942,0.3032322 -0.0035,0.043413 -0.0081,0.098913 -0.01015,0.1233322 -0.0021,0.02442 -0.0067,0.082139 -0.01015,0.1282655 -0.0087,0.1159053 -0.0418,0.2984657 -0.06548,0.3617992 -0.0222,0.059317 -0.07523,0.1217236 -0.103292,0.1215448 -0.01867,-1.106e-4 -0.250259,-0.1709012 -0.439301,-0.3239786 l -0.101728,-0.082374 -0.04672,0.0062 c -0.06501,0.00863 -0.100896,-0.00937 -0.168219,-0.084301 -0.03114,-0.034659 -0.06826,-0.075987 -0.08249,-0.091843 -0.03897,-0.04342 -0.132037,-0.1681121 -0.194799,-0.261017 -0.06394,-0.09465 -0.0644,-0.093632 -0.03642,0.080342 0.033,0.2050659 0.202066,0.835061 0.330281,1.2306923 0.134353,0.4145723 0.154078,0.4742496 0.210366,0.6364546 0.06377,0.1837515 0.136505,0.3545851 0.186928,0.4390022 0.01782,0.029847 0.03243,0.057476 0.03244,0.0614 1.3e-5,0.004 0.01943,0.03944 0.04313,0.07893 0.02371,0.03949 0.07893,0.133958 0.122717,0.209931 0.148152,0.257062 0.195222,0.324721 0.32257,0.463663 0.08621,0.09406 0.09936,0.114232 0.09014,0.138259 -0.01254,0.0327 -0.143584,0.0816 -0.263245,0.09825 -0.06216,0.0086 -0.14003,0.02004 -0.173034,0.0253 -0.03301,0.0053 -0.0739,0.0095 -0.09089,0.0095 -0.02749,0 -0.032,0.0042 -0.04115,0.03812 -0.0094,0.03497 -0.01454,0.03936 -0.06204,0.05308 -0.0956,0.02762 -0.297123,0.05685 -0.461244,0.06691 -0.290353,0.01779 -0.320097,0.0204 -0.360131,0.03151 -0.05233,0.01452 -0.375283,0.02429 -0.517995,0.01565 z"
       id="path2-5" /></g></svg>
